<?xml version="1.0" standalone="no"?>
<!DOCTYPE svg PUBLIC "-//W3C//DTD SVG 1.1//EN" "http://www.w3.org/Graphics/SVG/1.1/DTD/svg11.dtd" >
<svg>
<metadata>
Created by FontForge 20110222 at Sat Nov  1 08:32:21 2014
 By deploy user
Copyright (c) 2011 by Frantisek Storm. www.stormtype.com. All rights reserved.
</metadata>
<defs>
<font id="TriviaSansRegular-Bold" horiz-adv-x="609" >
  <font-face 
    font-family="Trivia Sans Regular"
    font-weight="700"
    font-stretch="normal"
    units-per-em="1000"
    panose-1="2 0 5 6 9 0 0 2 0 3"
    ascent="800"
    descent="-200"
    x-height="500"
    cap-height="700"
    bbox="-125 -254 1317 892"
    underline-thickness="50"
    underline-position="-100"
    unicode-range="U+0020-F6C3"
  />
<missing-glyph horiz-adv-x="213" 
 />
    <glyph glyph-name="f_f" unicode="ff" horiz-adv-x="646" 
d="M272 710q34 0 79 -8v-119q-33 8 -60 8q-57 0 -57 -59v-32h146v30q0 89 49.5 134.5t133.5 45.5q34 0 79 -8v-119q-33 8 -60 8q-57 0 -57 -59v-32h117v-111h-117v-389h-145v389h-146v-389h-145v389h-70v111h70v30q0 89 49.5 134.5t133.5 45.5z" />
    <glyph glyph-name="f_i" unicode="fi" horiz-adv-x="580" 
d="M272 710q22 0 50 -4v-119q-20 4 -35 4q-30 0 -41.5 -14t-11.5 -45v-32h283v-500h-145v389h-138v-389h-145v389h-70v111h70v30q0 89 49.5 134.5t133.5 45.5zM371 686h146v-125h-146v125z" />
    <glyph glyph-name="f_j" unicode="fj" horiz-adv-x="580" 
d="M272 710q22 0 50 -4v-119q-20 4 -35 4q-30 0 -41.5 -14t-11.5 -45v-32h283v-511q0 -95 -68.5 -147t-155.5 -52v114q40 0 59.5 20t19.5 73v392h-138v-389h-145v389h-70v111h70v30q0 89 49.5 134.5t133.5 45.5zM371 686h146v-125h-146v125z" />
    <glyph glyph-name="f_l" unicode="fl" horiz-adv-x="580" 
d="M308 710q98 0 209 -21v-689h-145v583q-37 8 -69 8q-69 0 -69 -59v-32h98v-111h-98v-389h-145v389h-70v111h70v30q0 88 61 134t158 46z" />
    <glyph glyph-name="f_f_i" unicode="ffi" horiz-adv-x="871" 
d="M272 710q34 0 79 -8v-119q-33 8 -60 8q-57 0 -57 -59v-32h146v30q0 89 49.5 134.5t133.5 45.5q20 0 50 -4v-119q-20 4 -35 4q-30 0 -41.5 -14t-11.5 -45v-32h283v-500h-145v389h-138v-389h-145v389h-146v-389h-145v389h-70v111h70v30q0 89 49.5 134.5t133.5 45.5z
M808 561h-146v125h146v-125z" />
    <glyph glyph-name="f_f_j" unicode="ffj" horiz-adv-x="871" 
d="M272 710q34 0 79 -8v-119q-33 8 -60 8q-57 0 -57 -59v-32h146v30q0 89 49.5 134.5t133.5 45.5q20 0 50 -4v-119q-20 4 -35 4q-30 0 -41.5 -14t-11.5 -45v-32h283v-511q0 -64 -35.5 -111t-84.5 -67.5t-104 -20.5v114q40 0 59.5 20t19.5 73v392h-138v-389h-145v389h-146
v-389h-145v389h-70v111h70v30q0 89 49.5 134.5t133.5 45.5zM662 686h146v-125h-146v125z" />
    <glyph glyph-name="f_f_k" unicode="ffk" horiz-adv-x="1171" 
d="M272 710q34 0 79 -8v-119q-33 8 -60 8q-57 0 -57 -59v-32h146v30q0 88 61 134t158 46q106 0 217 -21v-689h-146v583q-35 8 -76 8q-37 0 -53 -14.5t-16 -44.5v-32h101v-111h-101v-389h-145v389h-146v-389h-145v389h-70v111h70v30q0 89 49.5 134.5t133.5 45.5zM983 500h171
l-176 -222l190 -278h-171l-176 273z" />
    <glyph glyph-name="f_f_l" unicode="ffl" horiz-adv-x="871" 
d="M272 710q34 0 79 -8v-119q-33 8 -60 8q-57 0 -57 -59v-32h146v30q0 88 61 134t158 46q98 0 209 -21v-689h-145v583q-37 8 -66 8q-72 0 -72 -59v-32h97v-111h-97v-389h-145v389h-146v-389h-145v389h-70v111h70v30q0 89 49.5 134.5t133.5 45.5z" />
    <glyph glyph-name="T_h" unicode="Th" horiz-adv-x="1120" 
d="M10 700h760v-267q44 77 140 77q72 0 111 -45t39 -126v-339h-146v308q0 40 -13.5 58t-47.5 18q-40 0 -61.5 -28t-21.5 -82v-274h-145v576h-235v-576h-157v576h-223v124z" />
    <glyph glyph-name=".notdef" horiz-adv-x="213" 
 />
    <glyph glyph-name=".null" horiz-adv-x="0" 
 />
    <glyph glyph-name="nonmarkingreturn" horiz-adv-x="333" 
 />
    <glyph glyph-name="space" unicode=" " horiz-adv-x="213" 
 />
    <glyph glyph-name="exclam" unicode="!" horiz-adv-x="352" 
d="M90 700h172l-18 -500h-136zM106 139h140v-139h-140v139z" />
    <glyph glyph-name="quotedbl" unicode="&#x22;" horiz-adv-x="402" 
d="M148 471h-80l-35 256h148zM336 471h-80l-35 256h148z" />
    <glyph glyph-name="numbersign" unicode="#" horiz-adv-x="689" 
d="M286 0h-134v174h-85v106h85v139h-85v106h85v175h134v-175h118v175h135v-175h83v-106h-83v-139h83v-106h-83v-174h-135v174h-118v-174zM286 419v-139h118v139h-118z" />
    <glyph glyph-name="dollar" unicode="$" horiz-adv-x="614" 
d="M348 -88h-85v80q-108 10 -170.5 71t-66.5 155h148q8 -85 89 -101v176q-40 7 -66.5 14t-60.5 21.5t-54 34t-34 52t-14 75.5q0 86 60 146t169 71v74h85v-73q105 -9 165.5 -69t69.5 -154h-147q-10 82 -88 95v-165q42 -7 69 -13.5t62.5 -21t56.5 -33.5t36 -50.5t15 -72.5
q0 -94 -63.5 -157t-175.5 -74v-81zM437 199q0 31 -23 48.5t-66 28.5v-160q89 13 89 83zM180 502q0 -27 21 -43t62 -27v149q-83 -13 -83 -79z" />
    <glyph glyph-name="percent" unicode="%" horiz-adv-x="898" 
d="M218 603q-63 0 -63 -92t63 -92q64 0 64 91q0 93 -64 93zM218 710q81 0 129.5 -54.5t48.5 -144.5q0 -89 -48 -145t-128 -56q-81 0 -129.5 54.5t-48.5 144.5q0 89 48 145t128 56zM647 700h159l-555 -700h-158zM678 283q-63 0 -63 -92t63 -92q64 0 64 91q0 93 -64 93z
M678 390q81 0 129 -54.5t48 -144.5t-47.5 -145.5t-127.5 -55.5q-81 0 -129.5 54.5t-48.5 144.5q0 89 48 145t128 56z" />
    <glyph glyph-name="ampersand" unicode="&#x26;" horiz-adv-x="731" 
d="M723 126v-134q-102 0 -238 82q-103 -82 -219 -82q-112 0 -172 59t-60 148q0 71 37 128.5t104 80.5q-20 51 -20 97q0 92 57 148.5t175 56.5q103 0 166.5 -56t66.5 -143h-145q-12 69 -93 69q-42 0 -64.5 -19.5t-22.5 -50.5q0 -54 53.5 -128.5t133.5 -140.5q47 80 50 178
h160q-24 -131 -112 -246q83 -47 143 -47zM288 119q54 0 99 25q-105 84 -167 179q-43 -31 -43 -89q0 -50 28.5 -82.5t82.5 -32.5z" />
    <glyph glyph-name="quotesingle" unicode="'" horiz-adv-x="214" 
d="M148 471h-80l-35 256h148z" />
    <glyph glyph-name="parenleft" unicode="(" horiz-adv-x="377" 
d="M361 710v-96q-131 -10 -131 -365t131 -363v-96q-128 4 -210 125t-82 334q0 214 82 335t210 126z" />
    <glyph glyph-name="parenright" unicode=")" horiz-adv-x="377" 
d="M16 710q128 -5 210 -125.5t82 -333.5q0 -214 -82 -335.5t-210 -125.5v96q131 8 131 365q0 353 -131 363v96z" />
    <glyph glyph-name="asterisk" unicode="*" horiz-adv-x="506" 
d="M194 700h115l-8 -124l121 45l34 -107l-124 -30l80 -106l-91 -66l-66 109l-71 -109l-90 66l85 106l-129 30l35 107l119 -45z" />
    <glyph glyph-name="plus" unicode="+" 
d="M365 577v-195h196v-121h-196v-196h-122v196h-195v121h195v195h122z" />
    <glyph glyph-name="comma" unicode="," horiz-adv-x="262" 
d="M32 -147l46 297h151l-102 -297h-95z" />
    <glyph glyph-name="hyphen" unicode="-" horiz-adv-x="355" 
d="M305 261h-255v121h255v-121z" />
    <glyph glyph-name="hyphen" unicode="&#xad;" horiz-adv-x="355" 
d="M305 261h-255v121h255v-121z" />
    <glyph glyph-name="period" unicode="." horiz-adv-x="258" 
d="M58 148h141v-148h-141v148z" />
    <glyph glyph-name="slash" unicode="/" horiz-adv-x="517" 
d="M354 700h151l-342 -700h-151z" />
    <glyph glyph-name="zero" unicode="0" 
d="M304 568q-61 0 -87 -54.5t-26 -163.5t26 -163.5t87 -54.5q62 0 88 54.5t26 163.5t-26 163.5t-88 54.5zM304 710q120 0 197 -91t77 -269t-77 -269t-197 -91q-119 0 -196 91t-77 269t77 269t196 91z" />
    <glyph glyph-name="one" unicode="1" 
d="M543 0h-389v124h131v432l-146 -89l-61 109l207 124h150v-576h108v-124z" />
    <glyph glyph-name="two" unicode="2" 
d="M557 0h-502v119q139 91 216 157t104 112t27 95q0 99 -98 99q-57 0 -82.5 -24.5t-30.5 -81.5h-138q2 110 75 172t186 62q117 0 181 -60t64 -155q0 -100 -72 -180.5t-247 -190.5h317v-124z" />
    <glyph glyph-name="three" unicode="3" 
d="M253 302v112q84 0 114.5 23t30.5 72q0 42 -22 63t-76 21q-56 0 -81 -22t-31 -74h-140q3 99 76 156t184 57q116 0 182.5 -51t66.5 -133q0 -143 -168 -167q178 -14 178 -164q0 -93 -74 -149t-193 -56q-110 0 -183 58t-75 156h142q7 -52 34.5 -74.5t85.5 -22.5q51 0 78.5 25
t27.5 68q0 53 -33 77.5t-124 24.5z" />
    <glyph glyph-name="four" unicode="4" 
d="M488 0h-151v174h-302v123l271 403h182v-403h94v-123h-94v-174zM337 297v252l-170 -252h170z" />
    <glyph glyph-name="five" unicode="5" 
d="M93 700h427v-124h-300l-7 -126q66 10 109 10q106 0 177 -59.5t71 -163.5q0 -111 -77 -179t-197 -68q-111 0 -178 56t-69 159h135q5 -53 32 -76t85 -23q52 0 82.5 32t30.5 87q0 59 -32.5 88.5t-106.5 29.5q-116 0 -208 -16z" />
    <glyph glyph-name="six" unicode="6" 
d="M330 710q100 0 168 -58t70 -144h-139q-15 87 -101 87q-129 0 -138 -206q59 71 161 71q107 0 164 -63t57 -153q0 -103 -68 -178.5t-191 -75.5q-132 0 -204.5 92t-72.5 259q0 168 77.5 268.5t216.5 100.5zM192 288q11 -171 128 -171q52 0 78 31t26 85q0 116 -107 116
q-76 0 -125 -61z" />
    <glyph glyph-name="seven" unicode="7" 
d="M313 0h-165l253 576h-345v124h497v-124z" />
    <glyph glyph-name="eight" unicode="8" 
d="M304 588q-49 0 -72.5 -23t-23.5 -61q0 -90 96 -90t96 90q0 38 -23.5 61t-72.5 23zM304 303q-111 0 -111 -94q0 -44 27.5 -69t83.5 -25q55 0 83.5 25.5t28.5 68.5q0 94 -112 94zM304 710q117 0 181 -53.5t64 -136.5q0 -61 -37.5 -103t-105.5 -54q71 -7 114 -55.5
t43 -121.5q0 -92 -66 -144t-193 -52t-193 52t-66 144q0 72 43 119t115 54q-66 14 -105 57.5t-39 104.5q0 83 63.5 136t181.5 53z" />
    <glyph glyph-name="nine" unicode="9" 
d="M296 710q132 0 204 -92t72 -259q0 -168 -77.5 -268.5t-216.5 -100.5q-103 0 -169.5 54t-68.5 149h137q4 -44 31.5 -66t71.5 -22q128 0 139 206q-61 -71 -162 -71q-107 0 -164 63t-57 153q0 103 68.5 178.5t191.5 75.5zM288 583q-52 0 -78 -31t-26 -85q0 -52 25.5 -84
t81.5 -32q76 0 125 61q-11 171 -128 171z" />
    <glyph glyph-name="colon" unicode=":" horiz-adv-x="258" 
d="M58 148h141v-148h-141v148zM58 500h141v-148h-141v148z" />
    <glyph glyph-name="semicolon" unicode=";" horiz-adv-x="263" 
d="M58 500h141v-148h-141v148zM32 -147l46 297h151l-102 -297h-95z" />
    <glyph glyph-name="less" unicode="&#x3c;" 
d="M553 510l-341 -186l341 -186l-58 -107l-440 246v94l440 245z" />
    <glyph glyph-name="equal" unicode="=" 
d="M561 138h-513v121h513v-121zM561 385h-513v121h513v-121z" />
    <glyph glyph-name="greater" unicode="&#x3e;" horiz-adv-x="593" 
d="M55 138l340 186l-340 186l58 106l440 -245v-94l-440 -246z" />
    <glyph glyph-name="question" unicode="?" horiz-adv-x="577" 
d="M294 710q112 0 172.5 -55t60.5 -140q0 -48 -21 -89t-51 -68.5t-60 -52.5t-51 -53t-21 -57h-137q0 46 20 86t48.5 68t57 53.5t48.5 54t20 58.5q0 31 -22 51t-67 20q-49 0 -70 -22.5t-27 -71.5h-144q10 103 71.5 160.5t172.5 57.5zM184 139h140v-139h-140v139z" />
    <glyph glyph-name="at" unicode="@" horiz-adv-x="867" 
d="M440 364q-35 0 -60.5 -26t-36 -60.5t-10.5 -70.5q0 -66 60 -66q52 0 83 46t31 103q0 74 -67 74zM487 609q162 0 245 -80.5t83 -202.5q0 -118 -68 -204.5t-177 -86.5q-83 0 -83 67q0 15 2 26q-42 -81 -142 -81q-60 0 -99 38t-39 103q0 64 24 125t74.5 104.5t116.5 43.5
q43 0 70.5 -21t36.5 -55l13 57h103l-51 -251q-4 -16 -4 -29q0 -23 21 -23q35 0 63 55.5t28 127.5q0 87 -53 141.5t-167 54.5q-78 0 -140 -28.5t-100 -75t-57.5 -103t-19.5 -117.5q0 -94 53 -150t155 -56q37 0 85 14l2 -98q-53 -15 -104 -15q-145 0 -225.5 87t-80.5 222
q0 62 18 121.5t55 112t88 92t121.5 62.5t152.5 23z" />
    <glyph glyph-name="A" unicode="A" horiz-adv-x="668" 
d="M220 700h230l232 -700h-174l-54 172h-248l-54 -172h-166zM331 597q-10 -51 -27 -107l-62 -198h176l-62 200q-16 50 -25 105z" />
    <glyph glyph-name="B" unicode="B" horiz-adv-x="686" 
d="M235 416h124q97 0 97 83q0 39 -22.5 58t-74.5 19h-124v-160zM415 0h-338v700h327q104 0 159.5 -47.5t55.5 -121.5q0 -133 -144 -162q81 -12 122.5 -58.5t41.5 -118.5q0 -84 -60 -138t-164 -54zM235 124h132q114 0 114 90q0 94 -113 94h-133v-184z" />
    <glyph glyph-name="C" unicode="C" horiz-adv-x="720" 
d="M528 233h162q-9 -109 -90 -176t-211 -67q-151 0 -243.5 102t-92.5 258t92.5 258t243.5 102q130 0 211 -67t90 -176h-162q-14 104 -139 104q-84 0 -124.5 -58.5t-40.5 -162.5t40.5 -162.5t124.5 -58.5q125 0 139 104z" />
    <glyph glyph-name="D" unicode="D" horiz-adv-x="741" 
d="M395 0h-318v700h310q141 0 221.5 -92.5t80.5 -256.5t-78.5 -257.5t-215.5 -93.5zM235 124h124q85 0 125 53t40 173t-41.5 173t-128.5 53h-119v-452z" />
    <glyph glyph-name="E" unicode="E" horiz-adv-x="607" 
d="M569 0h-492v700h484v-124h-326v-153h264v-122h-264v-177h334v-124z" />
    <glyph glyph-name="F" unicode="F" horiz-adv-x="568" 
d="M77 700h485v-124h-327v-177h265v-121h-265v-278h-158v700z" />
    <glyph glyph-name="G" unicode="G" horiz-adv-x="771" 
d="M392 710q129 0 209.5 -66.5t88.5 -175.5h-161q-14 103 -139 103q-84 0 -125 -59t-41 -162q0 -223 161 -223q72 0 112 38t41 108h-161v116h318v-389h-149v116q-15 -39 -36.5 -65t-61.5 -43.5t-96 -17.5q-55 0 -106.5 22.5t-95 65t-70 113.5t-26.5 159q0 156 93 258
t245 102z" />
    <glyph glyph-name="H" unicode="H" horiz-adv-x="715" 
d="M637 0h-157v300h-245v-300h-158v700h158v-277h245v277h157v-700z" />
    <glyph glyph-name="I" unicode="I" horiz-adv-x="312" 
d="M235 0h-158v700h158v-700z" />
    <glyph glyph-name="J" unicode="J" horiz-adv-x="582" 
d="M351 700h158v-475q0 -109 -73 -172t-196 -63q-105 0 -170.5 59t-78.5 160h163q4 -84 92 -84q56 0 80.5 22.5t24.5 74.5v478z" />
    <glyph glyph-name="K" unicode="K" horiz-adv-x="692" 
d="M235 0h-158v700h158v-700zM689 0h-189l-260 369l246 331h183l-247 -322z" />
    <glyph glyph-name="L" unicode="L" horiz-adv-x="549" 
d="M539 0h-462v700h158v-576h304v-124z" />
    <glyph glyph-name="M" unicode="M" horiz-adv-x="918" 
d="M77 700h246l121 -406q14 -58 17 -107q7 68 18 107l118 406h244v-700h-157v465q0 69 3 112q-10 -64 -21 -104l-143 -473h-128l-143 473q-7 28 -20 104q3 -45 3 -111v-466h-158v700z" />
    <glyph glyph-name="N" unicode="N" horiz-adv-x="735" 
d="M77 700h223l182 -430q15 -39 27 -93q-5 55 -5 100v423h154v-700h-205l-197 471q-10 23 -25 91q4 -40 4 -92v-470h-158v700z" />
    <glyph glyph-name="O" unicode="O" horiz-adv-x="777" 
d="M389 571q-84 0 -124.5 -58.5t-40.5 -162.5t40.5 -162.5t124.5 -58.5q83 0 124 59t41 162t-41 162t-124 59zM389 710q151 0 242.5 -101.5t91.5 -258.5t-91.5 -258.5t-242.5 -101.5q-152 0 -244 101.5t-92 258.5t92 258.5t244 101.5z" />
    <glyph glyph-name="P" unicode="P" horiz-adv-x="653" 
d="M407 700q104 0 162.5 -65t58.5 -162q0 -101 -59.5 -166t-170.5 -65h-163v-242h-158v700h330zM367 576h-132v-221h132q100 0 100 114q0 107 -100 107z" />
    <glyph glyph-name="Q" unicode="Q" horiz-adv-x="777" 
d="M389 710q151 0 242.5 -101.5t91.5 -258.5q0 -184 -121 -286l125 -168h-167l-76 106q-50 -12 -95 -12q-152 0 -244 101.5t-92 258.5t92 258.5t244 101.5zM325 228h156l31 -42q42 58 42 164q0 103 -41 162t-124 59q-84 0 -124.5 -58.5t-40.5 -162.5t40.5 -162.5
t124.5 -58.5h6z" />
    <glyph glyph-name="R" unicode="R" horiz-adv-x="687" 
d="M637 0h-157q0 109 -15.5 169.5t-41.5 80.5t-70 20h-118v-270h-158v700h338q108 0 162.5 -53.5t54.5 -138.5q0 -77 -43 -123.5t-124 -53.5q39 -5 68 -21.5t53.5 -52t37.5 -100t13 -157.5zM235 391h136q52 0 74.5 24t22.5 71q0 45 -22.5 67.5t-74.5 22.5h-136v-185z" />
    <glyph glyph-name="S" unicode="S" horiz-adv-x="679" 
d="M343 710q129 0 204.5 -62t80.5 -163h-163q-4 50 -31 75t-95 25q-113 0 -113 -80q0 -39 29.5 -55.5t99.5 -24.5q134 -13 205.5 -60.5t71.5 -140.5q0 -105 -79 -169.5t-218 -64.5q-129 0 -205.5 63t-81.5 165h163q3 -50 33 -77t97 -27q62 0 90 24t28 62q0 42 -30.5 58.5
t-107.5 26.5q-138 16 -201 62.5t-63 143.5q0 95 75.5 157t210.5 62z" />
    <glyph glyph-name="T" unicode="T" horiz-adv-x="623" 
d="M390 0h-157v576h-223v124h602v-124h-222v-576z" />
    <glyph glyph-name="U" unicode="U" horiz-adv-x="730" 
d="M502 253v447h159v-477q0 -112 -88.5 -172.5t-211.5 -60.5q-122 0 -207 60t-85 173v477h158v-447q0 -69 33.5 -100t104.5 -31q72 0 104.5 30.5t32.5 100.5z" />
    <glyph glyph-name="V" unicode="V" horiz-adv-x="658" 
d="M-14 700h172l157 -497q11 -37 16 -65q5 25 16 65l158 497h167l-234 -700h-218z" />
    <glyph glyph-name="W" unicode="W" horiz-adv-x="983" 
d="M12 700h167l108 -454q11 -53 14 -86q5 51 14 86l107 454h143l109 -454q8 -30 15 -86q2 32 13 86l112 454h157l-183 -700h-194l-89 373q-8 31 -12 84q-4 -53 -12 -84l-88 -373h-194z" />
    <glyph glyph-name="X" unicode="X" horiz-adv-x="701" 
d="M0 700h198l121 -179q26 -41 36 -71q13 34 37 72l121 178h184l-248 -345l256 -355h-198l-127 185q-26 42 -36 73q-15 -38 -38 -74l-126 -184h-183l253 352z" />
    <glyph glyph-name="Y" unicode="Y" horiz-adv-x="671" 
d="M415 0h-158v297l-269 403h185l168 -269l170 269h172l-268 -403v-297z" />
    <glyph glyph-name="Z" unicode="Z" horiz-adv-x="631" 
d="M596 0h-556v124l364 452h-355v124h543v-124l-363 -452h367v-124z" />
    <glyph glyph-name="bracketleft" unicode="[" horiz-adv-x="366" 
d="M347 -211h-263v911h263v-86h-125v-739h125v-86z" />
    <glyph glyph-name="backslash" unicode="\" horiz-adv-x="496" 
d="M12 700h151l342 -700h-152z" />
    <glyph glyph-name="bracketright" unicode="]" horiz-adv-x="366" 
d="M19 700h263v-911h-263v86h125v739h-125v86z" />
    <glyph glyph-name="asciicircum" unicode="^" 
d="M304 711l258 -259l-86 -86l-172 173l-172 -172l-86 86z" />
    <glyph glyph-name="underscore" unicode="_" 
d="M567 -174h-525v122h525v-122z" />
    <glyph glyph-name="grave" unicode="`" horiz-adv-x="330" 
d="M39 702l150 16l102 -174h-98z" />
    <glyph glyph-name="a" unicode="a" horiz-adv-x="540" 
d="M277 510q203 0 203 -166v-344h-145v74q-41 -82 -147 -82q-71 0 -112.5 38t-41.5 102q0 181 258 181q30 0 43 -1v32q0 29 -15 43t-51 14q-84 0 -86 -67h-135q5 84 65 130t164 46zM296 219q-114 0 -114 -64q0 -51 54 -51q45 0 72 26.5t27 68.5v19q-12 1 -39 1z" />
    <glyph glyph-name="b" unicode="b" horiz-adv-x="572" 
d="M54 700h145v-283q46 93 138 93q91 0 147 -71.5t56 -188.5t-56 -188.5t-147 -71.5t-138 92v-82h-145v700zM300 387q-49 0 -75 -36t-26 -103q0 -61 25 -98t76 -37q90 0 90 137t-90 137z" />
    <glyph glyph-name="c" unicode="c" horiz-adv-x="517" 
d="M272 510q92 0 155 -56.5t66 -144.5h-146q-2 35 -22.5 57.5t-57.5 22.5q-93 0 -93 -139t93 -139q37 0 57.5 22.5t22.5 57.5h146q-3 -88 -66 -144.5t-155 -56.5q-115 0 -178.5 70t-63.5 190t63.5 190t178.5 70z" />
    <glyph glyph-name="d" unicode="d" horiz-adv-x="572" 
d="M235 510q90 0 136 -93v283h145v-700h-145v82q-47 -92 -136 -92q-91 0 -148 71.5t-57 188.5t57 188.5t148 71.5zM271 387q-91 0 -91 -137t91 -137q51 0 75.5 37t24.5 98q0 139 -100 139z" />
    <glyph glyph-name="e" unicode="e" horiz-adv-x="526" 
d="M275 510q80 0 134 -43t74 -108t14 -144h-323q4 -57 26 -82t68 -25q33 0 54.5 16t23.5 44h144q-5 -76 -67.5 -127t-152.5 -51q-111 0 -176 70.5t-65 190.5q0 117 66.5 188t179.5 71zM270 401q-40 0 -62.5 -21t-30.5 -67h173q-2 40 -21.5 64t-58.5 24z" />
    <glyph glyph-name="f" unicode="f" horiz-adv-x="355" 
d="M272 710q34 0 79 -8v-119q-33 8 -60 8q-57 0 -57 -59v-32h117v-111h-117v-389h-145v389h-70v111h70v30q0 89 49.5 134.5t133.5 45.5z" />
    <glyph glyph-name="g" unicode="g" horiz-adv-x="557" 
d="M270 510q52 0 152 -5t132 -5v-111q-25 0 -106 9q18 -10 28.5 -33.5t10.5 -50.5q0 -75 -57 -122t-164 -47q-37 0 -70 9q-15 -12 -15 -29t10.5 -23t33.5 -6h142q87 0 126.5 -33.5t39.5 -99.5q0 -79 -66 -126t-194 -47q-122 0 -176 29.5t-54 89.5q0 35 20.5 62.5t53.5 41.5
q-33 12 -48.5 28.5t-15.5 49.5q0 31 19 58t48 40q-67 49 -67 135q0 84 56 135t161 51zM345 324q0 83 -74 83q-72 0 -72 -83q0 -34 18 -56t54 -22q74 0 74 78zM326 0h-94q-4 0 -12.5 0.5t-11.5 0.5q-25 -20 -25 -48q0 -29 21.5 -43t72.5 -14q108 0 108 62q0 42 -59 42z" />
    <glyph glyph-name="h" unicode="h" horiz-adv-x="565" 
d="M62 700h145v-267q44 77 144 77q73 0 113.5 -45t40.5 -126v-339h-146v308q0 40 -13.5 58t-47.5 18q-41 0 -66 -28.5t-25 -81.5v-274h-145v700z" />
    <glyph glyph-name="i" unicode="i" horiz-adv-x="269" 
d="M62 500h145v-500h-145v500zM62 686h146v-125h-146v125z" />
    <glyph glyph-name="j" unicode="j" horiz-adv-x="269" 
d="M62 500h145v-511q0 -95 -68.5 -147t-155.5 -52v122q41 0 60 16.5t19 61.5v510zM62 686h146v-125h-146v125z" />
    <glyph glyph-name="k" unicode="k" horiz-adv-x="548" 
d="M207 0h-145v700h145v-700zM560 0h-171l-177 273l165 227h169l-172 -222z" />
    <glyph glyph-name="l" unicode="l" horiz-adv-x="269" 
d="M207 0h-145v700h145v-700z" />
    <glyph glyph-name="m" unicode="m" horiz-adv-x="851" 
d="M62 500h145v-72q45 82 146 82q48 0 81 -27.5t46 -72.5q51 100 161 100q71 0 110.5 -45t39.5 -126v-339h-145v305q0 41 -13 60t-46 19q-38 0 -62.5 -28t-25.5 -84v-272h-145v305q0 41 -13 60t-46 19q-39 0 -63.5 -29t-24.5 -86v-269h-145v500z" />
    <glyph glyph-name="n" unicode="n" horiz-adv-x="565" 
d="M62 500h145v-67q44 77 140 77q73 0 115.5 -45.5t42.5 -125.5v-339h-146v308q0 40 -13.5 58t-48.5 18q-40 0 -65 -28.5t-25 -81.5v-274h-145v500z" />
    <glyph glyph-name="o" unicode="o" horiz-adv-x="530" 
d="M266 389q-91 0 -91 -138q0 -140 91 -140q89 0 89 140q0 138 -89 138zM266 510q105 0 170 -69t65 -190q0 -122 -65 -191.5t-170 -69.5q-107 0 -171.5 69.5t-64.5 191.5q0 121 64.5 190t171.5 69z" />
    <glyph glyph-name="p" unicode="p" horiz-adv-x="572" 
d="M339 510q90 0 145.5 -71.5t55.5 -188.5t-55.5 -188.5t-145.5 -71.5q-94 0 -140 92v-282h-145v700h145v-83q46 93 140 93zM299 387q-100 0 -100 -139q0 -61 24.5 -98t75.5 -37q91 0 91 137t-91 137z" />
    <glyph glyph-name="q" unicode="q" horiz-adv-x="572" 
d="M231 510q94 0 140 -93v83h145v-700h-145v282q-46 -92 -140 -92q-90 0 -145.5 71.5t-55.5 188.5t55.5 188.5t145.5 71.5zM267 387q-47 0 -67 -34t-20 -103t20 -103t67 -34q51 0 77.5 37.5t26.5 97.5q0 67 -27 103t-77 36z" />
    <glyph glyph-name="r" unicode="r" horiz-adv-x="365" 
d="M62 500h145v-101q14 55 49.5 83t103.5 28v-140q-10 4 -32 4q-52 0 -86.5 -36t-34.5 -106v-232h-145v500z" />
    <glyph glyph-name="s" unicode="s" horiz-adv-x="503" 
d="M251 510q105 0 160.5 -44.5t58.5 -119.5h-135q-1 27 -22 43t-57 16q-74 0 -74 -46q0 -21 19.5 -31t58.5 -15q35 -3 59.5 -7t56.5 -14.5t51.5 -25.5t33.5 -42.5t14 -63.5q0 -78 -54 -124t-170 -46q-105 0 -160.5 45.5t-58.5 120.5h136q1 -27 23.5 -43t63.5 -16q79 0 79 45
q0 24 -19 34t-57 14q-41 5 -65 8.5t-57 14.5t-51 26t-31 42.5t-13 64.5q0 70 57 117t153 47z" />
    <glyph glyph-name="t" unicode="t" horiz-adv-x="359" 
d="M88 618h145v-118h117v-111h-117v-205q0 -39 14.5 -56t48.5 -17q21 0 54 9v-121q-42 -9 -79 -9q-86 0 -134.5 42t-48.5 131v226h-70v111h70v118z" />
    <glyph glyph-name="u" unicode="u" horiz-adv-x="565" 
d="M60 500h146v-308q0 -40 13.5 -58t47.5 -18q40 0 65 28.5t25 81.5v274h145v-500h-145v67q-44 -77 -139 -77q-73 0 -115.5 45.5t-42.5 125.5v339z" />
    <glyph glyph-name="v" unicode="v" horiz-adv-x="497" 
d="M-5 500h152l87 -287q11 -35 16 -90q7 57 18 90l91 287h143l-168 -500h-173z" />
    <glyph glyph-name="w" unicode="w" horiz-adv-x="773" 
d="M-2 500h146l74 -289q9 -36 14 -81q7 54 13 81l75 289h137l76 -289q8 -34 14 -83q7 56 13 83l74 289h141l-145 -500h-171l-58 237q-11 45 -16 98q-9 -70 -17 -98l-61 -237h-165z" />
    <glyph glyph-name="x" unicode="x" horiz-adv-x="539" 
d="M13 500h161l73 -105q12 -18 22 -43q14 29 23 43l71 105h153l-170 -239l190 -261h-172l-76 111q-13 18 -24 46q-11 -27 -24 -47l-76 -110h-162l185 254z" />
    <glyph glyph-name="y" unicode="y" horiz-adv-x="497" 
d="M-5 500h152l87 -280q11 -40 16 -90q10 65 18 90l91 280h143l-176 -512q-18 -55 -39.5 -91.5t-44 -58t-56 -32t-64 -13.5t-80.5 -3v126q92 0 114 45l13 29z" />
    <glyph glyph-name="z" unicode="z" horiz-adv-x="461" 
d="M435 0h-408v112l235 277h-221v111h390v-111l-234 -277h238v-112z" />
    <glyph glyph-name="braceleft" unicode="{" horiz-adv-x="413" 
d="M375 710l8 -97q-61 0 -80.5 -28.5t-19.5 -84.5q0 -23 5.5 -69t5.5 -69q0 -95 -83 -109q85 -18 85 -118q0 -23 -5 -67.5t-5 -66.5q0 -58 19 -87t78 -29l-8 -96q-120 0 -175 54t-55 135q0 20 2.5 64t2.5 60q0 45 -13 68t-45 23h-34v114h34q58 0 58 90q0 17 -2.5 61t-2.5 64
q0 80 54.5 134t175.5 54z" />
    <glyph glyph-name="bar" unicode="|" horiz-adv-x="359" 
d="M255 -211h-151v911h151v-911z" />
    <glyph glyph-name="braceright" unicode="}" horiz-adv-x="413" 
d="M30 614l8 96q120 0 174.5 -54.5t54.5 -134.5q0 -19 -2.5 -63t-2.5 -61q0 -91 59 -91h34v-114h-34q-58 0 -58 -91q0 -17 2.5 -60.5t2.5 -63.5q0 -80 -54.5 -134t-175.5 -54l-8 96q61 0 80.5 28.5t19.5 84.5q0 24 -6 69.5t-6 68.5q0 95 84 110q-40 8 -62.5 38.5t-22.5 79.5
q0 23 5 67.5t5 66.5q0 58 -19 87t-78 29z" />
    <glyph glyph-name="asciitilde" unicode="~" 
d="M207 637q42 0 80 -17.5t67 -34.5t49 -17q45 0 58 54l89 -50q-13 -66 -53.5 -100t-95.5 -34q-48 0 -106.5 34.5t-89.5 34.5q-45 0 -58 -54l-88 50q12 66 52.5 100t95.5 34z" />
    <glyph glyph-name="nbspace" unicode="&#xa0;" horiz-adv-x="213" 
 />
    <glyph glyph-name="exclamdown" unicode="&#xa1;" horiz-adv-x="352" 
d="M108 300h136l18 -500h-172zM106 500h140v-139h-140v139z" />
    <glyph glyph-name="cent" unicode="&#xa2;" horiz-adv-x="595" 
d="M338 9h-70v92q-96 12 -147.5 78.5t-51.5 178.5q0 109 53.5 176.5t145.5 80.5v79h70v-77q80 -8 132 -60.5t62 -138.5h-134q-12 64 -60 79v-279q47 16 60 80h134q-10 -87 -62 -139t-132 -60v-90zM202 358q0 -115 66 -139v277q-66 -22 -66 -138z" />
    <glyph glyph-name="sterling" unicode="&#xa3;" horiz-adv-x="614" 
d="M424 282h-181q7 -91 -40 -170h341v-112h-487v112q51 82 37 170h-72v78h53q-19 68 -19 118q0 98 70 165t198 67q112 0 178 -57t74 -153h-147q-5 43 -29 63.5t-79 20.5q-104 0 -104 -96q0 -46 16 -128h191v-78z" />
    <glyph glyph-name="currency" unicode="&#xa4;" horiz-adv-x="733" 
d="M367 599q77 0 130 -39l121 121l85 -86l-128 -129q22 -50 22 -122q0 -73 -22 -124l128 -128l-85 -86l-120 119q-54 -37 -131 -37q-80 0 -133 38l-118 -119l-86 86l127 127q-22 53 -22 124q0 72 22 123l-127 127l86 86l118 -119q55 38 133 38zM367 473q-91 0 -91 -129
t91 -129q89 0 89 129t-89 129z" />
    <glyph glyph-name="yen" unicode="&#xa5;" horiz-adv-x="605" 
d="M544 292h-162v-83h96v-78h-96v-131h-158v131h-96v78h96v83h-162v79h117l-201 329h184l147 -261l147 261h171l-200 -329h117v-79z" />
    <glyph glyph-name="brokenbar" unicode="&#xa6;" horiz-adv-x="359" 
d="M255 378h-151v322h151v-322zM255 -211h-151v322h151v-322z" />
    <glyph glyph-name="section" unicode="&#xa7;" horiz-adv-x="617" 
d="M306 710q123 0 193.5 -61t80.5 -164h-152q-12 101 -123 101q-52 0 -72.5 -16t-20.5 -47q0 -20 21 -34t54.5 -23t74 -18.5t80.5 -25t73.5 -37t54.5 -60t21 -89.5q0 -82 -67 -139q40 -43 40 -108q0 -84 -63 -136t-177 -52q-123 0 -194 61.5t-81 164.5h153q10 -101 122 -101
q53 0 73 15.5t20 47.5q0 27 -40 43.5t-96.5 29t-113 32.5t-96.5 66t-40 116q0 86 70 142q-36 43 -36 105q0 83 63.5 135t177.5 52zM456 213q0 34 -28 57.5t-62.5 34t-91 26.5t-89.5 30q-20 -30 -20 -63q0 -27 16 -46.5t46.5 -32.5t62 -21.5t75 -20.5t72.5 -24q19 27 19 60z
" />
    <glyph glyph-name="dieresis" unicode="&#xa8;" horiz-adv-x="435" 
d="M172 571h-106v109h106v-109zM370 571h-106v109h106v-109z" />
    <glyph glyph-name="copyright" unicode="&#xa9;" horiz-adv-x="827" 
d="M411 618q-116 0 -182 -73.5t-66 -194.5t66 -194.5t182 -73.5q120 0 185 73.5t65 194.5t-65 194.5t-185 73.5zM411 710q159 0 267 -99.5t108 -260.5q0 -163 -108.5 -261.5t-266.5 -98.5q-154 0 -262 98t-108 262t108.5 262t261.5 98zM421 572q79 0 130 -46t60 -127h-129
q-9 67 -66 67q-41 0 -58.5 -30t-17.5 -88t17.5 -88t58.5 -30q55 0 66 67h129q-9 -81 -60 -127t-130 -46q-101 0 -155 58t-54 166t54 166t155 58z" />
    <glyph glyph-name="ordfeminine" unicode="&#xaa;" horiz-adv-x="540" 
d="M277 717q203 0 203 -166v-344h-145v74q-41 -82 -147 -82q-71 0 -112.5 38t-41.5 102q0 181 258 181q30 0 43 -1v32q0 29 -15 43t-51 14q-84 0 -86 -67h-135q5 84 65 130t164 46zM296 426q-114 0 -114 -64q0 -51 54 -51q45 0 72 26.5t27 68.5v19q-12 1 -39 1z" />
    <glyph glyph-name="guillemotleft" unicode="&#xab;" horiz-adv-x="645" 
d="M266 509l62 -63l-148 -171l148 -172l-62 -62l-216 184v100zM533 509l62 -63l-148 -171l148 -172l-62 -62l-216 184v100z" />
    <glyph glyph-name="logicalnot" unicode="&#xac;" 
d="M561 0h-151v261h-362v121h513v-382z" />
    <glyph glyph-name="registered" unicode="&#xae;" horiz-adv-x="517" 
d="M251 657q-64 0 -102 -40.5t-38 -110.5q0 -69 37.5 -109.5t102.5 -40.5q68 0 104.5 40.5t36.5 109.5t-36.5 110t-104.5 41zM251 710q91 0 152 -56t61 -148q0 -93 -61 -148t-152 -55q-88 0 -149 55t-61 148t61 148.5t149 55.5zM162 621h114q38 0 57 -17t19 -44
q0 -47 -49 -58q23 -5 33.5 -27t10.5 -80h-64q0 54 -6 69.5t-23 15.5h-27v-85h-65v226zM227 570v-45h31q27 0 27 24q0 21 -27 21h-31z" />
    <glyph glyph-name="macron" unicode="&#xaf;" horiz-adv-x="372" 
d="M322 567h-272v93h272v-93z" />
    <glyph glyph-name="macron" unicode="&#x2c9;" horiz-adv-x="372" 
d="M322 567h-272v93h272v-93z" />
    <glyph glyph-name="degree" unicode="&#xb0;" horiz-adv-x="438" 
d="M218 603q-63 0 -63 -92t63 -92q64 0 64 91q0 93 -64 93zM218 710q81 0 129.5 -54.5t48.5 -144.5q0 -89 -48 -145t-128 -56q-81 0 -129.5 54.5t-48.5 144.5q0 89 48 145t128 56z" />
    <glyph glyph-name="plusminus" unicode="&#xb1;" 
d="M365 693v-195h196v-121h-196v-196h-122v196h-195v121h195v195h122zM561 15h-513v121h513v-121z" />
    <glyph glyph-name="acute" unicode="&#xb4;" horiz-adv-x="330" 
d="M141 718l150 -16l-153 -158h-100z" />
    <glyph glyph-name="mu" unicode="&#xb5;" horiz-adv-x="570" 
d="M60 500h146v-308q0 -40 13 -58t47 -18q40 0 61.5 28t21.5 82v274h146v-341q0 -41 38 -41q11 0 25 3v-120q-35 -7 -71 -7q-58 0 -95.5 21.5t-42.5 64.5q-36 -90 -127 -90q-35 0 -53 23l35 -222h-144v709z" />
    <glyph glyph-name="mu" unicode="&#x3bc;" horiz-adv-x="570" 
d="M60 500h146v-308q0 -40 13 -58t47 -18q40 0 61.5 28t21.5 82v274h146v-341q0 -41 38 -41q11 0 25 3v-120q-35 -7 -71 -7q-58 0 -95.5 21.5t-42.5 64.5q-36 -90 -127 -90q-35 0 -53 23l35 -222h-144v709z" />
    <glyph glyph-name="paragraph" unicode="&#xb6;" horiz-adv-x="551" 
d="M247 500h249v-520q0 -94 -66.5 -146.5t-152.5 -52.5v115q40 0 60.5 15.5t20.5 61.5v27h-103q-105 0 -165 74.5t-60 178.5q0 103 57.5 175t159.5 72z" />
    <glyph glyph-name="periodcentered" unicode="&#xb7;" horiz-adv-x="593" 
d="M225 403h143v-143h-143v143z" />
    <glyph glyph-name="periodcentered" unicode="&#x2219;" horiz-adv-x="593" 
d="M225 403h143v-143h-143v143z" />
    <glyph glyph-name="cedilla" unicode="&#xb8;" horiz-adv-x="362" 
d="M134 0h88l-40 -52q15 3 30 3q42 0 70.5 -20.5t28.5 -61.5q0 -49 -42 -77.5t-103 -28.5q-75 0 -116 38l41 48q18 -23 64 -23q50 0 50 34q0 43 -78 43q-27 0 -52 -4z" />
    <glyph glyph-name="ordmasculine" unicode="&#xba;" horiz-adv-x="519" 
d="M266 596q-91 0 -91 -138q0 -140 91 -140q89 0 89 140q0 138 -89 138zM266 717q105 0 170 -69t65 -190q0 -122 -65 -191.5t-170 -69.5q-107 0 -171.5 69.5t-64.5 191.5q0 121 64.5 190t171.5 69z" />
    <glyph glyph-name="guillemotright" unicode="&#xbb;" horiz-adv-x="645" 
d="M379 509l216 -184v-100l-216 -184l-62 62l149 172l-149 171zM112 509l216 -184v-100l-216 -184l-62 62l149 172l-149 171z" />
    <glyph glyph-name="onequarter" unicode="&#xbc;" horiz-adv-x="851" 
d="M244 0h-143l555 700h143zM340 345h-254v88h76v166l-86 -53l-41 75l131 81h113v-269h61v-88zM613 355h128v-195h52v-87h-52v-73h-109v73h-171v82zM632 259l-74 -99h74v99z" />
    <glyph glyph-name="onehalf" unicode="&#xbd;" horiz-adv-x="851" 
d="M243 0h-143l555 700h143zM339 345h-254v88h76v166l-86 -53l-41 75l131 81h113v-269h61v-88zM666 362q72 0 110.5 -31t38.5 -80q0 -46 -31.5 -83.5t-111.5 -79.5h143v-88h-317v75q109 57 150 92t41 64q0 40 -38 40q-42 0 -48 -50h-107q4 64 48.5 102.5t121.5 38.5z" />
    <glyph glyph-name="threequarters" unicode="&#xbe;" horiz-adv-x="851" 
d="M233 0h-143l555 700h143zM594 355h128v-195h52v-87h-52v-73h-109v73h-171v82zM613 259l-74 -99h74v99zM222 707q72 0 109 -25.5t37 -70.5q0 -67 -79 -84q86 -14 86 -85q0 -49 -42 -76.5t-117 -27.5q-69 0 -111 34t-44 90h111q3 -25 14 -34.5t33 -9.5q39 0 39 34
q0 20 -13.5 28.5t-50.5 8.5v71q33 0 46 8t13 27q0 33 -35 33q-21 0 -31 -9t-12 -32h-109q1 55 44 87.5t112 32.5z" />
    <glyph glyph-name="questiondown" unicode="&#xbf;" horiz-adv-x="577" 
d="M254 305h138q0 -46 -20 -86t-49 -68t-57.5 -53.5t-48.5 -54t-20 -58.5q0 -31 22 -51t67 -20q49 0 70 22.5t27 71.5h144q-10 -103 -71.5 -160.5t-172.5 -57.5q-112 0 -172.5 55t-60.5 140q0 48 21 89t51 68.5t60 52.5t51 53t21 57zM253 500h140v-139h-140v139z" />
    <glyph glyph-name="Agrave" unicode="&#xc0;" horiz-adv-x="668" 
d="M220 700h230l232 -700h-174l-54 172h-248l-54 -172h-166zM331 597q-10 -51 -27 -107l-62 -198h176l-62 200q-16 50 -25 105zM167 865l135 15l118 -157h-91z" />
    <glyph glyph-name="Aacute" unicode="&#xc1;" horiz-adv-x="668" 
d="M220 700h230l232 -700h-174l-54 172h-248l-54 -172h-166zM331 597q-10 -51 -27 -107l-62 -198h176l-62 200q-16 50 -25 105zM373 880l134 -15l-161 -142h-92z" />
    <glyph glyph-name="Acircumflex" unicode="&#xc2;" horiz-adv-x="668" 
d="M220 700h230l232 -700h-174l-54 172h-248l-54 -172h-166zM331 597q-10 -51 -27 -107l-62 -198h176l-62 200q-16 50 -25 105zM521 738l-94 -15l-93 73l-93 -73l-94 15l128 142h117z" />
    <glyph glyph-name="Atilde" unicode="&#xc3;" horiz-adv-x="668" 
d="M220 700h230l232 -700h-174l-54 172h-248l-54 -172h-166zM331 597q-10 -51 -27 -107l-62 -198h176l-62 200q-16 50 -25 105zM264 860q39 0 83 -25t57 -25q30 0 35 37l63 -10q-5 -51 -29.5 -80t-65.5 -29q-33 0 -79.5 27t-67.5 27q-34 0 -35 -42l-60 13q2 50 27 78.5
t72 28.5z" />
    <glyph glyph-name="Adieresis" unicode="&#xc4;" horiz-adv-x="668" 
d="M220 700h230l232 -700h-174l-54 172h-248l-54 -172h-166zM331 597q-10 -51 -27 -107l-62 -198h176l-62 200q-16 50 -25 105zM280 744h-106v105h106v-105zM494 744h-107v105h107v-105z" />
    <glyph glyph-name="Aring" unicode="&#xc5;" horiz-adv-x="668" 
d="M220 700h230l232 -700h-174l-54 172h-248l-54 -172h-166zM331 597q-10 -51 -27 -107l-62 -198h176l-62 200q-16 50 -25 105zM334 892q55 0 91 -24t36 -68t-35.5 -67t-91.5 -23t-91.5 23t-35.5 67t36 68t91 24zM333 834q-49 0 -49 -34q0 -35 49 -35t49 35q0 34 -49 34z
" />
    <glyph glyph-name="AE" unicode="&#xc6;" horiz-adv-x="945" 
d="M907 0h-492v172h-234l-108 -172h-175l449 700h552v-124h-326v-153h264v-122h-264v-177h334v-124zM253 292h162v262z" />
    <glyph glyph-name="Ccedilla" unicode="&#xc7;" horiz-adv-x="720" 
d="M528 233h162q-8 -101 -79.5 -167t-186.5 -75l-33 -43q15 3 30 3q42 0 70.5 -20.5t28.5 -61.5q0 -49 -42 -77.5t-103 -28.5q-75 0 -116 38l41 48q18 -23 64 -23q50 0 50 34q0 43 -78 43q-27 0 -52 -4l55 94q-131 17 -208.5 115.5t-77.5 241.5q0 156 92.5 258t243.5 102
q130 0 211 -67t90 -176h-162q-14 104 -139 104q-84 0 -124.5 -58.5t-40.5 -162.5t40.5 -162.5t124.5 -58.5q125 0 139 104z" />
    <glyph glyph-name="Egrave" unicode="&#xc8;" horiz-adv-x="607" 
d="M569 0h-492v700h484v-124h-326v-153h264v-122h-264v-177h334v-124zM153 865l135 15l118 -157h-91z" />
    <glyph glyph-name="Eacute" unicode="&#xc9;" horiz-adv-x="607" 
d="M569 0h-492v700h484v-124h-326v-153h264v-122h-264v-177h334v-124zM371 880l134 -15l-161 -142h-92z" />
    <glyph glyph-name="Ecircumflex" unicode="&#xca;" horiz-adv-x="607" 
d="M569 0h-492v700h484v-124h-326v-153h264v-122h-264v-177h334v-124zM518 738l-94 -15l-93 73l-93 -73l-94 15l128 142h117z" />
    <glyph glyph-name="Edieresis" unicode="&#xcb;" horiz-adv-x="607" 
d="M569 0h-492v700h484v-124h-326v-153h264v-122h-264v-177h334v-124zM274 744h-106v105h106v-105zM488 744h-107v105h107v-105z" />
    <glyph glyph-name="Igrave" unicode="&#xcc;" horiz-adv-x="312" 
d="M235 0h-158v700h158v-700zM-19 865l135 15l118 -157h-91z" />
    <glyph glyph-name="Iacute" unicode="&#xcd;" horiz-adv-x="312" 
d="M235 0h-158v700h158v-700zM197 880l134 -15l-161 -142h-92z" />
    <glyph glyph-name="Icircumflex" unicode="&#xce;" horiz-adv-x="312" 
d="M235 0h-158v700h158v-700zM344 738l-94 -15l-93 73l-93 -73l-94 15l128 142h117z" />
    <glyph glyph-name="Idieresis" unicode="&#xcf;" horiz-adv-x="312" 
d="M235 0h-158v700h158v-700zM103 744h-106v105h106v-105zM317 744h-107v105h107v-105z" />
    <glyph glyph-name="Eth" unicode="&#xd0;" horiz-adv-x="741" 
d="M395 0h-318v303h-57v113h57v284h310q141 0 221.5 -92.5t80.5 -256.5t-78.5 -257.5t-215.5 -93.5zM235 124h124q85 0 125 53t40 173t-41.5 173t-128.5 53h-119v-160h86v-113h-86v-179z" />
    <glyph glyph-name="Ntilde" unicode="&#xd1;" horiz-adv-x="735" 
d="M77 700h223l182 -430q15 -39 27 -93q-5 55 -5 100v423h154v-700h-205l-197 471q-10 23 -25 91q4 -40 4 -92v-470h-158v700zM298 860q39 0 83 -25t57 -25q30 0 35 37l63 -10q-5 -51 -29.5 -80t-65.5 -29q-33 0 -79.5 27t-67.5 27q-34 0 -35 -42l-60 13q2 50 27 78.5
t72 28.5z" />
    <glyph glyph-name="Ograve" unicode="&#xd2;" horiz-adv-x="777" 
d="M389 571q-84 0 -124.5 -58.5t-40.5 -162.5t40.5 -162.5t124.5 -58.5q83 0 124 59t41 162t-41 162t-124 59zM389 710q151 0 242.5 -101.5t91.5 -258.5t-91.5 -258.5t-242.5 -101.5q-152 0 -244 101.5t-92 258.5t92 258.5t244 101.5zM230 865l135 15l118 -157h-91z" />
    <glyph glyph-name="Oacute" unicode="&#xd3;" horiz-adv-x="777" 
d="M389 571q-84 0 -124.5 -58.5t-40.5 -162.5t40.5 -162.5t124.5 -58.5q83 0 124 59t41 162t-41 162t-124 59zM389 710q151 0 242.5 -101.5t91.5 -258.5t-91.5 -258.5t-242.5 -101.5q-152 0 -244 101.5t-92 258.5t92 258.5t244 101.5zM414 880l134 -15l-161 -142h-92z" />
    <glyph glyph-name="Ocircumflex" unicode="&#xd4;" horiz-adv-x="777" 
d="M389 571q-84 0 -124.5 -58.5t-40.5 -162.5t40.5 -162.5t124.5 -58.5q83 0 124 59t41 162t-41 162t-124 59zM389 710q151 0 242.5 -101.5t91.5 -258.5t-91.5 -258.5t-242.5 -101.5q-152 0 -244 101.5t-92 258.5t92 258.5t244 101.5zM576 738l-94 -15l-93 73l-93 -73
l-94 15l128 142h117z" />
    <glyph glyph-name="Otilde" unicode="&#xd5;" horiz-adv-x="777" 
d="M389 571q-84 0 -124.5 -58.5t-40.5 -162.5t40.5 -162.5t124.5 -58.5q83 0 124 59t41 162t-41 162t-124 59zM389 710q151 0 242.5 -101.5t91.5 -258.5t-91.5 -258.5t-242.5 -101.5q-152 0 -244 101.5t-92 258.5t92 258.5t244 101.5zM319 860q39 0 83 -25t57 -25
q30 0 35 37l63 -10q-5 -51 -29.5 -80t-65.5 -29q-33 0 -79.5 27t-67.5 27q-34 0 -35 -42l-60 13q2 50 27 78.5t72 28.5z" />
    <glyph glyph-name="Odieresis" unicode="&#xd6;" horiz-adv-x="777" 
d="M389 571q-84 0 -124.5 -58.5t-40.5 -162.5t40.5 -162.5t124.5 -58.5q83 0 124 59t41 162t-41 162t-124 59zM389 710q151 0 242.5 -101.5t91.5 -258.5t-91.5 -258.5t-242.5 -101.5q-152 0 -244 101.5t-92 258.5t92 258.5t244 101.5zM335 744h-106v105h106v-105zM549 744
h-107v105h107v-105z" />
    <glyph glyph-name="multiply" unicode="&#xd7;" 
d="M132 579l171 -172l173 173l86 -86l-173 -173l173 -172l-86 -86l-173 172l-171 -171l-86 86l171 171l-171 172z" />
    <glyph glyph-name="Oslash" unicode="&#xd8;" horiz-adv-x="777" 
d="M567 700h143l-72 -100q85 -99 85 -250q0 -157 -91.5 -258.5t-242.5 -101.5q-89 0 -160 37l-19 -27h-144l71 100q-84 100 -84 250q0 157 92 258.5t244 101.5q86 0 158 -37zM554 350q0 63 -16 110l-224 -315q31 -16 75 -16q83 0 124 59t41 162zM389 571q-84 0 -124.5 -58.5
t-40.5 -162.5q0 -66 14 -109l225 314q-34 16 -74 16z" />
    <glyph glyph-name="Ugrave" unicode="&#xd9;" horiz-adv-x="730" 
d="M502 253v447h159v-477q0 -112 -88.5 -172.5t-211.5 -60.5q-122 0 -207 60t-85 173v477h158v-447q0 -69 33.5 -100t104.5 -31q72 0 104.5 30.5t32.5 100.5zM210 865l135 15l118 -157h-91z" />
    <glyph glyph-name="Uacute" unicode="&#xda;" horiz-adv-x="730" 
d="M502 253v447h159v-477q0 -112 -88.5 -172.5t-211.5 -60.5q-122 0 -207 60t-85 173v477h158v-447q0 -69 33.5 -100t104.5 -31q72 0 104.5 30.5t32.5 100.5zM398 880l134 -15l-161 -142h-92z" />
    <glyph glyph-name="Ucircumflex" unicode="&#xdb;" horiz-adv-x="730" 
d="M502 253v447h159v-477q0 -112 -88.5 -172.5t-211.5 -60.5q-122 0 -207 60t-85 173v477h158v-447q0 -69 33.5 -100t104.5 -31q72 0 104.5 30.5t32.5 100.5zM552 738l-94 -15l-93 73l-93 -73l-94 15l128 142h117z" />
    <glyph glyph-name="Udieresis" unicode="&#xdc;" horiz-adv-x="730" 
d="M502 253v447h159v-477q0 -112 -88.5 -172.5t-211.5 -60.5q-122 0 -207 60t-85 173v477h158v-447q0 -69 33.5 -100t104.5 -31q72 0 104.5 30.5t32.5 100.5zM311 744h-106v105h106v-105zM525 744h-107v105h107v-105z" />
    <glyph glyph-name="Yacute" unicode="&#xdd;" horiz-adv-x="671" 
d="M415 0h-158v297l-269 403h185l168 -269l170 269h172l-268 -403v-297zM382 880l134 -15l-161 -142h-92z" />
    <glyph glyph-name="Thorn" unicode="&#xde;" horiz-adv-x="653" 
d="M235 0h-158v700h158v-108h172q104 0 162.5 -65t58.5 -162q0 -101 -59.5 -166t-170.5 -65h-163v-134zM235 468v-221h132q100 0 100 114q0 107 -100 107h-132z" />
    <glyph glyph-name="germandbls" unicode="&#xdf;" horiz-adv-x="577" 
d="M294 710q96 0 160.5 -45.5t64.5 -130.5q0 -138 -145 -160q173 -27 173 -176q0 -86 -70.5 -144.5t-186.5 -58.5q-9 0 -45 4v121q21 -4 37 -4q106 0 106 94q0 51 -29.5 72.5t-105.5 21.5v112q66 0 90 21.5t24 70.5q0 82 -78 82q-44 0 -63 -19.5t-19 -58.5v-512h-145v514
q0 90 67.5 143t164.5 53z" />
    <glyph glyph-name="agrave" unicode="&#xe0;" horiz-adv-x="540" 
d="M277 510q203 0 203 -166v-344h-145v74q-41 -82 -147 -82q-71 0 -112.5 38t-41.5 102q0 181 258 181q30 0 43 -1v32q0 29 -15 43t-51 14q-84 0 -86 -67h-135q5 84 65 130t164 46zM296 219q-114 0 -114 -64q0 -51 54 -51q45 0 72 26.5t27 68.5v19q-12 1 -39 1zM113 702
l150 16l102 -174h-98z" />
    <glyph glyph-name="aacute" unicode="&#xe1;" horiz-adv-x="540" 
d="M277 510q203 0 203 -166v-344h-145v74q-41 -82 -147 -82q-71 0 -112.5 38t-41.5 102q0 181 258 181q30 0 43 -1v32q0 29 -15 43t-51 14q-84 0 -86 -67h-135q5 84 65 130t164 46zM296 219q-114 0 -114 -64q0 -51 54 -51q45 0 72 26.5t27 68.5v19q-12 1 -39 1zM283 718
l150 -16l-153 -158h-100z" />
    <glyph glyph-name="acircumflex" unicode="&#xe2;" horiz-adv-x="540" 
d="M277 510q203 0 203 -166v-344h-145v74q-41 -82 -147 -82q-71 0 -112.5 38t-41.5 102q0 181 258 181q30 0 43 -1v32q0 29 -15 43t-51 14q-84 0 -86 -67h-135q5 84 65 130t164 46zM296 219q-114 0 -114 -64q0 -51 54 -51q45 0 72 26.5t27 68.5v19q-12 1 -39 1zM206 705h132
l121 -150l-102 -17l-85 82l-86 -82l-101 17z" />
    <glyph glyph-name="atilde" unicode="&#xe3;" horiz-adv-x="540" 
d="M277 510q203 0 203 -166v-344h-145v74q-41 -82 -147 -82q-71 0 -112.5 38t-41.5 102q0 181 258 181q30 0 43 -1v32q0 29 -15 43t-51 14q-84 0 -86 -67h-135q5 84 65 130t164 46zM296 219q-114 0 -114 -64q0 -51 54 -51q45 0 72 26.5t27 68.5v19q-12 1 -39 1zM199 699
q39 0 83 -27.5t57 -27.5q15 0 23.5 8t11.5 31l63 -10q-5 -56 -29.5 -88t-65.5 -32q-33 0 -79.5 29t-67.5 29q-34 0 -35 -45l-60 14q2 55 27 87t72 32z" />
    <glyph glyph-name="adieresis" unicode="&#xe4;" horiz-adv-x="540" 
d="M277 510q203 0 203 -166v-344h-145v74q-41 -82 -147 -82q-71 0 -112.5 38t-41.5 102q0 181 258 181q30 0 43 -1v32q0 29 -15 43t-51 14q-84 0 -86 -67h-135q5 84 65 130t164 46zM296 219q-114 0 -114 -64q0 -51 54 -51q45 0 72 26.5t27 68.5v19q-12 1 -39 1zM225 571
h-106v109h106v-109zM423 571h-106v109h106v-109z" />
    <glyph glyph-name="aring" unicode="&#xe5;" horiz-adv-x="540" 
d="M277 510q203 0 203 -166v-344h-145v74q-41 -82 -147 -82q-71 0 -112.5 38t-41.5 102q0 181 258 181q30 0 43 -1v32q0 29 -15 43t-51 14q-84 0 -86 -67h-135q5 84 65 130t164 46zM296 219q-114 0 -114 -64q0 -51 54 -51q45 0 72 26.5t27 68.5v19q-12 1 -39 1zM268 735
q55 0 93 -27.5t38 -76.5t-37.5 -76t-93.5 -27q-55 0 -93 27t-38 76t38 76.5t93 27.5zM268 666q-20 0 -32 -9.5t-12 -24.5q0 -37 44 -37q43 0 43 35q0 17 -12.5 26.5t-30.5 9.5z" />
    <glyph glyph-name="ae" unicode="&#xe6;" horiz-adv-x="833" 
d="M275 510q111 0 157 -48q60 48 150 48q111 0 170 -83.5t50 -205.5h-324q4 -58 26.5 -85.5t68.5 -27.5q34 0 56 16.5t27 42.5h140q-4 -77 -67.5 -127t-150.5 -50q-139 0 -199 103q-61 -101 -194 -101q-70 0 -110 38t-40 102q0 89 61 134t196 45h44v33q0 57 -73 57
q-37 0 -60.5 -16.5t-24.5 -50.5h-129q2 84 61 130t165 46zM232 104q45 0 74.5 28t29.5 69v20h-41q-119 0 -119 -66q0 -51 56 -51zM574 402q-75 0 -93 -91h181q-3 41 -25 66t-63 25z" />
    <glyph glyph-name="ccedilla" unicode="&#xe7;" horiz-adv-x="517" 
d="M272 510q92 0 155 -56.5t66 -144.5h-146q-2 35 -22.5 57.5t-57.5 22.5q-93 0 -93 -139t93 -139q37 0 57.5 22.5t22.5 57.5h146q-3 -80 -55.5 -134t-131.5 -64l-34 -45q15 3 30 3q42 0 70.5 -20.5t28.5 -61.5q0 -49 -42 -77.5t-103 -28.5q-75 0 -116 38l41 48
q18 -23 64 -23q50 0 50 34q0 43 -78 43q-27 0 -52 -4l55 95q-91 15 -140.5 83t-49.5 173q0 120 63.5 190t178.5 70z" />
    <glyph glyph-name="egrave" unicode="&#xe8;" horiz-adv-x="526" 
d="M275 510q80 0 134 -43t74 -108t14 -144h-323q4 -57 26 -82t68 -25q33 0 54.5 16t23.5 44h144q-5 -76 -67.5 -127t-152.5 -51q-111 0 -176 70.5t-65 190.5q0 117 66.5 188t179.5 71zM100 702l150 16l102 -174h-98zM270 401q-40 0 -62.5 -21t-30.5 -67h173q-2 40 -21.5 64
t-58.5 24z" />
    <glyph glyph-name="eacute" unicode="&#xe9;" horiz-adv-x="526" 
d="M275 510q80 0 134 -43t74 -108t14 -144h-323q4 -57 26 -82t68 -25q33 0 54.5 16t23.5 44h144q-5 -76 -67.5 -127t-152.5 -51q-111 0 -176 70.5t-65 190.5q0 117 66.5 188t179.5 71zM283 718l150 -16l-153 -158h-100zM270 401q-40 0 -62.5 -21t-30.5 -67h173
q-2 40 -21.5 64t-58.5 24z" />
    <glyph glyph-name="ecircumflex" unicode="&#xea;" horiz-adv-x="526" 
d="M275 510q80 0 134 -43t74 -108t14 -144h-323q4 -57 26 -82t68 -25q33 0 54.5 16t23.5 44h144q-5 -76 -67.5 -127t-152.5 -51q-111 0 -176 70.5t-65 190.5q0 117 66.5 188t179.5 71zM208 705h132l121 -150l-102 -17l-85 82l-86 -82l-101 17zM270 401q-40 0 -62.5 -21
t-30.5 -67h173q-2 40 -21.5 64t-58.5 24z" />
    <glyph glyph-name="edieresis" unicode="&#xeb;" horiz-adv-x="526" 
d="M275 510q80 0 134 -43t74 -108t14 -144h-323q4 -57 26 -82t68 -25q33 0 54.5 16t23.5 44h144q-5 -76 -67.5 -127t-152.5 -51q-111 0 -176 70.5t-65 190.5q0 117 66.5 188t179.5 71zM270 401q-40 0 -62.5 -21t-30.5 -67h173q-2 40 -21.5 64t-58.5 24zM229 571h-106v109
h106v-109zM427 571h-106v109h106v-109z" />
    <glyph glyph-name="igrave" unicode="&#xec;" horiz-adv-x="270" 
d="M-33 702l150 16l102 -174h-98zM207 0h-145v500h145v-500z" />
    <glyph glyph-name="iacute" unicode="&#xed;" horiz-adv-x="270" 
d="M152 718l150 -16l-153 -158h-100zM207 0h-145v500h145v-500z" />
    <glyph glyph-name="icircumflex" unicode="&#xee;" horiz-adv-x="270" 
d="M207 0h-145v500h145v-500zM70 705h132l121 -150l-102 -17l-85 82l-86 -82l-101 17z" />
    <glyph glyph-name="idieresis" unicode="&#xef;" horiz-adv-x="270" 
d="M90 571h-106v109h106v-109zM288 571h-106v109h106v-109zM207 0h-145v500h145v-500z" />
    <glyph glyph-name="eth" unicode="&#xf0;" 
d="M240 710q89 0 161 -40l46 48l56 -53l-39 -41q108 -102 108 -281q0 -170 -71.5 -261.5t-204.5 -91.5q-124 0 -192 71t-68 175q0 93 57.5 162t163.5 69q101 0 162 -75q-4 86 -46 138l-52 -54l-56 53l46 48q-44 19 -98 19zM291 356q-56 0 -81.5 -34.5t-25.5 -89.5
q0 -115 104 -115q117 0 128 172q-50 67 -125 67z" />
    <glyph glyph-name="ntilde" unicode="&#xf1;" horiz-adv-x="558" 
d="M62 500h145v-67q44 77 140 77q73 0 115.5 -45.5t42.5 -125.5v-339h-146v308q0 40 -13.5 58t-48.5 18q-40 0 -65 -28.5t-25 -81.5v-274h-145v500zM215 699q39 0 83 -27.5t57 -27.5q15 0 23.5 8t11.5 31l63 -10q-5 -56 -29.5 -88t-65.5 -32q-33 0 -79.5 29t-67.5 29
q-34 0 -35 -45l-60 14q2 55 27 87t72 32z" />
    <glyph glyph-name="ograve" unicode="&#xf2;" horiz-adv-x="530" 
d="M266 389q-91 0 -91 -138q0 -140 91 -140q89 0 89 140q0 138 -89 138zM266 510q105 0 170 -69t65 -190q0 -122 -65 -191.5t-170 -69.5q-107 0 -171.5 69.5t-64.5 191.5q0 121 64.5 190t171.5 69zM106 702l150 16l102 -174h-98z" />
    <glyph glyph-name="oacute" unicode="&#xf3;" horiz-adv-x="530" 
d="M266 389q-91 0 -91 -138q0 -140 91 -140q89 0 89 140q0 138 -89 138zM266 510q105 0 170 -69t65 -190q0 -122 -65 -191.5t-170 -69.5q-107 0 -171.5 69.5t-64.5 191.5q0 121 64.5 190t171.5 69zM275 718l150 -16l-153 -158h-100z" />
    <glyph glyph-name="ocircumflex" unicode="&#xf4;" horiz-adv-x="530" 
d="M266 389q-91 0 -91 -138q0 -140 91 -140q89 0 89 140q0 138 -89 138zM266 510q105 0 170 -69t65 -190q0 -122 -65 -191.5t-170 -69.5q-107 0 -171.5 69.5t-64.5 191.5q0 121 64.5 190t171.5 69zM199 705h132l121 -150l-102 -17l-85 82l-86 -82l-101 17z" />
    <glyph glyph-name="otilde" unicode="&#xf5;" horiz-adv-x="530" 
d="M266 389q-91 0 -91 -138q0 -140 91 -140q89 0 89 140q0 138 -89 138zM266 510q105 0 170 -69t65 -190q0 -122 -65 -191.5t-170 -69.5q-107 0 -171.5 69.5t-64.5 191.5q0 121 64.5 190t171.5 69zM195 699q39 0 83 -27.5t57 -27.5q15 0 23.5 8t11.5 31l63 -10
q-5 -56 -29.5 -88t-65.5 -32q-33 0 -79.5 29t-67.5 29q-34 0 -35 -45l-60 14q2 55 27 87t72 32z" />
    <glyph glyph-name="odieresis" unicode="&#xf6;" horiz-adv-x="530" 
d="M266 389q-91 0 -91 -138q0 -140 91 -140q89 0 89 140q0 138 -89 138zM266 510q105 0 170 -69t65 -190q0 -122 -65 -191.5t-170 -69.5q-107 0 -171.5 69.5t-64.5 191.5q0 121 64.5 190t171.5 69zM219 571h-106v109h106v-109zM417 571h-106v109h106v-109z" />
    <glyph glyph-name="divide" unicode="&#xf7;" 
d="M561 261h-513v121h513v-121zM234 625h141v-148h-141v148zM234 181h141v-148h-141v148z" />
    <glyph glyph-name="oslash" unicode="&#xf8;" horiz-adv-x="529" 
d="M266 510q63 0 115 -25l11 15h109l-51 -71q51 -66 51 -178q0 -125 -62.5 -193t-172.5 -68q-63 0 -116 24l-10 -14h-110l51 71q-51 66 -51 180q0 124 62 191.5t174 67.5zM266 384q-95 0 -95 -133q0 -30 4 -50l128 176q-19 7 -37 7zM360 251q0 23 -5 48l-126 -176
q17 -6 37 -6q94 0 94 134z" />
    <glyph glyph-name="ugrave" unicode="&#xf9;" horiz-adv-x="566" 
d="M60 500h146v-308q0 -40 13.5 -58t47.5 -18q40 0 65 28.5t25 81.5v274h145v-500h-145v67q-44 -77 -139 -77q-73 0 -115.5 45.5t-42.5 125.5v339zM113 702l150 16l102 -174h-98z" />
    <glyph glyph-name="uacute" unicode="&#xfa;" horiz-adv-x="566" 
d="M60 500h146v-308q0 -40 13.5 -58t47.5 -18q40 0 65 28.5t25 81.5v274h145v-500h-145v67q-44 -77 -139 -77q-73 0 -115.5 45.5t-42.5 125.5v339zM303 718l150 -16l-153 -158h-100z" />
    <glyph glyph-name="ucircumflex" unicode="&#xfb;" horiz-adv-x="566" 
d="M60 500h146v-308q0 -40 13.5 -58t47.5 -18q40 0 65 28.5t25 81.5v274h145v-500h-145v67q-44 -77 -139 -77q-73 0 -115.5 45.5t-42.5 125.5v339zM217 705h132l121 -150l-102 -17l-85 82l-86 -82l-101 17z" />
    <glyph glyph-name="udieresis" unicode="&#xfc;" horiz-adv-x="566" 
d="M60 500h146v-308q0 -40 13.5 -58t47.5 -18q40 0 65 28.5t25 81.5v274h145v-500h-145v67q-44 -77 -139 -77q-73 0 -115.5 45.5t-42.5 125.5v339zM237 571h-106v109h106v-109zM435 571h-106v109h106v-109z" />
    <glyph glyph-name="yacute" unicode="&#xfd;" horiz-adv-x="497" 
d="M-5 500h152l87 -280q11 -40 16 -90q10 65 18 90l91 280h143l-176 -512q-18 -55 -39.5 -91.5t-44 -58t-56 -32t-64 -13.5t-80.5 -3v126q92 0 114 45l13 29zM284 718l150 -16l-153 -158h-100z" />
    <glyph glyph-name="thorn" unicode="&#xfe;" horiz-adv-x="572" 
d="M339 510q91 0 146.5 -71.5t55.5 -188.5t-55.5 -188.5t-146.5 -71.5q-95 0 -139 92v-284h-145v902h145v-283q44 93 139 93zM300 387q-100 0 -100 -139q0 -61 24.5 -98t75.5 -37q90 0 90 137t-90 137z" />
    <glyph glyph-name="ydieresis" unicode="&#xff;" horiz-adv-x="497" 
d="M-5 500h152l87 -280q11 -42 16 -89q9 60 18 89l91 280h143l-176 -512q-18 -55 -39.5 -91.5t-44 -58t-56 -32t-64 -13.5t-80.5 -3v126q92 0 114 45l13 29zM404 571h-106v109h106v-109zM206 571h-106v109h106v-109z" />
    <glyph glyph-name="Amacron" unicode="&#x100;" horiz-adv-x="668" 
d="M220 700h230l232 -700h-174l-54 172h-248l-54 -172h-166zM331 597q-10 -51 -27 -107l-62 -198h176l-62 200q-16 50 -25 105zM470 740h-272v84h272v-84z" />
    <glyph glyph-name="amacron" unicode="&#x101;" horiz-adv-x="540" 
d="M277 510q203 0 203 -166v-344h-145v74q-41 -82 -147 -82q-71 0 -112.5 38t-41.5 102q0 181 258 181q30 0 43 -1v32q0 29 -15 43t-51 14q-84 0 -86 -67h-135q5 84 65 130t164 46zM296 219q-114 0 -114 -64q0 -51 54 -51q45 0 72 26.5t27 68.5v19q-12 1 -39 1zM409 567
h-272v93h272v-93z" />
    <glyph glyph-name="Abreve" unicode="&#x102;" horiz-adv-x="668" 
d="M220 700h230l232 -700h-174l-54 172h-248l-54 -172h-166zM331 597q-10 -51 -27 -107l-62 -198h176l-62 200q-16 50 -25 105zM192 854l75 9q0 -57 66 -57q67 0 67 57l75 -9q0 -59 -40 -93t-102 -34q-61 0 -101 34t-40 93z" />
    <glyph glyph-name="abreve" unicode="&#x103;" horiz-adv-x="540" 
d="M277 510q203 0 203 -166v-344h-145v74q-41 -82 -147 -82q-71 0 -112.5 38t-41.5 102q0 181 258 181q30 0 43 -1v32q0 29 -15 43t-51 14q-84 0 -86 -67h-135q5 84 65 130t164 46zM296 219q-114 0 -114 -64q0 -51 54 -51q45 0 72 26.5t27 68.5v19q-12 1 -39 1zM119 693
l88 10q0 -66 63 -66t63 66l89 -10q0 -65 -44.5 -103.5t-107.5 -38.5q-62 0 -106.5 38.5t-44.5 103.5z" />
    <glyph glyph-name="Aogonek" unicode="&#x104;" horiz-adv-x="668" 
d="M561 0h-53l-54 172h-248l-54 -172h-166l234 700h230l232 -700h-45q-49 -38 -49 -86q0 -19 11.5 -30t32.5 -11q8 0 22 2v-89q-21 -6 -47 -6q-59 0 -93.5 28.5t-34.5 71.5q0 71 82 120zM331 597q-10 -51 -27 -107l-62 -198h176l-62 200q-16 50 -25 105z" />
    <glyph glyph-name="aogonek" unicode="&#x105;" horiz-adv-x="540" 
d="M380 0h-45v74q-41 -82 -147 -82q-71 0 -112.5 38t-41.5 102q0 181 258 181q30 0 43 -1v32q0 29 -15 43t-51 14q-84 0 -86 -67h-135q5 84 65 130t164 46q203 0 203 -166v-344h-24q-49 -38 -49 -86q0 -19 11.5 -30t32.5 -11q8 0 22 2v-89q-21 -6 -47 -6q-59 0 -93.5 28.5
t-34.5 71.5q0 71 82 120zM296 219q-114 0 -114 -64q0 -51 54 -51q45 0 72 26.5t27 68.5v19q-12 1 -39 1z" />
    <glyph glyph-name="Cacute" unicode="&#x106;" horiz-adv-x="720" 
d="M528 233h162q-9 -109 -90 -176t-211 -67q-151 0 -243.5 102t-92.5 258t92.5 258t243.5 102q130 0 211 -67t90 -176h-162q-14 104 -139 104q-84 0 -124.5 -58.5t-40.5 -162.5t40.5 -162.5t124.5 -58.5q125 0 139 104zM417 880l134 -15l-161 -142h-92z" />
    <glyph glyph-name="cacute" unicode="&#x107;" horiz-adv-x="517" 
d="M272 510q92 0 155 -56.5t66 -144.5h-146q-2 35 -22.5 57.5t-57.5 22.5q-93 0 -93 -139t93 -139q37 0 57.5 22.5t22.5 57.5h146q-3 -88 -66 -144.5t-155 -56.5q-115 0 -178.5 70t-63.5 190t63.5 190t178.5 70zM286 718l150 -16l-153 -158h-100z" />
    <glyph glyph-name="Ccircumflex" unicode="&#x108;" horiz-adv-x="720" 
d="M528 233h162q-9 -109 -90 -176t-211 -67q-151 0 -243.5 102t-92.5 258t92.5 258t243.5 102q130 0 211 -67t90 -176h-162q-14 104 -139 104q-84 0 -124.5 -58.5t-40.5 -162.5t40.5 -162.5t124.5 -58.5q125 0 139 104zM578 738l-94 -15l-93 73l-93 -73l-94 15l128 142h117z
" />
    <glyph glyph-name="ccircumflex" unicode="&#x109;" horiz-adv-x="517" 
d="M272 510q92 0 155 -56.5t66 -144.5h-146q-2 35 -22.5 57.5t-57.5 22.5q-93 0 -93 -139t93 -139q37 0 57.5 22.5t22.5 57.5h146q-3 -88 -66 -144.5t-155 -56.5q-115 0 -178.5 70t-63.5 190t63.5 190t178.5 70zM209 705h132l121 -150l-102 -17l-85 82l-86 -82l-101 17z" />
    <glyph glyph-name="Cdotaccent" unicode="&#x10a;" horiz-adv-x="720" 
d="M528 233h162q-9 -109 -90 -176t-211 -67q-151 0 -243.5 102t-92.5 258t92.5 258t243.5 102q130 0 211 -67t90 -176h-162q-14 104 -139 104q-84 0 -124.5 -58.5t-40.5 -162.5t40.5 -162.5t124.5 -58.5q125 0 139 104zM462 744h-137v113h137v-113z" />
    <glyph glyph-name="cdotaccent" unicode="&#x10b;" horiz-adv-x="517" 
d="M272 510q92 0 155 -56.5t66 -144.5h-146q-2 35 -22.5 57.5t-57.5 22.5q-93 0 -93 -139t93 -139q37 0 57.5 22.5t22.5 57.5h146q-3 -88 -66 -144.5t-155 -56.5q-115 0 -178.5 70t-63.5 190t63.5 190t178.5 70zM342 571h-138v125h138v-125z" />
    <glyph glyph-name="Ccaron" unicode="&#x10c;" horiz-adv-x="720" 
d="M528 233h162q-9 -109 -90 -176t-211 -67q-151 0 -243.5 102t-92.5 258t92.5 258t243.5 102q130 0 211 -67t90 -176h-162q-14 104 -139 104q-84 0 -124.5 -58.5t-40.5 -162.5t40.5 -162.5t124.5 -58.5q125 0 139 104zM209 865l94 15l92 -72l94 72l94 -15l-129 -142h-117z
" />
    <glyph glyph-name="ccaron" unicode="&#x10d;" horiz-adv-x="517" 
d="M272 510q92 0 155 -56.5t66 -144.5h-146q-2 35 -22.5 57.5t-57.5 22.5q-93 0 -93 -139t93 -139q37 0 57.5 22.5t22.5 57.5h146q-3 -88 -66 -144.5t-155 -56.5q-115 0 -178.5 70t-63.5 190t63.5 190t178.5 70zM88 694l101 17l85 -82l86 82l102 -17l-121 -150h-132z" />
    <glyph glyph-name="Dcaron" unicode="&#x10e;" horiz-adv-x="741" 
d="M395 0h-318v700h310q141 0 221.5 -92.5t80.5 -256.5t-78.5 -257.5t-215.5 -93.5zM235 124h124q85 0 125 53t40 173t-41.5 173t-128.5 53h-119v-452zM148 865l94 15l92 -72l94 72l94 -15l-129 -142h-117z" />
    <glyph glyph-name="dcaron" unicode="&#x10f;" horiz-adv-x="572" 
d="M235 510q90 0 136 -93v283h145v-700h-145v82q-47 -92 -136 -92q-91 0 -148 71.5t-57 188.5t57 188.5t148 71.5zM271 387q-91 0 -91 -137t91 -137q51 0 75.5 37t24.5 98q0 139 -100 139zM555 710h124l-54 -159h-71z" />
    <glyph glyph-name="Dcroat" unicode="&#x110;" horiz-adv-x="741" 
d="M395 0h-318v321h-44v93h44v286h310q141 0 221.5 -92.5t80.5 -256.5t-78.5 -257.5t-215.5 -93.5zM235 124h124q85 0 125 53t40 173t-41.5 173t-128.5 53h-119v-162h70v-93h-70v-197z" />
    <glyph glyph-name="dcroat" unicode="&#x111;" horiz-adv-x="572" 
d="M235 510q90 0 136 -93v135h-76v84h76v64h145v-64h63v-84h-63v-552h-145v82q-47 -92 -136 -92q-91 0 -148 71.5t-57 188.5t57 188.5t148 71.5zM271 387q-91 0 -91 -137t91 -137q51 0 75.5 37t24.5 98q0 139 -100 139z" />
    <glyph glyph-name="Emacron" unicode="&#x112;" horiz-adv-x="607" 
d="M569 0h-492v700h484v-124h-326v-153h264v-122h-264v-177h334v-124zM463 740h-272v84h272v-84z" />
    <glyph glyph-name="emacron" unicode="&#x113;" horiz-adv-x="526" 
d="M275 510q80 0 134 -43t74 -108t14 -144h-323q4 -57 26 -82t68 -25q33 0 54.5 16t23.5 44h144q-5 -76 -67.5 -127t-152.5 -51q-111 0 -176 70.5t-65 190.5q0 117 66.5 188t179.5 71zM409 567h-272v93h272v-93zM270 401q-40 0 -62.5 -21t-30.5 -67h173q-2 40 -21.5 64
t-58.5 24z" />
    <glyph glyph-name="Ebreve" unicode="&#x114;" horiz-adv-x="607" 
d="M569 0h-492v700h484v-124h-326v-153h264v-122h-264v-177h334v-124zM190 854l75 9q0 -57 66 -57q67 0 67 57l75 -9q0 -59 -40 -93t-102 -34q-61 0 -101 34t-40 93z" />
    <glyph glyph-name="ebreve" unicode="&#x115;" horiz-adv-x="526" 
d="M275 510q80 0 134 -43t74 -108t14 -144h-323q4 -57 26 -82t68 -25q33 0 54.5 16t23.5 44h144q-5 -76 -67.5 -127t-152.5 -51q-111 0 -176 70.5t-65 190.5q0 117 66.5 188t179.5 71zM121 693l88 10q0 -66 63 -66t63 66l89 -10q0 -65 -44.5 -103.5t-107.5 -38.5
q-62 0 -106.5 38.5t-44.5 103.5zM270 401q-40 0 -62.5 -21t-30.5 -67h173q-2 40 -21.5 64t-58.5 24z" />
    <glyph glyph-name="Edotaccent" unicode="&#x116;" horiz-adv-x="607" 
d="M569 0h-492v700h484v-124h-326v-153h264v-122h-264v-177h334v-124zM398 744h-137v113h137v-113z" />
    <glyph glyph-name="edotaccent" unicode="&#x117;" horiz-adv-x="526" 
d="M275 510q80 0 134 -43t74 -108t14 -144h-323q4 -57 26 -82t68 -25q33 0 54.5 16t23.5 44h144q-5 -76 -67.5 -127t-152.5 -51q-111 0 -176 70.5t-65 190.5q0 117 66.5 188t179.5 71zM339 571h-138v125h138v-125zM270 401q-40 0 -62.5 -21t-30.5 -67h173q-2 40 -21.5 64
t-58.5 24z" />
    <glyph glyph-name="Eogonek" unicode="&#x118;" horiz-adv-x="607" 
d="M460 0h-383v700h484v-124h-326v-153h264v-122h-264v-177h334v-124h-33q-49 -38 -49 -86q0 -19 11.5 -30t32.5 -11q8 0 22 2v-89q-21 -6 -47 -6q-59 0 -93.5 28.5t-34.5 71.5q0 71 82 120z" />
    <glyph glyph-name="eogonek" unicode="&#x119;" horiz-adv-x="526" 
d="M275 510q80 0 134 -43t74 -108t14 -144h-323q4 -57 26 -82t68 -25q33 0 54.5 16t23.5 44h144q-4 -62 -48.5 -109t-113.5 -62q-44 -37 -44 -83q0 -19 11.5 -30t32.5 -11q8 0 22 2v-89q-21 -6 -47 -6q-59 0 -93.5 28.5t-34.5 71.5q0 64 68 111q-99 8 -156.5 78t-57.5 182
q0 117 66.5 188t179.5 71zM270 401q-40 0 -62.5 -21t-30.5 -67h173q-2 40 -21.5 64t-58.5 24z" />
    <glyph glyph-name="Ecaron" unicode="&#x11a;" horiz-adv-x="607" 
d="M569 0h-492v700h484v-124h-326v-153h264v-122h-264v-177h334v-124zM152 865l94 15l92 -72l94 72l94 -15l-129 -142h-117z" />
    <glyph glyph-name="ecaron" unicode="&#x11b;" horiz-adv-x="526" 
d="M275 510q80 0 134 -43t74 -108t14 -144h-323q4 -57 26 -82t68 -25q33 0 54.5 16t23.5 44h144q-5 -76 -67.5 -127t-152.5 -51q-111 0 -176 70.5t-65 190.5q0 117 66.5 188t179.5 71zM85 694l101 17l85 -82l86 82l102 -17l-121 -150h-132zM270 401q-40 0 -62.5 -21
t-30.5 -67h173q-2 40 -21.5 64t-58.5 24z" />
    <glyph glyph-name="Gcircumflex" unicode="&#x11c;" horiz-adv-x="771" 
d="M392 710q129 0 209.5 -66.5t88.5 -175.5h-161q-14 103 -139 103q-84 0 -125 -59t-41 -162q0 -223 161 -223q72 0 112 38t41 108h-161v116h318v-389h-149v116q-15 -39 -36.5 -65t-61.5 -43.5t-96 -17.5q-55 0 -106.5 22.5t-95 65t-70 113.5t-26.5 159q0 156 93 258
t245 102zM575 738l-94 -15l-93 73l-93 -73l-94 15l128 142h117z" />
    <glyph glyph-name="gcircumflex" unicode="&#x11d;" horiz-adv-x="557" 
d="M270 510q52 0 152 -5t132 -5v-111q-25 0 -106 9q18 -10 28.5 -33.5t10.5 -50.5q0 -75 -57 -122t-164 -47q-37 0 -70 9q-15 -12 -15 -29t10.5 -23t33.5 -6h142q87 0 126.5 -33.5t39.5 -99.5q0 -79 -66 -126t-194 -47q-122 0 -176 29.5t-54 89.5q0 35 20.5 62.5t53.5 41.5
q-33 12 -48.5 28.5t-15.5 49.5q0 31 19 58t48 40q-67 49 -67 135q0 84 56 135t161 51zM213 705h132l121 -150l-102 -17l-85 82l-86 -82l-101 17zM345 324q0 83 -74 83q-72 0 -72 -83q0 -34 18 -56t54 -22q74 0 74 78zM326 0h-94q-4 0 -12.5 0.5t-11.5 0.5q-25 -20 -25 -48
q0 -29 21.5 -43t72.5 -14q108 0 108 62q0 42 -59 42z" />
    <glyph glyph-name="Gbreve" unicode="&#x11e;" horiz-adv-x="771" 
d="M392 710q129 0 209.5 -66.5t88.5 -175.5h-161q-14 103 -139 103q-84 0 -125 -59t-41 -162q0 -223 161 -223q72 0 112 38t41 108h-161v116h318v-389h-149v116q-15 -39 -36.5 -65t-61.5 -43.5t-96 -17.5q-55 0 -106.5 22.5t-95 65t-70 113.5t-26.5 159q0 156 93 258
t245 102zM249 854l75 9q0 -57 66 -57q67 0 67 57l75 -9q0 -59 -40 -93t-102 -34q-61 0 -101 34t-40 93z" />
    <glyph glyph-name="gbreve" unicode="&#x11f;" horiz-adv-x="557" 
d="M270 510q52 0 152 -5t132 -5v-111q-25 0 -106 9q18 -10 28.5 -33.5t10.5 -50.5q0 -75 -57 -122t-164 -47q-37 0 -70 9q-15 -12 -15 -29t10.5 -23t33.5 -6h142q87 0 126.5 -33.5t39.5 -99.5q0 -79 -66 -126t-194 -47q-122 0 -176 29.5t-54 89.5q0 35 20.5 62.5t53.5 41.5
q-33 12 -48.5 28.5t-15.5 49.5q0 31 19 58t48 40q-67 49 -67 135q0 84 56 135t161 51zM133 693l88 10q0 -66 63 -66t63 66l89 -10q0 -65 -44.5 -103.5t-107.5 -38.5q-62 0 -106.5 38.5t-44.5 103.5zM345 324q0 83 -74 83q-72 0 -72 -83q0 -34 18 -56t54 -22q74 0 74 78z
M326 0h-94q-4 0 -12.5 0.5t-11.5 0.5q-25 -20 -25 -48q0 -29 21.5 -43t72.5 -14q108 0 108 62q0 42 -59 42z" />
    <glyph glyph-name="Gdotaccent" unicode="&#x120;" horiz-adv-x="771" 
d="M392 710q129 0 209.5 -66.5t88.5 -175.5h-161q-14 103 -139 103q-84 0 -125 -59t-41 -162q0 -223 161 -223q72 0 112 38t41 108h-161v116h318v-389h-149v116q-15 -39 -36.5 -65t-61.5 -43.5t-96 -17.5q-55 0 -106.5 22.5t-95 65t-70 113.5t-26.5 159q0 156 93 258
t245 102zM450 744h-137v113h137v-113z" />
    <glyph glyph-name="gdotaccent" unicode="&#x121;" horiz-adv-x="557" 
d="M270 510q52 0 152 -5t132 -5v-111q-25 0 -106 9q18 -10 28.5 -33.5t10.5 -50.5q0 -75 -57 -122t-164 -47q-37 0 -70 9q-15 -12 -15 -29t10.5 -23t33.5 -6h142q87 0 126.5 -33.5t39.5 -99.5q0 -79 -66 -126t-194 -47q-122 0 -176 29.5t-54 89.5q0 35 20.5 62.5t53.5 41.5
q-33 12 -48.5 28.5t-15.5 49.5q0 31 19 58t48 40q-67 49 -67 135q0 84 56 135t161 51zM345 324q0 83 -74 83q-72 0 -72 -83q0 -34 18 -56t54 -22q74 0 74 78zM326 0h-94q-4 0 -12.5 0.5t-11.5 0.5q-25 -20 -25 -48q0 -29 21.5 -43t72.5 -14q108 0 108 62q0 42 -59 42z
M350 571h-138v125h138v-125z" />
    <glyph glyph-name="Gcommaaccent" unicode="&#x122;" horiz-adv-x="771" 
d="M392 710q129 0 209.5 -66.5t88.5 -175.5h-161q-14 103 -139 103q-84 0 -125 -59t-41 -162q0 -223 161 -223q72 0 112 38t41 108h-161v116h318v-389h-149v116q-15 -39 -36.5 -65t-61.5 -43.5t-96 -17.5q-55 0 -106.5 22.5t-95 65t-70 113.5t-26.5 159q0 156 93 258
t245 102zM329 -38h125v-68q0 -96 -119 -148l-19 49q65 19 65 75h-52v92z" />
    <glyph glyph-name="gcommaaccent" unicode="&#x123;" horiz-adv-x="557" 
d="M270 510q52 0 152 -5t132 -5v-111q-25 0 -106 9q18 -10 28.5 -33.5t10.5 -50.5q0 -75 -57 -122t-164 -47q-37 0 -70 9q-15 -12 -15 -29t10.5 -23t33.5 -6h142q87 0 126.5 -33.5t39.5 -99.5q0 -79 -66 -126t-194 -47q-122 0 -176 29.5t-54 89.5q0 35 20.5 62.5t53.5 41.5
q-33 12 -48.5 28.5t-15.5 49.5q0 31 19 58t48 40q-67 49 -67 135q0 84 56 135t161 51zM345 324q0 83 -74 83q-72 0 -72 -83q0 -34 18 -56t54 -22q74 0 74 78zM372 718l-39 -179h-127l87 179h79zM326 0h-94q-4 0 -12.5 0.5t-11.5 0.5q-25 -20 -25 -48q0 -29 21.5 -43
t72.5 -14q108 0 108 62q0 42 -59 42z" />
    <glyph glyph-name="Hcircumflex" unicode="&#x124;" horiz-adv-x="715" 
d="M637 0h-157v300h-245v-300h-158v700h158v-277h245v277h157v-700zM545 738l-94 -15l-93 73l-93 -73l-94 15l128 142h117z" />
    <glyph glyph-name="hcircumflex" unicode="&#x125;" horiz-adv-x="565" 
d="M62 700h145v-267q44 77 144 77q73 0 113.5 -45t40.5 -126v-339h-146v308q0 40 -13.5 58t-47.5 18q-41 0 -66 -28.5t-25 -81.5v-274h-145v700zM411 738l-94 -15l-93 73l-93 -73l-94 15l128 142h117z" />
    <glyph glyph-name="Hbar" unicode="&#x126;" horiz-adv-x="715" 
d="M637 0h-157v300h-245v-300h-158v520h-50v90h50v90h158v-90h245v90h157v-90h52v-90h-52v-520zM235 423h245v97h-245v-97z" />
    <glyph glyph-name="hbar" unicode="&#x127;" horiz-adv-x="565" 
d="M62 700h145v-64h88v-84h-88v-119q44 77 144 77q73 0 113.5 -45t40.5 -126v-339h-146v308q0 40 -13.5 58t-47.5 18q-41 0 -66 -28.5t-25 -81.5v-274h-145v552h-52v84h52v64z" />
    <glyph glyph-name="Itilde" unicode="&#x128;" horiz-adv-x="312" 
d="M235 0h-158v700h158v-700zM87 860q39 0 83 -25t57 -25q30 0 35 37l63 -10q-5 -51 -29.5 -80t-65.5 -29q-33 0 -79.5 27t-67.5 27q-34 0 -35 -42l-60 13q2 50 27 78.5t72 28.5z" />
    <glyph glyph-name="itilde" unicode="&#x129;" horiz-adv-x="270" 
d="M66 699q39 0 83 -27.5t57 -27.5q15 0 23.5 8t11.5 31l63 -10q-5 -56 -29.5 -88t-65.5 -32q-33 0 -79.5 29t-67.5 29q-34 0 -35 -45l-60 14q2 55 27 87t72 32zM207 0h-145v500h145v-500z" />
    <glyph glyph-name="Imacron" unicode="&#x12a;" horiz-adv-x="312" 
d="M235 0h-158v700h158v-700zM292 740h-272v84h272v-84z" />
    <glyph glyph-name="imacron" unicode="&#x12b;" horiz-adv-x="270" 
d="M271 567h-272v93h272v-93zM207 0h-145v500h145v-500z" />
    <glyph glyph-name="Ibreve" unicode="&#x12c;" horiz-adv-x="312" 
d="M235 0h-158v700h158v-700zM15 854l75 9q0 -57 66 -57q67 0 67 57l75 -9q0 -59 -40 -93t-102 -34q-61 0 -101 34t-40 93z" />
    <glyph glyph-name="ibreve" unicode="&#x12d;" horiz-adv-x="270" 
d="M-16 693l88 10q0 -66 63 -66t63 66l89 -10q0 -65 -44.5 -103.5t-107.5 -38.5q-62 0 -106.5 38.5t-44.5 103.5zM207 0h-145v500h145v-500z" />
    <glyph glyph-name="Iogonek" unicode="&#x12e;" horiz-adv-x="312" 
d="M146 0h-69v700h158v-700h-13q-49 -38 -49 -86q0 -19 11.5 -30t32.5 -11q8 0 22 2v-89q-21 -6 -47 -6q-59 0 -93.5 28.5t-34.5 71.5q0 71 82 120z" />
    <glyph glyph-name="iogonek" unicode="&#x12f;" horiz-adv-x="269" 
d="M111 0h-49v500h145v-500h-20q-49 -38 -49 -86q0 -19 11.5 -30t32.5 -11q8 0 22 2v-89q-21 -6 -47 -6q-59 0 -93.5 28.5t-34.5 71.5q0 71 82 120zM62 686h146v-125h-146v125z" />
    <glyph glyph-name="Idotaccent" unicode="&#x130;" horiz-adv-x="312" 
d="M235 0h-158v700h158v-700zM224 744h-137v113h137v-113z" />
    <glyph glyph-name="dotlessi" unicode="&#x131;" horiz-adv-x="270" 
d="M207 0h-145v500h145v-500z" />
    <glyph glyph-name="IJ" unicode="&#x132;" horiz-adv-x="872" 
d="M235 0h-158v700h158v-700zM640 222v478h158v-475q0 -109 -73 -172t-196 -63q-105 0 -170 59t-78 160h163q4 -84 91 -84q57 0 81 22.5t24 74.5z" />
    <glyph glyph-name="ij" unicode="&#x133;" horiz-adv-x="539" 
d="M62 500h145v-500h-145v500zM62 686h146v-125h-146v125zM331 500h145v-511q0 -95 -68.5 -147t-155.5 -52v122q41 0 60 16.5t19 61.5v510zM331 686h146v-125h-146v125z" />
    <glyph glyph-name="Jcircumflex" unicode="&#x134;" horiz-adv-x="582" 
d="M351 700h158v-475q0 -109 -73 -172t-196 -63q-105 0 -170.5 59t-78.5 160h163q4 -84 92 -84q56 0 80.5 22.5t24.5 74.5v478zM614 738l-94 -15l-93 73l-93 -73l-94 15l128 142h117z" />
    <glyph glyph-name="jcircumflex" unicode="&#x135;" horiz-adv-x="263" 
d="M62 500h137v-511q0 -95 -65 -147t-151 -52v114q40 0 59.5 20.5t19.5 73.5v502zM64 705h132l121 -150l-102 -17l-85 82l-86 -82l-101 17z" />
    <glyph glyph-name="Kcommaaccent" unicode="&#x136;" horiz-adv-x="692" 
d="M235 0h-158v700h158v-700zM689 0h-189l-260 369l246 331h183l-247 -322zM290 -38h125v-68q0 -96 -119 -148l-19 49q65 19 65 75h-52v92z" />
    <glyph glyph-name="kcommaaccent" unicode="&#x137;" horiz-adv-x="548" 
d="M207 0h-145v700h145v-700zM560 0h-171l-177 273l165 227h169l-172 -222zM231 -38h125v-68q0 -96 -119 -148l-19 49q65 19 65 75h-52v92z" />
    <glyph glyph-name="Lacute" unicode="&#x139;" horiz-adv-x="549" 
d="M539 0h-462v700h158v-576h304v-124zM218 880l134 -15l-161 -142h-92z" />
    <glyph glyph-name="lacute" unicode="&#x13a;" horiz-adv-x="269" 
d="M207 0h-145v700h145v-700zM173 880l134 -15l-161 -142h-92z" />
    <glyph glyph-name="Lcommaaccent" unicode="&#x13b;" horiz-adv-x="549" 
d="M539 0h-462v700h158v-576h304v-124zM247 -38h125v-68q0 -96 -119 -148l-19 49q65 19 65 75h-52v92z" />
    <glyph glyph-name="lcommaaccent" unicode="&#x13c;" horiz-adv-x="269" 
d="M207 0h-145v700h145v-700zM68 -38h125v-68q0 -96 -119 -148l-19 49q65 19 65 75h-52v92z" />
    <glyph glyph-name="Lcaron" unicode="&#x13d;" horiz-adv-x="549" 
d="M539 0h-462v700h158v-576h304v-124zM294 710h124l-54 -159h-71z" />
    <glyph glyph-name="lcaron" unicode="&#x13e;" horiz-adv-x="269" 
d="M207 0h-145v700h145v-700zM246 710h124l-54 -159h-71z" />
    <glyph glyph-name="Lslash" unicode="&#x141;" horiz-adv-x="549" 
d="M539 0h-462v181l-25 -25l-70 71l95 95v378h158v-219l67 67l72 -71l-139 -139v-214h304v-124z" />
    <glyph glyph-name="lslash" unicode="&#x142;" horiz-adv-x="269" 
d="M207 0h-145v319l-27 -27l-65 65l92 92v251h145v-105l27 27l66 -65l-93 -93v-464z" />
    <glyph glyph-name="Nacute" unicode="&#x143;" horiz-adv-x="735" 
d="M77 700h223l182 -430q15 -39 27 -93q-5 55 -5 100v423h154v-700h-205l-197 471q-10 23 -25 91q4 -40 4 -92v-470h-158v700zM401 880l134 -15l-161 -142h-92z" />
    <glyph glyph-name="nacute" unicode="&#x144;" horiz-adv-x="558" 
d="M62 500h145v-67q44 77 140 77q73 0 115.5 -45.5t42.5 -125.5v-339h-146v308q0 40 -13.5 58t-48.5 18q-40 0 -65 -28.5t-25 -81.5v-274h-145v500zM303 718l150 -16l-153 -158h-100z" />
    <glyph glyph-name="Ncommaaccent" unicode="&#x145;" horiz-adv-x="735" 
d="M77 700h223l182 -430q15 -39 27 -93q-5 55 -5 100v423h154v-700h-205l-197 471q-10 23 -25 91q4 -40 4 -92v-470h-158v700zM323 -38h125v-68q0 -96 -119 -148l-19 49q65 19 65 75h-52v92z" />
    <glyph glyph-name="ncommaaccent" unicode="&#x146;" horiz-adv-x="558" 
d="M62 500h145v-67q44 77 140 77q73 0 115.5 -45.5t42.5 -125.5v-339h-146v308q0 40 -13.5 58t-48.5 18q-40 0 -65 -28.5t-25 -81.5v-274h-145v500zM223 -38h125v-68q0 -96 -119 -148l-19 49q65 19 65 75h-52v92z" />
    <glyph glyph-name="Ncaron" unicode="&#x147;" horiz-adv-x="735" 
d="M77 700h223l182 -430q15 -39 27 -93q-5 55 -5 100v423h154v-700h-205l-197 471q-10 23 -25 91q4 -40 4 -92v-470h-158v700zM177 865l94 15l92 -72l94 72l94 -15l-129 -142h-117z" />
    <glyph glyph-name="ncaron" unicode="&#x148;" horiz-adv-x="558" 
d="M62 500h145v-67q44 77 140 77q73 0 115.5 -45.5t42.5 -125.5v-339h-146v308q0 40 -13.5 58t-48.5 18q-40 0 -65 -28.5t-25 -81.5v-274h-145v500zM99 694l101 17l85 -82l86 82l102 -17l-121 -150h-132z" />
    <glyph glyph-name="napostrophe" unicode="&#x149;" horiz-adv-x="558" 
d="M62 500h145v-67q44 77 140 77q73 0 115.5 -45.5t42.5 -125.5v-339h-146v308q0 40 -13.5 58t-48.5 18q-40 0 -65 -28.5t-25 -81.5v-274h-145v500zM71 737h125v-68q0 -96 -119 -148l-19 49q65 19 65 75h-52v92z" />
    <glyph glyph-name="Eng" unicode="&#x14a;" horiz-adv-x="735" 
d="M77 700h223l182 -430q15 -39 27 -93q-5 55 -5 100v423h154v-720q0 -94 -68.5 -146.5t-155.5 -52.5v122q41 0 60 17t19 69v11h-60l-197 471q-10 23 -25 91q4 -40 4 -92v-470h-158v700z" />
    <glyph glyph-name="eng" unicode="&#x14b;" horiz-adv-x="565" 
d="M63 500h145v-67q44 77 143 77q73 0 113.5 -45t40.5 -126v-343q0 -64 -35 -111t-84 -67.5t-104 -21.5v123q40 0 59 14.5t19 60.5v314q0 40 -13.5 58t-48.5 18q-40 0 -65 -28.5t-25 -81.5v-274h-145v500z" />
    <glyph glyph-name="Omacron" unicode="&#x14c;" horiz-adv-x="777" 
d="M389 571q-84 0 -124.5 -58.5t-40.5 -162.5t40.5 -162.5t124.5 -58.5q83 0 124 59t41 162t-41 162t-124 59zM389 710q151 0 242.5 -101.5t91.5 -258.5t-91.5 -258.5t-242.5 -101.5q-152 0 -244 101.5t-92 258.5t92 258.5t244 101.5zM524 740h-272v84h272v-84z" />
    <glyph glyph-name="omacron" unicode="&#x14d;" horiz-adv-x="530" 
d="M266 389q-91 0 -91 -138q0 -140 91 -140q89 0 89 140q0 138 -89 138zM266 510q105 0 170 -69t65 -190q0 -122 -65 -191.5t-170 -69.5q-107 0 -171.5 69.5t-64.5 191.5q0 121 64.5 190t171.5 69zM401 567h-272v93h272v-93z" />
    <glyph glyph-name="Obreve" unicode="&#x14e;" horiz-adv-x="777" 
d="M389 571q-84 0 -124.5 -58.5t-40.5 -162.5t40.5 -162.5t124.5 -58.5q83 0 124 59t41 162t-41 162t-124 59zM389 710q151 0 242.5 -101.5t91.5 -258.5t-91.5 -258.5t-242.5 -101.5q-152 0 -244 101.5t-92 258.5t92 258.5t244 101.5zM247 854l75 9q0 -57 66 -57q67 0 67 57
l75 -9q0 -59 -40 -93t-102 -34q-61 0 -101 34t-40 93z" />
    <glyph glyph-name="obreve" unicode="&#x14f;" horiz-adv-x="530" 
d="M266 389q-91 0 -91 -138q0 -140 91 -140q89 0 89 140q0 138 -89 138zM266 510q105 0 170 -69t65 -190q0 -122 -65 -191.5t-170 -69.5q-107 0 -171.5 69.5t-64.5 191.5q0 121 64.5 190t171.5 69zM113 693l88 10q0 -66 63 -66t63 66l89 -10q0 -65 -44.5 -103.5
t-107.5 -38.5q-62 0 -106.5 38.5t-44.5 103.5z" />
    <glyph glyph-name="Ohungarumlaut" unicode="&#x150;" horiz-adv-x="777" 
d="M389 571q-84 0 -124.5 -58.5t-40.5 -162.5t40.5 -162.5t124.5 -58.5q83 0 124 59t41 162t-41 162t-124 59zM389 710q151 0 242.5 -101.5t91.5 -258.5t-91.5 -258.5t-242.5 -101.5q-152 0 -244 101.5t-92 258.5t92 258.5t244 101.5zM322 880l114 -15l-124 -134h-78z
M510 880l114 -15l-124 -134h-77z" />
    <glyph glyph-name="ohungarumlaut" unicode="&#x151;" horiz-adv-x="530" 
d="M266 389q-91 0 -91 -138q0 -140 91 -140q89 0 89 140q0 138 -89 138zM266 510q105 0 170 -69t65 -190q0 -122 -65 -191.5t-170 -69.5q-107 0 -171.5 69.5t-64.5 191.5q0 121 64.5 190t171.5 69zM214 718l114 -16l-123 -150h-78zM387 718l114 -16l-123 -150h-78z" />
    <glyph glyph-name="OE" unicode="&#x152;" horiz-adv-x="1050" 
d="M389 710q41 0 86 -10h529v-124h-358q57 -54 70 -153h226v-122h-223q-8 -113 -73 -177h367v-124h-538q-45 -10 -86 -10q-152 0 -244 101.5t-92 258.5t92 258.5t244 101.5zM389 571q-84 0 -124.5 -58.5t-40.5 -162.5t40.5 -162.5t124.5 -58.5q83 0 124 59t41 162t-41 162
t-124 59z" />
    <glyph glyph-name="oe" unicode="&#x153;" horiz-adv-x="855" 
d="M604 510q114 0 173 -86.5t49 -207.5h-326q4 -56 27 -80.5t70 -24.5q31 0 51.5 15.5t26.5 41.5h144q-18 -84 -77 -131t-144 -47q-104 0 -168 62q-59 -62 -164 -62q-112 0 -174 68t-62 193q0 124 62 191.5t174 67.5q106 0 166 -63q66 63 172 63zM266 386q-92 0 -92 -135
q0 -136 92 -136q90 0 90 136q0 135 -90 135zM596 400q-77 0 -93 -89h178q-2 39 -24 64t-61 25z" />
    <glyph glyph-name="Racute" unicode="&#x154;" horiz-adv-x="687" 
d="M637 0h-157q0 109 -15.5 169.5t-41.5 80.5t-70 20h-118v-270h-158v700h338q108 0 162.5 -53.5t54.5 -138.5q0 -77 -43 -123.5t-124 -53.5q39 -5 68 -21.5t53.5 -52t37.5 -100t13 -157.5zM235 391h136q52 0 74.5 24t22.5 71q0 45 -22.5 67.5t-74.5 22.5h-136v-185z
M376 880l134 -15l-161 -142h-92z" />
    <glyph glyph-name="racute" unicode="&#x155;" horiz-adv-x="365" 
d="M62 500h145v-101q14 55 49.5 83t103.5 28v-140q-10 4 -32 4q-52 0 -86.5 -36t-34.5 -106v-232h-145v500zM238 718l150 -16l-153 -158h-100z" />
    <glyph glyph-name="Rcommaaccent" unicode="&#x156;" horiz-adv-x="687" 
d="M637 0h-157q0 109 -15.5 169.5t-41.5 80.5t-70 20h-118v-270h-158v700h338q108 0 162.5 -53.5t54.5 -138.5q0 -77 -43 -123.5t-124 -53.5q39 -5 68 -21.5t53.5 -52t37.5 -100t13 -157.5zM235 391h136q52 0 74.5 24t22.5 71q0 45 -22.5 67.5t-74.5 22.5h-136v-185z
M291 -38h125v-68q0 -96 -119 -148l-19 49q65 19 65 75h-52v92z" />
    <glyph glyph-name="rcommaaccent" unicode="&#x157;" horiz-adv-x="365" 
d="M62 500h145v-101q14 55 49.5 83t103.5 28v-140q-10 4 -32 4q-52 0 -86.5 -36t-34.5 -106v-232h-145v500zM72 -38h125v-68q0 -96 -119 -148l-19 49q65 19 65 75h-52v92z" />
    <glyph glyph-name="Rcaron" unicode="&#x158;" horiz-adv-x="687" 
d="M637 0h-157q0 109 -15.5 169.5t-41.5 80.5t-70 20h-118v-270h-158v700h338q108 0 162.5 -53.5t54.5 -138.5q0 -77 -43 -123.5t-124 -53.5q39 -5 68 -21.5t53.5 -52t37.5 -100t13 -157.5zM235 391h136q52 0 74.5 24t22.5 71q0 45 -22.5 67.5t-74.5 22.5h-136v-185z
M159 865l94 15l92 -72l94 72l94 -15l-129 -142h-117z" />
    <glyph glyph-name="rcaron" unicode="&#x159;" horiz-adv-x="365" 
d="M62 500h145v-101q14 55 49.5 83t103.5 28v-140q-10 4 -32 4q-52 0 -86.5 -36t-34.5 -106v-232h-145v500zM31 694l101 17l85 -82l86 82l102 -17l-121 -150h-132z" />
    <glyph glyph-name="Sacute" unicode="&#x15a;" horiz-adv-x="679" 
d="M343 710q129 0 204.5 -62t80.5 -163h-163q-4 50 -31 75t-95 25q-113 0 -113 -80q0 -39 29.5 -55.5t99.5 -24.5q134 -13 205.5 -60.5t71.5 -140.5q0 -105 -79 -169.5t-218 -64.5q-129 0 -205.5 63t-81.5 165h163q3 -50 33 -77t97 -27q62 0 90 24t28 62q0 42 -30.5 58.5
t-107.5 26.5q-138 16 -201 62.5t-63 143.5q0 95 75.5 157t210.5 62zM371 880l134 -15l-161 -142h-92z" />
    <glyph glyph-name="sacute" unicode="&#x15b;" horiz-adv-x="503" 
d="M251 510q105 0 160.5 -44.5t58.5 -119.5h-135q-1 27 -22 43t-57 16q-74 0 -74 -46q0 -21 19.5 -31t58.5 -15q35 -3 59.5 -7t56.5 -14.5t51.5 -25.5t33.5 -42.5t14 -63.5q0 -78 -54 -124t-170 -46q-105 0 -160.5 45.5t-58.5 120.5h136q1 -27 23.5 -43t63.5 -16q79 0 79 45
q0 24 -19 34t-57 14q-41 5 -65 8.5t-57 14.5t-51 26t-31 42.5t-13 64.5q0 70 57 117t153 47zM274 718l150 -16l-153 -158h-100z" />
    <glyph glyph-name="Scircumflex" unicode="&#x15c;" horiz-adv-x="679" 
d="M343 710q129 0 204.5 -62t80.5 -163h-163q-4 50 -31 75t-95 25q-113 0 -113 -80q0 -39 29.5 -55.5t99.5 -24.5q134 -13 205.5 -60.5t71.5 -140.5q0 -105 -79 -169.5t-218 -64.5q-129 0 -205.5 63t-81.5 165h163q3 -50 33 -77t97 -27q62 0 90 24t28 62q0 42 -30.5 58.5
t-107.5 26.5q-138 16 -201 62.5t-63 143.5q0 95 75.5 157t210.5 62zM530 738l-94 -15l-93 73l-93 -73l-94 15l128 142h117z" />
    <glyph glyph-name="scircumflex" unicode="&#x15d;" horiz-adv-x="503" 
d="M251 510q105 0 160.5 -44.5t58.5 -119.5h-135q-1 27 -22 43t-57 16q-74 0 -74 -46q0 -21 19.5 -31t58.5 -15q35 -3 59.5 -7t56.5 -14.5t51.5 -25.5t33.5 -42.5t14 -63.5q0 -78 -54 -124t-170 -46q-105 0 -160.5 45.5t-58.5 120.5h136q1 -27 23.5 -43t63.5 -16q79 0 79 45
q0 24 -19 34t-57 14q-41 5 -65 8.5t-57 14.5t-51 26t-31 42.5t-13 64.5q0 70 57 117t153 47zM194 705h132l121 -150l-102 -17l-85 82l-86 -82l-101 17z" />
    <glyph glyph-name="Scedilla" unicode="&#x15e;" horiz-adv-x="679" 
d="M343 710q129 0 204.5 -62t80.5 -163h-163q-4 50 -31 75t-95 25q-113 0 -113 -80q0 -39 29.5 -55.5t99.5 -24.5q134 -13 205.5 -60.5t71.5 -140.5q0 -98 -69 -161.5t-192 -71.5l-33 -43q15 3 30 3q42 0 70.5 -20.5t28.5 -61.5q0 -49 -42 -77.5t-103 -28.5q-75 0 -116 38
l41 48q18 -23 64 -23q50 0 50 34q0 43 -78 43q-27 0 -52 -4l55 94q-109 12 -171.5 73t-66.5 152h163q3 -50 33 -77t97 -27q62 0 90 24t28 62q0 42 -30.5 58.5t-107.5 26.5q-138 16 -201 62.5t-63 143.5q0 95 75.5 157t210.5 62z" />
    <glyph glyph-name="Scedilla" unicode="&#xf6c1;" horiz-adv-x="679" 
d="M343 710q129 0 204.5 -62t80.5 -163h-163q-4 50 -31 75t-95 25q-113 0 -113 -80q0 -39 29.5 -55.5t99.5 -24.5q134 -13 205.5 -60.5t71.5 -140.5q0 -98 -69 -161.5t-192 -71.5l-33 -43q15 3 30 3q42 0 70.5 -20.5t28.5 -61.5q0 -49 -42 -77.5t-103 -28.5q-75 0 -116 38
l41 48q18 -23 64 -23q50 0 50 34q0 43 -78 43q-27 0 -52 -4l55 94q-109 12 -171.5 73t-66.5 152h163q3 -50 33 -77t97 -27q62 0 90 24t28 62q0 42 -30.5 58.5t-107.5 26.5q-138 16 -201 62.5t-63 143.5q0 95 75.5 157t210.5 62z" />
    <glyph glyph-name="scedilla" unicode="&#x15f;" horiz-adv-x="503" 
d="M251 510q105 0 160.5 -44.5t58.5 -119.5h-135q-1 27 -22 43t-57 16q-74 0 -74 -46q0 -21 19.5 -31t58.5 -15q35 -3 59.5 -7t56.5 -14.5t51.5 -25.5t33.5 -42.5t14 -63.5q0 -73 -47 -118t-147 -51l-33 -43q15 3 30 3q42 0 70.5 -20.5t28.5 -61.5q0 -49 -42 -77.5
t-103 -28.5q-75 0 -116 38l41 48q18 -23 64 -23q50 0 50 34q0 43 -78 43q-27 0 -52 -4l55 95q-79 11 -120.5 54t-43.5 108h136q1 -27 23.5 -43t63.5 -16q79 0 79 45q0 24 -19 34t-57 14q-41 5 -65 8.5t-57 14.5t-51 26t-31 42.5t-13 64.5q0 70 57 117t153 47z" />
    <glyph glyph-name="scedilla" unicode="&#xf6c2;" horiz-adv-x="503" 
d="M251 510q105 0 160.5 -44.5t58.5 -119.5h-135q-1 27 -22 43t-57 16q-74 0 -74 -46q0 -21 19.5 -31t58.5 -15q35 -3 59.5 -7t56.5 -14.5t51.5 -25.5t33.5 -42.5t14 -63.5q0 -73 -47 -118t-147 -51l-33 -43q15 3 30 3q42 0 70.5 -20.5t28.5 -61.5q0 -49 -42 -77.5
t-103 -28.5q-75 0 -116 38l41 48q18 -23 64 -23q50 0 50 34q0 43 -78 43q-27 0 -52 -4l55 95q-79 11 -120.5 54t-43.5 108h136q1 -27 23.5 -43t63.5 -16q79 0 79 45q0 24 -19 34t-57 14q-41 5 -65 8.5t-57 14.5t-51 26t-31 42.5t-13 64.5q0 70 57 117t153 47z" />
    <glyph glyph-name="Scaron" unicode="&#x160;" horiz-adv-x="679" 
d="M343 710q129 0 204.5 -62t80.5 -163h-163q-4 50 -31 75t-95 25q-113 0 -113 -80q0 -39 29.5 -55.5t99.5 -24.5q134 -13 205.5 -60.5t71.5 -140.5q0 -105 -79 -169.5t-218 -64.5q-129 0 -205.5 63t-81.5 165h163q3 -50 33 -77t97 -27q62 0 90 24t28 62q0 42 -30.5 58.5
t-107.5 26.5q-138 16 -201 62.5t-63 143.5q0 95 75.5 157t210.5 62zM154 865l94 15l92 -72l94 72l94 -15l-129 -142h-117z" />
    <glyph glyph-name="scaron" unicode="&#x161;" horiz-adv-x="503" 
d="M251 510q105 0 160.5 -44.5t58.5 -119.5h-135q-1 27 -22 43t-57 16q-74 0 -74 -46q0 -21 19.5 -31t58.5 -15q35 -3 59.5 -7t56.5 -14.5t51.5 -25.5t33.5 -42.5t14 -63.5q0 -78 -54 -124t-170 -46q-105 0 -160.5 45.5t-58.5 120.5h136q1 -27 23.5 -43t63.5 -16q79 0 79 45
q0 24 -19 34t-57 14q-41 5 -65 8.5t-57 14.5t-51 26t-31 42.5t-13 64.5q0 70 57 117t153 47zM70 694l101 17l85 -82l86 82l102 -17l-121 -150h-132z" />
    <glyph glyph-name="Tcommaaccent" unicode="&#x162;" horiz-adv-x="623" 
d="M390 0h-157v576h-223v124h602v-124h-222v-576zM252 -38h125v-68q0 -96 -119 -148l-19 49q65 19 65 75h-52v92z" />
    <glyph glyph-name="Tcommaaccent" unicode="&#x21a;" horiz-adv-x="623" 
d="M390 0h-157v576h-223v124h602v-124h-222v-576zM252 -38h125v-68q0 -96 -119 -148l-19 49q65 19 65 75h-52v92z" />
    <glyph glyph-name="tcommaaccent" unicode="&#x163;" horiz-adv-x="359" 
d="M88 618h145v-118h117v-111h-117v-205q0 -39 14.5 -56t48.5 -17q21 0 54 9v-121q-42 -9 -79 -9q-86 0 -134.5 42t-48.5 131v226h-70v111h70v118zM157 -38h125v-68q0 -96 -119 -148l-19 49q65 19 65 75h-52v92z" />
    <glyph glyph-name="tcommaaccent" unicode="&#x21b;" horiz-adv-x="359" 
d="M88 618h145v-118h117v-111h-117v-205q0 -39 14.5 -56t48.5 -17q21 0 54 9v-121q-42 -9 -79 -9q-86 0 -134.5 42t-48.5 131v226h-70v111h70v118zM157 -38h125v-68q0 -96 -119 -148l-19 49q65 19 65 75h-52v92z" />
    <glyph glyph-name="Tcaron" unicode="&#x164;" horiz-adv-x="623" 
d="M390 0h-157v576h-223v124h602v-124h-222v-576zM125 865l94 15l92 -72l94 72l94 -15l-129 -142h-117z" />
    <glyph glyph-name="tcaron" unicode="&#x165;" horiz-adv-x="359" 
d="M88 618h145v-118h117v-111h-117v-205q0 -39 14.5 -56t48.5 -17q21 0 54 9v-121q-42 -9 -79 -9q-86 0 -134.5 42t-48.5 131v226h-70v111h70v118zM275 710h124l-54 -159h-71z" />
    <glyph glyph-name="Tbar" unicode="&#x166;" horiz-adv-x="623" 
d="M390 0h-157v270h-87v93h87v213h-223v124h602v-124h-222v-213h87v-93h-87v-270z" />
    <glyph glyph-name="tbar" unicode="&#x167;" horiz-adv-x="359" 
d="M88 618h145v-118h117v-111h-117v-84h87v-84h-87v-37q0 -39 14.5 -56t48.5 -17q21 0 54 9v-121q-42 -9 -79 -9q-86 0 -134.5 42t-48.5 131v58h-53v84h53v84h-70v111h70v118z" />
    <glyph glyph-name="Utilde" unicode="&#x168;" horiz-adv-x="730" 
d="M502 253v447h159v-477q0 -112 -88.5 -172.5t-211.5 -60.5q-122 0 -207 60t-85 173v477h158v-447q0 -69 33.5 -100t104.5 -31q72 0 104.5 30.5t32.5 100.5zM295 860q39 0 83 -25t57 -25q30 0 35 37l63 -10q-5 -51 -29.5 -80t-65.5 -29q-33 0 -79.5 27t-67.5 27
q-34 0 -35 -42l-60 13q2 50 27 78.5t72 28.5z" />
    <glyph glyph-name="utilde" unicode="&#x169;" horiz-adv-x="566" 
d="M60 500h146v-308q0 -40 13.5 -58t47.5 -18q40 0 65 28.5t25 81.5v274h145v-500h-145v67q-44 -77 -139 -77q-73 0 -115.5 45.5t-42.5 125.5v339zM213 699q39 0 83 -27.5t57 -27.5q15 0 23.5 8t11.5 31l63 -10q-5 -56 -29.5 -88t-65.5 -32q-33 0 -79.5 29t-67.5 29
q-34 0 -35 -45l-60 14q2 55 27 87t72 32z" />
    <glyph glyph-name="Umacron" unicode="&#x16a;" horiz-adv-x="730" 
d="M502 253v447h159v-477q0 -112 -88.5 -172.5t-211.5 -60.5q-122 0 -207 60t-85 173v477h158v-447q0 -69 33.5 -100t104.5 -31q72 0 104.5 30.5t32.5 100.5zM501 740h-272v84h272v-84z" />
    <glyph glyph-name="umacron" unicode="&#x16b;" horiz-adv-x="566" 
d="M60 500h146v-308q0 -40 13.5 -58t47.5 -18q40 0 65 28.5t25 81.5v274h145v-500h-145v67q-44 -77 -139 -77q-73 0 -115.5 45.5t-42.5 125.5v339zM418 567h-272v93h272v-93z" />
    <glyph glyph-name="Ubreve" unicode="&#x16c;" horiz-adv-x="730" 
d="M502 253v447h159v-477q0 -112 -88.5 -172.5t-211.5 -60.5q-122 0 -207 60t-85 173v477h158v-447q0 -69 33.5 -100t104.5 -31q72 0 104.5 30.5t32.5 100.5zM223 854l75 9q0 -57 66 -57q67 0 67 57l75 -9q0 -59 -40 -93t-102 -34q-61 0 -101 34t-40 93z" />
    <glyph glyph-name="ubreve" unicode="&#x16d;" horiz-adv-x="566" 
d="M60 500h146v-308q0 -40 13.5 -58t47.5 -18q40 0 65 28.5t25 81.5v274h145v-500h-145v67q-44 -77 -139 -77q-73 0 -115.5 45.5t-42.5 125.5v339zM131 693l88 10q0 -66 63 -66t63 66l89 -10q0 -65 -44.5 -103.5t-107.5 -38.5q-62 0 -106.5 38.5t-44.5 103.5z" />
    <glyph glyph-name="Uring" unicode="&#x16e;" horiz-adv-x="730" 
d="M502 253v447h159v-477q0 -112 -88.5 -172.5t-211.5 -60.5q-122 0 -207 60t-85 173v477h158v-447q0 -69 33.5 -100t104.5 -31q72 0 104.5 30.5t32.5 100.5zM365 892q55 0 91 -24t36 -68t-35.5 -67t-91.5 -23t-91.5 23t-35.5 67t36 68t91 24zM364 834q-49 0 -49 -34
q0 -35 49 -35t49 35q0 34 -49 34z" />
    <glyph glyph-name="uring" unicode="&#x16f;" horiz-adv-x="566" 
d="M60 500h146v-308q0 -40 13.5 -58t47.5 -18q40 0 65 28.5t25 81.5v274h145v-500h-145v67q-44 -77 -139 -77q-73 0 -115.5 45.5t-42.5 125.5v339zM282 735q55 0 93 -27.5t38 -76.5t-37.5 -76t-93.5 -27q-55 0 -93 27t-38 76t38 76.5t93 27.5zM282 666q-20 0 -32 -9.5
t-12 -24.5q0 -37 44 -37q43 0 43 35q0 17 -12.5 26.5t-30.5 9.5z" />
    <glyph glyph-name="Uhungarumlaut" unicode="&#x170;" horiz-adv-x="730" 
d="M502 253v447h159v-477q0 -112 -88.5 -172.5t-211.5 -60.5q-122 0 -207 60t-85 173v477h158v-447q0 -69 33.5 -100t104.5 -31q72 0 104.5 30.5t32.5 100.5zM311 880l114 -15l-124 -134h-78zM499 880l114 -15l-124 -134h-77z" />
    <glyph glyph-name="uhungarumlaut" unicode="&#x171;" horiz-adv-x="566" 
d="M60 500h146v-308q0 -40 13.5 -58t47.5 -18q40 0 65 28.5t25 81.5v274h145v-500h-145v67q-44 -77 -139 -77q-73 0 -115.5 45.5t-42.5 125.5v339zM223 718l114 -16l-123 -150h-78zM396 718l114 -16l-123 -150h-78z" />
    <glyph glyph-name="Uogonek" unicode="&#x172;" horiz-adv-x="730" 
d="M502 253v447h159v-477q0 -97 -66.5 -155t-169.5 -73q-42 -37 -42 -81q0 -19 11.5 -30t32.5 -11q8 0 22 2v-89q-21 -6 -47 -6q-59 0 -93.5 28.5t-34.5 71.5q0 65 67 111q-116 5 -194 64.5t-78 167.5v477h158v-447q0 -69 33.5 -100t104.5 -31q72 0 104.5 30.5t32.5 100.5z
" />
    <glyph glyph-name="uogonek" unicode="&#x173;" horiz-adv-x="566" 
d="M394 0h-37v67q-44 -77 -139 -77q-73 0 -115.5 45.5t-42.5 125.5v339h146v-308q0 -40 13.5 -58t47.5 -18q40 0 65 28.5t25 81.5v274h145v-500h-32q-49 -38 -49 -86q0 -19 11.5 -30t32.5 -11q8 0 22 2v-89q-21 -6 -47 -6q-59 0 -93.5 28.5t-34.5 71.5q0 71 82 120z" />
    <glyph glyph-name="Wcircumflex" unicode="&#x174;" horiz-adv-x="983" 
d="M12 700h167l108 -454q11 -53 14 -86q5 51 14 86l107 454h143l109 -454q8 -30 15 -86q2 32 13 86l112 454h157l-183 -700h-194l-89 373q-8 31 -12 84q-4 -53 -12 -84l-88 -373h-194zM678 738l-94 -15l-93 73l-93 -73l-94 15l128 142h117z" />
    <glyph glyph-name="wcircumflex" unicode="&#x175;" horiz-adv-x="773" 
d="M-2 500h146l74 -289q9 -35 14 -83q7 56 13 83l75 289h137l76 -289q9 -36 14 -81q7 54 13 81l74 289h141l-145 -500h-171l-58 237q-11 45 -16 98q-9 -70 -17 -98l-61 -237h-165zM320 705h132l121 -150l-102 -17l-85 82l-86 -82l-101 17z" />
    <glyph glyph-name="Ycircumflex" unicode="&#x176;" horiz-adv-x="671" 
d="M415 0h-158v297l-269 403h185l168 -269l170 269h172l-268 -403v-297zM523 738l-94 -15l-93 73l-93 -73l-94 15l128 142h117z" />
    <glyph glyph-name="ycircumflex" unicode="&#x177;" horiz-adv-x="497" 
d="M-5 500h152l87 -280q11 -42 16 -89q9 60 18 89l91 280h143l-176 -512q-18 -55 -39.5 -91.5t-44 -58t-56 -32t-64 -13.5t-80.5 -3v126q92 0 114 45l13 29zM186 705h132l121 -150l-102 -17l-85 82l-86 -82l-101 17z" />
    <glyph glyph-name="Ydieresis" unicode="&#x178;" horiz-adv-x="671" 
d="M415 0h-158v297l-269 403h185l168 -269l170 269h172l-268 -403v-297zM285 744h-106v105h106v-105zM499 744h-107v105h107v-105z" />
    <glyph glyph-name="Zacute" unicode="&#x179;" horiz-adv-x="631" 
d="M596 0h-556v124l364 452h-355v124h543v-124l-363 -452h367v-124zM362 880l134 -15l-161 -142h-92z" />
    <glyph glyph-name="zacute" unicode="&#x17a;" horiz-adv-x="461" 
d="M435 0h-408v112l235 277h-221v111h390v-111l-234 -277h238v-112zM259 718l150 -16l-153 -158h-100z" />
    <glyph glyph-name="Zdotaccent" unicode="&#x17b;" horiz-adv-x="631" 
d="M596 0h-556v124l364 452h-355v124h543v-124l-363 -452h367v-124zM384 744h-137v113h137v-113z" />
    <glyph glyph-name="zdotaccent" unicode="&#x17c;" horiz-adv-x="461" 
d="M435 0h-408v112l235 277h-221v111h390v-111l-234 -277h238v-112zM305 571h-138v125h138v-125z" />
    <glyph glyph-name="Zcaron" unicode="&#x17d;" horiz-adv-x="631" 
d="M596 0h-556v124l364 452h-355v124h543v-124l-363 -452h367v-124zM130 865l94 15l92 -72l94 72l94 -15l-129 -142h-117z" />
    <glyph glyph-name="zcaron" unicode="&#x17e;" horiz-adv-x="461" 
d="M435 0h-408v112l235 277h-221v111h390v-111l-234 -277h238v-112zM47 694l101 17l85 -82l86 82l102 -17l-121 -150h-132z" />
    <glyph glyph-name="longs" unicode="&#x17f;" horiz-adv-x="287" 
d="M243 710q34 0 79 -8v-119q-33 8 -60 8q-57 0 -57 -59v-532h-145v530q0 89 49.5 134.5t133.5 45.5z" />
    <glyph glyph-name="florin" unicode="&#x192;" horiz-adv-x="540" 
d="M380 708q34 0 79 -8v-120q-40 10 -61 10q-64 0 -64 -60v-30h125v-111h-125v-419q0 -89 -53 -135t-138 -46q-37 0 -79 9v119q36 -9 61 -9q64 0 64 62v419h-69v111h69v28q0 89 53 134.5t138 45.5z" />
    <glyph glyph-name="AEacute" unicode="&#x1fc;" horiz-adv-x="945" 
d="M907 0h-492v172h-234l-108 -172h-175l449 700h552v-124h-326v-153h264v-122h-264v-177h334v-124zM253 292h162v262zM581 880l134 -15l-161 -142h-92z" />
    <glyph glyph-name="aeacute" unicode="&#x1fd;" horiz-adv-x="833" 
d="M275 510q111 0 157 -48q60 48 150 48q111 0 170 -83.5t50 -205.5h-324q4 -58 26.5 -85.5t68.5 -27.5q34 0 56 16.5t27 42.5h140q-4 -77 -67.5 -127t-150.5 -50q-139 0 -199 103q-61 -101 -194 -101q-70 0 -110 38t-40 102q0 89 61 134t196 45h44v33q0 57 -73 57
q-37 0 -60.5 -16.5t-24.5 -50.5h-129q2 84 61 130t165 46zM452 718l150 -16l-153 -158h-100zM232 104q45 0 74.5 28t29.5 69v20h-41q-119 0 -119 -66q0 -51 56 -51zM574 402q-75 0 -93 -91h181q-3 41 -25 66t-63 25z" />
    <glyph glyph-name="Oslashacute" unicode="&#x1fe;" horiz-adv-x="720" 
d="M567 700h143l-72 -100q85 -99 85 -250q0 -157 -91.5 -258.5t-242.5 -101.5q-89 0 -160 37l-19 -27h-144l71 100q-84 100 -84 250q0 157 92 258.5t244 101.5q86 0 158 -37zM554 350q0 63 -16 110l-224 -315q31 -16 75 -16q83 0 124 59t41 162zM389 571q-84 0 -124.5 -58.5
t-40.5 -162.5q0 -66 14 -109l225 314q-34 16 -74 16zM411 880l134 -15l-161 -142h-92z" />
    <glyph glyph-name="oslashacute" unicode="&#x1ff;" horiz-adv-x="529" 
d="M266 510q63 0 115 -25l11 15h109l-51 -71q51 -66 51 -178q0 -125 -62.5 -193t-172.5 -68q-63 0 -116 24l-10 -14h-110l51 71q-51 66 -51 180q0 124 62 191.5t174 67.5zM284 718l150 -16l-153 -158h-100zM266 384q-95 0 -95 -133q0 -30 4 -50l128 176q-19 7 -37 7z
M360 251q0 23 -5 48l-126 -176q17 -6 37 -6q94 0 94 134z" />
    <glyph glyph-name="Scommaaccent" unicode="&#x218;" horiz-adv-x="679" 
d="M343 710q129 0 204.5 -62t80.5 -163h-163q-4 50 -31 75t-95 25q-113 0 -113 -80q0 -39 29.5 -55.5t99.5 -24.5q134 -13 205.5 -60.5t71.5 -140.5q0 -105 -79 -169.5t-218 -64.5q-129 0 -205.5 63t-81.5 165h163q3 -50 33 -77t97 -27q62 0 90 24t28 62q0 42 -30.5 58.5
t-107.5 26.5q-138 16 -201 62.5t-63 143.5q0 95 75.5 157t210.5 62zM280 -38h125v-68q0 -96 -119 -148l-19 49q65 19 65 75h-52v92z" />
    <glyph glyph-name="scommaaccent" unicode="&#x219;" horiz-adv-x="503" 
d="M251 510q105 0 160.5 -44.5t58.5 -119.5h-135q-1 27 -22 43t-57 16q-74 0 -74 -46q0 -21 19.5 -31t58.5 -15q35 -3 59.5 -7t56.5 -14.5t51.5 -25.5t33.5 -42.5t14 -63.5q0 -78 -54 -124t-170 -46q-105 0 -160.5 45.5t-58.5 120.5h136q1 -27 23.5 -43t63.5 -16q79 0 79 45
q0 24 -19 34t-57 14q-41 5 -65 8.5t-57 14.5t-51 26t-31 42.5t-13 64.5q0 70 57 117t153 47zM192 -38h125v-68q0 -96 -119 -148l-19 49q65 19 65 75h-52v92z" />
    <glyph glyph-name="circumflex" unicode="&#x2c6;" horiz-adv-x="458" 
d="M163 705h132l121 -150l-102 -17l-85 82l-86 -82l-101 17z" />
    <glyph glyph-name="caron" unicode="&#x2c7;" horiz-adv-x="458" 
d="M42 694l101 17l85 -82l86 82l102 -17l-121 -150h-132z" />
    <glyph glyph-name="breve" unicode="&#x2d8;" horiz-adv-x="367" 
d="M32 693l88 10q0 -66 63 -66t63 66l89 -10q0 -65 -44.5 -103.5t-107.5 -38.5q-62 0 -106.5 38.5t-44.5 103.5z" />
    <glyph glyph-name="dotaccent" unicode="&#x2d9;" horiz-adv-x="237" 
d="M188 571h-138v125h138v-125z" />
    <glyph glyph-name="ring" unicode="&#x2da;" horiz-adv-x="354" 
d="M176 735q55 0 93 -27.5t38 -76.5t-37.5 -76t-93.5 -27q-55 0 -93 27t-38 76t38 76.5t93 27.5zM176 666q-20 0 -32 -9.5t-12 -24.5q0 -37 44 -37q43 0 43 35q0 17 -12.5 26.5t-30.5 9.5z" />
    <glyph glyph-name="ogonek" unicode="&#x2db;" horiz-adv-x="275" 
d="M132 0h76q-49 -38 -49 -86q0 -19 11.5 -30t32.5 -11q8 0 22 2v-89q-21 -6 -47 -6q-59 0 -93.5 28.5t-34.5 71.5q0 71 82 120z" />
    <glyph glyph-name="tilde" unicode="&#x2dc;" horiz-adv-x="442" 
d="M152 699q39 0 83 -27.5t57 -27.5q15 0 23.5 8t11.5 31l63 -10q-5 -56 -29.5 -88t-65.5 -32q-33 0 -79.5 29t-67.5 29q-34 0 -35 -45l-60 14q2 55 27 87t72 32z" />
    <glyph glyph-name="hungarumlaut" unicode="&#x2dd;" horiz-adv-x="474" 
d="M137 718l114 -16l-123 -150h-78zM310 718l114 -16l-123 -150h-78z" />
    <glyph glyph-name="tonos" unicode="&#x384;" horiz-adv-x="261" 
d="M86 716h147l-72 -180h-80z" />
    <glyph glyph-name="dieresistonos" unicode="&#x385;" horiz-adv-x="448" 
d="M143 571h-95v108h95v-108zM400 571h-95v108h95v-108zM257 546h-65l-22 183h111z" />
    <glyph glyph-name="Alphatonos" unicode="&#x386;" horiz-adv-x="658" 
d="M220 700h222l232 -700h-173l-55 172h-240l-54 -172h-166zM327 582q-8 -43 -23 -92l-62 -198h168l-62 200q-11 40 -21 90zM26 716h147l-72 -180h-80z" />
    <glyph glyph-name="anoteleia" unicode="&#x387;" horiz-adv-x="593" 
d="M225 403h143v-143h-143v143z" />
    <glyph glyph-name="Epsilontonos" unicode="&#x388;" horiz-adv-x="607" 
d="M569 0h-492v691l-62 -155h-80l5 180h147l-7 -16h481v-124h-326v-153h264v-122h-264v-177h334v-124z" />
    <glyph glyph-name="Etatonos" unicode="&#x389;" horiz-adv-x="715" 
d="M-61 716h147l-7 -16h156v-277h245v277h157v-700h-157v300h-245v-300h-158v693l-63 -157h-80z" />
    <glyph glyph-name="Iotatonos" unicode="&#x38a;" horiz-adv-x="312" 
d="M-60 716h147l-7 -16h155v-700h-158v691l-62 -155h-80z" />
    <glyph glyph-name="Omicrontonos" unicode="&#x38c;" horiz-adv-x="777" 
d="M-19 716h147l-72 -180h-80zM389 571q-84 0 -124.5 -58.5t-40.5 -162.5t40.5 -162.5t124.5 -58.5q83 0 124 59t41 162t-41 162t-124 59zM389 710q151 0 242.5 -101.5t91.5 -258.5t-91.5 -258.5t-242.5 -101.5q-152 0 -244 101.5t-92 258.5t92 258.5t244 101.5z" />
    <glyph glyph-name="Upsilontonos" unicode="&#x38e;" horiz-adv-x="671" 
d="M415 0h-158v297l-249 372l-53 -133h-80l5 180h147l-7 -16h153l168 -269l170 269h172l-268 -403v-297z" />
    <glyph glyph-name="Omegatonos" unicode="&#x38f;" horiz-adv-x="779" 
d="M389 710q153 0 243 -91.5t90 -245.5q0 -80 -31.5 -152t-83.5 -97h154v-124h-328v135q64 16 91.5 69.5t27.5 156.5q0 100 -41 155t-122 55q-82 0 -123 -55t-41 -155q0 -103 27.5 -155.5t92.5 -70.5v-135h-327v124h152q-51 26 -83 98t-32 151q0 154 90.5 245.5t243.5 91.5z
M-29 716h147l-72 -180h-80z" />
    <glyph glyph-name="iotadieresistonos" unicode="&#x390;" horiz-adv-x="282" 
d="M62 500h145v-342q0 -42 39 -42q12 0 24 3v-120q-35 -7 -73 -7q-135 0 -135 103v405zM52 571h-95v108h95v-108zM309 571h-95v108h95v-108zM166 546h-65l-22 183h111z" />
    <glyph glyph-name="Alpha" unicode="&#x391;" horiz-adv-x="660" 
d="M220 700h222l232 -700h-173l-55 172h-240l-54 -172h-166zM327 582q-8 -43 -23 -92l-62 -198h168l-62 200q-11 40 -21 90z" />
    <glyph glyph-name="Beta" unicode="&#x392;" horiz-adv-x="686" 
d="M235 416h124q97 0 97 83q0 39 -22.5 58t-74.5 19h-124v-160zM415 0h-338v700h327q104 0 159.5 -47.5t55.5 -121.5q0 -133 -144 -162q81 -12 122.5 -58.5t41.5 -118.5q0 -84 -60 -138t-164 -54zM235 124h132q114 0 114 90q0 94 -113 94h-133v-184z" />
    <glyph glyph-name="Gamma" unicode="&#x393;" horiz-adv-x="549" 
d="M77 700h462v-124h-304v-576h-158v700z" />
    <glyph glyph-name="Delta" unicode="&#x394;" horiz-adv-x="658" 
d="M326 580q-9 -51 -20 -85l-118 -371h273l-116 373q-10 33 -19 83zM220 700h220l232 -700h-686z" />
    <glyph glyph-name="Delta" unicode="&#x2206;" horiz-adv-x="658" 
d="M326 580q-9 -51 -20 -85l-118 -371h273l-116 373q-10 33 -19 83zM220 700h220l232 -700h-686z" />
    <glyph glyph-name="Epsilon" unicode="&#x395;" horiz-adv-x="607" 
d="M569 0h-492v700h484v-124h-326v-153h264v-122h-264v-177h334v-124z" />
    <glyph glyph-name="Zeta" unicode="&#x396;" horiz-adv-x="631" 
d="M596 0h-556v124l364 452h-355v124h543v-124l-363 -452h367v-124z" />
    <glyph glyph-name="Eta" unicode="&#x397;" horiz-adv-x="715" 
d="M637 0h-157v300h-245v-300h-158v700h158v-277h245v277h157v-700z" />
    <glyph glyph-name="Theta" unicode="&#x398;" horiz-adv-x="777" 
d="M389 571q-84 0 -124.5 -58.5t-40.5 -162.5t40.5 -162.5t124.5 -58.5q83 0 124 59t41 162t-41 162t-124 59zM389 710q151 0 242.5 -101.5t91.5 -258.5t-91.5 -258.5t-242.5 -101.5q-152 0 -244 101.5t-92 258.5t92 258.5t244 101.5zM270 414h236v-114h-236v114z" />
    <glyph glyph-name="Iota" unicode="&#x399;" horiz-adv-x="312" 
d="M77 700h158v-700h-158v700z" />
    <glyph glyph-name="Kappa" unicode="&#x39a;" horiz-adv-x="692" 
d="M235 0h-158v700h158v-700zM689 0h-189l-260 369l246 331h183l-247 -322z" />
    <glyph glyph-name="Lambda" unicode="&#x39b;" horiz-adv-x="658" 
d="M220 700h218l234 -700h-172l-157 497q-7 23 -16 65q-5 -25 -16 -65l-158 -497h-167z" />
    <glyph glyph-name="Mu" unicode="&#x39c;" horiz-adv-x="918" 
d="M77 700h246l121 -406q14 -58 17 -107q7 68 18 107l118 406h244v-700h-157v465q0 69 3 112q-10 -64 -21 -104l-143 -473h-128l-143 473q-7 28 -20 104q3 -45 3 -111v-466h-158v700z" />
    <glyph glyph-name="Nu" unicode="&#x39d;" horiz-adv-x="735" 
d="M77 700h223l182 -430q15 -39 27 -93q-5 55 -5 100v423h154v-700h-205l-197 471q-10 23 -25 91q4 -40 4 -92v-470h-158v700z" />
    <glyph glyph-name="Xi" unicode="&#x39e;" horiz-adv-x="606" 
d="M43 700h520v-131h-520v131zM105 427h396v-130h-396v130zM34 131h538v-131h-538v131z" />
    <glyph glyph-name="Omicron" unicode="&#x39f;" horiz-adv-x="777" 
d="M389 571q-84 0 -124.5 -58.5t-40.5 -162.5t40.5 -162.5t124.5 -58.5q83 0 124 59t41 162t-41 162t-124 59zM389 710q151 0 242.5 -101.5t91.5 -258.5t-91.5 -258.5t-242.5 -101.5q-152 0 -244 101.5t-92 258.5t92 258.5t244 101.5z" />
    <glyph glyph-name="Pi" unicode="&#x3a0;" horiz-adv-x="713" 
d="M77 700h558v-700h-157v576h-243v-576h-158v700z" />
    <glyph glyph-name="Rho" unicode="&#x3a1;" horiz-adv-x="653" 
d="M407 700q104 0 162.5 -65t58.5 -162q0 -101 -59.5 -166t-170.5 -65h-163v-242h-158v700h330zM367 576h-132v-221h132q100 0 100 114q0 107 -100 107z" />
    <glyph glyph-name="Sigma" unicode="&#x3a3;" horiz-adv-x="604" 
d="M48 700h522v-124h-342l177 -210l-186 -242h355v-124h-535v124l186 242l-177 210v124z" />
    <glyph glyph-name="Tau" unicode="&#x3a4;" horiz-adv-x="623" 
d="M390 0h-157v576h-223v124h602v-124h-222v-576z" />
    <glyph glyph-name="Upsilon" unicode="&#x3a5;" horiz-adv-x="671" 
d="M415 0h-158v297l-269 403h185l168 -269l170 269h172l-268 -403v-297z" />
    <glyph glyph-name="Phi" unicode="&#x3a6;" horiz-adv-x="838" 
d="M340 700h158v-90q151 -18 227.5 -84t76.5 -174q0 -109 -76.5 -175t-227.5 -84v-93h-158v93q-152 18 -228 84t-76 175q0 108 76.5 174t227.5 84v90zM635 352q0 61 -35 99.5t-102 45.5v-291q67 5 102 44t35 102zM203 352q0 -63 34.5 -101.5t102.5 -44.5v291
q-68 -7 -102.5 -45.5t-34.5 -99.5z" />
    <glyph glyph-name="Chi" unicode="&#x3a7;" horiz-adv-x="701" 
d="M0 700h198l121 -179q26 -41 36 -71q13 34 37 72l121 178h184l-248 -345l256 -355h-198l-127 185q-26 42 -36 73q-15 -38 -38 -74l-126 -184h-183l253 352z" />
    <glyph glyph-name="Psi" unicode="&#x3a8;" horiz-adv-x="819" 
d="M52 700h157v-234q0 -65 26 -97t95 -41v372h158v-372q69 9 95.5 41t26.5 97v234h157v-250q0 -120 -67.5 -184t-211.5 -77v-189h-158v189q-144 13 -211 77t-67 184v250z" />
    <glyph glyph-name="Omega" unicode="&#x3a9;" horiz-adv-x="779" 
d="M389 710q153 0 243 -91.5t90 -245.5q0 -80 -31.5 -152t-83.5 -97h154v-124h-328v135q64 16 91.5 69.5t27.5 156.5q0 100 -41 155t-122 55q-82 0 -123 -55t-41 -155q0 -103 27.5 -155.5t92.5 -70.5v-135h-327v124h152q-51 26 -83 98t-32 151q0 154 90.5 245.5t243.5 91.5z
" />
    <glyph glyph-name="Omega" unicode="&#x2126;" horiz-adv-x="779" 
d="M389 710q153 0 243 -91.5t90 -245.5q0 -80 -31.5 -152t-83.5 -97h154v-124h-328v135q64 16 91.5 69.5t27.5 156.5q0 100 -41 155t-122 55q-82 0 -123 -55t-41 -155q0 -103 27.5 -155.5t92.5 -70.5v-135h-327v124h152q-51 26 -83 98t-32 151q0 154 90.5 245.5t243.5 91.5z
" />
    <glyph glyph-name="Iotadieresis" unicode="&#x3aa;" horiz-adv-x="312" 
d="M235 0h-158v700h158v-700zM103 744h-106v105h106v-105zM317 744h-107v105h107v-105z" />
    <glyph glyph-name="Upsilondieresis" unicode="&#x3ab;" horiz-adv-x="671" 
d="M415 0h-158v297l-269 403h185l168 -269l170 269h172l-268 -403v-297zM281 744h-106v105h106v-105zM495 744h-107v105h107v-105z" />
    <glyph glyph-name="alphatonos" unicode="&#x3ac;" horiz-adv-x="591" 
d="M230 510q72 0 107.5 -28t65.5 -85l21 103h144l-65 -270q7 -61 17.5 -86.5t30.5 -25.5q12 0 24 3v-120q-34 -7 -70 -7q-53 0 -77.5 23t-38.5 75q-24 -51 -62 -75.5t-99 -24.5q-96 0 -147 69t-51 189q0 117 54.5 188.5t145.5 71.5zM262 387q-78 0 -78 -137t78 -137
q39 0 62.5 35t40.5 101q-31 138 -103 138zM274 716h147l-72 -180h-80z" />
    <glyph glyph-name="epsilontonos" unicode="&#x3ad;" horiz-adv-x="513" 
d="M212 716h147l-72 -180h-80zM252 510q96 0 156 -44.5t65 -121.5h-146q-5 34 -19.5 48t-50.5 14q-32 0 -44.5 -12.5t-12.5 -36.5q0 -32 20 -44.5t75 -12.5v-93q-60 0 -82.5 -14t-22.5 -48q0 -51 64 -51q38 0 55.5 15t22.5 51h148q-5 -76 -68.5 -123t-154.5 -47
q-104 0 -163 38t-59 106q0 51 32.5 82.5t93.5 39.5q-118 20 -118 114q0 63 54.5 101.5t154.5 38.5z" />
    <glyph glyph-name="etatonos" unicode="&#x3ae;" horiz-adv-x="557" 
d="M62 500h145v-67q44 77 140 77q73 0 111.5 -44.5t38.5 -126.5v-539h-146v508q0 40 -13.5 58t-47.5 18q-40 0 -61.5 -28t-21.5 -82v-274h-145v500zM235 716h147l-72 -180h-80z" />
    <glyph glyph-name="iotatonos" unicode="&#x3af;" horiz-adv-x="282" 
d="M62 500h145v-342q0 -42 39 -42q12 0 24 3v-120q-35 -7 -73 -7q-135 0 -135 103v405zM86 716h147l-72 -180h-80z" />
    <glyph glyph-name="upsilondieresistonos" unicode="&#x3b0;" horiz-adv-x="570" 
d="M89 510q132 0 132 -103v-215q0 -39 16.5 -57.5t54.5 -18.5t55 18.5t17 57.5v308h146v-323q0 -84 -56.5 -135.5t-161.5 -51.5t-161 51.5t-56 135.5v167q0 42 -39 42q-10 0 -24 -3v120q35 7 77 7zM210 571h-95v108h95v-108zM467 571h-95v108h95v-108zM324 546h-65l-22 183
h111z" />
    <glyph glyph-name="alpha" unicode="&#x3b1;" horiz-adv-x="591" 
d="M230 510q72 0 107.5 -28t65.5 -85l21 103h144l-65 -270q7 -61 17.5 -86.5t30.5 -25.5q12 0 24 3v-120q-34 -7 -70 -7q-53 0 -77.5 23t-38.5 75q-24 -51 -62 -75.5t-99 -24.5q-96 0 -147 69t-51 189q0 117 54.5 188.5t145.5 71.5zM262 387q-78 0 -78 -137t78 -137
q39 0 62.5 35t40.5 101q-31 138 -103 138z" />
    <glyph glyph-name="beta" unicode="&#x3b2;" horiz-adv-x="577" 
d="M294 710q96 0 160.5 -45.5t64.5 -130.5q0 -135 -145 -160q173 -27 173 -176q0 -86 -70 -144.5t-186 -58.5q-42 0 -84 7v-202h-145v714q0 90 67.5 143t164.5 53zM207 506v-385q33 -6 76 -6q105 0 105 94q0 55 -32 75.5t-111 20.5v114q75 0 98.5 20t23.5 69q0 76 -78 76
q-82 0 -82 -78z" />
    <glyph glyph-name="gamma" unicode="&#x3b3;" horiz-adv-x="497" 
d="M146 516q30 -76 63 -195.5t44 -183.5q80 234 106 363h143q-82 -295 -179 -519l8 -181h-173l12 190q-34 119 -83.5 262t-91.5 232z" />
    <glyph glyph-name="delta" unicode="&#x3b4;" horiz-adv-x="523" 
d="M262 369q-87 0 -87 -132q0 -127 86 -127t86 127q0 132 -85 132zM275 709q93 0 178 -15v-124q-97 19 -175 19q-35 0 -51 -7.5t-16 -28.5q0 -27 87 -51q11 -3 17 -5q179 -51 179 -254q0 -117 -62.5 -185t-167.5 -68q-108 0 -171 62.5t-63 179.5q0 87 48 144t121 62
q-138 22 -138 125q0 68 54 107t160 39z" />
    <glyph glyph-name="epsilon" unicode="&#x3b5;" horiz-adv-x="513" 
d="M252 510q96 0 156 -44.5t65 -121.5h-146q-5 34 -19.5 48t-50.5 14q-32 0 -44.5 -12.5t-12.5 -36.5q0 -32 20 -44.5t75 -12.5v-93q-60 0 -82.5 -14t-22.5 -48q0 -51 64 -51q38 0 55.5 15t22.5 51h148q-5 -76 -68.5 -123t-154.5 -47q-104 0 -163 38t-59 106q0 51 32.5 82.5
t93.5 39.5q-118 20 -118 114q0 63 54.5 101.5t154.5 38.5z" />
    <glyph glyph-name="zeta" unicode="&#x3b6;" horiz-adv-x="475" 
d="M12 700h451v-123l-200 -235q-46 -57 -46 -104q0 -32 31.5 -59t68.5 -45t68.5 -54t31.5 -84q0 -57 -55 -114.5t-140 -91.5l-65 103q47 20 71.5 45.5t24.5 49.5q0 17 -14.5 31.5t-37 26t-48 28t-48 34t-37 47.5t-14.5 67q0 44 19 85t69 98l139 172h-269v123z" />
    <glyph glyph-name="eta" unicode="&#x3b7;" horiz-adv-x="557" 
d="M62 500h145v-67q44 77 140 77q73 0 111.5 -44.5t38.5 -126.5v-539h-146v508q0 40 -13.5 58t-47.5 18q-40 0 -61.5 -28t-21.5 -82v-274h-145v500z" />
    <glyph glyph-name="theta" unicode="&#x3b8;" horiz-adv-x="570" 
d="M285 710q117 0 185 -90t68 -270t-68 -270t-185 -90t-185 90t-68 270t68 270t185 90zM285 112q106 0 108 197h-217q1 -97 26.5 -147t82.5 -50zM285 588q-103 0 -108 -181h216q-5 181 -108 181z" />
    <glyph glyph-name="iota" unicode="&#x3b9;" horiz-adv-x="282" 
d="M62 500h145v-342q0 -42 39 -42q12 0 24 3v-120q-35 -7 -73 -7q-135 0 -135 103v405z" />
    <glyph glyph-name="kappa" unicode="&#x3ba;" horiz-adv-x="561" 
d="M62 500h145v-500h-145v500zM380 500h164l-174 -222l188 -278h-167l-179 273z" />
    <glyph glyph-name="lambda" unicode="&#x3bb;" horiz-adv-x="497" 
d="M42 710q43 0 68.5 -1.5t57 -7.5t51.5 -18.5t41.5 -34t38 -54t31.5 -78.5l172 -500l-150 -32l-90 305q-9 27 -18 80q-5 -43 -17 -80l-88 -289h-144l166 510l-13 29q-12 25 -35 35t-71 10v126z" />
    <glyph glyph-name="nu" unicode="&#x3bd;" horiz-adv-x="497" 
d="M146 516q44 -109 107 -370q31 82 106 354h143q-65 -202 -176 -500h-159q-80 285 -172 484z" />
    <glyph glyph-name="xi" unicode="&#x3be;" horiz-adv-x="460" 
d="M8 700h443v-112q-114 -67 -163 -113t-49 -81q0 -31 33 -45t108 -14v-106q-76 0 -114 -22t-38 -53q0 -19 27.5 -39t61 -36.5t61 -47.5t27.5 -70q0 -47 -54.5 -99.5t-143.5 -80.5l-50 99q80 31 80 66q0 24 -27.5 44.5t-60 35.5t-60 45.5t-27.5 72.5q0 44 36 84.5t85 55.5
q-121 27 -121 98q0 91 196 199h-250v119z" />
    <glyph glyph-name="omicron" unicode="&#x3bf;" horiz-adv-x="530" 
d="M266 389q-91 0 -91 -138q0 -140 91 -140q89 0 89 140q0 138 -89 138zM266 510q105 0 170 -69t65 -190q0 -122 -65 -191.5t-170 -69.5q-107 0 -171.5 69.5t-64.5 191.5q0 121 64.5 190t171.5 69z" />
    <glyph glyph-name="pi" unicode="&#x3c0;" horiz-adv-x="602" 
d="M8 500h585v-109h-90v-233q0 -42 38 -42q12 0 24 3v-120q-34 -7 -77 -7q-131 0 -131 103v296h-113v-391h-145v391h-91v109z" />
    <glyph glyph-name="rho" unicode="&#x3c1;" horiz-adv-x="562" 
d="M292 510q115 0 177.5 -69.5t62.5 -190.5q0 -117 -57 -188.5t-148 -71.5q-90 0 -128 83v-273h-145v448q0 122 58 192t180 70zM289 389q-90 0 -90 -141q0 -137 92 -137q46 0 66.5 35t20.5 104q0 139 -89 139z" />
    <glyph glyph-name="sigma1" unicode="&#x3c2;" horiz-adv-x="486" 
d="M254 510q107 0 161.5 -54t60.5 -138h-133q-3 30 -22.5 50t-57.5 20q-85 0 -85 -103q0 -45 18.5 -77.5t46 -49.5t60 -35t60 -34t46 -45.5t18.5 -69.5q0 -55 -54 -106t-141 -86l-63 102q102 43 102 87q0 14 -17.5 26t-43.5 21.5t-56.5 29t-56.5 44.5t-43.5 72.5
t-17.5 108.5q0 106 57.5 171.5t160.5 65.5z" />
    <glyph glyph-name="sigma" unicode="&#x3c3;" horiz-adv-x="560" 
d="M266 510q42 0 125.5 -5t151.5 -5v-111q-86 0 -108 2q28 -18 47 -60t19 -96q0 -113 -65 -179t-170 -66q-107 0 -171.5 68.5t-64.5 192.5q0 123 64.5 191t171.5 68zM266 389q-91 0 -91 -138q0 -140 91 -140q89 0 89 140q0 138 -89 138z" />
    <glyph glyph-name="tau" unicode="&#x3c4;" horiz-adv-x="463" 
d="M8 500h447v-109h-154v-233q0 -42 39 -42q10 0 24 3v-120q-35 -7 -78 -7q-130 0 -130 103v296h-148v109z" />
    <glyph glyph-name="upsilon" unicode="&#x3c5;" horiz-adv-x="570" 
d="M89 510q132 0 132 -103v-215q0 -39 16.5 -57.5t54.5 -18.5t55 18.5t17 57.5v308h146v-323q0 -84 -56.5 -135.5t-161.5 -51.5t-161 51.5t-56 135.5v167q0 42 -39 42q-10 0 -24 -3v120q35 7 77 7z" />
    <glyph glyph-name="phi" unicode="&#x3c6;" horiz-adv-x="775" 
d="M314 700h145v-193q139 -13 214 -79t75 -177q0 -113 -75 -179t-214 -79v-193h-145v194q-139 13 -213 79t-74 178q0 111 74.5 176.5t212.5 78.5v194zM598 251q0 57 -36 96.5t-103 41.5v-278q67 1 103 41.5t36 98.5zM177 251q0 -58 35.5 -97.5t101.5 -41.5v276
q-66 -1 -101.5 -41t-35.5 -96z" />
    <glyph glyph-name="chi" unicode="&#x3c7;" horiz-adv-x="539" 
d="M13 500h167l67 -159q6 -15 22 -71q2 6 10 34t13 39l66 157h158l-170 -337l190 -363h-177l-71 164q-8 20 -24 76q-19 -63 -24 -77l-70 -163h-168l185 354z" />
    <glyph glyph-name="psi" unicode="&#x3c8;" horiz-adv-x="782" 
d="M319 700h145v-586q60 10 86.5 42t26.5 94v250h145v-251q0 -113 -66.5 -176t-191.5 -77v-196h-145v196q-125 13 -192 76t-67 177v251h145v-250q0 -63 26.5 -95t87.5 -42v587z" />
    <glyph glyph-name="omega" unicode="&#x3c9;" horiz-adv-x="753" 
d="M259 510v-113q-46 0 -65.5 -33.5t-19.5 -111.5q0 -139 70 -139q68 0 68 77l-9 172h147l-9 -172q0 -77 68 -77q70 0 70 139q0 78 -19.5 111.5t-65.5 33.5v113q115 -1 172.5 -68.5t57.5 -189.5q0 -262 -199 -262q-49 0 -88.5 24t-59.5 69q-20 -45 -60 -69t-89 -24
q-198 0 -198 262q0 122 57.5 189.5t171.5 68.5z" />
    <glyph glyph-name="iotadieresis" unicode="&#x3ca;" horiz-adv-x="282" 
d="M62 500h145v-342q0 -42 39 -42q12 0 24 3v-120q-35 -7 -73 -7q-135 0 -135 103v405zM88 571h-106v109h106v-109zM286 571h-106v109h106v-109z" />
    <glyph glyph-name="upsilondieresis" unicode="&#x3cb;" horiz-adv-x="570" 
d="M89 510q132 0 132 -103v-215q0 -39 16.5 -57.5t54.5 -18.5t55 18.5t17 57.5v308h146v-323q0 -84 -56.5 -135.5t-161.5 -51.5t-161 51.5t-56 135.5v167q0 42 -39 42q-10 0 -24 -3v120q35 7 77 7zM242 571h-106v109h106v-109zM440 571h-106v109h106v-109z" />
    <glyph glyph-name="omicrontonos" unicode="&#x3cc;" horiz-adv-x="530" 
d="M220 716h147l-72 -180h-80zM266 389q-91 0 -91 -138q0 -140 91 -140q89 0 89 140q0 138 -89 138zM266 510q105 0 170 -69t65 -190q0 -122 -65 -191.5t-170 -69.5q-107 0 -171.5 69.5t-64.5 191.5q0 121 64.5 190t171.5 69z" />
    <glyph glyph-name="upsilontonos" unicode="&#x3cd;" horiz-adv-x="570" 
d="M239 716h147l-72 -180h-80zM89 510q132 0 132 -103v-215q0 -39 16.5 -57.5t54.5 -18.5t55 18.5t17 57.5v308h146v-323q0 -84 -56.5 -135.5t-161.5 -51.5t-161 51.5t-56 135.5v167q0 42 -39 42q-10 0 -24 -3v120q35 7 77 7z" />
    <glyph glyph-name="omegatonos" unicode="&#x3ce;" horiz-adv-x="753" 
d="M259 510v-113q-46 0 -65.5 -33.5t-19.5 -111.5q0 -139 70 -139q68 0 68 77l-9 172h147l-9 -172q0 -77 68 -77q70 0 70 139q0 78 -19.5 111.5t-65.5 33.5v113q115 -1 172.5 -68.5t57.5 -189.5q0 -262 -199 -262q-49 0 -88.5 24t-59.5 69q-20 -45 -60 -69t-89 -24
q-198 0 -198 262q0 122 57.5 189.5t171.5 68.5zM332 716h147l-72 -180h-80z" />
    <glyph glyph-name="afii10023" unicode="&#x401;" horiz-adv-x="607" 
d="M569 0h-492v700h484v-124h-326v-153h264v-122h-264v-177h334v-124zM280 744h-106v105h106v-105zM494 744h-107v105h107v-105z" />
    <glyph glyph-name="afii10051" unicode="&#x402;" horiz-adv-x="758" 
d="M10 700h602v-124h-222v-183q49 77 158 77q80 0 125.5 -45t45.5 -126v-132q0 -101 -65 -154t-177 -53v114q45 1 64.5 21t19.5 70v103q0 39 -16.5 57.5t-53.5 18.5q-43 0 -72 -29t-29 -80v-235h-157v576h-223v124z" />
    <glyph glyph-name="afii10052" unicode="&#x403;" horiz-adv-x="549" 
d="M77 700h462v-124h-304v-576h-158v700zM343 880l134 -15l-161 -142h-92z" />
    <glyph glyph-name="afii10053" unicode="&#x404;" horiz-adv-x="720" 
d="M389 710q131 0 211.5 -64t89.5 -173h-162q-14 104 -139 104q-133 0 -160 -154h233v-122h-236q9 -83 49.5 -130.5t113.5 -47.5q125 0 139 104h162q-9 -109 -89.5 -173t-211.5 -64q-151 0 -243.5 102t-92.5 258t92.5 258t243.5 102z" />
    <glyph glyph-name="afii10054" unicode="&#x405;" horiz-adv-x="679" 
d="M343 710q129 0 204.5 -62t80.5 -163h-163q-4 50 -31 75t-95 25q-113 0 -113 -80q0 -39 29.5 -55.5t99.5 -24.5q134 -13 205.5 -60.5t71.5 -140.5q0 -105 -79 -169.5t-218 -64.5q-129 0 -205.5 63t-81.5 165h163q3 -50 33 -77t97 -27q62 0 90 24t28 62q0 42 -30.5 58.5
t-107.5 26.5q-138 16 -201 62.5t-63 143.5q0 95 75.5 157t210.5 62z" />
    <glyph glyph-name="afii10055" unicode="&#x406;" horiz-adv-x="312" 
d="M235 0h-158v700h158v-700z" />
    <glyph glyph-name="afii10056" unicode="&#x407;" horiz-adv-x="312" 
d="M235 0h-158v700h158v-700zM103 744h-106v105h106v-105zM317 744h-107v105h107v-105z" />
    <glyph glyph-name="afii10057" unicode="&#x408;" horiz-adv-x="582" 
d="M351 700h158v-475q0 -109 -73 -172t-196 -63q-105 0 -170.5 59t-78.5 160h163q4 -84 92 -84q56 0 80.5 22.5t24.5 74.5v478z" />
    <glyph glyph-name="afii10058" unicode="&#x409;" horiz-adv-x="1090" 
d="M646 335v-216h133q52 0 77.5 30.5t25.5 79.5q0 48 -25.5 77t-77.5 29h-133zM167 700h479v-255h165q110 0 171 -63.5t61 -155.5t-60 -159t-164 -67h-331v576h-167q-6 -313 -85 -460q-71 -126 -230 -126v150q69 0 102 57q29 54 41.5 171t17.5 332z" />
    <glyph glyph-name="afii10059" unicode="&#x40a;" horiz-adv-x="1062" 
d="M77 700h158v-255h234v255h158v-255h156q111 0 172 -64t61 -155q0 -92 -60.5 -159t-164.5 -67h-322v332h-234v-332h-158v700zM627 332v-213h125q52 0 77 30t25 79q0 47 -25.5 75.5t-77.5 28.5h-124z" />
    <glyph glyph-name="afii10060" unicode="&#x40b;" horiz-adv-x="779" 
d="M10 700h602v-124h-222v-185q49 77 158 77q80 0 125.5 -45t45.5 -126v-297h-158v266q0 39 -16 57t-54 18q-43 0 -72 -28.5t-29 -79.5v-233h-157v576h-223v124z" />
    <glyph glyph-name="afii10061" unicode="&#x40c;" horiz-adv-x="692" 
d="M235 0h-158v700h158v-700zM689 0h-189l-260 369l246 331h183l-247 -322zM398 880l134 -15l-161 -142h-92z" />
    <glyph glyph-name="afii10062" unicode="&#x40e;" horiz-adv-x="658" 
d="M179 870h92q0 -64 65 -64q66 0 66 64h92q0 -59 -47.5 -97t-110.5 -38q-62 0 -109.5 38t-47.5 97zM5 700h174l136 -291q11 -25 18 -60q11 44 19 60l135 291h170l-253 -521q-45 -95 -108.5 -142t-156.5 -47q-36 0 -65 4v143q28 -4 43 -4q73 0 102 48l22 40z" />
    <glyph glyph-name="afii10145" unicode="&#x40f;" horiz-adv-x="713" 
d="M77 700h158v-576h243v576h157v-700h-207l-22 -173h-99l-23 173h-207v700z" />
    <glyph glyph-name="afii10017" unicode="&#x410;" horiz-adv-x="668" 
d="M220 700h230l232 -700h-174l-54 172h-248l-54 -172h-166zM331 597q-10 -51 -27 -107l-62 -198h176l-62 200q-16 50 -25 105z" />
    <glyph glyph-name="afii10018" unicode="&#x411;" horiz-adv-x="679" 
d="M77 700h464v-124h-306v-154h165q111 0 171.5 -60.5t60.5 -151.5q0 -90 -59.5 -150t-164.5 -60h-331v700zM235 319v-208h133q53 0 78 27.5t25 74.5q0 48 -25.5 77t-77.5 29h-133z" />
    <glyph glyph-name="afii10019" unicode="&#x412;" horiz-adv-x="686" 
d="M235 416h124q97 0 97 83q0 39 -22.5 58t-74.5 19h-124v-160zM415 0h-338v700h327q104 0 159.5 -47.5t55.5 -121.5q0 -133 -144 -162q81 -12 122.5 -58.5t41.5 -118.5q0 -84 -60 -138t-164 -54zM235 124h132q114 0 114 90q0 94 -113 94h-133v-184z" />
    <glyph glyph-name="afii10020" unicode="&#x413;" horiz-adv-x="549" 
d="M77 700h462v-124h-304v-576h-158v700z" />
    <glyph glyph-name="afii10021" unicode="&#x414;" horiz-adv-x="813" 
d="M210 700h447v-576h140l-17 -302h-142v178h-473v-178h-141l-17 302h113q88 234 90 576zM354 576q-2 -240 -88 -452h234v452h-146z" />
    <glyph glyph-name="afii10022" unicode="&#x415;" horiz-adv-x="607" 
d="M569 0h-492v700h484v-124h-326v-153h264v-122h-264v-177h334v-124z" />
    <glyph glyph-name="afii10024" unicode="&#x416;" horiz-adv-x="1064" 
d="M192 0h-189l267 378l-247 322h183l246 -331zM611 0h-158v700h158v-700zM1062 0h-190l-260 369l247 331h182l-247 -322z" />
    <glyph glyph-name="afii10025" unicode="&#x417;" horiz-adv-x="643" 
d="M263 302v112q85 0 118.5 23.5t33.5 71.5q0 77 -97 77q-56 0 -80 -19.5t-31 -69.5h-167q3 98 84 155.5t194 57.5q128 0 201 -51t73 -133q0 -71 -46.5 -113t-131.5 -54q89 -7 138.5 -49t49.5 -115q0 -93 -80.5 -149t-211.5 -56q-112 0 -193 59t-83 155h170
q7 -51 33.5 -70.5t83.5 -19.5q51 0 79 22.5t28 63.5q0 52 -36.5 77t-128.5 25z" />
    <glyph glyph-name="afii10026" unicode="&#x418;" horiz-adv-x="728" 
d="M77 700h154v-414q0 -44 -4 -88q1 3 11 36.5t15 45.5l190 420h207v-700h-158v474q0 21 3 81q-14 -56 -22 -75l-207 -480h-189v700z" />
    <glyph glyph-name="afii10027" unicode="&#x419;" horiz-adv-x="728" 
d="M206 870h92q0 -64 65 -64q66 0 66 64h92q0 -59 -47.5 -97t-110.5 -38q-62 0 -109.5 38t-47.5 97zM77 700h154v-414q0 -44 -4 -88q1 3 11 36.5t15 45.5l190 420h207v-700h-158v474q0 21 3 81q-14 -56 -22 -75l-207 -480h-189v700z" />
    <glyph glyph-name="afii10028" unicode="&#x41a;" horiz-adv-x="692" 
d="M235 0h-158v700h158v-700zM689 0h-189l-260 369l246 331h183l-247 -322z" />
    <glyph glyph-name="afii10029" unicode="&#x41b;" horiz-adv-x="723" 
d="M167 700h478v-700h-157v576h-167q-6 -313 -85 -460q-71 -126 -230 -126v150q69 0 102 57q29 54 41.5 171t17.5 332z" />
    <glyph glyph-name="afii10030" unicode="&#x41c;" horiz-adv-x="918" 
d="M77 700h246l121 -406q14 -58 17 -107q7 68 18 107l118 406h244v-700h-157v465q0 69 3 112q-10 -64 -21 -104l-143 -473h-128l-143 473q-7 28 -20 104q3 -45 3 -111v-466h-158v700z" />
    <glyph glyph-name="afii10031" unicode="&#x41d;" horiz-adv-x="715" 
d="M637 0h-157v300h-245v-300h-158v700h158v-277h245v277h157v-700z" />
    <glyph glyph-name="afii10032" unicode="&#x41e;" horiz-adv-x="777" 
d="M389 571q-84 0 -124.5 -58.5t-40.5 -162.5t40.5 -162.5t124.5 -58.5q83 0 124 59t41 162t-41 162t-124 59zM389 710q151 0 242.5 -101.5t91.5 -258.5t-91.5 -258.5t-242.5 -101.5q-152 0 -244 101.5t-92 258.5t92 258.5t244 101.5z" />
    <glyph glyph-name="afii10033" unicode="&#x41f;" horiz-adv-x="682" 
d="M609 0h-150v576h-236v-576h-150v700h536v-700z" />
    <glyph glyph-name="afii10034" unicode="&#x420;" horiz-adv-x="653" 
d="M407 700q104 0 162.5 -65t58.5 -162q0 -101 -59.5 -166t-170.5 -65h-163v-242h-158v700h330zM367 576h-132v-221h132q100 0 100 114q0 107 -100 107z" />
    <glyph glyph-name="afii10035" unicode="&#x421;" horiz-adv-x="720" 
d="M528 233h162q-9 -109 -90 -176t-211 -67q-151 0 -243.5 102t-92.5 258t92.5 258t243.5 102q130 0 211 -67t90 -176h-162q-14 104 -139 104q-84 0 -124.5 -58.5t-40.5 -162.5t40.5 -162.5t124.5 -58.5q125 0 139 104z" />
    <glyph glyph-name="afii10036" unicode="&#x422;" horiz-adv-x="623" 
d="M390 0h-157v576h-223v124h602v-124h-222v-576z" />
    <glyph glyph-name="afii10037" unicode="&#x423;" horiz-adv-x="658" 
d="M5 700h174l136 -291q11 -25 18 -60q11 44 19 60l135 291h170l-253 -521q-45 -95 -108.5 -142t-156.5 -47q-36 0 -65 4v143q28 -4 43 -4q73 0 102 48l22 40z" />
    <glyph glyph-name="afii10038" unicode="&#x424;" horiz-adv-x="838" 
d="M340 700h158v-90q151 -18 227.5 -84t76.5 -174q0 -109 -76.5 -175t-227.5 -84v-93h-158v93q-152 18 -228 84t-76 175q0 108 76.5 174t227.5 84v90zM635 352q0 61 -35 99.5t-102 45.5v-291q67 5 102 44t35 102zM203 352q0 -63 34.5 -101.5t102.5 -44.5v291
q-68 -7 -102.5 -45.5t-34.5 -99.5z" />
    <glyph glyph-name="afii10039" unicode="&#x425;" horiz-adv-x="701" 
d="M0 700h198l121 -179q26 -41 36 -71q13 34 37 72l121 178h184l-248 -345l256 -355h-198l-127 185q-26 42 -36 73q-15 -38 -38 -74l-126 -184h-183l253 352z" />
    <glyph glyph-name="afii10040" unicode="&#x426;" horiz-adv-x="791" 
d="M77 700h158v-576h243v576h157v-576h140l-17 -302h-142v178h-539v700z" />
    <glyph glyph-name="afii10041" unicode="&#x427;" horiz-adv-x="692" 
d="M615 0h-157v305q-25 -60 -80.5 -91.5t-128.5 -31.5q-83 0 -135.5 44.5t-52.5 130.5v343h158v-293q0 -77 89 -77q58 0 104 36t46 97v237h157v-700z" />
    <glyph glyph-name="afii10042" unicode="&#x428;" horiz-adv-x="1044" 
d="M77 700h158v-576h208v576h157v-576h209v576h158v-700h-890v700z" />
    <glyph glyph-name="afii10043" unicode="&#x429;" horiz-adv-x="1123" 
d="M77 700h158v-576h208v576h157v-576h209v576h158v-576h140l-18 -302h-141v178h-871v700z" />
    <glyph glyph-name="afii10044" unicode="&#x42a;" horiz-adv-x="712" 
d="M268 335v-216h133q52 0 77.5 30.5t25.5 79.5q0 48 -26 77t-78 29h-132zM10 700h258v-255h164q111 0 172 -64t61 -155q0 -92 -60 -159t-164 -67h-331v576h-100v124z" />
    <glyph glyph-name="afii10045" unicode="&#x42b;" horiz-adv-x="913" 
d="M77 700h158v-255h157q111 0 172 -64t61 -155q0 -92 -60.5 -159t-164.5 -67h-323v700zM235 335v-216h126q52 0 77 30.5t25 79.5q0 48 -25.5 77t-77.5 29h-125zM836 0h-158v700h158v-700z" />
    <glyph glyph-name="afii10046" unicode="&#x42c;" horiz-adv-x="679" 
d="M77 700h158v-255h165q110 0 171 -63.5t61 -155.5t-60 -159t-164 -67h-331v700zM235 335v-216h133q52 0 77.5 30.5t25.5 79.5q0 48 -25.5 77t-77.5 29h-133z" />
    <glyph glyph-name="afii10047" unicode="&#x42d;" horiz-adv-x="720" 
d="M331 710q152 0 244 -101.5t92 -258.5t-92 -258.5t-244 -101.5q-131 0 -211.5 64t-88.5 173h161q14 -104 139 -104q73 0 113.5 47.5t49.5 130.5h-235v122h232q-13 72 -53 113t-107 41q-125 0 -139 -104h-161q8 109 88.5 173t211.5 64z" />
    <glyph glyph-name="afii10048" unicode="&#x42e;" horiz-adv-x="1036" 
d="M77 700h158v-277h98q20 129 105 208t217 79q150 0 238 -101t88 -259t-88 -259t-238 -101q-139 0 -224.5 85t-100.5 225h-95v-300h-158v700zM655 571q-158 0 -158 -221t158 -221q157 0 157 221t-157 221z" />
    <glyph glyph-name="afii10049" unicode="&#x42f;" horiz-adv-x="687" 
d="M272 700h339v-700h-159v270h-118q-44 0 -69.5 -20t-41 -80.5t-15.5 -169.5h-157q0 122 24 196t59 101t88 34q-80 7 -123 53.5t-43 123.5q0 85 54.5 138.5t161.5 53.5zM316 576q-52 0 -74 -22.5t-22 -67.5q0 -47 22.5 -71t73.5 -24h136v185h-136z" />
    <glyph glyph-name="afii10065" unicode="&#x430;" horiz-adv-x="540" 
d="M277 510q203 0 203 -166v-344h-145v74q-41 -82 -147 -82q-71 0 -112.5 38t-41.5 102q0 181 258 181q30 0 43 -1v32q0 29 -15 43t-51 14q-84 0 -86 -67h-135q5 84 65 130t164 46zM296 219q-114 0 -114 -64q0 -51 54 -51q45 0 72 26.5t27 68.5v19q-12 1 -39 1z" />
    <glyph glyph-name="afii10066" unicode="&#x431;" horiz-adv-x="535" 
d="M308 702q90 0 139 15v-121q-51 -15 -143 -15q-55 0 -83.5 -29t-38.5 -103q60 42 129 42q89 0 142.5 -62.5t53.5 -168.5q0 -125 -59 -197.5t-174 -72.5q-242 0 -242 347q0 178 69.5 271.5t206.5 93.5zM258 378q-37 0 -82 -20v-35q0 -115 22.5 -163.5t72.5 -48.5
q46 0 65.5 36t19.5 105q0 64 -23 95t-75 31z" />
    <glyph glyph-name="afii10067" unicode="&#x432;" horiz-adv-x="528" 
d="M207 399v-95h63q58 0 58 48q0 47 -58 47h-63zM62 500h251q83 0 125 -34.5t42 -88.5q0 -88 -98 -115q57 -10 86 -43t29 -82q0 -59 -47.5 -98t-128.5 -39h-259v500zM207 211v-109h69q37 0 52.5 13t15.5 40q0 56 -67 56h-70z" />
    <glyph glyph-name="afii10068" unicode="&#x433;" horiz-adv-x="441" 
d="M62 500h374v-116h-229v-384h-145v500z" />
    <glyph glyph-name="afii10069" unicode="&#x434;" horiz-adv-x="653" 
d="M144 500h384v-397h112l-27 -244h-127v141h-334v-141h-122l-28 244h84q24 59 41 165.5t17 231.5zM282 386q0 -64 -18 -144.5t-41 -138.5h160v283h-101z" />
    <glyph glyph-name="afii10070" unicode="&#x435;" horiz-adv-x="526" 
d="M275 510q80 0 134 -43t74 -108t14 -144h-323q4 -57 26 -82t68 -25q33 0 54.5 16t23.5 44h144q-5 -76 -67.5 -127t-152.5 -51q-111 0 -176 70.5t-65 190.5q0 117 66.5 188t179.5 71zM270 401q-40 0 -62.5 -21t-30.5 -67h173q-2 40 -21.5 64t-58.5 24z" />
    <glyph glyph-name="afii10072" unicode="&#x436;" horiz-adv-x="842" 
d="M17 500h164l162 -229l-176 -271h-164l183 276zM345 500h152v-500h-152v500zM661 500h164l-168 -224l182 -276h-163l-177 271z" />
    <glyph glyph-name="afii10073" unicode="&#x437;" horiz-adv-x="517" 
d="M261 510q105 0 161 -37t56 -100q0 -50 -32.5 -81t-93.5 -36q66 -1 100 -33t34 -85q0 -68 -62.5 -108t-170.5 -40q-100 0 -157.5 45.5t-62.5 124.5h148q5 -35 24 -50.5t58 -15.5q67 0 67 51q0 35 -23 48.5t-90 13.5v93q61 0 82.5 12.5t21.5 44.5q0 49 -61 49
q-37 0 -53 -14t-21 -48h-146q5 78 63 122t158 44z" />
    <glyph glyph-name="afii10074" unicode="&#x438;" horiz-adv-x="570" 
d="M62 500h133v-242q0 -40 -5 -88q18 60 28 82l123 248h167v-500h-135v276q0 28 4 90q-12 -48 -27 -85l-135 -281h-153v500z" />
    <glyph glyph-name="afii10075" unicode="&#x439;" horiz-adv-x="570" 
d="M141 685h92q2 -67 57 -67q32 0 44.5 17.5t13.5 49.5h92q-1 -61 -44.5 -99t-105.5 -38q-61 0 -104.5 38t-44.5 99zM62 500h133v-242q0 -40 -5 -88q18 60 28 82l123 248h167v-500h-135v276q0 28 4 90q-12 -48 -27 -85l-135 -281h-153v500z" />
    <glyph glyph-name="afii10076" unicode="&#x43a;" horiz-adv-x="569" 
d="M62 500h145v-500h-145v500zM385 500h163l-179 -222l193 -278h-166l-185 273z" />
    <glyph glyph-name="afii10077" unicode="&#x43b;" horiz-adv-x="577" 
d="M134 500h380v-500h-146v391h-97q-8 -235 -76 -330q-54 -69 -187 -69v110q54 0 78 52q40 84 48 346z" />
    <glyph glyph-name="afii10078" unicode="&#x43c;" horiz-adv-x="720" 
d="M62 500h207l77 -264q10 -37 15 -78q4 31 14 78l84 264h199v-500h-133v298q0 44 2 65q-7 -38 -14 -65l-91 -298h-124l-90 291q-13 48 -17 72q3 -33 3 -72v-291h-132v500z" />
    <glyph glyph-name="afii10079" unicode="&#x43d;" horiz-adv-x="557" 
d="M62 500h145v-183h143v183h145v-500h-145v200h-143v-200h-145v500z" />
    <glyph glyph-name="afii10080" unicode="&#x43e;" horiz-adv-x="530" 
d="M266 389q-91 0 -91 -138q0 -140 91 -140q89 0 89 140q0 138 -89 138zM266 510q105 0 170 -69t65 -190q0 -122 -65 -191.5t-170 -69.5q-107 0 -171.5 69.5t-64.5 191.5q0 121 64.5 190t171.5 69z" />
    <glyph glyph-name="afii10081" unicode="&#x43f;" horiz-adv-x="552" 
d="M62 500h428v-500h-145v391h-138v-391h-145v500z" />
    <glyph glyph-name="afii10082" unicode="&#x440;" horiz-adv-x="572" 
d="M339 510q90 0 145.5 -71.5t55.5 -188.5t-55.5 -188.5t-145.5 -71.5q-94 0 -140 92v-282h-145v700h145v-83q46 93 140 93zM299 387q-100 0 -100 -139q0 -61 24.5 -98t75.5 -37q91 0 91 137t-91 137z" />
    <glyph glyph-name="afii10083" unicode="&#x441;" horiz-adv-x="517" 
d="M272 510q92 0 155 -56.5t66 -144.5h-146q-2 35 -22.5 57.5t-57.5 22.5q-93 0 -93 -139t93 -139q37 0 57.5 22.5t22.5 57.5h146q-3 -88 -66 -144.5t-155 -56.5q-115 0 -178.5 70t-63.5 190t63.5 190t178.5 70z" />
    <glyph glyph-name="afii10084" unicode="&#x442;" horiz-adv-x="474" 
d="M8 500h458v-109h-157v-391h-145v391h-156v109z" />
    <glyph glyph-name="afii10085" unicode="&#x443;" horiz-adv-x="497" 
d="M-5 500h152l87 -280q11 -40 16 -90q10 65 18 90l91 280h143l-176 -512q-18 -55 -39.5 -91.5t-44 -58t-56 -32t-64 -13.5t-80.5 -3v126q92 0 114 45l13 29z" />
    <glyph glyph-name="afii10086" unicode="&#x444;" horiz-adv-x="876" 
d="M230 510q90 0 136 -93v283h145v-283q44 93 135 93q88 0 144.5 -72t56.5 -188t-56.5 -188t-144.5 -72q-91 0 -135 92v-282h-145v282q-46 -92 -136 -92q-88 0 -144 72t-56 188t56 188t144 72zM610 387q-47 0 -73 -36.5t-26 -102.5q0 -60 25.5 -97.5t73.5 -37.5q86 0 86 137
t-86 137zM266 387q-86 0 -86 -137t86 -137q48 0 74 37.5t26 97.5q0 66 -26.5 102.5t-73.5 36.5z" />
    <glyph glyph-name="afii10087" unicode="&#x445;" horiz-adv-x="539" 
d="M13 500h161l73 -105q12 -18 22 -43q14 29 23 43l71 105h153l-170 -239l190 -261h-172l-76 111q-13 18 -24 46q-11 -27 -24 -47l-76 -110h-162l185 254z" />
    <glyph glyph-name="afii10088" unicode="&#x446;" horiz-adv-x="611" 
d="M62 500h145v-397h138v397h145v-397h112l-28 -244h-126v141h-386v500z" />
    <glyph glyph-name="afii10089" unicode="&#x447;" horiz-adv-x="553" 
d="M56 500h146v-185q0 -40 12 -57.5t45 -17.5q40 0 63.5 28t23.5 82v150h145v-500h-145v190q-44 -77 -136 -77q-73 0 -113.5 45t-40.5 126v216z" />
    <glyph glyph-name="afii10090" unicode="&#x448;" horiz-adv-x="832" 
d="M62 500h145v-397h136v397h145v-397h136v397h145v-500h-707v500z" />
    <glyph glyph-name="afii10091" unicode="&#x449;" horiz-adv-x="894" 
d="M62 500h145v-397h136v397h145v-397h136v397h145v-397h112l-27 -244h-127v141h-665v500z" />
    <glyph glyph-name="afii10092" unicode="&#x44a;" horiz-adv-x="528" 
d="M222 231v-129h68q69 0 69 65q0 64 -68 64h-69zM10 500h212v-166h110q82 0 127.5 -44.5t45.5 -118.5q0 -82 -45 -126.5t-128 -44.5h-255v384h-67v116z" />
    <glyph glyph-name="afii10093" unicode="&#x44b;" horiz-adv-x="744" 
d="M537 500h145v-500h-145v500zM207 231v-129h67q70 0 70 65q0 64 -68 64h-69zM62 500h145v-166h110q81 0 127 -45t46 -118q0 -82 -45 -126.5t-128 -44.5h-255v500z" />
    <glyph glyph-name="afii10094" unicode="&#x44c;" horiz-adv-x="520" 
d="M207 231v-129h67q70 0 70 65q0 64 -68 64h-69zM62 500h145v-166h110q81 0 127 -45t46 -118q0 -82 -45 -126.5t-128 -44.5h-255v500z" />
    <glyph glyph-name="afii10095" unicode="&#x44d;" horiz-adv-x="517" 
d="M160 302h176q-5 54 -26 78.5t-60 24.5q-73 0 -78 -69h-148q2 81 65 127.5t157 46.5q115 0 178 -70t63 -190t-63.5 -190t-178.5 -70q-95 0 -157 46t-64 128h148q5 -69 78 -69q41 0 62 26t25 84h-177v97z" />
    <glyph glyph-name="afii10096" unicode="&#x44e;" horiz-adv-x="789" 
d="M62 500h145v-186h89q15 93 76 144.5t153 51.5q106 0 170 -68t64 -191q0 -124 -64 -192.5t-170 -68.5q-96 0 -157.5 55.5t-74.5 156.5h-86v-202h-145v500zM525 389q-46 0 -66 -34.5t-20 -103.5q0 -70 20 -105t66 -35q85 0 85 140q0 69 -20 103.5t-65 34.5z" />
    <glyph glyph-name="afii10097" unicode="&#x44f;" horiz-adv-x="535" 
d="M212 500h261v-500h-145v172h-67q-26 0 -40 -9.5t-23.5 -48.5t-9.5 -114h-150q0 65 8.5 108.5t25.5 67t35 34t45 16.5q-53 11 -82 45t-29 84q0 64 43.5 104.5t127.5 40.5zM248 391q-58 0 -58 -56q0 -59 58 -59h80v115h-80z" />
    <glyph glyph-name="afii10071" unicode="&#x451;" horiz-adv-x="526" 
d="M275 510q80 0 134 -43t74 -108t14 -144h-323q4 -57 26 -82t68 -25q33 0 54.5 16t23.5 44h144q-5 -76 -67.5 -127t-152.5 -51q-111 0 -176 70.5t-65 190.5q0 117 66.5 188t179.5 71zM270 401q-40 0 -62.5 -21t-30.5 -67h173q-2 40 -21.5 64t-58.5 24zM229 571h-106v109
h106v-109zM427 571h-106v109h106v-109z" />
    <glyph glyph-name="afii10099" unicode="&#x452;" horiz-adv-x="558" 
d="M286 567h-78v-134q44 77 139 77q72 0 111 -45t39 -126v-344q0 -95 -64.5 -147t-150.5 -52v114q36 0 53 18t17 65v315q0 40 -13 58t-47 18q-40 0 -62 -28t-22 -82v-274h-145v567h-49v93h49v40h145v-40h78v-93z" />
    <glyph glyph-name="afii10100" unicode="&#x453;" horiz-adv-x="441" 
d="M269 718l150 -16l-153 -158h-100zM62 500h374v-116h-229v-384h-145v500z" />
    <glyph glyph-name="afii10101" unicode="&#x454;" horiz-adv-x="517" 
d="M274 510q94 0 155 -46t64 -128h-149q-3 69 -77 69q-40 0 -60.5 -24.5t-26.5 -78.5h177v-97h-178q5 -58 26 -84t62 -26q74 0 77 69h149q-3 -82 -65 -128t-156 -46q-115 0 -178.5 70t-63.5 190q0 119 64.5 189.5t179.5 70.5z" />
    <glyph glyph-name="afii10102" unicode="&#x455;" horiz-adv-x="503" 
d="M251 510q105 0 160.5 -44.5t58.5 -119.5h-135q-1 27 -22 43t-57 16q-74 0 -74 -46q0 -21 19.5 -31t58.5 -15q35 -3 59.5 -7t56.5 -14.5t51.5 -25.5t33.5 -42.5t14 -63.5q0 -78 -54 -124t-170 -46q-105 0 -160.5 45.5t-58.5 120.5h136q1 -27 23.5 -43t63.5 -16q79 0 79 45
q0 24 -19 34t-57 14q-41 5 -65 8.5t-57 14.5t-51 26t-31 42.5t-13 64.5q0 70 57 117t153 47z" />
    <glyph glyph-name="afii10103" unicode="&#x456;" horiz-adv-x="269" 
d="M62 500h145v-500h-145v500zM62 686h146v-125h-146v125z" />
    <glyph glyph-name="afii10104" unicode="&#x457;" horiz-adv-x="270" 
d="M87 571h-106v109h106v-109zM285 571h-106v109h106v-109zM207 0h-145v500h145v-500z" />
    <glyph glyph-name="afii10105" unicode="&#x458;" horiz-adv-x="269" 
d="M62 500h145v-511q0 -95 -68.5 -147t-155.5 -52v122q41 0 60 16.5t19 61.5v510zM62 686h146v-125h-146v125z" />
    <glyph glyph-name="afii10106" unicode="&#x459;" horiz-adv-x="827" 
d="M514 231v-129h67q69 0 69 65q0 64 -68 64h-68zM134 500h380v-166h110q81 0 127 -45t46 -118q0 -82 -45.5 -126.5t-128.5 -44.5h-255v391h-97q-7 -209 -70 -304t-193 -95v110q65 0 92.5 91.5t33.5 306.5z" />
    <glyph glyph-name="afii10107" unicode="&#x45a;" horiz-adv-x="794" 
d="M486 231v-129h62q69 0 69 65q0 64 -67 64h-64zM62 500h145v-173h133v173h146v-166h105q81 0 127 -45t46 -118q0 -82 -45 -126.5t-128 -44.5h-251v217h-133v-217h-145v500z" />
    <glyph glyph-name="afii10108" unicode="&#x45b;" horiz-adv-x="565" 
d="M282 567h-75v-134q44 77 144 77q73 0 113.5 -45t40.5 -126v-339h-146v308q0 40 -13.5 58t-47.5 18q-41 0 -66 -28.5t-25 -81.5v-274h-145v567h-52v93h52v40h145v-40h75v-93z" />
    <glyph glyph-name="afii10109" unicode="&#x45c;" horiz-adv-x="555" 
d="M304 718l150 -16l-153 -158h-100zM62 500h145v-500h-145v500zM385 500h163l-179 -222l193 -278h-166l-185 273z" />
    <glyph glyph-name="afii10110" unicode="&#x45e;" horiz-adv-x="497" 
d="M105 685h91q1 -34 14.5 -50.5t43.5 -16.5q57 0 57 67h92q-1 -61 -44.5 -99t-104.5 -38q-62 0 -105.5 38t-43.5 99zM-5 500h152l87 -280q11 -40 16 -90q10 65 18 90l91 280h143l-176 -512q-18 -55 -39.5 -91.5t-44 -58t-56 -32t-64 -13.5t-80.5 -3v126q92 0 114 45l13 29z
" />
    <glyph glyph-name="afii10193" unicode="&#x45f;" horiz-adv-x="552" 
d="M62 500h145v-391h138v391h145v-500h-150l-14 -156h-99l-15 156h-150v500z" />
    <glyph glyph-name="afii10050" unicode="&#x490;" horiz-adv-x="562" 
d="M77 700h311l22 106h129v-230h-304v-576h-158v700z" />
    <glyph glyph-name="afii10098" unicode="&#x491;" horiz-adv-x="441" 
d="M62 500h237l18 89h119v-205h-229v-384h-145v500z" />
    <glyph glyph-name="Wgrave" unicode="&#x1e80;" horiz-adv-x="983" 
d="M12 700h167l108 -454q11 -53 14 -86q5 51 14 86l107 454h143l109 -454q8 -30 15 -86q2 32 13 86l112 454h157l-183 -700h-194l-89 373q-8 31 -12 84q-4 -53 -12 -84l-88 -373h-194zM323 865l135 15l118 -157h-91z" />
    <glyph glyph-name="wgrave" unicode="&#x1e81;" horiz-adv-x="773" 
d="M-2 500h146l74 -289q9 -35 14 -83q7 56 13 83l75 289h137l76 -289q8 -34 14 -83q7 56 13 83l74 289h141l-145 -500h-171l-58 237q-11 45 -16 98q-9 -70 -17 -98l-61 -237h-165zM224 702l150 16l102 -174h-98z" />
    <glyph glyph-name="Wacute" unicode="&#x1e82;" horiz-adv-x="983" 
d="M12 700h167l108 -454q11 -53 14 -86q5 51 14 86l107 454h143l109 -454q8 -30 15 -86q2 32 13 86l112 454h157l-183 -700h-194l-89 373q-8 31 -12 84q-4 -53 -12 -84l-88 -373h-194zM529 880l134 -15l-161 -142h-92z" />
    <glyph glyph-name="wacute" unicode="&#x1e83;" horiz-adv-x="773" 
d="M-2 500h146l74 -289q9 -35 14 -83q7 56 13 83l75 289h137l76 -289q9 -36 14 -81q7 54 13 81l74 289h141l-145 -500h-171l-58 237q-11 45 -16 98q-9 -70 -17 -98l-61 -237h-165zM407 718l150 -16l-153 -158h-100z" />
    <glyph glyph-name="Wdieresis" unicode="&#x1e84;" horiz-adv-x="983" 
d="M12 700h167l108 -454q11 -53 14 -86q5 51 14 86l107 454h143l109 -454q8 -30 15 -86q2 32 13 86l112 454h157l-183 -700h-194l-89 373q-8 31 -12 84q-4 -53 -12 -84l-88 -373h-194zM651 744h-107v105h107v-105zM437 744h-106v105h106v-105z" />
    <glyph glyph-name="wdieresis" unicode="&#x1e85;" horiz-adv-x="773" 
d="M-2 500h146l74 -289q9 -35 14 -83q7 56 13 83l75 289h137l76 -289q9 -36 14 -81q7 54 13 81l74 289h141l-145 -500h-171l-58 237q-11 45 -16 98q-9 -70 -17 -98l-61 -237h-165zM539 571h-106v109h106v-109zM341 571h-106v109h106v-109z" />
    <glyph glyph-name="Germandbls" unicode="&#x1e9e;" horiz-adv-x="734" 
d="M374 710q89 0 169 -34t126 -97l-137 -167q149 -56 149 -187q0 -96 -73 -165.5t-202 -69.5q-58 0 -90 6v125q30 -6 67 -6q59 0 92.5 28t33.5 83q0 115 -180 133l149 184q-38 40 -122 40q-49 0 -85 -20t-36 -59v-504h-158v507q0 97 81.5 150t215.5 53z" />
    <glyph glyph-name="Ygrave" unicode="&#x1ef2;" horiz-adv-x="671" 
d="M415 0h-158v297l-269 403h185l168 -269l170 269h172l-268 -403v-297zM174 865l135 15l118 -157h-91z" />
    <glyph glyph-name="ygrave" unicode="&#x1ef3;" horiz-adv-x="497" 
d="M-5 500h152l87 -280q11 -40 16 -90q10 65 18 90l91 280h143l-176 -512q-18 -55 -39.5 -91.5t-44 -58t-56 -32t-64 -13.5t-80.5 -3v126q92 0 114 45l13 29zM92 702l150 16l102 -174h-98z" />
    <glyph glyph-name="endash" unicode="&#x2013;" horiz-adv-x="628" 
d="M577 261h-525v121h525v-121z" />
    <glyph glyph-name="emdash" unicode="&#x2014;" horiz-adv-x="983" 
d="M931 261h-879v121h879v-121z" />
    <glyph glyph-name="afii00208" unicode="&#x2015;" horiz-adv-x="983" 
d="M931 261h-879v121h879v-121z" />
    <glyph glyph-name="quoteleft" unicode="&#x2018;" horiz-adv-x="244" 
d="M212 729l-42 -256h-137l94 256h85z" />
    <glyph glyph-name="quoteright" unicode="&#x2019;" horiz-adv-x="242" 
d="M32 471l43 256h136l-93 -256h-86z" />
    <glyph glyph-name="quotesinglbase" unicode="&#x201a;" horiz-adv-x="244" 
d="M32 -126l43 255h136l-93 -255h-86z" />
    <glyph glyph-name="quotedblleft" unicode="&#x201c;" horiz-adv-x="426" 
d="M211 729l-42 -256h-137l94 256h85zM393 729l-43 -256h-137l94 256h86z" />
    <glyph glyph-name="quotedblright" unicode="&#x201d;" horiz-adv-x="426" 
d="M32 471l43 256h136l-93 -256h-86zM213 471l43 256h137l-94 -256h-86z" />
    <glyph glyph-name="quotedblbase" unicode="&#x201e;" horiz-adv-x="426" 
d="M32 -126l43 255h136l-93 -255h-86zM213 -126l43 255h137l-94 -255h-86z" />
    <glyph glyph-name="dagger" unicode="&#x2020;" horiz-adv-x="469" 
d="M181 700h141l-20 -152l152 21v-141l-152 20l20 -152h-141l21 152l-152 -20v141l152 -21z" />
    <glyph glyph-name="daggerdbl" unicode="&#x2021;" horiz-adv-x="505" 
d="M181 700h141l-20 -152l152 21v-141l-152 20v-196l152 21v-141l-152 20l20 -152h-141l21 152l-152 -20v141l152 -21v196l-152 -20v141l152 -21z" />
    <glyph glyph-name="bullet" unicode="&#x2022;" horiz-adv-x="396" 
d="M198 127q-60 0 -102 42t-42 102q0 61 42 103t102 42t102 -42t42 -103q0 -60 -42 -102t-102 -42z" />
    <glyph glyph-name="ellipsis" unicode="&#x2026;" horiz-adv-x="948" 
d="M403 148h141v-148h-141v148zM697 148h141v-148h-141v148zM110 148h141v-148h-141v148z" />
    <glyph glyph-name="perthousand" unicode="&#x2030;" horiz-adv-x="1281" 
d="M218 603q-63 0 -63 -92t63 -92q64 0 64 91q0 93 -64 93zM218 710q81 0 129.5 -54.5t48.5 -144.5q0 -89 -48 -145t-128 -56q-81 0 -129.5 54.5t-48.5 144.5q0 89 48 145t128 56zM647 700h159l-555 -700h-158zM678 283q-63 0 -63 -92t63 -92q64 0 64 91q0 93 -64 93z
M678 390q81 0 129 -54.5t48 -144.5t-47.5 -145.5t-127.5 -55.5q-81 0 -129.5 54.5t-48.5 144.5q0 89 48 145t128 56zM1061 283q-63 0 -63 -92q0 -46 17 -69t46 -23q64 0 64 91q0 93 -64 93zM1061 390q81 0 129.5 -54.5t48.5 -144.5q0 -89 -48 -145t-128 -56
q-81 0 -129.5 54.5t-48.5 144.5q0 89 48 145t128 56z" />
    <glyph glyph-name="minute" unicode="&#x2032;" horiz-adv-x="214" 
d="M148 471h-80l-35 256h148z" />
    <glyph glyph-name="second" unicode="&#x2033;" horiz-adv-x="402" 
d="M148 471h-80l-35 256h148zM336 471h-80l-35 256h148z" />
    <glyph glyph-name="guilsinglleft" unicode="&#x2039;" horiz-adv-x="378" 
d="M266 509l62 -63l-148 -171l148 -172l-62 -62l-216 184v100z" />
    <glyph glyph-name="guilsinglright" unicode="&#x203a;" horiz-adv-x="378" 
d="M112 509l216 -184v-100l-216 -184l-62 62l149 172l-149 171z" />
    <glyph glyph-name="fraction" unicode="&#x2044;" horiz-adv-x="698" 
d="M143 0h-143l555 700h143z" />
    <glyph glyph-name="fraction" unicode="&#x2215;" horiz-adv-x="698" 
d="M143 0h-143l555 700h143z" />
    <glyph glyph-name="Euro" unicode="&#x20ac;" horiz-adv-x="627" 
d="M408 390h-208q-1 -13 -1 -41q0 -34 2 -50h172l-26 -77h-131q35 -101 139 -101q115 0 139 104h146q-14 -110 -86.5 -173t-196.5 -63q-113 0 -190 63t-106 170h-76l26 77h36q-2 32 -2 50q0 27 1 41h-61l26 78h48q28 111 105.5 176t192.5 65q124 0 196.5 -62.5t86.5 -172.5
h-146q-24 104 -139 104q-108 0 -141 -110h220z" />
    <glyph glyph-name="afii61352" unicode="&#x2116;" horiz-adv-x="1222" 
d="M77 700h223l182 -430q15 -39 27 -93q-5 55 -5 100v423h154v-700h-205l-197 471q-10 23 -25 91q4 -40 4 -92v-470h-158v700zM957 589q-91 0 -91 -138q0 -140 91 -140q89 0 89 140q0 138 -89 138zM957 710q105 0 170 -69t65 -190q0 -122 -65 -191.5t-170 -69.5
q-107 0 -171.5 69.5t-64.5 191.5q0 121 64.5 190t171.5 69zM1175 1h-433v116h433v-116z" />
    <glyph glyph-name="trademark" unicode="&#x2122;" horiz-adv-x="793" 
d="M34 700h448l60 -203l59 203h133v-330h-89v220l-65 -220h-77l-67 220v-220h-87v257h-117v-257h-92v257h-106v73z" />
    <glyph glyph-name="estimated" unicode="&#x212e;" horiz-adv-x="743" 
d="M389 710q150 0 231.5 -94t84.5 -266h-483q0 -104 40.5 -162.5t125.5 -58.5q60 0 93 26t46 78h161q-15 -111 -93 -177t-206 -66q-152 0 -244.5 102t-92.5 258t92.5 258t244.5 102zM382 579q-107 0 -143 -108h278q-5 49 -40 78.5t-95 29.5z" />
    <glyph glyph-name="onethird" unicode="&#x2153;" horiz-adv-x="851" 
d="M238 0h-143l555 700h143zM328 345h-254v88h76v166l-86 -53l-41 75l131 81h113v-269h61v-88zM661 362q72 0 109 -25.5t37 -70.5q0 -67 -79 -84q86 -14 86 -85q0 -49 -42 -76.5t-117 -27.5q-69 0 -111 34t-44 90h111q3 -25 14 -34.5t33 -9.5q39 0 39 34q0 20 -13.5 28.5
t-50.5 8.5v71q33 0 46 8t13 27q0 33 -35 33q-21 0 -31 -9t-12 -32h-109q1 55 44 87.5t112 32.5z" />
    <glyph glyph-name="arrowleft" unicode="&#x2190;" horiz-adv-x="716" 
d="M50 321l282 282l86 -86l-135 -135h383v-121h-384l136 -135l-86 -86z" />
    <glyph glyph-name="arrowup" unicode="&#x2191;" horiz-adv-x="664" 
d="M332 616l282 -281l-86 -86l-135 134v-383h-122v384l-135 -135l-86 86z" />
    <glyph glyph-name="arrowright" unicode="&#x2192;" horiz-adv-x="716" 
d="M385 603l281 -282l-281 -281l-86 86l134 134h-383v122h384l-135 135z" />
    <glyph glyph-name="arrowdown" unicode="&#x2193;" horiz-adv-x="664" 
d="M271 570h121v-384l136 136l86 -86l-282 -282l-282 282l86 86l135 -135v383z" />
    <glyph glyph-name="partialdiff" unicode="&#x2202;" 
d="M240 710q146 0 239 -101.5t93 -265.5q0 -170 -71.5 -261.5t-204.5 -91.5q-124 0 -192 71t-68 175q0 93 57.5 162t163.5 69q101 0 162 -75q-5 99 -58 151.5t-148 52.5zM291 356q-56 0 -81.5 -34.5t-25.5 -89.5q0 -115 104 -115q117 0 128 172q-50 67 -125 67z" />
    <glyph glyph-name="product" unicode="&#x220f;" horiz-adv-x="682" 
d="M609 0h-150v576h-236v-576h-150v700h536v-700z" />
    <glyph glyph-name="summation" unicode="&#x2211;" horiz-adv-x="604" 
d="M48 700h522v-124h-342l177 -210l-186 -242h355v-124h-535v124l186 242l-177 210v124z" />
    <glyph glyph-name="minus" unicode="&#x2212;" 
d="M561 261h-513v121h513v-121z" />
    <glyph glyph-name="radical" unicode="&#x221a;" horiz-adv-x="673" 
d="M437 0h-173l-128 379h-120v121h226l111 -345l184 545h136z" />
    <glyph glyph-name="infinity" unicode="&#x221e;" horiz-adv-x="796" 
d="M556 445q-30 0 -51.5 -19.5t-41.5 -54.5q21 -56 43 -85t58 -29q68 0 68 94t-76 94zM244 593q110 0 173 -121q64 121 158 121q80 0 125.5 -62.5t45.5 -179.5q0 -115 -55.5 -180t-137.5 -65q-62 0 -102.5 33t-71.5 91q-65 -124 -158 -124q-80 0 -125.5 62.5t-45.5 179.5
q0 115 55.5 180t138.5 65zM232 442q-68 0 -68 -94q0 -93 76 -93q51 0 93 73q-21 56 -43 85t-58 29z" />
    <glyph glyph-name="integral" unicode="&#x222b;" horiz-adv-x="606" 
d="M232 -31v559q0 96 61.5 143t177.5 33v-126q-46 9 -73.5 -4.5t-27.5 -51.5v-553q0 -96 -61.5 -143.5t-176.5 -32.5v125q100 -19 100 51z" />
    <glyph glyph-name="approxequal" unicode="&#x2248;" horiz-adv-x="593" 
d="M207 549q42 0 80 -17.5t67 -34.5t49 -17q45 0 58 54l89 -50q-13 -67 -53.5 -100.5t-95.5 -33.5q-48 0 -106.5 34.5t-89.5 34.5q-23 0 -37 -12.5t-21 -42.5l-88 50q12 67 52.5 101t95.5 34zM207 285q42 0 80 -17.5t67 -34.5t49 -17q45 0 58 54l89 -50
q-13 -67 -53.5 -100.5t-95.5 -33.5q-48 0 -106.5 34.5t-89.5 34.5q-23 0 -37 -12.5t-21 -42.5l-88 50q12 67 52.5 101t95.5 34z" />
    <glyph glyph-name="notequal" unicode="&#x2260;" 
d="M561 138h-283l-52 -102h-128l52 102h-102v121h165l65 126h-230v121h292l49 94h128l-49 -94h93v-121h-155l-65 -126h220v-121z" />
    <glyph glyph-name="lessequal" unicode="&#x2264;" 
d="M544 618l-317 -171l317 -170l-58 -107l-417 230v94l417 230zM561 9h-513v121h513v-121z" />
    <glyph glyph-name="greaterequal" unicode="&#x2265;" horiz-adv-x="593" 
d="M69 277l318 170l-318 171l58 106l417 -230v-94l-417 -230zM561 9h-513v121h513v-121z" />
    <glyph glyph-name="lozenge" unicode="&#x25ca;" horiz-adv-x="497" 
d="M488 245l-154 -456h-173l-152 455l154 456h173zM149 257l101 -313l98 287l-101 314z" />
    <glyph glyph-name="dotlessj" unicode="&#xf6be;" horiz-adv-x="263" 
d="M62 500h137v-511q0 -95 -65 -147t-151 -52v114q40 0 59.5 20.5t19.5 73.5v502z" />
    <glyph glyph-name="commaaccent" unicode="&#xf6c3;" horiz-adv-x="247" 
d="M72 -38h125v-68q0 -96 -119 -148l-19 49q65 19 65 75h-52v92z" />
    <glyph glyph-name="g.ss01" horiz-adv-x="555" 
d="M272 510q46 0 139 -5t140 -5v-111q-43 0 -64 1v-64q0 -80 -57 -129t-164 -49q-36 0 -67 7q-17 -12 -17 -30q0 -29 43 -29h138q166 0 166 -137q0 -169 -256 -169q-123 0 -176.5 29t-53.5 88q0 35 20.5 63t53.5 43q-33 11 -48 27.5t-15 48.5q0 30 19 59t47 42
q-67 49 -67 135q0 84 57 134.5t162 50.5zM271 247q77 0 77 79v71q-54 2 -79 2q-69 0 -69 -77q0 -75 71 -75zM326 0h-94q-4 0 -12.5 0.5t-11.5 0.5q-25 -20 -25 -48q0 -30 21.5 -44t72.5 -14q58 0 81 16.5t23 46.5q0 42 -55 42z" />
    <glyph glyph-name="g.ss02" horiz-adv-x="572" 
d="M239 510q97 0 132 -93v83h145v-509q0 -104 -62.5 -152.5t-187.5 -48.5q-106 0 -167 45.5t-62 135.5h156q2 -32 22.5 -50t56.5 -18q49 0 74 20t25 68v97q-40 -89 -143 -89q-91 0 -144.5 67.5t-53.5 184.5q0 114 53 186.5t156 72.5zM270 387q-91 0 -91 -136q0 -134 93 -134
q99 0 99 132q0 138 -101 138z" />
    <glyph glyph-name="g.ss03" horiz-adv-x="568" 
d="M258 508q136 0 254 -7v-513q0 -105 -61 -151.5t-188 -46.5q-104 0 -165.5 47t-62.5 132h156q1 -31 22 -49.5t59 -18.5q51 0 73 19t22 68v100q-21 -45 -53 -67.5t-87 -22.5q-90 0 -143.5 69.5t-53.5 186.5q0 111 61 182.5t167 71.5zM279 394q-97 0 -97 -140
q0 -136 91 -136q94 0 94 134v137q-48 5 -88 5z" />
    <glyph glyph-name="zero.fitted" horiz-adv-x="637" 
d="M317 568q-61 0 -87 -54.5t-26 -163.5t26 -163.5t87 -54.5q62 0 88 54.5t26 163.5t-26 163.5t-88 54.5zM317 710q120 0 197 -91t77 -269t-77 -269t-197 -91q-119 0 -196 91t-77 269t77 269t196 91z" />
    <glyph glyph-name="one.fitted" horiz-adv-x="475" 
d="M376 0h-150v556l-137 -82l-61 109l198 117h150v-700z" />
    <glyph glyph-name="two.fitted" horiz-adv-x="582" 
d="M544 0h-502v119q139 91 216 157t104 112t27 95q0 99 -98 99q-57 0 -82.5 -24.5t-30.5 -81.5h-138q2 110 75 172t186 62q117 0 181 -60t64 -155q0 -100 -72 -180.5t-247 -190.5h317v-124z" />
    <glyph glyph-name="three.fitted" horiz-adv-x="603" 
d="M246 302v112q84 0 114.5 23t30.5 72q0 42 -22 63t-76 21q-56 0 -81 -22t-31 -74h-140q3 99 76 156t184 57q116 0 182.5 -51t66.5 -133q0 -143 -168 -167q178 -14 178 -164q0 -93 -74 -149t-193 -56q-110 0 -183 58t-75 156h142q7 -52 34.5 -74.5t85.5 -22.5q51 0 78.5 25
t27.5 68q0 53 -33 77.5t-124 24.5z" />
    <glyph glyph-name="four.fitted" horiz-adv-x="601" 
d="M484 0h-151v174h-302v123l271 403h182v-403h94v-123h-94v-174zM333 297v252l-170 -252h170z" />
    <glyph glyph-name="five.fitted" horiz-adv-x="595" 
d="M83 700h427v-124h-300l-7 -126q66 10 109 10q106 0 177 -59.5t71 -163.5q0 -111 -77 -179t-197 -68q-111 0 -178 56t-69 159h135q5 -53 32 -76t85 -23q52 0 82.5 32t30.5 87q0 59 -32.5 88.5t-106.5 29.5q-116 0 -208 -16z" />
    <glyph glyph-name="six.fitted" horiz-adv-x="627" 
d="M339 710q100 0 168 -58t70 -144h-139q-14 87 -101 87q-129 0 -138 -206q59 71 161 71q107 0 164 -63t57 -153q0 -103 -68 -178.5t-191 -75.5q-132 0 -204.5 92t-72.5 259q0 168 77.5 268.5t216.5 100.5zM201 288q11 -171 128 -171q52 0 78 31t26 85q0 116 -107 116
q-76 0 -125 -61z" />
    <glyph glyph-name="seven.fitted" horiz-adv-x="529" 
d="M274 0h-165l253 576h-345v124h497v-124z" />
    <glyph glyph-name="eight.fitted" horiz-adv-x="606" 
d="M303 588q-49 0 -72.5 -23t-23.5 -61q0 -90 96 -90t96 90q0 38 -23.5 61t-72.5 23zM303 303q-111 0 -111 -94q0 -44 27.5 -69t83.5 -25q55 0 83.5 25.5t28.5 68.5q0 94 -112 94zM303 710q117 0 181 -53.5t64 -136.5q0 -61 -37.5 -103t-105.5 -54q71 -7 114 -55.5
t43 -121.5q0 -92 -66 -144t-193 -52t-193 52t-66 144q0 72 43 119t115 54q-66 14 -105 57.5t-39 104.5q0 83 63.5 136t181.5 53z" />
    <glyph glyph-name="nine.fitted" horiz-adv-x="627" 
d="M305 710q132 0 204 -92t72 -259q0 -168 -77.5 -268.5t-216.5 -100.5q-103 0 -169.5 54t-68.5 149h137q4 -44 31.5 -66t71.5 -22q128 0 139 206q-61 -71 -162 -71q-107 0 -164 63t-57 153q0 103 68.5 178.5t191.5 75.5zM297 583q-52 0 -78 -31t-26 -85q0 -52 25.5 -84
t81.5 -32q76 0 125 61q-11 171 -128 171z" />
    <glyph glyph-name="zero.slash" 
d="M304 710q120 0 197 -91t77 -269t-77 -269t-197 -91q-119 0 -196 91t-77 269t77 269t196 91zM304 132q27 0 47 10l-153 312q-7 -41 -7 -104q0 -109 26 -163.5t87 -54.5zM304 568q-24 0 -46 -10l152 -311q8 46 8 103q0 109 -26 163.5t-88 54.5z" />
    <glyph glyph-name="zero.tab" 
d="M304 568q-61 0 -87 -54.5t-26 -163.5t26 -163.5t87 -54.5q62 0 88 54.5t26 163.5t-26 163.5t-88 54.5zM304 710q120 0 197 -91t77 -269t-77 -269t-197 -91q-119 0 -196 91t-77 269t77 269t196 91z" />
    <glyph glyph-name="one.tab" 
d="M543 0h-389v124h131v432l-146 -89l-61 109l207 124h150v-576h108v-124z" />
    <glyph glyph-name="two.tab" 
d="M556 0h-502v119q139 91 216 157t104 112t27 95q0 99 -98 99q-57 0 -82.5 -24.5t-30.5 -81.5h-138q2 110 75 172t186 62q117 0 181 -60t64 -155q0 -100 -72 -180.5t-247 -190.5h317v-124z" />
    <glyph glyph-name="three.tab" 
d="M253 302v112q84 0 114.5 23t30.5 72q0 42 -22 63t-76 21q-56 0 -81 -22t-31 -74h-140q3 99 76 156t184 57q116 0 182.5 -51t66.5 -133q0 -143 -168 -167q178 -14 178 -164q0 -93 -74 -149t-193 -56q-110 0 -183 58t-75 156h142q7 -52 34.5 -74.5t85.5 -22.5q51 0 78.5 25
t27.5 68q0 53 -33 77.5t-124 24.5z" />
    <glyph glyph-name="four.tab" 
d="M485 0h-151v174h-302v123l271 403h182v-403h94v-123h-94v-174zM334 297v252l-170 -252h170z" />
    <glyph glyph-name="five.tab" 
d="M90 700h427v-124h-300l-7 -126q66 10 109 10q106 0 177 -59.5t71 -163.5q0 -111 -77 -179t-197 -68q-111 0 -178 56t-69 159h135q5 -53 32 -76t85 -23q52 0 82.5 32t30.5 87q0 59 -32.5 88.5t-106.5 29.5q-116 0 -208 -16z" />
    <glyph glyph-name="six.tab" 
d="M330 710q100 0 168 -58t70 -144h-139q-15 87 -101 87q-129 0 -138 -206q59 71 161 71q107 0 164 -63t57 -153q0 -103 -68 -178.5t-191 -75.5q-132 0 -204.5 92t-72.5 259q0 168 77.5 268.5t216.5 100.5zM192 288q11 -171 128 -171q52 0 78 31t26 85q0 116 -107 116
q-76 0 -125 -61z" />
    <glyph glyph-name="seven.tab" 
d="M313 0h-165l253 576h-345v124h497v-124z" />
    <glyph glyph-name="eight.tab" 
d="M304 588q-49 0 -72.5 -23t-23.5 -61q0 -90 96 -90t96 90q0 38 -23.5 61t-72.5 23zM304 303q-111 0 -111 -94q0 -44 27.5 -69t83.5 -25q55 0 83.5 25.5t28.5 68.5q0 94 -112 94zM304 710q117 0 181 -53.5t64 -136.5q0 -61 -37.5 -103t-105.5 -54q71 -7 114 -55.5
t43 -121.5q0 -92 -66 -144t-193 -52t-193 52t-66 144q0 72 43 119t115 54q-66 14 -105 57.5t-39 104.5q0 83 63.5 136t181.5 53z" />
    <glyph glyph-name="nine.tab" 
d="M296 710q132 0 204 -92t72 -259q0 -168 -77.5 -268.5t-216.5 -100.5q-103 0 -169.5 54t-68.5 149h137q4 -44 31.5 -66t71.5 -22q128 0 139 206q-61 -71 -162 -71q-107 0 -164 63t-57 153q0 103 68.5 178.5t191.5 75.5zM288 583q-52 0 -78 -31t-26 -85q0 -52 25.5 -84
t81.5 -32q76 0 125 61q-11 171 -128 171z" />
    <glyph glyph-name="dollar.tab" 
d="M345 -88h-84v80q-108 9 -170.5 70.5t-66.5 155.5h147q8 -85 90 -101v176q-40 7 -66.5 14t-60.5 21.5t-54 34t-34 52t-14 75.5q0 86 60 146t169 71v74h84v-73q105 -9 166 -69t70 -154h-147q-10 82 -89 95v-165q35 -6 57.5 -11.5t54 -15t51.5 -23t39 -32.5t28.5 -46.5
t9.5 -62.5q0 -94 -64 -157t-176 -74v-81zM435 199q0 31 -23 48.5t-67 28.5v-160q90 13 90 83zM178 502q0 -27 21 -43t62 -27v149q-83 -11 -83 -79z" />
    <glyph glyph-name="cent.tab" 
d="M272 694h71v-79q80 -8 131.5 -59.5t61.5 -137.5h-134q-12 65 -59 75v-271q22 5 37.5 27t21.5 49h134q-10 -87 -61 -139t-132 -60v-90h-71v91q-96 12 -147.5 79t-51.5 179q0 109 53.5 176.5t145.5 79.5v80zM206 358q0 -53 17 -89.5t49 -45.5v270q-66 -17 -66 -135z" />
    <glyph glyph-name="sterling.tab" 
d="M425 282h-180q5 -93 -41 -170h340v-112h-486v112q51 82 37 170h-72v78h53q-18 72 -18 118q0 97 71 164.5t199 67.5q113 0 179 -57t78 -153h-147q-8 43 -33 63.5t-80 20.5q-58 0 -81.5 -28t-23.5 -68q0 -42 15 -128h190v-78z" />
    <glyph glyph-name="yen.tab" 
d="M546 292h-162v-83h96v-78h-96v-131h-158v131h-96v78h96v83h-162v79h117l-201 329h184l147 -261l147 261h171l-200 -329h117v-79z" />
    <glyph glyph-name="florin.tab" 
d="M419 708q34 0 79 -8v-120q-42 10 -62 10q-63 0 -63 -60v-30h125v-111h-125v-419q0 -90 -50 -135.5t-134 -45.5q-37 0 -78 9v119q35 -9 60 -9q64 0 64 62v419h-69v111h69v28q0 90 49.5 135t134.5 45z" />
    <glyph glyph-name="Euro.tab" 
d="M400 390h-208q-1 -13 -1 -41q0 -34 2 -50h172l-26 -77h-131q35 -101 139 -101q115 0 139 104h146q-14 -110 -87 -173t-196 -63q-113 0 -190 63t-106 170h-76l25 77h37q-2 32 -2 50q0 27 1 41h-61l25 78h49q28 111 105.5 176t192.5 65q123 0 196 -62.5t87 -172.5h-146
q-24 104 -139 104q-108 0 -141 -110h220z" />
    <glyph glyph-name="numbersign.tab" 
d="M238 0h-134v174h-93v106h93v139h-93v106h93v175h134v-175h133v175h135v-175h92v-106h-92v-139h92v-106h-92v-174h-135v174h-133v-174zM238 419v-139h133v139h-133z" />
    <glyph glyph-name="zero.oldstyle" horiz-adv-x="535" 
d="M269 391q-92 0 -92 -141t92 -141q90 0 90 141t-90 141zM269 510q99 0 164.5 -66t65.5 -196t-65 -194t-165 -64q-101 0 -166.5 64t-65.5 194t65.5 196t166.5 66z" />
    <glyph glyph-name="one.oldstyle" horiz-adv-x="425" 
d="M207 500h140v-500h-146v370l-124 -77l-54 95z" />
    <glyph glyph-name="two.oldstyle" horiz-adv-x="571" 
d="M286 510q108 0 165.5 -50t57.5 -122q0 -68 -59.5 -121t-177.5 -105h242v-112h-457v109q164 73 229 121t65 98q0 69 -69 69q-40 0 -58 -17t-23 -57h-144q7 85 67 136t162 51z" />
    <glyph glyph-name="three.oldstyle" horiz-adv-x="572" 
d="M60 500h440v-123l-169 -156q100 -7 151.5 -59t51.5 -130q0 -97 -69 -160t-188 -63q-105 0 -170.5 58t-78.5 161h144q6 -53 29.5 -76.5t75.5 -23.5q49 0 74.5 26.5t25.5 71.5q0 59 -40 82t-150 23v104l148 141h-275v124z" />
    <glyph glyph-name="four.oldstyle" horiz-adv-x="567" 
d="M451 -183h-138v183h-279v124l240 376h177v-377h87v-123h-87v-183zM313 123v254l-158 -254h158z" />
    <glyph glyph-name="five.oldstyle" horiz-adv-x="551" 
d="M81 500h393v-124h-263l-9 -120q59 9 101 9q102 0 158 -54t56 -160q0 -111 -70.5 -177t-182.5 -66q-100 0 -158.5 55t-70.5 157h137q4 -53 25.5 -75.5t71.5 -22.5q44 0 67.5 31t23.5 86q0 60 -25 87t-86 27q-102 0 -194 -16z" />
    <glyph glyph-name="six.oldstyle" horiz-adv-x="581" 
d="M312 710q98 0 155.5 -52.5t72.5 -149.5h-137q-15 88 -93 88q-63 0 -93.5 -51.5t-35.5 -154.5q60 70 152 70q105 0 158 -62t53 -153q0 -105 -64 -180t-185 -75q-125 0 -192 92t-67 259q0 169 71.5 269t204.5 100zM299 349q-67 0 -115 -60q4 -84 31.5 -128.5t87.5 -44.5
q93 0 93 117q0 55 -21.5 85.5t-75.5 30.5z" />
    <glyph glyph-name="seven.oldstyle" horiz-adv-x="493" 
d="M256 -183h-163l240 560h-317v123h462v-123z" />
    <glyph glyph-name="eight.oldstyle" horiz-adv-x="571" 
d="M285 710q111 0 172.5 -50t61.5 -131q0 -50 -33 -89t-85 -64q134 -50 134 -176q0 -93 -65.5 -151.5t-182.5 -58.5q-122 0 -185.5 46.5t-63.5 137.5q0 57 40 103t100 71q-127 53 -127 164q0 83 62.5 140.5t171.5 57.5zM262 301q-81 -45 -81 -108q0 -42 27.5 -67.5
t81.5 -25.5q104 0 104 87q0 71 -132 114zM287 602q-47 0 -71 -23.5t-24 -58.5t30.5 -57t87.5 -41q70 40 70 96q0 37 -23.5 60.5t-69.5 23.5z" />
    <glyph glyph-name="nine.oldstyle" horiz-adv-x="581" 
d="M281 510q126 0 194.5 -88t68.5 -253q0 -167 -73 -263t-207 -96q-93 0 -151 53.5t-73 149.5h137q5 -46 26.5 -67.5t62.5 -21.5q65 0 92.5 45t32.5 148q-55 -66 -144 -66q-105 0 -158 61.5t-53 151.5q0 103 63 174.5t182 71.5zM279 384q-92 0 -92 -109q0 -54 20 -83.5
t72 -29.5q68 0 112 56q-2 84 -27.5 125t-84.5 41z" />
    <glyph glyph-name="zero.taboldstyle" horiz-adv-x="575" 
d="M288 391q-92 0 -92 -141t92 -141q90 0 90 141t-90 141zM288 510q99 0 164.5 -66t65.5 -196t-65 -194t-165 -64q-101 0 -166.5 64t-65.5 194t66 196t166 66z" />
    <glyph glyph-name="one.taboldstyle" horiz-adv-x="575" 
d="M257 500h140v-377h101v-123h-370v123h124v248l-124 -77l-54 94z" />
    <glyph glyph-name="two.taboldstyle" horiz-adv-x="575" 
d="M288 510q108 0 165.5 -50t57.5 -122q0 -68 -59.5 -121t-177.5 -105h242v-112h-457v109q164 73 229 121t65 98q0 69 -69 69q-40 0 -58 -17t-23 -57h-144q7 85 67 136t162 51z" />
    <glyph glyph-name="three.taboldstyle" horiz-adv-x="575" 
d="M58 500h440v-123l-169 -156q100 -7 151.5 -59t51.5 -130q0 -97 -69 -160t-188 -63q-105 0 -170.5 58t-78.5 161h144q6 -53 29.5 -76.5t75.5 -23.5q49 0 74.5 26.5t25.5 71.5q0 59 -40 82t-150 23v104l148 141h-275v124z" />
    <glyph glyph-name="four.taboldstyle" horiz-adv-x="575" 
d="M452 -183h-138v183h-279v124l240 376h177v-377h87v-123h-87v-183zM314 123v254l-158 -254h158z" />
    <glyph glyph-name="five.taboldstyle" horiz-adv-x="575" 
d="M92 500h393v-124h-263l-9 -120q59 9 101 9q102 0 158 -54t56 -160q0 -111 -70.5 -177t-182.5 -66q-100 0 -158.5 55t-70.5 157h137q4 -53 25.5 -75.5t71.5 -22.5q44 0 67.5 31t23.5 86q0 60 -25 87t-86 27q-102 0 -194 -16z" />
    <glyph glyph-name="six.taboldstyle" horiz-adv-x="575" 
d="M310 710q98 0 155.5 -52.5t72.5 -149.5h-137q-15 88 -93 88q-63 0 -93.5 -51.5t-35.5 -154.5q60 70 152 70q105 0 158 -62t53 -153q0 -105 -64 -180t-185 -75q-125 0 -192 92t-67 259q0 169 71.5 269t204.5 100zM297 349q-67 0 -115 -60q4 -84 31.5 -128.5t87.5 -44.5
q93 0 93 117q0 55 -21.5 85.5t-75.5 30.5z" />
    <glyph glyph-name="seven.taboldstyle" horiz-adv-x="575" 
d="M298 -183h-163l240 560h-317v123h462v-123z" />
    <glyph glyph-name="eight.taboldstyle" horiz-adv-x="575" 
d="M286 710q111 0 172.5 -50t61.5 -131q0 -50 -33 -89t-85 -64q134 -50 134 -176q0 -93 -65.5 -151.5t-182.5 -58.5q-122 0 -185.5 46.5t-63.5 137.5q0 57 40 103t100 71q-127 53 -127 164q0 83 62.5 140.5t171.5 57.5zM263 301q-81 -45 -81 -108q0 -42 27.5 -67.5
t81.5 -25.5q104 0 104 87q0 71 -132 114zM288 602q-47 0 -71 -23.5t-24 -58.5t30.5 -57t87.5 -41q70 40 70 96q0 37 -23.5 60.5t-69.5 23.5z" />
    <glyph glyph-name="nine.taboldstyle" horiz-adv-x="575" 
d="M278 510q126 0 194.5 -88t68.5 -253q0 -167 -73 -263t-207 -96q-93 0 -151 53.5t-73 149.5h137q5 -46 26.5 -67.5t62.5 -21.5q65 0 92.5 45t32.5 148q-55 -66 -144 -66q-105 0 -158 61.5t-53 151.5q0 103 63 174.5t182 71.5zM276 384q-92 0 -92 -109q0 -54 20 -83.5
t72 -29.5q68 0 112 56q-2 84 -27.5 125t-84.5 41z" />
    <glyph glyph-name="zero.small" horiz-adv-x="505" 
d="M253 393q-41 0 -58 -34.5t-17 -108.5t17 -108.5t58 -34.5q40 0 57 34.5t17 108.5q0 73 -17 108t-57 35zM253 510q95 0 156.5 -65.5t61.5 -196.5q0 -130 -61 -194t-157 -64t-157.5 64t-61.5 194q0 131 61.5 196.5t157.5 65.5z" />
    <glyph glyph-name="one.small" horiz-adv-x="382" 
d="M8 393l180 109h139v-502h-145v370l-120 -75z" />
    <glyph glyph-name="two.small" horiz-adv-x="477" 
d="M167 323h-131q7 85 60 136t146 51q101 0 151.5 -42.5t50.5 -113.5t-48 -126t-164 -116h210v-112h-402v104q152 80 204 130.5t52 100.5q0 62 -62 62q-32 0 -47 -17t-20 -57z" />
    <glyph glyph-name="three.small" horiz-adv-x="509" 
d="M260 510q96 0 151.5 -36t55.5 -99q0 -96 -115 -119q123 -17 123 -120q0 -69 -61.5 -107.5t-160.5 -38.5q-90 0 -152 47t-67 123h148q6 -35 23.5 -50.5t50.5 -15.5q64 0 64 54q0 32 -21.5 45.5t-81.5 13.5v93q54 0 73.5 12.5t19.5 42.5q0 51 -57 51q-31 0 -46 -14.5
t-20 -47.5h-146q5 76 67 121t152 45z" />
    <glyph glyph-name="four.small" horiz-adv-x="498" 
d="M237 500h165v-284h74v-102h-74v-114h-145v114h-233v106zM257 359l-106 -143h106v143z" />
    <glyph glyph-name="five.small" horiz-adv-x="512" 
d="M85 500h352v-111h-222l-5 -65q35 5 68 5q93 0 146.5 -39t53.5 -122q0 -79 -63.5 -128.5t-162.5 -49.5q-185 0 -204 166h144q4 -37 19 -53t48 -16q61 0 61 72q0 39 -18.5 57t-58.5 18q-98 0 -176 -12z" />
    <glyph glyph-name="six.small" horiz-adv-x="530" 
d="M283 510q83 0 140.5 -40.5t70.5 -111.5h-150q-7 53 -65 53q-80 0 -83 -107q52 29 115 29q88 0 135.5 -41.5t47.5 -116.5q0 -76 -58 -130.5t-165 -54.5q-109 0 -173 67t-64 187t67.5 193t181.5 73zM272 240q-43 0 -78 -33q5 -111 78 -111q69 0 69 74q0 70 -69 70z" />
    <glyph glyph-name="seven.small" horiz-adv-x="431" 
d="M16 500h399v-108l-182 -392h-160l189 389h-246v111z" />
    <glyph glyph-name="eight.small" horiz-adv-x="512" 
d="M257 417q-64 0 -64 -57q0 -58 64 -58q62 0 62 58q0 57 -62 57zM257 212q-75 0 -75 -63t75 -63q73 0 73 63t-73 63zM257 510q101 0 155 -37.5t54 -99.5q0 -92 -106 -115q57 -8 87.5 -41t30.5 -84q0 -68 -57 -105.5t-164 -37.5q-109 0 -166 37.5t-57 105.5q0 49 32.5 82.5
t86.5 42.5q-54 12 -81 42.5t-27 72.5q0 62 54.5 99.5t157.5 37.5z" />
    <glyph glyph-name="nine.small" horiz-adv-x="530" 
d="M259 510q109 0 172.5 -67t63.5 -187t-67 -193t-182 -73q-83 0 -140 41t-70 111h148q11 -54 66 -54q85 0 86 105q-48 -27 -117 -27q-89 0 -136.5 42t-47.5 117q0 76 58.5 130.5t165.5 54.5zM261 404q-65 0 -65 -73q0 -69 63 -69q46 0 79 30q0 50 -19 81t-58 31z" />
    <glyph glyph-name="zerosmall.tab" horiz-adv-x="528" 
d="M264 393q-41 0 -58 -34.5t-17 -108.5t17 -108.5t58 -34.5q40 0 57 34.5t17 108.5q0 73 -17 108t-57 35zM264 510q95 0 156.5 -65.5t61.5 -196.5q0 -130 -61 -194t-157 -64t-157.5 64t-61.5 194q0 131 61.5 196.5t157.5 65.5z" />
    <glyph glyph-name="onesmall.tab" horiz-adv-x="528" 
d="M471 0h-354v123h111v250l-122 -75l-53 94l181 110h140v-379h97v-123z" />
    <glyph glyph-name="twosmall.tab" horiz-adv-x="528" 
d="M193 323h-131q7 85 60 136t146 51q101 0 151.5 -42.5t50.5 -113.5t-48 -126t-164 -116h210v-112h-402v104q152 80 204 130.5t52 100.5q0 62 -62 62q-32 0 -47 -17t-20 -57z" />
    <glyph glyph-name="threesmall.tab" horiz-adv-x="528" 
d="M268 510q96 0 151.5 -36t55.5 -99q0 -96 -115 -119q123 -17 123 -120q0 -69 -61.5 -107.5t-160.5 -38.5q-90 0 -152 47t-67 123h148q6 -35 23.5 -50.5t50.5 -15.5q64 0 64 54q0 32 -21.5 45.5t-81.5 13.5v93q54 0 73.5 12.5t19.5 42.5q0 51 -57 51q-31 0 -46 -14.5
t-20 -47.5h-146q5 76 67 121t152 45z" />
    <glyph glyph-name="foursmall.tab" horiz-adv-x="528" 
d="M250 500h165v-284h74v-102h-74v-114h-145v114h-233v106zM270 359l-106 -143h106v143z" />
    <glyph glyph-name="fivesmall.tab" horiz-adv-x="528" 
d="M86 500h352v-111h-222l-5 -65q35 5 68 5q93 0 146.5 -39t53.5 -122q0 -79 -63.5 -128.5t-162.5 -49.5q-185 0 -204 166h144q4 -37 19 -53t48 -16q61 0 61 72q0 39 -18.5 57t-58.5 18q-98 0 -176 -12z" />
    <glyph glyph-name="sixsmall.tab" horiz-adv-x="528" 
d="M283 510q83 0 140.5 -40.5t70.5 -111.5h-150q-7 53 -65 53q-80 0 -83 -107q52 29 115 29q88 0 135.5 -41.5t47.5 -116.5q0 -76 -58 -130.5t-165 -54.5q-109 0 -173 67t-64 187t67.5 193t181.5 73zM272 240q-43 0 -78 -33q5 -111 78 -111q69 0 69 74q0 70 -69 70z" />
    <glyph glyph-name="sevensmall.tab" horiz-adv-x="528" 
d="M64 500h399v-108l-182 -392h-160l189 389h-246v111z" />
    <glyph glyph-name="eightsmall.tab" horiz-adv-x="528" 
d="M264 417q-64 0 -64 -57q0 -58 64 -58q62 0 62 58q0 57 -62 57zM264 212q-75 0 -75 -63t75 -63q73 0 73 63t-73 63zM264 510q101 0 155 -37.5t54 -99.5q0 -92 -106 -115q57 -8 87.5 -41t30.5 -84q0 -68 -57 -105.5t-164 -37.5q-109 0 -166 37.5t-57 105.5q0 49 32.5 82.5
t86.5 42.5q-54 12 -81 42.5t-27 72.5q0 62 54.5 99.5t157.5 37.5z" />
    <glyph glyph-name="ninesmall.tab" horiz-adv-x="528" 
d="M259 510q109 0 172.5 -67t63.5 -187t-67 -193t-182 -73q-83 0 -140 41t-70 111h148q11 -54 66 -54q85 0 86 105q-48 -27 -117 -27q-89 0 -136.5 42t-47.5 117q0 76 58.5 130.5t165.5 54.5zM261 404q-65 0 -65 -73q0 -69 63 -69q46 0 79 30q0 50 -19 81t-58 31z" />
    <glyph glyph-name="zero.superior" horiz-adv-x="387" 
d="M194 670q-29 0 -41 -21.5t-12 -70.5t12 -71t41 -22q28 0 40 22t12 71q0 48 -12 70t-40 22zM194 762q74 0 119.5 -46t45.5 -140q0 -93 -45.5 -138t-119.5 -45q-75 0 -120.5 45t-45.5 138q0 94 46 140t120 46z" />
    <glyph glyph-name="one.superior" horiz-adv-x="387" 
d="M338 400h-254v88h76v166l-86 -53l-41 75l131 81h113v-269h61v-88z" />
    <glyph glyph-name="two.superior" horiz-adv-x="387" 
d="M204 762q72 0 110.5 -31t38.5 -80q0 -46 -31.5 -83.5t-111.5 -79.5h143v-88h-317v75q109 57 150 92t41 64q0 40 -38 40q-42 0 -48 -50h-107q4 64 48.5 102.5t121.5 38.5z" />
    <glyph glyph-name="three.superior" horiz-adv-x="387" 
d="M197 762q72 0 109 -25.5t37 -70.5q0 -67 -79 -84q86 -14 86 -85q0 -49 -42 -76.5t-117 -27.5q-69 0 -111 34t-44 90h111q3 -25 14 -34.5t33 -9.5q39 0 39 34q0 20 -13.5 28.5t-50.5 8.5v71q33 0 46 8t13 27q0 33 -35 33q-21 0 -31 -9t-12 -32h-109q1 55 44 87.5t112 32.5
z" />
    <glyph glyph-name="four.superior" horiz-adv-x="387" 
d="M176 755h128v-195h52v-87h-52v-73h-109v73h-171v82zM195 659l-74 -99h74v99z" />
    <glyph glyph-name="five.superior" horiz-adv-x="387" 
d="M68 755h250v-83h-163l-3 -39q20 4 48 4q146 0 146 -117q0 -57 -45 -92t-115 -35q-69 0 -105.5 33.5t-39.5 88.5h103q3 -40 45 -40q45 0 45 44t-54 44q-56 0 -126 -8z" />
    <glyph glyph-name="six.superior" horiz-adv-x="387" 
d="M356 649h-103q-8 34 -50 34q-62 0 -66 -75q45 26 100 26t87.5 -28.5t32.5 -80.5q0 -59 -40.5 -95.5t-118.5 -36.5q-79 0 -123.5 45.5t-44.5 134.5q0 90 46.5 139.5t130.5 49.5q139 0 149 -113zM198 560q-33 0 -54 -21q5 -60 54 -60q46 0 46 40q0 41 -46 41z" />
    <glyph glyph-name="seven.superior" horiz-adv-x="387" 
d="M45 755h299v-77l-128 -278h-130l134 265h-175v90z" />
    <glyph glyph-name="eight.superior" horiz-adv-x="387" 
d="M194 689q-43 0 -43 -34q0 -39 43 -39q41 0 41 39q0 34 -41 34zM194 546q-50 0 -50 -40q0 -38 50 -38q48 0 48 38q0 40 -48 40zM194 762q70 0 109.5 -27.5t39.5 -70.5q0 -65 -75 -80q84 -11 84 -89q0 -48 -41 -75t-117 -27q-78 0 -118.5 26.5t-40.5 75.5q0 35 21.5 58
t62.5 29q-77 18 -77 82q0 44 39.5 71t112.5 27z" />
    <glyph glyph-name="nine.superior" horiz-adv-x="387" 
d="M190 762q80 0 123.5 -45t43.5 -135q0 -89 -47 -139t-129 -50q-65 0 -105 28.5t-44 79.5h103q8 -35 49 -35q59 0 63 78q-41 -26 -85 -26q-63 0 -97 29.5t-34 82.5q0 55 40 93.5t119 38.5zM191 677q-46 0 -46 -44t46 -44q29 0 53 24q-6 64 -53 64z" />
    <glyph glyph-name="zero.inferior" horiz-adv-x="387" 
d="M194 150q-29 0 -41 -21.5t-12 -70.5t12 -71t41 -22q28 0 40 22t12 71q0 48 -12 70t-40 22zM194 242q74 0 119.5 -46t45.5 -140q0 -93 -45.5 -138t-119.5 -45q-75 0 -120.5 45t-45.5 138q0 94 46 140t120 46z" />
    <glyph glyph-name="one.inferior" horiz-adv-x="387" 
d="M338 -120h-254v88h76v166l-86 -53l-41 75l131 81h113v-269h61v-88z" />
    <glyph glyph-name="two.inferior" horiz-adv-x="387" 
d="M204 242q72 0 110.5 -31t38.5 -80q0 -46 -31.5 -83.5t-111.5 -79.5h143v-88h-317v75q109 57 150 92t41 64q0 40 -38 40q-42 0 -48 -50h-107q4 64 48.5 102.5t121.5 38.5z" />
    <glyph glyph-name="three.inferior" horiz-adv-x="387" 
d="M197 242q72 0 109 -25.5t37 -70.5q0 -67 -79 -84q86 -14 86 -85q0 -49 -42 -76.5t-117 -27.5q-69 0 -111 34t-44 90h111q3 -25 14 -34.5t33 -9.5q39 0 39 34q0 20 -13.5 28.5t-50.5 8.5v71q33 0 46 8t13 27q0 33 -35 33q-21 0 -31 -9t-12 -32h-109q1 55 44 87.5t112 32.5
z" />
    <glyph glyph-name="four.inferior" horiz-adv-x="387" 
d="M176 235h128v-195h52v-87h-52v-73h-109v73h-171v82zM195 139l-74 -99h74v99z" />
    <glyph glyph-name="five.inferior" horiz-adv-x="387" 
d="M68 235h250v-83h-163l-3 -39q20 4 48 4q146 0 146 -117q0 -57 -45 -92t-115 -35q-69 0 -105.5 33.5t-39.5 88.5h103q3 -40 45 -40q45 0 45 44t-54 44q-56 0 -126 -8z" />
    <glyph glyph-name="six.inferior" horiz-adv-x="387" 
d="M356 129h-103q-8 34 -50 34q-62 0 -66 -75q45 26 100 26t87.5 -28.5t32.5 -80.5q0 -59 -40.5 -95.5t-118.5 -36.5q-79 0 -123.5 45.5t-44.5 134.5q0 90 46.5 139.5t130.5 49.5q139 0 149 -113zM198 40q-33 0 -54 -21q5 -60 54 -60q46 0 46 40q0 41 -46 41z" />
    <glyph glyph-name="seven.inferior" horiz-adv-x="387" 
d="M45 235h299v-77l-128 -278h-130l134 265h-175v90z" />
    <glyph glyph-name="eight.inferior" horiz-adv-x="387" 
d="M194 169q-43 0 -43 -34q0 -39 43 -39q41 0 41 39q0 34 -41 34zM194 26q-50 0 -50 -40q0 -38 50 -38q48 0 48 38q0 40 -48 40zM194 242q70 0 109.5 -27.5t39.5 -70.5q0 -65 -75 -80q84 -11 84 -89q0 -48 -41 -75t-117 -27q-78 0 -118.5 26.5t-40.5 75.5q0 35 21.5 58
t62.5 29q-77 18 -77 82q0 44 39.5 71t112.5 27z" />
    <glyph glyph-name="nine.inferior" horiz-adv-x="387" 
d="M190 242q80 0 123.5 -45t43.5 -135q0 -89 -47 -139t-129 -50q-65 0 -105 28.5t-44 79.5h103q8 -35 49 -35q59 0 63 78q-41 -26 -85 -26q-63 0 -97 29.5t-34 82.5q0 55 40 93.5t119 38.5zM191 157q-46 0 -46 -44t46 -44q29 0 53 24q-6 64 -53 64z" />
    <glyph glyph-name="zero.numr" horiz-adv-x="387" 
d="M194 614q-29 0 -41 -21.5t-12 -70.5t12 -71t41 -22q28 0 40 22t12 71q0 48 -12 70t-40 22zM194 706q74 0 119.5 -46t45.5 -140q0 -93 -45.5 -138t-119.5 -45q-75 0 -120.5 45t-45.5 138q0 94 46 140t120 46z" />
    <glyph glyph-name="one.numr" horiz-adv-x="387" 
d="M338 344h-254v88h76v166l-86 -53l-41 75l131 81h113v-269h61v-88z" />
    <glyph glyph-name="two.numr" horiz-adv-x="387" 
d="M204 706q72 0 110.5 -31t38.5 -80q0 -46 -31.5 -83.5t-111.5 -79.5h143v-88h-317v75q109 57 150 92t41 64q0 40 -38 40q-42 0 -48 -50h-107q4 64 48.5 102.5t121.5 38.5z" />
    <glyph glyph-name="three.numr" horiz-adv-x="387" 
d="M197 706q72 0 109 -25.5t37 -70.5q0 -67 -79 -84q86 -14 86 -85q0 -49 -42 -76.5t-117 -27.5q-69 0 -111 34t-44 90h111q3 -25 14 -34.5t33 -9.5q39 0 39 34q0 20 -13.5 28.5t-50.5 8.5v71q33 0 46 8t13 27q0 33 -35 33q-21 0 -31 -9t-12 -32h-109q1 55 44 87.5t112 32.5
z" />
    <glyph glyph-name="four.numr" horiz-adv-x="387" 
d="M176 699h128v-195h52v-87h-52v-73h-109v73h-171v82zM195 603l-74 -99h74v99z" />
    <glyph glyph-name="five.numr" horiz-adv-x="387" 
d="M68 699h250v-83h-163l-3 -39q20 4 48 4q146 0 146 -117q0 -57 -45 -92t-115 -35q-69 0 -105.5 33.5t-39.5 88.5h103q3 -40 45 -40q45 0 45 44t-54 44q-56 0 -126 -8z" />
    <glyph glyph-name="six.numr" horiz-adv-x="387" 
d="M356 593h-103q-8 34 -50 34q-62 0 -66 -75q45 26 100 26t87.5 -28.5t32.5 -80.5q0 -59 -40.5 -95.5t-118.5 -36.5q-79 0 -123.5 45.5t-44.5 134.5q0 90 46.5 139.5t130.5 49.5q139 0 149 -113zM198 504q-33 0 -54 -21q5 -60 54 -60q46 0 46 40q0 41 -46 41z" />
    <glyph glyph-name="seven.numr" horiz-adv-x="387" 
d="M45 699h299v-77l-128 -278h-130l134 265h-175v90z" />
    <glyph glyph-name="eight.numr" horiz-adv-x="387" 
d="M194 633q-43 0 -43 -34q0 -39 43 -39q41 0 41 39q0 34 -41 34zM194 490q-50 0 -50 -40q0 -38 50 -38q48 0 48 38q0 40 -48 40zM194 706q70 0 109.5 -27.5t39.5 -70.5q0 -65 -75 -80q84 -11 84 -89q0 -48 -41 -75t-117 -27q-78 0 -118.5 26.5t-40.5 75.5q0 35 21.5 58
t62.5 29q-77 18 -77 82q0 44 39.5 71t112.5 27z" />
    <glyph glyph-name="nine.numr" horiz-adv-x="387" 
d="M190 706q80 0 123.5 -45t43.5 -135q0 -89 -47 -139t-129 -50q-65 0 -105 28.5t-44 79.5h103q8 -35 49 -35q59 0 63 78q-41 -26 -85 -26q-63 0 -97 29.5t-34 82.5q0 55 40 93.5t119 38.5zM191 621q-46 0 -46 -44t46 -44q29 0 53 24q-6 64 -53 64z" />
    <glyph glyph-name="zero.dnom" horiz-adv-x="387" 
d="M194 270q-29 0 -41 -21.5t-12 -70.5t12 -71t41 -22q28 0 40 22t12 71q0 48 -12 70t-40 22zM194 362q74 0 119.5 -46t45.5 -140q0 -93 -45.5 -138t-119.5 -45q-75 0 -120.5 45t-45.5 138q0 94 46 140t120 46z" />
    <glyph glyph-name="one.dnom" horiz-adv-x="387" 
d="M338 0h-254v88h76v166l-86 -53l-41 75l131 81h113v-269h61v-88z" />
    <glyph glyph-name="two.dnom" horiz-adv-x="387" 
d="M204 362q72 0 110.5 -31t38.5 -80q0 -46 -31.5 -83.5t-111.5 -79.5h143v-88h-317v75q109 57 150 92t41 64q0 40 -38 40q-42 0 -48 -50h-107q4 64 48.5 102.5t121.5 38.5z" />
    <glyph glyph-name="three.dnom" horiz-adv-x="387" 
d="M197 362q72 0 109 -25.5t37 -70.5q0 -67 -79 -84q86 -14 86 -85q0 -49 -42 -76.5t-117 -27.5q-69 0 -111 34t-44 90h111q3 -25 14 -34.5t33 -9.5q39 0 39 34q0 20 -13.5 28.5t-50.5 8.5v71q33 0 46 8t13 27q0 33 -35 33q-21 0 -31 -9t-12 -32h-109q1 55 44 87.5t112 32.5
z" />
    <glyph glyph-name="four.dnom" horiz-adv-x="387" 
d="M176 355h128v-195h52v-87h-52v-73h-109v73h-171v82zM195 259l-74 -99h74v99z" />
    <glyph glyph-name="five.dnom" horiz-adv-x="387" 
d="M68 355h250v-83h-163l-3 -39q20 4 48 4q146 0 146 -117q0 -57 -45 -92t-115 -35q-69 0 -105.5 33.5t-39.5 88.5h103q3 -40 45 -40q45 0 45 44t-54 44q-56 0 -126 -8z" />
    <glyph glyph-name="six.dnom" horiz-adv-x="387" 
d="M356 249h-103q-8 34 -50 34q-62 0 -66 -75q45 26 100 26t87.5 -28.5t32.5 -80.5q0 -59 -40.5 -95.5t-118.5 -36.5q-79 0 -123.5 45.5t-44.5 134.5q0 90 46.5 139.5t130.5 49.5q139 0 149 -113zM198 160q-33 0 -54 -21q5 -60 54 -60q46 0 46 40q0 41 -46 41z" />
    <glyph glyph-name="seven.dnom" horiz-adv-x="387" 
d="M45 355h299v-77l-128 -278h-130l134 265h-175v90z" />
    <glyph glyph-name="eight.dnom" horiz-adv-x="387" 
d="M194 289q-43 0 -43 -34q0 -39 43 -39q41 0 41 39q0 34 -41 34zM194 146q-50 0 -50 -40q0 -38 50 -38q48 0 48 38q0 40 -48 40zM194 362q70 0 109.5 -27.5t39.5 -70.5q0 -65 -75 -80q84 -11 84 -89q0 -48 -41 -75t-117 -27q-78 0 -118.5 26.5t-40.5 75.5q0 35 21.5 58
t62.5 29q-77 18 -77 82q0 44 39.5 71t112.5 27z" />
    <glyph glyph-name="nine.dnom" horiz-adv-x="387" 
d="M190 362q80 0 123.5 -45t43.5 -135q0 -89 -47 -139t-129 -50q-65 0 -105 28.5t-44 79.5h103q8 -35 49 -35q59 0 63 78q-41 -26 -85 -26q-63 0 -97 29.5t-34 82.5q0 55 40 93.5t119 38.5zM191 277q-46 0 -46 -44t46 -44q29 0 53 24q-6 64 -53 64z" />
    <glyph glyph-name="A.small" horiz-adv-x="531" 
d="M166 500h199l163 -500h-150l-37 119h-156l-37 -119h-146zM274 360q-6 21 -11 58q-5 -37 -11 -58l-42 -141h105z" />
    <glyph glyph-name="B.small" horiz-adv-x="528" 
d="M207 399v-95h63q58 0 58 48q0 47 -58 47h-63zM62 500h251q83 0 125 -34.5t42 -88.5q0 -88 -98 -115q57 -10 86 -43t29 -82q0 -59 -47.5 -98t-128.5 -39h-259v500zM207 211v-109h69q37 0 52.5 13t15.5 40q0 56 -67 56h-70z" />
    <glyph glyph-name="C.small" horiz-adv-x="529" 
d="M278 510q92 0 151.5 -53t69.5 -148h-150q-5 35 -24 56.5t-52 21.5q-48 0 -68.5 -34.5t-20.5 -102.5t20.5 -102.5t68.5 -34.5q64 0 76 78h150q-10 -95 -69.5 -148t-151.5 -53q-116 0 -179 67.5t-63 192.5t63 192.5t179 67.5z" />
    <glyph glyph-name="D.small" horiz-adv-x="565" 
d="M62 500h237q108 0 169 -65.5t61 -183.5q0 -117 -59.5 -184t-164.5 -67h-243v500zM207 391v-282h64q57 0 82 32t25 109t-26 109t-84 32h-61z" />
    <glyph glyph-name="E.small" horiz-adv-x="464" 
d="M62 500h372v-109h-227v-86h182v-101h-182v-95h233v-109h-378v500z" />
    <glyph glyph-name="F.small" horiz-adv-x="438" 
d="M62 500h372v-109h-227v-111h182v-101h-182v-179h-145v500z" />
    <glyph glyph-name="G.small" horiz-adv-x="561" 
d="M282 510q97 0 153.5 -46t67.5 -126h-146q-16 57 -76 57q-52 0 -74 -36t-22 -108q0 -75 19 -111t69 -36q40 0 63.5 24.5t23.5 68.5h-89v94h234v-291h-137v63q-14 -33 -45 -53t-74 -20q-96 0 -154.5 66t-58.5 195q0 112 66.5 185.5t179.5 73.5z" />
    <glyph glyph-name="H.small" horiz-adv-x="557" 
d="M62 500h145v-183h143v183h145v-500h-145v200h-143v-200h-145v500z" />
    <glyph glyph-name="I.small" horiz-adv-x="269" 
d="M62 500h145v-500h-145v500z" />
    <glyph glyph-name="J.small" horiz-adv-x="461" 
d="M260 500h145v-340q0 -79 -56.5 -124.5t-150.5 -45.5q-83 0 -133.5 44.5t-60.5 124.5h146q6 -59 54 -59q31 0 43.5 15t12.5 51v334z" />
    <glyph glyph-name="K.small" horiz-adv-x="569" 
d="M62 500h145v-500h-145v500zM385 500h163l-179 -224l193 -276h-166l-185 271z" />
    <glyph glyph-name="L.small" horiz-adv-x="441" 
d="M62 500h145v-384h229v-116h-374v500z" />
    <glyph glyph-name="M.small" horiz-adv-x="720" 
d="M62 500h207l77 -264q10 -37 15 -78q4 31 14 78l84 264h199v-500h-133v298q0 44 2 65q-7 -38 -14 -65l-91 -298h-124l-90 291q-13 48 -17 72q3 -33 3 -72v-291h-132v500z" />
    <glyph glyph-name="N.small" horiz-adv-x="570" 
d="M62 500h171l123 -242q12 -26 28 -80q-4 39 -4 88v234h128v-500h-158l-133 275q-17 37 -28 83q4 -41 4 -90v-268h-131v500z" />
    <glyph glyph-name="O.small" horiz-adv-x="543" 
d="M272 386q-47 0 -68.5 -33t-21.5 -102q0 -70 21.5 -103.5t68.5 -33.5q46 0 67 33.5t21 103.5q0 69 -21 102t-67 33zM272 510q106 0 170.5 -69t64.5 -190q0 -122 -64.5 -191.5t-170.5 -69.5q-107 0 -171.5 69.5t-64.5 191.5q0 121 64.5 190t171.5 69z" />
    <glyph glyph-name="P.small" horiz-adv-x="514" 
d="M62 500h257q82 0 127.5 -48t45.5 -123q0 -78 -46 -126t-133 -48h-106v-155h-145v500zM207 391v-137h77q62 0 62 70q0 67 -62 67h-77z" />
    <glyph glyph-name="Q.small" horiz-adv-x="543" 
d="M272 510q106 0 170.5 -69t64.5 -190q0 -130 -74 -201l94 -123h-149l-50 69q-36 -6 -56 -6q-107 0 -171.5 69.5t-64.5 191.5q0 121 64.5 190t171.5 69zM201 171h140l6 -8q13 32 13 88q0 69 -21 102t-67 33q-47 0 -68.5 -33t-21.5 -102q0 -112 56 -132z" />
    <glyph glyph-name="R.small" horiz-adv-x="535" 
d="M62 500h264q83 0 125 -39t42 -103q0 -50 -29 -85.5t-81 -46.5q27 -6 45 -16.5t35 -34t25 -67t8 -108.5h-149q0 75 -9.5 114t-23.5 48.5t-40 9.5h-67v-172h-145v500zM207 391v-115h80q58 0 58 59q0 56 -58 56h-80z" />
    <glyph glyph-name="S.small" horiz-adv-x="514" 
d="M33 156h140q5 -59 85 -59q78 0 78 50q0 21 -18 30.5t-55 13.5q-36 4 -56.5 7.5t-55.5 14.5t-54.5 26t-35 42.5t-15.5 64.5q0 69 58 116.5t153 47.5q104 0 159 -44.5t62 -119.5h-139q-2 27 -22 43t-54 16q-76 0 -76 -46q0 -21 20.5 -31t59.5 -15q25 -3 35 -5t34.5 -6.5
t37 -9.5l32.5 -13t30.5 -18.5t22 -25t16.5 -33.5t5 -42q0 -78 -55 -124t-171 -46q-104 0 -159 45t-62 121z" />
    <glyph glyph-name="T.small" horiz-adv-x="474" 
d="M8 500h458v-109h-157v-391h-145v391h-156v109z" />
    <glyph glyph-name="U.small" horiz-adv-x="564" 
d="M54 500h146v-320q0 -39 18.5 -56.5t62.5 -17.5q45 0 63.5 17.5t18.5 56.5v320h146v-343q0 -81 -67.5 -124t-162.5 -43q-94 0 -159.5 43t-65.5 124v343z" />
    <glyph glyph-name="V.small" horiz-adv-x="513" 
d="M2 500h153l86 -287q13 -44 17 -83q6 44 18 83l90 287h144l-168 -500h-173z" />
    <glyph glyph-name="W.small" horiz-adv-x="804" 
d="M13 500h146l74 -285q3 -13 15 -87q4 47 13 87l74 285h137l76 -285q3 -13 15 -87q4 47 13 87l73 285h141l-144 -500h-171l-59 237q-9 43 -16 98q-4 -43 -16 -98l-62 -237h-165z" />
    <glyph glyph-name="X.small" horiz-adv-x="541" 
d="M15 500h161l73 -104q12 -16 22 -40q14 28 23 41l71 103h153l-170 -239l191 -261h-173l-76 110q-13 16 -24 43q-10 -22 -24 -44l-76 -109h-162l185 254z" />
    <glyph glyph-name="Y.small" horiz-adv-x="496" 
d="M-16 500h159l110 -174l110 174h149l-190 -287v-213h-146v213z" />
    <glyph glyph-name="Z.small" horiz-adv-x="470" 
d="M41 500h399v-111l-243 -277h247v-112h-417v112l244 277h-230v111z" />
    <glyph glyph-name="AE.small" horiz-adv-x="717" 
d="M246 500h439v-109h-227v-86h182v-101h-182v-95h233v-109h-378v120h-164l-77 -120h-149zM205 219h108v168z" />
    <glyph glyph-name="OE.small" horiz-adv-x="747" 
d="M266 510q37 0 77 -10h372v-109h-254q30 -30 36 -86h173v-101h-173q-3 -60 -35 -95h259v-109h-378q-33 -10 -77 -10q-112 0 -174 68t-62 193q0 124 62 191.5t174 67.5zM266 389q-92 0 -92 -138q0 -140 92 -140q90 0 90 140q0 138 -90 138z" />
    <glyph glyph-name="Eng.small" horiz-adv-x="570" 
d="M62 500h171l122 -239q16 -35 28 -81q-3 29 -3 89v231h128v-500q0 -95 -64 -147t-149 -52v114q37 0 56.5 19t21.5 66h-22l-134 272q-14 33 -27 83q3 -45 3 -89v-266h-131v500z" />
    <glyph glyph-name="Eth.small" horiz-adv-x="565" 
d="M62 500h237q108 0 169 -65.5t61 -183.5q0 -117 -59.5 -184t-164.5 -67h-243v222h-50v93h50v185zM207 391v-76h77v-93h-77v-113h64q57 0 82 32t25 109t-26 109t-84 32h-61z" />
    <glyph glyph-name="IJ.small" horiz-adv-x="728" 
d="M62 500h145v-500h-145v500zM520 500h146v-340q0 -79 -56.5 -124.5t-151.5 -45.5q-82 0 -132.5 44.5t-61.5 124.5h147q6 -59 52 -59q33 0 45 14.5t12 51.5v334z" />
    <glyph glyph-name="Oslash.small" horiz-adv-x="533" 
d="M272 510q70 0 125 -32l17 22h100l-59 -75q52 -68 52 -174q0 -122 -64.5 -191.5t-170.5 -69.5q-76 0 -132 36l-20 -26h-100l63 80q-47 67 -47 171q0 121 64.5 190t171.5 69zM360 251q0 27 -3 50l-136 -173q20 -14 51 -14q46 0 67 33.5t21 103.5zM272 386q-47 0 -68.5 -33
t-21.5 -102q0 -17 2 -43l132 167q-19 11 -44 11z" />
    <glyph glyph-name="Thorn.small" horiz-adv-x="514" 
d="M62 500h145v-69h112q82 0 127.5 -48.5t45.5 -122.5q0 -78 -46 -126.5t-133 -48.5h-106v-85h-145v500zM207 325v-141h77q60 0 60 73q0 68 -60 68h-77z" />
    <glyph glyph-name="rupee" 
d="M53 700h503v-95h-117q39 -36 42 -100h75v-95h-87q-30 -110 -153 -124q36 -5 55.5 -10t45 -22.5t38.5 -46t22.5 -80.5t9.5 -127h-157q0 68 -8 112t-25 66t-38.5 30t-54.5 8h-151v120h168q39 0 61 20.5t28 53.5h-257v95h258q-5 32 -27.5 52t-60.5 20h-170v123z" />
    <glyph glyph-name="litre" horiz-adv-x="450" 
d="M282 709q74 0 108 -34.5t34 -83.5q0 -134 -186 -256v-205q0 -29 24 -29q16 0 28.5 15t13.5 43h122q-19 -87 -65 -128t-121 -41q-139 0 -139 140v131l-47 -19l-33 84q46 19 80 36v166q0 85 51 133t130 48zM238 538v-81q60 60 60 110q0 31 -25 31q-35 0 -35 -60z" />
    <glyph glyph-name="publish" horiz-adv-x="827" 
d="M411 618q-116 0 -182 -73.5t-66 -194.5t66 -194.5t182 -73.5q120 0 185 73.5t65 194.5t-65 194.5t-185 73.5zM411 710q159 0 267 -99.5t108 -260.5q0 -163 -108.5 -261.5t-266.5 -98.5q-154 0 -262 98t-108 262t108.5 262t261.5 98zM264 553h209q67 0 104 -39t37 -101
q0 -63 -37.5 -102.5t-108.5 -39.5h-86v-126h-118v408zM382 464v-112h63q50 0 50 57q0 55 -50 55h-63z" />
    <glyph glyph-name="ampersand.ss01" horiz-adv-x="718" 
d="M34 197q0 66 38.5 122.5t105.5 80.5q-30 54 -30 105q0 91 60.5 148t178.5 57q109 0 170 -46.5t61 -115.5q0 -66 -42.5 -103.5t-98.5 -37.5q-33 0 -58.5 16t-32.5 45q88 0 88 65q0 59 -88 59q-47 0 -71 -19t-24 -51q0 -31 26 -67.5t94 -106t97 -102.5q37 58 45 119h153
q-24 -105 -122 -213q120 -170 120 -341h-138q0 123 -92 248q-103 -67 -208 -67q-112 0 -172 58.5t-60 146.5zM401 146q-20 22 -81.5 85t-89.5 96q-25 -14 -39 -40t-14 -55q0 -50 28 -81.5t83 -31.5q61 0 113 27z" />
    <glyph glyph-name="ampersand.ss02" horiz-adv-x="796" 
d="M383 710q116 0 174 -39.5t58 -108.5q0 -31 -20 -59.5t-55 -42.5h231q0 -114 -34 -206.5t-90 -148.5t-123 -85.5t-139 -29.5q-154 0 -247.5 94t-93.5 248q0 165 96 271.5t243 106.5zM384 129q89 0 152.5 60.5t64.5 163.5h-394q-2 -14 -2 -40q0 -84 50 -134t129 -50z
M375 581q-115 0 -149 -121h130q47 0 70.5 17.5t23.5 45.5q0 26 -18.5 42t-56.5 16z" />
    <glyph glyph-name="ampersand.ss03" horiz-adv-x="697" 
d="M326 710q124 0 193 -58t79 -160h-147q-6 50 -32.5 73t-92.5 23q-53 0 -78.5 -24.5t-25.5 -62.5q0 -81 92 -81h373v-107h-100v-313h-285q-123 0 -190.5 50t-67.5 141q0 71 42 119t126 60q-134 34 -134 148q0 81 67.5 136.5t180.5 55.5zM302 124h150v189h-147
q-115 0 -115 -94q0 -95 112 -95z" />
    <glyph glyph-name="ampersand.ss04" horiz-adv-x="747" 
d="M396 710q114 0 168 -39t54 -109q0 -39 -18.5 -69.5t-63 -56.5t-127.5 -41t-202 -17q-4 -26 -4 -45q0 -204 165 -204q64 0 106.5 34t55.5 97h-134v108h327q-10 -98 -45 -173t-85.5 -118.5t-108 -65t-118.5 -21.5q-147 0 -234.5 96t-87.5 252q0 162 100 267t252 105z
M385 602q-59 0 -101.5 -32.5t-58.5 -89.5q94 1 147.5 12t69.5 25t16 35q0 50 -73 50z" />
    <glyph glyph-name="ampersand.ss05" horiz-adv-x="730" 
d="M360 710q103 0 161 -46.5t58 -115.5q0 -40 -15 -70t-46 -51t-59 -33t-72 -26l115 -125q36 56 46 122h152q-24 -106 -117 -211l142 -154h-203l-51 57q-101 -65 -203 -65q-113 0 -173 58t-60 146q0 137 136 202q-41 61 -41 118q0 88 59 141t171 53zM289 119q55 0 105 24
l-152 171q-65 -38 -65 -100q0 -37 29.5 -66t82.5 -29zM276 528q0 -33 39 -80q61 19 90.5 37.5t29.5 49.5q0 57 -77 57q-82 0 -82 -64z" />
    <glyph glyph-name="ampersand.small" horiz-adv-x="581" 
d="M556 100v-108q-74 0 -178 55q-76 -55 -164 -55t-135.5 36.5t-47.5 108.5q0 97 95 144q-18 36 -18 72q0 69 47.5 113t146.5 44q85 0 131.5 -42t58.5 -112h-135q-7 48 -59 48q-53 0 -53 -46q0 -35 35.5 -82.5t89.5 -90.5q30 56 32 120h144q-18 -93 -85 -178q54 -27 95 -27z
M231 90q31 0 58 12q-68 49 -114 104q-18 -22 -18 -48q0 -31 19 -49.5t55 -18.5z" />
    <glyph glyph-name="caron.alt" horiz-adv-x="217" 
d="M51 710h124l-54 -159h-71z" />
    <glyph glyph-name="acute.case" horiz-adv-x="330" 
d="M157 880l134 -15l-161 -142h-92z" />
    <glyph glyph-name="grave.case" horiz-adv-x="330" 
d="M38 865l135 15l118 -157h-91z" />
    <glyph glyph-name="caron.case" horiz-adv-x="458" 
d="M42 865l94 15l92 -72l94 72l94 -15l-129 -142h-117z" />
    <glyph glyph-name="circumflex.case" horiz-adv-x="458" 
d="M416 738l-94 -15l-93 73l-93 -73l-94 15l128 142h117z" />
    <glyph glyph-name="breve.case" horiz-adv-x="367" 
d="M42 854l75 9q0 -57 66 -57q67 0 67 57l75 -9q0 -59 -40 -93t-102 -34q-61 0 -101 34t-40 93z" />
    <glyph glyph-name="dieresis.case" horiz-adv-x="435" 
d="M164 744h-106v105h106v-105zM378 744h-107v105h107v-105z" />
    <glyph glyph-name="dotaccent.case" horiz-adv-x="237" 
d="M187 744h-137v113h137v-113z" />
    <glyph glyph-name="hungarumlaut.case" horiz-adv-x="474" 
d="M130 880l114 -15l-124 -134h-78zM318 880l114 -15l-124 -134h-77z" />
    <glyph glyph-name="macron.case" horiz-adv-x="372" 
d="M322 740h-272v84h272v-84z" />
    <glyph glyph-name="ring.case" horiz-adv-x="354" 
d="M177 892q55 0 91 -24t36 -68t-35.5 -67t-91.5 -23t-91.5 23t-35.5 67t36 68t91 24zM176 834q-49 0 -49 -34q0 -35 49 -35t49 35q0 34 -49 34z" />
    <glyph glyph-name="tilde.case" horiz-adv-x="442" 
d="M152 860q39 0 83 -25t57 -25q30 0 35 37l63 -10q-5 -51 -29.5 -80t-65.5 -29q-33 0 -79.5 27t-67.5 27q-34 0 -35 -42l-60 13q2 50 27 78.5t72 28.5z" />
    <glyph glyph-name="arrowupleft" horiz-adv-x="617" 
d="M89 102v398h398v-121h-192l272 -272l-85 -86l-272 272v-191h-121z" />
    <glyph glyph-name="arrowupright" horiz-adv-x="617" 
d="M528 500v-398h-122v191l-271 -272l-85 86l271 272h-192v121h399z" />
    <glyph glyph-name="arrowdownleft" horiz-adv-x="617" 
d="M89 0v398h121v-191l272 272l85 -86l-272 -272h192v-121h-398z" />
    <glyph glyph-name="arrowdownright" horiz-adv-x="617" 
d="M528 398v-398h-399v121h192l-271 272l85 86l271 -272v191h122z" />
    <glyph glyph-name="beta.alt" horiz-adv-x="547" 
d="M282 588q-53 0 -75 -57t-22 -176q0 -123 21.5 -183t79.5 -60q88 0 88 106q0 55 -28.5 77t-103.5 22v102q66 0 88.5 20t22.5 68q0 39 -15.5 60t-55.5 21zM284 710q94 0 151 -45t57 -131q0 -71 -32 -109.5t-101 -50.5q81 -13 119.5 -55.5t38.5 -120.5q0 -89 -58 -148.5
t-168 -59.5q-121 0 -189 89t-68 271t66.5 271t183.5 89z" />
    <glyph glyph-name="theta.alt" horiz-adv-x="560" 
d="M270 710q255 0 255 -350q0 -177 -67.5 -273.5t-189.5 -96.5q-86 0 -130.5 33.5t-44.5 95.5q0 56 -43 56q-12 0 -30 -5v111q39 12 79 12q63 0 97 -28t34 -83q0 -67 53 -67q52 0 72 47.5t22 159.5q-49 -13 -125 -13q-102 0 -156 49.5t-54 141.5q0 85 61 147.5t167 62.5z
M280 416q47 0 94 13q-6 83 -30.5 122t-73.5 39q-83 0 -83 -96q0 -78 93 -78z" />
    <glyph glyph-name="sigmafinal" horiz-adv-x="486" 
d="M254 510q107 0 161.5 -54t60.5 -138h-133q-3 30 -22.5 50t-57.5 20q-85 0 -85 -103q0 -45 18.5 -77.5t46 -49.5t60 -35t60 -34t46 -45.5t18.5 -69.5q0 -55 -54 -106t-141 -86l-63 102q102 43 102 87q0 14 -17.5 26t-43.5 21.5t-56.5 29t-56.5 44.5t-43.5 72.5
t-17.5 108.5q0 106 57.5 171.5t160.5 65.5z" />
    <glyph glyph-name="phi.alt" horiz-adv-x="744" 
d="M274 507v-121q-54 -3 -77.5 -36t-23.5 -97q0 -67 28.5 -99.5t96.5 -40.5v182q0 104 45 159.5t147 55.5q224 0 224 -248q0 -119 -69 -185.5t-202 -79.5v-197h-145v196q-270 25 -270 257q0 109 73 180t173 74zM443 271v-157q67 10 96 45.5t29 102.5t-15.5 95t-48.5 28
q-34 0 -47.5 -23.5t-13.5 -90.5z" />
    <glyph glyph-name="dieresistonoscomb" horiz-adv-x="448" 
d="M143 743h-95v108h95v-108zM400 743h-95v108h95v-108zM257 723h-65l-22 167h111z" />
    <glyph glyph-name="gacute" horiz-adv-x="557" 
d="M270 510q52 0 152 -5t132 -5v-111q-25 0 -106 9q18 -10 28.5 -33.5t10.5 -50.5q0 -75 -57 -122t-164 -47q-37 0 -70 9q-15 -12 -15 -29t10.5 -23t33.5 -6h142q87 0 126.5 -33.5t39.5 -99.5q0 -79 -66 -126t-194 -47q-122 0 -176 29.5t-54 89.5q0 35 20.5 62.5t53.5 41.5
q-33 12 -48.5 28.5t-15.5 49.5q0 31 19 58t48 40q-67 49 -67 135q0 84 56 135t161 51zM313 718l150 -16l-153 -158h-100zM345 324q0 83 -74 83q-72 0 -72 -83q0 -34 18 -56t54 -22q74 0 74 78zM326 0h-94q-4 0 -12.5 0.5t-11.5 0.5q-25 -20 -25 -48q0 -29 21.5 -43t72.5 -14
q108 0 108 62q0 42 -59 42z" />
    <glyph glyph-name="iacute_jacute" horiz-adv-x="525" 
d="M199 0h-137v500h137v-500zM324 500h138v-511q0 -95 -65 -147t-151 -52v114q39 0 58.5 20t19.5 73v503zM418 718l150 -16l-153 -158h-100zM154 718l150 -16l-153 -158h-100z" />
    <glyph glyph-name="Aacute.small" horiz-adv-x="531" 
d="M166 500h199l163 -500h-150l-37 119h-156l-37 -119h-146zM282 718l150 -16l-153 -158h-100zM274 360q-6 21 -11 58q-5 -37 -11 -58l-42 -141h105z" />
    <glyph glyph-name="Abreve.small" horiz-adv-x="531" 
d="M166 500h199l163 -500h-150l-37 119h-156l-37 -119h-146zM113 693l88 10q0 -66 63 -66t63 66l89 -10q0 -65 -44.5 -103.5t-107.5 -38.5q-62 0 -106.5 38.5t-44.5 103.5zM274 360q-6 21 -11 58q-5 -37 -11 -58l-42 -141h105z" />
    <glyph glyph-name="Acircumflex.small" horiz-adv-x="531" 
d="M166 500h199l163 -500h-150l-37 119h-156l-37 -119h-146zM199 705h132l121 -150l-102 -17l-85 82l-86 -82l-101 17zM274 360q-6 21 -11 58q-5 -37 -11 -58l-42 -141h105z" />
    <glyph glyph-name="Adieresis.small" horiz-adv-x="531" 
d="M166 500h199l163 -500h-150l-37 119h-156l-37 -119h-146zM417 571h-106v109h106v-109zM219 571h-106v109h106v-109zM274 360q-6 21 -11 58q-5 -37 -11 -58l-42 -141h105z" />
    <glyph glyph-name="Agrave.small" horiz-adv-x="531" 
d="M166 500h199l163 -500h-150l-37 119h-156l-37 -119h-146zM95 702l150 16l102 -174h-98zM274 360q-6 21 -11 58q-5 -37 -11 -58l-42 -141h105z" />
    <glyph glyph-name="Amacron.small" horiz-adv-x="531" 
d="M166 500h199l163 -500h-150l-37 119h-156l-37 -119h-146zM401 567h-272v93h272v-93zM274 360q-6 21 -11 58q-5 -37 -11 -58l-42 -141h105z" />
    <glyph glyph-name="Aogonek.small" horiz-adv-x="531" 
d="M166 500h199l163 -500h-36q-49 -38 -49 -86q0 -19 11.5 -30t32.5 -11q8 0 22 2v-89q-21 -6 -47 -6q-59 0 -93.5 28.5t-34.5 71.5q0 71 82 120h-38l-37 119h-156l-37 -119h-146zM274 360q-6 21 -11 58q-5 -37 -11 -58l-42 -141h105z" />
    <glyph glyph-name="Aring.small" horiz-adv-x="531" 
d="M166 500h199l163 -500h-150l-37 119h-156l-37 -119h-146zM264 735q55 0 93 -27.5t38 -76.5t-37.5 -76t-93.5 -27q-55 0 -93 27t-38 76t38 76.5t93 27.5zM274 360q-6 21 -11 58q-5 -37 -11 -58l-42 -141h105zM264 666q-20 0 -32 -9.5t-12 -24.5q0 -37 44 -37q43 0 43 35
q0 17 -12.5 26.5t-30.5 9.5z" />
    <glyph glyph-name="Atilde.small" horiz-adv-x="531" 
d="M166 500h199l163 -500h-150l-37 119h-156l-37 -119h-146zM195 699q39 0 83 -27.5t57 -27.5q15 0 23.5 8t11.5 31l63 -10q-5 -56 -29.5 -88t-65.5 -32q-33 0 -79.5 29t-67.5 29q-34 0 -35 -45l-60 14q2 55 27 87t72 32zM274 360q-6 21 -11 58q-5 -37 -11 -58l-42 -141h105
z" />
    <glyph glyph-name="Ccedilla.small" horiz-adv-x="529" 
d="M278 510q92 0 151.5 -53t69.5 -148h-150q-5 35 -24 56.5t-52 21.5q-48 0 -68.5 -34.5t-20.5 -102.5t20.5 -102.5t68.5 -34.5q64 0 76 78h150q-10 -86 -60.5 -138.5t-130.5 -60.5l-33 -44q15 3 30 3q42 0 70.5 -20.5t28.5 -61.5q0 -49 -42 -77.5t-103 -28.5q-75 0 -116 38
l41 48q18 -23 64 -23q50 0 50 34q0 43 -78 43q-27 0 -52 -4l55 96q-91 14 -139 79.5t-48 175.5q0 125 63 192.5t179 67.5z" />
    <glyph glyph-name="Cacute.small" horiz-adv-x="529" 
d="M290 718l150 -16l-153 -158h-100zM278 510q92 0 151.5 -53t69.5 -148h-150q-5 35 -24 56.5t-52 21.5q-48 0 -68.5 -34.5t-20.5 -102.5t20.5 -102.5t68.5 -34.5q64 0 76 78h150q-10 -95 -69.5 -148t-151.5 -53q-116 0 -179 67.5t-63 192.5t63 192.5t179 67.5z" />
    <glyph glyph-name="Ccircumflex.small" horiz-adv-x="529" 
d="M278 510q92 0 151.5 -53t69.5 -148h-150q-5 35 -24 56.5t-52 21.5q-48 0 -68.5 -34.5t-20.5 -102.5t20.5 -102.5t68.5 -34.5q64 0 76 78h150q-10 -95 -69.5 -148t-151.5 -53q-116 0 -179 67.5t-63 192.5t63 192.5t179 67.5zM212 705h132l121 -150l-102 -17l-85 82
l-86 -82l-101 17z" />
    <glyph glyph-name="Ccaron.small" horiz-adv-x="529" 
d="M90 694l101 17l85 -82l86 82l102 -17l-121 -150h-132zM278 510q92 0 151.5 -53t69.5 -148h-150q-5 35 -24 56.5t-52 21.5q-48 0 -68.5 -34.5t-20.5 -102.5t20.5 -102.5t68.5 -34.5q64 0 76 78h150q-10 -95 -69.5 -148t-151.5 -53q-116 0 -179 67.5t-63 192.5t63 192.5
t179 67.5z" />
    <glyph glyph-name="Cdotaccent.small" horiz-adv-x="529" 
d="M278 510q92 0 151.5 -53t69.5 -148h-150q-5 35 -24 56.5t-52 21.5q-48 0 -68.5 -34.5t-20.5 -102.5t20.5 -102.5t68.5 -34.5q64 0 76 78h150q-10 -95 -69.5 -148t-151.5 -53q-116 0 -179 67.5t-63 192.5t63 192.5t179 67.5zM347 571h-138v125h138v-125z" />
    <glyph glyph-name="Dcroat.small" horiz-adv-x="565" 
d="M62 500h237q108 0 169 -65.5t61 -183.5q0 -117 -59.5 -184t-164.5 -67h-243v213h-52v84h52v203zM207 391v-94h65v-84h-65v-104h64q57 0 82 32t25 109t-26 109t-84 32h-61z" />
    <glyph glyph-name="Dcaron.small" horiz-adv-x="565" 
d="M91 694l101 17l85 -82l86 82l102 -17l-121 -150h-132zM62 500h237q108 0 169 -65.5t61 -183.5q0 -117 -59.5 -184t-164.5 -67h-243v500zM207 391v-282h64q57 0 82 32t25 109t-26 109t-84 32h-61z" />
    <glyph glyph-name="Eacute.small" horiz-adv-x="464" 
d="M268 718l150 -16l-153 -158h-100zM62 500h372v-109h-227v-86h182v-101h-182v-95h233v-109h-378v500z" />
    <glyph glyph-name="Ebreve.small" horiz-adv-x="464" 
d="M106 693l88 10q0 -66 63 -66t63 66l89 -10q0 -65 -44.5 -103.5t-107.5 -38.5q-62 0 -106.5 38.5t-44.5 103.5zM62 500h372v-109h-227v-86h182v-101h-182v-95h233v-109h-378v500z" />
    <glyph glyph-name="Ecaron.small" horiz-adv-x="464" 
d="M71 694l101 17l85 -82l86 82l102 -17l-121 -150h-132zM62 500h372v-109h-227v-86h182v-101h-182v-95h233v-109h-378v500z" />
    <glyph glyph-name="Ecircumflex.small" horiz-adv-x="464" 
d="M62 500h372v-109h-227v-86h182v-101h-182v-95h233v-109h-378v500zM186 705h132l121 -150l-102 -17l-85 82l-86 -82l-101 17z" />
    <glyph glyph-name="Edieresis.small" horiz-adv-x="464" 
d="M62 500h372v-109h-227v-86h182v-101h-182v-95h233v-109h-378v500zM205 571h-106v109h106v-109zM403 571h-106v109h106v-109z" />
    <glyph glyph-name="Edotaccent.small" horiz-adv-x="464" 
d="M62 500h372v-109h-227v-86h182v-101h-182v-95h233v-109h-378v500zM333 571h-138v125h138v-125z" />
    <glyph glyph-name="Egrave.small" horiz-adv-x="464" 
d="M87 702l150 16l102 -174h-98zM62 500h372v-109h-227v-86h182v-101h-182v-95h233v-109h-378v500z" />
    <glyph glyph-name="Emacron.small" horiz-adv-x="464" 
d="M387 567h-272v93h272v-93zM62 500h372v-109h-227v-86h182v-101h-182v-95h233v-109h-378v500z" />
    <glyph glyph-name="Eogonek.small" horiz-adv-x="464" 
d="M62 500h372v-109h-227v-86h182v-101h-182v-95h233v-109h-23q-49 -38 -49 -86q0 -19 11.5 -30t32.5 -11q8 0 22 2v-89q-21 -6 -47 -6q-59 0 -93.5 28.5t-34.5 71.5q0 71 82 120h-279v500z" />
    <glyph glyph-name="Gacute.small" horiz-adv-x="561" 
d="M294 718l150 -16l-153 -158h-100zM282 510q97 0 153.5 -46t67.5 -126h-146q-16 57 -76 57q-52 0 -74 -36t-22 -108q0 -75 19 -111t69 -36q40 0 63.5 24.5t23.5 68.5h-89v94h234v-291h-137v63q-14 -33 -45 -53t-74 -20q-96 0 -154.5 66t-58.5 195q0 112 66.5 185.5
t179.5 73.5z" />
    <glyph glyph-name="Gbreve.small" horiz-adv-x="561" 
d="M134 693l88 10q0 -66 63 -66t63 66l89 -10q0 -65 -44.5 -103.5t-107.5 -38.5q-62 0 -106.5 38.5t-44.5 103.5zM282 510q97 0 153.5 -46t67.5 -126h-146q-16 57 -76 57q-52 0 -74 -36t-22 -108q0 -75 19 -111t69 -36q40 0 63.5 24.5t23.5 68.5h-89v94h234v-291h-137v63
q-14 -33 -45 -53t-74 -20q-96 0 -154.5 66t-58.5 195q0 112 66.5 185.5t179.5 73.5z" />
    <glyph glyph-name="Gcircumflex.small" horiz-adv-x="561" 
d="M282 510q97 0 153.5 -46t67.5 -126h-146q-16 57 -76 57q-52 0 -74 -36t-22 -108q0 -75 19 -111t69 -36q40 0 63.5 24.5t23.5 68.5h-89v94h234v-291h-137v63q-14 -33 -45 -53t-74 -20q-96 0 -154.5 66t-58.5 195q0 112 66.5 185.5t179.5 73.5zM217 705h132l121 -150
l-102 -17l-85 82l-86 -82l-101 17z" />
    <glyph glyph-name="Gcommaaccent.small" horiz-adv-x="561" 
d="M282 510q97 0 153.5 -46t67.5 -126h-146q-16 57 -76 57q-52 0 -74 -36t-22 -108q0 -75 19 -111t69 -36q40 0 63.5 24.5t23.5 68.5h-89v94h234v-291h-137v63q-14 -33 -45 -53t-74 -20q-96 0 -154.5 66t-58.5 195q0 112 66.5 185.5t179.5 73.5zM229 -38h125v-68
q0 -96 -119 -148l-19 49q65 19 65 75h-52v92z" />
    <glyph glyph-name="Gdotaccent.small" horiz-adv-x="561" 
d="M282 510q97 0 153.5 -46t67.5 -126h-146q-16 57 -76 57q-52 0 -74 -36t-22 -108q0 -75 19 -111t69 -36q40 0 63.5 24.5t23.5 68.5h-89v94h234v-291h-137v63q-14 -33 -45 -53t-74 -20q-96 0 -154.5 66t-58.5 195q0 112 66.5 185.5t179.5 73.5zM351 571h-138v125h138v-125z
" />
    <glyph glyph-name="Hcircumflex.small" horiz-adv-x="557" 
d="M62 500h145v-183h143v183h145v-500h-145v200h-143v-200h-145v500zM212 705h132l121 -150l-102 -17l-85 82l-86 -82l-101 17z" />
    <glyph glyph-name="Hbar.small" horiz-adv-x="557" 
d="M62 500h145v-54h143v54h145v-54h42v-81h-42v-365h-145v200h-143v-200h-145v365h-42v81h42v54zM207 317h143v48h-143v-48z" />
    <glyph glyph-name="Iacute.small" horiz-adv-x="269" 
d="M155 718l150 -16l-153 -158h-100zM62 500h145v-500h-145v500z" />
    <glyph glyph-name="Ibreve.small" horiz-adv-x="269" 
d="M-17 693l88 10q0 -66 63 -66t63 66l89 -10q0 -65 -44.5 -103.5t-107.5 -38.5q-62 0 -106.5 38.5t-44.5 103.5zM62 500h145v-500h-145v500z" />
    <glyph glyph-name="Icircumflex.small" horiz-adv-x="269" 
d="M62 500h145v-500h-145v500zM69 705h132l121 -150l-102 -17l-85 82l-86 -82l-101 17z" />
    <glyph glyph-name="Idieresis.small" horiz-adv-x="269" 
d="M62 500h145v-500h-145v500zM90 571h-106v109h106v-109zM288 571h-106v109h106v-109z" />
    <glyph glyph-name="Igrave.small" horiz-adv-x="269" 
d="M-35 702l150 16l102 -174h-98zM62 500h145v-500h-145v500z" />
    <glyph glyph-name="Imacron.small" horiz-adv-x="269" 
d="M271 567h-272v93h272v-93zM62 500h145v-500h-145v500z" />
    <glyph glyph-name="Iogonek.small" horiz-adv-x="269" 
d="M62 500h145v-500h-13q-49 -38 -49 -86q0 -19 11.5 -30t32.5 -11q8 0 22 2v-89q-21 -6 -47 -6q-59 0 -93.5 28.5t-34.5 71.5q0 71 82 120h-56v500z" />
    <glyph glyph-name="Itilde.small" horiz-adv-x="269" 
d="M66 699q39 0 83 -27.5t57 -27.5q15 0 23.5 8t11.5 31l63 -10q-5 -56 -29.5 -88t-65.5 -32q-33 0 -79.5 29t-67.5 29q-34 0 -35 -45l-60 14q2 55 27 87t72 32zM62 500h145v-500h-145v500z" />
    <glyph glyph-name="Dotlessi.small" horiz-adv-x="269" 
d="M62 500h145v-500h-145v500z" />
    <glyph glyph-name="Jcircumflex.small" horiz-adv-x="461" 
d="M260 500h145v-340q0 -79 -56.5 -124.5t-150.5 -45.5q-83 0 -133.5 44.5t-60.5 124.5h146q6 -59 54 -59q31 0 43.5 15t12.5 51v334zM262 705h132l121 -150l-102 -17l-85 82l-86 -82l-101 17z" />
    <glyph glyph-name="Kcommaaccent.small" horiz-adv-x="569" 
d="M62 500h145v-500h-145v500zM385 500h163l-179 -224l193 -276h-166l-185 271zM234 -38h125v-68q0 -96 -119 -148l-19 49q65 19 65 75h-52v92z" />
    <glyph glyph-name="Lacute.small" horiz-adv-x="441" 
d="M190 718l150 -16l-153 -158h-100zM62 500h145v-384h229v-116h-374v500z" />
    <glyph glyph-name="Lcaron.small" horiz-adv-x="441" 
d="M62 500h145v-384h229v-116h-374v500zM266 510h124l-54 -159h-71z" />
    <glyph glyph-name="Lcommaaccent.small" horiz-adv-x="441" 
d="M62 500h145v-384h229v-116h-374v500zM194 -38h125v-68q0 -96 -119 -148l-19 49q65 19 65 75h-52v92z" />
    <glyph glyph-name="Lslash.small" horiz-adv-x="441" 
d="M62 500h145v-138l63 45l53 -75l-116 -83v-133h229v-116h-374v145l-30 -21l-51 76l81 58v242z" />
    <glyph glyph-name="Nacute.small" horiz-adv-x="570" 
d="M311 718l150 -16l-153 -158h-100zM62 500h171l123 -242q12 -26 28 -80q-4 39 -4 88v234h128v-500h-158l-133 275q-17 37 -28 83q4 -41 4 -90v-268h-131v500z" />
    <glyph glyph-name="Napostrophe.small" horiz-adv-x="570" 
d="M62 500h171l123 -242q12 -26 28 -80q-4 39 -4 88v234h128v-500h-158l-133 275q-17 37 -28 83q4 -41 4 -90v-268h-131v500zM78 732h125v-68q0 -96 -119 -148l-19 49q65 19 65 75h-52v92z" />
    <glyph glyph-name="Ncaron.small" horiz-adv-x="570" 
d="M98 694l101 17l85 -82l86 82l102 -17l-121 -150h-132zM62 500h171l123 -242q12 -26 28 -80q-4 39 -4 88v234h128v-500h-158l-133 275q-17 37 -28 83q4 -41 4 -90v-268h-131v500z" />
    <glyph glyph-name="Ncommaaccent.small" horiz-adv-x="570" 
d="M62 500h171l123 -242q12 -26 28 -80q-4 39 -4 88v234h128v-500h-158l-133 275q-17 37 -28 83q4 -41 4 -90v-268h-131v500zM229 -38h125v-68q0 -96 -119 -148l-19 49q65 19 65 75h-52v92z" />
    <glyph glyph-name="Ntilde.small" horiz-adv-x="570" 
d="M215 699q39 0 83 -27.5t57 -27.5q15 0 23.5 8t11.5 31l63 -10q-5 -56 -29.5 -88t-65.5 -32q-33 0 -79.5 29t-67.5 29q-34 0 -35 -45l-60 14q2 55 27 87t72 32zM62 500h171l123 -242q12 -26 28 -80q-4 39 -4 88v234h128v-500h-158l-133 275q-17 37 -28 83q4 -41 4 -90
v-268h-131v500z" />
    <glyph glyph-name="Oacute.small" horiz-adv-x="543" 
d="M285 718l150 -16l-153 -158h-100zM272 386q-47 0 -68.5 -33t-21.5 -102q0 -70 21.5 -103.5t68.5 -33.5q46 0 67 33.5t21 103.5q0 69 -21 102t-67 33zM272 510q106 0 170.5 -69t64.5 -190q0 -122 -64.5 -191.5t-170.5 -69.5q-107 0 -171.5 69.5t-64.5 191.5
q0 121 64.5 190t171.5 69z" />
    <glyph glyph-name="Obreve.small" horiz-adv-x="543" 
d="M119 693l88 10q0 -66 63 -66t63 66l89 -10q0 -65 -44.5 -103.5t-107.5 -38.5q-62 0 -106.5 38.5t-44.5 103.5zM272 386q-47 0 -68.5 -33t-21.5 -102q0 -70 21.5 -103.5t68.5 -33.5q46 0 67 33.5t21 103.5q0 69 -21 102t-67 33zM272 510q106 0 170.5 -69t64.5 -190
q0 -122 -64.5 -191.5t-170.5 -69.5q-107 0 -171.5 69.5t-64.5 191.5q0 121 64.5 190t171.5 69z" />
    <glyph glyph-name="Ocircumflex.small" horiz-adv-x="543" 
d="M272 386q-47 0 -68.5 -33t-21.5 -102q0 -70 21.5 -103.5t68.5 -33.5q46 0 67 33.5t21 103.5q0 69 -21 102t-67 33zM272 510q106 0 170.5 -69t64.5 -190q0 -122 -64.5 -191.5t-170.5 -69.5q-107 0 -171.5 69.5t-64.5 191.5q0 121 64.5 190t171.5 69zM205 705h132l121 -150
l-102 -17l-85 82l-86 -82l-101 17z" />
    <glyph glyph-name="Odieresis.small" horiz-adv-x="543" 
d="M272 386q-47 0 -68.5 -33t-21.5 -102q0 -70 21.5 -103.5t68.5 -33.5q46 0 67 33.5t21 103.5q0 69 -21 102t-67 33zM272 510q106 0 170.5 -69t64.5 -190q0 -122 -64.5 -191.5t-170.5 -69.5q-107 0 -171.5 69.5t-64.5 191.5q0 121 64.5 190t171.5 69zM225 571h-106v109h106
v-109zM423 571h-106v109h106v-109z" />
    <glyph glyph-name="Ograve.small" horiz-adv-x="543" 
d="M120 702l150 16l102 -174h-98zM272 386q-47 0 -68.5 -33t-21.5 -102q0 -70 21.5 -103.5t68.5 -33.5q46 0 67 33.5t21 103.5q0 69 -21 102t-67 33zM272 510q106 0 170.5 -69t64.5 -190q0 -122 -64.5 -191.5t-170.5 -69.5q-107 0 -171.5 69.5t-64.5 191.5q0 121 64.5 190
t171.5 69z" />
    <glyph glyph-name="Ohungarumlaut.small" horiz-adv-x="543" 
d="M272 386q-47 0 -68.5 -33t-21.5 -102q0 -70 21.5 -103.5t68.5 -33.5q46 0 67 33.5t21 103.5q0 69 -21 102t-67 33zM272 510q106 0 170.5 -69t64.5 -190q0 -122 -64.5 -191.5t-170.5 -69.5q-107 0 -171.5 69.5t-64.5 191.5q0 121 64.5 190t171.5 69zM214 718l114 -16
l-123 -150h-78zM387 718l114 -16l-123 -150h-78z" />
    <glyph glyph-name="Omacron.small" horiz-adv-x="543" 
d="M407 567h-272v93h272v-93zM272 386q-47 0 -68.5 -33t-21.5 -102q0 -70 21.5 -103.5t68.5 -33.5q46 0 67 33.5t21 103.5q0 69 -21 102t-67 33zM272 510q106 0 170.5 -69t64.5 -190q0 -122 -64.5 -191.5t-170.5 -69.5q-107 0 -171.5 69.5t-64.5 191.5q0 121 64.5 190
t171.5 69z" />
    <glyph glyph-name="Otilde.small" horiz-adv-x="543" 
d="M201 699q39 0 83 -27.5t57 -27.5q15 0 23.5 8t11.5 31l63 -10q-5 -56 -29.5 -88t-65.5 -32q-33 0 -79.5 29t-67.5 29q-34 0 -35 -45l-60 14q2 55 27 87t72 32zM272 386q-47 0 -68.5 -33t-21.5 -102q0 -70 21.5 -103.5t68.5 -33.5q46 0 67 33.5t21 103.5q0 69 -21 102
t-67 33zM272 510q106 0 170.5 -69t64.5 -190q0 -122 -64.5 -191.5t-170.5 -69.5q-107 0 -171.5 69.5t-64.5 191.5q0 121 64.5 190t171.5 69z" />
    <glyph glyph-name="Racute.small" horiz-adv-x="535" 
d="M282 718l150 -16l-153 -158h-100zM62 500h264q83 0 125 -39t42 -103q0 -50 -29 -85.5t-81 -46.5q27 -6 45 -16.5t35 -34t25 -67t8 -108.5h-149q0 75 -9.5 114t-23.5 48.5t-40 9.5h-67v-172h-145v500zM207 391v-115h80q58 0 58 59q0 56 -58 56h-80z" />
    <glyph glyph-name="Rcaron.small" horiz-adv-x="535" 
d="M82 694l101 17l85 -82l86 82l102 -17l-121 -150h-132zM62 500h264q83 0 125 -39t42 -103q0 -50 -29 -85.5t-81 -46.5q27 -6 45 -16.5t35 -34t25 -67t8 -108.5h-149q0 75 -9.5 114t-23.5 48.5t-40 9.5h-67v-172h-145v500zM207 391v-115h80q58 0 58 59q0 56 -58 56h-80z
" />
    <glyph glyph-name="Rcommaaccent.small" horiz-adv-x="535" 
d="M62 500h264q83 0 125 -39t42 -103q0 -50 -29 -85.5t-81 -46.5q27 -6 45 -16.5t35 -34t25 -67t8 -108.5h-149q0 75 -9.5 114t-23.5 48.5t-40 9.5h-67v-172h-145v500zM207 391v-115h80q58 0 58 59q0 56 -58 56h-80zM213 -38h125v-68q0 -96 -119 -148l-19 49q65 19 65 75
h-52v92z" />
    <glyph glyph-name="Sacute.small" horiz-adv-x="514" 
d="M273 718l150 -16l-153 -158h-100zM33 156h140q5 -59 85 -59q78 0 78 50q0 21 -18 30.5t-55 13.5q-36 4 -56.5 7.5t-55.5 14.5t-54.5 26t-35 42.5t-15.5 64.5q0 69 58 116.5t153 47.5q104 0 159 -44.5t62 -119.5h-139q-2 27 -22 43t-54 16q-76 0 -76 -46q0 -21 20.5 -31
t59.5 -15q25 -3 35 -5t34.5 -6.5t37 -9.5l32.5 -13t30.5 -18.5t22 -25t16.5 -33.5t5 -42q0 -78 -55 -124t-171 -46q-104 0 -159 45t-62 121z" />
    <glyph glyph-name="Scaron.small" horiz-adv-x="514" 
d="M71 694l101 17l85 -82l86 82l102 -17l-121 -150h-132zM33 156h140q5 -59 85 -59q78 0 78 50q0 21 -18 30.5t-55 13.5q-36 4 -56.5 7.5t-55.5 14.5t-54.5 26t-35 42.5t-15.5 64.5q0 69 58 116.5t153 47.5q104 0 159 -44.5t62 -119.5h-139q-2 27 -22 43t-54 16
q-76 0 -76 -46q0 -21 20.5 -31t59.5 -15q25 -3 35 -5t34.5 -6.5t37 -9.5l32.5 -13t30.5 -18.5t22 -25t16.5 -33.5t5 -42q0 -78 -55 -124t-171 -46q-104 0 -159 45t-62 121z" />
    <glyph glyph-name="Scedilla.small" horiz-adv-x="514" 
d="M33 156h140q5 -59 85 -59q78 0 78 50q0 21 -18 30.5t-55 13.5q-36 4 -56.5 7.5t-55.5 14.5t-54.5 26t-35 42.5t-15.5 64.5q0 69 58 116.5t153 47.5q104 0 159 -44.5t62 -119.5h-139q-2 27 -22 43t-54 16q-76 0 -76 -46q0 -21 20.5 -31t59.5 -15q25 -3 35 -5t34.5 -6.5
t37 -9.5l32.5 -13t30.5 -18.5t22 -25t16.5 -33.5t5 -42q0 -70 -44 -114.5t-136 -53.5l-34 -44q15 3 30 3q42 0 70.5 -20.5t28.5 -61.5q0 -49 -42 -77.5t-103 -28.5q-75 0 -116 38l41 48q18 -23 64 -23q50 0 50 34q0 43 -78 43q-27 0 -52 -4l54 93q-84 9 -129 52.5t-51 111.5
z" />
    <glyph glyph-name="Scircumflex.small" horiz-adv-x="514" 
d="M33 156h140q5 -59 85 -59q78 0 78 50q0 21 -18 30.5t-55 13.5q-36 4 -56.5 7.5t-55.5 14.5t-54.5 26t-35 42.5t-15.5 64.5q0 69 58 116.5t153 47.5q104 0 159 -44.5t62 -119.5h-139q-2 27 -22 43t-54 16q-76 0 -76 -46q0 -21 20.5 -31t59.5 -15q25 -3 35 -5t34.5 -6.5
t37 -9.5l32.5 -13t30.5 -18.5t22 -25t16.5 -33.5t5 -42q0 -78 -55 -124t-171 -46q-104 0 -159 45t-62 121zM196 705h132l121 -150l-102 -17l-85 82l-86 -82l-101 17z" />
    <glyph glyph-name="Scommaaccent.small" horiz-adv-x="514" 
d="M33 156h140q5 -59 85 -59q78 0 78 50q0 21 -18 30.5t-55 13.5q-36 4 -56.5 7.5t-55.5 14.5t-54.5 26t-35 42.5t-15.5 64.5q0 69 58 116.5t153 47.5q104 0 159 -44.5t62 -119.5h-139q-2 27 -22 43t-54 16q-76 0 -76 -46q0 -21 20.5 -31t59.5 -15q25 -3 35 -5t34.5 -6.5
t37 -9.5l32.5 -13t30.5 -18.5t22 -25t16.5 -33.5t5 -42q0 -78 -55 -124t-171 -46q-104 0 -159 45t-62 121zM199 -38h125v-68q0 -96 -119 -148l-19 49q65 19 65 75h-52v92z" />
    <glyph glyph-name="Tbar.small" horiz-adv-x="474" 
d="M8 500h458v-109h-157v-128h71v-84h-71v-179h-145v179h-70v84h70v128h-156v109z" />
    <glyph glyph-name="Tcaron.small" horiz-adv-x="474" 
d="M50 694l101 17l85 -82l86 82l102 -17l-121 -150h-132zM8 500h458v-109h-157v-391h-145v391h-156v109z" />
    <glyph glyph-name="Tcommaaccent.small" horiz-adv-x="474" 
d="M8 500h458v-109h-157v-391h-145v391h-156v109zM178 -38h125v-68q0 -96 -119 -148l-19 49q65 19 65 75h-52v92z" />
    <glyph glyph-name="Uacute.small" horiz-adv-x="564" 
d="M306 718l150 -16l-153 -158h-100zM54 500h146v-320q0 -39 18.5 -56.5t62.5 -17.5q45 0 63.5 17.5t18.5 56.5v320h146v-343q0 -81 -67.5 -124t-162.5 -43q-94 0 -159.5 43t-65.5 124v343z" />
    </font>
</defs>
</svg>
