<svg id="Layer_1" data-name="Layer 1" xmlns="http://www.w3.org/2000/svg" viewBox="0 0 66.6 54.16">
  <title>download</title>
  <path d="M33.33,46.64c1.06-1.07,2.08-2.12,3.11-3.15q2.94-2.94,5.89-5.85a.89.89,0,0,1,.58-.18h21.4a2.17,2.17,0,0,1,2.28,2.26c0,4,0,8.09,0,12.13a2.29,2.29,0,0,1-2.35,2.32q-31,0-61.94,0A2.25,2.25,0,0,1,0,51.87c.05-4.08,0-8.15,0-12.23a2.09,2.09,0,0,1,2.15-2.18c7.19,0,14.37,0,21.55,0a1.17,1.17,0,0,1,.86.46l8.49,8.49ZM52,45.85a2,2,0,0,0-2,2A2.1,2.1,0,0,0,52.05,50,2.15,2.15,0,0,0,54.1,47.9,2.06,2.06,0,0,0,52,45.85Zm10.38,2.06a2,2,0,0,0-1.93-2.07A2.06,2.06,0,1,0,60.33,50,2,2,0,0,0,62.38,47.91Z" style="fill: #1e1e1e;opacity: 0.8"/>
  <path d="M27,0H39.22c.11,0,.25.19.31.32s0,.27,0,.41V27.08H49.72L33.24,43.56,16.82,27.13H27Z" style="fill: #1e1e1e;opacity: 0.8"/>
</svg>
