<svg xmlns="http://www.w3.org/2000/svg" viewBox="0 0 16 16">
  <g id="Layer_1" data-name="Layer 1">
    <g>
      <g>
        <path d="M4.55,7.56c0-2.77-.68-3.24-1.6-3.24H1V7.56H0V0H3.36A1.93,1.93,0,0,1,5.55,2,1.76,1.76,0,0,1,3.88,3.93c.87.14,1.68.79,1.68,3.63Zm-1.45-4a1.24,1.24,0,0,0,1.39-1.4C4.49,1.35,4.14.8,3.1.8H1V3.53Z" style="fill: #1d1d1b"/>
        <path d="M16,8.44V16H15V8.44Z" style="fill: #1d1d1b"/>
      </g>
      <polygon points="10.25 16 13.7 11.98 10.5 8.44 11.7 8.44 14.89 12.04 11.49 16 10.25 16" style="fill: #1d1d1b"/>
    </g>
  </g>
  <g id="Layer_2" data-name="Layer 2">
    <g>
      <g>
        <path d="M4.55,7.56c0-2.77-.68-3.24-1.6-3.24H1V7.56H0V0H3.36A1.93,1.93,0,0,1,5.55,2,1.76,1.76,0,0,1,3.88,3.93c.87.14,1.68.79,1.68,3.63Zm-1.45-4a1.24,1.24,0,0,0,1.39-1.4C4.49,1.35,4.14.8,3.1.8H1V3.53Z" style="fill: #1d1d1b"/>
        <path d="M16,8.44V16H15V8.44Z" style="fill: #1d1d1b"/>
      </g>
      <polygon points="10.25 16 13.7 11.98 10.5 8.44 11.7 8.44 14.89 12.04 11.49 16 10.25 16" style="fill: #1d1d1b"/>
    </g>
    <path d="M6.71,4.72V3.94H16v.78Z" style="fill: #1d1d1b"/>
    <path d="M0,13.16v-.78H9.29v.78Z" style="fill: #1d1d1b"/>
  </g>
</svg>
