<svg id="Vrstva_1" data-name="Vrstva 1" xmlns="http://www.w3.org/2000/svg" viewBox="0 0 92.47 31.62">
  <path d="M12.14,31.62v-3.5H3.73v3.5H.35V23.77H4.64v-.2A8.52,8.52,0,0,1,3,23a4.89,4.89,0,0,1-1.38-.94,4,4,0,0,1-.95-1.39,4.83,4.83,0,0,1-.36-1.94V17.28h4v3.23A3.06,3.06,0,0,0,5.3,23a3.46,3.46,0,0,0,2.34.82h4.5v-5h3.38V31.62ZM15.87,6.94a7.51,7.51,0,0,1-2.12,5.78,8.09,8.09,0,0,1-5.76,2,10.21,10.21,0,0,1-3.33-.51,7.12,7.12,0,0,1-2.53-1.47A6.29,6.29,0,0,1,.54,10.39,8.31,8.31,0,0,1,0,7.32,8.18,8.18,0,0,1,.54,4.26,6.45,6.45,0,0,1,2.09,2,6.9,6.9,0,0,1,4.51.51,9.41,9.41,0,0,1,7.7,0H9V10.37h.27a3.15,3.15,0,0,0,2.36-.91,3.64,3.64,0,0,0,.9-2.67A4.79,4.79,0,0,0,12,4.47a5.39,5.39,0,0,0-1.36-1.68L13.19.44a7.31,7.31,0,0,1,1.89,2.47,9.12,9.12,0,0,1,.79,4ZM3.11,7.29A3,3,0,0,0,4,9.54a3.26,3.26,0,0,0,2.34.83h.23V4.26H6.32A3.27,3.27,0,0,0,4,5.07,2.91,2.91,0,0,0,3.11,7.29Z" style="fill: #000003"/>
  <path d="M32.56,26.42q-4.13,0-6.07-2.79t-2-7.82q0-5,2-7.82T32.56,5.2q4.11,0,6.06,2.79t2,7.82q0,5-2,7.82t-6.06,2.79Zm0-3.56a2.66,2.66,0,0,0,2.6-1.39,8.64,8.64,0,0,0,.72-3.9V14a8.55,8.55,0,0,0-.72-3.87,2.66,2.66,0,0,0-2.6-1.39A2.65,2.65,0,0,0,30,10.15,8.55,8.55,0,0,0,29.24,14V17.6A8.55,8.55,0,0,0,30,21.47a2.65,2.65,0,0,0,2.6,1.39ZM43.9,26.07V5.55h7.93A7.49,7.49,0,0,1,54.51,6a5.32,5.32,0,0,1,2,1.31,5.49,5.49,0,0,1,1.22,2,8.25,8.25,0,0,1,.41,2.71,8.14,8.14,0,0,1-.41,2.7,5.53,5.53,0,0,1-1.22,2.06,5.44,5.44,0,0,1-2,1.31,7.49,7.49,0,0,1-2.68.45H48.34v7.47Zm4.44-11h2.38a3.08,3.08,0,0,0,2.16-.59,2.64,2.64,0,0,0,.6-1.94v-.88a2.64,2.64,0,0,0-.6-1.94,3.08,3.08,0,0,0-2.16-.59H48.34v5.94Zm13,11V5.55H74.46V9.17h-8.7v4.7h8.41v3.61H65.76v5h8.7v3.62ZM82.51,12.43h-.32V26.07H78.43V5.55h5.29l4.67,13.64h.32V5.55h3.76V26.07H87.19Z" style="fill: #000003"/>
</svg>
