<?xml version="1.0" standalone="no"?>
<!DOCTYPE svg PUBLIC "-//W3C//DTD SVG 1.1//EN" "http://www.w3.org/Graphics/SVG/1.1/DTD/svg11.dtd" >
<svg>
<metadata>
Created by FontForge 20110222 at Sat Nov  1 08:35:55 2014
 By deploy user
Copyright (c) 2012 by Frantisek Storm. www.stormtype.com. All rights reserved.
</metadata>
<defs>
<font id="TriviaSansRegular-Italic" horiz-adv-x="591" >
  <font-face 
    font-family="Trivia Sans Regular"
    font-weight="400"
    font-style="italic"
    font-stretch="normal"
    units-per-em="1000"
    panose-1="2 0 5 6 9 0 0 2 0 3"
    ascent="800"
    descent="-200"
    x-height="500"
    cap-height="700"
    bbox="-125 -228 1363 875"
    underline-thickness="50"
    underline-position="-100"
    slope="-12"
    unicode-range="U+0020-F6C3"
  />
<missing-glyph horiz-adv-x="225" 
 />
    <glyph glyph-name="f_f" unicode="ff" horiz-adv-x="619" 
d="M340 710q35 0 70 -7l-13 -72q-29 8 -60 8q-81 0 -98 -89l-8 -50h204l8 49q14 79 63 120t124 41q35 0 71 -7l-13 -72q-31 8 -60 8q-81 0 -98 -89l-8 -50h143l-12 -67h-144l-110 -633h-86l110 633h-204l-110 -633h-87l111 633h-78l13 67h77l8 49q14 79 63 120t124 41z" />
    <glyph glyph-name="f_i" unicode="fi" horiz-adv-x="550" 
d="M340 710q32 0 55 -5l-13 -71q-19 5 -47 5q-79 0 -96 -89l-8 -50h286l-88 -500h-86l76 433h-200l-110 -633h-87l111 633h-78l13 67h77l8 49q14 79 63 120t124 41zM458 664h89l-14 -80h-89z" />
    <glyph glyph-name="f_j" unicode="fj" horiz-adv-x="550" 
d="M340 710q32 0 55 -5l-13 -71q-19 5 -47 5q-79 0 -96 -89l-8 -50h286l-97 -555q-14 -77 -69 -116t-124 -40l12 69q41 0 63.5 19.5t31.5 72.5l85 483h-200l-76 -433h-86l76 433h-78l13 67h77l8 49q14 79 63 120t124 41zM458 664h89l-14 -80h-89z" />
    <glyph glyph-name="f_l" unicode="fl" horiz-adv-x="549" 
d="M383 710q78 0 168 -17l-122 -693h-86l110 631q-35 8 -86 8q-111 0 -128 -89l-8 -50h133l-12 -67h-133l-111 -633h-86l111 633h-78l13 67h77l8 49q14 79 76 120t154 41z" />
    <glyph glyph-name="f_f_i" unicode="ffi" horiz-adv-x="839" 
d="M340 710q35 0 70 -7l-13 -72q-29 8 -60 8q-81 0 -98 -89l-8 -50h204l8 49q14 79 63 120t124 41q32 0 55 -5l-12 -71q-20 5 -48 5q-78 0 -95 -89l-8 -50h286l-88 -500h-87l76 433h-200l-110 -633h-86l110 633h-204l-110 -633h-87l111 633h-78l13 67h77l8 49q14 79 63 120
t124 41zM823 584h-88l14 80h89z" />
    <glyph glyph-name="f_f_j" unicode="ffj" horiz-adv-x="839" 
d="M340 710q35 0 70 -7l-13 -72q-29 8 -60 8q-81 0 -98 -89l-8 -50h204l8 49q14 79 63 120t124 41q32 0 55 -5l-12 -71q-20 5 -48 5q-78 0 -95 -89l-8 -50h286l-99 -555q-13 -78 -68.5 -117t-124.5 -39l13 69q41 0 63.5 19.5t31.5 71.5l85 484h-200l-75 -433h-87l76 433
h-204l-110 -633h-86l110 633h-78l13 67h77l8 49q14 79 63 120t124 41zM749 664h89l-15 -80h-88z" />
    <glyph glyph-name="f_f_k" unicode="ffk" horiz-adv-x="1100" 
d="M340 710q35 0 70 -7l-13 -72q-29 8 -60 8q-81 0 -98 -89l-8 -50h204l8 49q14 79 76 120t154 41q83 0 173 -17l-122 -693h-86l110 631q-37 8 -90 8q-111 0 -128 -89l-8 -50h135l-13 -67h-135l-110 -633h-86l110 633h-204l-110 -633h-86l110 633h-78l13 67h77l8 49
q14 79 63 120t124 41zM1018 500h105l-247 -226l175 -274h-104l-167 271z" />
    <glyph glyph-name="f_f_l" unicode="ffl" horiz-adv-x="839" 
d="M340 710q35 0 70 -7l-13 -72q-29 8 -60 8q-81 0 -98 -89l-8 -50h204l8 49q14 79 76 120t154 41q77 0 169 -17l-122 -693h-87l111 631q-37 8 -85 8q-112 0 -129 -89l-8 -50h132l-12 -67h-133l-110 -633h-86l110 633h-204l-110 -633h-87l111 633h-78l13 67h77l8 49
q14 79 63 120t124 41z" />
    <glyph glyph-name="T_h" unicode="Th" horiz-adv-x="1071" 
d="M94 700h662l-53 -298q62 108 183 108q78 0 109 -48t16 -136l-57 -326h-87l54 309q23 127 -78 127q-57 0 -102.5 -41t-60.5 -123l-47 -272h-86l109 626h-246l-110 -626h-94l110 626h-235z" />
    <glyph glyph-name=".notdef" horiz-adv-x="225" 
 />
    <glyph glyph-name=".null" horiz-adv-x="0" 
 />
    <glyph glyph-name="nonmarkingreturn" horiz-adv-x="333" 
 />
    <glyph glyph-name="space" unicode=" " horiz-adv-x="225" 
 />
    <glyph glyph-name="exclam" unicode="!" horiz-adv-x="288" 
d="M173 700h108l-106 -523h-81zM74 90h90l-15 -90h-90z" />
    <glyph glyph-name="quotedbl" unicode="&#x22;" horiz-adv-x="330" 
d="M165 501h-49l15 213h94zM311 501h-49l14 213h94z" />
    <glyph glyph-name="numbersign" unicode="#" horiz-adv-x="666" 
d="M206 0h-82l33 191h-105l12 65h105l33 187h-105l12 65h104l34 192h82l-34 -192h174l34 192h82l-34 -192h105l-12 -65h-104l-33 -187h105l-12 -65h-105l-33 -191h-82l33 191h-174zM284 443l-33 -187h174l33 187h-174z" />
    <glyph glyph-name="dollar" unicode="$" horiz-adv-x="603" 
d="M270 -98h-55l15 89q-100 7 -153 59t-48 130h89q-1 -47 30.5 -78t94.5 -37l46 258q-52 10 -81 19t-63.5 28.5t-46 53.5t-2.5 84q14 79 82.5 136t178.5 65l15 81h55l-15 -81q100 -7 151 -57.5t49 -129.5h-89q0 46 -30 76t-94 36l-42 -238q54 -11 84 -20t67 -29.5t49.5 -56
t3.5 -87.5q-15 -85 -89 -145.5t-187 -66.5zM469 189q10 56 -24 82.5t-103 41.5l-44 -248q75 6 118.5 41.5t52.5 82.5zM185 515q-8 -48 23 -71.5t96 -37.5l40 228q-73 -6 -112 -39.5t-47 -79.5z" />
    <glyph glyph-name="percent" unicode="%" horiz-adv-x="827" 
d="M287 647q-47 0 -78.5 -34.5t-42.5 -94.5q-10 -59 10.5 -94t65.5 -35q48 0 79 34.5t42 94.5q10 59 -10.5 94t-65.5 35zM298 710q78 0 114 -53t21 -139q-15 -85 -70 -139t-132 -54q-78 0 -113.5 53t-21.5 139q15 85 70 139t132 54zM715 700h97l-657 -700h-97zM627 312
q-47 0 -78.5 -34.5t-42.5 -94.5q-10 -59 10.5 -93.5t65.5 -34.5q48 0 79 34t42 94q10 59 -10.5 94t-65.5 35zM638 375q78 0 114 -53t21 -139q-15 -85 -70 -139t-132 -54q-78 0 -113.5 53t-21.5 139q15 85 70 139t132 54z" />
    <glyph glyph-name="ampersand" unicode="&#x26;" horiz-adv-x="780" 
d="M463 710q100 0 145.5 -41t33.5 -107q-7 -39 -37 -72t-76 -49h257q-26 -139 -99.5 -244t-166 -156t-190.5 -51q-146 0 -216.5 95t-43.5 246q29 164 139.5 271.5t253.5 107.5zM344 72q112 0 207.5 85t121.5 219h-495q-8 -23 -13 -55q-20 -114 29 -181.5t150 -67.5zM444 634
q-80 0 -144 -51.5t-99 -141.5h200q57 0 94 29t44 71q7 41 -16 67t-79 26z" />
    <glyph glyph-name="quotesingle" unicode="'" horiz-adv-x="184" 
d="M165 501h-49l15 213h94z" />
    <glyph glyph-name="parenleft" unicode="(" horiz-adv-x="346" 
d="M423 710l-11 -58q-83 -10 -145.5 -116t-94.5 -287q-32 -180 -6.5 -286t104.5 -116l-10 -58q-115 11 -166.5 133.5t-16.5 326.5q36 204 131 326.5t215 134.5z" />
    <glyph glyph-name="parenright" unicode=")" horiz-adv-x="346" 
d="M93 710q116 -12 167 -134t15 -326q-35 -204 -130 -327t-214 -134l10 58q83 10 145.5 115.5t94.5 287.5q32 180 6.5 286t-104.5 116z" />
    <glyph glyph-name="asterisk" unicode="*" horiz-adv-x="451" 
d="M271 700h73l-31 -130l135 46l10 -69l-136 -30l65 -110l-65 -42l-52 116l-93 -116l-50 42l105 110l-126 30l35 69l116 -46z" />
    <glyph glyph-name="plus" unicode="+" 
d="M389 554l-39 -217h218l-14 -72h-217l-38 -217h-72l38 217h-216l13 72h215l39 217h73z" />
    <glyph glyph-name="comma" unicode="," horiz-adv-x="228" 
d="M-21 -138l87 241h94l-125 -241h-56z" />
    <glyph glyph-name="hyphen" unicode="-" horiz-adv-x="336" 
d="M292 264h-236l13 73h236z" />
    <glyph glyph-name="hyphen" unicode="&#xad;" horiz-adv-x="336" 
d="M292 264h-236l13 73h236z" />
    <glyph glyph-name="period" unicode="." horiz-adv-x="227" 
d="M44 97h92l-16 -97h-93z" />
    <glyph glyph-name="slash" unicode="/" horiz-adv-x="471" 
d="M448 700h90l-471 -700h-91z" />
    <glyph glyph-name="zero" unicode="0" 
d="M365 627q-80 0 -132 -74t-75 -203t3 -203t107 -74q80 0 132 74t75 203t-3.5 203t-106.5 74zM380 710q116 0 168.5 -94.5t22.5 -265.5t-116 -265.5t-202 -94.5q-115 0 -168 94.5t-23 265.5q31 171 117 265.5t201 94.5z" />
    <glyph glyph-name="one" unicode="1" 
d="M484 0h-344l13 74h137l96 540l-189 -113l-25 65l229 134h90l-111 -626h117z" />
    <glyph glyph-name="two" unicode="2" 
d="M496 0h-480l13 73q176 108 273.5 184.5t134.5 128t47 110.5q11 59 -16.5 98.5t-96.5 39.5q-138 0 -178 -132h-83q22 96 98.5 152t181.5 56q110 0 157.5 -58.5t32.5 -149.5q-19 -104 -111.5 -195.5t-327.5 -232.5h367z" />
    <glyph glyph-name="three" unicode="3" 
d="M274 324l13 70q95 0 141 32t57 96q22 117 -119 117q-135 0 -169 -116h-85q22 86 95.5 136.5t175.5 50.5q110 0 161.5 -49t37.5 -129q-28 -155 -209 -172q88 -6 129 -50t28 -123q-15 -85 -92 -141t-187 -56q-102 0 -159 52t-47 139h86q-4 -58 29.5 -89t104.5 -31
q72 0 117 37t55 93q12 66 -26.5 99.5t-136.5 33.5z" />
    <glyph glyph-name="four" unicode="4" 
d="M408 0h-91l35 199h-310l13 75l366 426h110l-75 -427h99l-13 -74h-100zM366 273l58 336l-289 -336h231z" />
    <glyph glyph-name="five" unicode="5" 
d="M183 700h397l-13 -74h-321l-43 -187q71 13 136 13q111 0 165.5 -60t37.5 -159q-19 -106 -102 -174.5t-196 -68.5q-103 0 -155.5 51.5t-42.5 141.5h83q-5 -59 27 -91t103 -32q74 0 125 46.5t64 119.5q13 72 -22 114.5t-124 42.5q-102 0 -199 -18z" />
    <glyph glyph-name="six" unicode="6" 
d="M405 710q90 0 142.5 -49t45.5 -130h-85q1 54 -30.5 82.5t-85.5 28.5q-86 0 -146 -74t-85 -201q87 89 203 89q110 0 154.5 -64t28.5 -157q-18 -103 -95 -174t-192 -71q-123 0 -174 92.5t-22 257.5q30 169 120.5 269.5t220.5 100.5zM151 304q-15 -111 16.5 -174.5
t110.5 -63.5q74 0 119.5 44.5t58.5 118.5q13 70 -15 115t-107 45q-101 0 -183 -85z" />
    <glyph glyph-name="seven" unicode="7" 
d="M229 0h-98l385 626h-391l13 74h481l-13 -74z" />
    <glyph glyph-name="eight" unicode="8" 
d="M367 638q-67 0 -109 -33t-51 -85q-10 -60 22.5 -91.5t95.5 -31.5t107 31.5t54 91.5q9 52 -21.5 85t-97.5 33zM313 329q-69 0 -119 -31.5t-62 -100.5q-10 -60 24 -96t111 -36q75 0 122 36t58 96q12 69 -26.5 100.5t-107.5 31.5zM380 710q109 0 160 -51t36 -131
q-11 -63 -58.5 -107t-123.5 -56q76 -6 114 -55t25 -126q-16 -90 -89 -142t-191 -52t-173 52t-39 142q14 76 69.5 124.5t132.5 54.5q-70 13 -102.5 57.5t-21.5 108.5q14 80 83 130.5t178 50.5z" />
    <glyph glyph-name="nine" unicode="9" 
d="M373 710q124 0 174.5 -92t21.5 -258q-30 -169 -120 -269.5t-221 -100.5q-91 0 -143.5 47t-44.5 132h83q-3 -54 30 -82.5t88 -28.5q86 0 146 74t85 201q-87 -89 -203 -89q-75 0 -121 32.5t-59 80.5t-3 108q18 103 95 174t192 71zM356 634q-74 0 -120 -44.5t-59 -118.5
q-13 -70 15 -115t107 -45q103 0 183 85q16 111 -15.5 174.5t-110.5 63.5z" />
    <glyph glyph-name="colon" unicode=":" horiz-adv-x="227" 
d="M44 97h92l-16 -97h-93zM115 500h93l-18 -97h-92z" />
    <glyph glyph-name="semicolon" unicode=";" horiz-adv-x="230" 
d="M115 500h93l-18 -97h-92zM-61 -138l87 241h94l-125 -241h-56z" />
    <glyph glyph-name="less" unicode="&#x3c;" 
d="M581 511l-417 -209l343 -208l-46 -64l-394 244l10 57l480 244z" />
    <glyph glyph-name="equal" unicode="=" 
d="M534 152h-505l13 73h505zM575 377h-506l12 73h506z" />
    <glyph glyph-name="greater" unicode="&#x3e;" horiz-adv-x="583" 
d="M35 94l417 209l-343 208l46 64l394 -244l-10 -57l-480 -244z" />
    <glyph glyph-name="question" unicode="?" horiz-adv-x="545" 
d="M363 710q105 0 151.5 -52t32.5 -130q-9 -51 -38.5 -93.5t-66.5 -71.5t-74 -57t-65.5 -64t-36.5 -78h-81q9 53 38.5 96.5t65.5 73.5t72 57.5t63.5 62t34.5 74.5q8 44 -18.5 76t-92.5 32t-102.5 -28.5t-55.5 -81.5h-88q28 85 94 134.5t167 49.5zM167 90h91l-15 -90h-91z
" />
    <glyph glyph-name="at" unicode="@" horiz-adv-x="844" 
d="M436 410q-72 0 -114 -66t-42 -148q0 -47 23.5 -73.5t67.5 -26.5q75 0 118 65t43 145q0 104 -96 104zM478 608q151 0 230.5 -79t79.5 -207q0 -119 -59.5 -203.5t-150.5 -84.5q-71 0 -71 67q0 19 5 43q-23 -49 -66.5 -77t-99.5 -28q-64 0 -102.5 39.5t-38.5 106.5
q0 107 60.5 195.5t161.5 88.5q57 0 88 -30.5t36 -77.5l20 93h63l-57 -273q-5 -25 -5 -48q0 -37 29 -37q48 0 84 67t36 156q0 108 -61.5 171t-183.5 63q-158 0 -254.5 -106.5t-96.5 -257.5q0 -114 64.5 -178t177.5 -64q68 0 130 29l4 -58q-67 -30 -144 -30q-137 0 -219 82.5
t-82 220.5q0 112 51.5 207t149.5 152.5t221 57.5z" />
    <glyph glyph-name="A" unicode="A" horiz-adv-x="633" 
d="M332 700h136l126 -700h-104l-34 201h-294l-105 -201h-98zM387 642q-17 -43 -48 -101l-142 -268h249l-48 269q-3 19 -11 100z" />
    <glyph glyph-name="B" unicode="B" horiz-adv-x="671" 
d="M210 396h183q67 0 103.5 34t44.5 85q9 50 -16 80.5t-92 30.5h-182zM361 0h-314l123 700h300q99 0 142 -48t30 -119q-11 -65 -53 -109t-117 -56q78 -10 112.5 -59t22.5 -119q-14 -81 -79.5 -135.5t-166.5 -54.5zM153 74h194q74 0 115.5 35t51.5 91t-20.5 93t-102.5 37
h-193z" />
    <glyph glyph-name="C" unicode="C" horiz-adv-x="695" 
d="M564 206h97q-34 -97 -121.5 -156.5t-201.5 -59.5q-149 0 -219 102.5t-43 257.5q28 155 134 257.5t255 102.5q114 0 180.5 -59.5t66.5 -156.5h-97q-3 62 -46.5 98t-118.5 36q-108 0 -178.5 -76t-93.5 -202q-22 -126 22 -202t152 -76q75 0 131.5 36t80.5 98z" />
    <glyph glyph-name="D" unicode="D" horiz-adv-x="724" 
d="M333 0h-286l123 700h282q139 0 203 -93.5t35 -253.5q-28 -160 -123.5 -256.5t-233.5 -96.5zM153 74h173q107 0 174.5 73t90.5 206q23 132 -20.5 202.5t-149.5 70.5h-170z" />
    <glyph glyph-name="E" unicode="E" horiz-adv-x="604" 
d="M517 0h-470l123 700h464l-13 -74h-370l-40 -227h311l-13 -72h-311l-45 -253h376z" />
    <glyph glyph-name="F" unicode="F" horiz-adv-x="569" 
d="M170 700h467l-13 -74h-373l-43 -244h314l-13 -72h-314l-54 -310h-94z" />
    <glyph glyph-name="G" unicode="G" horiz-adv-x="755" 
d="M466 710q115 0 180.5 -59t65.5 -156h-97q-3 62 -46 97.5t-118 35.5q-108 0 -179.5 -76t-93.5 -202q-22 -129 21 -204t151 -75q87 0 152.5 58.5t84.5 169.5h-204l12 69h298l-64 -368h-89l27 158q-79 -168 -249 -168q-130 0 -200 99t-41 261q27 154 134 257t255 103z" />
    <glyph glyph-name="H" unicode="H" horiz-adv-x="694" 
d="M567 0h-94l57 326h-332l-57 -326h-94l123 700h94l-53 -300h332l53 300h94z" />
    <glyph glyph-name="I" unicode="I" horiz-adv-x="268" 
d="M141 0h-94l123 700h94z" />
    <glyph glyph-name="J" unicode="J" horiz-adv-x="536" 
d="M440 700h94l-90 -508q-16 -93 -86 -147.5t-176 -54.5q-90 0 -138.5 49t-45.5 130h98q-3 -43 23 -71t81 -28q128 0 150 120z" />
    <glyph glyph-name="K" unicode="K" horiz-adv-x="626" 
d="M141 0h-94l123 700h94zM579 0h-115l-250 367l354 333h111l-354 -328z" />
    <glyph glyph-name="L" unicode="L" horiz-adv-x="540" 
d="M490 0h-443l123 700h94l-111 -626h349z" />
    <glyph glyph-name="M" unicode="M" horiz-adv-x="861" 
d="M170 700h147l91 -511q1 -12 4 -80q17 55 32 81l267 510h147l-123 -700h-94l97 548q4 26 16 81q-19 -47 -33 -78l-291 -551h-78l-98 552q-3 19 -5 75q-1 -14 -6 -44.5t-6 -34.5l-97 -548h-93z" />
    <glyph glyph-name="N" unicode="N" horiz-adv-x="700" 
d="M170 700h133l185 -519q10 -32 15 -73q4 43 11 82l90 510h93l-123 -700h-121l-191 545q-9 30 -15 73q-2 -17 -11 -76l-95 -542h-94z" />
    <glyph glyph-name="O" unicode="O" horiz-adv-x="756" 
d="M448 628q-108 0 -177.5 -76t-92.5 -202q-22 -126 21.5 -202t151.5 -76q107 0 177 76t92 202q23 126 -20.5 202t-151.5 76zM463 710q149 0 217.5 -102.5t40.5 -257.5q-27 -155 -131.5 -257.5t-253.5 -102.5q-148 0 -217.5 102.5t-42.5 257.5q28 155 133.5 257.5
t253.5 102.5z" />
    <glyph glyph-name="P" unicode="P" horiz-adv-x="634" 
d="M476 700q100 0 142.5 -58.5t26.5 -149.5q-16 -95 -79.5 -155.5t-169.5 -60.5h-207l-48 -276h-94l123 700h306zM441 626h-190l-50 -281h191q66 0 105 39t51 105q25 137 -107 137z" />
    <glyph glyph-name="Q" unicode="Q" horiz-adv-x="756" 
d="M463 710q149 0 217.5 -102.5t40.5 -257.5q-17 -98 -67 -177.5t-124 -126.5l104 -166h-102l-78 129q-59 -19 -118 -19q-148 0 -217.5 102.5t-42.5 257.5q28 155 133.5 257.5t253.5 102.5zM332 211h96l60 -98q103 72 132 237q23 126 -20.5 202t-151.5 76t-177.5 -76
t-92.5 -202q-22 -126 21.5 -202t151.5 -76q33 0 60 7z" />
    <glyph glyph-name="R" unicode="R" horiz-adv-x="667" 
d="M562 0h-94q13 75 15 129.5t-4.5 87t-23 51.5t-35.5 25.5t-47 6.5h-179l-53 -300h-94l123 700h311q102 0 143.5 -51.5t27.5 -133.5q-14 -76 -61.5 -122.5t-126.5 -56.5q26 -4 45.5 -14.5t36.5 -34t24.5 -59t6 -94t-14.5 -134.5zM206 373h194q128 0 151 130
q22 123 -107 123h-193z" />
    <glyph glyph-name="S" unicode="S" horiz-adv-x="646" 
d="M409 710q115 0 175.5 -52.5t55.5 -135.5h-98q2 113 -148 113q-82 0 -126.5 -33t-52.5 -83q-10 -58 26 -81.5t118 -34.5q123 -14 185 -58.5t45 -139.5q-16 -93 -99 -154t-211 -61q-116 0 -178.5 53.5t-57.5 136.5h98q-2 -52 36 -84t118 -32q82 0 130.5 36.5t58.5 91.5
q11 63 -29.5 88.5t-131.5 38.5q-120 16 -173.5 57t-37.5 135q15 84 93.5 141.5t203.5 57.5z" />
    <glyph glyph-name="T" unicode="T" horiz-adv-x="586" 
d="M300 0h-94l110 626h-235l13 74h564l-13 -74h-235z" />
    <glyph glyph-name="U" unicode="U" horiz-adv-x="698" 
d="M519 212l85 488h95l-89 -506q-17 -97 -103.5 -150.5t-201.5 -53.5q-114 0 -179.5 53.5t-48.5 150.5l89 506h95l-86 -488q-13 -71 25 -107t121 -36q171 0 198 143z" />
    <glyph glyph-name="V" unicode="V" horiz-adv-x="623" 
d="M82 700h102l95 -555q4 -30 6 -65q9 25 30 65l292 555h100l-372 -700h-129z" />
    <glyph glyph-name="W" unicode="W" horiz-adv-x="951" 
d="M103 700h98l47 -528q4 -47 3 -80q17 49 31 80l234 528h87l48 -528q3 -72 3 -80q17 50 31 80l236 528h93l-317 -700h-115l-46 482q-3 34 -1 82q-17 -50 -30 -82l-215 -482h-115z" />
    <glyph glyph-name="X" unicode="X" horiz-adv-x="649" 
d="M97 700h117l124 -231q14 -31 21 -57q11 19 43 58l204 230h109l-310 -344l197 -356h-118l-129 240q-15 30 -22 59q-17 -29 -45 -60l-211 -239h-110l319 354z" />
    <glyph glyph-name="Y" unicode="Y" horiz-adv-x="623" 
d="M319 0h-94l55 316l-200 384h112l152 -304l262 304h103l-335 -384z" />
    <glyph glyph-name="Z" unicode="Z" horiz-adv-x="622" 
d="M546 0h-545l12 75l523 551h-415l13 74h525l-13 -75l-521 -551h433z" />
    <glyph glyph-name="bracketleft" unicode="[" horiz-adv-x="338" 
d="M227 -211h-213l161 911h213l-9 -52h-131l-142 -807h131z" />
    <glyph glyph-name="backslash" unicode="\" horiz-adv-x="416" 
d="M99 700h90l226 -700h-91z" />
    <glyph glyph-name="bracketright" unicode="]" horiz-adv-x="338" 
d="M116 700h214l-161 -911h-213l9 52h131l142 807h-131z" />
    <glyph glyph-name="asciicircum" unicode="^" 
d="M380 710l194 -236l-60 -52l-152 185l-217 -184l-43 51z" />
    <glyph glyph-name="underscore" unicode="_" 
d="M500 -146h-540l13 74h539z" />
    <glyph glyph-name="grave" unicode="`" horiz-adv-x="285" 
d="M128 705l92 11l78 -166h-60z" />
    <glyph glyph-name="a" unicode="a" horiz-adv-x="574" 
d="M300 510q63 0 97.5 -34.5t42.5 -89.5l20 114h86l-87 -500h-87l19 112q-26 -52 -74.5 -87t-107.5 -35q-95 0 -139 71.5t-24 188.5t89.5 188.5t164.5 71.5zM307 438q-67 0 -111.5 -50t-59.5 -138t11.5 -138t93.5 -50q70 0 114.5 52t59.5 131q17 95 -12.5 144t-95.5 49z" />
    <glyph glyph-name="b" unicode="b" horiz-adv-x="574" 
d="M157 700h87l-56 -314q28 55 75 89.5t109 34.5q95 0 139 -71.5t24 -188.5q-21 -117 -90 -188.5t-164 -71.5q-58 0 -95.5 35.5t-45.5 86.5l-19 -112h-87zM340 438q-66 0 -112.5 -49t-63.5 -144q-14 -79 13 -131t97 -52q67 0 111 50t60 138q15 88 -11.5 138t-93.5 50z" />
    <glyph glyph-name="c" unicode="c" horiz-adv-x="511" 
d="M324 510q84 0 135 -48t44 -128h-87q2 48 -26 76.5t-81 28.5q-68 0 -115 -51.5t-61 -137.5q-16 -86 13 -137.5t97 -51.5q52 0 90.5 28.5t52.5 76.5h88q-21 -80 -89 -128t-152 -48q-108 0 -158 71t-29 189t95.5 189t182.5 71z" />
    <glyph glyph-name="d" unicode="d" horiz-adv-x="574" 
d="M300 510q63 0 97.5 -34.5t42.5 -89.5l55 314h87l-123 -700h-87l19 112q-26 -52 -74.5 -87t-107.5 -35q-95 0 -139 71.5t-24 188.5t89.5 188.5t164.5 71.5zM307 438q-67 0 -111.5 -50t-59.5 -138t11.5 -138t93.5 -50q70 0 114.5 52t59.5 131q17 95 -12.5 144t-95.5 49z
" />
    <glyph glyph-name="e" unicode="e" horiz-adv-x="533" 
d="M337 510q85 0 128.5 -36.5t43.5 -88.5q0 -65 -57.5 -105t-175.5 -40h-146q-13 -87 15.5 -134t96.5 -47q50 0 88.5 25t52.5 70h87q-23 -75 -90 -119.5t-149 -44.5q-106 0 -156 71t-29 189q20 116 101.5 188t189.5 72zM323 445q-62 0 -109 -38t-70 -108h136q139 0 139 77
q0 29 -23.5 49t-72.5 20z" />
    <glyph glyph-name="f" unicode="f" horiz-adv-x="329" 
d="M340 710q35 0 70 -7l-13 -72q-29 8 -60 8q-81 0 -98 -89l-8 -50h144l-13 -67h-143l-111 -633h-86l111 633h-78l13 67h77l8 49q14 79 63 120t124 41z" />
    <glyph glyph-name="g" unicode="g" horiz-adv-x="574" 
d="M302 510q63 0 98 -35.5t40 -88.5l20 114h87l-89 -505q-36 -206 -274 -206q-91 0 -141.5 43.5t-41.5 122.5h93q-5 -45 25.5 -71.5t81.5 -26.5q146 0 170 138l21 119q-27 -54 -75 -86.5t-111 -32.5q-95 0 -137.5 69.5t-22.5 185.5t87.5 188t168.5 72zM306 438
q-67 0 -111 -50t-59 -138q-16 -87 11.5 -136.5t94.5 -49.5q70 0 114.5 51t58.5 131q17 94 -12.5 143t-96.5 49z" />
    <glyph glyph-name="h" unicode="h" horiz-adv-x="568" 
d="M162 700h86l-53 -298q63 108 185 108q78 0 110 -48t17 -136l-57 -326h-87l54 309q23 127 -78 127q-58 0 -105 -41t-61 -123l-48 -272h-86z" />
    <glyph glyph-name="i" unicode="i" horiz-adv-x="244" 
d="M154 664h89l-14 -80h-89zM127 500h86l-88 -500h-86z" />
    <glyph glyph-name="j" unicode="j" horiz-adv-x="244" 
d="M127 500h86l-97 -551q-14 -77 -70 -118t-124 -42l13 73q40 0 63 19.5t32 72.5zM154 664h89l-14 -80h-89z" />
    <glyph glyph-name="k" unicode="k" horiz-adv-x="493" 
d="M125 0h-86l123 700h86zM453 0h-105l-167 271l240 229h103l-244 -226z" />
    <glyph glyph-name="l" unicode="l" horiz-adv-x="244" 
d="M125 0h-86l123 700h86z" />
    <glyph glyph-name="m" unicode="m" horiz-adv-x="866" 
d="M127 500h86l-18 -100q64 110 179 110q57 0 87 -34t31 -91q34 61 84 93t107 32q75 0 106.5 -48.5t15.5 -135.5l-57 -326h-86l53 307q24 129 -74 129q-51 0 -96 -40t-60 -120l-49 -276h-86l54 307q23 129 -74 129q-53 0 -98 -41.5t-60 -125.5l-47 -269h-86z" />
    <glyph glyph-name="n" unicode="n" horiz-adv-x="567" 
d="M127 500h86l-18 -98q63 108 182 108q79 0 112 -48.5t18 -135.5l-57 -326h-87l54 309q23 127 -79 127q-58 0 -104.5 -41t-60.5 -123l-48 -272h-86z" />
    <glyph glyph-name="o" unicode="o" horiz-adv-x="542" 
d="M308 439q-67 0 -113 -50.5t-61 -138.5q-16 -88 12.5 -138.5t95.5 -50.5q66 0 112 50.5t62 138.5q15 88 -13 138.5t-95 50.5zM320 510q103 0 153.5 -70.5t30.5 -189.5q-22 -119 -97 -189.5t-178 -70.5q-104 0 -154.5 70.5t-28.5 189.5q21 119 96 189.5t178 70.5z" />
    <glyph glyph-name="p" unicode="p" horiz-adv-x="574" 
d="M373 510q95 0 138.5 -71.5t23.5 -188.5q-21 -117 -89.5 -188.5t-163.5 -71.5q-59 0 -97 34.5t-45 87.5l-55 -312h-87l124 700h87l-21 -114q28 55 75.5 89.5t109.5 34.5zM339 438q-66 0 -112 -49t-63 -144q-14 -79 12.5 -131t96.5 -52q67 0 111.5 50t60.5 138
q15 88 -12 138t-94 50z" />
    <glyph glyph-name="q" unicode="q" horiz-adv-x="574" 
d="M298 510q62 0 98 -35t44 -89l20 114h87l-124 -700h-87l55 312q-26 -53 -75 -87.5t-109 -34.5q-95 0 -138 71.5t-23 188.5t88.5 188.5t163.5 71.5zM305 438q-67 0 -110.5 -50t-58.5 -138t10.5 -138t92.5 -50q70 0 116 52t60 131q17 95 -13.5 144t-96.5 49z" />
    <glyph glyph-name="r" unicode="r" horiz-adv-x="345" 
d="M127 500h86l-21 -118q25 57 74 92.5t114 35.5l-14 -83q-6 2 -20 2q-58 0 -110 -46.5t-67 -133.5l-44 -249h-86z" />
    <glyph glyph-name="s" unicode="s" horiz-adv-x="493" 
d="M298 510q91 0 137 -40t37 -107h-82q6 38 -22 61t-78 23q-57 0 -88.5 -21.5t-37.5 -53.5q-7 -37 19.5 -53.5t80.5 -25.5q42 -6 69.5 -13.5t57.5 -23t42 -44.5t5 -70q-12 -67 -71 -109.5t-163 -42.5q-91 0 -139 41t-39 108h82q-5 -39 25.5 -62t83.5 -23q62 0 95.5 22.5
t39.5 55.5q7 41 -20.5 59.5t-83.5 27.5q-35 5 -56.5 9.5t-49 15.5t-41 25t-21 38.5t-1.5 57.5q10 61 69.5 103t149.5 42z" />
    <glyph glyph-name="t" unicode="t" horiz-adv-x="331" 
d="M162 614h86l-20 -114h144l-13 -67h-143l-49 -275q-16 -96 68 -96q25 0 60 9l-12 -73q-36 -8 -74 -8q-157 0 -130 157l51 286h-78l13 67h77z" />
    <glyph glyph-name="u" unicode="u" horiz-adv-x="567" 
d="M125 500h87l-55 -309q-23 -127 80 -127q58 0 104 41t60 123l49 272h86l-88 -500h-86l17 98q-63 -108 -182 -108q-79 0 -112 48.5t-18 135.5z" />
    <glyph glyph-name="v" unicode="v" horiz-adv-x="473" 
d="M50 500h92l61 -355q5 -29 5 -75q16 45 32 75l192 355h86l-270 -500h-106z" />
    <glyph glyph-name="w" unicode="w" horiz-adv-x="754" 
d="M58 500h87l41 -356q2 -23 2 -71q14 41 28 71l168 356h84l42 -356q3 -23 3 -71q16 48 27 71l167 356h85l-241 -500h-104l-37 321q-4 53 -3 84q-12 -37 -32 -84l-153 -321h-101z" />
    <glyph glyph-name="x" unicode="x" horiz-adv-x="502" 
d="M69 500h98l84 -150q9 -14 14 -36q13 19 28 36l137 150h92l-219 -240l148 -260h-103l-90 159q-12 22 -16 40q-20 -29 -31 -40l-144 -159h-97l235 255z" />
    <glyph glyph-name="y" unicode="y" horiz-adv-x="473" 
d="M50 500h92l61 -356q5 -29 5 -75q15 42 32 75l192 356h86l-301 -552q-50 -95 -105 -126t-142 -32l14 77q89 0 128 66l33 53z" />
    <glyph glyph-name="z" unicode="z" horiz-adv-x="462" 
d="M394 0h-403l11 67l356 366h-278l12 67h380l-12 -67l-356 -366h301z" />
    <glyph glyph-name="braceleft" unicode="{" horiz-adv-x="370" 
d="M421 709l-7 -58q-67 0 -96.5 -31.5t-40.5 -93.5q-4 -24 -6 -74t-7 -76q-19 -109 -109 -125q84 -17 65 -129q-5 -27 -20 -76t-19 -72q-10 -63 7.5 -95t84.5 -32l-15 -58q-104 0 -140.5 48t-22.5 125q4 21 17 70t17 72q18 111 -55 111h-22l12 69h22q74 0 94 111q3 20 8 69
t9 73q30 172 224 172z" />
    <glyph glyph-name="bar" unicode="|" horiz-adv-x="313" 
d="M124 -211h-90l161 911h90z" />
    <glyph glyph-name="braceright" unicode="}" horiz-adv-x="370" 
d="M104 652l15 57q104 0 140 -47.5t22 -124.5q-4 -24 -16.5 -73t-16.5 -69q-20 -111 55 -111h22l-12 -70h-22q-76 0 -94 -111q-4 -22 -8.5 -70.5t-8.5 -71.5q-30 -172 -223 -172l6 58q67 0 96.5 32t39.5 94q5 25 7.5 74.5t6.5 74.5q19 109 109 125q-84 17 -65 130
q5 26 19.5 75t18.5 72q11 64 -6.5 96t-84.5 32z" />
    <glyph glyph-name="asciitilde" unicode="~" 
d="M258 632q43 0 79.5 -22t66.5 -44t56 -22q30 0 49 15.5t34 53.5l49 -28q-40 -118 -146 -118q-40 0 -74 22t-65.5 44t-63.5 22q-30 0 -49 -16t-33 -54l-50 28q42 119 147 119z" />
    <glyph glyph-name="nbspace" unicode="&#xa0;" horiz-adv-x="225" 
 />
    <glyph glyph-name="exclamdown" unicode="&#xa1;" horiz-adv-x="288" 
d="M120 323h81l-79 -523h-108zM147 500h90l-16 -90h-90z" />
    <glyph glyph-name="cent" unicode="&#xa2;" horiz-adv-x="553" 
d="M273 5h-46l17 95q-94 10 -136 78.5t-22 180.5q19 110 86.5 179t162.5 79l14 80h46l-14 -79q76 -5 119 -50t43 -125h-82q-1 42 -25 71.5t-67 34.5l-68 -381q45 6 79.5 35t51.5 72h82q-28 -79 -88 -125t-137 -51zM167 359q-14 -78 9 -129t80 -61l67 380
q-62 -10 -102.5 -60.5t-53.5 -129.5z" />
    <glyph glyph-name="sterling" unicode="&#xa3;" horiz-adv-x="603" 
d="M416 307h-210q0 -70 -17.5 -127t-68.5 -113h376l-11 -67h-464l11 67q53 59 69 114.5t13 125.5h-70l7 49h59q-6 84 4 137q16 89 88.5 153t192.5 64q106 0 159 -49.5t51 -130.5h-89q-2 105 -136 105q-41 0 -73 -12.5t-51 -33.5t-29.5 -43.5t-14.5 -46.5q-8 -44 -6 -143h218
z" />
    <glyph glyph-name="currency" unicode="&#xa4;" horiz-adv-x="701" 
d="M417 607q88 0 131 -56l151 129l43 -51l-157 -134q20 -58 6 -136q-14 -79 -54 -137l110 -133l-61 -51l-105 127q-64 -54 -151 -54q-89 0 -133 55l-149 -128l-43 52l156 133q-18 57 -4 136q12 76 52 136l-109 133l60 51l105 -128q66 56 152 56zM404 533q-65 0 -107 -48.5
t-55 -125.5q-14 -78 11 -126t90 -48t107 48t56 126q13 77 -12 125.5t-90 48.5z" />
    <glyph glyph-name="yen" unicode="&#xa5;" horiz-adv-x="581" 
d="M523 301h-174l-17 -97h115l-9 -50h-114l-27 -154h-94l27 154h-112l9 50h111l17 97h-170l9 51h148l-155 348h109l127 -300l236 300h101l-279 -348h151z" />
    <glyph glyph-name="brokenbar" unicode="&#xa6;" horiz-adv-x="313" 
d="M228 377h-90l57 323h90zM124 -211h-90l57 323h90z" />
    <glyph glyph-name="section" unicode="&#xa7;" horiz-adv-x="603" 
d="M385 710q112 0 169.5 -52t55.5 -136h-92q0 52 -36 83t-111 31q-69 0 -105 -28t-44 -71q-5 -30 13.5 -50.5t52 -32t74.5 -21.5t81.5 -24t72.5 -34t47.5 -56.5t6.5 -86.5q-16 -86 -92 -140q30 -40 20 -98q-14 -76 -80.5 -124.5t-171.5 -48.5q-111 0 -169 52.5t-56 136.5h92
q0 -52 36 -83t111 -31q130 0 150 98q6 35 -20 57.5t-69.5 33t-93.5 25.5t-92 33t-65 58.5t-13 98.5q16 86 94 142q-27 37 -17 95q13 76 79 124.5t172 48.5zM488 219q8 46 -22.5 76t-74 42t-104.5 30t-94 37q-44 -41 -53 -92q-7 -38 10 -64t52.5 -41t73.5 -25t84.5 -24.5
t74.5 -30.5q43 39 53 92z" />
    <glyph glyph-name="dieresis" unicode="&#xa8;" horiz-adv-x="344" 
d="M188 594h-65l12 70h66zM350 594h-65l12 70h66z" />
    <glyph glyph-name="copyright" unicode="&#xa9;" horiz-adv-x="827" 
d="M482 654q-129 0 -223.5 -85.5t-118.5 -218.5t41 -218.5t194 -85.5q131 0 225 85.5t118 218.5t-40.5 218.5t-195.5 85.5zM492 710q154 0 241 -102t60 -258q-27 -157 -150.5 -258.5t-277.5 -101.5q-152 0 -239.5 101.5t-59.5 258.5q27 157 151 258.5t275 101.5zM471 587
q75 0 118.5 -41.5t44.5 -116.5h-77q-2 44 -28 70.5t-70 26.5q-64 0 -107 -47.5t-58 -128.5q-15 -80 12 -127.5t91 -47.5q44 0 79.5 26.5t52.5 70.5h77q-27 -76 -85 -117.5t-133 -41.5q-99 0 -144 64t-25 173q19 110 86 173.5t166 63.5z" />
    <glyph glyph-name="ordfeminine" unicode="&#xaa;" horiz-adv-x="574" 
d="M300 730q63 0 97.5 -34.5t42.5 -89.5l20 114h86l-87 -500h-87l19 112q-26 -52 -74.5 -87t-107.5 -35q-95 0 -139 71.5t-24 188.5t89.5 188.5t164.5 71.5zM307 658q-67 0 -111.5 -50t-59.5 -138t11.5 -138t93.5 -50q70 0 114.5 52t59.5 131q17 95 -12.5 144t-95.5 49z" />
    <glyph glyph-name="guillemotleft" unicode="&#xab;" horiz-adv-x="561" 
d="M308 497l30 -38l-203 -183l139 -183l-44 -38l-177 191l11 60zM521 497l30 -38l-203 -183l139 -183l-44 -38l-177 191l11 60z" />
    <glyph glyph-name="logicalnot" unicode="&#xac;" 
d="M508 0h-90l46 265h-415l13 72h506z" />
    <glyph glyph-name="registered" unicode="&#xae;" horiz-adv-x="509" 
d="M330 676q-68 0 -122.5 -45t-68.5 -124q-13 -75 23 -121.5t108 -46.5q73 0 125.5 47t65.5 121q14 75 -22 122t-109 47zM336 710q89 0 138 -56.5t33 -146.5q-16 -91 -84.5 -146.5t-157.5 -55.5t-138 55.5t-33 146.5q15 89 85 146t157 57zM234 634h113q40 0 57 -18t12 -47
q-10 -53 -65 -65q24 -4 30.5 -26.5t-3.5 -94.5h-42q10 71 4 89t-30 18h-59l-19 -107h-42zM270 600l-14 -80h62q45 0 52 43q3 19 -5 28t-33 9h-62z" />
    <glyph glyph-name="macron" unicode="&#xaf;" horiz-adv-x="348" 
d="M362 586h-249l10 57h249z" />
    <glyph glyph-name="macron" unicode="&#x2c9;" horiz-adv-x="348" 
d="M362 586h-249l10 57h249z" />
    <glyph glyph-name="degree" unicode="&#xb0;" horiz-adv-x="428" 
d="M287 647q-47 0 -78.5 -34.5t-42.5 -94.5q-10 -59 10.5 -94t65.5 -35q48 0 79 34.5t42 94.5q10 59 -10.5 94t-65.5 35zM298 710q78 0 114 -53t21 -139q-15 -85 -70 -139t-132 -54q-78 0 -113.5 53t-21.5 139q15 85 70 139t132 54z" />
    <glyph glyph-name="plusminus" unicode="&#xb1;" 
d="M371 681l-39 -217h218l-14 -72h-217l-38 -217h-72l38 217h-216l13 72h215l39 217h73zM475 41h-505l13 72h506z" />
    <glyph glyph-name="acute" unicode="&#xb4;" horiz-adv-x="285" 
d="M237 716l89 -11l-165 -155h-61z" />
    <glyph glyph-name="mu" unicode="&#xb5;" horiz-adv-x="576" 
d="M125 500h87l-55 -309q-23 -127 79 -127q57 0 102 41t59 123l49 272h86l-64 -362q-12 -68 41 -68q9 0 23 2l-12 -72q-23 -4 -49 -4q-110 0 -95 109q-26 -51 -71 -83t-106 -32q-72 0 -88 58l-23 -248h-87z" />
    <glyph glyph-name="mu" unicode="&#x3bc;" horiz-adv-x="576" 
d="M125 500h87l-55 -309q-23 -127 79 -127q57 0 102 41t59 123l49 272h86l-64 -362q-12 -68 41 -68q9 0 23 2l-12 -72q-23 -4 -49 -4q-110 0 -95 109q-26 -51 -71 -83t-106 -32q-72 0 -88 58l-23 -248h-87z" />
    <glyph glyph-name="paragraph" unicode="&#xb6;" horiz-adv-x="567" 
d="M305 500h235l-99 -555q-13 -78 -70.5 -119t-126.5 -42l13 71q86 2 100 86l11 59h-147q-100 0 -147 73t-28 179t90 177t169 71z" />
    <glyph glyph-name="periodcentered" unicode="&#xb7;" horiz-adv-x="583" 
d="M265 343h92l-16 -92h-92z" />
    <glyph glyph-name="periodcentered" unicode="&#x2219;" horiz-adv-x="583" 
d="M265 343h92l-16 -92h-92z" />
    <glyph glyph-name="cedilla" unicode="&#xb8;" horiz-adv-x="338" 
d="M90 0h57l-48 -60q16 4 37 4q46 0 70 -21.5t17 -56.5q-7 -42 -48 -68t-98 -26q-72 0 -102 35l31 31q16 -25 75 -25q65 0 76 46q3 24 -14.5 38.5t-59.5 14.5q-15 0 -59 -6z" />
    <glyph glyph-name="ordmasculine" unicode="&#xba;" horiz-adv-x="542" 
d="M308 659q-67 0 -113 -50.5t-61 -138.5q-16 -88 12.5 -138.5t95.5 -50.5q66 0 112 50.5t62 138.5q15 88 -13 138.5t-95 50.5zM320 730q103 0 153.5 -70.5t30.5 -189.5q-22 -119 -97 -189.5t-178 -70.5q-104 0 -154.5 70.5t-28.5 189.5q21 119 96 189.5t178 70.5z" />
    <glyph glyph-name="guillemotright" unicode="&#xbb;" horiz-adv-x="561" 
d="M347 497l177 -191l-11 -60l-244 -191l-30 38l204 183l-140 183zM134 497l177 -191l-11 -60l-244 -191l-30 38l204 183l-140 183z" />
    <glyph glyph-name="onequarter" unicode="&#xbc;" horiz-adv-x="771" 
d="M103 0h-87l659 700h86zM289 345h-227l9 54h86l43 242l-112 -65l-18 46l143 83h69l-54 -306h70zM567 356h78l-38 -212h55l-10 -54h-54l-15 -90h-66l15 90h-172l9 52zM568 294l-138 -150h111z" />
    <glyph glyph-name="onehalf" unicode="&#xbd;" horiz-adv-x="771" 
d="M99 0h-87l659 700h86zM285 345h-227l9 54h86l43 242l-112 -65l-18 46l143 83h69l-54 -306h70zM580 363q64 0 93 -31t20 -78q-9 -50 -53.5 -93t-159.5 -107h180l-9 -54h-284l7 48q135 73 184.5 115t56.5 81q5 28 -8 45.5t-46 17.5q-63 0 -86 -65h-64q14 54 59 87.5
t110 33.5z" />
    <glyph glyph-name="threequarters" unicode="&#xbe;" horiz-adv-x="771" 
d="M96 0h-87l659 700h86zM536 356h78l-38 -212h55l-10 -54h-54l-15 -90h-66l15 90h-172l9 52zM537 294l-138 -150h111zM246 708q65 0 94.5 -25t21.5 -68q-13 -72 -99 -88q41 -6 60.5 -29t12.5 -59q-8 -45 -50.5 -73t-108.5 -28q-61 0 -93.5 29.5t-27.5 77.5h67
q-2 -29 14.5 -43.5t50.5 -14.5t54 16t24 41q5 30 -13.5 45t-64.5 15l8 44q85 0 94 57q5 25 -8 39t-47 14q-64 0 -79 -54h-67q12 47 54 75.5t103 28.5z" />
    <glyph glyph-name="questiondown" unicode="&#xbf;" horiz-adv-x="545" 
d="M285 336h82q-9 -53 -38.5 -96.5t-66 -73.5t-72 -57.5t-63.5 -62t-35 -74.5q-8 -44 19 -76t92 -32q66 0 103 28.5t56 81.5h88q-28 -84 -94.5 -134t-167.5 -50q-104 0 -150.5 52t-32.5 130q9 51 38.5 93.5t66.5 71.5t73.5 57t65.5 64t36 78zM310 500h90l-16 -90h-90z" />
    <glyph glyph-name="Agrave" unicode="&#xc0;" horiz-adv-x="633" 
d="M332 700h136l126 -700h-104l-34 201h-294l-105 -201h-98zM387 642q-17 -43 -48 -101l-142 -268h249l-48 269q-3 19 -11 100zM298 864l83 11l90 -150h-56z" />
    <glyph glyph-name="Aacute" unicode="&#xc1;" horiz-adv-x="633" 
d="M332 700h136l126 -700h-104l-34 201h-294l-105 -201h-98zM387 642q-17 -43 -48 -101l-142 -268h249l-48 269q-3 19 -11 100zM471 875l80 -11l-166 -139h-56z" />
    <glyph glyph-name="Acircumflex" unicode="&#xc2;" horiz-adv-x="633" 
d="M332 700h136l126 -700h-104l-34 201h-294l-105 -201h-98zM387 642q-17 -43 -48 -101l-142 -268h249l-48 269q-3 19 -11 100zM555 735l-57 -10l-82 96l-117 -96l-53 10l144 140h70z" />
    <glyph glyph-name="Atilde" unicode="&#xc3;" horiz-adv-x="633" 
d="M332 700h136l126 -700h-104l-34 201h-294l-105 -201h-98zM387 642q-17 -43 -48 -101l-142 -268h249l-48 269q-3 19 -11 100zM354 843q27 0 49.5 -14.5t40 -28.5t32.5 -14q39 0 53 42l37 -6q-26 -87 -97 -87q-30 0 -66.5 29.5t-58.5 29.5q-40 0 -53 -45l-36 8q24 86 99 86
z" />
    <glyph glyph-name="Adieresis" unicode="&#xc4;" horiz-adv-x="633" 
d="M332 700h136l126 -700h-104l-34 201h-294l-105 -201h-98zM387 642q-17 -43 -48 -101l-142 -268h249l-48 269q-3 19 -11 100zM351 756h-65l12 67h65zM522 756h-66l12 67h66z" />
    <glyph glyph-name="Aring" unicode="&#xc5;" horiz-adv-x="633" 
d="M332 700h136l126 -700h-104l-34 201h-294l-105 -201h-98zM387 642q-17 -43 -48 -101l-142 -268h249l-48 269q-3 19 -11 100zM423 870q49 0 77 -21t21 -59t-41.5 -58t-83.5 -20q-50 0 -77.5 20t-20.5 58t42 59t83 21zM417 834q-30 0 -48.5 -12t-21.5 -32q-4 -22 11.5 -33
t42.5 -11q62 0 71 44q4 22 -12 33t-43 11z" />
    <glyph glyph-name="AE" unicode="&#xc6;" horiz-adv-x="954" 
d="M867 0h-470l35 201h-278l-173 -201h-106l606 700h504l-13 -74h-371l-40 -227h311l-13 -72h-311l-44 -253h375zM211 273h234l59 339z" />
    <glyph glyph-name="Ccedilla" unicode="&#xc7;" horiz-adv-x="695" 
d="M564 206h97q-33 -95 -117.5 -154t-195.5 -62l-40 -50q16 4 37 4q46 0 70 -21.5t17 -56.5q-7 -42 -48 -68t-98 -26q-72 0 -102 35l31 31q16 -25 75 -25q65 0 76 46q3 24 -14.5 38.5t-59.5 14.5q-15 0 -59 -6l61 87q-127 15 -185 115t-33 242q28 155 134 257.5t255 102.5
q114 0 180.5 -59.5t66.5 -156.5h-97q-3 62 -46.5 98t-118.5 36q-108 0 -178.5 -76t-93.5 -202q-22 -126 22 -202t152 -76q75 0 131.5 36t80.5 98z" />
    <glyph glyph-name="Egrave" unicode="&#xc8;" horiz-adv-x="604" 
d="M517 0h-470l123 700h464l-13 -74h-370l-40 -227h311l-13 -72h-311l-45 -253h376zM303 864l83 11l90 -150h-56z" />
    <glyph glyph-name="Eacute" unicode="&#xc9;" horiz-adv-x="604" 
d="M517 0h-470l123 700h464l-13 -74h-370l-40 -227h311l-13 -72h-311l-45 -253h376zM502 875l80 -11l-166 -139h-56z" />
    <glyph glyph-name="Ecircumflex" unicode="&#xca;" horiz-adv-x="604" 
d="M517 0h-470l123 700h464l-13 -74h-370l-40 -227h311l-13 -72h-311l-45 -253h376zM571 735l-57 -10l-82 96l-117 -96l-53 10l144 140h70z" />
    <glyph glyph-name="Edieresis" unicode="&#xcb;" horiz-adv-x="604" 
d="M517 0h-470l123 700h464l-13 -74h-370l-40 -227h311l-13 -72h-311l-45 -253h376zM368 756h-65l12 67h65zM539 756h-66l12 67h66z" />
    <glyph glyph-name="Igrave" unicode="&#xcc;" horiz-adv-x="268" 
d="M141 0h-94l123 700h94zM101 864l83 11l90 -150h-56z" />
    <glyph glyph-name="Iacute" unicode="&#xcd;" horiz-adv-x="268" 
d="M141 0h-94l123 700h94zM300 875l80 -11l-166 -139h-56z" />
    <glyph glyph-name="Icircumflex" unicode="&#xce;" horiz-adv-x="268" 
d="M141 0h-94l123 700h94zM379 735l-57 -10l-82 96l-117 -96l-53 10l144 140h70z" />
    <glyph glyph-name="Idieresis" unicode="&#xcf;" horiz-adv-x="268" 
d="M141 0h-94l123 700h94zM174 756h-65l12 67h65zM345 756h-66l12 67h66z" />
    <glyph glyph-name="Eth" unicode="&#xd0;" horiz-adv-x="724" 
d="M333 0h-286l57 326h-63l13 70h63l53 304h282q139 0 203 -93.5t35 -253.5q-28 -160 -123.5 -256.5t-233.5 -96.5zM153 74h173q107 0 174.5 73t90.5 206q23 132 -20.5 202.5t-149.5 70.5h-170l-41 -230h105l-12 -70h-106z" />
    <glyph glyph-name="Ntilde" unicode="&#xd1;" horiz-adv-x="700" 
d="M170 700h133l185 -519q10 -32 15 -74q4 43 11 83l90 510h93l-123 -700h-121l-191 545q-9 30 -15 73q-2 -17 -11 -76l-95 -542h-94zM390 843q27 0 49.5 -14.5t40 -28.5t32.5 -14q39 0 53 42l37 -6q-26 -87 -97 -87q-30 0 -66.5 29.5t-58.5 29.5q-40 0 -53 -45l-36 8
q24 86 99 86z" />
    <glyph glyph-name="Ograve" unicode="&#xd2;" horiz-adv-x="756" 
d="M448 628q-108 0 -177.5 -76t-92.5 -202q-22 -126 21.5 -202t151.5 -76q107 0 177 76t92 202q23 126 -20.5 202t-151.5 76zM463 710q149 0 217.5 -102.5t40.5 -257.5q-27 -155 -131.5 -257.5t-253.5 -102.5q-148 0 -217.5 102.5t-42.5 257.5q28 155 133.5 257.5
t253.5 102.5zM370 864l83 11l90 -150h-56z" />
    <glyph glyph-name="Oacute" unicode="&#xd3;" horiz-adv-x="756" 
d="M448 628q-108 0 -177.5 -76t-92.5 -202q-22 -126 21.5 -202t151.5 -76q107 0 177 76t92 202q23 126 -20.5 202t-151.5 76zM463 710q149 0 217.5 -102.5t40.5 -257.5q-27 -155 -131.5 -257.5t-253.5 -102.5q-148 0 -217.5 102.5t-42.5 257.5q28 155 133.5 257.5
t253.5 102.5zM525 875l80 -11l-166 -139h-56z" />
    <glyph glyph-name="Ocircumflex" unicode="&#xd4;" horiz-adv-x="756" 
d="M448 628q-108 0 -177.5 -76t-92.5 -202q-22 -126 21.5 -202t151.5 -76q107 0 177 76t92 202q23 126 -20.5 202t-151.5 76zM463 710q149 0 217.5 -102.5t40.5 -257.5q-27 -155 -131.5 -257.5t-253.5 -102.5q-148 0 -217.5 102.5t-42.5 257.5q28 155 133.5 257.5
t253.5 102.5zM622 735l-57 -10l-82 96l-117 -96l-53 10l144 140h70z" />
    <glyph glyph-name="Otilde" unicode="&#xd5;" horiz-adv-x="756" 
d="M448 628q-108 0 -177.5 -76t-92.5 -202q-22 -126 21.5 -202t151.5 -76q107 0 177 76t92 202q23 126 -20.5 202t-151.5 76zM463 710q149 0 217.5 -102.5t40.5 -257.5q-27 -155 -131.5 -257.5t-253.5 -102.5q-148 0 -217.5 102.5t-42.5 257.5q28 155 133.5 257.5
t253.5 102.5zM420 843q27 0 49.5 -14.5t40 -28.5t32.5 -14q39 0 53 42l37 -6q-26 -87 -97 -87q-30 0 -66.5 29.5t-58.5 29.5q-40 0 -53 -45l-36 8q24 86 99 86z" />
    <glyph glyph-name="Odieresis" unicode="&#xd6;" horiz-adv-x="756" 
d="M448 628q-108 0 -177.5 -76t-92.5 -202q-22 -126 21.5 -202t151.5 -76q107 0 177 76t92 202q23 126 -20.5 202t-151.5 76zM463 710q149 0 217.5 -102.5t40.5 -257.5q-27 -155 -131.5 -257.5t-253.5 -102.5q-148 0 -217.5 102.5t-42.5 257.5q28 155 133.5 257.5
t253.5 102.5zM418 756h-65l12 67h65zM589 756h-66l12 67h66z" />
    <glyph glyph-name="multiply" unicode="&#xd7;" 
d="M165 537l151 -185l218 185l42 -51l-217 -185l152 -185l-61 -51l-152 184l-216 -184l-43 52l216 184l-151 184z" />
    <glyph glyph-name="Oslash" unicode="&#xd8;" horiz-adv-x="756" 
d="M663 700h86l-74 -85q76 -102 46 -265q-27 -155 -131.5 -257.5t-253.5 -102.5q-99 0 -165 49l-34 -39h-87l74 84q-77 102 -48 266q28 155 133.5 257.5t253.5 102.5q98 0 166 -49zM448 628q-108 0 -177.5 -76t-92.5 -202q-20 -117 14 -188l375 428q-46 38 -119 38zM620 350
q20 115 -14 187l-374 -428q45 -37 119 -37q107 0 177 76t92 202z" />
    <glyph glyph-name="Ugrave" unicode="&#xd9;" horiz-adv-x="698" 
d="M519 212l85 488h95l-89 -506q-17 -97 -103.5 -150.5t-201.5 -53.5q-114 0 -179.5 53.5t-48.5 150.5l89 506h95l-86 -488q-13 -71 25 -107t121 -36q171 0 198 143zM351 864l83 11l90 -150h-56z" />
    <glyph glyph-name="Uacute" unicode="&#xda;" horiz-adv-x="698" 
d="M519 212l85 488h95l-89 -506q-17 -97 -103.5 -150.5t-201.5 -53.5q-114 0 -179.5 53.5t-48.5 150.5l89 506h95l-86 -488q-13 -71 25 -107t121 -36q171 0 198 143zM505 875l80 -11l-166 -139h-56z" />
    <glyph glyph-name="Ucircumflex" unicode="&#xdb;" horiz-adv-x="698" 
d="M519 212l85 488h95l-89 -506q-17 -97 -103.5 -150.5t-201.5 -53.5q-114 0 -179.5 53.5t-48.5 150.5l89 506h95l-86 -488q-13 -71 25 -107t121 -36q171 0 198 143zM593 735l-57 -10l-82 96l-117 -96l-53 10l144 140h70z" />
    <glyph glyph-name="Udieresis" unicode="&#xdc;" horiz-adv-x="698" 
d="M519 212l85 488h95l-89 -506q-17 -97 -103.5 -150.5t-201.5 -53.5q-114 0 -179.5 53.5t-48.5 150.5l89 506h95l-86 -488q-13 -71 25 -107t121 -36q171 0 198 143zM388 756h-65l12 67h65zM559 756h-66l12 67h66z" />
    <glyph glyph-name="Yacute" unicode="&#xdd;" horiz-adv-x="623" 
d="M319 0h-94l55 316l-200 384h112l152 -304l262 304h103l-335 -384zM474 875l80 -11l-166 -139h-56z" />
    <glyph glyph-name="Thorn" unicode="&#xde;" horiz-adv-x="634" 
d="M141 0h-94l123 700h94l-21 -121h211q100 0 143 -58.5t27 -149.5q-17 -96 -80 -156t-169 -60h-207zM229 505l-49 -281h191q66 0 105 39t50 105q25 137 -106 137h-191z" />
    <glyph glyph-name="germandbls" unicode="&#xdf;" horiz-adv-x="560" 
d="M373 710q94 0 142 -46.5t34 -123.5q-26 -150 -195 -165q184 -22 157 -181q-14 -83 -88 -141.5t-186 -58.5q-27 0 -55 6l13 72q28 -5 50 -5q76 0 119 38t53 96q12 66 -25 98.5t-131 32.5l12 70q88 0 129.5 30.5t52.5 92.5q9 50 -13.5 82t-84.5 32q-119 0 -140 -112
l-92 -527h-86l92 528q16 85 81.5 133.5t160.5 48.5z" />
    <glyph glyph-name="agrave" unicode="&#xe0;" horiz-adv-x="574" 
d="M300 510q63 0 97.5 -34.5t42.5 -89.5l20 114h86l-87 -500h-87l19 112q-26 -52 -74.5 -87t-107.5 -35q-95 0 -139 71.5t-24 188.5t89.5 188.5t164.5 71.5zM307 438q-67 0 -111.5 -50t-59.5 -138t11.5 -138t93.5 -50q70 0 114.5 52t59.5 131q17 95 -12.5 144t-95.5 49z
M253 705l92 11l78 -166h-60z" />
    <glyph glyph-name="aacute" unicode="&#xe1;" horiz-adv-x="574" 
d="M300 510q63 0 97.5 -34.5t42.5 -89.5l20 114h86l-87 -500h-87l19 112q-26 -52 -74.5 -87t-107.5 -35q-95 0 -139 71.5t-24 188.5t89.5 188.5t164.5 71.5zM307 438q-67 0 -111.5 -50t-59.5 -138t11.5 -138t93.5 -50q70 0 114.5 52t59.5 131q17 95 -12.5 144t-95.5 49z
M423 716l89 -11l-165 -155h-61z" />
    <glyph glyph-name="acircumflex" unicode="&#xe2;" horiz-adv-x="574" 
d="M300 510q63 0 97.5 -34.5t42.5 -89.5l20 114h86l-87 -500h-87l19 112q-26 -52 -74.5 -87t-107.5 -35q-95 0 -139 71.5t-24 188.5t89.5 188.5t164.5 71.5zM307 438q-67 0 -111.5 -50t-59.5 -138t11.5 -138t93.5 -50q70 0 114.5 52t59.5 131q17 95 -12.5 144t-95.5 49z
M332 709h79l89 -151l-61 -11l-77 107l-114 -107l-57 11z" />
    <glyph glyph-name="atilde" unicode="&#xe3;" horiz-adv-x="574" 
d="M300 510q63 0 97.5 -34.5t42.5 -89.5l20 114h86l-87 -500h-87l19 112q-26 -52 -74.5 -87t-107.5 -35q-95 0 -139 71.5t-24 188.5t89.5 188.5t164.5 71.5zM307 438q-67 0 -111.5 -50t-59.5 -138t11.5 -138t93.5 -50q70 0 114.5 52t59.5 131q17 95 -12.5 144t-95.5 49z
M306 686q27 0 49.5 -15t39.5 -29.5t32 -14.5q39 0 53 44l37 -7q-27 -92 -98 -92q-30 0 -66 30.5t-58 30.5q-40 0 -54 -47l-35 9q11 43 37 67t63 24z" />
    <glyph glyph-name="adieresis" unicode="&#xe4;" horiz-adv-x="574" 
d="M300 510q63 0 97.5 -34.5t42.5 -89.5l20 114h86l-87 -500h-87l19 112q-26 -52 -74.5 -87t-107.5 -35q-95 0 -139 71.5t-24 188.5t89.5 188.5t164.5 71.5zM307 438q-67 0 -111.5 -50t-59.5 -138t11.5 -138t93.5 -50q70 0 114.5 52t59.5 131q17 95 -12.5 144t-95.5 49z
M305 594h-65l12 70h66zM467 594h-65l12 70h66z" />
    <glyph glyph-name="aring" unicode="&#xe5;" horiz-adv-x="574" 
d="M300 510q63 0 97.5 -34.5t42.5 -89.5l20 114h86l-87 -500h-87l19 112q-26 -52 -74.5 -87t-107.5 -35q-95 0 -139 71.5t-24 188.5t89.5 188.5t164.5 71.5zM307 438q-67 0 -111.5 -50t-59.5 -138t11.5 -138t93.5 -50q70 0 114.5 52t59.5 131q17 95 -12.5 144t-95.5 49z
M382 721q49 0 76.5 -25.5t20.5 -67.5q-8 -43 -44.5 -68t-85.5 -25q-48 0 -76 25t-20 68q7 42 44 67.5t85 25.5zM375 678q-28 0 -46.5 -14.5t-22.5 -35.5q-4 -24 10.5 -37.5t40.5 -13.5q59 0 67 50q4 24 -10.5 37.5t-38.5 13.5z" />
    <glyph glyph-name="ae" unicode="&#xe6;" horiz-adv-x="903" 
d="M300 510q63 0 97.5 -34.5t42.5 -89.5l20 114h65l-17 -99q82 109 203 109q85 0 127 -36t42 -89q0 -65 -58 -105t-176 -40h-145q-14 -87 14.5 -134t97.5 -47q49 0 87.5 25t52.5 70h87q-22 -74 -89 -119t-150 -45q-111 0 -149 94l-14 -84h-66l19 112q-26 -52 -74.5 -87
t-107.5 -35q-95 0 -139 71.5t-24 188.5t89.5 188.5t164.5 71.5zM307 438q-67 0 -111.5 -50t-59.5 -138t11.5 -138t93.5 -50q70 0 114.5 52t59.5 131q17 95 -12.5 144t-95.5 49zM693 445q-62 0 -109 -38t-69 -108h135q140 0 140 77q0 29 -24 49t-73 20z" />
    <glyph glyph-name="ccedilla" unicode="&#xe7;" horiz-adv-x="511" 
d="M324 510q84 0 135 -48t44 -128h-87q2 48 -26 76.5t-81 28.5q-68 0 -115 -51.5t-61 -137.5q-16 -86 13 -137.5t97 -51.5q52 0 90.5 28.5t52.5 76.5h88q-21 -75 -82.5 -122.5t-140.5 -52.5l-40 -51q16 4 37 4q46 0 70 -21.5t17 -56.5q-7 -42 -48 -68t-98 -26q-72 0 -102 35
l31 31q16 -25 75 -25q65 0 76 46q3 24 -14.5 38.5t-59.5 14.5q-15 0 -59 -6l60 86q-89 12 -129 81.5t-21 176.5q21 118 95.5 189t182.5 71z" />
    <glyph glyph-name="egrave" unicode="&#xe8;" horiz-adv-x="533" 
d="M337 510q85 0 128.5 -36.5t43.5 -88.5q0 -65 -57.5 -105t-175.5 -40h-146q-13 -87 15.5 -134t96.5 -47q50 0 88.5 25t52.5 70h87q-23 -75 -90 -119.5t-149 -44.5q-106 0 -156 71t-29 189q20 116 101.5 188t189.5 72zM323 445q-62 0 -109 -38t-70 -108h136q139 0 139 77
q0 29 -23.5 49t-72.5 20zM239 705l92 11l78 -166h-60z" />
    <glyph glyph-name="eacute" unicode="&#xe9;" horiz-adv-x="533" 
d="M337 510q85 0 128.5 -36.5t43.5 -88.5q0 -65 -57.5 -105t-175.5 -40h-146q-13 -87 15.5 -134t96.5 -47q50 0 88.5 25t52.5 70h87q-23 -75 -90 -119.5t-149 -44.5q-106 0 -156 71t-29 189q20 116 101.5 188t189.5 72zM323 445q-62 0 -109 -38t-70 -108h136q139 0 139 77
q0 29 -23.5 49t-72.5 20zM403 716l89 -11l-165 -155h-61z" />
    <glyph glyph-name="ecircumflex" unicode="&#xea;" horiz-adv-x="533" 
d="M337 510q85 0 128.5 -36.5t43.5 -88.5q0 -65 -57.5 -105t-175.5 -40h-146q-13 -87 15.5 -134t96.5 -47q50 0 88.5 25t52.5 70h87q-23 -75 -90 -119.5t-149 -44.5q-106 0 -156 71t-29 189q20 116 101.5 188t189.5 72zM323 445q-62 0 -109 -38t-70 -108h136q139 0 139 77
q0 29 -23.5 49t-72.5 20zM324 709h79l89 -151l-61 -11l-77 107l-114 -107l-57 11z" />
    <glyph glyph-name="edieresis" unicode="&#xeb;" horiz-adv-x="533" 
d="M337 510q85 0 128.5 -36.5t43.5 -88.5q0 -65 -57.5 -105t-175.5 -40h-146q-13 -87 15.5 -134t96.5 -47q50 0 88.5 25t52.5 70h87q-23 -75 -90 -119.5t-149 -44.5q-106 0 -156 71t-29 189q20 116 101.5 188t189.5 72zM323 445q-62 0 -109 -38t-70 -108h136q139 0 139 77
q0 29 -23.5 49t-72.5 20zM292 594h-65l12 70h66zM454 594h-65l12 70h66z" />
    <glyph glyph-name="igrave" unicode="&#xec;" horiz-adv-x="245" 
d="M72 705l92 11l78 -166h-60zM125 0h-86l88 500h86z" />
    <glyph glyph-name="iacute" unicode="&#xed;" horiz-adv-x="245" 
d="M253 716l89 -11l-165 -155h-61zM125 0h-86l88 500h86z" />
    <glyph glyph-name="icircumflex" unicode="&#xee;" horiz-adv-x="245" 
d="M125 0h-86l88 500h86zM166 709h79l89 -151l-61 -11l-77 107l-114 -107l-57 11z" />
    <glyph glyph-name="idieresis" unicode="&#xef;" horiz-adv-x="245" 
d="M137 594h-65l12 70h66zM299 594h-65l12 70h66zM125 0h-86l88 500h86z" />
    <glyph glyph-name="eth" unicode="&#xf0;" 
d="M315 710q103 0 169 -54l66 56l28 -34l-63 -53q82 -99 50 -276q-29 -171 -112 -265t-207 -94q-119 0 -169 70t-32 175q16 98 85 168.5t179 70.5q111 0 169 -98q18 124 -30 193l-78 -65l-28 34l76 63q-50 41 -132 41zM315 407q-78 0 -123 -49.5t-58 -124.5
q-13 -76 16 -121.5t106 -45.5q79 0 132 65.5t78 181.5q-56 94 -151 94z" />
    <glyph glyph-name="ntilde" unicode="&#xf1;" horiz-adv-x="567" 
d="M127 500h86l-18 -98q63 108 182 108q79 0 112 -48.5t18 -135.5l-57 -326h-87l54 309q23 127 -79 127q-58 0 -104.5 -41t-60.5 -123l-48 -272h-86zM299 686q27 0 49.5 -15t39.5 -29.5t32 -14.5q39 0 53 44l37 -7q-27 -92 -98 -92q-30 0 -66 30.5t-58 30.5q-40 0 -54 -47
l-35 9q11 43 37 67t63 24z" />
    <glyph glyph-name="ograve" unicode="&#xf2;" horiz-adv-x="542" 
d="M308 439q-67 0 -113 -50.5t-61 -138.5q-16 -88 12.5 -138.5t95.5 -50.5q66 0 112 50.5t62 138.5q15 88 -13 138.5t-95 50.5zM320 510q103 0 153.5 -70.5t30.5 -189.5q-22 -119 -97 -189.5t-178 -70.5q-104 0 -154.5 70.5t-28.5 189.5q21 119 96 189.5t178 70.5zM248 705
l92 11l78 -166h-60z" />
    <glyph glyph-name="oacute" unicode="&#xf3;" horiz-adv-x="542" 
d="M308 439q-67 0 -113 -50.5t-61 -138.5q-16 -88 12.5 -138.5t95.5 -50.5q66 0 112 50.5t62 138.5q15 88 -13 138.5t-95 50.5zM320 510q103 0 153.5 -70.5t30.5 -189.5q-22 -119 -97 -189.5t-178 -70.5q-104 0 -154.5 70.5t-28.5 189.5q21 119 96 189.5t178 70.5zM379 716
l89 -11l-165 -155h-61z" />
    <glyph glyph-name="ocircumflex" unicode="&#xf4;" horiz-adv-x="542" 
d="M308 439q-67 0 -113 -50.5t-61 -138.5q-16 -88 12.5 -138.5t95.5 -50.5q66 0 112 50.5t62 138.5q15 88 -13 138.5t-95 50.5zM320 510q103 0 153.5 -70.5t30.5 -189.5q-22 -119 -97 -189.5t-178 -70.5q-104 0 -154.5 70.5t-28.5 189.5q21 119 96 189.5t178 70.5zM316 709
h79l89 -151l-61 -11l-77 107l-114 -107l-57 11z" />
    <glyph glyph-name="otilde" unicode="&#xf5;" horiz-adv-x="542" 
d="M308 439q-67 0 -113 -50.5t-61 -138.5q-16 -88 12.5 -138.5t95.5 -50.5q66 0 112 50.5t62 138.5q15 88 -13 138.5t-95 50.5zM320 510q103 0 153.5 -70.5t30.5 -189.5q-22 -119 -97 -189.5t-178 -70.5q-104 0 -154.5 70.5t-28.5 189.5q21 119 96 189.5t178 70.5zM286 686
q27 0 49.5 -15t39.5 -29.5t32 -14.5q39 0 53 44l37 -7q-27 -92 -98 -92q-30 0 -66 30.5t-58 30.5q-40 0 -54 -47l-35 9q11 43 37 67t63 24z" />
    <glyph glyph-name="odieresis" unicode="&#xf6;" horiz-adv-x="542" 
d="M308 439q-67 0 -113 -50.5t-61 -138.5q-16 -88 12.5 -138.5t95.5 -50.5q66 0 112 50.5t62 138.5q15 88 -13 138.5t-95 50.5zM320 510q103 0 153.5 -70.5t30.5 -189.5q-22 -119 -97 -189.5t-178 -70.5q-104 0 -154.5 70.5t-28.5 189.5q21 119 96 189.5t178 70.5zM286 594
h-65l12 70h66zM448 594h-65l12 70h66z" />
    <glyph glyph-name="divide" unicode="&#xf7;" 
d="M514 265h-505l13 72h506zM266 553h92l-16 -97h-93zM195 156h92l-16 -97h-93z" />
    <glyph glyph-name="oslash" unicode="&#xf8;" horiz-adv-x="540" 
d="M320 510q73 0 122 -36l23 26h68l-56 -63q48 -70 27 -187q-22 -121 -95.5 -190.5t-179.5 -69.5q-74 0 -121 35l-22 -25h-69l55 62q-48 72 -26 188q21 120 94.5 190t179.5 70zM308 436q-67 0 -114.5 -50.5t-62.5 -135.5q-12 -73 5 -117l248 277q-29 26 -76 26zM419 250
q11 72 -6 116l-248 -277q30 -25 77 -25q67 0 114 50t63 136z" />
    <glyph glyph-name="ugrave" unicode="&#xf9;" horiz-adv-x="567" 
d="M125 500h87l-55 -309q-23 -127 80 -127q58 0 104 41t60 123l49 272h86l-88 -500h-86l17 98q-63 -108 -182 -108q-79 0 -112 48.5t-18 135.5zM248 705l92 11l78 -166h-60z" />
    <glyph glyph-name="uacute" unicode="&#xfa;" horiz-adv-x="567" 
d="M125 500h87l-55 -309q-23 -127 80 -127q58 0 104 41t60 123l49 272h86l-88 -500h-86l17 98q-63 -108 -182 -108q-79 0 -112 48.5t-18 135.5zM410 716l89 -11l-165 -155h-61z" />
    <glyph glyph-name="ucircumflex" unicode="&#xfb;" horiz-adv-x="567" 
d="M125 500h87l-55 -309q-23 -127 80 -127q58 0 104 41t60 123l49 272h86l-88 -500h-86l17 98q-63 -108 -182 -108q-79 0 -112 48.5t-18 135.5zM326 709h79l89 -151l-61 -11l-77 107l-114 -107l-57 11z" />
    <glyph glyph-name="udieresis" unicode="&#xfc;" horiz-adv-x="567" 
d="M125 500h87l-55 -309q-23 -127 80 -127q58 0 104 41t60 123l49 272h86l-88 -500h-86l17 98q-63 -108 -182 -108q-79 0 -112 48.5t-18 135.5zM295 594h-65l12 70h66zM457 594h-65l12 70h66z" />
    <glyph glyph-name="yacute" unicode="&#xfd;" horiz-adv-x="473" 
d="M50 500h92l61 -356q5 -29 5 -75q15 42 32 75l192 356h86l-301 -552q-50 -95 -105 -126t-142 -32l14 77q89 0 128 66l33 53zM370 716l89 -11l-165 -155h-61z" />
    <glyph glyph-name="thorn" unicode="&#xfe;" horiz-adv-x="575" 
d="M374 510q95 0 138.5 -71.5t23.5 -188.5t-89 -188.5t-164 -71.5q-59 0 -97 34.5t-45 87.5l-55 -313h-86l159 901h86l-56 -314q28 55 75.5 89.5t109.5 34.5zM340 438q-66 0 -112 -49t-63 -144q-14 -79 13 -131t96 -52q68 0 112 50t60 138q15 88 -11.5 138t-94.5 50z" />
    <glyph glyph-name="ydieresis" unicode="&#xff;" horiz-adv-x="473" 
d="M50 500h92l61 -356q5 -29 5 -75q15 42 32 75l192 356h86l-301 -552q-50 -95 -105 -126t-142 -32l14 77q89 0 128 66l33 53zM254 594h-65l12 70h66zM416 594h-65l12 70h66z" />
    <glyph glyph-name="Amacron" unicode="&#x100;" horiz-adv-x="633" 
d="M332 700h136l126 -700h-104l-34 201h-294l-105 -201h-98zM387 642q-17 -43 -48 -101l-142 -268h249l-48 269q-3 19 -11 100zM527 748h-249l10 52h248z" />
    <glyph glyph-name="amacron" unicode="&#x101;" horiz-adv-x="574" 
d="M300 510q63 0 97.5 -34.5t42.5 -89.5l20 114h86l-87 -500h-87l19 112q-26 -52 -74.5 -87t-107.5 -35q-95 0 -139 71.5t-24 188.5t89.5 188.5t164.5 71.5zM307 438q-67 0 -111.5 -50t-59.5 -138t11.5 -138t93.5 -50q70 0 114.5 52t59.5 131q17 95 -12.5 144t-95.5 49z
M484 586h-249l10 57h249z" />
    <glyph glyph-name="Abreve" unicode="&#x102;" horiz-adv-x="633" 
d="M332 700h136l126 -700h-104l-34 201h-294l-105 -201h-98zM387 642q-17 -43 -48 -101l-142 -268h249l-48 269q-3 19 -11 100zM298 838l47 5q-5 -30 11 -47.5t51 -17.5q72 0 86 65l45 -5q-9 -50 -47.5 -80t-92.5 -30q-53 0 -80.5 30t-19.5 80z" />
    <glyph glyph-name="abreve" unicode="&#x103;" horiz-adv-x="574" 
d="M300 510q63 0 97.5 -34.5t42.5 -89.5l20 114h86l-87 -500h-87l19 112q-26 -52 -74.5 -87t-107.5 -35q-95 0 -139 71.5t-24 188.5t89.5 188.5t164.5 71.5zM307 438q-67 0 -111.5 -50t-59.5 -138t11.5 -138t93.5 -50q70 0 114.5 52t59.5 131q17 95 -12.5 144t-95.5 49z
M250 685l53 6q-5 -35 9.5 -55t48.5 -20q37 0 58 21.5t27 53.5l52 -6q-10 -55 -51 -88.5t-95 -33.5t-83 33.5t-19 88.5z" />
    <glyph glyph-name="Aogonek" unicode="&#x104;" horiz-adv-x="633" 
d="M513 0h-23l-34 201h-294l-105 -201h-98l373 700h136l126 -700h-35q-66 -46 -77 -106q-4 -25 9 -39.5t39 -14.5q1 0 25 3l-9 -54q-22 -5 -40 -5q-49 0 -75 24.5t-19 66.5q12 73 101 125zM387 642q-17 -43 -48 -101l-142 -268h249l-48 269q-3 19 -11 100z" />
    <glyph glyph-name="aogonek" unicode="&#x105;" horiz-adv-x="574" 
d="M387 0h-15l19 112q-26 -52 -74.5 -87t-107.5 -35q-95 0 -139 71.5t-24 188.5t89.5 188.5t164.5 71.5q63 0 97.5 -34.5t42.5 -89.5l20 114h86l-87 -500h-26q-66 -46 -77 -106q-4 -25 9 -39.5t39 -14.5q1 0 25 3l-9 -54q-22 -5 -40 -5q-49 0 -75 24.5t-19 66.5
q12 73 101 125zM307 438q-67 0 -111.5 -50t-59.5 -138t11.5 -138t93.5 -50q70 0 114.5 52t59.5 131q17 95 -12.5 144t-95.5 49z" />
    <glyph glyph-name="Cacute" unicode="&#x106;" horiz-adv-x="695" 
d="M564 206h97q-34 -97 -121.5 -156.5t-201.5 -59.5q-149 0 -219 102.5t-43 257.5q28 155 134 257.5t255 102.5q114 0 180.5 -59.5t66.5 -156.5h-97q-3 62 -46.5 98t-118.5 36q-108 0 -178.5 -76t-93.5 -202q-22 -126 22 -202t152 -76q75 0 131.5 36t80.5 98zM527 875
l80 -11l-166 -139h-56z" />
    <glyph glyph-name="cacute" unicode="&#x107;" horiz-adv-x="511" 
d="M324 510q84 0 135 -48t44 -128h-87q2 48 -26 76.5t-81 28.5q-68 0 -115 -51.5t-61 -137.5q-16 -86 13 -137.5t97 -51.5q52 0 90.5 28.5t52.5 76.5h88q-21 -80 -89 -128t-152 -48q-108 0 -158 71t-29 189t95.5 189t182.5 71zM393 716l89 -11l-165 -155h-61z" />
    <glyph glyph-name="Ccircumflex" unicode="&#x108;" horiz-adv-x="695" 
d="M564 206h97q-34 -97 -121.5 -156.5t-201.5 -59.5q-149 0 -219 102.5t-43 257.5q28 155 134 257.5t255 102.5q114 0 180.5 -59.5t66.5 -156.5h-97q-3 62 -46.5 98t-118.5 36q-108 0 -178.5 -76t-93.5 -202q-22 -126 22 -202t152 -76q75 0 131.5 36t80.5 98zM624 735
l-57 -10l-82 96l-117 -96l-53 10l144 140h70z" />
    <glyph glyph-name="ccircumflex" unicode="&#x109;" horiz-adv-x="511" 
d="M324 510q84 0 135 -48t44 -128h-87q2 48 -26 76.5t-81 28.5q-68 0 -115 -51.5t-61 -137.5q-16 -86 13 -137.5t97 -51.5q52 0 90.5 28.5t52.5 76.5h88q-21 -80 -89 -128t-152 -48q-108 0 -158 71t-29 189t95.5 189t182.5 71zM319 709h79l89 -151l-61 -11l-77 107
l-114 -107l-57 11z" />
    <glyph glyph-name="Cdotaccent" unicode="&#x10a;" horiz-adv-x="695" 
d="M564 206h97q-34 -97 -121.5 -156.5t-201.5 -59.5q-149 0 -219 102.5t-43 257.5q28 155 134 257.5t255 102.5q114 0 180.5 -59.5t66.5 -156.5h-97q-3 62 -46.5 98t-118.5 36q-108 0 -178.5 -76t-93.5 -202q-22 -126 22 -202t152 -76q75 0 131.5 36t80.5 98zM515 756h-83
l13 71h83z" />
    <glyph glyph-name="cdotaccent" unicode="&#x10b;" horiz-adv-x="511" 
d="M324 510q84 0 135 -48t44 -128h-87q2 48 -26 76.5t-81 28.5q-68 0 -115 -51.5t-61 -137.5q-16 -86 13 -137.5t97 -51.5q52 0 90.5 28.5t52.5 76.5h88q-21 -80 -89 -128t-152 -48q-108 0 -158 71t-29 189t95.5 189t182.5 71zM380 594h-85l14 80h85z" />
    <glyph glyph-name="Ccaron" unicode="&#x10c;" horiz-adv-x="695" 
d="M564 206h97q-34 -97 -121.5 -156.5t-201.5 -59.5q-149 0 -219 102.5t-43 257.5q28 155 134 257.5t255 102.5q114 0 180.5 -59.5t66.5 -156.5h-97q-3 62 -46.5 98t-118.5 36q-108 0 -178.5 -76t-93.5 -202q-22 -126 22 -202t152 -76q75 0 131.5 36t80.5 98zM340 864l57 11
l81 -97l117 97l53 -11l-143 -139h-71z" />
    <glyph glyph-name="ccaron" unicode="&#x10d;" horiz-adv-x="511" 
d="M324 510q84 0 135 -48t44 -128h-87q2 48 -26 76.5t-81 28.5q-68 0 -115 -51.5t-61 -137.5q-16 -86 13 -137.5t97 -51.5q52 0 90.5 28.5t52.5 76.5h88q-21 -80 -89 -128t-152 -48q-108 0 -158 71t-29 189t95.5 189t182.5 71zM206 700l61 12l76 -107l114 107l58 -12
l-142 -150h-79z" />
    <glyph glyph-name="Dcaron" unicode="&#x10e;" horiz-adv-x="724" 
d="M333 0h-286l123 700h282q139 0 203 -93.5t35 -253.5q-28 -160 -123.5 -256.5t-233.5 -96.5zM153 74h173q107 0 174.5 73t90.5 206q23 132 -20.5 202.5t-149.5 70.5h-170zM290 864l57 11l81 -97l117 97l53 -11l-143 -139h-71z" />
    <glyph glyph-name="dcaron" unicode="&#x10f;" horiz-adv-x="574" 
d="M300 510q63 0 97.5 -34.5t42.5 -89.5l55 314h87l-123 -700h-87l19 112q-26 -52 -74.5 -87t-107.5 -35q-95 0 -139 71.5t-24 188.5t89.5 188.5t164.5 71.5zM307 438q-67 0 -111.5 -50t-59.5 -138t11.5 -138t93.5 -50q70 0 114.5 52t59.5 131q17 95 -12.5 144t-95.5 49z
M629 710h80l-64 -151h-43z" />
    <glyph glyph-name="Dcroat" unicode="&#x110;" horiz-adv-x="724" 
d="M333 0h-286l59 340h-57l10 57h57l54 303h282q139 0 203 -93.5t35 -253.5q-28 -160 -123.5 -256.5t-233.5 -96.5zM153 74h173q107 0 174.5 73t90.5 206q23 132 -20.5 202.5t-149.5 70.5h-170l-41 -229h98l-10 -57h-98z" />
    <glyph glyph-name="dcroat" unicode="&#x111;" horiz-adv-x="574" 
d="M300 510q63 0 97.5 -34.5t42.5 -89.5l32 185h-91l9 52h91l14 77h87l-14 -77h70l-10 -52h-69l-100 -571h-87l19 112q-26 -52 -74.5 -87t-107.5 -35q-95 0 -139 71.5t-24 188.5t89.5 188.5t164.5 71.5zM307 438q-67 0 -111.5 -50t-59.5 -138t11.5 -138t93.5 -50
q70 0 114.5 52t59.5 131q17 95 -12.5 144t-95.5 49z" />
    <glyph glyph-name="Emacron" unicode="&#x112;" horiz-adv-x="604" 
d="M517 0h-470l123 700h464l-13 -74h-370l-40 -227h311l-13 -72h-311l-45 -253h376zM543 748h-249l10 52h248z" />
    <glyph glyph-name="emacron" unicode="&#x113;" horiz-adv-x="533" 
d="M337 510q85 0 128.5 -36.5t43.5 -88.5q0 -65 -57.5 -105t-175.5 -40h-146q-13 -87 15.5 -134t96.5 -47q50 0 88.5 25t52.5 70h87q-23 -75 -90 -119.5t-149 -44.5q-106 0 -156 71t-29 189q20 116 101.5 188t189.5 72zM323 445q-62 0 -109 -38t-70 -108h136q139 0 139 77
q0 29 -23.5 49t-72.5 20zM464 586h-249l10 57h249z" />
    <glyph glyph-name="Ebreve" unicode="&#x114;" horiz-adv-x="604" 
d="M517 0h-470l123 700h464l-13 -74h-370l-40 -227h311l-13 -72h-311l-45 -253h376zM317 838l47 5q-5 -30 11 -47.5t51 -17.5q72 0 86 65l45 -5q-9 -50 -47.5 -80t-92.5 -30q-53 0 -80.5 30t-19.5 80z" />
    <glyph glyph-name="ebreve" unicode="&#x115;" horiz-adv-x="533" 
d="M337 510q85 0 128.5 -36.5t43.5 -88.5q0 -65 -57.5 -105t-175.5 -40h-146q-13 -87 15.5 -134t96.5 -47q50 0 88.5 25t52.5 70h87q-23 -75 -90 -119.5t-149 -44.5q-106 0 -156 71t-29 189q20 116 101.5 188t189.5 72zM323 445q-62 0 -109 -38t-70 -108h136q139 0 139 77
q0 29 -23.5 49t-72.5 20zM232 685l53 6q-5 -35 9.5 -55t48.5 -20q37 0 58 21.5t27 53.5l52 -6q-10 -55 -51 -88.5t-95 -33.5t-83 33.5t-19 88.5z" />
    <glyph glyph-name="Edotaccent" unicode="&#x116;" horiz-adv-x="604" 
d="M517 0h-470l123 700h464l-13 -74h-370l-40 -227h311l-13 -72h-311l-45 -253h376zM460 756h-83l13 71h83z" />
    <glyph glyph-name="edotaccent" unicode="&#x117;" horiz-adv-x="533" 
d="M337 510q85 0 128.5 -36.5t43.5 -88.5q0 -65 -57.5 -105t-175.5 -40h-146q-13 -87 15.5 -134t96.5 -47q50 0 88.5 25t52.5 70h87q-23 -75 -90 -119.5t-149 -44.5q-106 0 -156 71t-29 189q20 116 101.5 188t189.5 72zM323 445q-62 0 -109 -38t-70 -108h136q139 0 139 77
q0 29 -23.5 49t-72.5 20zM380 594h-85l14 80h85z" />
    <glyph glyph-name="Eogonek" unicode="&#x118;" horiz-adv-x="604" 
d="M427 0h-380l123 700h464l-13 -74h-370l-40 -227h311l-13 -72h-311l-45 -253h376l-12 -74h-44q-66 -46 -77 -106q-4 -25 9 -39.5t39 -14.5q1 0 25 3l-9 -54q-22 -5 -40 -5q-49 0 -75 24.5t-19 66.5q12 73 101 125z" />
    <glyph glyph-name="eogonek" unicode="&#x119;" horiz-adv-x="533" 
d="M337 510q85 0 128.5 -36.5t43.5 -88.5q0 -65 -57.5 -105t-175.5 -40h-146q-13 -87 15.5 -134t96.5 -47q50 0 88.5 25t52.5 70h87q-18 -60 -66.5 -101.5t-112.5 -55.5q-63 -46 -72 -103q-4 -25 9 -39.5t39 -14.5q1 0 25 3l-9 -54q-22 -5 -40 -5q-49 0 -75 24.5t-19 66.5
q10 64 85 115h-3q-106 0 -156 71t-29 189q20 116 101.5 188t189.5 72zM323 445q-62 0 -109 -38t-70 -108h136q139 0 139 77q0 29 -23.5 49t-72.5 20z" />
    <glyph glyph-name="Ecaron" unicode="&#x11a;" horiz-adv-x="604" 
d="M517 0h-470l123 700h464l-13 -74h-370l-40 -227h311l-13 -72h-311l-45 -253h376zM289 864l57 11l81 -97l117 97l53 -11l-143 -139h-71z" />
    <glyph glyph-name="ecaron" unicode="&#x11b;" horiz-adv-x="533" 
d="M337 510q85 0 128.5 -36.5t43.5 -88.5q0 -65 -57.5 -105t-175.5 -40h-146q-13 -87 15.5 -134t96.5 -47q50 0 88.5 25t52.5 70h87q-23 -75 -90 -119.5t-149 -44.5q-106 0 -156 71t-29 189q20 116 101.5 188t189.5 72zM323 445q-62 0 -109 -38t-70 -108h136q139 0 139 77
q0 29 -23.5 49t-72.5 20zM205 700l61 12l76 -107l114 107l58 -12l-142 -150h-79z" />
    <glyph glyph-name="Gcircumflex" unicode="&#x11c;" horiz-adv-x="755" 
d="M466 710q115 0 180.5 -59t65.5 -156h-97q-3 62 -46 97.5t-118 35.5q-108 0 -179.5 -76t-93.5 -202q-22 -129 21 -204t151 -75q87 0 152.5 58.5t84.5 169.5h-204l12 69h298l-64 -368h-89l27 158q-79 -168 -249 -168q-130 0 -200 99t-41 261q27 154 134 257t255 103z
M622 735l-57 -10l-82 96l-117 -96l-53 10l144 140h70z" />
    <glyph glyph-name="gcircumflex" unicode="&#x11d;" horiz-adv-x="574" 
d="M302 510q63 0 98 -35.5t40 -88.5l20 114h87l-89 -505q-36 -206 -274 -206q-91 0 -141.5 43.5t-41.5 122.5h93q-5 -45 25.5 -71.5t81.5 -26.5q146 0 170 138l21 119q-27 -54 -75 -86.5t-111 -32.5q-95 0 -137.5 69.5t-22.5 185.5t87.5 188t168.5 72zM306 438
q-67 0 -111 -50t-59 -138q-16 -87 11.5 -136.5t94.5 -49.5q70 0 114.5 51t58.5 131q17 94 -12.5 143t-96.5 49zM333 709h79l89 -151l-61 -11l-77 107l-114 -107l-57 11z" />
    <glyph glyph-name="Gbreve" unicode="&#x11e;" horiz-adv-x="755" 
d="M466 710q115 0 180.5 -59t65.5 -156h-97q-3 62 -46 97.5t-118 35.5q-108 0 -179.5 -76t-93.5 -202q-22 -129 21 -204t151 -75q87 0 152.5 58.5t84.5 169.5h-204l12 69h298l-64 -368h-89l27 158q-79 -168 -249 -168q-130 0 -200 99t-41 261q27 154 134 257t255 103z
M365 838l47 5q-5 -30 11 -47.5t51 -17.5q72 0 86 65l45 -5q-9 -50 -47.5 -80t-92.5 -30q-53 0 -80.5 30t-19.5 80z" />
    <glyph glyph-name="gbreve" unicode="&#x11f;" horiz-adv-x="574" 
d="M302 510q63 0 98 -35.5t40 -88.5l20 114h87l-89 -505q-36 -206 -274 -206q-91 0 -141.5 43.5t-41.5 122.5h93q-5 -45 25.5 -71.5t81.5 -26.5q146 0 170 138l21 119q-27 -54 -75 -86.5t-111 -32.5q-95 0 -137.5 69.5t-22.5 185.5t87.5 188t168.5 72zM306 438
q-67 0 -111 -50t-59 -138q-16 -87 11.5 -136.5t94.5 -49.5q70 0 114.5 51t58.5 131q17 94 -12.5 143t-96.5 49zM241 685l53 6q-5 -35 9.5 -55t48.5 -20q36 0 57.5 21.5t27.5 53.5l52 -6q-10 -55 -51 -88.5t-95 -33.5t-83 33.5t-19 88.5z" />
    <glyph glyph-name="Gdotaccent" unicode="&#x120;" horiz-adv-x="755" 
d="M466 710q115 0 180.5 -59t65.5 -156h-97q-3 62 -46 97.5t-118 35.5q-108 0 -179.5 -76t-93.5 -202q-22 -129 21 -204t151 -75q87 0 152.5 58.5t84.5 169.5h-204l12 69h298l-64 -368h-89l27 158q-79 -168 -249 -168q-130 0 -200 99t-41 261q27 154 134 257t255 103z
M507 756h-83l13 71h83z" />
    <glyph glyph-name="gdotaccent" unicode="&#x121;" horiz-adv-x="574" 
d="M302 510q63 0 98 -35.5t40 -88.5l20 114h87l-89 -505q-36 -206 -274 -206q-91 0 -141.5 43.5t-41.5 122.5h93q-5 -45 25.5 -71.5t81.5 -26.5q146 0 170 138l21 119q-27 -54 -75 -86.5t-111 -32.5q-95 0 -137.5 69.5t-22.5 185.5t87.5 188t168.5 72zM306 438
q-67 0 -111 -50t-59 -138q-16 -87 11.5 -136.5t94.5 -49.5q70 0 114.5 51t58.5 131q17 94 -12.5 143t-96.5 49zM395 594h-85l14 80h85z" />
    <glyph glyph-name="Gcommaaccent" unicode="&#x122;" horiz-adv-x="755" 
d="M466 710q115 0 180.5 -59t65.5 -156h-97q-3 62 -46 97.5t-118 35.5q-108 0 -179.5 -76t-93.5 -202q-22 -129 21 -204t151 -75q87 0 152.5 58.5t84.5 169.5h-204l12 69h298l-64 -368h-89l27 158q-79 -168 -249 -168q-130 0 -200 99t-41 261q27 154 134 257t255 103z
M283 -48h80l-8 -51q-15 -77 -102 -123l-8 29q54 28 63 82h-36z" />
    <glyph glyph-name="gcommaaccent" unicode="&#x123;" horiz-adv-x="574" 
d="M302 510q63 0 98 -35.5t40 -88.5l20 114h87l-89 -505q-36 -206 -274 -206q-91 0 -141.5 43.5t-41.5 122.5h93q-5 -45 25.5 -71.5t81.5 -26.5q146 0 170 138l21 119q-27 -54 -75 -86.5t-111 -32.5q-95 0 -137.5 69.5t-22.5 185.5t87.5 188t168.5 72zM306 438
q-67 0 -111 -50t-59 -138q-16 -87 11.5 -136.5t94.5 -49.5q70 0 114.5 51t58.5 131q17 94 -12.5 143t-96.5 49zM450 712l-77 -180h-84l111 180h50z" />
    <glyph glyph-name="Hcircumflex" unicode="&#x124;" horiz-adv-x="694" 
d="M567 0h-94l57 326h-332l-57 -326h-94l123 700h94l-53 -300h332l53 300h94zM588 735l-57 -10l-82 96l-117 -96l-53 10l144 140h70z" />
    <glyph glyph-name="hcircumflex" unicode="&#x125;" horiz-adv-x="568" 
d="M162 700h86l-53 -298q63 108 185 108q78 0 110 -48t17 -136l-57 -326h-87l54 309q23 127 -78 127q-58 0 -105 -41t-61 -123l-48 -272h-86zM454 735l-57 -10l-82 96l-117 -96l-53 10l144 140h70z" />
    <glyph glyph-name="Hbar" unicode="&#x126;" horiz-adv-x="694" 
d="M567 0h-94l57 326h-332l-57 -326h-94l94 534h-60l9 55h60l20 111h94l-20 -111h332l20 111h94l-20 -111h47l-9 -55h-47zM211 400h332l23 134h-332z" />
    <glyph glyph-name="hbar" unicode="&#x127;" horiz-adv-x="568" 
d="M162 700h86l-14 -77h102l-10 -52h-101l-30 -169q63 108 185 108q78 0 110 -48t17 -136l-57 -326h-87l54 309q23 127 -78 127q-58 0 -105 -41t-61 -123l-48 -272h-86l100 571h-60l9 52h60z" />
    <glyph glyph-name="Itilde" unicode="&#x128;" horiz-adv-x="268" 
d="M141 0h-94l123 700h94zM176 843q27 0 49.5 -14.5t40 -28.5t32.5 -14q39 0 53 42l37 -6q-26 -87 -97 -87q-30 0 -66.5 29.5t-58.5 29.5q-40 0 -53 -45l-36 8q24 86 99 86z" />
    <glyph glyph-name="itilde" unicode="&#x129;" horiz-adv-x="245" 
d="M136 686q27 0 49.5 -15t39.5 -29.5t32 -14.5q39 0 53 44l37 -7q-27 -92 -98 -92q-30 0 -66 30.5t-58 30.5q-40 0 -54 -47l-35 9q11 43 37 67t63 24zM125 0h-86l88 500h86z" />
    <glyph glyph-name="Imacron" unicode="&#x12a;" horiz-adv-x="268" 
d="M141 0h-94l123 700h94zM350 748h-249l10 52h248z" />
    <glyph glyph-name="imacron" unicode="&#x12b;" horiz-adv-x="245" 
d="M309 586h-249l10 57h249zM125 0h-86l88 500h86z" />
    <glyph glyph-name="Ibreve" unicode="&#x12c;" horiz-adv-x="268" 
d="M141 0h-94l123 700h94zM122 838l47 5q-5 -30 11 -47.5t51 -17.5q72 0 86 65l45 -5q-9 -50 -47.5 -80t-92.5 -30q-53 0 -80.5 30t-19.5 80z" />
    <glyph glyph-name="ibreve" unicode="&#x12d;" horiz-adv-x="245" 
d="M78 685l53 6q-5 -35 9.5 -55t48.5 -20q37 0 58 21.5t27 53.5l52 -6q-10 -55 -51 -88.5t-95 -33.5t-83 33.5t-19 88.5zM125 0h-86l88 500h86z" />
    <glyph glyph-name="Iogonek" unicode="&#x12e;" horiz-adv-x="268" 
d="M89 0h-42l123 700h94l-123 -700h-6q-66 -46 -77 -106q-4 -25 9 -39.5t39 -14.5q1 0 25 3l-9 -54q-22 -5 -40 -5q-49 0 -75 24.5t-19 66.5q12 73 101 125z" />
    <glyph glyph-name="iogonek" unicode="&#x12f;" horiz-adv-x="244" 
d="M67 0h-28l88 500h86l-88 -500h-12q-66 -46 -77 -106q-4 -25 9 -39.5t39 -14.5q1 0 25 3l-9 -54q-22 -5 -40 -5q-49 0 -75 24.5t-19 66.5q12 73 101 125zM154 664h89l-14 -80h-89z" />
    <glyph glyph-name="Idotaccent" unicode="&#x130;" horiz-adv-x="268" 
d="M141 0h-94l123 700h94zM267 756h-83l13 71h83z" />
    <glyph glyph-name="dotlessi" unicode="&#x131;" horiz-adv-x="245" 
d="M125 0h-86l88 500h86z" />
    <glyph glyph-name="IJ" unicode="&#x132;" horiz-adv-x="784" 
d="M141 0h-94l123 700h94zM598 190l90 510h94l-89 -508q-17 -93 -87 -147.5t-176 -54.5q-90 0 -138.5 49t-44.5 130h97q-3 -43 23 -71t81 -28q128 0 150 120z" />
    <glyph glyph-name="ij" unicode="&#x133;" horiz-adv-x="488" 
d="M127 500h86l-88 -500h-86zM154 664h89l-14 -80h-89zM370 500h87l-98 -555q-13 -77 -68.5 -116t-124.5 -40l13 74q40 0 63 18.5t31 68.5zM398 664h89l-15 -80h-88z" />
    <glyph glyph-name="Jcircumflex" unicode="&#x134;" horiz-adv-x="536" 
d="M440 700h94l-90 -508q-16 -93 -86 -147.5t-176 -54.5q-90 0 -138.5 49t-45.5 130h98q-3 -43 23 -71t81 -28q128 0 150 120zM643 735l-57 -10l-82 96l-117 -96l-53 10l144 140h70z" />
    <glyph glyph-name="jcircumflex" unicode="&#x135;" horiz-adv-x="241" 
d="M87 500h82l-99 -555q-13 -78 -67 -119t-121 -42l12 69q39 0 62.5 21.5t32.5 74.5zM125 709h79l89 -151l-61 -11l-77 107l-114 -107l-57 11z" />
    <glyph glyph-name="Kcommaaccent" unicode="&#x136;" horiz-adv-x="626" 
d="M141 0h-94l123 700h94zM579 0h-115l-250 367l354 333h111l-354 -328zM230 -48h80l-8 -51q-15 -77 -102 -123l-8 29q54 28 63 82h-36z" />
    <glyph glyph-name="kcommaaccent" unicode="&#x137;" horiz-adv-x="493" 
d="M125 0h-86l123 700h86zM453 0h-105l-167 271l240 229h103l-244 -226zM178 -48h80l-8 -51q-15 -77 -102 -123l-8 29q54 28 63 82h-36z" />
    <glyph glyph-name="Lacute" unicode="&#x139;" horiz-adv-x="540" 
d="M490 0h-443l123 700h94l-111 -626h349zM333 875l80 -11l-166 -139h-56z" />
    <glyph glyph-name="lacute" unicode="&#x13a;" horiz-adv-x="244" 
d="M125 0h-86l123 700h86zM292 875l80 -11l-166 -139h-56z" />
    <glyph glyph-name="Lcommaaccent" unicode="&#x13b;" horiz-adv-x="540" 
d="M490 0h-443l123 700h94l-111 -626h349zM220 -48h80l-8 -51q-15 -77 -102 -123l-8 29q54 28 63 82h-36z" />
    <glyph glyph-name="lcommaaccent" unicode="&#x13c;" horiz-adv-x="244" 
d="M125 0h-86l123 700h86zM31 -48h80l-8 -51q-15 -77 -102 -123l-8 29q54 28 63 82h-36z" />
    <glyph glyph-name="Lcaron" unicode="&#x13d;" horiz-adv-x="540" 
d="M490 0h-443l123 700h94l-111 -626h349zM337 710h80l-64 -151h-43z" />
    <glyph glyph-name="lcaron" unicode="&#x13e;" horiz-adv-x="244" 
d="M125 0h-86l123 700h86zM296 710h80l-64 -151h-43z" />
    <glyph glyph-name="Lslash" unicode="&#x141;" horiz-adv-x="540" 
d="M490 0h-443l38 219l-53 -45l-35 43l103 88l70 395h94l-53 -300l124 106l36 -43l-176 -150l-42 -239h349z" />
    <glyph glyph-name="lslash" unicode="&#x142;" horiz-adv-x="244" 
d="M125 0h-86l66 379l-57 -49l-33 39l104 89l43 242h86l-28 -156l55 47l33 -40l-102 -86z" />
    <glyph glyph-name="Nacute" unicode="&#x143;" horiz-adv-x="700" 
d="M170 700h133l185 -519q10 -32 15 -73q4 43 11 82l90 510h93l-123 -700h-121l-191 545q-9 30 -15 73q-2 -17 -11 -76l-95 -542h-94zM511 875l80 -11l-166 -139h-56z" />
    <glyph glyph-name="nacute" unicode="&#x144;" horiz-adv-x="567" 
d="M127 500h86l-18 -98q63 108 182 108q79 0 112 -48.5t18 -135.5l-57 -326h-87l54 309q23 127 -79 127q-58 0 -104.5 -41t-60.5 -123l-48 -272h-86zM408 716l89 -11l-165 -155h-61z" />
    <glyph glyph-name="Ncommaaccent" unicode="&#x145;" horiz-adv-x="700" 
d="M170 700h133l185 -519q10 -32 15 -74q4 43 11 83l90 510h93l-123 -700h-121l-191 545q-9 30 -15 73q-2 -17 -11 -76l-95 -542h-94zM274 -48h80l-8 -51q-15 -77 -102 -123l-8 29q54 28 63 82h-36z" />
    <glyph glyph-name="ncommaaccent" unicode="&#x146;" horiz-adv-x="567" 
d="M127 500h86l-18 -98q63 108 182 108q79 0 112 -48.5t18 -135.5l-57 -326h-87l54 309q23 127 -79 127q-58 0 -104.5 -41t-60.5 -123l-48 -272h-86zM193 -48h80l-8 -51q-15 -77 -102 -123l-8 29q54 28 63 82h-36z" />
    <glyph glyph-name="Ncaron" unicode="&#x147;" horiz-adv-x="700" 
d="M170 700h133l185 -519q10 -32 15 -74q4 43 11 83l90 510h93l-123 -700h-121l-191 545q-9 30 -15 73q-2 -17 -11 -76l-95 -542h-94zM306 864l57 11l81 -97l117 97l53 -11l-143 -139h-71z" />
    <glyph glyph-name="ncaron" unicode="&#x148;" horiz-adv-x="567" 
d="M127 500h86l-18 -98q63 108 182 108q79 0 112 -48.5t18 -135.5l-57 -326h-87l54 309q23 127 -79 127q-58 0 -104.5 -41t-60.5 -123l-48 -272h-86zM213 700l61 12l76 -107l114 107l58 -12l-142 -150h-79z" />
    <glyph glyph-name="napostrophe" unicode="&#x149;" horiz-adv-x="567" 
d="M127 500h86l-18 -98q63 108 182 108q79 0 112 -48.5t18 -135.5l-57 -326h-87l54 309q23 127 -79 127q-58 0 -104.5 -41t-60.5 -123l-48 -272h-86zM165 714h80l-8 -51q-15 -77 -102 -123l-8 29q54 28 63 82h-36z" />
    <glyph glyph-name="Eng" unicode="&#x14a;" horiz-adv-x="700" 
d="M170 700h133l185 -519q10 -32 15 -74q4 43 11 83l90 510h93l-123 -700h-1l-10 -55q-13 -78 -69 -119t-125 -42l13 73q40 0 63.5 19.5t32.5 72.5l8 51h-33l-191 545q-9 30 -15 73q-2 -17 -11 -76l-95 -542h-94z" />
    <glyph glyph-name="eng" unicode="&#x14b;" horiz-adv-x="570" 
d="M129 500h86l-17 -98q62 108 183 108q78 0 110.5 -48.5t16.5 -135.5l-63 -363q-14 -78 -69 -117t-124 -39l12 74q80 0 94 81l61 347q23 127 -79 127q-58 0 -104.5 -41t-60.5 -123l-48 -272h-86z" />
    <glyph glyph-name="Omacron" unicode="&#x14c;" horiz-adv-x="756" 
d="M448 628q-108 0 -177.5 -76t-92.5 -202q-22 -126 21.5 -202t151.5 -76q107 0 177 76t92 202q23 126 -20.5 202t-151.5 76zM463 710q149 0 217.5 -102.5t40.5 -257.5q-27 -155 -131.5 -257.5t-253.5 -102.5q-148 0 -217.5 102.5t-42.5 257.5q28 155 133.5 257.5
t253.5 102.5zM594 748h-249l10 52h248z" />
    <glyph glyph-name="omacron" unicode="&#x14d;" horiz-adv-x="542" 
d="M308 439q-67 0 -113 -50.5t-61 -138.5q-16 -88 12.5 -138.5t95.5 -50.5q66 0 112 50.5t62 138.5q15 88 -13 138.5t-95 50.5zM320 510q103 0 153.5 -70.5t30.5 -189.5q-22 -119 -97 -189.5t-178 -70.5q-104 0 -154.5 70.5t-28.5 189.5q21 119 96 189.5t178 70.5zM459 586
h-249l10 57h249z" />
    <glyph glyph-name="Obreve" unicode="&#x14e;" horiz-adv-x="756" 
d="M448 628q-108 0 -177.5 -76t-92.5 -202q-22 -126 21.5 -202t151.5 -76q107 0 177 76t92 202q23 126 -20.5 202t-151.5 76zM463 710q149 0 217.5 -102.5t40.5 -257.5q-27 -155 -131.5 -257.5t-253.5 -102.5q-148 0 -217.5 102.5t-42.5 257.5q28 155 133.5 257.5
t253.5 102.5zM365 838l47 5q-5 -30 11 -47.5t51 -17.5q72 0 86 65l45 -5q-9 -50 -47.5 -80t-92.5 -30q-53 0 -80.5 30t-19.5 80z" />
    <glyph glyph-name="obreve" unicode="&#x14f;" horiz-adv-x="542" 
d="M308 439q-67 0 -113 -50.5t-61 -138.5q-16 -88 12.5 -138.5t95.5 -50.5q66 0 112 50.5t62 138.5q15 88 -13 138.5t-95 50.5zM320 510q103 0 153.5 -70.5t30.5 -189.5q-22 -119 -97 -189.5t-178 -70.5q-104 0 -154.5 70.5t-28.5 189.5q21 119 96 189.5t178 70.5zM227 685
l53 6q-5 -35 9.5 -55t48.5 -20q36 0 57.5 21.5t27.5 53.5l52 -6q-10 -55 -51 -88.5t-95 -33.5t-83 33.5t-19 88.5z" />
    <glyph glyph-name="Ohungarumlaut" unicode="&#x150;" horiz-adv-x="756" 
d="M448 628q-108 0 -177.5 -76t-92.5 -202q-22 -126 21.5 -202t151.5 -76q107 0 177 76t92 202q23 126 -20.5 202t-151.5 76zM463 710q149 0 217.5 -102.5t40.5 -257.5q-27 -155 -131.5 -257.5t-253.5 -102.5q-148 0 -217.5 102.5t-42.5 257.5q28 155 133.5 257.5
t253.5 102.5zM446 874l68 -10l-139 -135h-49zM603 874l67 -10l-140 -135h-47z" />
    <glyph glyph-name="ohungarumlaut" unicode="&#x151;" horiz-adv-x="542" 
d="M308 439q-67 0 -113 -50.5t-61 -138.5q-16 -88 12.5 -138.5t95.5 -50.5q66 0 112 50.5t62 138.5q15 88 -13 138.5t-95 50.5zM320 510q103 0 153.5 -70.5t30.5 -189.5q-22 -119 -97 -189.5t-178 -70.5q-104 0 -154.5 70.5t-28.5 189.5q21 119 96 189.5t178 70.5zM321 716
l68 -11l-142 -151h-48zM469 716l68 -11l-143 -151h-47z" />
    <glyph glyph-name="OE" unicode="&#x152;" horiz-adv-x="1058" 
d="M463 710q39 0 82 -10h543l-13 -74h-430q48 -32 68.5 -92t12.5 -135h250l-13 -72h-248q-17 -84 -60.5 -151t-107.5 -102h436l-12 -74h-549q-48 -10 -86 -10q-148 0 -217.5 102.5t-42.5 257.5q28 155 133.5 257.5t253.5 102.5zM448 628q-108 0 -177.5 -76t-92.5 -202
q-22 -126 21.5 -202t151.5 -76q107 0 177 76t92 202q23 126 -20.5 202t-151.5 76z" />
    <glyph glyph-name="oe" unicode="&#x153;" horiz-adv-x="904" 
d="M320 510q128 0 169 -106q84 106 219 106q85 0 128.5 -36.5t43.5 -88.5q0 -65 -57.5 -105t-175.5 -40h-146q-14 -86 15 -133.5t97 -47.5q50 0 88.5 25t52.5 70h87q-23 -75 -90 -119.5t-149 -44.5q-127 0 -170 102q-77 -102 -203 -102q-104 0 -154.5 70.5t-28.5 189.5
q21 119 96 189.5t178 70.5zM308 439q-67 0 -113 -50.5t-61 -138.5q-16 -88 12.5 -138.5t95.5 -50.5q66 0 112 50.5t62 138.5q15 88 -13 138.5t-95 50.5zM693 445q-62 0 -109 -38.5t-69 -107.5h135q140 0 140 77q0 29 -23.5 49t-73.5 20z" />
    <glyph glyph-name="Racute" unicode="&#x154;" horiz-adv-x="667" 
d="M562 0h-94q13 75 15 129.5t-4.5 87t-23 51.5t-35.5 25.5t-47 6.5h-179l-53 -300h-94l123 700h311q102 0 143.5 -51.5t27.5 -133.5q-14 -76 -61.5 -122.5t-126.5 -56.5q26 -4 45.5 -14.5t36.5 -34t24.5 -59t6 -94t-14.5 -134.5zM206 373h194q128 0 151 130
q22 123 -107 123h-193zM487 875l80 -11l-166 -139h-56z" />
    <glyph glyph-name="racute" unicode="&#x155;" horiz-adv-x="345" 
d="M127 500h86l-21 -118q25 57 74 92.5t114 35.5l-14 -83q-6 2 -20 2q-58 0 -110 -46.5t-67 -133.5l-44 -249h-86zM341 716l89 -11l-165 -155h-61z" />
    <glyph glyph-name="Rcommaaccent" unicode="&#x156;" horiz-adv-x="667" 
d="M562 0h-94q13 75 15 129.5t-4.5 87t-23 51.5t-35.5 25.5t-47 6.5h-179l-53 -300h-94l123 700h311q102 0 143.5 -51.5t27.5 -133.5q-14 -76 -61.5 -122.5t-126.5 -56.5q26 -4 45.5 -14.5t36.5 -34t24.5 -59t6 -94t-14.5 -134.5zM206 373h194q128 0 151 130
q22 123 -107 123h-193zM250 -48h80l-8 -51q-15 -77 -102 -123l-8 29q54 28 63 82h-36z" />
    <glyph glyph-name="rcommaaccent" unicode="&#x157;" horiz-adv-x="345" 
d="M127 500h86l-21 -118q25 57 74 92.5t114 35.5l-14 -83q-6 2 -20 2q-58 0 -110 -46.5t-67 -133.5l-44 -249h-86zM33 -48h80l-8 -51q-15 -77 -102 -123l-8 29q54 28 63 82h-36z" />
    <glyph glyph-name="Rcaron" unicode="&#x158;" horiz-adv-x="667" 
d="M562 0h-94q13 75 15 129.5t-4.5 87t-23 51.5t-35.5 25.5t-47 6.5h-179l-53 -300h-94l123 700h311q102 0 143.5 -51.5t27.5 -133.5q-14 -76 -61.5 -122.5t-126.5 -56.5q26 -4 45.5 -14.5t36.5 -34t24.5 -59t6 -94t-14.5 -134.5zM206 373h194q128 0 151 130
q22 123 -107 123h-193zM288 864l57 11l81 -97l117 97l53 -11l-143 -139h-71z" />
    <glyph glyph-name="rcaron" unicode="&#x159;" horiz-adv-x="345" 
d="M127 500h86l-21 -118q25 57 74 92.5t114 35.5l-14 -83q-6 2 -20 2q-58 0 -110 -46.5t-67 -133.5l-44 -249h-86zM137 700l61 12l76 -107l114 107l58 -12l-142 -150h-79z" />
    <glyph glyph-name="Sacute" unicode="&#x15a;" horiz-adv-x="646" 
d="M409 710q115 0 175.5 -52.5t55.5 -135.5h-98q2 113 -148 113q-82 0 -126.5 -33t-52.5 -83q-10 -58 26 -81.5t118 -34.5q123 -14 185 -58.5t45 -139.5q-16 -93 -99 -154t-211 -61q-116 0 -178.5 53.5t-57.5 136.5h98q-2 -52 36 -84t118 -32q82 0 130.5 36.5t58.5 91.5
q11 63 -29.5 88.5t-131.5 38.5q-120 16 -173.5 57t-37.5 135q15 84 93.5 141.5t203.5 57.5zM475 875l80 -11l-166 -139h-56z" />
    <glyph glyph-name="sacute" unicode="&#x15b;" horiz-adv-x="493" 
d="M298 510q91 0 137 -40t37 -107h-82q6 38 -22 61t-78 23q-57 0 -88.5 -21.5t-37.5 -53.5q-7 -37 19.5 -53.5t80.5 -25.5q42 -6 69.5 -13.5t57.5 -23t42 -44.5t5 -70q-12 -67 -71 -109.5t-163 -42.5q-91 0 -139 41t-39 108h82q-5 -39 25.5 -62t83.5 -23q62 0 95.5 22.5
t39.5 55.5q7 41 -20.5 59.5t-83.5 27.5q-35 5 -56.5 9.5t-49 15.5t-41 25t-21 38.5t-1.5 57.5q10 61 69.5 103t149.5 42zM364 716l89 -11l-165 -155h-61z" />
    <glyph glyph-name="Scircumflex" unicode="&#x15c;" horiz-adv-x="646" 
d="M409 710q115 0 175.5 -52.5t55.5 -135.5h-98q2 113 -148 113q-82 0 -126.5 -33t-52.5 -83q-10 -58 26 -81.5t118 -34.5q123 -14 185 -58.5t45 -139.5q-16 -93 -99 -154t-211 -61q-116 0 -178.5 53.5t-57.5 136.5h98q-2 -52 36 -84t118 -32q82 0 130.5 36.5t58.5 91.5
q11 63 -29.5 88.5t-131.5 38.5q-120 16 -173.5 57t-37.5 135q15 84 93.5 141.5t203.5 57.5zM570 735l-57 -10l-82 96l-117 -96l-53 10l144 140h70z" />
    <glyph glyph-name="scircumflex" unicode="&#x15d;" horiz-adv-x="493" 
d="M298 510q91 0 137 -40t37 -107h-82q6 38 -22 61t-78 23q-57 0 -88.5 -21.5t-37.5 -53.5q-7 -37 19.5 -53.5t80.5 -25.5q42 -6 69.5 -13.5t57.5 -23t42 -44.5t5 -70q-12 -67 -71 -109.5t-163 -42.5q-91 0 -139 41t-39 108h82q-5 -39 25.5 -62t83.5 -23q62 0 95.5 22.5
t39.5 55.5q7 41 -20.5 59.5t-83.5 27.5q-35 5 -56.5 9.5t-49 15.5t-41 25t-21 38.5t-1.5 57.5q10 61 69.5 103t149.5 42zM300 709h79l89 -151l-61 -11l-77 107l-114 -107l-57 11z" />
    <glyph glyph-name="Scedilla" unicode="&#x15e;" horiz-adv-x="646" 
d="M409 710q115 0 175.5 -52.5t55.5 -135.5h-98q2 113 -148 113q-82 0 -126.5 -33t-52.5 -83q-10 -58 26 -81.5t118 -34.5q123 -14 185 -58.5t45 -139.5q-16 -90 -95 -150.5t-201 -64.5l-40 -50q16 4 37 4q46 0 70 -21.5t17 -56.5q-7 -42 -48 -68t-98 -26q-72 0 -102 35
l31 31q16 -25 75 -25q65 0 76 46q3 24 -14.5 38.5t-59.5 14.5q-15 0 -59 -6l60 86q-97 10 -148.5 61t-46.5 127h98q-2 -52 36 -84t118 -32q82 0 130.5 36.5t58.5 91.5q11 63 -29.5 88.5t-131.5 38.5q-120 16 -173.5 57t-37.5 135q15 84 93.5 141.5t203.5 57.5z" />
    <glyph glyph-name="Scedilla" unicode="&#xf6c1;" horiz-adv-x="646" 
d="M409 710q115 0 175.5 -52.5t55.5 -135.5h-98q2 113 -148 113q-82 0 -126.5 -33t-52.5 -83q-10 -58 26 -81.5t118 -34.5q123 -14 185 -58.5t45 -139.5q-16 -90 -95 -150.5t-201 -64.5l-40 -50q16 4 37 4q46 0 70 -21.5t17 -56.5q-7 -42 -48 -68t-98 -26q-72 0 -102 35
l31 31q16 -25 75 -25q65 0 76 46q3 24 -14.5 38.5t-59.5 14.5q-15 0 -59 -6l60 86q-97 10 -148.5 61t-46.5 127h98q-2 -52 36 -84t118 -32q82 0 130.5 36.5t58.5 91.5q11 63 -29.5 88.5t-131.5 38.5q-120 16 -173.5 57t-37.5 135q15 84 93.5 141.5t203.5 57.5z" />
    <glyph glyph-name="scedilla" unicode="&#x15f;" horiz-adv-x="493" 
d="M298 510q91 0 137 -40t37 -107h-82q6 38 -22 61t-78 23q-57 0 -88.5 -21.5t-37.5 -53.5q-7 -37 19.5 -53.5t80.5 -25.5q42 -6 69.5 -13.5t57.5 -23t42 -44.5t5 -70q-12 -65 -67 -107t-153 -45l-40 -50q16 4 37 4q46 0 70 -21.5t17 -56.5q-7 -42 -48 -68t-98 -26
q-72 0 -102 35l31 31q16 -25 75 -25q65 0 76 46q3 24 -14.5 38.5t-59.5 14.5q-15 0 -59 -6l61 87q-73 8 -109.5 47t-28.5 99h82q-5 -39 25.5 -62t83.5 -23q62 0 95.5 22.5t39.5 55.5q7 41 -20.5 59.5t-83.5 27.5q-35 5 -56.5 9.5t-49 15.5t-41 25t-21 38.5t-1.5 57.5
q10 61 69.5 103t149.5 42z" />
    <glyph glyph-name="scedilla" unicode="&#xf6c2;" horiz-adv-x="493" 
d="M298 510q91 0 137 -40t37 -107h-82q6 38 -22 61t-78 23q-57 0 -88.5 -21.5t-37.5 -53.5q-7 -37 19.5 -53.5t80.5 -25.5q42 -6 69.5 -13.5t57.5 -23t42 -44.5t5 -70q-12 -65 -67 -107t-153 -45l-40 -50q16 4 37 4q46 0 70 -21.5t17 -56.5q-7 -42 -48 -68t-98 -26
q-72 0 -102 35l31 31q16 -25 75 -25q65 0 76 46q3 24 -14.5 38.5t-59.5 14.5q-15 0 -59 -6l61 87q-73 8 -109.5 47t-28.5 99h82q-5 -39 25.5 -62t83.5 -23q62 0 95.5 22.5t39.5 55.5q7 41 -20.5 59.5t-83.5 27.5q-35 5 -56.5 9.5t-49 15.5t-41 25t-21 38.5t-1.5 57.5
q10 61 69.5 103t149.5 42z" />
    <glyph glyph-name="Scaron" unicode="&#x160;" horiz-adv-x="646" 
d="M409 710q115 0 175.5 -52.5t55.5 -135.5h-98q2 113 -148 113q-82 0 -126.5 -33t-52.5 -83q-10 -58 26 -81.5t118 -34.5q123 -14 185 -58.5t45 -139.5q-16 -93 -99 -154t-211 -61q-116 0 -178.5 53.5t-57.5 136.5h98q-2 -52 36 -84t118 -32q82 0 130.5 36.5t58.5 91.5
q11 63 -29.5 88.5t-131.5 38.5q-120 16 -173.5 57t-37.5 135q15 84 93.5 141.5t203.5 57.5zM280 864l57 11l81 -97l117 97l53 -11l-143 -139h-71z" />
    <glyph glyph-name="scaron" unicode="&#x161;" horiz-adv-x="493" 
d="M298 510q91 0 137 -40t37 -107h-82q6 38 -22 61t-78 23q-57 0 -88.5 -21.5t-37.5 -53.5q-7 -37 19.5 -53.5t80.5 -25.5q42 -6 69.5 -13.5t57.5 -23t42 -44.5t5 -70q-12 -67 -71 -109.5t-163 -42.5q-91 0 -139 41t-39 108h82q-5 -39 25.5 -62t83.5 -23q62 0 95.5 22.5
t39.5 55.5q7 41 -20.5 59.5t-83.5 27.5q-35 5 -56.5 9.5t-49 15.5t-41 25t-21 38.5t-1.5 57.5q10 61 69.5 103t149.5 42zM181 700l61 12l76 -107l114 107l58 -12l-142 -150h-79z" />
    <glyph glyph-name="Tcommaaccent" unicode="&#x162;" horiz-adv-x="586" 
d="M300 0h-94l110 626h-235l13 74h564l-13 -74h-235zM207 -48h80l-8 -51q-15 -77 -102 -123l-8 29q54 28 63 82h-36z" />
    <glyph glyph-name="Tcommaaccent" unicode="&#x21a;" horiz-adv-x="586" 
d="M300 0h-94l110 626h-235l13 74h564l-13 -74h-235zM207 -48h80l-8 -51q-15 -77 -102 -123l-8 29q54 28 63 82h-36z" />
    <glyph glyph-name="tcommaaccent" unicode="&#x163;" horiz-adv-x="331" 
d="M162 614h86l-20 -114h144l-13 -67h-143l-49 -275q-16 -96 68 -96q25 0 60 9l-12 -73q-36 -8 -74 -8q-157 0 -130 157l51 286h-78l13 67h77zM116 -48h80l-8 -51q-15 -77 -102 -123l-8 29q54 28 63 82h-36z" />
    <glyph glyph-name="tcommaaccent" unicode="&#x21b;" horiz-adv-x="331" 
d="M162 614h86l-20 -114h144l-13 -67h-143l-49 -275q-16 -96 68 -96q25 0 60 9l-12 -73q-36 -8 -74 -8q-157 0 -130 157l51 286h-78l13 67h77zM116 -48h80l-8 -51q-15 -77 -102 -123l-8 29q54 28 63 82h-36z" />
    <glyph glyph-name="Tcaron" unicode="&#x164;" horiz-adv-x="586" 
d="M300 0h-94l110 626h-235l13 74h564l-13 -74h-235zM251 864l57 11l81 -97l117 97l53 -11l-143 -139h-71z" />
    <glyph glyph-name="tcaron" unicode="&#x165;" horiz-adv-x="331" 
d="M162 614h86l-20 -114h144l-13 -67h-143l-49 -275q-16 -96 68 -96q25 0 60 9l-12 -73q-36 -8 -74 -8q-157 0 -130 157l51 286h-78l13 67h77zM334 710h80l-64 -151h-43z" />
    <glyph glyph-name="Tbar" unicode="&#x166;" horiz-adv-x="586" 
d="M300 0h-94l56 319h-102l10 57h102l44 250h-235l13 74h564l-13 -74h-235l-44 -250h93l-10 -57h-93z" />
    <glyph glyph-name="tbar" unicode="&#x167;" horiz-adv-x="331" 
d="M162 614h86l-20 -114h144l-13 -67h-143l-24 -132h106l-10 -51h-105l-16 -92q-16 -96 68 -96q25 0 60 9l-12 -73q-36 -8 -74 -8q-157 0 -130 157l18 103h-56l9 51h56l24 132h-78l13 67h77z" />
    <glyph glyph-name="Utilde" unicode="&#x168;" horiz-adv-x="698" 
d="M519 212l85 488h95l-89 -506q-17 -97 -103.5 -150.5t-201.5 -53.5q-114 0 -179.5 53.5t-48.5 150.5l89 506h95l-86 -488q-13 -71 25 -107t121 -36q171 0 198 143zM391 843q27 0 49.5 -14.5t40 -28.5t32.5 -14q39 0 53 42l37 -6q-26 -87 -97 -87q-30 0 -66.5 29.5
t-58.5 29.5q-40 0 -53 -45l-36 8q24 86 99 86z" />
    <glyph glyph-name="utilde" unicode="&#x169;" horiz-adv-x="567" 
d="M125 500h87l-55 -309q-23 -127 80 -127q58 0 104 41t60 123l49 272h86l-88 -500h-86l17 98q-63 -108 -182 -108q-79 0 -112 48.5t-18 135.5zM295 686q27 0 49.5 -15t39.5 -29.5t32 -14.5q39 0 53 44l37 -7q-27 -92 -98 -92q-30 0 -66 30.5t-58 30.5q-40 0 -54 -47l-35 9
q11 43 37 67t63 24z" />
    <glyph glyph-name="Umacron" unicode="&#x16a;" horiz-adv-x="698" 
d="M519 212l85 488h95l-89 -506q-17 -97 -103.5 -150.5t-201.5 -53.5q-114 0 -179.5 53.5t-48.5 150.5l89 506h95l-86 -488q-13 -71 25 -107t121 -36q171 0 198 143zM565 748h-249l10 52h248z" />
    <glyph glyph-name="umacron" unicode="&#x16b;" horiz-adv-x="567" 
d="M125 500h87l-55 -309q-23 -127 80 -127q58 0 104 41t60 123l49 272h86l-88 -500h-86l17 98q-63 -108 -182 -108q-79 0 -112 48.5t-18 135.5zM469 586h-249l10 57h249z" />
    <glyph glyph-name="Ubreve" unicode="&#x16c;" horiz-adv-x="698" 
d="M519 212l85 488h95l-89 -506q-17 -97 -103.5 -150.5t-201.5 -53.5q-114 0 -179.5 53.5t-48.5 150.5l89 506h95l-86 -488q-13 -71 25 -107t121 -36q171 0 198 143zM336 838l47 5q-5 -30 11 -47.5t51 -17.5q72 0 86 65l45 -5q-9 -50 -47.5 -80t-92.5 -30q-53 0 -80.5 30
t-19.5 80z" />
    <glyph glyph-name="ubreve" unicode="&#x16d;" horiz-adv-x="567" 
d="M125 500h87l-55 -309q-23 -127 80 -127q58 0 104 41t60 123l49 272h86l-88 -500h-86l17 98q-63 -108 -182 -108q-79 0 -112 48.5t-18 135.5zM239 685l53 6q-5 -35 9.5 -55t48.5 -20q36 0 57.5 21.5t27.5 53.5l52 -6q-10 -55 -51 -88.5t-95 -33.5t-83 33.5t-19 88.5z" />
    <glyph glyph-name="Uring" unicode="&#x16e;" horiz-adv-x="698" 
d="M519 212l85 488h95l-89 -506q-17 -97 -103.5 -150.5t-201.5 -53.5q-114 0 -179.5 53.5t-48.5 150.5l89 506h95l-86 -488q-13 -71 25 -107t121 -36q171 0 198 143zM461 870q49 0 77 -21t21 -59t-41.5 -58t-83.5 -20q-50 0 -77.5 20t-20.5 58t42 59t83 21zM455 834
q-30 0 -48.5 -12t-21.5 -32q-4 -22 11.5 -33t42.5 -11q62 0 71 44q4 22 -12 33t-43 11z" />
    <glyph glyph-name="uring" unicode="&#x16f;" horiz-adv-x="567" 
d="M125 500h87l-55 -309q-23 -127 80 -127q58 0 104 41t60 123l49 272h86l-88 -500h-86l17 98q-63 -108 -182 -108q-79 0 -112 48.5t-18 135.5zM367 721q49 0 76.5 -25.5t20.5 -67.5q-8 -43 -44.5 -68t-85.5 -25q-48 0 -76 25t-20 68q7 42 44 67.5t85 25.5zM360 678
q-28 0 -46.5 -14.5t-22.5 -35.5q-4 -24 10.5 -37.5t40.5 -13.5q59 0 67 50q4 24 -10.5 37.5t-38.5 13.5z" />
    <glyph glyph-name="Uhungarumlaut" unicode="&#x170;" horiz-adv-x="698" 
d="M519 212l85 488h95l-89 -506q-17 -97 -103.5 -150.5t-201.5 -53.5q-114 0 -179.5 53.5t-48.5 150.5l89 506h95l-86 -488q-13 -71 25 -107t121 -36q171 0 198 143zM426 874l68 -10l-139 -135h-49zM583 874l67 -10l-140 -135h-47z" />
    <glyph glyph-name="uhungarumlaut" unicode="&#x171;" horiz-adv-x="567" 
d="M125 500h87l-55 -309q-23 -127 80 -127q58 0 104 41t60 123l49 272h86l-88 -500h-86l17 98q-63 -108 -182 -108q-79 0 -112 48.5t-18 135.5zM335 716l68 -11l-142 -151h-48zM483 716l68 -11l-143 -151h-47z" />
    <glyph glyph-name="Uogonek" unicode="&#x172;" horiz-adv-x="698" 
d="M519 212l85 488h95l-89 -506q-16 -89 -89.5 -141t-176.5 -61q-56 -46 -65 -98q-4 -25 9 -39.5t39 -14.5q1 0 25 3l-9 -54q-22 -5 -40 -5q-49 0 -75 24.5t-19 66.5q10 64 85 115q-110 3 -172 56t-45 148l89 506h95l-86 -488q-13 -71 25 -107t121 -36q171 0 198 143z" />
    <glyph glyph-name="uogonek" unicode="&#x173;" horiz-adv-x="567" 
d="M383 0h-21l17 98q-63 -108 -182 -108q-79 0 -112 48.5t-18 135.5l58 326h87l-55 -309q-23 -127 80 -127q58 0 104 41t60 123l49 272h86l-88 -500h-19q-66 -46 -77 -106q-4 -25 9 -39.5t39 -14.5q1 0 25 3l-9 -54q-22 -5 -40 -5q-49 0 -75 24.5t-19 66.5q12 73 101 125z
" />
    <glyph glyph-name="Wcircumflex" unicode="&#x174;" horiz-adv-x="951" 
d="M103 700h98l47 -528q4 -47 3 -80q17 49 31 80l234 528h87l48 -528q3 -72 3 -80q17 50 31 80l236 528h93l-317 -700h-115l-46 482q-3 34 -1 82q-17 -50 -30 -82l-215 -482h-115zM719 735l-57 -10l-82 96l-117 -96l-53 10l144 140h70z" />
    <glyph glyph-name="wcircumflex" unicode="&#x175;" horiz-adv-x="754" 
d="M58 500h87l41 -356q2 -23 2 -71q14 41 28 71l168 356h84l42 -356q3 -23 3 -71q16 48 27 71l167 356h85l-241 -500h-104l-37 321q-4 53 -3 84q-12 -37 -32 -84l-153 -321h-101zM421 709h79l89 -151l-61 -11l-77 107l-114 -107l-57 11z" />
    <glyph glyph-name="Ycircumflex" unicode="&#x176;" horiz-adv-x="623" 
d="M319 0h-94l55 316l-200 384h112l152 -304l262 304h103l-335 -384zM556 735l-57 -10l-82 96l-117 -96l-53 10l144 140h70z" />
    <glyph glyph-name="ycircumflex" unicode="&#x177;" horiz-adv-x="473" 
d="M50 500h92l61 -356q5 -29 5 -75q15 42 32 75l192 356h86l-301 -552q-50 -95 -105 -126t-142 -32l14 77q89 0 128 66l33 53zM283 709h79l89 -151l-61 -11l-77 107l-114 -107l-57 11z" />
    <glyph glyph-name="Ydieresis" unicode="&#x178;" horiz-adv-x="623" 
d="M319 0h-94l55 316l-200 384h112l152 -304l262 304h103l-335 -384zM353 756h-65l12 67h65zM524 756h-66l12 67h66z" />
    <glyph glyph-name="Zacute" unicode="&#x179;" horiz-adv-x="622" 
d="M546 0h-545l12 75l523 551h-415l13 74h525l-13 -75l-521 -551h433zM479 875l80 -11l-166 -139h-56z" />
    <glyph glyph-name="zacute" unicode="&#x17a;" horiz-adv-x="462" 
d="M394 0h-403l11 67l356 366h-278l12 67h380l-12 -67l-356 -366h301zM357 716l89 -11l-165 -155h-61z" />
    <glyph glyph-name="Zdotaccent" unicode="&#x17b;" horiz-adv-x="622" 
d="M546 0h-545l12 75l523 551h-415l13 74h525l-13 -75l-521 -551h433zM445 756h-83l13 71h83z" />
    <glyph glyph-name="zdotaccent" unicode="&#x17c;" horiz-adv-x="462" 
d="M394 0h-403l11 67l356 366h-278l12 67h380l-12 -67l-356 -366h301zM341 594h-85l14 80h85z" />
    <glyph glyph-name="Zcaron" unicode="&#x17d;" horiz-adv-x="622" 
d="M546 0h-545l12 75l523 551h-415l13 74h525l-13 -75l-521 -551h433zM276 864l57 11l81 -97l117 97l53 -11l-143 -139h-71z" />
    <glyph glyph-name="zcaron" unicode="&#x17e;" horiz-adv-x="462" 
d="M394 0h-403l11 67l356 366h-278l12 67h380l-12 -67l-356 -366h301zM160 700l61 12l76 -107l114 107l58 -12l-142 -150h-79z" />
    <glyph glyph-name="longs" unicode="&#x17f;" horiz-adv-x="265" 
d="M320 710q36 0 71 -7l-13 -72q-31 8 -60 8q-81 0 -98 -89l-131 -750h-87l132 749q14 79 63 120t123 41z" />
    <glyph glyph-name="florin" unicode="&#x192;" horiz-adv-x="409" 
d="M395 709q30 0 70 -8l-12 -72q-35 9 -61 9q-86 0 -101 -89l-8 -49h147l-12 -67h-147l-85 -482q-14 -79 -64.5 -120t-125.5 -41q-29 0 -71 8l13 72q34 -9 60 -9q86 0 101 90l85 482h-77l12 67h77l8 47q15 80 65.5 121t125.5 41z" />
    <glyph glyph-name="AEacute" unicode="&#x1fc;" horiz-adv-x="954" 
d="M867 0h-470l35 201h-278l-173 -201h-106l606 700h504l-13 -74h-371l-40 -227h311l-13 -72h-311l-44 -253h375zM211 273h234l59 339zM737 875l80 -11l-166 -139h-56z" />
    <glyph glyph-name="aeacute" unicode="&#x1fd;" horiz-adv-x="903" 
d="M300 510q63 0 97.5 -34.5t42.5 -89.5l20 114h65l-17 -99q82 109 203 109q85 0 127 -36t42 -89q0 -65 -58 -105t-176 -40h-145q-14 -87 14.5 -134t97.5 -47q49 0 87.5 25t52.5 70h87q-22 -74 -89 -119t-150 -45q-111 0 -149 94l-14 -84h-66l19 112q-26 -52 -74.5 -87
t-107.5 -35q-95 0 -139 71.5t-24 188.5t89.5 188.5t164.5 71.5zM307 438q-67 0 -111.5 -50t-59.5 -138t11.5 -138t93.5 -50q70 0 114.5 52t59.5 131q17 95 -12.5 144t-95.5 49zM693 445q-62 0 -109 -38t-69 -108h135q140 0 140 77q0 29 -24 49t-73 20zM555 716l89 -11
l-165 -155h-61z" />
    <glyph glyph-name="Oslashacute" unicode="&#x1fe;" horiz-adv-x="756" 
d="M663 700h86l-74 -85q76 -102 46 -265q-27 -155 -131.5 -257.5t-253.5 -102.5q-99 0 -165 49l-34 -39h-87l74 84q-77 102 -48 266q28 155 133.5 257.5t253.5 102.5q98 0 166 -49zM448 628q-108 0 -177.5 -76t-92.5 -202q-20 -117 14 -188l375 428q-46 38 -119 38zM620 350
q20 115 -14 187l-374 -428q45 -37 119 -37q107 0 177 76t92 202zM524 875l80 -11l-166 -139h-56z" />
    <glyph glyph-name="oslashacute" unicode="&#x1ff;" horiz-adv-x="540" 
d="M320 510q73 0 122 -36l23 26h68l-56 -63q48 -70 27 -187q-22 -121 -95.5 -190.5t-179.5 -69.5q-74 0 -121 35l-22 -25h-69l55 62q-48 72 -26 188q21 120 94.5 190t179.5 70zM308 436q-67 0 -114.5 -50.5t-62.5 -135.5q-12 -73 5 -117l248 277q-29 26 -76 26zM419 250
q11 72 -6 116l-248 -277q30 -25 77 -25q67 0 114 50t63 136zM396 716l89 -11l-165 -155h-61z" />
    <glyph glyph-name="Scommaaccent" unicode="&#x218;" horiz-adv-x="646" 
d="M409 710q115 0 175.5 -52.5t55.5 -135.5h-98q2 113 -148 113q-82 0 -126.5 -33t-52.5 -83q-10 -58 26 -81.5t118 -34.5q123 -14 185 -58.5t45 -139.5q-16 -93 -99 -154t-211 -61q-116 0 -178.5 53.5t-57.5 136.5h98q-2 -52 36 -84t118 -32q82 0 130.5 36.5t58.5 91.5
q11 63 -29.5 88.5t-131.5 38.5q-120 16 -173.5 57t-37.5 135q15 84 93.5 141.5t203.5 57.5zM238 -48h80l-8 -51q-15 -77 -102 -123l-8 29q54 28 63 82h-36z" />
    <glyph glyph-name="scommaaccent" unicode="&#x219;" horiz-adv-x="493" 
d="M298 510q91 0 137 -40t37 -107h-82q6 38 -22 61t-78 23q-57 0 -88.5 -21.5t-37.5 -53.5q-7 -37 19.5 -53.5t80.5 -25.5q42 -6 69.5 -13.5t57.5 -23t42 -44.5t5 -70q-12 -67 -71 -109.5t-163 -42.5q-91 0 -139 41t-39 108h82q-5 -39 25.5 -62t83.5 -23q62 0 95.5 22.5
t39.5 55.5q7 41 -20.5 59.5t-83.5 27.5q-35 5 -56.5 9.5t-49 15.5t-41 25t-21 38.5t-1.5 57.5q10 61 69.5 103t149.5 42zM159 -48h80l-8 -51q-15 -77 -102 -123l-8 29q54 28 63 82h-36z" />
    <glyph glyph-name="circumflex" unicode="&#x2c6;" horiz-adv-x="400" 
d="M245 709h79l89 -151l-61 -11l-77 107l-114 -107l-57 11z" />
    <glyph glyph-name="caron" unicode="&#x2c7;" horiz-adv-x="400" 
d="M129 700l61 12l76 -107l114 107l58 -12l-142 -150h-79z" />
    <glyph glyph-name="breve" unicode="&#x2d8;" horiz-adv-x="329" 
d="M121 685l53 6q-5 -35 9.5 -55t48.5 -20q36 0 57.5 21.5t27.5 53.5l52 -6q-10 -55 -51 -88.5t-95 -33.5t-83 33.5t-19 88.5z" />
    <glyph glyph-name="dotaccent" unicode="&#x2d9;" horiz-adv-x="182" 
d="M198 594h-85l14 80h85z" />
    <glyph glyph-name="ring" unicode="&#x2da;" horiz-adv-x="323" 
d="M247 721q49 0 76.5 -25.5t20.5 -67.5q-8 -43 -44.5 -68t-85.5 -25q-48 0 -76 25t-20 68q7 42 44 67.5t85 25.5zM240 678q-28 0 -46.5 -14.5t-22.5 -35.5q-4 -24 10.5 -37.5t40.5 -13.5q59 0 67 50q4 24 -10.5 37.5t-38.5 13.5z" />
    <glyph glyph-name="ogonek" unicode="&#x2db;" horiz-adv-x="249" 
d="M89 0h46q-66 -46 -77 -106q-4 -25 9 -39.5t39 -14.5q1 0 25 3l-9 -54q-22 -5 -40 -5q-49 0 -75 24.5t-19 66.5q12 73 101 125z" />
    <glyph glyph-name="tilde" unicode="&#x2dc;" horiz-adv-x="414" 
d="M222 686q27 0 49.5 -15t39.5 -29.5t32 -14.5q39 0 53 44l37 -7q-27 -92 -98 -92q-30 0 -66 30.5t-58 30.5q-40 0 -54 -47l-35 9q11 43 37 67t63 24z" />
    <glyph glyph-name="hungarumlaut" unicode="&#x2dd;" horiz-adv-x="412" 
d="M230 716l68 -11l-142 -151h-48zM378 716l68 -11l-143 -151h-47z" />
    <glyph glyph-name="tonos" unicode="&#x384;" horiz-adv-x="210" 
d="M164 709h92l-85 -168h-49z" />
    <glyph glyph-name="dieresistonos" unicode="&#x385;" horiz-adv-x="351" 
d="M167 590h-60l13 69h60zM253 546h-42l15 170h72zM370 590h-60l13 69h60z" />
    <glyph glyph-name="Alphatonos" unicode="&#x386;" horiz-adv-x="623" 
d="M329 700h132l123 -700h-104l-34 201h-284l-105 -201h-98zM380 632q-22 -52 -44 -93l-139 -266h239l-45 267q-7 48 -11 92zM167 709h92l-85 -168h-49z" />
    <glyph glyph-name="anoteleia" unicode="&#x387;" horiz-adv-x="583" 
d="M225 343h92l-16 -92h-92z" />
    <glyph glyph-name="Epsilontonos" unicode="&#x388;" horiz-adv-x="604" 
d="M64 709h92l-85 -168h-49zM517 0h-470l123 700h464l-13 -74h-370l-40 -227h311l-13 -72h-311l-45 -253h376z" />
    <glyph glyph-name="Etatonos" unicode="&#x389;" horiz-adv-x="694" 
d="M567 0h-94l57 326h-332l-57 -326h-94l123 700h94l-53 -300h332l53 300h94zM64 709h92l-85 -168h-49z" />
    <glyph glyph-name="Iotatonos" unicode="&#x38a;" horiz-adv-x="268" 
d="M170 700h94l-123 -700h-94zM64 709h92l-85 -168h-49z" />
    <glyph glyph-name="Omicrontonos" unicode="&#x38c;" horiz-adv-x="756" 
d="M100 709h92l-85 -168h-49zM448 628q-108 0 -177.5 -76t-92.5 -202q-22 -126 21.5 -202t151.5 -76q107 0 177 76t92 202q23 126 -20.5 202t-151.5 76zM463 710q149 0 217.5 -102.5t40.5 -257.5q-27 -155 -131.5 -257.5t-253.5 -102.5q-148 0 -217.5 102.5t-42.5 257.5
q28 155 133.5 257.5t253.5 102.5z" />
    <glyph glyph-name="Upsilontonos" unicode="&#x38e;" horiz-adv-x="623" 
d="M319 0h-94l55 316l-190 364l-70 -139h-49l42 168h92l-5 -9h92l152 -304l262 304h103l-335 -384z" />
    <glyph glyph-name="Omegatonos" unicode="&#x38f;" horiz-adv-x="757" 
d="M463 710q149 0 218 -97t42 -251q-16 -95 -69.5 -175.5t-127.5 -112.5h189l-12 -74h-304l13 80q167 43 208 276q22 124 -21.5 198t-149.5 74q-107 0 -177 -74t-92 -198q-40 -232 112 -276l-14 -80h-304l13 74h188q-63 32 -87.5 112t-8.5 176q28 154 131.5 251t252.5 97z
M95 709h92l-85 -168h-49z" />
    <glyph glyph-name="iotadieresistonos" unicode="&#x390;" horiz-adv-x="257" 
d="M127 500h86l-64 -362q-12 -68 41 -68q15 0 23 1l-12 -71q-21 -5 -51 -5q-57 0 -80.5 26t-12.5 83zM112 590h-60l13 69h60zM198 546h-42l15 170h72zM315 590h-60l13 69h60z" />
    <glyph glyph-name="Alpha" unicode="&#x391;" horiz-adv-x="623" 
d="M329 700h132l123 -700h-104l-34 201h-284l-105 -201h-98zM380 632q-22 -52 -44 -93l-139 -266h239l-45 267q-7 48 -11 92z" />
    <glyph glyph-name="Beta" unicode="&#x392;" horiz-adv-x="671" 
d="M210 396h183q67 0 103.5 34t44.5 85q9 50 -16 80.5t-92 30.5h-182zM361 0h-314l123 700h300q99 0 142 -48t30 -119q-11 -65 -53 -109t-117 -56q78 -10 112.5 -59t22.5 -119q-14 -81 -79.5 -135.5t-166.5 -54.5zM153 74h194q74 0 115.5 35t51.5 91t-20.5 93t-102.5 37
h-193z" />
    <glyph glyph-name="Gamma" unicode="&#x393;" horiz-adv-x="540" 
d="M170 700h443l-13 -74h-349l-110 -626h-94z" />
    <glyph glyph-name="Delta" unicode="&#x394;" horiz-adv-x="623" 
d="M381 630q-15 -43 -34 -76l-255 -480h378l-83 481q-4 35 -6 75zM330 700h130l124 -700h-625z" />
    <glyph glyph-name="Delta" unicode="&#x2206;" horiz-adv-x="623" 
d="M381 630q-15 -43 -34 -76l-255 -480h378l-83 481q-4 35 -6 75zM330 700h130l124 -700h-625z" />
    <glyph glyph-name="Epsilon" unicode="&#x395;" horiz-adv-x="604" 
d="M517 0h-470l123 700h464l-13 -74h-370l-40 -227h311l-13 -72h-311l-45 -253h376z" />
    <glyph glyph-name="Zeta" unicode="&#x396;" horiz-adv-x="622" 
d="M546 0h-545l12 75l523 551h-415l13 74h525l-13 -75l-521 -551h433z" />
    <glyph glyph-name="Eta" unicode="&#x397;" horiz-adv-x="694" 
d="M567 0h-94l57 326h-332l-57 -326h-94l123 700h94l-53 -300h332l53 300h94z" />
    <glyph glyph-name="Theta" unicode="&#x398;" horiz-adv-x="756" 
d="M448 628q-108 0 -177.5 -76t-92.5 -202q-22 -126 21.5 -202t151.5 -76q107 0 177 76t92 202q23 126 -20.5 202t-151.5 76zM463 710q149 0 217.5 -102.5t40.5 -257.5q-27 -155 -131.5 -257.5t-253.5 -102.5q-148 0 -217.5 102.5t-42.5 257.5q28 155 133.5 257.5
t253.5 102.5zM275 395h264l-12 -69h-264z" />
    <glyph glyph-name="Iota" unicode="&#x399;" horiz-adv-x="268" 
d="M170 700h94l-123 -700h-94z" />
    <glyph glyph-name="Kappa" unicode="&#x39a;" horiz-adv-x="626" 
d="M141 0h-94l123 700h94zM579 0h-115l-250 367l354 333h111l-354 -328z" />
    <glyph glyph-name="Lambda" unicode="&#x39b;" horiz-adv-x="623" 
d="M330 700h129l125 -700h-103l-95 555q-4 30 -6 65q-14 -35 -30 -65l-292 -555h-99z" />
    <glyph glyph-name="Mu" unicode="&#x39c;" horiz-adv-x="861" 
d="M170 700h147l91 -511q1 -12 4 -80q17 55 32 81l267 510h147l-123 -700h-94l97 548q4 26 16 81q-19 -47 -33 -78l-291 -551h-78l-98 552q-3 19 -5 75q-1 -14 -6 -44.5t-6 -34.5l-97 -548h-93z" />
    <glyph glyph-name="Nu" unicode="&#x39d;" horiz-adv-x="700" 
d="M170 700h133l185 -519q10 -32 15 -73q4 43 11 82l90 510h93l-123 -700h-121l-191 545q-9 30 -15 73q-2 -17 -11 -76l-95 -542h-94z" />
    <glyph glyph-name="Xi" unicode="&#x39e;" horiz-adv-x="618" 
d="M130 700h524l-14 -78h-524zM136 401h405l-13 -77h-405zM15 78h534l-13 -78h-534z" />
    <glyph glyph-name="Omicron" unicode="&#x39f;" horiz-adv-x="756" 
d="M448 628q-108 0 -177.5 -76t-92.5 -202q-22 -126 21.5 -202t151.5 -76q107 0 177 76t92 202q23 126 -20.5 202t-151.5 76zM463 710q149 0 217.5 -102.5t40.5 -257.5q-27 -155 -131.5 -257.5t-253.5 -102.5q-148 0 -217.5 102.5t-42.5 257.5q28 155 133.5 257.5
t253.5 102.5z" />
    <glyph glyph-name="Pi" unicode="&#x3a0;" horiz-adv-x="688" 
d="M170 700h514l-123 -700h-93l109 626h-326l-110 -626h-94z" />
    <glyph glyph-name="Rho" unicode="&#x3a1;" horiz-adv-x="634" 
d="M476 700q100 0 142.5 -58.5t26.5 -149.5q-16 -95 -79.5 -155.5t-169.5 -60.5h-207l-48 -276h-94l123 700h306zM441 626h-190l-50 -281h191q66 0 105 39t51 105q25 137 -107 137z" />
    <glyph glyph-name="Sigma" unicode="&#x3a3;" horiz-adv-x="600" 
d="M130 700h514l-13 -74h-408l162 -258l-269 -294h427l-13 -74h-533l12 75l269 293l-161 257z" />
    <glyph glyph-name="Tau" unicode="&#x3a4;" horiz-adv-x="586" 
d="M300 0h-94l110 626h-235l13 74h564l-13 -74h-235z" />
    <glyph glyph-name="Upsilon" unicode="&#x3a5;" horiz-adv-x="623" 
d="M319 0h-94l55 316l-200 384h112l152 -304l262 304h103l-335 -384z" />
    <glyph glyph-name="Phi" unicode="&#x3a6;" horiz-adv-x="789" 
d="M430 700h95l-17 -92q146 -11 211 -77.5t45 -176.5q-19 -110 -107.5 -176.5t-237.5 -77.5l-17 -100h-95l17 100q-146 11 -210.5 77.5t-45.5 176.5t108 176.5t238 77.5zM664 354q15 82 -28.5 132t-139.5 54l-66 -372q98 3 159 53t75 133zM168 354q-15 -83 28.5 -132.5
t139.5 -53.5l66 372q-98 -4 -158.5 -54t-75.5 -132z" />
    <glyph glyph-name="Chi" unicode="&#x3a7;" horiz-adv-x="649" 
d="M97 700h117l124 -231q14 -31 21 -57q11 19 43 58l204 230h109l-310 -344l197 -356h-118l-129 240q-15 30 -22 59q-17 -29 -45 -60l-211 -239h-110l319 354z" />
    <glyph glyph-name="Psi" unicode="&#x3a8;" horiz-adv-x="746" 
d="M138 700h94l-45 -258q-13 -72 25 -107t126 -41l71 406h94l-71 -406q90 7 140.5 42t62.5 106l45 258h94l-47 -269q-37 -203 -310 -219l-37 -212h-94l37 212q-129 8 -190 61.5t-42 157.5z" />
    <glyph glyph-name="Omega" unicode="&#x3a9;" horiz-adv-x="757" 
d="M463 710q149 0 218 -97t42 -251q-16 -95 -69.5 -175.5t-127.5 -112.5h189l-12 -74h-304l13 80q167 43 208 276q22 124 -21.5 198t-149.5 74q-107 0 -177 -74t-92 -198q-40 -232 112 -276l-14 -80h-304l13 74h188q-63 32 -87.5 112t-8.5 176q28 154 131.5 251t252.5 97z
" />
    <glyph glyph-name="Omega" unicode="&#x2126;" horiz-adv-x="757" 
d="M463 710q149 0 218 -97t42 -251q-16 -95 -69.5 -175.5t-127.5 -112.5h189l-12 -74h-304l13 80q167 43 208 276q22 124 -21.5 198t-149.5 74q-107 0 -177 -74t-92 -198q-40 -232 112 -276l-14 -80h-304l13 74h188q-63 32 -87.5 112t-8.5 176q28 154 131.5 251t252.5 97z
" />
    <glyph glyph-name="Iotadieresis" unicode="&#x3aa;" horiz-adv-x="268" 
d="M141 0h-94l123 700h94zM174 756h-65l12 67h65zM345 756h-66l12 67h66z" />
    <glyph glyph-name="Upsilondieresis" unicode="&#x3ab;" horiz-adv-x="623" 
d="M319 0h-94l55 316l-200 384h112l152 -304l262 304h103l-335 -384zM351 756h-65l12 67h65zM522 756h-66l12 67h66z" />
    <glyph glyph-name="alphatonos" unicode="&#x3ac;" horiz-adv-x="590" 
d="M293 510q82 0 115 -44.5t42 -123.5l59 158h86l-108 -270q-8 -75 -0.5 -117.5t35.5 -42.5q9 0 23 2l-12 -72q-23 -4 -49 -4q-48 0 -65 35t-16 105q-38 -75 -86.5 -110t-115.5 -35q-98 0 -137 70t-18 189q21 118 86.5 189t160.5 71zM298 438q-64 0 -104 -49.5t-55 -138.5
q-16 -89 6.5 -138.5t86.5 -49.5q61 0 101 48.5t76 136.5q3 191 -111 191zM367 709h92l-85 -168h-49z" />
    <glyph glyph-name="epsilontonos" unicode="&#x3ad;" horiz-adv-x="487" 
d="M305 709h92l-85 -168h-49zM291 510q85 0 132.5 -39t42.5 -104h-87q2 40 -21.5 60t-74.5 20q-102 0 -116 -78q-8 -43 20.5 -64t96.5 -21l-10 -58q-141 0 -156 -91q-7 -37 15.5 -59.5t78.5 -22.5q106 0 133 84h88q-19 -66 -82.5 -106.5t-147.5 -40.5q-95 0 -142.5 38.5
t-36.5 100.5q10 54 53.5 87t108.5 40q-59 9 -89.5 39t-21.5 81q11 60 67.5 97t148.5 37z" />
    <glyph glyph-name="etatonos" unicode="&#x3ae;" horiz-adv-x="563" 
d="M127 500h86l-18 -98q63 108 182 108q78 0 109.5 -48t15.5 -136l-93 -526h-86l90 509q23 127 -79 127q-57 0 -102 -41t-59 -123l-48 -272h-86zM341 709h92l-85 -168h-49z" />
    <glyph glyph-name="iotatonos" unicode="&#x3af;" horiz-adv-x="257" 
d="M127 500h86l-64 -362q-12 -68 41 -68q15 0 23 1l-12 -71q-21 -5 -51 -5q-57 0 -80.5 26t-12.5 83zM177 709h92l-85 -168h-49z" />
    <glyph glyph-name="upsilondieresistonos" unicode="&#x3b0;" horiz-adv-x="575" 
d="M116 510q111 0 93 -109l-37 -210q-11 -60 13 -93.5t80 -33.5q57 0 92 33.5t46 93.5l55 309h87l-56 -317q-15 -88 -77.5 -140.5t-159.5 -52.5q-96 0 -140 52.5t-29 140.5l33 185q12 68 -41 68q-7 0 -23 -2l12 72q23 4 52 4zM282 590h-60l13 69h60zM368 546h-42l15 170h72z
M485 590h-60l13 69h60z" />
    <glyph glyph-name="alpha" unicode="&#x3b1;" horiz-adv-x="590" 
d="M293 510q82 0 115 -44.5t42 -123.5l59 158h86l-108 -270q-8 -75 -0.5 -117.5t35.5 -42.5q9 0 23 2l-12 -72q-23 -4 -49 -4q-48 0 -65 35t-16 105q-38 -75 -86.5 -110t-115.5 -35q-98 0 -137 70t-18 189q21 118 86.5 189t160.5 71zM298 438q-64 0 -104 -49.5t-55 -138.5
q-16 -89 6.5 -138.5t86.5 -49.5q61 0 101 48.5t76 136.5q3 191 -111 191z" />
    <glyph glyph-name="beta" unicode="&#x3b2;" horiz-adv-x="543" 
d="M355 638q-148 0 -199 -285q-50 -291 100 -291q129 0 154 143q12 68 -24.5 101t-129.5 33l11 64q88 0 128.5 29.5t50.5 91.5q20 113 -91 114zM369 710q93 0 136 -46t28 -124q-26 -149 -188 -165q177 -21 149 -181q-16 -87 -78 -145.5t-170 -58.5q-117 0 -164 91.5
t-16 268.5t109.5 268.5t193.5 91.5z" />
    <glyph glyph-name="gamma" unicode="&#x3b3;" horiz-adv-x="473" 
d="M142 510q18 -71 39 -214.5t29 -216.5q106 173 222 421h86q-122 -254 -284 -517l-25 -183h-105l42 188q-15 114 -44.5 266.5t-53.5 235.5z" />
    <glyph glyph-name="delta" unicode="&#x3b4;" horiz-adv-x="538" 
d="M304 419q-65 0 -111.5 -48t-61.5 -133q-14 -84 14 -130.5t94 -46.5t111 47t60 130q15 84 -12 132.5t-94 48.5zM358 707q85 0 180 -17l-13 -74q-112 20 -178 20q-110 0 -122 -64q-5 -32 29.5 -49t97.5 -28q85 -15 125.5 -79t20.5 -175q-20 -116 -93 -183.5t-177 -67.5
q-105 0 -155 65.5t-30 180.5q17 95 79 157t140 68q-65 9 -99.5 37.5t-25.5 78.5q11 64 69 97t152 33z" />
    <glyph glyph-name="epsilon" unicode="&#x3b5;" horiz-adv-x="487" 
d="M291 510q85 0 132.5 -39t42.5 -104h-87q2 40 -21.5 60t-74.5 20q-102 0 -116 -78q-8 -43 20.5 -64t96.5 -21l-10 -58q-141 0 -156 -91q-7 -37 15.5 -59.5t78.5 -22.5q106 0 133 84h88q-19 -66 -82.5 -106.5t-147.5 -40.5q-95 0 -142.5 38.5t-36.5 100.5q10 54 53.5 87
t108.5 40q-59 9 -89.5 39t-21.5 81q11 60 67.5 97t148.5 37z" />
    <glyph glyph-name="zeta" unicode="&#x3b6;" horiz-adv-x="440" 
d="M94 700h418l-13 -73l-267 -291q-73 -81 -83 -136q-5 -30 13 -53.5t47 -39.5t57.5 -33.5t46 -45.5t10.5 -65q-7 -45 -56.5 -94t-116.5 -80l-31 61q44 22 72.5 52t33.5 55q4 25 -14.5 44.5t-47.5 34.5t-57.5 33t-45 49t-9.5 73q7 40 32.5 81.5t80.5 99.5l227 255h-310z" />
    <glyph glyph-name="eta" unicode="&#x3b7;" horiz-adv-x="563" 
d="M127 500h86l-18 -98q63 108 182 108q78 0 109.5 -48t15.5 -136l-93 -526h-86l90 509q23 127 -79 127q-57 0 -102 -41t-59 -123l-48 -272h-86z" />
    <glyph glyph-name="theta" unicode="&#x3b8;" horiz-adv-x="558" 
d="M350 710q122 0 167 -90t14 -259q-30 -176 -110 -273.5t-200 -97.5q-79 0 -113 39t-22 110q17 87 -41 87q-7 0 -25 -4l11 67q30 8 55 8q54 0 77 -31.5t12 -92.5q-18 -109 67 -109q80 0 127.5 73.5t72.5 218.5q2 8 2 13q-77 -41 -174 -41t-139 50t-27 134q15 82 79.5 140
t166.5 58zM296 392q74 0 156 42q16 204 -115 204q-121 0 -145 -129q-10 -52 15.5 -84.5t88.5 -32.5z" />
    <glyph glyph-name="iota" unicode="&#x3b9;" horiz-adv-x="257" 
d="M127 500h86l-64 -362q-12 -68 41 -68q15 0 23 1l-12 -71q-21 -5 -51 -5q-57 0 -80.5 26t-12.5 83z" />
    <glyph glyph-name="kappa" unicode="&#x3ba;" horiz-adv-x="500" 
d="M127 500h86l-88 -500h-86zM422 500h101l-246 -226l174 -274h-102l-168 271z" />
    <glyph glyph-name="lambda" unicode="&#x3bb;" horiz-adv-x="473" 
d="M132 711q44 0 72.5 -6t54 -22.5t41.5 -49t25 -83.5l106 -540l-92 -20l-65 366q-6 34 -6 70q-18 -45 -31 -70l-188 -356h-87l271 509l-13 54q-10 39 -33.5 54.5t-67.5 16.5z" />
    <glyph glyph-name="nu" unicode="&#x3bd;" horiz-adv-x="473" 
d="M142 510q12 -49 23.5 -114.5t18 -108.5t16.5 -115.5t12 -86.5q88 150 220 415h86q-88 -169 -276 -500h-97q-39 280 -97 490z" />
    <glyph glyph-name="xi" unicode="&#x3be;" horiz-adv-x="446" 
d="M97 700h418l-12 -67q-135 -68 -210.5 -122.5t-83.5 -101.5q-6 -38 40.5 -56.5t131.5 -18.5l-12 -65q-82 0 -145 -36.5t-71 -80.5q-4 -24 14.5 -43.5t47.5 -34.5t57.5 -31t46.5 -41t12 -58q-7 -40 -56 -86t-117 -74l-23 59q41 20 65.5 45t28.5 47q4 25 -14.5 44
t-47.5 32.5t-57.5 29t-45.5 42t-11 63.5q9 50 68.5 96.5t122.5 59.5q-59 7 -103.5 31t-37.5 68q19 104 282 228h-301z" />
    <glyph glyph-name="omicron" unicode="&#x3bf;" horiz-adv-x="542" 
d="M308 439q-67 0 -113 -50.5t-61 -138.5q-16 -88 12.5 -138.5t95.5 -50.5q66 0 112 50.5t62 138.5q15 88 -13 138.5t-95 50.5zM320 510q103 0 153.5 -70.5t30.5 -189.5q-22 -119 -97 -189.5t-178 -70.5q-104 0 -154.5 70.5t-28.5 189.5q21 119 96 189.5t178 70.5z" />
    <glyph glyph-name="pi" unicode="&#x3c0;" horiz-adv-x="570" 
d="M62 500h542l-12 -65h-105l-52 -297q-12 -68 41 -68q15 0 23 1l-12 -71q-23 -5 -53 -5q-112 0 -92 109l59 331h-159l-77 -435h-86l76 435h-105z" />
    <glyph glyph-name="rho" unicode="&#x3c1;" horiz-adv-x="569" 
d="M348 510q108 0 156 -70.5t27 -189.5q-21 -117 -90.5 -188.5t-164.5 -71.5q-60 0 -95.5 32t-41.5 85l-54 -307h-87l79 446q23 129 93 196.5t178 67.5zM334 439q-65 0 -109 -49t-61 -145q-15 -80 10.5 -132t94.5 -52q67 0 110.5 50.5t58.5 138.5t-11 138.5t-93 50.5z" />
    <glyph glyph-name="sigma1" unicode="&#x3c2;" horiz-adv-x="479" 
d="M305 510q99 0 142.5 -47.5t40.5 -122.5h-81q-2 97 -110 97q-64 0 -104.5 -45.5t-52.5 -112.5q-8 -47 0.5 -81.5t29 -55t46.5 -36t52.5 -28.5t47.5 -28t31.5 -38.5t4.5 -56.5q-7 -43 -57 -91t-117 -79l-28 59q44 23 73.5 53t34.5 56q4 21 -13 37t-44 26.5t-57.5 28.5
t-55 43.5t-36 71.5t0.5 112q18 101 85.5 169.5t166.5 68.5z" />
    <glyph glyph-name="sigma" unicode="&#x3c3;" horiz-adv-x="563" 
d="M320 510q43 0 126.5 -5t137.5 -5l-12 -67q-78 0 -136 6q41 -21 60 -74t6 -123q-20 -115 -95 -183.5t-178 -68.5q-104 0 -154.5 70t-28.5 190q21 119 96 189.5t178 70.5zM308 439q-67 0 -113 -51t-61 -138q-16 -88 12.5 -138.5t95.5 -50.5q66 0 112.5 50.5t61.5 138.5
q15 87 -13 138t-95 51z" />
    <glyph glyph-name="tau" unicode="&#x3c4;" horiz-adv-x="467" 
d="M62 500h440l-12 -65h-183l-52 -297q-13 -68 41 -68q15 0 23 1l-13 -71q-21 -5 -52 -5q-112 0 -92 109l59 331h-171z" />
    <glyph glyph-name="upsilon" unicode="&#x3c5;" horiz-adv-x="575" 
d="M116 510q111 0 93 -109l-37 -210q-11 -60 13 -93.5t80 -33.5q57 0 92 33.5t46 93.5l55 309h87l-56 -317q-15 -88 -77.5 -140.5t-159.5 -52.5q-96 0 -140 52.5t-29 140.5l33 185q12 68 -41 68q-7 0 -23 -2l12 72q23 4 52 4z" />
    <glyph glyph-name="phi" unicode="&#x3c6;" horiz-adv-x="731" 
d="M329 509l-13 -71q-75 -7 -123 -57t-62 -129q-32 -174 157 -190l42 235q37 213 210 213q93 0 134.5 -60t21.5 -180q-21 -119 -109 -192.5t-224 -83.5l-34 -194h-87l34 194q-134 9 -194.5 75t-39.5 183q19 106 100 177.5t187 79.5zM414 284l-39 -222q97 10 157 65t75 143
q15 86 -5.5 126.5t-66.5 40.5q-47 0 -77 -35.5t-44 -117.5z" />
    <glyph glyph-name="chi" unicode="&#x3c7;" horiz-adv-x="502" 
d="M69 500h101l68 -218q1 -4 11 -57q2 3 14 26t18 32l146 217h95l-237 -337l130 -363h-106l-74 229q-5 14 -13 63q-16 -33 -34 -63l-154 -229h-99l252 356z" />
    <glyph glyph-name="psi" unicode="&#x3c8;" horiz-adv-x="761" 
d="M421 700h86l-113 -637q175 13 200 148l51 289h86l-51 -292q-19 -101 -98 -154.5t-200 -60.5l-34 -193h-86l34 193q-119 7 -180 60.5t-42 154.5l51 292h87l-51 -289q-25 -135 147 -148z" />
    <glyph glyph-name="omega" unicode="&#x3c9;" horiz-adv-x="768" 
d="M318 510l-11 -68q-140 -3 -174 -192q-16 -93 6 -140t71 -47q45 0 81 29t48 96l23 176h92l-39 -176q-12 -67 13.5 -96t70.5 -29q49 0 88 47t55 140q34 189 -105 192l11 68q115 -4 158 -75.5t23 -184.5q-22 -127 -81.5 -193.5t-151.5 -66.5q-55 0 -92.5 29t-42.5 81
q-23 -52 -70.5 -81t-102.5 -29q-91 0 -127.5 66.5t-14.5 193.5q19 113 87 184.5t185 75.5z" />
    <glyph glyph-name="iotadieresis" unicode="&#x3ca;" horiz-adv-x="257" 
d="M127 500h86l-64 -362q-12 -68 41 -68q15 0 23 1l-12 -71q-21 -5 -51 -5q-57 0 -80.5 26t-12.5 83zM141 594h-65l12 70h66zM303 594h-65l12 70h66z" />
    <glyph glyph-name="upsilondieresis" unicode="&#x3cb;" horiz-adv-x="575" 
d="M116 510q111 0 93 -109l-37 -210q-11 -60 13 -93.5t80 -33.5q57 0 92 33.5t46 93.5l55 309h87l-56 -317q-15 -88 -77.5 -140.5t-159.5 -52.5q-96 0 -140 52.5t-29 140.5l33 185q12 68 -41 68q-7 0 -23 -2l12 72q23 4 52 4zM304 594h-65l12 70h66zM466 594h-65l12 70h66z
" />
    <glyph glyph-name="omicrontonos" unicode="&#x3cc;" horiz-adv-x="542" 
d="M330 709h92l-85 -168h-49zM308 439q-67 0 -113 -50.5t-61 -138.5q-16 -88 12.5 -138.5t95.5 -50.5q66 0 112 50.5t62 138.5q15 88 -13 138.5t-95 50.5zM320 510q103 0 153.5 -70.5t30.5 -189.5q-22 -119 -97 -189.5t-178 -70.5q-104 0 -154.5 70.5t-28.5 189.5
q21 119 96 189.5t178 70.5z" />
    <glyph glyph-name="upsilontonos" unicode="&#x3cd;" horiz-adv-x="575" 
d="M348 709h92l-85 -168h-49zM116 510q111 0 93 -109l-37 -210q-11 -60 13 -93.5t80 -33.5q57 0 92 33.5t46 93.5l55 309h87l-56 -317q-15 -88 -77.5 -140.5t-159.5 -52.5q-96 0 -140 52.5t-29 140.5l33 185q12 68 -41 68q-7 0 -23 -2l12 72q23 4 52 4z" />
    <glyph glyph-name="omegatonos" unicode="&#x3ce;" horiz-adv-x="768" 
d="M318 510l-11 -68q-140 -3 -174 -192q-16 -93 6 -140t71 -47q45 0 81 29t48 96l23 176h92l-39 -176q-12 -67 13.5 -96t70.5 -29q49 0 88 47t55 140q34 189 -105 192l11 68q115 -4 158 -75.5t23 -184.5q-22 -127 -81.5 -193.5t-151.5 -66.5q-55 0 -92.5 29t-42.5 81
q-23 -52 -70.5 -81t-102.5 -29q-91 0 -127.5 66.5t-14.5 193.5q19 113 87 184.5t185 75.5zM443 709h92l-85 -168h-49z" />
    <glyph glyph-name="afii10023" unicode="&#x401;" horiz-adv-x="604" 
d="M517 0h-470l123 700h464l-13 -74h-370l-40 -227h311l-13 -72h-311l-45 -253h376zM368 756h-65l12 67h65zM539 756h-66l12 67h66z" />
    <glyph glyph-name="afii10051" unicode="&#x402;" horiz-adv-x="735" 
d="M94 700h564l-13 -74h-235l-46 -264q65 108 191 108q82 0 117.5 -48.5t19.5 -135.5l-25 -146q-15 -85 -80 -132t-157 -48l12 69q111 2 131 110l22 130q24 127 -83 127q-58 0 -107.5 -41.5t-63.5 -119.5l-41 -235h-94l110 626h-235z" />
    <glyph glyph-name="afii10052" unicode="&#x403;" horiz-adv-x="540" 
d="M170 700h443l-13 -74h-349l-110 -626h-94zM482 875l80 -11l-166 -139h-56z" />
    <glyph glyph-name="afii10053" unicode="&#x404;" horiz-adv-x="695" 
d="M465 710q115 0 181 -58t66 -155h-97q-3 62 -46 98t-118 36q-97 0 -164.5 -63t-97.5 -169h291l-13 -72h-293q-15 -117 30.5 -187.5t147.5 -70.5q75 0 131 36t80 98h97q-33 -97 -120 -155t-202 -58q-149 0 -219 102.5t-43 257.5q28 155 134 257.5t255 102.5z" />
    <glyph glyph-name="afii10054" unicode="&#x405;" horiz-adv-x="646" 
d="M409 710q115 0 175.5 -52.5t55.5 -135.5h-98q2 113 -148 113q-82 0 -126.5 -33t-52.5 -83q-10 -58 26 -81.5t118 -34.5q123 -14 185 -58.5t45 -139.5q-16 -93 -99 -154t-211 -61q-116 0 -178.5 53.5t-57.5 136.5h98q-2 -52 36 -84t118 -32q82 0 130.5 36.5t58.5 91.5
q11 63 -29.5 88.5t-131.5 38.5q-120 16 -173.5 57t-37.5 135q15 84 93.5 141.5t203.5 57.5z" />
    <glyph glyph-name="afii10055" unicode="&#x406;" horiz-adv-x="268" 
d="M141 0h-94l123 700h94z" />
    <glyph glyph-name="afii10056" unicode="&#x407;" horiz-adv-x="268" 
d="M141 0h-94l123 700h94zM174 756h-65l12 67h65zM345 756h-66l12 67h66z" />
    <glyph glyph-name="afii10057" unicode="&#x408;" horiz-adv-x="536" 
d="M440 700h94l-90 -508q-16 -93 -86 -147.5t-176 -54.5q-90 0 -138.5 49t-45.5 130h98q-3 -43 23 -71t81 -28q128 0 150 120z" />
    <glyph glyph-name="afii10058" unicode="&#x409;" horiz-adv-x="1080" 
d="M616 354l-50 -283h195q69 0 110.5 40t52.5 102q10 62 -18.5 101.5t-97.5 39.5h-192zM270 700h407l-49 -279h211q104 0 150 -61t31 -147q-15 -89 -82 -151t-168 -62h-310l109 626h-220q-72 -346 -176 -509q-87 -127 -208 -127l15 89q70 0 123 84q81 128 167 537z" />
    <glyph glyph-name="afii10059" unicode="&#x40a;" horiz-adv-x="1041" 
d="M170 700h94l-49 -279h303l49 279h94l-49 -279h188q104 0 150 -61t31 -147q-15 -89 -82 -151t-168 -62h-287l62 352h-303l-62 -352h-94zM600 352l-50 -281h172q69 0 110 39.5t52 101.5q11 61 -17.5 100.5t-97.5 39.5h-169z" />
    <glyph glyph-name="afii10060" unicode="&#x40b;" horiz-adv-x="760" 
d="M94 700h564l-13 -74h-235l-47 -270q65 108 191 108q82 0 117 -48.5t20 -135.5l-49 -280h-94l46 263q23 127 -83 127q-58 0 -107.5 -41.5t-63.5 -119.5l-40 -229h-94l110 626h-235z" />
    <glyph glyph-name="afii10061" unicode="&#x40c;" horiz-adv-x="626" 
d="M118 0h-94l123 700h94zM556 0h-115l-250 367l354 333h111l-354 -328zM471 875l80 -11l-166 -139h-56z" />
    <glyph glyph-name="afii10062" unicode="&#x40e;" horiz-adv-x="621" 
d="M299 846h57q-5 -32 10 -50.5t49 -18.5q70 0 85 69h56q-9 -49 -51.5 -80.5t-96.5 -31.5q-55 0 -86 31t-23 81zM95 700h105l115 -346q9 -23 12 -58q19 36 34 58l236 346h102l-395 -569q-93 -140 -231 -140q-17 0 -49 2l16 85q22 -4 36 -4q77 0 122 60l61 86z" />
    <glyph glyph-name="afii10145" unicode="&#x40f;" horiz-adv-x="688" 
d="M170 700h94l-111 -626h327l111 626h93l-123 -700h-213l-42 -155h-60l13 155h-212z" />
    <glyph glyph-name="afii10017" unicode="&#x410;" horiz-adv-x="633" 
d="M332 700h136l126 -700h-104l-34 201h-294l-105 -201h-98zM387 642q-17 -43 -48 -101l-142 -268h249l-48 269q-3 19 -11 100z" />
    <glyph glyph-name="afii10018" unicode="&#x411;" horiz-adv-x="667" 
d="M170 700h447l-13 -74h-353l-38 -218h211q105 0 151 -59t30 -145q-15 -87 -81 -145.5t-167 -58.5h-310zM202 345l-50 -278h195q70 0 110.5 38t51.5 99t-17.5 101t-97.5 40h-192z" />
    <glyph glyph-name="afii10019" unicode="&#x412;" horiz-adv-x="671" 
d="M210 396h183q67 0 103.5 34t44.5 85q9 50 -16 80.5t-92 30.5h-182zM361 0h-314l123 700h300q99 0 142 -48t30 -119q-11 -65 -53 -109t-117 -56q78 -10 112.5 -59t22.5 -119q-14 -81 -79.5 -135.5t-166.5 -54.5zM153 74h194q74 0 115.5 35t51.5 91t-20.5 93t-102.5 37
h-193z" />
    <glyph glyph-name="afii10020" unicode="&#x413;" horiz-adv-x="540" 
d="M170 700h443l-13 -74h-349l-110 -626h-94z" />
    <glyph glyph-name="afii10021" unicode="&#x414;" horiz-adv-x="779" 
d="M317 700h392l-110 -626h127l-56 -245h-85l30 171h-540l-30 -171h-85l30 245h98q154 223 229 626zM391 626q-64 -342 -214 -552h328l97 552h-211z" />
    <glyph glyph-name="afii10022" unicode="&#x415;" horiz-adv-x="604" 
d="M517 0h-470l123 700h464l-13 -74h-370l-40 -227h311l-13 -72h-311l-45 -253h376z" />
    <glyph glyph-name="afii10024" unicode="&#x416;" horiz-adv-x="972" 
d="M82 0h-114l384 372l-238 328h111l236 -333zM493 0h-94l123 700h94zM924 0h-115l-249 367l353 333h111l-353 -328z" />
    <glyph glyph-name="afii10025" unicode="&#x417;" horiz-adv-x="624" 
d="M286 324l13 70q185 0 208 128q9 53 -21.5 83.5t-102.5 30.5q-139 0 -173 -113h-99q21 85 101 136t184 51q116 0 173.5 -49.5t44.5 -128.5q-15 -76 -73 -119.5t-147 -52.5q90 -6 135 -50.5t32 -122.5q-15 -85 -97.5 -141t-199.5 -56q-104 0 -167 52.5t-54 138.5h101
q-3 -57 32.5 -87t106.5 -30q72 0 119 36.5t56 90.5q11 66 -30.5 99.5t-141.5 33.5z" />
    <glyph glyph-name="afii10026" unicode="&#x418;" horiz-adv-x="697" 
d="M170 700h92l-89 -505q-3 -16 -17 -78q4 7 18.5 33t21.5 37l371 513h125l-123 -700h-94l95 545q11 56 16 72q-30 -51 -39 -66l-389 -551h-111z" />
    <glyph glyph-name="afii10027" unicode="&#x419;" horiz-adv-x="697" 
d="M328 846h57q-5 -32 10 -50.5t49 -18.5q70 0 85 69h56q-9 -49 -51.5 -80.5t-97.5 -31.5q-54 0 -85 31t-23 81zM170 700h92l-89 -505q-3 -16 -17 -78q4 7 18.5 33t21.5 37l371 513h125l-123 -700h-94l95 545q11 56 16 72q-30 -51 -39 -66l-389 -551h-111z" />
    <glyph glyph-name="afii10028" unicode="&#x41a;" horiz-adv-x="626" 
d="M141 0h-94l123 700h94zM579 0h-115l-250 367l354 333h111l-354 -328z" />
    <glyph glyph-name="afii10029" unicode="&#x41b;" horiz-adv-x="681" 
d="M270 700h406l-123 -700h-93l109 626h-220q-72 -346 -176 -509q-87 -127 -208 -127l15 89q70 0 123 84q81 128 167 537z" />
    <glyph glyph-name="afii10030" unicode="&#x41c;" horiz-adv-x="861" 
d="M170 700h147l91 -511q1 -12 4 -80q17 55 32 81l267 510h147l-123 -700h-94l97 548q4 26 16 81q-19 -47 -33 -78l-291 -551h-78l-98 552q-3 19 -5 75q-1 -14 -6 -44.5t-6 -34.5l-97 -548h-93z" />
    <glyph glyph-name="afii10031" unicode="&#x41d;" horiz-adv-x="694" 
d="M567 0h-94l57 326h-332l-57 -326h-94l123 700h94l-53 -300h332l53 300h94z" />
    <glyph glyph-name="afii10032" unicode="&#x41e;" horiz-adv-x="756" 
d="M448 628q-108 0 -177.5 -76t-92.5 -202q-22 -126 21.5 -202t151.5 -76q107 0 177 76t92 202q23 126 -20.5 202t-151.5 76zM463 710q149 0 217.5 -102.5t40.5 -257.5q-27 -155 -131.5 -257.5t-253.5 -102.5q-148 0 -217.5 102.5t-42.5 257.5q28 155 133.5 257.5
t253.5 102.5z" />
    <glyph glyph-name="afii10033" unicode="&#x41f;" horiz-adv-x="664" 
d="M543 0h-89l110 626h-323l-110 -626h-90l123 700h502z" />
    <glyph glyph-name="afii10034" unicode="&#x420;" horiz-adv-x="634" 
d="M476 700q100 0 142.5 -58.5t26.5 -149.5q-16 -95 -79.5 -155.5t-169.5 -60.5h-207l-48 -276h-94l123 700h306zM441 626h-190l-50 -281h191q66 0 105 39t51 105q25 137 -107 137z" />
    <glyph glyph-name="afii10035" unicode="&#x421;" horiz-adv-x="695" 
d="M564 206h97q-34 -97 -121.5 -156.5t-201.5 -59.5q-149 0 -219 102.5t-43 257.5q28 155 134 257.5t255 102.5q114 0 180.5 -59.5t66.5 -156.5h-97q-3 62 -46.5 98t-118.5 36q-108 0 -178.5 -76t-93.5 -202q-22 -126 22 -202t152 -76q75 0 131.5 36t80.5 98z" />
    <glyph glyph-name="afii10036" unicode="&#x422;" horiz-adv-x="586" 
d="M300 0h-94l110 626h-235l13 74h564l-13 -74h-235z" />
    <glyph glyph-name="afii10037" unicode="&#x423;" horiz-adv-x="621" 
d="M95 700h105l115 -346q9 -23 12 -58q19 36 34 58l236 346h102l-395 -569q-93 -140 -231 -140q-17 0 -49 2l16 85q22 -4 36 -4q77 0 122 60l61 86z" />
    <glyph glyph-name="afii10038" unicode="&#x424;" horiz-adv-x="789" 
d="M430 700h95l-17 -92q146 -11 211 -77.5t45 -176.5q-19 -110 -107.5 -176.5t-237.5 -77.5l-17 -100h-95l17 100q-146 11 -210.5 77.5t-45.5 176.5t108 176.5t238 77.5zM664 354q15 82 -28.5 132t-139.5 54l-66 -372q98 3 159 53t75 133zM168 354q-15 -83 28.5 -132.5
t139.5 -53.5l66 372q-98 -4 -158.5 -54t-75.5 -132z" />
    <glyph glyph-name="afii10039" unicode="&#x425;" horiz-adv-x="649" 
d="M97 700h117l124 -231q14 -31 21 -57q11 19 43 58l204 230h109l-310 -344l197 -356h-118l-129 240q-15 30 -22 59q-17 -29 -45 -60l-211 -239h-110l319 354z" />
    <glyph glyph-name="afii10040" unicode="&#x426;" horiz-adv-x="754" 
d="M170 700h94l-111 -626h327l111 626h93l-111 -626h128l-57 -245h-85l31 171h-543z" />
    <glyph glyph-name="afii10041" unicode="&#x427;" horiz-adv-x="668" 
d="M541 0h-93l58 333q-35 -67 -103.5 -103t-144.5 -36q-81 0 -126 42t-31 122l60 342h95l-56 -315q-9 -52 21 -78.5t85 -26.5q74 0 140.5 46.5t80.5 127.5l44 246h93z" />
    <glyph glyph-name="afii10042" unicode="&#x428;" horiz-adv-x="968" 
d="M170 700h93l-110 -626h256l111 626h93l-110 -626h256l111 626h94l-123 -700h-794z" />
    <glyph glyph-name="afii10043" unicode="&#x429;" horiz-adv-x="1034" 
d="M170 700h93l-110 -626h256l111 626h93l-110 -626h256l111 626h94l-111 -626h128l-57 -245h-85l31 171h-823z" />
    <glyph glyph-name="afii10044" unicode="&#x42a;" horiz-adv-x="711" 
d="M247 354l-50 -283h195q69 0 110.5 40t52.5 102q10 62 -18.5 101.5t-97.5 39.5h-192zM93 700h215l-49 -279h211q104 0 150 -61t31 -147q-15 -89 -82 -151t-168 -62h-310l110 626h-121z" />
    <glyph glyph-name="afii10045" unicode="&#x42b;" horiz-adv-x="854" 
d="M170 700h94l-49 -279h207q104 0 150 -61t31 -147q-15 -89 -82.5 -151t-167.5 -62h-306zM203 354l-50 -283h190q70 0 111.5 40t52.5 102q10 62 -18.5 101.5t-97.5 39.5h-188zM727 0h-94l123 700h94z" />
    <glyph glyph-name="afii10046" unicode="&#x42c;" horiz-adv-x="667" 
d="M170 700h94l-49 -279h211q104 0 150 -61t31 -147q-15 -89 -82 -151t-168 -62h-310zM203 354l-50 -283h195q69 0 110.5 40t52.5 102q10 62 -18.5 101.5t-97.5 39.5h-192z" />
    <glyph glyph-name="afii10047" unicode="&#x42d;" horiz-adv-x="695" 
d="M400 710q148 0 218 -102.5t42 -257.5q-27 -155 -133 -257.5t-254 -102.5q-115 0 -182 58t-66 155h96q4 -62 47.5 -98t118.5 -36q103 0 172.5 71.5t92.5 186.5h-290l13 72h288q10 105 -35.5 168.5t-141.5 63.5q-76 0 -131.5 -36t-81.5 -98h-96q33 97 120.5 155t202.5 58z
" />
    <glyph glyph-name="afii10048" unicode="&#x42e;" horiz-adv-x="1002" 
d="M170 700h94l-53 -300h132q38 136 136 223t234 87q148 0 214.5 -102t39.5 -258t-130 -258t-251 -102q-142 0 -209.5 93t-48.5 243h-130l-57 -326h-94zM698 628q-107 0 -175 -75.5t-91 -202.5q-22 -127 19.5 -202.5t148.5 -75.5t175.5 75.5t90.5 202.5t-19.5 202.5
t-148.5 75.5z" />
    <glyph glyph-name="afii10049" unicode="&#x42f;" horiz-adv-x="667" 
d="M352 700h311l-123 -700h-94l53 300h-179q-36 0 -62.5 -11.5t-53.5 -42t-48 -92t-37 -154.5h-94q16 95 40 161t53.5 101.5t58 52t63.5 21.5q-75 10 -106 56.5t-18 122.5q15 81 74.5 133t161.5 52zM363 626q-129 0 -151 -123q-23 -130 106 -130h193l45 253h-193z" />
    <glyph glyph-name="afii10065" unicode="&#x430;" horiz-adv-x="574" 
d="M300 510q63 0 97.5 -34.5t42.5 -89.5l20 114h86l-87 -500h-87l19 112q-26 -52 -74.5 -87t-107.5 -35q-95 0 -139 71.5t-24 188.5t89.5 188.5t164.5 71.5zM307 438q-67 0 -111.5 -50t-59.5 -138t11.5 -138t93.5 -50q70 0 114.5 52t59.5 131q17 95 -12.5 144t-95.5 49z" />
    <glyph glyph-name="afii10066" unicode="&#x431;" horiz-adv-x="549" 
d="M401 706q87 0 134 15l-13 -73q-47 -14 -136 -14q-145 0 -209 -199q84 65 177 65q100 0 139 -67.5t20 -174.5q-21 -120 -92 -194t-181 -74q-116 0 -160 86.5t-14 254.5q31 175 118.5 275t216.5 100zM314 433q-71 0 -152 -53q-7 -34 -11 -56q-48 -263 100 -263
q70 0 112.5 53t57.5 139q33 180 -107 180z" />
    <glyph glyph-name="afii10067" unicode="&#x432;" horiz-adv-x="522" 
d="M202 439l-27 -152h121q46 0 70.5 22t30.5 55q13 75 -74 75h-121zM127 500h230q77 0 109.5 -35.5t23.5 -86.5q-7 -43 -37.5 -74t-81.5 -43q56 -9 81 -43t16 -84q-10 -57 -61.5 -95.5t-129.5 -38.5h-238zM165 230l-29 -168h127q99 0 115 82q6 38 -14 62t-70 24h-129z" />
    <glyph glyph-name="afii10068" unicode="&#x433;" horiz-adv-x="440" 
d="M127 500h349l-12 -70h-264l-75 -430h-86z" />
    <glyph glyph-name="afii10069" unicode="&#x434;" horiz-adv-x="603" 
d="M209 500h322l-77 -438h104l-54 -199h-73l24 137h-400l-24 -137h-71l16 199h77q45 72 90.5 199t65.5 239zM279 432q-15 -78 -59.5 -191t-85.5 -179h233l65 370h-153z" />
    <glyph glyph-name="afii10070" unicode="&#x435;" horiz-adv-x="533" 
d="M337 510q85 0 128.5 -36.5t43.5 -88.5q0 -65 -57.5 -105t-175.5 -40h-146q-13 -87 15.5 -134t96.5 -47q50 0 88.5 25t52.5 70h87q-23 -75 -90 -119.5t-149 -44.5q-106 0 -156 71t-29 189q20 116 101.5 188t189.5 72zM323 445q-62 0 -109 -38t-70 -108h136q139 0 139 77
q0 29 -23.5 49t-72.5 20z" />
    <glyph glyph-name="afii10072" unicode="&#x436;" horiz-adv-x="743" 
d="M73 500h101l156 -236l-261 -264h-100l266 267zM374 500h90l-88 -500h-90zM666 500h100l-244 -233l173 -267h-101l-168 264z" />
    <glyph glyph-name="afii10073" unicode="&#x437;" horiz-adv-x="493" 
d="M297 510q94 0 139 -36t35 -95q-10 -54 -52 -85.5t-106 -36.5q66 -3 98.5 -36t23.5 -89q-12 -62 -75.5 -102t-158.5 -40q-89 0 -135.5 40t-41.5 107h88q-3 -84 105 -84q54 0 86.5 23.5t38.5 59.5q8 46 -22.5 68t-105.5 22l10 58q71 0 107.5 20.5t44.5 65.5
q6 36 -15.5 56.5t-74.5 20.5q-102 0 -127 -80h-87q18 66 77 104.5t148 38.5z" />
    <glyph glyph-name="afii10074" unicode="&#x438;" horiz-adv-x="561" 
d="M127 500h79l-57 -323q-12 -56 -16 -74q29 50 40 65l256 332h101l-88 -500h-81l61 349q7 41 17 73q-30 -50 -41 -68l-269 -354h-90z" />
    <glyph glyph-name="afii10075" unicode="&#x439;" horiz-adv-x="561" 
d="M242 676l57 1q-12 -76 52 -76q65 0 80 76l57 -1q-10 -52 -50 -85t-94 -33t-82.5 33t-19.5 85zM127 500h79l-57 -323q-12 -56 -16 -74q29 50 40 65l256 332h101l-88 -500h-81l61 349q7 41 17 73q-30 -50 -41 -68l-269 -354h-90z" />
    <glyph glyph-name="afii10076" unicode="&#x43a;" horiz-adv-x="520" 
d="M127 500h86l-88 -500h-86zM435 500h99l-260 -226l189 -274h-101l-184 271z" />
    <glyph glyph-name="afii10077" unicode="&#x43b;" horiz-adv-x="555" 
d="M203 500h321l-88 -500h-87l76 435h-152q-19 -97 -56.5 -198t-85.5 -164q-64 -77 -159 -77l12 66q48 0 92 66q78 125 127 372z" />
    <glyph glyph-name="afii10078" unicode="&#x43c;" horiz-adv-x="692" 
d="M127 500h124l66 -342q5 -28 5 -66q14 33 29 66l191 342h119l-88 -500h-79l63 361q6 38 13 60l-29 -60l-197 -361h-75l-72 357q-3 14 -8 66q0 -9 -9 -66l-63 -357h-78z" />
    <glyph glyph-name="afii10079" unicode="&#x43d;" horiz-adv-x="558" 
d="M127 500h86l-37 -207h228l37 207h86l-88 -500h-86l39 224h-228l-39 -224h-86z" />
    <glyph glyph-name="afii10080" unicode="&#x43e;" horiz-adv-x="542" 
d="M308 439q-67 0 -113 -50.5t-61 -138.5q-16 -88 12.5 -138.5t95.5 -50.5q66 0 112 50.5t62 138.5q15 88 -13 138.5t-95 50.5zM320 510q103 0 153.5 -70.5t30.5 -189.5q-22 -119 -97 -189.5t-178 -70.5q-104 0 -154.5 70.5t-28.5 189.5q21 119 96 189.5t178 70.5z" />
    <glyph glyph-name="afii10081" unicode="&#x43f;" horiz-adv-x="551" 
d="M127 500h393l-88 -500h-86l76 434h-221l-76 -434h-86z" />
    <glyph glyph-name="afii10082" unicode="&#x440;" horiz-adv-x="574" 
d="M373 510q95 0 138.5 -71.5t23.5 -188.5q-21 -117 -89.5 -188.5t-163.5 -71.5q-59 0 -97 34.5t-45 87.5l-55 -312h-87l124 700h87l-21 -114q28 55 75.5 89.5t109.5 34.5zM339 438q-66 0 -112 -49t-63 -144q-14 -79 12.5 -131t96.5 -52q67 0 111.5 50t60.5 138
q15 88 -12 138t-94 50z" />
    <glyph glyph-name="afii10083" unicode="&#x441;" horiz-adv-x="511" 
d="M324 510q84 0 135 -48t44 -128h-87q2 48 -26 76.5t-81 28.5q-68 0 -115 -51.5t-61 -137.5q-16 -86 13 -137.5t97 -51.5q52 0 90.5 28.5t52.5 76.5h88q-21 -80 -89 -128t-152 -48q-108 0 -158 71t-29 189t95.5 189t182.5 71z" />
    <glyph glyph-name="afii10084" unicode="&#x442;" horiz-adv-x="439" 
d="M52 500h430l-11 -65h-172l-76 -435h-87l76 435h-172z" />
    <glyph glyph-name="afii10085" unicode="&#x443;" horiz-adv-x="473" 
d="M50 500h92l61 -356q5 -29 5 -75q15 42 32 75l192 356h86l-301 -552q-50 -95 -105 -126t-142 -32l14 77q89 0 128 66l33 53z" />
    <glyph glyph-name="afii10086" unicode="&#x444;" horiz-adv-x="869" 
d="M288 510q57 0 90 -35t40 -89l56 314h87l-56 -314q27 54 72 89t101 35q87 0 130 -72t23 -188q-21 -115 -89 -187.5t-155 -72.5q-54 0 -89 35t-41 87l-55 -312h-86l54 312q-25 -52 -72 -87t-101 -35q-87 0 -129 72.5t-22 187.5q20 116 87.5 188t154.5 72zM646 438
q-58 0 -103.5 -49.5t-62.5 -143.5q-13 -77 12.5 -130t87.5 -53q60 0 102.5 50.5t57.5 137.5t-9.5 137.5t-84.5 50.5zM295 438q-59 0 -101.5 -50.5t-57.5 -137.5t9.5 -137.5t83.5 -50.5q62 0 106.5 52.5t58.5 130.5q17 94 -12 143.5t-87 49.5z" />
    <glyph glyph-name="afii10087" unicode="&#x445;" horiz-adv-x="502" 
d="M69 500h98l84 -150q9 -14 14 -36q13 19 28 36l137 150h92l-219 -240l148 -260h-103l-90 159q-12 22 -16 40q-20 -29 -31 -40l-144 -159h-97l235 255z" />
    <glyph glyph-name="afii10088" unicode="&#x446;" horiz-adv-x="582" 
d="M127 500h86l-77 -438h220l78 438h86l-78 -438h104l-54 -199h-73l25 137h-405z" />
    <glyph glyph-name="afii10089" unicode="&#x447;" horiz-adv-x="552" 
d="M115 500h87l-33 -182q-21 -127 77 -127q57 0 103 41t60 123l26 145h87l-88 -500h-87l39 225q-62 -108 -179 -108q-78 0 -110.5 48.5t-16.5 135.5z" />
    <glyph glyph-name="afii10090" unicode="&#x448;" horiz-adv-x="855" 
d="M127 500h86l-77 -438h219l77 438h87l-78 -438h220l77 438h87l-88 -500h-698z" />
    <glyph glyph-name="afii10091" unicode="&#x449;" horiz-adv-x="896" 
d="M127 500h86l-77 -438h219l77 438h87l-78 -438h220l77 438h87l-78 -438h104l-54 -199h-73l25 137h-710z" />
    <glyph glyph-name="afii10092" unicode="&#x44a;" horiz-adv-x="512" 
d="M182 245l-33 -183h125q95 0 111 90q8 42 -10.5 67.5t-66.5 25.5h-126zM58 500h169l-35 -193h148q79 0 112 -42t21 -111q-13 -72 -61 -113t-126 -41h-234l76 430h-83z" />
    <glyph glyph-name="afii10093" unicode="&#x44b;" horiz-adv-x="693" 
d="M576 500h87l-88 -500h-87zM168 245l-32 -183h124q96 0 112 90q7 42 -11.5 67.5t-66.5 25.5h-126zM127 500h86l-34 -193h147q79 0 112.5 -42.5t20.5 -110.5q-12 -71 -60 -112.5t-126 -41.5h-234z" />
    <glyph glyph-name="afii10094" unicode="&#x44c;" horiz-adv-x="503" 
d="M168 245l-32 -183h124q96 0 112 90q7 42 -11.5 67.5t-66.5 25.5h-126zM127 500h86l-34 -193h147q79 0 112.5 -42.5t20.5 -110.5q-12 -71 -60 -112.5t-126 -41.5h-234z" />
    <glyph glyph-name="afii10095" unicode="&#x44d;" horiz-adv-x="511" 
d="M286 510q108 0 158 -71t29 -189q-20 -118 -95.5 -189t-183.5 -71q-85 0 -136.5 42.5t-44.5 118.5h89q-3 -46 25 -72t81 -26q64 0 109.5 46.5t61.5 127.5h-212l11 58h211q9 75 -20.5 118.5t-91.5 43.5q-53 0 -90 -26t-50 -72h-89q20 76 86.5 118.5t151.5 42.5z" />
    <glyph glyph-name="afii10096" unicode="&#x44e;" horiz-adv-x="772" 
d="M127 500h86l-37 -208h115q29 101 98.5 159.5t163.5 58.5q103 0 152 -70t28 -190t-94.5 -190t-176.5 -70q-98 0 -147 63t-36 172h-114l-40 -225h-86zM541 439q-66 0 -110.5 -50.5t-59.5 -138.5q-16 -88 10.5 -138.5t92.5 -50.5t110.5 50.5t59.5 138.5t-11 138.5t-92 50.5z
" />
    <glyph glyph-name="afii10097" unicode="&#x44f;" horiz-adv-x="531" 
d="M262 500h239l-88 -500h-87l35 203h-125q-23 0 -40 -7t-34.5 -27t-32 -62t-25.5 -107h-89q12 68 28.5 114.5t37 70t39 34t44.5 16.5q-50 10 -71.5 44.5t-13.5 84.5q10 59 57.5 97.5t125.5 38.5zM270 434q-88 0 -103 -81q-7 -39 9.5 -63.5t63.5 -24.5h132l30 169h-132z" />
    <glyph glyph-name="afii10071" unicode="&#x451;" horiz-adv-x="533" 
d="M337 510q85 0 128.5 -36.5t43.5 -88.5q0 -65 -57.5 -105t-175.5 -40h-146q-13 -87 15.5 -134t96.5 -47q50 0 88.5 25t52.5 70h87q-23 -75 -90 -119.5t-149 -44.5q-106 0 -156 71t-29 189q20 116 101.5 188t189.5 72zM323 445q-62 0 -109 -38t-70 -108h136q139 0 139 77
q0 29 -23.5 49t-72.5 20zM292 594h-65l12 70h66zM454 594h-65l12 70h66z" />
    <glyph glyph-name="afii10099" unicode="&#x452;" horiz-adv-x="566" 
d="M314 586h-84l-32 -184q62 108 181 108q78 0 109.5 -48t15.5 -136l-64 -363q-13 -78 -66.5 -117t-121.5 -39l12 69q38 1 60 19t30 67l61 347q23 127 -78 127q-57 0 -102.5 -41t-59.5 -123l-48 -272h-86l103 586h-79l10 57h79l10 57h86l-10 -57h84z" />
    <glyph glyph-name="afii10100" unicode="&#x453;" horiz-adv-x="440" 
d="M376 716l89 -11l-165 -155h-61zM127 500h349l-12 -70h-264l-75 -430h-86z" />
    <glyph glyph-name="afii10101" unicode="&#x454;" horiz-adv-x="511" 
d="M325 510q85 0 136.5 -42.5t44.5 -118.5h-89q2 47 -26 72.5t-81 25.5q-62 0 -106.5 -43.5t-61.5 -118.5h211l-10 -58h-212q-13 -81 16.5 -127.5t93.5 -46.5q53 0 90.5 26t50.5 72h89q-20 -76 -86.5 -118.5t-151.5 -42.5q-108 0 -158 71t-29 189q20 117 95.5 188.5
t183.5 71.5z" />
    <glyph glyph-name="afii10102" unicode="&#x455;" horiz-adv-x="493" 
d="M298 510q91 0 137 -40t37 -107h-82q6 38 -22 61t-78 23q-57 0 -88.5 -21.5t-37.5 -53.5q-7 -37 19.5 -53.5t80.5 -25.5q42 -6 69.5 -13.5t57.5 -23t42 -44.5t5 -70q-12 -67 -71 -109.5t-163 -42.5q-91 0 -139 41t-39 108h82q-5 -39 25.5 -62t83.5 -23q62 0 95.5 22.5
t39.5 55.5q7 41 -20.5 59.5t-83.5 27.5q-35 5 -56.5 9.5t-49 15.5t-41 25t-21 38.5t-1.5 57.5q10 61 69.5 103t149.5 42z" />
    <glyph glyph-name="afii10103" unicode="&#x456;" horiz-adv-x="244" 
d="M154 664h89l-14 -80h-89zM127 500h86l-88 -500h-86z" />
    <glyph glyph-name="afii10104" unicode="&#x457;" horiz-adv-x="245" 
d="M137 594h-65l12 70h66zM299 594h-65l12 70h66zM125 0h-86l88 500h86z" />
    <glyph glyph-name="afii10105" unicode="&#x458;" horiz-adv-x="244" 
d="M127 500h86l-97 -551q-14 -77 -70 -118t-124 -42l13 73q40 0 63 19.5t32 72.5zM154 664h89l-14 -80h-89z" />
    <glyph glyph-name="afii10106" unicode="&#x459;" horiz-adv-x="813" 
d="M479 245l-33 -183h125q95 0 111 90q16 93 -78 93h-125zM203 500h321l-35 -193h148q79 0 112 -42.5t20 -110.5q-12 -72 -60 -113t-126 -41h-234l76 435h-152q-17 -81 -44 -156t-64.5 -140t-87.5 -104t-105 -39l12 66q46 0 91 69t75.5 163t52.5 206z" />
    <glyph glyph-name="afii10107" unicode="&#x45a;" horiz-adv-x="786" 
d="M463 245l-32 -183h113q95 0 111 90q8 42 -10.5 67.5t-67.5 25.5h-114zM127 500h86l-35 -197h209l35 197h86l-34 -193h136q79 0 112 -42t21 -111q-13 -72 -61 -113t-126 -41h-222l42 237h-209l-42 -237h-86z" />
    <glyph glyph-name="afii10108" unicode="&#x45b;" horiz-adv-x="568" 
d="M337 586h-110l-32 -184q63 108 185 108q78 0 110 -48t17 -136l-57 -326h-87l54 309q23 127 -78 127q-58 0 -105 -41t-61 -123l-48 -272h-86l103 586h-54l10 57h54l10 57h86l-11 -57h110z" />
    <glyph glyph-name="afii10109" unicode="&#x45c;" horiz-adv-x="520" 
d="M388 716l89 -11l-165 -155h-61zM127 500h86l-88 -500h-86zM435 500h99l-260 -226l189 -274h-101l-184 271z" />
    <glyph glyph-name="afii10110" unicode="&#x45e;" horiz-adv-x="473" 
d="M197 676l58 1q-12 -76 52 -76q66 0 79 76l57 -1q-10 -52 -50 -85t-94 -33t-82.5 33t-19.5 85zM50 500h92l61 -356q5 -29 5 -75q15 42 32 75l192 356h86l-301 -552q-50 -95 -105 -126t-142 -32l14 77q89 0 128 66l33 53z" />
    <glyph glyph-name="afii10193" unicode="&#x45f;" horiz-adv-x="551" 
d="M127 500h86l-77 -434h220l78 434h86l-88 -500h-158l-35 -143h-58l14 143h-156z" />
    <glyph glyph-name="afii10050" unicode="&#x490;" horiz-adv-x="561" 
d="M170 700h352l32 98h76l-30 -172h-349l-110 -626h-94z" />
    <glyph glyph-name="afii10098" unicode="&#x491;" horiz-adv-x="440" 
d="M127 500h265l29 94h71l-28 -164h-264l-75 -430h-86z" />
    <glyph glyph-name="Wgrave" unicode="&#x1e80;" horiz-adv-x="951" 
d="M103 700h98l47 -528q4 -47 3 -80q17 49 31 80l234 528h87l48 -528q3 -72 3 -80q17 50 31 80l236 528h93l-317 -700h-115l-46 482q-3 34 -1 82q-17 -50 -30 -82l-215 -482h-115zM462 864l83 11l90 -150h-56z" />
    <glyph glyph-name="wgrave" unicode="&#x1e81;" horiz-adv-x="754" 
d="M58 500h87l41 -356q2 -23 2 -71q14 41 28 71l168 356h84l42 -356q3 -23 3 -71q16 48 27 71l167 356h85l-241 -500h-104l-37 321q-4 53 -3 84q-12 -37 -32 -84l-153 -321h-101zM336 705l92 11l78 -166h-60z" />
    <glyph glyph-name="Wacute" unicode="&#x1e82;" horiz-adv-x="951" 
d="M103 700h98l47 -528q4 -47 3 -80q17 49 31 80l234 528h87l48 -528q3 -72 3 -80q17 50 31 80l236 528h93l-317 -700h-115l-46 482q-3 34 -1 82q-17 -50 -30 -82l-215 -482h-115zM634 875l80 -11l-166 -139h-56z" />
    <glyph glyph-name="wacute" unicode="&#x1e83;" horiz-adv-x="754" 
d="M58 500h87l41 -356q2 -23 2 -71q14 41 28 71l168 356h84l42 -356q3 -23 3 -71q16 48 27 71l167 356h85l-241 -500h-104l-37 321q-4 53 -3 84q-12 -37 -32 -84l-153 -321h-101zM501 716l89 -11l-165 -155h-61z" />
    <glyph glyph-name="Wdieresis" unicode="&#x1e84;" horiz-adv-x="951" 
d="M103 700h98l47 -528q4 -47 3 -80q17 49 31 80l234 528h87l48 -528q3 -72 3 -80q17 50 31 80l236 528h93l-317 -700h-115l-46 482q-3 34 -1 82q-17 -50 -30 -82l-215 -482h-115zM514 756h-65l12 67h65zM685 756h-66l12 67h66z" />
    <glyph glyph-name="wdieresis" unicode="&#x1e85;" horiz-adv-x="754" 
d="M58 500h87l41 -356q2 -23 2 -71q14 41 28 71l168 356h84l42 -356q3 -23 3 -71q16 48 27 71l167 356h85l-241 -500h-104l-37 321q-4 53 -3 84q-12 -37 -32 -84l-153 -321h-101zM393 594h-65l12 70h66zM555 594h-65l12 70h66z" />
    <glyph glyph-name="Germandbls" unicode="&#x1e9e;" horiz-adv-x="710" 
d="M437 710q75 0 140 -25t102 -71l-198 -208q88 -21 136 -69.5t35 -127.5q-16 -91 -95.5 -155t-202.5 -64q-54 0 -92 7l13 75q37 -7 80 -7q81 0 132 39t62 105q9 52 -18 88t-72 52.5t-107 21.5l208 221q-53 42 -147 42q-65 0 -118 -28t-63 -83l-91 -523h-94l91 524
q17 90 100 138t199 48z" />
    <glyph glyph-name="Ygrave" unicode="&#x1ef2;" horiz-adv-x="623" 
d="M319 0h-94l55 316l-200 384h112l152 -304l262 304h103l-335 -384zM306 864l83 11l90 -150h-56z" />
    <glyph glyph-name="ygrave" unicode="&#x1ef3;" horiz-adv-x="473" 
d="M50 500h92l61 -356q5 -29 5 -75q15 42 32 75l192 356h86l-301 -552q-50 -95 -105 -126t-142 -32l14 77q89 0 128 66l33 53zM212 705l92 11l78 -166h-60z" />
    <glyph glyph-name="endash" unicode="&#x2013;" horiz-adv-x="642" 
d="M597 264h-540l13 73h540z" />
    <glyph glyph-name="emdash" unicode="&#x2014;" horiz-adv-x="1004" 
d="M960 264h-903l13 73h903z" />
    <glyph glyph-name="afii00208" unicode="&#x2015;" horiz-adv-x="1004" 
d="M960 264h-903l13 73h903z" />
    <glyph glyph-name="quoteleft" unicode="&#x2018;" horiz-adv-x="219" 
d="M262 721l-80 -214h-87l115 214h52z" />
    <glyph glyph-name="quoteright" unicode="&#x2019;" horiz-adv-x="213" 
d="M91 501l81 213h86l-115 -213h-52z" />
    <glyph glyph-name="quotesinglbase" unicode="&#x201a;" horiz-adv-x="219" 
d="M-18 -122l80 214h86l-114 -214h-52z" />
    <glyph glyph-name="quotedblleft" unicode="&#x201c;" horiz-adv-x="358" 
d="M260 721l-81 -214h-87l116 214h52zM399 721l-81 -214h-86l115 214h52z" />
    <glyph glyph-name="quotedblright" unicode="&#x201d;" horiz-adv-x="358" 
d="M91 501l81 213h86l-115 -213h-52zM230 501l81 213h87l-116 -213h-52z" />
    <glyph glyph-name="quotedblbase" unicode="&#x201e;" horiz-adv-x="358" 
d="M-18 -122l80 214h86l-114 -214h-52zM121 -122l80 214h87l-115 -214h-52z" />
    <glyph glyph-name="dagger" unicode="&#x2020;" horiz-adv-x="473" 
d="M284 700h88l-43 -166l168 15l-16 -88l-162 14l-16 -166h-87l43 166l-169 -14l16 88l164 -15z" />
    <glyph glyph-name="daggerdbl" unicode="&#x2021;" horiz-adv-x="492" 
d="M284 700h88l-43 -166l168 15l-16 -88l-162 14l-44 -250l168 15l-16 -88l-163 14l-15 -166h-88l44 166l-169 -14l16 88l163 -15l44 250l-169 -14l16 88l164 -15z" />
    <glyph glyph-name="bullet" unicode="&#x2022;" horiz-adv-x="392" 
d="M178 127q-60 0 -94.5 42t-24.5 102q11 61 60.5 103t109.5 42t94.5 -42t23.5 -103q-11 -60 -60 -102t-109 -42z" />
    <glyph glyph-name="ellipsis" unicode="&#x2026;" horiz-adv-x="904" 
d="M342 97h92l-16 -97h-93zM625 97h92l-16 -97h-93zM59 97h92l-16 -97h-93z" />
    <glyph glyph-name="perthousand" unicode="&#x2030;" horiz-adv-x="1204" 
d="M287 647q-47 0 -78.5 -34.5t-42.5 -94.5q-10 -59 10.5 -94t65.5 -35q48 0 79 34.5t42 94.5q10 59 -10.5 94t-65.5 35zM298 710q78 0 114 -53t21 -139q-15 -85 -70 -139t-132 -54q-78 0 -113.5 53t-21.5 139q15 85 70 139t132 54zM715 700h97l-657 -700h-97zM627 312
q-47 0 -78.5 -34.5t-42.5 -94.5q-10 -59 10.5 -93.5t65.5 -34.5q48 0 79 34t42 94q10 59 -10.5 94t-65.5 35zM638 375q78 0 114 -53t21 -139q-15 -85 -70 -139t-132 -54q-78 0 -113.5 53t-21.5 139q15 85 70 139t132 54zM1004 312q-47 0 -78.5 -34.5t-42.5 -94.5
q-10 -59 10.5 -93.5t65.5 -34.5q48 0 79 34t42 94q10 59 -10.5 94t-65.5 35zM1016 375q78 0 113.5 -53t20.5 -139q-15 -85 -70 -139t-132 -54q-78 0 -113.5 53t-20.5 139q15 85 70 139t132 54z" />
    <glyph glyph-name="minute" unicode="&#x2032;" horiz-adv-x="184" 
d="M165 501h-49l15 213h94z" />
    <glyph glyph-name="second" unicode="&#x2033;" horiz-adv-x="330" 
d="M165 501h-49l15 213h94zM311 501h-49l14 213h94z" />
    <glyph glyph-name="guilsinglleft" unicode="&#x2039;" horiz-adv-x="348" 
d="M308 497l30 -38l-203 -183l139 -183l-44 -38l-177 191l11 60z" />
    <glyph glyph-name="guilsinglright" unicode="&#x203a;" horiz-adv-x="348" 
d="M134 497l177 -191l-11 -60l-244 -191l-30 38l204 183l-140 183z" />
    <glyph glyph-name="fraction" unicode="&#x2044;" horiz-adv-x="622" 
d="M47 0h-87l659 700h86z" />
    <glyph glyph-name="fraction" unicode="&#x2215;" horiz-adv-x="622" 
d="M47 0h-87l659 700h86z" />
    <glyph glyph-name="Euro" unicode="&#x20ac;" horiz-adv-x="637" 
d="M461 403h-271q-8 -28 -12 -55q-7 -38 -8 -65h209l-27 -49h-182q10 -168 167 -168q143 0 204 134h88q-37 -99 -115.5 -155.5t-189.5 -56.5q-115 0 -178 67t-69 179h-77l28 49h49q1 26 8 65q5 30 12 55h-67l28 49h56q45 116 132 186t205 70q110 0 169 -56.5t62 -154.5h-89
q-5 62 -44.5 97.5t-112.5 35.5q-162 0 -230 -178h282z" />
    <glyph glyph-name="afii61352" unicode="&#x2116;" horiz-adv-x="1246" 
d="M1025 710q103 0 153.5 -70.5t29.5 -189.5t-96 -189.5t-178 -70.5q-104 0 -154.5 70.5t-28.5 189.5q20 119 95 189.5t179 70.5zM170 700h133l185 -519q10 -32 15 -74q4 43 11 83l90 510h93l-123 -700h-121l-191 545q-9 30 -15 73q-2 -17 -11 -76l-95 -542h-94zM1013 639
q-67 0 -113.5 -50.5t-60.5 -138.5q-16 -88 12 -138.5t95 -50.5t113 50.5t62 138.5q15 88 -13.5 138.5t-94.5 50.5zM1112 0h-411l11 70h411z" />
    <glyph glyph-name="trademark" unicode="&#x2122;" horiz-adv-x="764" 
d="M125 700h380l49 -252l137 252h83l-58 -331h-55l46 265l-144 -265h-47l-53 265l-46 -265h-54l50 285h-125l-50 -285h-56l49 285h-115z" />
    <glyph glyph-name="estimated" unicode="&#x212e;" horiz-adv-x="714" 
d="M461 710q139 0 202 -88.5t43 -246.5h-527q-4 -15 -5 -25q-22 -126 22 -202t152 -76q75 0 129 35.5t83 98.5h96q-38 -98 -123 -157t-199 -59q-148 0 -218.5 102.5t-43.5 257.5q27 154 134 257t255 103zM443 632q-84 0 -146.5 -49.5t-95.5 -134.5h406q6 83 -35.5 133.5
t-128.5 50.5z" />
    <glyph glyph-name="onethird" unicode="&#x2153;" horiz-adv-x="771" 
d="M94 0h-87l659 700h86zM282 345h-227l9 54h86l43 242l-112 -65l-18 46l143 83h69l-54 -306h70zM574 363q65 0 94.5 -25t21.5 -68q-13 -72 -99 -88q41 -6 60.5 -29t12.5 -59q-8 -45 -50.5 -73t-108.5 -28q-61 0 -93.5 29.5t-27.5 77.5h67q-2 -29 14.5 -43.5t50.5 -14.5
t54 16t24 41q5 30 -13.5 45t-64.5 15l8 44q85 0 94 57q5 25 -8 39t-47 14q-64 0 -79 -54h-67q12 47 54 75.5t103 28.5z" />
    <glyph glyph-name="arrowleft" unicode="&#x2190;" horiz-adv-x="668" 
d="M62 301l293 249l42 -52l-189 -161h429l-13 -72h-429l133 -161l-61 -52z" />
    <glyph glyph-name="arrowup" unicode="&#x2191;" horiz-adv-x="597" 
d="M358 568l205 -249l-60 -51l-133 160l-75 -428h-73l75 429l-189 -161l-42 51z" />
    <glyph glyph-name="arrowright" unicode="&#x2192;" horiz-adv-x="668" 
d="M425 550l205 -249l-292 -249l-43 52l190 160h-429l13 73h429l-133 161z" />
    <glyph glyph-name="arrowdown" unicode="&#x2193;" horiz-adv-x="597" 
d="M317 538h72l-75 -429l189 161l43 -51l-293 -249l-205 249l61 51l132 -161z" />
    <glyph glyph-name="partialdiff" unicode="&#x2202;" 
d="M315 710q142 0 210.5 -98t39.5 -263q-29 -171 -112 -265t-207 -94q-119 0 -169 70t-32 175q16 98 85 168.5t179 70.5q111 0 169 -98q19 125 -31.5 195.5t-160.5 70.5zM315 407q-78 0 -123 -49.5t-58 -124.5q-13 -76 16 -121.5t106 -45.5q79 0 132 65.5t78 181.5
q-56 94 -151 94z" />
    <glyph glyph-name="product" unicode="&#x220f;" horiz-adv-x="664" 
d="M543 0h-89l110 626h-323l-110 -626h-90l123 700h502z" />
    <glyph glyph-name="summation" unicode="&#x2211;" horiz-adv-x="600" 
d="M130 700h514l-13 -74h-408l162 -258l-269 -294h427l-13 -74h-533l12 75l269 293l-161 257z" />
    <glyph glyph-name="minus" unicode="&#x2212;" 
d="M554 265h-505l13 72h506z" />
    <glyph glyph-name="radical" unicode="&#x221a;" horiz-adv-x="643" 
d="M351 0h-106l-82 427h-120l13 73h184l75 -409l329 609h82z" />
    <glyph glyph-name="infinity" unicode="&#x221e;" horiz-adv-x="790" 
d="M611 488q-50 0 -85 -32t-68 -90q12 -70 34.5 -107.5t75.5 -37.5q49 0 82.5 35.5t44.5 98.5t-11 98t-73 35zM288 576q69 0 103.5 -38t49.5 -107q41 68 87.5 106.5t108.5 38.5q77 0 110.5 -58t14.5 -163q-18 -104 -77.5 -163.5t-138.5 -59.5q-69 0 -103.5 38.5t-50.5 107.5
q-40 -69 -86.5 -107.5t-108.5 -38.5q-77 0 -110.5 58t-14.5 163q18 104 78 163.5t138 59.5zM266 487q-49 0 -82.5 -35.5t-44.5 -98.5t11 -98t73 -35q50 0 85 32t68 89q-6 34 -12 56.5t-18 45t-32 33.5t-48 11z" />
    <glyph glyph-name="integral" unicode="&#x222b;" horiz-adv-x="589" 
d="M205 -40l101 574q16 91 75 135.5t156 32.5l-13 -75q-115 16 -136 -96l-100 -571q-16 -91 -75 -135t-156 -33l13 76q116 -17 135 92z" />
    <glyph glyph-name="approxequal" unicode="&#x2248;" horiz-adv-x="583" 
d="M233 494q43 0 80 -22t67 -44t56 -22q30 0 49 15.5t33 53.5l50 -28q-42 -118 -147 -118q-31 0 -60 13.5t-47 30.5t-43.5 30.5t-51.5 13.5q-57 0 -83 -70l-49 28q41 119 146 119zM192 259q34 0 65 -13.5t50 -30t43 -30t45 -13.5q29 0 48.5 15.5t33.5 53.5l49 -29
q-41 -118 -146 -118q-40 0 -74 22t-65.5 44t-63.5 22q-30 0 -49 -16t-33 -54l-50 29q42 118 147 118z" />
    <glyph glyph-name="notequal" unicode="&#x2260;" 
d="M494 152h-251l-88 -120h-79l88 120h-175l13 73h216l112 152h-301l12 73h343l81 109h78l-81 -109h85l-12 -73h-126l-112 -152h210z" />
    <glyph glyph-name="lessequal" unicode="&#x2264;" 
d="M593 616l-403 -201l332 -200l-46 -64l-383 235l10 58l466 235zM512 23h-506l13 72h505z" />
    <glyph glyph-name="greaterequal" unicode="&#x2265;" horiz-adv-x="583" 
d="M63 215l402 200l-332 201l46 63l383 -235l-9 -58l-467 -235zM512 23h-506l13 72h505z" />
    <glyph glyph-name="lozenge" unicode="&#x25ca;" horiz-adv-x="473" 
d="M457 245l-247 -456h-106l-83 455l247 456h106zM107 252l68 -372l197 357l-69 372z" />
    <glyph glyph-name="dotlessj" unicode="&#xf6be;" horiz-adv-x="241" 
d="M127 500h82l-99 -555q-13 -78 -67 -119t-121 -42l12 69q39 0 62.5 21.5t32.5 74.5z" />
    <glyph glyph-name="commaaccent" unicode="&#xf6c3;" horiz-adv-x="198" 
d="M19 -48h80l-8 -51q-15 -77 -102 -123l-8 29q54 28 63 82h-36z" />
    <glyph glyph-name="g.ss01" horiz-adv-x="553" 
d="M315 510q47 0 140 -5t140 -5l-12 -67q-49 0 -73 1l-18 -98q-15 -81 -77.5 -130t-160.5 -49q-56 0 -95 16q-28 -15 -33 -43q-4 -24 10.5 -36t45.5 -12h152q79 0 112.5 -32.5t22.5 -93.5q-30 -166 -281 -166q-112 0 -158.5 35t-35.5 98q13 75 98 108q-57 20 -46 77
q5 28 25.5 53t47.5 37q-53 45 -38 131q15 81 76 131t158 50zM267 216q57 0 94.5 32t47.5 88l18 103q-70 5 -125 5q-56 0 -90 -32t-43 -85q-10 -54 15 -82.5t83 -28.5zM303 21h-128q-11 0 -27 2q-56 -28 -66 -80q-8 -44 20 -68t99 -24q159 0 179 104q5 34 -13 50t-64 16z" />
    <glyph glyph-name="g.ss02" horiz-adv-x="574" 
d="M318 510q49 0 145.5 -5t122.5 -5l-12 -67q-32 0 -135 10q32 -12 45.5 -44.5t6.5 -72.5q-13 -76 -76 -123t-161 -47q-56 0 -95 19q-29 -18 -35 -45q-5 -26 10.5 -37t47.5 -11h154q79 0 112 -32.5t22 -93.5q-13 -75 -85 -120.5t-197 -45.5q-112 0 -158.5 34t-35.5 97
q13 74 98 110q-60 21 -49 79q5 29 27 53t51 37q-54 49 -39 132q14 80 76.5 129t159.5 49zM406 332q10 53 -13.5 84.5t-84.5 31.5q-58 0 -94 -31.5t-45 -84.5q-9 -50 16.5 -82.5t82.5 -32.5t93 32t45 83zM303 21h-128q-11 0 -27 2q-55 -27 -65 -80q-8 -44 20 -68t99 -24
q161 0 179 102q6 34 -13 51t-65 17z" />
    <glyph glyph-name="g.ss03" horiz-adv-x="564" 
d="M318 508q104 0 218 -8l-90 -513q-19 -107 -83.5 -152.5t-183.5 -45.5q-93 0 -142.5 42.5t-39.5 121.5h93q-5 -44 25 -71t80 -27q72 0 112 29t52 103l24 130q-26 -54 -72 -86t-108 -32q-94 0 -135.5 70t-20.5 186q19 112 92.5 182.5t178.5 70.5zM317 440q-70 0 -117 -49.5
t-62 -135.5q-15 -87 11 -136t92 -49q67 0 108.5 49.5t56.5 128.5l32 186q-76 6 -121 6z" />
    <glyph glyph-name="zero.fitted" horiz-adv-x="611" 
d="M375 627q-80 0 -132 -74t-75 -203t3 -203t107 -74q80 0 132 74t75 203t-3.5 203t-106.5 74zM390 710q116 0 168.5 -94.5t22.5 -265.5t-116 -265.5t-202 -94.5q-115 0 -168 94.5t-23 265.5q31 171 117 265.5t201 94.5z" />
    <glyph glyph-name="one.fitted" horiz-adv-x="395" 
d="M256 0h-90l108 614l-162 -95l-25 65l202 116h90z" />
    <glyph glyph-name="two.fitted" horiz-adv-x="573" 
d="M491 0h-480l13 73q176 108 273.5 184.5t134.5 128t47 110.5q11 59 -16.5 98.5t-96.5 39.5q-138 0 -178 -132h-83q22 96 98.5 152t181.5 56q110 0 157.5 -58.5t32.5 -149.5q-19 -104 -111.5 -195.5t-327.5 -232.5h367z" />
    <glyph glyph-name="three.fitted" horiz-adv-x="581" 
d="M267 324l13 70q95 0 141 32t57 96q22 117 -119 117q-135 0 -169 -116h-85q22 86 95.5 136.5t175.5 50.5q110 0 161.5 -49t37.5 -129q-28 -155 -209 -172q88 -6 129 -50t28 -123q-15 -85 -92 -141t-187 -56q-102 0 -159 52t-47 139h86q-4 -58 29.5 -89t104.5 -31
q72 0 117 37t55 93q12 66 -26.5 99.5t-136.5 33.5z" />
    <glyph glyph-name="four.fitted" horiz-adv-x="575" 
d="M407 0h-91l35 199h-310l13 75l366 426h110l-75 -427h99l-13 -74h-100zM365 273l58 336l-289 -336h231z" />
    <glyph glyph-name="five.fitted" horiz-adv-x="578" 
d="M174 700h397l-13 -74h-321l-43 -187q71 13 136 13q111 0 165.5 -60t37.5 -159q-19 -106 -102 -174.5t-196 -68.5q-103 0 -155.5 51.5t-42.5 141.5h83q-5 -59 27 -91t103 -32q74 0 125 46.5t64 119.5q13 72 -22 114.5t-124 42.5q-101 0 -199 -18z" />
    <glyph glyph-name="six.fitted" horiz-adv-x="610" 
d="M414 710q90 0 142.5 -49t45.5 -130h-85q1 54 -30.5 82.5t-85.5 28.5q-86 0 -146 -74t-85 -201q87 89 203 89q110 0 154.5 -64t28.5 -157q-18 -103 -95 -174t-192 -71q-123 0 -174 92.5t-22 257.5q30 169 120.5 269.5t220.5 100.5zM160 304q-15 -111 16.5 -174.5
t110.5 -63.5q74 0 119.5 44.5t58.5 118.5q13 70 -15 115t-107 45q-101 0 -183 -85z" />
    <glyph glyph-name="seven.fitted" horiz-adv-x="500" 
d="M185 0h-98l385 626h-391l13 74h481l-13 -74z" />
    <glyph glyph-name="eight.fitted" horiz-adv-x="595" 
d="M369 638q-67 0 -109 -33t-51 -85q-10 -60 22.5 -91.5t95.5 -31.5t107 31.5t54 91.5q9 52 -21.5 85t-97.5 33zM315 329q-69 0 -119 -31.5t-62 -100.5q-10 -60 24 -96t111 -36q75 0 122 36t58 96q12 69 -26.5 100.5t-107.5 31.5zM382 710q109 0 160 -51t36 -131
q-11 -63 -58.5 -107t-123.5 -56q76 -6 114 -55t25 -126q-16 -90 -89 -142t-191 -52t-173 52t-39 142q14 76 69.5 124.5t132.5 54.5q-70 13 -102.5 57.5t-21.5 108.5q14 80 83 130.5t178 50.5z" />
    <glyph glyph-name="nine.fitted" horiz-adv-x="610" 
d="M382 710q124 0 174.5 -92t21.5 -258q-30 -169 -120 -269.5t-221 -100.5q-91 0 -143.5 47t-44.5 132h83q-3 -54 30 -82.5t88 -28.5q86 0 146 74t85 201q-87 -89 -203 -89q-75 0 -121 32.5t-59 80.5t-3 108q18 103 95 174t192 71zM365 634q-74 0 -120 -44.5t-59 -118.5
q-13 -70 15 -115t107 -45q103 0 183 85q16 111 -15.5 174.5t-110.5 63.5z" />
    <glyph glyph-name="zero.slash" 
d="M380 710q116 0 168.5 -94.5t22.5 -265.5t-116 -265.5t-202 -94.5q-115 0 -168 94.5t-23 265.5q31 171 117 265.5t201 94.5zM268 73q55 0 98 37l-146 424q-42 -72 -62 -184q-23 -129 3 -203t107 -74zM365 627q-55 0 -97 -36l147 -422q40 69 60 181q23 129 -3.5 203
t-106.5 74z" />
    <glyph glyph-name="zero.tab" 
d="M365 627q-80 0 -132 -74t-75 -203t3 -203t107 -74q80 0 132 74t75 203t-3.5 203t-106.5 74zM380 710q116 0 168.5 -94.5t22.5 -265.5t-116 -265.5t-202 -94.5q-115 0 -168 94.5t-23 265.5q31 171 117 265.5t201 94.5z" />
    <glyph glyph-name="one.tab" 
d="M484 0h-344l13 74h137l96 540l-189 -113l-25 65l229 134h90l-111 -626h117z" />
    <glyph glyph-name="two.tab" 
d="M496 0h-480l13 73q176 108 273.5 184.5t134.5 128t47 110.5q11 59 -16.5 98.5t-96.5 39.5q-138 0 -178 -132h-83q22 96 98.5 152t181.5 56q110 0 157.5 -58.5t32.5 -149.5q-19 -104 -111.5 -195.5t-327.5 -232.5h367z" />
    <glyph glyph-name="three.tab" 
d="M274 324l13 70q95 0 141 32t57 96q22 117 -119 117q-135 0 -169 -116h-85q22 86 95.5 136.5t175.5 50.5q110 0 161.5 -49t37.5 -129q-28 -155 -209 -172q88 -6 129 -50t28 -123q-15 -85 -92 -141t-187 -56q-102 0 -159 52t-47 139h86q-4 -58 29.5 -89t104.5 -31
q72 0 117 37t55 93q12 66 -26.5 99.5t-136.5 33.5z" />
    <glyph glyph-name="four.tab" 
d="M406 0h-91l35 199h-310l13 75l366 426h110l-75 -427h99l-13 -74h-100zM364 273l58 336l-289 -336h231z" />
    <glyph glyph-name="five.tab" 
d="M182 700h397l-13 -74h-321l-43 -187q71 13 136 13q111 0 165.5 -60t37.5 -159q-19 -106 -102 -174.5t-196 -68.5q-103 0 -155.5 51.5t-42.5 141.5h83q-5 -59 27 -91t103 -32q74 0 125 46.5t64 119.5q13 72 -22 114.5t-124 42.5q-101 0 -199 -18z" />
    <glyph glyph-name="six.tab" 
d="M405 710q90 0 142.5 -49t45.5 -130h-85q1 54 -30.5 82.5t-85.5 28.5q-86 0 -146 -74t-85 -201q87 89 203 89q110 0 154.5 -64t28.5 -157q-18 -103 -95 -174t-192 -71q-123 0 -174 92.5t-22 257.5q30 169 120.5 269.5t220.5 100.5zM151 304q-15 -111 16.5 -174.5
t110.5 -63.5q74 0 119.5 44.5t58.5 118.5q13 70 -15 115t-107 45q-101 0 -183 -85z" />
    <glyph glyph-name="seven.tab" 
d="M229 0h-98l385 626h-391l13 74h481l-13 -74z" />
    <glyph glyph-name="eight.tab" 
d="M367 638q-67 0 -109 -33t-51 -85q-10 -60 22.5 -91.5t95.5 -31.5t107 31.5t54 91.5q9 52 -21.5 85t-97.5 33zM313 329q-69 0 -119 -31.5t-62 -100.5q-10 -60 24 -96t111 -36q75 0 122 36t58 96q12 69 -26.5 100.5t-107.5 31.5zM380 710q109 0 160 -51t36 -131
q-11 -63 -58.5 -107t-123.5 -56q76 -6 114 -55t25 -126q-16 -90 -89 -142t-191 -52t-173 52t-39 142q14 76 69.5 124.5t132.5 54.5q-70 13 -102.5 57.5t-21.5 108.5q14 80 83 130.5t178 50.5z" />
    <glyph glyph-name="nine.tab" 
d="M373 710q124 0 174.5 -92t21.5 -258q-30 -169 -120 -269.5t-221 -100.5q-91 0 -143.5 47t-44.5 132h83q-3 -54 30 -82.5t88 -28.5q86 0 146 74t85 201q-87 -89 -203 -89q-75 0 -121 32.5t-59 80.5t-3 108q18 103 95 174t192 71zM356 634q-74 0 -120 -44.5t-59 -118.5
q-13 -70 15 -115t107 -45q103 0 183 85q16 111 -15.5 174.5t-110.5 63.5z" />
    <glyph glyph-name="dollar.tab" 
d="M304 -98h-55l15 89q-101 7 -154 59t-48 130h90q-1 -47 30 -78t95 -37l46 258q-40 7 -65 13.5t-56 20.5t-47 32t-24 48.5t-1 70.5q14 79 82.5 136t178.5 65l15 81h55l-15 -81q99 -7 150.5 -57.5t49.5 -129.5h-90q0 101 -123 111l-42 -237q54 -11 84 -20t67 -29.5t49.5 -56
t3.5 -87.5q-16 -85 -89.5 -145.5t-186.5 -66.5zM502 189q5 29 -2 50.5t-27 35.5t-42 22t-55 15l-44 -247q75 6 118.5 41.5t51.5 82.5zM219 515q-8 -48 23 -71.5t96 -37.5l40 228q-72 -6 -111 -39.5t-48 -79.5z" />
    <glyph glyph-name="cent.tab" 
d="M400 697h46l-14 -80q75 -5 118.5 -50t43.5 -124h-82q-2 42 -26.5 70.5t-65.5 32.5l-67 -374q42 3 77 31.5t53 71.5h82q-29 -80 -88.5 -125t-135.5 -50l-17 -95h-46l17 95q-94 9 -136 78t-22 181q19 110 86.5 179.5t162.5 77.5zM218 359q-14 -76 10 -128t79 -59l66 373
q-60 -7 -101 -57.5t-54 -128.5z" />
    <glyph glyph-name="sterling.tab" 
d="M458 307h-208q-1 -71 -18.5 -127.5t-68.5 -112.5h375l-11 -67h-464l11 67q54 59 70 115t12 125h-70l8 49h59q-6 84 4 137q16 88 89.5 152.5t192.5 64.5q106 0 160 -49.5t52 -130.5h-89q-4 105 -138 105q-79 0 -119.5 -41t-49.5 -95q-8 -44 -6 -143h217z" />
    <glyph glyph-name="yen.tab" 
d="M569 301h-174l-17 -97h115l-10 -50h-114l-27 -154h-94l27 154h-112l9 50h112l17 97h-171l9 51h149l-156 348h109l127 -300l236 300h102l-279 -348h150z" />
    <glyph glyph-name="florin.tab" 
d="M537 709q30 0 70 -8l-13 -72q-34 9 -60 9q-86 0 -101 -89l-9 -49h148l-12 -67h-148l-85 -482q-14 -79 -63 -120t-123 -41q-30 0 -70 8l12 72q35 -9 60 -9q87 0 102 90l85 482h-77l12 67h77l8 47q14 80 63 121t124 41z" />
    <glyph glyph-name="Euro.tab" 
d="M479 403h-270q-8 -28 -12 -55q-7 -38 -8 -65h209l-28 -49h-182q11 -168 168 -168q143 0 204 134h88q-38 -99 -116.5 -155.5t-188.5 -56.5q-116 0 -179 67t-68 179h-77l27 49h50q1 26 8 65q5 30 12 55h-67l27 49h56q45 116 132.5 186t205.5 70q110 0 169 -56.5t61 -154.5
h-88q-6 63 -45 98t-112 35q-162 0 -230 -178h282z" />
    <glyph glyph-name="numbersign.tab" 
d="M204 0h-81l33 191h-109l12 65h109l33 187h-110l12 65h109l34 192h81l-34 -192h183l34 192h82l-34 -192h109l-12 -65h-108l-33 -187h109l-12 -65h-109l-33 -191h-82l33 191h-183zM282 443l-33 -187h183l33 187h-183z" />
    <glyph glyph-name="zero.oldstyle" horiz-adv-x="529" 
d="M302 439q-65 0 -108 -49.5t-58 -139.5q-16 -92 9 -140.5t90 -48.5q66 0 108.5 49t58.5 140q16 90 -9.5 139.5t-90.5 49.5zM314 510q99 0 146 -68.5t26 -192.5q-23 -125 -93.5 -192t-169.5 -67t-146.5 67t-24.5 192q21 124 92.5 192.5t169.5 68.5z" />
    <glyph glyph-name="one.oldstyle" horiz-adv-x="405" 
d="M266 500h84l-88 -500h-88l74 422l-165 -98l-22 58z" />
    <glyph glyph-name="two.oldstyle" horiz-adv-x="551" 
d="M342 510q99 0 142.5 -45.5t32.5 -114.5q-14 -72 -89 -131.5t-252 -151.5h302l-11 -67h-427l10 67q207 105 284 161t88 117q7 43 -15 70.5t-78 27.5q-109 0 -136 -94h-87q19 73 81.5 117t154.5 44z" />
    <glyph glyph-name="three.oldstyle" horiz-adv-x="551" 
d="M118 500h410l-13 -73l-228 -207q107 -6 153 -59t31 -138q-16 -89 -91 -151t-182 -62q-97 0 -150.5 55t-46.5 147h87q-6 -62 25.5 -96.5t97.5 -34.5q67 0 111.5 40.5t54.5 99.5q12 72 -31.5 108.5t-156.5 36.5l11 61l215 199h-310z" />
    <glyph glyph-name="four.oldstyle" horiz-adv-x="541" 
d="M347 -187h-84l34 187h-298l13 74l349 426h107l-75 -427h95l-12 -73h-96zM309 73l62 351l-285 -351h223z" />
    <glyph glyph-name="five.oldstyle" horiz-adv-x="537" 
d="M137 500h367l-13 -74h-289l-43 -179q65 12 127 12q106 0 151.5 -56t27.5 -156q-18 -106 -95.5 -172t-184.5 -66q-93 0 -140 51t-43 140h84q-10 -123 114 -123q66 0 111 45t58 119q27 152 -124 152q-89 0 -186 -18z" />
    <glyph glyph-name="six.oldstyle" horiz-adv-x="570" 
d="M393 710q86 0 132 -46.5t44 -132.5h-83q1 54 -27.5 82.5t-79.5 28.5q-83 0 -139 -72t-82 -199q87 85 194 85q106 0 147.5 -63t24.5 -156q-19 -104 -92.5 -175.5t-183.5 -71.5q-116 0 -163.5 92.5t-18.5 257.5q30 170 115.5 270t211.5 100zM322 389q-95 0 -174 -82
q-16 -111 13 -177t104 -66q69 0 112.5 46t56.5 121q13 70 -12 114t-100 44z" />
    <glyph glyph-name="seven.oldstyle" horiz-adv-x="470" 
d="M136 -187h-96l370 614h-366l13 73h453l-13 -73z" />
    <glyph glyph-name="eight.oldstyle" horiz-adv-x="567" 
d="M368 710q101 0 151 -47.5t36 -125.5q-19 -106 -171 -164q70 -26 106 -68.5t22 -118.5q-15 -89 -88 -142.5t-183 -53.5q-111 0 -165.5 47.5t-38.5 134.5q21 120 201 185q-67 26 -100 63.5t-21 105.5q14 80 82 132t169 52zM289 329q-147 -54 -164 -146q-10 -58 24.5 -92
t105.5 -34t115.5 32.5t54.5 89.5q6 32 -2 56.5t-30 41.5t-45 28.5t-59 23.5zM357 646q-62 0 -104 -32.5t-51 -82.5q-4 -23 1.5 -41.5t15.5 -31t30 -24t36.5 -18t43.5 -15.5q60 22 96.5 51.5t44.5 78.5q9 52 -21 83.5t-92 31.5z" />
    <glyph glyph-name="nine.oldstyle" horiz-adv-x="570" 
d="M326 510q117 0 165.5 -88.5t19.5 -251.5q-30 -168 -115 -264t-211 -96q-84 0 -130 46.5t-45 132.5h83q-2 -55 25.5 -83t79.5 -28q165 0 217 260q-81 -83 -189 -83q-106 0 -147.5 61t-25.5 154q19 103 91 171.5t182 68.5zM312 436q-67 0 -111 -44t-56 -116
q-28 -155 110 -155q95 0 172 80q17 110 -11.5 172.5t-103.5 62.5z" />
    <glyph glyph-name="zero.taboldstyle" horiz-adv-x="561" 
d="M317 439q-65 0 -108 -49.5t-58 -139.5q-16 -92 9 -140.5t90 -48.5q66 0 108.5 49t58.5 140q16 90 -9.5 139.5t-90.5 49.5zM329 510q99 0 146 -68.5t26 -192.5q-23 -125 -93.5 -192t-169.5 -67t-146.5 67t-24.5 192q21 124 92.5 192.5t169.5 68.5z" />
    <glyph glyph-name="one.taboldstyle" horiz-adv-x="561" 
d="M329 500h84l-75 -427h108l-12 -73h-325l12 73h129l61 349l-164 -98l-23 58z" />
    <glyph glyph-name="two.taboldstyle" horiz-adv-x="561" 
d="M331 510q99 0 142.5 -45.5t32.5 -114.5q-14 -72 -89 -131.5t-252 -151.5h302l-11 -67h-427l10 67q207 105 284 161t88 117q7 43 -15 70.5t-78 27.5q-109 0 -136 -94h-87q19 73 81.5 117t154.5 44z" />
    <glyph glyph-name="three.taboldstyle" horiz-adv-x="561" 
d="M112 500h410l-13 -73l-228 -207q107 -6 153 -59t31 -138q-16 -89 -91 -151t-182 -62q-97 0 -150.5 55t-46.5 147h87q-6 -62 25.5 -96.5t97.5 -34.5q67 0 111.5 40.5t54.5 99.5q12 72 -31.5 108.5t-156.5 36.5l11 61l215 199h-310z" />
    <glyph glyph-name="four.taboldstyle" horiz-adv-x="561" 
d="M350 -187h-84l34 187h-298l13 74l349 426h107l-75 -427h95l-12 -73h-96zM312 73l62 351l-285 -351h223z" />
    <glyph glyph-name="five.taboldstyle" horiz-adv-x="561" 
d="M147 500h367l-13 -74h-289l-43 -179q65 12 127 12q106 0 151.5 -56t27.5 -156q-18 -106 -95.5 -172t-184.5 -66q-93 0 -140 51t-43 140h84q-10 -123 114 -123q66 0 111 45t58 119q27 152 -124 152q-89 0 -186 -18z" />
    <glyph glyph-name="six.taboldstyle" horiz-adv-x="561" 
d="M389 710q86 0 132 -46.5t44 -132.5h-83q1 54 -27.5 82.5t-79.5 28.5q-83 0 -139 -72t-82 -199q87 85 194 85q106 0 147.5 -63t24.5 -156q-19 -104 -92.5 -175.5t-183.5 -71.5q-116 0 -163.5 92.5t-18.5 257.5q30 170 115.5 270t211.5 100zM318 389q-95 0 -174 -82
q-16 -111 13 -177t104 -66q69 0 112.5 46t56.5 121q13 70 -12 114t-100 44z" />
    <glyph glyph-name="seven.taboldstyle" horiz-adv-x="561" 
d="M182 -187h-96l370 614h-366l13 73h453l-13 -73z" />
    <glyph glyph-name="eight.taboldstyle" horiz-adv-x="561" 
d="M365 710q101 0 151 -47.5t36 -125.5q-19 -106 -171 -164q70 -26 106 -68.5t22 -118.5q-15 -89 -88 -142.5t-183 -53.5q-111 0 -165.5 47.5t-38.5 134.5q21 120 201 185q-67 26 -100 63.5t-21 105.5q14 80 82 132t169 52zM286 329q-147 -54 -164 -146q-10 -58 24.5 -92
t105.5 -34t115.5 32.5t54.5 89.5q6 32 -2 56.5t-30 41.5t-45 28.5t-59 23.5zM354 646q-62 0 -104 -32.5t-51 -82.5q-4 -23 1.5 -41.5t15.5 -31t30 -24t36.5 -18t43.5 -15.5q60 22 96.5 51.5t44.5 78.5q9 52 -21 83.5t-92 31.5z" />
    <glyph glyph-name="nine.taboldstyle" horiz-adv-x="561" 
d="M322 510q117 0 165.5 -88.5t19.5 -251.5q-30 -168 -115 -264t-211 -96q-84 0 -130 46.5t-45 132.5h83q-2 -55 25.5 -83t79.5 -28q165 0 217 260q-81 -83 -189 -83q-106 0 -147.5 61t-25.5 154q19 103 91 171.5t182 68.5zM308 436q-67 0 -111 -44t-56 -116
q-28 -155 110 -155q95 0 172 80q17 110 -11.5 172.5t-103.5 62.5z" />
    <glyph glyph-name="zero.small" horiz-adv-x="482" 
d="M279 441q-57 0 -94.5 -51.5t-53.5 -140.5q-33 -190 81 -190q57 0 93.5 50.5t52.5 139.5t-3 140.5t-76 51.5zM291 510q90 0 132.5 -69t20.5 -192q-22 -124 -88 -191.5t-156 -67.5q-91 0 -134 67.5t-21 191.5t89 192.5t157 68.5z" />
    <glyph glyph-name="one.small" horiz-adv-x="346" 
d="M49 394l191 112h83l-88 -506h-87l75 427l-152 -91z" />
    <glyph glyph-name="two.small" horiz-adv-x="460" 
d="M147 349h-79q19 73 75.5 117t140.5 44q90 0 128 -42.5t26 -108.5q-12 -74 -78 -137t-233 -155h264l-12 -67h-376l11 64q190 104 257 164t78 120q7 42 -12.5 68.5t-68.5 26.5q-94 0 -121 -94z" />
    <glyph glyph-name="three.small" horiz-adv-x="477" 
d="M292 510q88 0 131.5 -35.5t32.5 -94.5q-19 -103 -148 -123q62 -8 91.5 -40t19.5 -86q-11 -63 -72.5 -102t-150.5 -39q-82 0 -129 40.5t-42 106.5h88q-2 -40 22.5 -62t73.5 -22q52 0 82.5 24t36.5 60q8 45 -20 67t-99 22l10 58q127 0 142 85q6 36 -13.5 57t-70.5 21
q-92 0 -117 -80h-88q19 65 78.5 104t141.5 39z" />
    <glyph glyph-name="four.small" horiz-adv-x="457" 
d="M304 500h99l-54 -303h77l-10 -61h-77l-24 -136h-86l24 136h-239l12 64zM303 416l-201 -219h161z" />
    <glyph glyph-name="five.small" horiz-adv-x="479" 
d="M132 500h318l-12 -67h-241l-28 -118q42 8 96 8q91 0 133 -41t28 -117q-14 -77 -79 -126t-156 -49q-83 0 -123 38.5t-38 106.5h86q-2 -41 19.5 -63.5t69.5 -22.5q50 0 84 30.5t43 80.5q17 106 -97 106q-82 0 -163 -14z" />
    <glyph glyph-name="six.small" horiz-adv-x="499" 
d="M318 510q72 0 116.5 -35.5t45.5 -97.5h-89q1 36 -22 54.5t-64 18.5q-61 0 -102.5 -45.5t-56.5 -126.5q69 51 149 51q89 0 126.5 -44t25.5 -117q-14 -76 -75.5 -127t-157.5 -51q-100 0 -145.5 67t-24.5 186q21 121 95 194t179 73zM264 273q-70 0 -130 -56q-11 -76 12 -120
t79 -44q54 0 87 30.5t42 81.5q8 48 -13 78t-77 30z" />
    <glyph glyph-name="seven.small" horiz-adv-x="396" 
d="M57 500h378l-12 -64l-278 -436h-96l283 433h-287z" />
    <glyph glyph-name="eight.small" horiz-adv-x="500" 
d="M291 454q-50 0 -80.5 -23t-37.5 -59q-7 -42 16.5 -63t71.5 -21q46 0 77 21.5t38 62.5q7 36 -15 59t-70 23zM252 232q-52 0 -88.5 -23t-44.5 -70q-8 -41 17 -66t83 -25q56 0 89.5 25t40.5 66q8 47 -19.5 70t-77.5 23zM300 510q90 0 132.5 -36t32.5 -95q-8 -45 -41.5 -76.5
t-91.5 -42.5q58 -7 86 -41.5t18 -87.5q-11 -65 -71 -103t-156 -38q-98 0 -144.5 38t-35.5 103q9 53 50 87t100 42q-109 23 -93 119q10 59 66 95t148 36z" />
    <glyph glyph-name="nine.small" horiz-adv-x="499" 
d="M292 510q100 0 145.5 -67t24.5 -186q-20 -121 -94 -194t-180 -73q-72 0 -116.5 35.5t-45.5 97.5h89q0 -37 23 -55.5t63 -18.5q61 0 103.5 46t57.5 126q-67 -50 -151 -50q-89 0 -126.5 44t-24.5 117q14 76 75 127t157 51zM282 447q-53 0 -85 -30t-41 -81
q-8 -49 12.5 -78.5t74.5 -29.5q72 0 130 54q13 73 -10.5 119t-80.5 46z" />
    <glyph glyph-name="zerosmall.tab" horiz-adv-x="492" 
d="M283 441q-57 0 -94.5 -51.5t-53.5 -140.5q-33 -190 81 -190q57 0 93.5 50.5t52.5 139.5t-3 140.5t-76 51.5zM295 510q90 0 132.5 -69t20.5 -192q-22 -124 -88 -191.5t-156 -67.5q-91 0 -134 67.5t-21 191.5t89 192.5t157 68.5z" />
    <glyph glyph-name="onesmall.tab" horiz-adv-x="492" 
d="M389 0h-316l13 73h122l62 355l-157 -92l-23 57l197 113h84l-76 -433h106z" />
    <glyph glyph-name="twosmall.tab" horiz-adv-x="492" 
d="M163 349h-79q19 73 75.5 117t140.5 44q90 0 128 -42.5t26 -108.5q-12 -74 -78 -137t-233 -155h264l-12 -67h-376l11 64q190 104 257 164t78 120q7 42 -12.5 68.5t-68.5 26.5q-94 0 -121 -94z" />
    <glyph glyph-name="threesmall.tab" horiz-adv-x="492" 
d="M298 510q88 0 131.5 -35.5t32.5 -94.5q-19 -103 -148 -123q62 -8 91.5 -40t19.5 -86q-11 -63 -72.5 -102t-150.5 -39q-82 0 -129 40.5t-42 106.5h88q-2 -40 22.5 -62t73.5 -22q52 0 82.5 24t36.5 60q8 45 -20 67t-99 22l10 58q127 0 142 85q6 36 -13.5 57t-70.5 21
q-92 0 -117 -80h-88q19 65 78.5 104t141.5 39z" />
    <glyph glyph-name="foursmall.tab" horiz-adv-x="492" 
d="M318 500h99l-54 -303h77l-10 -61h-77l-24 -136h-86l24 136h-239l12 64zM317 416l-201 -219h161z" />
    <glyph glyph-name="fivesmall.tab" horiz-adv-x="492" 
d="M135 500h318l-12 -67h-241l-28 -118q42 8 96 8q91 0 133 -41t28 -117q-14 -77 -79 -126t-156 -49q-83 0 -123 38.5t-38 106.5h86q-2 -41 19.5 -63.5t69.5 -22.5q50 0 84 30.5t43 80.5q17 106 -97 106q-82 0 -163 -14z" />
    <glyph glyph-name="sixsmall.tab" horiz-adv-x="492" 
d="M315 510q72 0 116.5 -35.5t45.5 -97.5h-89q1 36 -22 54.5t-64 18.5q-61 0 -102.5 -45.5t-56.5 -126.5q69 51 149 51q89 0 126.5 -44t25.5 -117q-14 -76 -75.5 -127t-157.5 -51q-100 0 -145.5 67t-24.5 186q21 121 95 194t179 73zM261 273q-70 0 -130 -56q-11 -76 12 -120
t79 -44q54 0 87 30.5t42 81.5q8 48 -13 78t-77 30z" />
    <glyph glyph-name="sevensmall.tab" horiz-adv-x="492" 
d="M104 500h378l-12 -64l-278 -436h-96l283 433h-287z" />
    <glyph glyph-name="eightsmall.tab" horiz-adv-x="492" 
d="M287 454q-50 0 -80.5 -23t-37.5 -59q-7 -42 16.5 -63t71.5 -21q46 0 77 21.5t38 62.5q7 36 -15 59t-70 23zM248 232q-52 0 -88.5 -23t-44.5 -70q-8 -41 17 -66t83 -25q56 0 89.5 25t40.5 66q8 47 -19.5 70t-77.5 23zM296 510q90 0 132.5 -36t32.5 -95q-8 -45 -41.5 -76.5
t-91.5 -42.5q58 -7 86 -41.5t18 -87.5q-11 -65 -71 -103t-156 -38q-98 0 -144.5 38t-35.5 103q9 53 50 87t100 42q-109 23 -93 119q10 59 66 95t148 36z" />
    <glyph glyph-name="ninesmall.tab" horiz-adv-x="492" 
d="M289 510q100 0 145.5 -67t24.5 -186q-20 -121 -94 -194t-180 -73q-72 0 -116.5 35.5t-45.5 97.5h89q0 -37 23 -55.5t63 -18.5q61 0 103.5 46t57.5 126q-67 -50 -151 -50q-89 0 -126.5 44t-24.5 117q14 76 75 127t157 51zM279 447q-53 0 -85 -30t-41 -81
q-8 -49 12.5 -78.5t74.5 -29.5q72 0 130 54q13 73 -10.5 119t-80.5 46z" />
    <glyph glyph-name="zero.superior" horiz-adv-x="365" 
d="M267 707q-80 0 -102 -130q-23 -129 56 -129t102 129q22 130 -56 130zM277 763q67 0 98 -49t16 -137q-15 -89 -63.5 -136.5t-116.5 -47.5t-99.5 47.5t-15.5 136.5q15 88 64 137t117 49z" />
    <glyph glyph-name="one.superior" horiz-adv-x="365" 
d="M342 400h-227l9 54h86l43 242l-112 -65l-18 46l143 83h69l-54 -306h70z" />
    <glyph glyph-name="two.superior" horiz-adv-x="365" 
d="M284 763q64 0 93 -31t20 -78q-9 -50 -53.5 -93t-159.5 -107h180l-9 -54h-284l7 48q135 73 184.5 115t56.5 81q5 28 -8 45.5t-46 17.5q-63 0 -86 -65h-64q14 54 59 87.5t110 33.5z" />
    <glyph glyph-name="three.superior" horiz-adv-x="365" 
d="M279 763q65 0 94.5 -25t21.5 -68q-13 -72 -99 -88q41 -6 60.5 -29t12.5 -59q-8 -45 -50.5 -73t-108.5 -28q-61 0 -93.5 29.5t-27.5 77.5h67q-2 -29 14.5 -43.5t50.5 -14.5t54 16t24 41q5 30 -13.5 45t-64.5 15l8 44q85 0 94 57q5 25 -8 39t-47 14q-64 0 -79 -54h-67
q12 47 54 75.5t103 28.5z" />
    <glyph glyph-name="four.superior" horiz-adv-x="365" 
d="M287 756h78l-38 -212h55l-10 -54h-54l-15 -90h-66l15 90h-172l9 52zM288 694l-138 -150h111z" />
    <glyph glyph-name="five.superior" horiz-adv-x="365" 
d="M162 756h227l-9 -52h-172l-20 -77q40 6 67 6q66 0 96 -30.5t21 -84.5q-10 -55 -56.5 -90t-111.5 -35q-60 0 -88.5 29.5t-24.5 76.5h63q-2 -26 13 -40.5t48 -14.5q36 0 59.5 20t29.5 53q11 69 -68 69q-66 0 -117 -9z" />
    <glyph glyph-name="six.superior" horiz-adv-x="365" 
d="M403 664h-63q-1 49 -61 49q-43 0 -73.5 -31.5t-41.5 -87.5q53 39 115 39q59 0 85 -31t17 -82q-10 -56 -53 -91.5t-112 -35.5q-73 0 -105 46.5t-16 132.5q15 89 66.5 140t128.5 51q57 0 86 -25t27 -74zM250 587q-49 0 -90 -37q-6 -48 11 -76.5t54 -28.5q36 0 58.5 19.5
t28.5 52.5q11 70 -62 70z" />
    <glyph glyph-name="seven.superior" horiz-adv-x="365" 
d="M136 756h278l-8 -48l-197 -308h-79l200 300h-203z" />
    <glyph glyph-name="eight.superior" horiz-adv-x="365" 
d="M268 717q-69 0 -79 -54q-5 -28 11.5 -42.5t48.5 -14.5q68 0 78 57q5 25 -10 39.5t-49 14.5zM241 562q-79 0 -90 -62q-5 -29 12 -44.5t57 -15.5q77 0 88 60q6 32 -13 47t-54 15zM277 763q63 0 93.5 -26.5t23.5 -68.5q-12 -68 -91 -83q41 -6 59.5 -30t11.5 -61
q-8 -47 -51.5 -74t-111.5 -27q-70 0 -103 27t-25 74q7 36 34 60t69 30q-38 9 -53 31t-9 53q7 42 47.5 68.5t105.5 26.5z" />
    <glyph glyph-name="nine.superior" horiz-adv-x="365" 
d="M272 763q72 0 104 -47t16 -133q-15 -88 -67 -139t-128 -51q-55 0 -86 25.5t-28 70.5h64q-1 -26 15.5 -38.5t44.5 -12.5q42 0 72 32.5t42 88.5q-52 -38 -107 -38q-63 0 -89.5 31.5t-17.5 83.5q9 54 52 90.5t113 36.5zM263 711q-36 0 -58.5 -20t-28.5 -54q-11 -71 61 -71
q49 0 90 38q5 50 -11 78.5t-53 28.5z" />
    <glyph glyph-name="zero.inferior" horiz-adv-x="365" 
d="M176 187q-80 0 -102 -130q-23 -129 56 -129t102 129q22 130 -56 130zM186 243q67 0 98 -49t16 -137q-15 -89 -63.5 -136.5t-116.5 -47.5t-99.5 47.5t-15.5 136.5q15 88 64 137t117 49z" />
    <glyph glyph-name="one.inferior" horiz-adv-x="365" 
d="M251 -120h-227l9 54h86l43 242l-112 -65l-18 46l143 83h69l-54 -306h70z" />
    <glyph glyph-name="two.inferior" horiz-adv-x="365" 
d="M193 243q64 0 93 -31t20 -78q-9 -50 -53.5 -93t-159.5 -107h180l-9 -54h-284l7 48q135 73 184.5 115t56.5 81q5 28 -8 45.5t-46 17.5q-63 0 -86 -65h-64q14 54 59 87.5t110 33.5z" />
    <glyph glyph-name="three.inferior" horiz-adv-x="365" 
d="M188 243q65 0 94.5 -25t21.5 -68q-13 -72 -99 -88q41 -6 60.5 -29t12.5 -59q-8 -45 -50.5 -73t-108.5 -28q-61 0 -93.5 29.5t-27.5 77.5h67q-2 -29 14.5 -43.5t50.5 -14.5t54 16t24 41q5 30 -13.5 45t-64.5 15l8 44q85 0 94 57q5 25 -8 39t-47 14q-64 0 -79 -54h-67
q12 47 54 75.5t103 28.5z" />
    <glyph glyph-name="four.inferior" horiz-adv-x="365" 
d="M196 236h78l-38 -212h55l-10 -54h-54l-15 -90h-66l15 90h-172l9 52zM197 174l-138 -150h111z" />
    <glyph glyph-name="five.inferior" horiz-adv-x="365" 
d="M71 236h227l-9 -52h-172l-20 -77q40 6 67 6q66 0 96 -30.5t21 -84.5q-10 -55 -56.5 -90t-111.5 -35q-60 0 -88.5 29.5t-24.5 76.5h63q-2 -26 13 -40.5t48 -14.5q36 0 59.5 20t29.5 53q11 69 -68 69q-66 0 -117 -9z" />
    <glyph glyph-name="six.inferior" horiz-adv-x="365" 
d="M312 144h-63q-1 49 -61 49q-43 0 -73.5 -31.5t-41.5 -87.5q53 39 115 39q59 0 85 -31t17 -82q-10 -56 -53 -91.5t-112 -35.5q-73 0 -105 46.5t-16 132.5q15 89 66.5 140t128.5 51q57 0 86 -25t27 -74zM159 67q-49 0 -90 -37q-6 -48 11 -76.5t54 -28.5q36 0 58.5 19.5
t28.5 52.5q11 70 -62 70z" />
    <glyph glyph-name="seven.inferior" horiz-adv-x="365" 
d="M45 236h278l-8 -48l-197 -308h-79l200 300h-203z" />
    <glyph glyph-name="eight.inferior" horiz-adv-x="365" 
d="M177 197q-69 0 -79 -54q-5 -28 11.5 -42.5t48.5 -14.5q68 0 78 57q5 25 -10 39.5t-49 14.5zM150 42q-79 0 -90 -62q-5 -29 12 -44.5t57 -15.5q77 0 88 60q6 32 -13 47t-54 15zM186 243q63 0 93.5 -26.5t23.5 -68.5q-12 -68 -91 -83q41 -6 59.5 -30t11.5 -61
q-8 -47 -51.5 -74t-111.5 -27q-70 0 -103 27t-25 74q7 36 34 60t69 30q-38 9 -53 31t-9 53q7 42 47.5 68.5t105.5 26.5z" />
    <glyph glyph-name="nine.inferior" horiz-adv-x="365" 
d="M181 243q72 0 104 -47t16 -133q-15 -88 -67 -139t-128 -51q-55 0 -86 25.5t-28 70.5h64q-1 -26 15.5 -38.5t44.5 -12.5q42 0 72 32.5t42 88.5q-52 -38 -107 -38q-63 0 -89.5 31.5t-17.5 83.5q9 54 52 90.5t113 36.5zM172 191q-36 0 -58.5 -20t-28.5 -54q-11 -71 61 -71
q49 0 90 38q5 50 -11 78.5t-53 28.5z" />
    <glyph glyph-name="zero.numr" horiz-adv-x="365" 
d="M257 651q-80 0 -102 -130q-23 -129 56 -129t102 129q22 130 -56 130zM267 707q67 0 98 -49t16 -137q-15 -89 -63.5 -136.5t-116.5 -47.5t-99.5 47.5t-15.5 136.5q15 88 64 137t117 49z" />
    <glyph glyph-name="one.numr" horiz-adv-x="365" 
d="M332 344h-227l9 54h86l43 242l-112 -65l-18 46l143 83h69l-54 -306h70z" />
    <glyph glyph-name="two.numr" horiz-adv-x="365" 
d="M274 707q64 0 93 -31t20 -78q-9 -50 -53.5 -93t-159.5 -107h180l-9 -54h-284l7 48q135 73 184.5 115t56.5 81q5 28 -8 45.5t-46 17.5q-63 0 -86 -65h-64q14 54 59 87.5t110 33.5z" />
    <glyph glyph-name="three.numr" horiz-adv-x="365" 
d="M269 707q65 0 94.5 -25t21.5 -68q-13 -72 -99 -88q41 -6 60.5 -29t12.5 -59q-8 -45 -50.5 -73t-108.5 -28q-61 0 -93.5 29.5t-27.5 77.5h67q-2 -29 14.5 -43.5t50.5 -14.5t54 16t24 41q5 30 -13.5 45t-64.5 15l8 44q85 0 94 57q5 25 -8 39t-47 14q-64 0 -79 -54h-67
q12 47 54 75.5t103 28.5z" />
    <glyph glyph-name="four.numr" horiz-adv-x="365" 
d="M277 700h78l-38 -212h55l-10 -54h-54l-15 -90h-66l15 90h-172l9 52zM278 638l-138 -150h111z" />
    <glyph glyph-name="five.numr" horiz-adv-x="365" 
d="M152 700h227l-9 -52h-172l-20 -77q40 6 67 6q66 0 96 -30.5t21 -84.5q-10 -55 -56.5 -90t-111.5 -35q-60 0 -88.5 29.5t-24.5 76.5h63q-2 -26 13 -40.5t48 -14.5q36 0 59.5 20t29.5 53q11 69 -68 69q-66 0 -117 -9z" />
    <glyph glyph-name="six.numr" horiz-adv-x="365" 
d="M393 608h-63q-1 49 -61 49q-43 0 -73.5 -31.5t-41.5 -87.5q53 39 115 39q59 0 85 -31t17 -82q-10 -56 -53 -91.5t-112 -35.5q-73 0 -105 46.5t-16 132.5q15 89 66.5 140t128.5 51q57 0 86 -25t27 -74zM240 531q-49 0 -90 -37q-6 -48 11 -76.5t54 -28.5q36 0 58.5 19.5
t28.5 52.5q11 70 -62 70z" />
    <glyph glyph-name="seven.numr" horiz-adv-x="365" 
d="M126 700h278l-8 -48l-197 -308h-79l200 300h-203z" />
    <glyph glyph-name="eight.numr" horiz-adv-x="365" 
d="M258 661q-69 0 -79 -54q-5 -28 11.5 -42.5t48.5 -14.5q68 0 78 57q5 25 -10 39.5t-49 14.5zM231 506q-79 0 -90 -62q-5 -29 12 -44.5t57 -15.5q77 0 88 60q6 32 -13 47t-54 15zM267 707q63 0 93.5 -26.5t23.5 -68.5q-12 -68 -91 -83q41 -6 59.5 -30t11.5 -61
q-8 -47 -51.5 -74t-111.5 -27q-70 0 -103 27t-25 74q7 36 34 60t69 30q-38 9 -53 31t-9 53q7 42 47.5 68.5t105.5 26.5z" />
    <glyph glyph-name="nine.numr" horiz-adv-x="365" 
d="M262 707q72 0 104 -47t16 -133q-15 -88 -67 -139t-128 -51q-55 0 -86 25.5t-28 70.5h64q-1 -26 15.5 -38.5t44.5 -12.5q42 0 72 32.5t42 88.5q-52 -38 -107 -38q-63 0 -89.5 31.5t-17.5 83.5q9 54 52 90.5t113 36.5zM253 655q-36 0 -58.5 -20t-28.5 -54q-11 -71 61 -71
q49 0 90 38q5 50 -11 78.5t-53 28.5z" />
    <glyph glyph-name="zero.dnom" horiz-adv-x="365" 
d="M197 307q-80 0 -102 -130q-23 -129 56 -129t102 129q22 130 -56 130zM207 363q67 0 98 -49t16 -137q-15 -89 -63.5 -136.5t-116.5 -47.5t-99.5 47.5t-15.5 136.5q15 88 64 137t117 49z" />
    <glyph glyph-name="one.dnom" horiz-adv-x="365" 
d="M272 0h-227l9 54h86l43 242l-112 -65l-18 46l143 83h69l-54 -306h70z" />
    <glyph glyph-name="two.dnom" horiz-adv-x="365" 
d="M214 363q64 0 93 -31t20 -78q-9 -50 -53.5 -93t-159.5 -107h180l-9 -54h-284l7 48q135 73 184.5 115t56.5 81q5 28 -8 45.5t-46 17.5q-63 0 -86 -65h-64q14 54 59 87.5t110 33.5z" />
    <glyph glyph-name="three.dnom" horiz-adv-x="365" 
d="M209 363q65 0 94.5 -25t21.5 -68q-13 -72 -99 -88q41 -6 60.5 -29t12.5 -59q-8 -45 -50.5 -73t-108.5 -28q-61 0 -93.5 29.5t-27.5 77.5h67q-2 -29 14.5 -43.5t50.5 -14.5t54 16t24 41q5 30 -13.5 45t-64.5 15l8 44q85 0 94 57q5 25 -8 39t-47 14q-64 0 -79 -54h-67
q12 47 54 75.5t103 28.5z" />
    <glyph glyph-name="four.dnom" horiz-adv-x="365" 
d="M217 356h78l-38 -212h55l-10 -54h-54l-15 -90h-66l15 90h-172l9 52zM218 294l-138 -150h111z" />
    <glyph glyph-name="five.dnom" horiz-adv-x="365" 
d="M92 356h227l-9 -52h-172l-20 -77q40 6 67 6q66 0 96 -30.5t21 -84.5q-10 -55 -56.5 -90t-111.5 -35q-60 0 -88.5 29.5t-24.5 76.5h63q-2 -26 13 -40.5t48 -14.5q36 0 59.5 20t29.5 53q11 69 -68 69q-66 0 -117 -9z" />
    <glyph glyph-name="six.dnom" horiz-adv-x="365" 
d="M333 264h-63q-1 49 -61 49q-43 0 -73.5 -31.5t-41.5 -87.5q53 39 115 39q59 0 85 -31t17 -82q-10 -56 -53 -91.5t-112 -35.5q-73 0 -105 46.5t-16 132.5q15 89 66.5 140t128.5 51q57 0 86 -25t27 -74zM180 187q-49 0 -90 -37q-6 -48 11 -76.5t54 -28.5q36 0 58.5 19.5
t28.5 52.5q11 70 -62 70z" />
    <glyph glyph-name="seven.dnom" horiz-adv-x="365" 
d="M66 356h278l-8 -48l-197 -308h-79l200 300h-203z" />
    <glyph glyph-name="eight.dnom" horiz-adv-x="365" 
d="M198 317q-69 0 -79 -54q-5 -28 11.5 -42.5t48.5 -14.5q68 0 78 57q5 25 -10 39.5t-49 14.5zM171 162q-79 0 -90 -62q-5 -29 12 -44.5t57 -15.5q77 0 88 60q6 32 -13 47t-54 15zM207 363q63 0 93.5 -26.5t23.5 -68.5q-12 -68 -91 -83q41 -6 59.5 -30t11.5 -61
q-8 -47 -51.5 -74t-111.5 -27q-70 0 -103 27t-25 74q7 36 34 60t69 30q-38 9 -53 31t-9 53q7 42 47.5 68.5t105.5 26.5z" />
    <glyph glyph-name="nine.dnom" horiz-adv-x="365" 
d="M202 363q72 0 104 -47t16 -133q-15 -88 -67 -139t-128 -51q-55 0 -86 25.5t-28 70.5h64q-1 -26 15.5 -38.5t44.5 -12.5q42 0 72 32.5t42 88.5q-52 -38 -107 -38q-63 0 -89.5 31.5t-17.5 83.5q9 54 52 90.5t113 36.5zM193 311q-36 0 -58.5 -20t-28.5 -54q-11 -71 61 -71
q49 0 90 38q5 50 -11 78.5t-53 28.5z" />
    <glyph glyph-name="A.small" horiz-adv-x="491" 
d="M235 500h118l92 -500h-90l-26 142h-201l-75 -142h-87zM284 452q-17 -41 -28 -60l-101 -190h167l-33 190q-5 28 -5 60z" />
    <glyph glyph-name="B.small" horiz-adv-x="522" 
d="M202 439l-27 -152h121q46 0 70.5 22t30.5 55q13 75 -74 75h-121zM127 500h230q77 0 109.5 -35.5t23.5 -86.5q-7 -43 -37.5 -74t-81.5 -43q56 -9 81 -43t16 -84q-10 -57 -61.5 -95.5t-129.5 -38.5h-238zM165 230l-29 -168h127q99 0 115 82q6 38 -14 62t-70 24h-129z" />
    <glyph glyph-name="C.small" horiz-adv-x="518" 
d="M328 510q82 0 130.5 -46t48.5 -130h-91q-1 47 -28.5 75.5t-75.5 28.5q-68 0 -113.5 -50.5t-60.5 -137.5q-15 -86 12.5 -137t95.5 -51q48 0 85.5 28.5t55.5 75.5h90q-30 -84 -94 -130t-146 -46q-109 0 -159 70t-28 190q20 120 94.5 190t183.5 70z" />
    <glyph glyph-name="D.small" horiz-adv-x="568" 
d="M127 500h215q106 0 155 -67t29 -181q-20 -115 -91.5 -183.5t-177.5 -68.5h-218zM201 434l-65 -368h114q76 0 122.5 47.5t62.5 137.5q32 183 -122 183h-112z" />
    <glyph glyph-name="E.small" horiz-adv-x="469" 
d="M127 500h356l-12 -65h-270l-26 -148h226l-11 -61h-225l-29 -161h273l-10 -65h-360z" />
    <glyph glyph-name="F.small" horiz-adv-x="444" 
d="M127 500h356l-12 -65h-270l-28 -161h226l-11 -61h-226l-37 -213h-86z" />
    <glyph glyph-name="G.small" horiz-adv-x="563" 
d="M332 510q86 0 133 -43t49 -115h-87q-5 41 -31.5 65.5t-75.5 24.5q-74 0 -120 -51.5t-62 -140.5q-32 -192 107 -192q60 0 104 41t57 115h-133l10 57h220l-48 -271h-82l17 99q-24 -49 -67.5 -79t-101.5 -30q-103 0 -148 68.5t-24 191.5q20 111 96 185.5t187 74.5z" />
    <glyph glyph-name="H.small" horiz-adv-x="558" 
d="M127 500h86l-37 -207h228l37 207h86l-88 -500h-86l39 224h-228l-39 -224h-86z" />
    <glyph glyph-name="I.small" horiz-adv-x="244" 
d="M127 500h86l-88 -500h-86z" />
    <glyph glyph-name="J.small" horiz-adv-x="426" 
d="M312 500h86l-65 -364q-11 -68 -64.5 -107t-134.5 -39q-70 0 -108 37t-35 99h88q-2 -30 15.5 -50.5t53.5 -20.5q85 0 100 84z" />
    <glyph glyph-name="K.small" horiz-adv-x="520" 
d="M127 500h86l-88 -500h-86zM435 500h99l-261 -231l190 -269h-101l-185 266z" />
    <glyph glyph-name="L.small" horiz-adv-x="440" 
d="M127 500h86l-76 -430h263l-12 -70h-349z" />
    <glyph glyph-name="M.small" horiz-adv-x="692" 
d="M127 500h124l66 -342q5 -28 5 -66q14 33 29 66l191 342h119l-88 -500h-79l63 361q6 38 13 60l-29 -60l-197 -361h-75l-72 357q-3 14 -8 66q0 -9 -9 -66l-63 -357h-78z" />
    <glyph glyph-name="N.small" horiz-adv-x="561" 
d="M127 500h104l138 -328q10 -28 17 -65q3 25 11 75l56 318h77l-88 -500h-94l-143 351q-11 35 -17 67q-6 -46 -10 -74l-60 -344h-79z" />
    <glyph glyph-name="O.small" horiz-adv-x="549" 
d="M311 437q-67 0 -112.5 -49.5t-60.5 -137.5q-16 -88 12 -137.5t95 -49.5t112.5 49.5t61.5 137.5q15 88 -13 137.5t-95 49.5zM324 510q103 0 153 -70.5t30 -189.5q-22 -119 -96.5 -189.5t-177.5 -70.5q-104 0 -154.5 70.5t-28.5 189.5q20 119 95 189.5t179 70.5z" />
    <glyph glyph-name="P.small" horiz-adv-x="499" 
d="M127 500h235q78 0 111 -43.5t21 -110.5q-13 -71 -61.5 -115t-129.5 -44h-146l-32 -187h-86zM201 434l-33 -187h130q90 0 109 96q15 91 -76 91h-130z" />
    <glyph glyph-name="Q.small" horiz-adv-x="549" 
d="M324 510q103 0 153 -70.5t30 -189.5q-27 -147 -128 -216l78 -119h-91l-55 86q-39 -11 -78 -11q-104 0 -154.5 70.5t-28.5 189.5q20 119 95 189.5t179 70.5zM213 155h87l39 -60q60 48 80 155q15 88 -13 137.5t-95 49.5t-112.5 -49.5t-60.5 -137.5q-16 -88 12 -137.5
t95 -49.5q17 0 25 2z" />
    <glyph glyph-name="R.small" horiz-adv-x="531" 
d="M127 500h239q79 0 111.5 -37.5t21.5 -96.5q-8 -50 -42.5 -85.5t-87.5 -45.5q24 -6 38.5 -15.5t28 -35.5t12 -69t-10.5 -115h-89q9 68 11 108t-10 61t-26 27.5t-37 6.5h-126l-35 -203h-86zM201 434l-30 -169h132q89 0 105 88q7 36 -10.5 58.5t-63.5 22.5h-133z" />
    <glyph glyph-name="S.small" horiz-adv-x="498" 
d="M26 139h85q-4 -39 25.5 -62t82.5 -23q62 0 95.5 24.5t39.5 58.5q4 22 -2.5 36.5t-23.5 23.5t-33.5 13t-44.5 9q-98 16 -133 41q-48 35 -35 103q10 61 70 104t149 43q91 0 137 -40t40 -107h-85q4 39 -23 61.5t-76 22.5q-57 0 -89 -22.5t-38 -55.5q-6 -36 20.5 -51.5
t81.5 -24.5q34 -6 54 -10t48.5 -15t43 -25.5t23 -40t2.5 -58.5q-11 -67 -71 -110.5t-163 -43.5q-91 0 -139 40.5t-41 108.5z" />
    <glyph glyph-name="T.small" horiz-adv-x="439" 
d="M52 500h430l-11 -65h-172l-76 -435h-87l76 435h-172z" />
    <glyph glyph-name="U.small" horiz-adv-x="548" 
d="M118 500h86l-61 -350q-9 -45 17 -68t83 -23q117 0 135 91l61 350h87l-65 -364q-11 -70 -77 -108t-154 -38q-87 0 -138 38t-39 108z" />
    <glyph glyph-name="V.small" horiz-adv-x="481" 
d="M54 500h92l61 -355q6 -28 6 -71q12 33 31 71l192 355h87l-271 -500h-106z" />
    <glyph glyph-name="W.small" horiz-adv-x="771" 
d="M67 500h87l40 -354q1 -10 1.5 -22.5t1 -27.5t0.5 -23q12 42 27 73l168 354h84l43 -354q2 -23 2 -73q16 48 28 73l167 354h84l-240 -500h-104l-38 321q-3 37 -3 84q-12 -37 -32 -84l-153 -321h-101z" />
    <glyph glyph-name="X.small" horiz-adv-x="499" 
d="M68 500h98l84 -149q7 -13 15 -35l27 35l137 149h92l-220 -240l149 -260h-104l-89 158q-10 15 -17 39q-12 -19 -30 -39l-144 -158h-97l235 255z" />
    <glyph glyph-name="Y.small" horiz-adv-x="461" 
d="M38 500h97l109 -208l184 208h91l-246 -275l-40 -225h-86l39 225z" />
    <glyph glyph-name="Z.small" horiz-adv-x="467" 
d="M92 500h385l-12 -67l-361 -366h306l-11 -67h-408l11 67l361 366h-283z" />
    <glyph glyph-name="AE.small" horiz-adv-x="712" 
d="M322 500h397l-12 -65h-269l-27 -148h226l-11 -61h-225l-29 -161h274l-11 -65h-360l24 142h-203l-126 -142h-91zM142 202h168l41 231z" />
    <glyph glyph-name="OE.small" horiz-adv-x="758" 
d="M320 510q35 0 72 -10h373l-12 -65h-293q60 -46 48 -148h175l-10 -61h-175q-23 -112 -102 -161h296l-11 -65h-377q-40 -10 -75 -10q-106 0 -155.5 70t-27.5 190q21 120 94.5 190t179.5 70zM308 439q-67 0 -113 -50t-62 -139q-15 -89 13.5 -139t95.5 -50t113 50t62 139
q15 89 -13.5 139t-95.5 50z" />
    <glyph glyph-name="Eng.small" horiz-adv-x="561" 
d="M127 500h104l138 -327q11 -34 17 -64q3 24 11 74l56 317h77l-88 -500q-14 -78 -68 -120.5t-121 -43.5l12 69q77 2 96 95h-12l-144 349q-11 36 -17 68q-2 -23 -10 -74l-60 -343h-79z" />
    <glyph glyph-name="Eth.small" horiz-adv-x="568" 
d="M127 500h215q106 0 155 -67t29 -181q-20 -115 -91.5 -183.5t-177.5 -68.5h-218l42 239h-58l10 57h58zM201 434l-25 -138h106l-10 -57h-106l-30 -173h114q76 0 122.5 47.5t62.5 137.5q32 183 -122 183h-112z" />
    <glyph glyph-name="IJ.small" horiz-adv-x="668" 
d="M127 500h86l-88 -500h-86zM551 500h87l-65 -364q-12 -68 -65.5 -107t-134.5 -39q-70 0 -107.5 37t-35.5 99h88q-2 -30 15.5 -50.5t53.5 -20.5q85 0 100 84z" />
    <glyph glyph-name="Oslash.small" horiz-adv-x="544" 
d="M324 510q82 0 132 -47l36 37h61l-70 -71q42 -68 24 -179q-22 -119 -96.5 -189.5t-177.5 -70.5q-83 0 -135 47l-36 -37h-63l71 72q-40 67 -20 178q20 119 95 189.5t179 70.5zM419 250q11 69 -2 111l-258 -262q29 -36 86 -36q67 0 112.5 49.5t61.5 137.5zM311 437
q-67 0 -112.5 -49.5t-60.5 -137.5q-12 -65 0 -109l257 261q-30 35 -84 35z" />
    <glyph glyph-name="Thorn.small" horiz-adv-x="499" 
d="M127 500h86l-14 -82h148q78 0 111.5 -43t21.5 -111q-13 -71 -61.5 -115t-129.5 -44h-146l-18 -105h-86zM187 355l-33 -190h130q90 0 107 97q17 93 -74 93h-130z" />
    <glyph glyph-name="rupee" 
d="M126 700h505l-10 -58h-163q60 -33 48 -124h93l-10 -59h-100q-42 -131 -174 -147q28 -5 46 -12.5t36.5 -28t26 -52t7 -87.5t-13.5 -132h-94q12 69 13 118.5t-6 79t-24 46t-36.5 22t-47.5 5.5h-172l13 72h186q60 0 96 32t48 84h-310l10 59h311q5 48 -19 78t-81 30h-191z
" />
    <glyph glyph-name="litre" horiz-adv-x="392" 
d="M332 709q55 0 76 -26.5t14 -67.5q-11 -61 -67.5 -129t-143.5 -128l-46 -261q-8 -41 28 -41q50 0 73 84h74q-53 -150 -170 -150q-107 0 -88 107l36 204q-48 -24 -65 -31l-13 50q43 19 89 46l32 181q14 77 60.5 119.5t110.5 42.5zM245 553l-21 -119q107 91 120 167
q8 42 -30 42q-54 0 -69 -90z" />
    <glyph glyph-name="publish" horiz-adv-x="827" 
d="M482 654q-129 0 -223.5 -85.5t-118.5 -218.5t41 -218.5t194 -85.5q131 0 225 85.5t118 218.5t-40.5 218.5t-195.5 85.5zM492 710q154 0 241 -102t60 -258q-27 -157 -150.5 -258.5t-277.5 -101.5q-152 0 -239.5 101.5t-59.5 258.5q27 157 151 258.5t275 101.5zM327 568
h203q67 0 95.5 -37.5t18.5 -95.5q-10 -61 -51.5 -99.5t-112.5 -38.5h-132l-29 -167h-69zM386 515l-30 -169h120q82 0 99 87q14 82 -69 82h-120z" />
    <glyph glyph-name="ampersand.ss02" horiz-adv-x="734" 
d="M702 71l-15 -80q-97 0 -220 91q-114 -91 -239 -91q-108 0 -157 61.5t-34 149.5q13 71 61.5 127.5t125.5 78.5q-15 56 -6 109q15 82 78 137.5t169 55.5q95 0 144.5 -47t42.5 -119h-87q0 40 -28 64.5t-88 24.5q-62 0 -100.5 -33.5t-46.5 -79.5q-13 -73 40 -166.5
t139 -170.5q92 107 126 250h96q-58 -168 -172 -290q98 -72 171 -72zM253 66q87 0 164 56q-123 107 -176 235q-48 -17 -78 -54t-38 -82q-11 -65 21.5 -110t106.5 -45z" />
    <glyph glyph-name="ampersand.ss01" horiz-adv-x="716" 
d="M36 196q12 68 63.5 125.5t129.5 81.5q-27 57 -17 114q15 81 81.5 137t173.5 56q99 0 145 -43.5t35 -106.5q-11 -65 -60.5 -102.5t-108.5 -37.5q-49 0 -53 37q58 0 92.5 25.5t42.5 69.5q6 39 -20 63.5t-87 24.5q-65 0 -105 -33.5t-49 -80.5q-6 -35 13.5 -77.5t46.5 -74.5
t76.5 -87.5t76.5 -90.5q79 89 110 193h92q-49 -134 -164 -247q93 -144 67 -289h-82q20 114 -55 229q-125 -91 -252 -91q-109 0 -158 59t-34 146zM444 132q-23 30 -93 107.5t-98 119.5q-51 -18 -86 -58t-43 -86q-11 -64 21.5 -106.5t107.5 -42.5q102 0 191 66z" />
    <glyph glyph-name="ampersand.ss03" horiz-adv-x="677" 
d="M410 710q111 0 165.5 -50t52.5 -134h-89q-1 53 -33 82.5t-109 29.5q-70 0 -116.5 -35.5t-55.5 -88.5q-10 -56 22.5 -85t90.5 -29h359l-12 -65h-98l-59 -335h-273q-116 0 -171 50t-40 139q14 75 68.5 122.5t143.5 57.5q-138 28 -115 154q14 80 88 133.5t181 53.5zM267 74
h192l46 261h-184q-72 0 -123 -31t-63 -100q-11 -60 21.5 -95t110.5 -35z" />
    <glyph glyph-name="ampersand.ss04" horiz-adv-x="735" 
d="M483 710q95 0 139 -33t33 -96q-30 -173 -470 -179q-14 -32 -20 -70q-22 -124 21 -192t151 -68q93 0 165 65t102 168h-195l11 66h308q-43 -177 -157.5 -279t-249.5 -102q-146 0 -212 95t-39 249q29 162 146 269t267 107zM465 645q-83 0 -152 -48.5t-106 -132.5
q332 2 351 111q11 70 -93 70z" />
    <glyph glyph-name="ampersand.ss05" horiz-adv-x="722" 
d="M431 710q96 0 138 -42t31 -106q-5 -27 -16 -49t-32 -39.5t-37.5 -29t-50 -23.5t-50 -17.5t-56.5 -17.5l150 -187q68 84 100 190h92q-48 -130 -151 -241l119 -148h-122l-67 84q-118 -93 -248 -93q-110 0 -160 58.5t-35 145.5q14 81 64 129.5t127 78.5q-43 67 -30 135
q14 76 74.5 124t159.5 48zM256 66q101 0 185 66l-177 222q-124 -49 -141 -149q-10 -57 24.5 -98t108.5 -41zM286 545q-10 -51 34 -112q41 12 57 17t47 17t44.5 22.5t27 27.5t17.5 38q7 39 -15.5 62.5t-80.5 23.5q-56 0 -89.5 -26t-41.5 -70z" />
    <glyph glyph-name="ampersand.small" horiz-adv-x="564" 
d="M521 57l-12 -65q-70 0 -163 62q-85 -62 -175 -62q-81 0 -119 43t-26 111q8 49 41.5 86t85.5 56q-12 42 -5 78q10 61 60 102.5t138 41.5q74 0 110.5 -35t36.5 -91h-81q0 28 -19.5 45.5t-60.5 17.5q-47 0 -72.5 -23t-30.5 -56q-9 -50 28 -113t98 -116q60 75 85 175h87
q-42 -120 -126 -210q70 -47 120 -47zM192 50q59 0 109 37q-90 73 -131 157q-55 -31 -66 -92q-8 -43 14.5 -72.5t73.5 -29.5z" />
    <glyph glyph-name="caron.alt" horiz-adv-x="176" 
d="M135 710h80l-64 -151h-43z" />
    <glyph glyph-name="acute.case" horiz-adv-x="285" 
d="M273 875l80 -11l-166 -139h-56z" />
    <glyph glyph-name="grave.case" horiz-adv-x="285" 
d="M156 864l83 11l90 -150h-56z" />
    <glyph glyph-name="caron.case" horiz-adv-x="400" 
d="M158 864l57 11l81 -97l117 97l53 -11l-143 -139h-71z" />
    <glyph glyph-name="circumflex.case" horiz-adv-x="400" 
d="M444 735l-57 -10l-82 96l-117 -96l-53 10l144 140h70z" />
    <glyph glyph-name="breve.case" horiz-adv-x="329" 
d="M152 838l47 5q-5 -30 11 -47.5t51 -17.5q72 0 86 65l45 -5q-9 -50 -47.5 -80t-92.5 -30q-53 0 -80.5 30t-19.5 80z" />
    <glyph glyph-name="dieresis.case" horiz-adv-x="344" 
d="M212 756h-65l12 67h65zM383 756h-66l12 67h66z" />
    <glyph glyph-name="dotaccent.case" horiz-adv-x="182" 
d="M225 756h-83l13 71h83z" />
    <glyph glyph-name="hungarumlaut.case" horiz-adv-x="412" 
d="M254 874l68 -10l-139 -135h-49zM411 874l67 -10l-140 -135h-47z" />
    <glyph glyph-name="macron.case" horiz-adv-x="348" 
d="M390 748h-249l10 52h248z" />
    <glyph glyph-name="ring.case" horiz-adv-x="323" 
d="M274 870q49 0 77 -21t21 -59t-41.5 -58t-83.5 -20q-50 0 -77.5 20t-20.5 58t42 59t83 21zM268 834q-30 0 -48.5 -12t-21.5 -32q-4 -22 11.5 -33t42.5 -11q62 0 71 44q4 22 -12 33t-43 11z" />
    <glyph glyph-name="tilde.case" horiz-adv-x="414" 
d="M249 843q27 0 49.5 -14.5t40 -28.5t32.5 -14q39 0 53 42l37 -6q-26 -87 -97 -87q-30 0 -66.5 29.5t-58.5 29.5q-40 0 -53 -45l-36 8q24 86 99 86z" />
    <glyph glyph-name="arrowupleft" horiz-adv-x="548" 
d="M56 148l63 352h352l-13 -72h-228l249 -304l-60 -51l-250 303l-40 -228h-73z" />
    <glyph glyph-name="arrowupright" horiz-adv-x="548" 
d="M525 500l-63 -352h-73l41 228l-357 -303l-41 51l356 304h-228l13 72h352z" />
    <glyph glyph-name="arrowdownleft" horiz-adv-x="548" 
d="M31 0l62 352h72l-40 -228l356 303l42 -51l-356 -304h228l-12 -72h-352z" />
    <glyph glyph-name="arrowdownright" horiz-adv-x="548" 
d="M498 352l-61 -352h-352l12 72h228l-249 304l59 51l250 -303l41 228h72z" />
    <glyph glyph-name="beta.alt" horiz-adv-x="560" 
d="M373 710q94 0 142 -46.5t34 -123.5q-26 -148 -195 -165q184 -22 157 -181q-14 -83 -87 -141.5t-185 -58.5q-60 0 -113 12l-36 -206h-87l128 727q15 85 81 134t161 49zM217 523l-79 -445q53 -12 110 -12q77 0 118 38.5t51 96.5q12 68 -26.5 100t-133.5 32l12 70
q93 0 134 29.5t52 92.5q9 49 -13.5 79.5t-85.5 30.5q-118 0 -139 -112z" />
    <glyph glyph-name="theta.alt" horiz-adv-x="570" 
d="M370 710q114 0 161.5 -93.5t17.5 -266.5t-111 -266.5t-195 -93.5t-162 93.5t-18 266.5q31 173 112 266.5t195 93.5zM255 62q77 0 129 72.5t74 196.5h-311q-22 -124 4.5 -196.5t103.5 -72.5zM357 638q-74 0 -125 -67t-74 -180h311q16 113 -11 180t-101 67z" />
    <glyph glyph-name="sigmafinal" horiz-adv-x="479" 
d="M305 510q99 0 142.5 -47.5t40.5 -122.5h-81q-2 97 -110 97q-64 0 -104.5 -45.5t-52.5 -112.5q-8 -47 0.5 -81.5t29 -55t46.5 -36t52.5 -28.5t47.5 -28t31.5 -38.5t4.5 -56.5q-7 -43 -57 -91t-117 -79l-28 59q44 23 73.5 53t34.5 56q4 21 -13 37t-44 26.5t-57.5 28.5
t-55 43.5t-36 71.5t0.5 112q18 101 85.5 169.5t166.5 68.5z" />
    <glyph glyph-name="phi.alt" horiz-adv-x="744" 
d="M411 700h87l-34 -192q137 -8 202 -77t45 -181q-20 -114 -109 -182t-229 -76l-34 -192h-87l35 193q-137 7 -201.5 75.5t-44.5 181.5q20 112 108.5 181t227.5 76zM619 250q14 81 -30 134t-137 54l-67 -376q94 1 157 54t77 134zM133 250q-15 -81 29 -134t137 -54l66 376
q-93 -1 -156 -54.5t-76 -133.5z" />
    <glyph glyph-name="dieresistonoscomb" horiz-adv-x="351" 
d="M196 753h-60l12 69h60zM283 721h-41l10 146h72zM399 753h-60l12 69h60z" />
    <glyph glyph-name="gacute" horiz-adv-x="574" 
d="M302 510q63 0 98 -35.5t40 -88.5l20 114h87l-89 -505q-36 -206 -274 -206q-91 0 -141.5 43.5t-41.5 122.5h93q-5 -45 25.5 -71.5t81.5 -26.5q146 0 170 138l21 119q-27 -54 -75 -86.5t-111 -32.5q-95 0 -137.5 69.5t-22.5 185.5t87.5 188t168.5 72zM306 438
q-67 0 -111 -50t-59 -138q-16 -87 11.5 -136.5t94.5 -49.5q70 0 114.5 51t58.5 131q17 94 -12.5 143t-96.5 49zM415 716l89 -11l-165 -155h-61z" />
    <glyph glyph-name="iacute_jacute" horiz-adv-x="480" 
d="M121 0h-82l88 500h82zM367 500h82l-98 -555q-14 -78 -67.5 -117t-121.5 -39l12 69q41 0 63.5 19.5t31.5 71.5zM469 716l89 -11l-165 -155h-61zM227 716l89 -11l-165 -155h-61z" />
    <glyph glyph-name="Aacute.small" horiz-adv-x="491" 
d="M377 716l89 -11l-165 -155h-61zM235 500h118l92 -500h-90l-26 142h-201l-75 -142h-87zM284 452q-17 -41 -28 -60l-101 -190h167l-33 190q-5 28 -5 60z" />
    <glyph glyph-name="Abreve.small" horiz-adv-x="491" 
d="M199 685l53 6q-5 -35 9.5 -55t48.5 -20q36 0 57.5 21.5t27.5 53.5l52 -6q-10 -55 -51 -88.5t-95 -33.5t-83 33.5t-19 88.5zM235 500h118l92 -500h-90l-26 142h-201l-75 -142h-87zM284 452q-17 -41 -28 -60l-101 -190h167l-33 190q-5 28 -5 60z" />
    <glyph glyph-name="Acircumflex.small" horiz-adv-x="491" 
d="M235 500h118l92 -500h-90l-26 142h-201l-75 -142h-87zM284 452q-17 -41 -28 -60l-101 -190h167l-33 190q-5 28 -5 60zM288 709h79l89 -151l-61 -11l-77 107l-114 -107l-57 11z" />
    <glyph glyph-name="Adieresis.small" horiz-adv-x="491" 
d="M235 500h118l92 -500h-90l-26 142h-201l-75 -142h-87zM284 452q-17 -41 -28 -60l-101 -190h167l-33 190q-5 28 -5 60zM259 594h-65l12 70h66zM421 594h-65l12 70h66z" />
    <glyph glyph-name="Agrave.small" horiz-adv-x="491" 
d="M192 705l92 11l78 -166h-60zM235 500h118l92 -500h-90l-26 142h-201l-75 -142h-87zM284 452q-17 -41 -28 -60l-101 -190h167l-33 190q-5 28 -5 60z" />
    <glyph glyph-name="Amacron.small" horiz-adv-x="491" 
d="M431 586h-249l10 57h249zM235 500h118l92 -500h-90l-26 142h-201l-75 -142h-87zM284 452q-17 -41 -28 -60l-101 -190h167l-33 190q-5 28 -5 60z" />
    <glyph glyph-name="Aogonek.small" horiz-adv-x="491" 
d="M235 500h118l92 -500h-21q-66 -46 -77 -106q-4 -25 9 -39.5t39 -14.5q1 0 25 3l-9 -54q-22 -5 -40 -5q-49 0 -75 24.5t-19 66.5q12 73 101 125h-23l-26 142h-201l-75 -142h-87zM284 452q-17 -41 -28 -60l-101 -190h167l-33 190q-5 28 -5 60z" />
    <glyph glyph-name="Aring.small" horiz-adv-x="491" 
d="M329 721q49 0 76.5 -25.5t20.5 -67.5q-8 -43 -44.5 -68t-85.5 -25q-48 0 -76 25t-20 68q7 42 44 67.5t85 25.5zM322 678q-28 0 -46.5 -14.5t-22.5 -35.5q-4 -24 10.5 -37.5t40.5 -13.5q59 0 67 50q4 24 -10.5 37.5t-38.5 13.5zM235 500h118l92 -500h-90l-26 142h-201
l-75 -142h-87zM284 452q-17 -41 -28 -60l-101 -190h167l-33 190q-5 28 -5 60z" />
    <glyph glyph-name="Atilde.small" horiz-adv-x="491" 
d="M258 686q27 0 49.5 -15t39.5 -29.5t32 -14.5q39 0 53 44l37 -7q-27 -92 -98 -92q-30 0 -66 30.5t-58 30.5q-40 0 -54 -47l-35 9q11 43 37 67t63 24zM235 500h118l92 -500h-90l-26 142h-201l-75 -142h-87zM284 452q-17 -41 -28 -60l-101 -190h167l-33 190q-5 28 -5 60z
" />
    <glyph glyph-name="Ccedilla.small" horiz-adv-x="518" 
d="M328 510q82 0 130.5 -46t48.5 -130h-91q-1 47 -28.5 75.5t-75.5 28.5q-68 0 -113.5 -50.5t-60.5 -137.5q-15 -86 12.5 -137t95.5 -51q48 0 85.5 28.5t55.5 75.5h90q-28 -80 -88 -125t-137 -50l-40 -51q16 4 37 4q46 0 70 -21.5t17 -56.5q-7 -42 -48 -68t-98 -26
q-72 0 -102 35l31 31q16 -25 75 -25q65 0 76 46q3 24 -14.5 38.5t-59.5 14.5q-15 0 -59 -6l61 87q-89 12 -128.5 80t-19.5 177q20 120 94.5 190t183.5 70z" />
    <glyph glyph-name="Cacute.small" horiz-adv-x="518" 
d="M382 716l89 -11l-165 -155h-61zM328 510q82 0 130.5 -46t48.5 -130h-91q-1 47 -28.5 75.5t-75.5 28.5q-68 0 -113.5 -50.5t-60.5 -137.5q-15 -86 12.5 -137t95.5 -51q48 0 85.5 28.5t55.5 75.5h90q-30 -84 -94 -130t-146 -46q-109 0 -159 70t-28 190q20 120 94.5 190
t183.5 70z" />
    <glyph glyph-name="Ccircumflex.small" horiz-adv-x="518" 
d="M328 510q82 0 130.5 -46t48.5 -130h-91q-1 47 -28.5 75.5t-75.5 28.5q-68 0 -113.5 -50.5t-60.5 -137.5q-15 -86 12.5 -137t95.5 -51q48 0 85.5 28.5t55.5 75.5h90q-30 -84 -94 -130t-146 -46q-109 0 -159 70t-28 190q20 120 94.5 190t183.5 70zM321 709h79l89 -151
l-61 -11l-77 107l-114 -107l-57 11z" />
    <glyph glyph-name="Ccaron.small" horiz-adv-x="518" 
d="M210 700l61 12l76 -107l114 107l58 -12l-142 -150h-79zM328 510q82 0 130.5 -46t48.5 -130h-91q-1 47 -28.5 75.5t-75.5 28.5q-68 0 -113.5 -50.5t-60.5 -137.5q-15 -86 12.5 -137t95.5 -51q48 0 85.5 28.5t55.5 75.5h90q-30 -84 -94 -130t-146 -46q-109 0 -159 70
t-28 190q20 120 94.5 190t183.5 70z" />
    <glyph glyph-name="Cdotaccent.small" horiz-adv-x="518" 
d="M328 510q82 0 130.5 -46t48.5 -130h-91q-1 47 -28.5 75.5t-75.5 28.5q-68 0 -113.5 -50.5t-60.5 -137.5q-15 -86 12.5 -137t95.5 -51q48 0 85.5 28.5t55.5 75.5h90q-30 -84 -94 -130t-146 -46q-109 0 -159 70t-28 190q20 120 94.5 190t183.5 70zM385 594h-85l14 80h85z
" />
    <glyph glyph-name="Dcroat.small" horiz-adv-x="568" 
d="M127 500h215q106 0 155 -67t29 -181q-20 -115 -91.5 -183.5t-177.5 -68.5h-218l41 235h-60l9 51h60zM201 434l-26 -148h89l-9 -51h-89l-30 -169h114q76 0 122.5 47.5t62.5 137.5q32 183 -122 183h-112z" />
    <glyph glyph-name="Dcaron.small" horiz-adv-x="568" 
d="M196 700l61 12l76 -107l114 107l58 -12l-142 -150h-79zM127 500h215q106 0 155 -67t29 -181q-20 -115 -91.5 -183.5t-177.5 -68.5h-218zM201 434l-65 -368h114q76 0 122.5 47.5t62.5 137.5q32 183 -122 183h-112z" />
    <glyph glyph-name="Eacute.small" horiz-adv-x="469" 
d="M376 716l89 -11l-165 -155h-61zM127 500h356l-12 -65h-270l-26 -148h226l-11 -61h-225l-29 -161h273l-10 -65h-360z" />
    <glyph glyph-name="Ebreve.small" horiz-adv-x="469" 
d="M218 685l53 6q-5 -35 9.5 -55t48.5 -20q37 0 58 21.5t27 53.5l52 -6q-10 -55 -51 -88.5t-95 -33.5t-83 33.5t-19 88.5zM127 500h356l-12 -65h-270l-26 -148h226l-11 -61h-225l-29 -161h273l-10 -65h-360z" />
    <glyph glyph-name="Ecaron.small" horiz-adv-x="469" 
d="M193 700l61 12l76 -107l114 107l58 -12l-142 -150h-79zM127 500h356l-12 -65h-270l-26 -148h226l-11 -61h-225l-29 -161h273l-10 -65h-360z" />
    <glyph glyph-name="Ecircumflex.small" horiz-adv-x="469" 
d="M127 500h356l-12 -65h-270l-26 -148h226l-11 -61h-225l-29 -161h273l-10 -65h-360zM306 709h79l89 -151l-61 -11l-77 107l-114 -107l-57 11z" />
    <glyph glyph-name="Edieresis.small" horiz-adv-x="469" 
d="M127 500h356l-12 -65h-270l-26 -148h226l-11 -61h-225l-29 -161h273l-10 -65h-360zM273 594h-65l12 70h66zM435 594h-65l12 70h66z" />
    <glyph glyph-name="Edotaccent.small" horiz-adv-x="469" 
d="M127 500h356l-12 -65h-270l-26 -148h226l-11 -61h-225l-29 -161h273l-10 -65h-360zM376 594h-85l14 80h85z" />
    <glyph glyph-name="Egrave.small" horiz-adv-x="469" 
d="M220 705l92 11l78 -166h-60zM127 500h356l-12 -65h-270l-26 -148h226l-11 -61h-225l-29 -161h273l-10 -65h-360z" />
    <glyph glyph-name="Emacron.small" horiz-adv-x="469" 
d="M445 586h-249l10 57h249zM127 500h356l-12 -65h-270l-26 -148h226l-11 -61h-225l-29 -161h273l-10 -65h-360z" />
    <glyph glyph-name="Eogonek.small" horiz-adv-x="469" 
d="M127 500h356l-12 -65h-270l-26 -148h226l-11 -61h-225l-29 -161h273l-10 -65h-28q-66 -46 -77 -106q-4 -25 9 -39.5t39 -14.5q1 0 25 3l-9 -54q-22 -5 -40 -5q-49 0 -75 24.5t-19 66.5q12 73 101 125h-286z" />
    <glyph glyph-name="Gacute.small" horiz-adv-x="563" 
d="M392 716l89 -11l-165 -155h-61zM332 510q86 0 133 -43t49 -115h-87q-5 41 -31.5 65.5t-75.5 24.5q-74 0 -120 -51.5t-62 -140.5q-32 -192 107 -192q60 0 104 41t57 115h-133l10 57h220l-48 -271h-82l17 99q-24 -49 -67.5 -79t-101.5 -30q-103 0 -148 68.5t-24 191.5
q20 111 96 185.5t187 74.5z" />
    <glyph glyph-name="Gbreve.small" horiz-adv-x="563" 
d="M240 685l53 6q-5 -35 9.5 -55t48.5 -20q37 0 58 21.5t27 53.5l52 -6q-10 -55 -51 -88.5t-95 -33.5t-83 33.5t-19 88.5zM332 510q86 0 133 -43t49 -115h-87q-5 41 -31.5 65.5t-75.5 24.5q-74 0 -120 -51.5t-62 -140.5q-32 -192 107 -192q60 0 104 41t57 115h-133l10 57
h220l-48 -271h-82l17 99q-24 -49 -67.5 -79t-101.5 -30q-103 0 -148 68.5t-24 191.5q20 111 96 185.5t187 74.5z" />
    <glyph glyph-name="Gcircumflex.small" horiz-adv-x="563" 
d="M332 510q86 0 133 -43t49 -115h-87q-5 41 -31.5 65.5t-75.5 24.5q-74 0 -120 -51.5t-62 -140.5q-32 -192 107 -192q60 0 104 41t57 115h-133l10 57h220l-48 -271h-82l17 99q-24 -49 -67.5 -79t-101.5 -30q-103 0 -148 68.5t-24 191.5q20 111 96 185.5t187 74.5zM325 709
h79l89 -151l-61 -11l-77 107l-114 -107l-57 11z" />
    <glyph glyph-name="Gcommaaccent.small" horiz-adv-x="563" 
d="M332 510q86 0 133 -43t49 -115h-87q-5 41 -31.5 65.5t-75.5 24.5q-74 0 -120 -51.5t-62 -140.5q-32 -192 107 -192q60 0 104 41t57 115h-133l10 57h220l-48 -271h-82l17 99q-24 -49 -67.5 -79t-101.5 -30q-103 0 -148 68.5t-24 191.5q20 111 96 185.5t187 74.5zM196 -48
h80l-8 -51q-15 -77 -102 -123l-8 29q54 28 63 82h-36z" />
    <glyph glyph-name="Gdotaccent.small" horiz-adv-x="563" 
d="M332 510q86 0 133 -43t49 -115h-87q-5 41 -31.5 65.5t-75.5 24.5q-74 0 -120 -51.5t-62 -140.5q-32 -192 107 -192q60 0 104 41t57 115h-133l10 57h220l-48 -271h-82l17 99q-24 -49 -67.5 -79t-101.5 -30q-103 0 -148 68.5t-24 191.5q20 111 96 185.5t187 74.5zM390 594
h-85l14 80h85z" />
    <glyph glyph-name="Hcircumflex.small" horiz-adv-x="558" 
d="M127 500h86l-37 -207h228l37 207h86l-88 -500h-86l39 224h-228l-39 -224h-86zM320 709h79l89 -151l-61 -11l-77 107l-114 -107l-57 11z" />
    </font>
</defs>
</svg>
