<?xml version="1.0" encoding="UTF-8"?>
<svg xmlns="http://www.w3.org/2000/svg" xmlns:xlink="http://www.w3.org/1999/xlink" version="1.2" >
<font id="Trivia Sans Hairline Italic">
<font-face  font-family="Trivia Sans Hairline" units-per-em="1000" ascent="868" descent="-200" font-style="italic" font-weight="400" font-stretch="normal" slope="-12" cap-height="700" x-height="500" underline-position="-125" underline-thickness="50" />
<missing-glyph  horiz-adv-x="240" d="" />
<glyph glyph-name="space" unicode="&#x20;" horiz-adv-x="240" d="" />
<glyph glyph-name="D" unicode="D" horiz-adv-x="703" d="M310 16 Q377 16 433.5 42.5 Q490 69 532.5 114.5 Q575 160 604 222 Q633 284 645 356 Q658 429 650 489 Q642 549 614.5 592.5 Q587 636 540 660 Q493 684 428 684 L198 684 L80 16 L310 16 Z M58 0 L181 700 L431 700 Q499 700 549.5 675 Q600 650 630.5 604.5 Q661 559 670.5 495.5 Q680 432 667 356 Q653 280 622 215 Q591 150 545 102 Q499 54 439 27 Q379 0 308 0 L58 0 Z " />
<glyph glyph-name="E" unicode="E" horiz-adv-x="600" d="M58 0 L181 700 L623 700 L620 684 L198 684 L143 372 L509 372 L506 356 L140 356 L80 16 L504 16 L502 0 L58 0 Z " />
<glyph glyph-name="F" unicode="F" horiz-adv-x="570" d="M627 700 L624 684 L198 684 L142 363 L512 363 L509 347 L139 347 L78 0 L58 0 L181 700 L627 700 Z " />
<glyph glyph-name="G" unicode="G" horiz-adv-x="737" d="M454 710 Q503 710 543.5 696.5 Q584 683 614.5 659 Q645 635 663.5 601 Q682 567 688 526 L667 526 Q663 563 646 593.5 Q629 624 601.5 646.5 Q574 669 535.5 681.5 Q497 694 451 694 Q382 694 323.5 668 Q265 642 220 595.5 Q175 549 144.5 486 Q114 423 101 350 Q88 276 96.5 213.5 Q105 151 133.5 104.5 Q162 58 211.5 32 Q261 6 330 6 Q378 6 426.5 25 Q475 44 516.5 83.5 Q558 123 589.5 183.5 Q621 244 636 328 L380 328 L383 344 L659 344 L599 0 L579 0 L615 207 Q601 169 575.5 130.5 Q550 92 514 61 Q478 30 431.5 10 Q385 -10 327 -10 Q252 -10 199 19 Q146 48 115 97.5 Q84 147 75 212.5 Q66 278 79 350 Q92 422 124 487.5 Q156 553 204 602.5 Q252 652 315.5 681 Q379 710 454 710 Z " />
<glyph glyph-name="H" unicode="H" horiz-adv-x="669" d="M511 0 L573 356 L140 356 L78 0 L58 0 L181 700 L201 700 L143 372 L576 372 L634 700 L654 700 L531 0 L511 0 Z " />
<glyph glyph-name="I" unicode="I" horiz-adv-x="216" d="M58 0 L181 700 L201 700 L78 0 L58 0 Z " />
<glyph glyph-name="J" unicode="J" horiz-adv-x="482" d="M467 700 L370 153 Q358 81 305 35.5 Q252 -10 164 -10 Q127 -10 98.5 0 Q70 10 50 28 Q30 46 20 70 Q10 94 11 123 L32 123 Q30 74 66 40 Q102 6 167 6 Q209 6 241 18 Q273 30 295.5 50.5 Q318 71 331.5 97.5 Q345 124 350 153 L447 700 L467 700 Z " />
<glyph glyph-name="K" unicode="K" horiz-adv-x="550" d="M58 0 L181 700 L201 700 L78 0 L58 0 Z M469 0 L156 364 L566 700 L594 700 L182 365 L497 0 L469 0 Z " />
<glyph glyph-name="L" unicode="L" horiz-adv-x="529" d="M58 0 L181 700 L201 700 L80 16 L481 16 L479 0 L58 0 Z " />
<glyph glyph-name="M" unicode="M" horiz-adv-x="795" d="M214 700 L353 67 L362 18 Q374 43 389 69 L748 700 L780 700 L657 0 L638 0 L751 644 L760 690 Q754 678 747.5 666.5 Q741 655 734 643 L368 0 L348 0 L206 644 L197 690 Q196 679 194 667.5 Q192 656 190 645 L77 0 L58 0 L181 700 L214 700 Z " />
<glyph glyph-name="N" unicode="N" horiz-adv-x="660" d="M211 700 L486 78 Q492 64 497.5 50.5 Q503 37 508 23 Q509 40 511.5 56 Q514 72 517 89 L625 700 L645 700 L522 0 L500 0 L220 632 Q214 646 208 659.5 Q202 673 198 687 L188 626 L78 0 L58 0 L181 700 L211 700 Z " />
<glyph glyph-name="O" unicode="O" horiz-adv-x="732" d="M451 710 Q526 710 578.5 681 Q631 652 661 602.5 Q691 553 699.5 487.5 Q708 422 695 350 Q682 278 651 212.5 Q620 147 572.5 97.5 Q525 48 462 19 Q399 -10 324 -10 Q249 -10 196.5 19 Q144 48 113.5 97.5 Q83 147 74.5 212.5 Q66 278 79 350 Q92 422 123.5 487.5 Q155 553 202.5 602.5 Q250 652 313 681 Q376 710 451 710 Z M448 694 Q379 694 321 668 Q263 642 218.5 595.5 Q174 549 144 486 Q114 423 101 350 Q88 276 96 213.5 Q104 151 132 104.5 Q160 58 209 32 Q258 6 327 6 Q396 6 454 32 Q512 58 556.5 104.5 Q601 151 630.5 213.5 Q660 276 673 350 Q686 423 678.5 486 Q671 549 643 595.5 Q615 642 566 668 Q517 694 448 694 Z " />
<glyph glyph-name="P" unicode="P" horiz-adv-x="612" d="M198 684 L136 332 L395 332 Q439 332 473 346 Q507 360 531.5 384 Q556 408 571 441 Q586 474 593 513 Q599 548 596 579 Q593 610 577.5 633.5 Q562 657 532.5 670.5 Q503 684 457 684 L198 684 Z M460 700 Q510 700 543 685.5 Q576 671 594.5 645.5 Q613 620 617.5 586 Q622 552 615 513 Q608 472 591.5 436.5 Q575 401 548 374 Q521 347 482.5 331.5 Q444 316 392 316 L133 316 L78 0 L58 0 L181 700 L460 700 Z " />
<glyph glyph-name="Q" unicode="Q" horiz-adv-x="732" d="M367 191 L471 40 Q551 82 603 163 Q655 244 673 350 Q686 423 678.5 486 Q671 549 643 595.5 Q615 642 566 668 Q517 694 448 694 Q379 694 321 668 Q263 642 218.5 595.5 Q174 549 144 486 Q114 423 101 350 Q88 276 96 213.5 Q104 151 132 104.5 Q160 58 209 32 Q258 6 327 6 Q393 6 451 31 L341 191 L367 191 Z M451 710 Q526 710 578.5 681 Q631 652 661 602.5 Q691 553 699.5 487.5 Q708 422 695 350 Q686 298 667 250 Q648 202 620.5 160 Q593 118 557.5 84 Q522 50 479 28 L594 -138 L568 -138 L460 18 Q396 -10 324 -10 Q249 -10 196.5 19 Q144 48 113.5 97.5 Q83 147 74.5 212.5 Q66 278 79 350 Q92 422 123.5 487.5 Q155 553 202.5 602.5 Q250 652 313 681 Q376 710 451 710 Z " />
<glyph glyph-name="R" unicode="R" horiz-adv-x="643" d="M502 0 Q521 110 518 176.5 Q515 243 497 278.5 Q479 314 450 325 Q421 336 387 336 L137 336 L78 0 L58 0 L181 700 L461 700 Q511 700 544 685.5 Q577 671 595.5 647 Q614 623 619 591 Q624 559 618 523 Q605 451 563 402.5 Q521 354 443 343 Q466 337 488 321 Q510 305 523.5 267.5 Q537 230 538.5 166 Q540 102 522 0 L502 0 Z M400 352 Q446 352 480.5 366 Q515 380 538.5 403.5 Q562 427 576 458 Q590 489 596 523 Q602 556 598.5 585 Q595 614 579 636 Q563 658 533.5 671 Q504 684 458 684 L198 684 L140 352 L400 352 Z " />
<glyph glyph-name="S" unicode="S" horiz-adv-x="607" d="M387 710 Q438 710 477 698 Q516 686 543 666 Q570 646 584.5 620 Q599 594 601 565 L579 565 Q577 590 565 613.5 Q553 637 529 655 Q505 673 469 683.5 Q433 694 384 694 Q327 694 284.5 680.5 Q242 667 212.5 644.5 Q183 622 166 593.5 Q149 565 144 535 Q136 491 148.5 463 Q161 435 187 418 Q213 401 248.5 392 Q284 383 323 377 Q368 370 411 359.5 Q454 349 486.5 328 Q519 307 535 272.5 Q551 238 541 184 Q534 147 513 112 Q492 77 456.5 50 Q421 23 372.5 6.5 Q324 -10 263 -10 Q212 -10 171 1.5 Q130 13 101.5 33 Q73 53 57 79 Q41 105 40 135 L62 135 Q63 109 76.5 86 Q90 63 115.5 45 Q141 27 178.5 16.5 Q216 6 266 6 Q321 6 365.5 21 Q410 36 442.5 60.5 Q475 85 494.5 117 Q514 149 520 184 Q529 232 513.5 262.5 Q498 293 468 312 Q438 331 397.5 341 Q357 351 315 358 Q274 365 235.5 374.5 Q197 384 169 402.5 Q141 421 127.5 452.5 Q114 484 123 535 Q129 567 148.5 598.5 Q168 630 201 654.5 Q234 679 280.5 694.5 Q327 710 387 710 Z " />
<glyph glyph-name="T" unicode="T" horiz-adv-x="542" d="M222 0 L342 684 L92 684 L95 700 L615 700 L612 684 L362 684 L242 0 L222 0 Z " />
<glyph glyph-name="U" unicode="U" horiz-adv-x="660" d="M626 700 L646 700 L551 160 Q544 120 521.5 88.5 Q499 57 464.5 35 Q430 13 385 1.5 Q340 -10 289 -10 Q238 -10 197.5 1.5 Q157 13 130 35 Q103 57 91.5 88.5 Q80 120 87 160 L182 700 L203 700 L109 165 Q102 127 112 97.5 Q122 68 146.5 48 Q171 28 208 17.5 Q245 7 292 7 Q387 7 452.5 48.5 Q518 90 532 165 L626 700 Z " />
<glyph glyph-name="V" unicode="V" horiz-adv-x="581" d="M118 700 L242 77 Q248 47 251 12 Q257 29 265 45 Q273 61 282 77 L630 700 L651 700 L262 0 L237 0 L96 700 L118 700 Z " />
<glyph glyph-name="W" unicode="W" horiz-adv-x="913" d="M130 700 L200 85 Q202 68 204.5 48.5 Q207 29 208 12 Q215 29 223.5 48 Q232 67 240 85 L529 700 L551 700 L621 86 Q623 68 625 49 Q627 30 628 12 Q635 30 644 49.5 Q653 69 661 86 L950 700 L968 700 L638 0 L614 0 L543 608 Q541 625 539 647 Q537 669 537 687 Q529 669 520 647.5 Q511 626 503 608 L217 0 L193 0 L111 700 L130 700 Z " />
<glyph glyph-name="X" unicode="X" horiz-adv-x="589" d="M137 700 L300 409 Q305 400 309.5 390 Q314 380 318 368 Q326 380 335.5 390.5 Q345 401 353 409 L618 700 L640 700 L328 358 L529 0 L504 0 L334 304 Q329 314 324 324 Q319 334 315 347 Q306 334 296.5 324 Q287 314 278 304 L3 0 L-20 0 L304 356 L113 700 L137 700 Z " />
<glyph glyph-name="Y" unicode="Y" horiz-adv-x="568" d="M233 0 L292 338 L91 700 L117 700 L305 354 L620 700 L643 700 L312 338 L253 0 L233 0 Z " />
<glyph glyph-name="Z" unicode="Z" horiz-adv-x="612" d="M2 0 L4 17 L618 684 L133 684 L136 700 L641 700 L638 682 L26 16 L536 16 L534 0 L2 0 Z " />
<glyph glyph-name="AE" unicode="&#xc6;" horiz-adv-x="965" d="M467 250 L542 679 L149 250 L467 250 Z M423 0 L464 235 L134 235 L-79 0 L-105 0 L540 700 L988 700 L985 684 L563 684 L508 372 L874 372 L871 356 L505 356 L445 16 L869 16 L867 0 L423 0 Z " />
<glyph glyph-name="OE" unicode="&#x152;" horiz-adv-x="1066" d="M448 694 Q379 694 321 668 Q263 642 218.5 595.5 Q174 549 144 486 Q114 423 101 350 Q88 276 96 213.5 Q104 151 132 104.5 Q160 58 209 32 Q258 6 327 6 Q396 6 454 32 Q512 58 556.5 104.5 Q601 151 630.5 213.5 Q660 276 673 350 Q686 423 678.5 486 Q671 549 643 595.5 Q615 642 566 668 Q517 694 448 694 Z M451 710 Q473 710 492 707.5 Q511 705 529 700 L1089 700 L1086 684 L572 684 Q611 664 638 632.5 Q665 601 680.5 560.5 Q696 520 700.5 472 Q705 424 698 372 L975 372 L972 356 L696 356 Q686 298 665 245.5 Q644 193 613 148.5 Q582 104 542 70 Q502 36 454 16 L970 16 L968 0 L406 0 Q386 -5 366 -7.5 Q346 -10 324 -10 Q249 -10 196.5 19 Q144 48 113.5 97.5 Q83 147 74.5 212.5 Q66 278 79 350 Q92 422 123.5 487.5 Q155 553 202.5 602.5 Q250 652 313 681 Q376 710 451 710 Z " />
<glyph glyph-name="Oslash" unicode="&#xd8;" horiz-adv-x="732" d="M673 350 Q688 433 676.5 502 Q665 571 627 618 L158 70 Q187 39 229 22.5 Q271 6 327 6 Q396 6 454 32 Q512 58 556.5 104.5 Q601 151 630.5 213.5 Q660 276 673 350 Z M448 694 Q379 694 321 668 Q263 642 218.5 595.5 Q174 549 144 486 Q114 423 101 350 Q87 266 98 197.5 Q109 129 147 82 L617 629 Q588 660 546 677 Q504 694 448 694 Z M697 700 L639 632 Q683 581 696 508 Q709 435 695 350 Q682 278 651 212.5 Q620 147 572.5 97.5 Q525 48 462 19 Q399 -10 324 -10 Q265 -10 221 7 Q177 24 146 56 L98 0 L77 0 L135 67 Q91 118 77.5 191.5 Q64 265 79 350 Q92 422 123.5 487.5 Q155 553 202.5 602.5 Q250 652 313 681 Q376 710 451 710 Q510 710 554 692.5 Q598 675 629 643 L678 700 L697 700 Z " />
<glyph glyph-name="a" unicode="a" horiz-adv-x="577" d="M319 510 Q360 510 390 496.5 Q420 483 440.5 461 Q461 439 471 410 Q481 381 482 350 L508 500 L526 500 L439 0 L421 0 L446 146 Q435 116 413.5 88 Q392 60 363 38.5 Q334 17 299.5 3.5 Q265 -10 228 -10 Q177 -10 140.5 9 Q104 28 83 62.5 Q62 97 56.5 145 Q51 193 61 250 Q71 307 93.5 355 Q116 403 149 437.5 Q182 472 225 491 Q268 510 319 510 Z M317 497 Q271 497 232 478.5 Q193 460 162.5 427.5 Q132 395 111 349.5 Q90 304 81 250 Q71 196 76 150.5 Q81 105 99.5 72.5 Q118 40 151 21.5 Q184 3 230 3 Q278 3 317.5 23 Q357 43 386.5 76 Q416 109 435.5 152 Q455 195 463 242 Q475 309 468.5 357 Q462 405 442 436 Q422 467 389.5 482 Q357 497 317 497 Z " />
<glyph glyph-name="b" unicode="b" horiz-adv-x="577" d="M199 700 L137 350 Q149 381 169.5 410 Q190 439 217.5 461 Q245 483 280 496.5 Q315 510 356 510 Q407 510 443.5 491 Q480 472 501 437.5 Q522 403 528 355 Q534 307 524 250 Q514 193 491.5 145 Q469 97 435.5 62.5 Q402 28 359 9 Q316 -10 265 -10 Q228 -10 198 3.5 Q168 17 146.5 38.5 Q125 60 113.5 88 Q102 116 101 146 L76 0 L58 0 L181 700 L199 700 Z M354 497 Q314 497 276.5 482 Q239 467 208 436 Q177 405 153.5 357 Q130 309 118 242 Q110 195 114 152 Q118 109 136 76 Q154 43 186.5 23 Q219 3 267 3 Q313 3 352 21.5 Q391 40 421.5 72.5 Q452 105 473 150.5 Q494 196 504 250 Q513 304 508 349.5 Q503 395 484.5 427.5 Q466 460 433 478.5 Q400 497 354 497 Z " />
<glyph glyph-name="c" unicode="c" horiz-adv-x="505" d="M328 510 Q363 510 394.5 500.5 Q426 491 449 472.5 Q472 454 485.5 426.5 Q499 399 499 363 L479 363 Q480 395 469 420 Q458 445 437.5 462 Q417 479 388.5 488 Q360 497 326 497 Q280 497 239.5 478.5 Q199 460 166.5 427.5 Q134 395 111.5 349.5 Q89 304 80 250 Q70 196 76.5 150.5 Q83 105 104 72.5 Q125 40 159 21.5 Q193 3 239 3 Q273 3 305 12 Q337 21 363 38 Q389 55 409 80 Q429 105 439 137 L459 137 Q447 101 424 73.5 Q401 46 371 27.5 Q341 9 306.5 -0.5 Q272 -10 237 -10 Q186 -10 148.5 9 Q111 28 88 62.5 Q65 97 58 145 Q51 193 61 250 Q71 307 95 354.5 Q119 402 154 436.5 Q189 471 233 490.5 Q277 510 328 510 Z " />
<glyph glyph-name="d" unicode="d" horiz-adv-x="577" d="M319 510 Q360 510 390 496.5 Q420 483 440.5 461 Q461 439 471 410 Q481 381 482 350 L544 700 L562 700 L439 0 L421 0 L446 146 Q435 116 413.5 88 Q392 60 363 38.5 Q334 17 299.5 3.5 Q265 -10 228 -10 Q177 -10 140.5 9 Q104 28 83 62.5 Q62 97 56.5 145 Q51 193 61 250 Q71 307 93.5 355 Q116 403 149 437.5 Q182 472 225 491 Q268 510 319 510 Z M317 497 Q271 497 232 478.5 Q193 460 162.5 427.5 Q132 395 111 349.5 Q90 304 81 250 Q71 196 76 150.5 Q81 105 99.5 72.5 Q118 40 151 21.5 Q184 3 230 3 Q278 3 317.5 23 Q357 43 386.5 76 Q416 109 435.5 152 Q455 195 463 242 Q475 309 468.5 357 Q462 405 442 436 Q422 467 389.5 482 Q357 497 317 497 Z " />
<glyph glyph-name="e" unicode="e" horiz-adv-x="541" d="M337 497 Q293 497 253.5 481.5 Q214 466 181.5 437.5 Q149 409 124.5 369.5 Q100 330 87 283 L293 283 Q387 283 433 313.5 Q479 344 479 393 Q479 412 471 431 Q463 450 446 464.5 Q429 479 402 488 Q375 497 337 497 Z M339 510 Q382 510 412.5 500 Q443 490 462 473.5 Q481 457 490 436.5 Q499 416 499 394 Q499 339 447.5 304 Q396 269 293 269 L84 269 Q82 264 81.5 259.5 Q81 255 80 250 Q70 196 76.5 150.5 Q83 105 103 72.5 Q123 40 157 21.5 Q191 3 237 3 Q304 3 360 36.5 Q416 70 439 137 L458 137 Q444 99 420.5 71.5 Q397 44 367.5 26 Q338 8 304 -1 Q270 -10 235 -10 Q184 -10 146.5 9 Q109 28 86.5 62.5 Q64 97 57 145 Q50 193 60 250 Q70 307 96 355 Q122 403 159 437.5 Q196 472 242 491 Q288 510 339 510 Z " />
<glyph glyph-name="f" unicode="f" horiz-adv-x="298" d="M319 710 Q333 710 349 709 Q365 708 382 704 L379 688 Q362 693 346.5 694.5 Q331 696 317 696 Q207 696 184 571 L172 500 L346 500 L343 485 L169 485 L49 -200 L31 -200 L151 485 L65 485 L68 500 L154 500 L166 571 Q190 710 319 710 Z " />
<glyph glyph-name="g" unicode="g" horiz-adv-x="577" d="M319 510 Q360 510 390 497 Q420 484 440.5 462 Q461 440 471 411 Q481 382 482 351 L509 500 L527 500 L439 0 Q429 -57 405 -97 Q381 -137 347 -162.5 Q313 -188 271 -199.5 Q229 -211 182 -211 Q147 -211 115 -202 Q83 -193 59.5 -175 Q36 -157 23 -129 Q10 -101 13 -63 L32 -63 Q29 -95 40.5 -119.5 Q52 -144 74 -161.5 Q96 -179 124.5 -188 Q153 -197 185 -197 Q227 -197 265.5 -186.5 Q304 -176 335.5 -152.5 Q367 -129 389 -91.5 Q411 -54 421 0 L446 145 Q434 114 412.5 86 Q391 58 362.5 36.5 Q334 15 299.5 2.5 Q265 -10 228 -10 Q177 -10 140.5 9 Q104 28 83 62.5 Q62 97 56.5 145 Q51 193 61 250 Q71 307 93.5 355 Q116 403 149 437.5 Q182 472 225 491 Q268 510 319 510 Z M317 497 Q271 497 232 478.5 Q193 460 162.5 427.5 Q132 395 111 349.5 Q90 304 81 250 Q71 196 76 150.5 Q81 105 99.5 72.5 Q118 40 151 21.5 Q184 3 230 3 Q278 3 317.5 23 Q357 43 386.5 76 Q416 109 435.5 152 Q455 195 463 242 Q475 309 468.5 357 Q462 405 442 436 Q422 467 389.5 482 Q357 497 317 497 Z " />
<glyph glyph-name="h" unicode="h" horiz-adv-x="571" d="M199 700 L140 366 Q154 396 175 422.5 Q196 449 224 468.5 Q252 488 285.5 499 Q319 510 357 510 Q400 510 429 496 Q458 482 473.5 456 Q489 430 492 393 Q495 356 487 310 L433 0 L415 0 L469 310 Q476 352 474 386 Q472 420 458.5 444.5 Q445 469 419.5 482.5 Q394 496 355 496 Q321 496 284.5 484 Q248 472 215.5 445 Q183 418 158.5 374.5 Q134 331 123 269 L76 0 L58 0 L181 700 L199 700 Z " />
<glyph glyph-name="i" unicode="i" horiz-adv-x="214" d="M164 500 L76 0 L58 0 L146 500 L164 500 Z M190 638 L185 612 L163 612 L168 638 L190 638 Z " />
<glyph glyph-name="j" unicode="j" horiz-adv-x="214" d="M190 638 L185 612 L163 612 L168 638 L190 638 Z M164 500 L58 -96 Q47 -157 15.5 -183.5 Q-16 -210 -60 -211 L-57 -195 Q-19 -195 5.5 -174 Q30 -153 40 -96 L146 500 L164 500 Z " />
<glyph glyph-name="k" unicode="k" horiz-adv-x="429" d="M58 0 L181 700 L199 700 L76 0 L58 0 Z M347 0 L135 268 L416 500 L442 500 L159 269 L374 0 L347 0 Z " />
<glyph glyph-name="l" unicode="l" horiz-adv-x="214" d="M58 0 L181 700 L199 700 L76 0 L58 0 Z " />
<glyph glyph-name="m" unicode="m" horiz-adv-x="883" d="M164 500 L140 366 Q154 396 174.5 422.5 Q195 449 220.5 468.5 Q246 488 276.5 499 Q307 510 341 510 Q410 510 441.5 468.5 Q473 427 469 355 Q499 426 554 468 Q609 510 675 510 Q755 510 785.5 456.5 Q816 403 799 310 L745 0 L727 0 L781 310 Q788 352 785.5 386 Q783 420 770 444.5 Q757 469 733 482.5 Q709 496 673 496 Q644 496 611.5 484.5 Q579 473 549 447.5 Q519 422 495 381 Q471 340 459 281 L410 0 L392 0 L446 310 Q453 352 450.5 386 Q448 420 435 444.5 Q422 469 398 482.5 Q374 496 339 496 Q309 496 275.5 484 Q242 472 212 445 Q182 418 158 374.5 Q134 331 123 269 L76 0 L58 0 L146 500 L164 500 Z " />
<glyph glyph-name="n" unicode="n" horiz-adv-x="570" d="M164 500 L140 366 Q154 396 175 422.5 Q196 449 223 468.5 Q250 488 283.5 499 Q317 510 355 510 Q398 510 427 496 Q456 482 472 456 Q488 430 491 393 Q494 356 486 310 L432 0 L414 0 L468 310 Q475 352 473 386 Q471 420 457.5 444.5 Q444 469 418 482.5 Q392 496 353 496 Q319 496 283 484 Q247 472 215 445 Q183 418 158.5 374.5 Q134 331 123 269 L76 0 L58 0 L146 500 L164 500 Z " />
<glyph glyph-name="o" unicode="o" horiz-adv-x="556" d="M327 510 Q378 510 415.5 490.5 Q453 471 475.5 436.5 Q498 402 505.5 354.5 Q513 307 503 250 Q492 192 468 144 Q444 96 409.5 62 Q375 28 331 9 Q287 -10 236 -10 Q185 -10 147.5 9 Q110 28 87.5 62 Q65 96 57.5 144 Q50 192 61 250 Q71 307 94.5 354.5 Q118 402 153 436.5 Q188 471 232 490.5 Q276 510 327 510 Z M325 497 Q279 497 239 479 Q199 461 167 428 Q135 395 112.5 349.5 Q90 304 81 250 Q71 195 77.5 149.5 Q84 104 104 71.5 Q124 39 158 21 Q192 3 238 3 Q284 3 324 21 Q364 39 396.5 71.5 Q429 104 451 149.5 Q473 195 483 250 Q492 304 486 349.5 Q480 395 459.5 428 Q439 461 405 479 Q371 497 325 497 Z " />
<glyph glyph-name="p" unicode="p" horiz-adv-x="577" d="M356 510 Q407 510 443.5 491 Q480 472 501 437.5 Q522 403 528 355 Q534 307 524 250 Q514 193 491.5 145 Q469 97 435.5 62.5 Q402 28 359 9 Q316 -10 265 -10 Q228 -10 198 2.5 Q168 15 146.5 36.5 Q125 58 113 86.5 Q101 115 101 147 L40 -200 L22 -200 L146 500 L164 500 L137 350 Q149 381 169.5 410 Q190 439 217.5 461 Q245 483 280 496.5 Q315 510 356 510 Z M354 497 Q314 497 276.5 482 Q239 467 208 436 Q177 405 153.5 357 Q130 309 118 242 Q110 195 114 152 Q118 109 136 76 Q154 43 186.5 23 Q219 3 267 3 Q313 3 352 21.5 Q391 40 421.5 72.5 Q452 105 473 150.5 Q494 196 504 250 Q513 304 508 349.5 Q503 395 484.5 427.5 Q466 460 433 478.5 Q400 497 354 497 Z " />
<glyph glyph-name="q" unicode="q" horiz-adv-x="577" d="M319 510 Q360 510 390 496.5 Q420 483 440.5 461 Q461 439 471 410 Q481 381 482 350 L509 500 L527 500 L403 -200 L385 -200 L446 147 Q434 115 412.5 86.5 Q391 58 362.5 36.5 Q334 15 299.5 2.5 Q265 -10 228 -10 Q177 -10 140.5 9 Q104 28 83 62.5 Q62 97 56.5 145 Q51 193 61 250 Q71 307 93.5 355 Q116 403 149 437.5 Q182 472 225 491 Q268 510 319 510 Z M317 497 Q271 497 232 478.5 Q193 460 162.5 427.5 Q132 395 111 349.5 Q90 304 81 250 Q71 196 76 150.5 Q81 105 99.5 72.5 Q118 40 151 21.5 Q184 3 230 3 Q278 3 317.5 23 Q357 43 386.5 76 Q416 109 435.5 152 Q455 195 463 242 Q475 309 468.5 357 Q462 405 442 436 Q422 467 389.5 482 Q357 497 317 497 Z " />
<glyph glyph-name="r" unicode="r" horiz-adv-x="321" d="M164 500 L140 363 Q153 393 175 419.5 Q197 446 224.5 466 Q252 486 283 498 Q314 510 346 510 L344 494 L337 494 Q309 494 276 481 Q243 468 212.5 440 Q182 412 157.5 369.5 Q133 327 123 269 L76 0 L58 0 L146 500 L164 500 Z " />
<glyph glyph-name="s" unicode="s" horiz-adv-x="480" d="M295 510 Q331 510 361.5 501.5 Q392 493 413 476.5 Q434 460 444 436.5 Q454 413 450 383 L431 383 Q435 410 426 431 Q417 452 398 466.5 Q379 481 352 489 Q325 497 293 497 Q252 497 220.5 487.5 Q189 478 167 462 Q145 446 132.5 426.5 Q120 407 116 386 Q111 356 120.5 336 Q130 316 149.5 303 Q169 290 195.5 282.5 Q222 275 251 269 Q283 263 314.5 254 Q346 245 369 229 Q392 213 404 187 Q416 161 409 122 Q404 97 388.5 73.5 Q373 50 346.5 31.5 Q320 13 283 1.5 Q246 -10 199 -10 Q163 -10 131 -1 Q99 8 76 24.5 Q53 41 41.5 65 Q30 89 34 119 L53 119 Q50 92 60.5 70.5 Q71 49 91.5 34 Q112 19 140.5 11 Q169 3 201 3 Q246 3 280 13.5 Q314 24 337.5 41.5 Q361 59 374 80 Q387 101 391 122 Q397 156 386.5 179 Q376 202 355 216 Q334 230 305 238 Q276 246 245 252 Q215 258 186 266.5 Q157 275 135 289.5 Q113 304 102.5 327 Q92 350 98 386 Q102 410 117 432.5 Q132 455 157.5 472 Q183 489 217.5 499.5 Q252 510 295 510 Z " />
<glyph glyph-name="germandbls" unicode="&#xdf;" horiz-adv-x="540" d="M365 710 Q414 710 447 696.5 Q480 683 498 660 Q516 637 521.5 607.5 Q527 578 521 547 Q507 470 452 425 Q397 380 302 376 Q399 368 445 322.5 Q491 277 476 189 Q470 153 451 118 Q432 83 400.5 55.5 Q369 28 325 10.5 Q281 -7 223 -7 Q204 -7 187.5 -5 Q171 -3 156 0 L158 16 Q174 13 190.5 11 Q207 9 226 9 Q282 9 322.5 25.5 Q363 42 391 68 Q419 94 434.5 126.5 Q450 159 456 191 Q470 273 422 319 Q374 365 256 365 L259 385 Q376 385 431.5 427.5 Q487 470 500 544 Q505 572 502 599 Q499 626 484 647.5 Q469 669 439.5 682 Q410 695 362 695 Q277 695 230.5 654.5 Q184 614 171 544 L76 0 L58 0 L153 544 Q167 622 219 666 Q271 710 365 710 Z " />
<glyph glyph-name="t" unicode="t" horiz-adv-x="298" d="M186 609 L167 500 L341 500 L338 485 L164 485 L101 129 Q90 67 113 35.5 Q136 4 190 4 Q218 4 254 13 L252 -3 Q217 -10 186 -10 Q59 -10 83 129 L146 485 L60 485 L63 500 L149 500 L168 609 L186 609 Z " />
<glyph glyph-name="u" unicode="u" horiz-adv-x="570" d="M164 500 L109 190 Q101 148 103.5 114 Q106 80 119.5 55.5 Q133 31 159 17.5 Q185 4 224 4 Q258 4 294 16 Q330 28 362 55 Q394 82 418.5 125.5 Q443 169 454 231 L502 500 L520 500 L432 0 L414 0 L437 134 Q423 104 402 77.5 Q381 51 354 31.5 Q327 12 293.5 1 Q260 -10 222 -10 Q135 -10 104.5 44 Q74 98 91 190 L146 500 L164 500 Z " />
<glyph glyph-name="v" unicode="v" horiz-adv-x="444" d="M79 500 L171 66 Q175 51 177 38.5 Q179 26 181 9 Q188 26 195 38 Q202 50 211 66 L462 500 L481 500 L193 0 L166 0 L59 500 L79 500 Z " />
<glyph glyph-name="w" unicode="w" horiz-adv-x="732" d="M91 500 L152 66 Q154 51 155.5 38.5 Q157 26 158 9 Q165 26 171 38 Q177 50 185 66 L403 500 L425 500 L488 66 Q490 51 491.5 38.5 Q493 26 494 9 Q501 26 507 38 Q513 50 521 66 L737 500 L755 500 L506 0 L480 0 L419 420 Q417 435 414.5 453 Q412 471 411 486 Q406 471 397 453 Q388 435 381 420 L170 0 L143 0 L73 500 L91 500 Z " />
<glyph glyph-name="x" unicode="x" horiz-adv-x="459" d="M103 500 L222 298 Q230 285 236 269 Q242 277 249 284.5 Q256 292 261 298 L452 500 L473 500 L245 259 L399 0 L375 0 L247 215 Q243 221 238.5 230 Q234 239 231 248 Q218 230 203 215 L1 0 L-20 0 L222 257 L79 500 L103 500 Z " />
<glyph glyph-name="y" unicode="y" horiz-adv-x="444" d="M79 500 L171 66 Q175 51 177 38.5 Q179 26 181 9 Q188 26 195 38 Q202 50 211 66 L462 500 L481 500 L140 -90 Q103 -153 61 -181 Q19 -209 -25 -210 L-21 -191 Q19 -190 52.5 -169 Q86 -148 119 -91 L168 -8 L59 500 L79 500 Z " />
<glyph glyph-name="z" unicode="z" horiz-adv-x="464" d="M-5 0 L-3 15 L438 485 L93 485 L96 500 L464 500 L461 485 L20 15 L395 15 L393 0 L-5 0 Z " />
<glyph glyph-name="ae" unicode="&#xe6;" horiz-adv-x="944" d="M740 497 Q696 497 656.5 481.5 Q617 466 584.5 437.5 Q552 409 527.5 369.5 Q503 330 490 283 L696 283 Q790 283 836 313.5 Q882 344 882 393 Q882 412 874 431 Q866 450 849 464.5 Q832 479 805 488 Q778 497 740 497 Z M317 497 Q271 497 232 478.5 Q193 460 162.5 427.5 Q132 395 111 349.5 Q90 304 81 250 Q71 196 76 150.5 Q81 105 99.5 72.5 Q118 40 151 21.5 Q184 3 230 3 Q278 3 317.5 23 Q357 43 386.5 76 Q416 109 435.5 152 Q455 195 463 242 Q475 309 468.5 357 Q462 405 442 436 Q422 467 389.5 482 Q357 497 317 497 Z M742 510 Q785 510 815.5 500 Q846 490 865 473.5 Q884 457 893 436.5 Q902 416 902 394 Q902 339 850.5 304 Q799 269 696 269 L487 269 Q485 264 484.5 259.5 Q484 255 483 250 Q473 196 479.5 150.5 Q486 105 506 72.5 Q526 40 560 21.5 Q594 3 640 3 Q707 3 763 36.5 Q819 70 842 137 L861 137 Q847 99 823.5 71.5 Q800 44 770.5 26 Q741 8 707 -1 Q673 -10 638 -10 Q562 -10 517.5 31.5 Q473 73 464 144 L439 0 L421 0 L446 146 Q435 116 413.5 88 Q392 60 363 38.5 Q334 17 299.5 3.5 Q265 -10 228 -10 Q177 -10 140.5 9 Q104 28 83 62.5 Q62 97 56.5 145 Q51 193 61 250 Q71 307 93.5 355 Q116 403 149 437.5 Q182 472 225 491 Q268 510 319 510 Q360 510 390 496.5 Q420 483 440.5 461 Q461 439 471 410 Q481 381 482 350 L508 500 L526 500 L499 347 Q517 384 542.5 414 Q568 444 599.5 465.5 Q631 487 667 498.5 Q703 510 742 510 Z " />
<glyph glyph-name="oe" unicode="&#x153;" horiz-adv-x="963" d="M759 497 Q715 497 675.5 481.5 Q636 466 603.5 437.5 Q571 409 546.5 369.5 Q522 330 509 283 L715 283 Q809 283 855 313.5 Q901 344 901 393 Q901 412 893 431 Q885 450 868 464.5 Q851 479 824 488 Q797 497 759 497 Z M325 497 Q279 497 239 479 Q199 461 167 428 Q135 395 112.5 349.5 Q90 304 81 250 Q71 195 77.5 149.5 Q84 104 104 71.5 Q124 39 158 21 Q192 3 238 3 Q284 3 324 21 Q364 39 396.5 71.5 Q429 104 451 149.5 Q473 195 483 250 Q492 304 486 349.5 Q480 395 459.5 428 Q439 461 405 479 Q371 497 325 497 Z M761 510 Q804 510 834.5 500 Q865 490 884 473.5 Q903 457 912 436.5 Q921 416 921 394 Q921 339 869.5 304 Q818 269 715 269 L506 269 Q504 264 503.5 259.5 Q503 255 502 250 Q492 196 498.5 150.5 Q505 105 525 72.5 Q545 40 579 21.5 Q613 3 659 3 Q726 3 782 36.5 Q838 70 861 137 L880 137 Q866 99 842.5 71.5 Q819 44 789.5 26 Q760 8 726 -1 Q692 -10 657 -10 Q573 -10 527.5 40 Q482 90 479 173 Q447 88 383.5 39 Q320 -10 236 -10 Q185 -10 147.5 9 Q110 28 87.5 62 Q65 96 57.5 144 Q50 192 61 250 Q71 307 94.5 354.5 Q118 402 153 436.5 Q188 471 232 490.5 Q276 510 327 510 Q412 510 457.5 458.5 Q503 407 505 322 Q522 364 548 399 Q574 434 607.5 458.5 Q641 483 680 496.5 Q719 510 761 510 Z " />
<glyph glyph-name="oslash" unicode="&#xf8;" horiz-adv-x="552" d="M325 497 Q279 497 239 479 Q199 461 167 428 Q135 395 112.5 349.5 Q90 304 81 250 Q70 192 77 145 Q84 98 107 66 L446 445 Q425 470 394.5 483.5 Q364 497 325 497 Z M483 250 Q503 366 455 434 L117 53 Q161 3 238 3 Q284 3 324 21 Q364 39 396.5 71.5 Q429 104 451 149.5 Q473 195 483 250 Z M327 510 Q369 510 402 496.5 Q435 483 458 459 L495 500 L514 500 L467 447 Q494 412 504 362 Q514 312 503 250 Q492 192 468 144 Q444 96 409.5 62 Q375 28 331 9 Q287 -10 236 -10 Q153 -10 105 40 L69 0 L48 0 L94 52 Q38 123 61 250 Q71 307 94.5 354.5 Q118 402 153 436.5 Q188 471 232 490.5 Q276 510 327 510 Z " />
<glyph glyph-name="zero" unicode="0" horiz-adv-x="570" d="M370 710 Q427 710 465.5 684 Q504 658 524.5 610.5 Q545 563 548 496.5 Q551 430 537 350 Q523 270 496.5 203.5 Q470 137 432.5 89.5 Q395 42 347.5 16 Q300 -10 243 -10 Q186 -10 147.5 16 Q109 42 88 89.5 Q67 137 64 203.5 Q61 270 75 350 Q89 430 115.5 496.5 Q142 563 179.5 610.5 Q217 658 265 684 Q313 710 370 710 Z M367 696 Q314 696 269.5 669 Q225 642 190.5 595.5 Q156 549 132 485.5 Q108 422 95 350 Q82 278 84 214.5 Q86 151 104 104.5 Q122 58 157 31 Q192 4 245 4 Q298 4 342.5 31 Q387 58 421.5 104.5 Q456 151 480 214.5 Q504 278 517 350 Q530 422 528 485.5 Q526 549 508 595.5 Q490 642 455 669 Q420 696 367 696 Z " />
<glyph glyph-name="one" unicode="1" horiz-adv-x="570" d="M171 0 L173 16 L318 16 L436 682 L216 540 L210 554 L439 700 L459 700 L338 16 L465 16 L463 0 L171 0 Z " />
<glyph glyph-name="two" unicode="2" horiz-adv-x="570" d="M18 0 L21 18 Q123 84 199 137.5 Q275 191 329.5 235 Q384 279 420 315.5 Q456 352 478 385 Q500 418 511.5 448.5 Q523 479 529 511 Q535 545 530 578 Q525 611 506.5 636.5 Q488 662 456 678 Q424 694 376 694 Q329 694 291 682 Q253 670 224 648.5 Q195 627 175.5 597 Q156 567 145 532 L125 532 Q136 571 159 603.5 Q182 636 214.5 660 Q247 684 288.5 697 Q330 710 379 710 Q433 710 469 693.5 Q505 677 525 649 Q545 621 550.5 585.5 Q556 550 549 511 Q540 460 516 412 Q492 364 437 307 Q382 250 287.5 180 Q193 110 44 16 L473 16 L471 0 L18 0 Z " />
<glyph glyph-name="three" unicode="3" horiz-adv-x="570" d="M287 371 Q395 371 455.5 413.5 Q516 456 530 538 Q536 571 531 599.5 Q526 628 507 649 Q488 670 454 682 Q420 694 369 694 Q278 694 224.5 654.5 Q171 615 153 552 L132 552 Q156 622 216 666 Q276 710 372 710 Q425 710 462 697 Q499 684 521 661 Q543 638 550 607 Q557 576 551 540 Q535 453 474.5 409 Q414 365 327 361 Q416 356 462.5 310.5 Q509 265 494 178 Q488 142 467.5 108 Q447 74 415 48 Q383 22 339.5 6 Q296 -10 243 -10 Q195 -10 159 2.5 Q123 15 99 36.5 Q75 58 63.5 88 Q52 118 53 154 L74 154 Q72 122 81.5 95 Q91 68 112.5 48.5 Q134 29 167.5 17.5 Q201 6 246 6 Q297 6 337 21 Q377 36 405.5 60.5 Q434 85 451 116 Q468 147 474 180 Q488 262 439.5 306 Q391 350 283 350 L287 371 Z " />
<glyph glyph-name="four" unicode="4" horiz-adv-x="570" d="M460 679 L84 245 L384 245 L460 679 Z M341 0 L381 229 L62 229 L65 246 L458 700 L484 700 L404 245 L510 245 L507 229 L401 229 L361 0 L341 0 Z " />
<glyph glyph-name="five" unicode="5" horiz-adv-x="570" d="M552 700 L549 684 L206 684 L147 427 Q179 433 219 438 Q259 443 313 443 Q374 443 415 425.5 Q456 408 479 379 Q502 350 508.5 310.5 Q515 271 508 228 Q499 178 475.5 135 Q452 92 416 59.5 Q380 27 333.5 8.5 Q287 -10 232 -10 Q184 -10 149 2.5 Q114 15 91.5 37.5 Q69 60 58.5 90.5 Q48 121 49 157 L70 157 Q68 125 76.5 97.5 Q85 70 105 50 Q125 30 157.5 18 Q190 6 235 6 Q286 6 329 23 Q372 40 404 70 Q436 100 457.5 140.5 Q479 181 487 228 Q494 268 488.5 304.5 Q483 341 462 368.5 Q441 396 404 412.5 Q367 429 310 429 Q261 429 215.5 424 Q170 419 125 409 L192 700 L552 700 Z " />
<glyph glyph-name="six" unicode="6" horiz-adv-x="570" d="M91 322 Q80 253 84.5 195 Q89 137 109 95 Q129 53 164.5 29.5 Q200 6 251 6 Q302 6 343.5 23 Q385 40 415.5 69 Q446 98 465.5 138 Q485 178 493 224 Q500 264 496.5 302 Q493 340 475 370 Q457 400 421.5 418 Q386 436 329 436 Q294 436 260 426.5 Q226 417 195.5 401.5 Q165 386 138.5 365 Q112 344 91 322 Z M394 710 Q431 710 462.5 700.5 Q494 691 516.5 672 Q539 653 552 624.5 Q565 596 564 559 L544 559 Q545 593 533.5 618.5 Q522 644 501 661 Q480 678 452 687 Q424 696 391 696 Q335 696 286.5 669 Q238 642 200 594.5 Q162 547 135 482 Q108 417 95 342 Q116 364 142 384 Q168 404 198 419 Q228 434 261.5 442.5 Q295 451 332 451 Q393 451 432 432 Q471 413 492 381 Q513 349 517 308 Q521 267 514 224 Q505 174 483 131.5 Q461 89 427 57.5 Q393 26 348 8 Q303 -10 248 -10 Q191 -10 151.5 14.5 Q112 39 90 84 Q68 129 64 193.5 Q60 258 74 338 Q89 422 118 490.5 Q147 559 188 608 Q229 657 281 683.5 Q333 710 394 710 Z " />
<glyph glyph-name="seven" unicode="7" horiz-adv-x="570" d="M158 0 L579 684 L134 684 L137 700 L600 700 L597 684 L178 0 L158 0 Z " />
<glyph glyph-name="eight" unicode="8" horiz-adv-x="570" d="M367 696 Q322 696 284.5 684 Q247 672 219 651 Q191 630 173 601 Q155 572 149 538 Q142 498 151.5 468 Q161 438 183.5 417.5 Q206 397 238.5 387 Q271 377 311 377 Q351 377 387.5 387 Q424 397 453 417.5 Q482 438 502 468 Q522 498 529 538 Q535 572 527.5 601 Q520 630 499.5 651 Q479 672 445.5 684 Q412 696 367 696 Z M370 710 Q421 710 457.5 697 Q494 684 516.5 661.5 Q539 639 547 607 Q555 575 548 538 Q537 474 488.5 427 Q440 380 354 368 Q394 365 426 351 Q458 337 478.5 313 Q499 289 507 256 Q515 223 508 182 Q500 139 478 103.5 Q456 68 422 43 Q388 18 342.5 4 Q297 -10 243 -10 Q189 -10 148.5 4 Q108 18 82.5 43 Q57 68 47.5 103.5 Q38 139 46 182 Q53 223 72.5 256 Q92 289 121 313 Q150 337 186.5 351 Q223 365 264 368 Q183 380 151 427 Q119 474 130 538 Q137 575 156 607 Q175 639 206 661.5 Q237 684 278 697 Q319 710 370 710 Z M308 359 Q268 359 228.5 350 Q189 341 156 320 Q123 299 99 265 Q75 231 66 182 Q59 144 67.5 111.5 Q76 79 98.5 55.5 Q121 32 158 19 Q195 6 246 6 Q297 6 338.5 19 Q380 32 411 55.5 Q442 79 461.5 111.5 Q481 144 488 182 Q497 231 484.5 265 Q472 299 446 320 Q420 341 384 350 Q348 359 308 359 Z " />
<glyph glyph-name="nine" unicode="9" horiz-adv-x="570" d="M362 694 Q311 694 269.5 677 Q228 660 197.5 631 Q167 602 147 562 Q127 522 119 476 Q112 436 115.5 398 Q119 360 137 330 Q155 300 190.5 282 Q226 264 283 264 Q318 264 352 273.5 Q386 283 416.5 298.5 Q447 314 474 334.5 Q501 355 521 378 Q532 447 527.5 505 Q523 563 503.5 605 Q484 647 448.5 670.5 Q413 694 362 694 Z M365 710 Q422 710 461.5 685.5 Q501 661 522.5 616 Q544 571 548 506.5 Q552 442 538 362 Q523 278 494.5 209.5 Q466 141 425 92 Q384 43 332 16.5 Q280 -10 219 -10 Q182 -10 150.5 -0.5 Q119 9 96 28 Q73 47 60.5 75 Q48 103 48 141 L68 141 Q67 107 78.5 81.5 Q90 56 111 38.5 Q132 21 160 12.5 Q188 4 221 4 Q277 4 325.5 31 Q374 58 412 105.5 Q450 153 477 218 Q504 283 518 358 Q496 336 470 316 Q444 296 414 281 Q384 266 350.5 257.5 Q317 249 280 249 Q218 249 179.5 268 Q141 287 120 319 Q99 351 94.5 391.5 Q90 432 98 476 Q107 525 129.5 568 Q152 611 186 642.5 Q220 674 265 692 Q310 710 365 710 Z " />
<glyph glyph-name="dollar" unicode="&#x24;" horiz-adv-x="591" d="M135 529 Q127 487 139.5 461 Q152 435 177.5 418.5 Q203 402 238 393 Q273 384 311 377 L367 694 Q313 692 271.5 677 Q230 662 201.5 639 Q173 616 156.5 587 Q140 558 135 529 Z M511 178 Q520 227 507 258 Q494 289 467.5 307.5 Q441 326 404 336 Q367 346 327 354 L265 6 Q319 7 362 22.5 Q405 38 436.5 62.5 Q468 87 486.5 117.5 Q505 148 511 178 Z M225 -110 L242 -10 Q194 -8 156 4 Q118 16 91.5 35.5 Q65 55 50.5 80.5 Q36 106 34 135 L56 135 Q57 110 69.5 87.5 Q82 65 105.5 47.5 Q129 30 164 18.5 Q199 7 245 6 L307 357 Q266 364 227.5 373.5 Q189 383 161 401 Q133 419 119 449.5 Q105 480 114 529 Q119 560 138 592 Q157 624 189 649.5 Q221 675 266.5 691.5 Q312 708 370 710 L386 801 L406 801 L390 710 Q438 708 475 696 Q512 684 537.5 664 Q563 644 577 618.5 Q591 593 593 565 L571 565 Q569 589 557.5 612 Q546 635 523.5 652.5 Q501 670 467 681 Q433 692 387 694 L330 374 Q372 366 412.5 355 Q453 344 483 323 Q513 302 527.5 267.5 Q542 233 532 178 Q526 145 505.5 112 Q485 79 450.5 52 Q416 25 369 8 Q322 -9 262 -10 L245 -110 L225 -110 Z " />
<glyph glyph-name="cent" unicode="&#xa2;" horiz-adv-x="505" d="M99 360 Q90 308 96 264 Q102 220 121 187 Q140 154 171.5 135 Q203 116 245 113 L332 606 Q287 603 248.5 584 Q210 565 180 532.5 Q150 500 129 456 Q108 412 99 360 Z M226 0 L243 100 Q196 103 161 123 Q126 143 104.5 177.5 Q83 212 76.5 258.5 Q70 305 80 360 Q90 415 113 462 Q136 509 169 543 Q202 577 244.5 597 Q287 617 335 619 L349 700 L366 700 L352 620 Q421 618 466 581.5 Q511 545 518 473 L497 473 Q493 533 452.5 569 Q412 605 349 607 L263 113 Q326 115 379 151 Q432 187 457 247 L478 247 Q446 175 387.5 138 Q329 101 260 100 L243 0 L226 0 Z " />
<glyph glyph-name="sterling" unicode="&#xa3;" horiz-adv-x="591" d="M148 336 Q150 294 149.5 252.5 Q149 211 140 170.5 Q131 130 109.5 91 Q88 52 48 15 L465 15 L463 0 L25 0 L27 15 Q67 53 88 92.5 Q109 132 118 172 Q127 212 127.5 253 Q128 294 126 336 L57 336 L59 351 L125 351 Q123 390 123 429.5 Q123 469 131 511 Q137 543 154 578 Q171 613 201 642.5 Q231 672 275 691 Q319 710 379 710 Q430 710 467.5 698 Q505 686 530 666 Q555 646 568 620 Q581 594 583 565 L561 565 Q559 590 548.5 613.5 Q538 637 516 655 Q494 673 459.5 683.5 Q425 694 376 694 Q319 694 279 676.5 Q239 659 212.5 632 Q186 605 171.5 573 Q157 541 152 511 Q144 471 144.5 431 Q145 391 147 351 L398 351 L396 336 L148 336 Z " />
<glyph glyph-name="yen" unicode="&#xa5;" horiz-adv-x="552" d="M225 0 L256 180 L126 180 L130 199 L260 199 L279 312 L99 312 L102 330 L282 330 L284 338 L116 700 L139 700 L297 354 L582 700 L602 700 L304 338 L302 330 L489 330 L486 312 L299 312 L279 199 L415 199 L411 180 L276 180 L245 0 L225 0 Z " />
<glyph glyph-name="florin" unicode="&#x192;" horiz-adv-x="257" d="M314 709 Q344 709 376 702 L373 685 Q340 694 312 694 Q258 694 224 663 Q190 632 179 570 L167 500 L341 500 L338 485 L164 485 L66 -70 Q42 -209 -85 -209 Q-116 -209 -148 -202 L-145 -185 Q-112 -194 -84 -194 Q-30 -194 3.5 -163 Q37 -132 48 -70 L146 485 L60 485 L63 500 L149 500 L161 570 Q185 709 314 709 Z " />
<glyph glyph-name="numbersign" unicode="&#x23;" horiz-adv-x="638" d="M199 228 L439 228 L481 471 L241 471 L199 228 Z M139 0 L176 211 L47 211 L50 228 L179 228 L221 471 L93 471 L96 488 L224 488 L262 700 L282 700 L244 488 L484 488 L522 700 L542 700 L504 488 L634 488 L631 471 L501 471 L459 228 L588 228 L585 211 L456 211 L419 0 L399 0 L436 211 L196 211 L159 0 L139 0 Z " />
<glyph glyph-name="currency" unicode="&#xa4;" horiz-adv-x="664" d="M399 604 Q353 604 316 585 Q279 566 251 534.5 Q223 503 204.5 462 Q186 421 178 377 Q170 332 174 291 Q178 250 195 218.5 Q212 187 242.5 168.5 Q273 150 319 150 Q365 150 402 168.5 Q439 187 467 218.5 Q495 250 513.5 291 Q532 332 540 377 Q548 421 544 462 Q540 503 523 534.5 Q506 566 475.5 585 Q445 604 399 604 Z M401 617 Q452 617 486.5 596.5 Q521 576 540 541 L702 679 L711 668 L547 528 Q561 496 564.5 457.5 Q568 419 560 377 Q552 334 536 295.5 Q520 257 494 225 L609 86 L596 75 L483 212 Q451 177 410 157 Q369 137 317 137 Q264 137 229.5 157.5 Q195 178 176 213 L14 75 L5 86 L169 226 Q155 258 152.5 296.5 Q150 335 158 377 Q166 419 181.5 457 Q197 495 222 527 L107 668 L120 679 L234 540 Q266 575 307.5 596 Q349 617 401 617 Z " />
<glyph glyph-name="percent" unicode="&#x25;" horiz-adv-x="744" d="M722 700 L89 0 L65 0 L698 700 L722 700 Z M559 358 Q597 358 624 344 Q651 330 667 305.5 Q683 281 687 247 Q691 213 684 174 Q677 135 661 101.5 Q645 68 620.5 43.5 Q596 19 564 4.5 Q532 -10 494 -10 Q456 -10 429 4 Q402 18 386 42.5 Q370 67 365.5 101 Q361 135 368 174 Q375 213 391.5 246.5 Q408 280 432.5 304.5 Q457 329 489 343.5 Q521 358 559 358 Z M556 345 Q521 345 492.5 331.5 Q464 318 442.5 295 Q421 272 406.5 241 Q392 210 386 174 Q380 137 384 106 Q388 75 402.5 52 Q417 29 440.5 16 Q464 3 496 3 Q531 3 559.5 16.5 Q588 30 609.5 53 Q631 76 645.5 107 Q660 138 666 174 Q672 211 668 242 Q664 273 649.5 296 Q635 319 611.5 332 Q588 345 556 345 Z M293 710 Q331 710 358 696 Q385 682 401 657.5 Q417 633 421 599 Q425 565 418 526 Q411 487 395 453.5 Q379 420 354.5 395.5 Q330 371 298 356.5 Q266 342 228 342 Q190 342 163 356 Q136 370 120 394.5 Q104 419 99.5 453 Q95 487 102 526 Q109 565 125.5 598.5 Q142 632 166.5 656.5 Q191 681 223 695.5 Q255 710 293 710 Z M290 697 Q255 697 226.5 683.5 Q198 670 176.5 647 Q155 624 140.5 593 Q126 562 120 526 Q114 489 118 458 Q122 427 136.5 404 Q151 381 174.5 368 Q198 355 230 355 Q265 355 293.5 368.5 Q322 382 343.5 405 Q365 428 379.5 459 Q394 490 400 526 Q407 563 402.5 594 Q398 625 384 648 Q370 671 346 684 Q322 697 290 697 Z " />
<glyph glyph-name="perthousand" unicode="&#x2030;" horiz-adv-x="1114" d="M929 358 Q967 358 994 344 Q1021 330 1037 305.5 Q1053 281 1057 247 Q1061 213 1054 174 Q1047 135 1031 101.5 Q1015 68 990.5 43.5 Q966 19 934 4.5 Q902 -10 864 -10 Q826 -10 799 4 Q772 18 756 42.5 Q740 67 735.5 101 Q731 135 738 174 Q745 213 761.5 246.5 Q778 280 802.5 304.5 Q827 329 859 343.5 Q891 358 929 358 Z M926 345 Q891 345 862.5 331.5 Q834 318 812.5 295 Q791 272 776.5 241 Q762 210 756 174 Q750 137 754 106 Q758 75 772.5 52 Q787 29 810.5 16 Q834 3 866 3 Q901 3 929.5 16.5 Q958 30 979.5 53 Q1001 76 1015.5 107 Q1030 138 1036 174 Q1042 211 1038 242 Q1034 273 1019.5 296 Q1005 319 981.5 332 Q958 345 926 345 Z M722 700 L89 0 L65 0 L698 700 L722 700 Z M559 358 Q597 358 624 344 Q651 330 667 305.5 Q683 281 687 247 Q691 213 684 174 Q677 135 661 101.5 Q645 68 620.5 43.5 Q596 19 564 4.5 Q532 -10 494 -10 Q456 -10 429 4 Q402 18 386 42.5 Q370 67 365.5 101 Q361 135 368 174 Q375 213 391.5 246.5 Q408 280 432.5 304.5 Q457 329 489 343.5 Q521 358 559 358 Z M556 345 Q521 345 492.5 331.5 Q464 318 442.5 295 Q421 272 406.5 241 Q392 210 386 174 Q380 137 384 106 Q388 75 402.5 52 Q417 29 440.5 16 Q464 3 496 3 Q531 3 559.5 16.5 Q588 30 609.5 53 Q631 76 645.5 107 Q660 138 666 174 Q672 211 668 242 Q664 273 649.5 296 Q635 319 611.5 332 Q588 345 556 345 Z M293 710 Q331 710 358 696 Q385 682 401 657.5 Q417 633 421 599 Q425 565 418 526 Q411 487 395 453.5 Q379 420 354.5 395.5 Q330 371 298 356.5 Q266 342 228 342 Q190 342 163 356 Q136 370 120 394.5 Q104 419 99.5 453 Q95 487 102 526 Q109 565 125.5 598.5 Q142 632 166.5 656.5 Q191 681 223 695.5 Q255 710 293 710 Z M290 697 Q255 697 226.5 683.5 Q198 670 176.5 647 Q155 624 140.5 593 Q126 562 120 526 Q114 489 118 458 Q122 427 136.5 404 Q151 381 174.5 368 Q198 355 230 355 Q265 355 293.5 368.5 Q322 382 343.5 405 Q365 428 379.5 459 Q394 490 400 526 Q407 563 402.5 594 Q398 625 384 648 Q370 671 346 684 Q322 697 290 697 Z " />
<glyph glyph-name="&amp;#x2044;" unicode="&#x2044;" horiz-adv-x="534" d="M-40 0 L596 700 L617 700 L-19 0 L-40 0 Z " />
<glyph glyph-name="&amp;#x2215;" unicode="&#x2215;" horiz-adv-x="534" d="M-40 0 L596 700 L617 700 L-19 0 L-40 0 Z " />
<glyph glyph-name="asciicircum" unicode="&#x5e;" horiz-adv-x="570" d="M542 499 L530 488 L366 687 L132 488 L122 499 L370 709 L542 499 Z " />
<glyph glyph-name="asciitilde" unicode="&#x7e;" horiz-adv-x="570" d="M233 626 Q272 626 300.5 609 Q329 592 354 571 Q379 550 403 533 Q427 516 457 516 Q493 516 517 534.5 Q541 553 558 603 L571 599 Q561 569 548.5 549.5 Q536 530 521 519 Q506 508 489.5 504 Q473 500 455 500 Q417 500 390.5 517 Q364 534 339.5 555 Q315 576 289.5 593 Q264 610 230 610 Q194 610 170 590.5 Q146 571 130 522 L116 526 Q126 556 139 575.5 Q152 595 167 606.5 Q182 618 198.5 622 Q215 626 233 626 Z " />
<glyph glyph-name="&amp;#xb7;" unicode="&#xb7;" horiz-adv-x="570" d="M309 273 L303 240 L271 240 L277 273 L309 273 Z " />
<glyph glyph-name="&amp;#x2219;" unicode="&#x2219;" horiz-adv-x="570" d="M309 273 L303 240 L271 240 L277 273 L309 273 Z " />
<glyph glyph-name="plus" unicode="&#x2b;" horiz-adv-x="570" d="M302 285 L544 285 L541 269 L299 269 L257 28 L241 28 L283 269 L43 269 L46 285 L286 285 L329 526 L345 526 L302 285 Z " />
<glyph glyph-name="plusminus" unicode="&#xb1;" horiz-adv-x="570" d="M-32 69 L-29 85 L469 85 L466 69 L-32 69 Z M286 425 L528 425 L525 409 L283 409 L241 168 L225 168 L267 409 L27 409 L30 425 L270 425 L313 666 L329 666 L286 425 Z " />
<glyph glyph-name="less" unicode="&#x3c;" horiz-adv-x="570" d="M89 277 L473 42 L463 29 L71 270 L74 285 L550 526 L556 513 L89 277 Z " />
<glyph glyph-name="equal" unicode="&#x3d;" horiz-adv-x="570" d="M61 369 L63 385 L561 385 L559 369 L61 369 Z M25 169 L28 185 L526 185 L523 169 L25 169 Z " />
<glyph glyph-name="greater" unicode="&#x3e;" horiz-adv-x="570" d="M498 278 L114 513 L124 526 L516 285 L513 270 L37 29 L31 42 L498 278 Z " />
<glyph glyph-name="approxequal" unicode="&#x2248;" horiz-adv-x="570" d="M163 230 Q202 230 231 213 Q260 196 284.5 175 Q309 154 333.5 137 Q358 120 388 120 Q424 120 447.5 138.5 Q471 157 488 207 L501 203 Q491 173 478.5 153.5 Q466 134 451 123 Q436 112 419.5 108 Q403 104 385 104 Q347 104 320.5 121 Q294 138 269.5 159 Q245 180 219.5 197 Q194 214 160 214 Q124 214 100 194.5 Q76 175 60 126 L46 130 Q56 160 69 179.5 Q82 199 97 210.5 Q112 222 128.5 226 Q145 230 163 230 Z M198 430 Q237 430 266 413 Q295 396 319.5 375 Q344 354 368.5 337 Q393 320 423 320 Q459 320 483 338.5 Q507 357 523 407 L537 403 Q527 373 514 353.5 Q501 334 486 323 Q471 312 454.5 308 Q438 304 420 304 Q382 304 355.5 321 Q329 338 304.5 359 Q280 380 254.5 397 Q229 414 195 414 Q159 414 135 394.5 Q111 375 95 326 L82 330 Q92 360 104.5 379.5 Q117 399 132 410.5 Q147 422 163.5 426 Q180 430 198 430 Z " />
<glyph glyph-name="notequal" unicode="&#x2260;" horiz-adv-x="570" d="M226 169 L113 27 L91 27 L205 169 L-15 169 L-12 185 L218 185 L365 369 L21 369 L23 385 L378 385 L478 510 L498 510 L398 385 L521 385 L519 369 L385 369 L239 185 L486 185 L483 169 L226 169 Z " />
<glyph glyph-name="lessequal" unicode="&#x2264;" horiz-adv-x="570" d="M2 39 L5 55 L503 55 L500 39 L2 39 Z M103 377 L487 142 L476 129 L85 370 L87 385 L564 626 L570 613 L103 377 Z " />
<glyph glyph-name="greaterequal" unicode="&#x2265;" horiz-adv-x="570" d="M2 39 L5 55 L503 55 L500 39 L2 39 Z M511 378 L128 613 L138 626 L529 385 L527 370 L50 129 L45 142 L511 378 Z " />
<glyph glyph-name="divide" unicode="&#xf7;" horiz-adv-x="570" d="M305 470 L299 433 L263 433 L269 470 L305 470 Z M244 127 L238 90 L202 90 L208 127 L244 127 Z M3 269 L6 285 L504 285 L501 269 L3 269 Z " />
<glyph glyph-name="partialdiff" unicode="&#x2202;" horiz-adv-x="570" d="M318 467 Q261 467 218.5 447 Q176 427 146.5 394.5 Q117 362 99.5 320 Q82 278 75 234 Q67 188 71.5 146.5 Q76 105 95.5 74 Q115 43 150.5 24.5 Q186 6 241 6 Q292 6 335.5 30.5 Q379 55 413 99 Q447 143 472 204 Q497 265 511 338 Q499 360 480 383 Q461 406 437 425 Q413 444 383 455.5 Q353 467 318 467 Z M306 710 Q374 710 424 686 Q474 662 503 616 Q532 570 540.5 504 Q549 438 534 354 Q519 269 492.5 201.5 Q466 134 428.5 87 Q391 40 343 15 Q295 -10 238 -10 Q179 -10 140 9.5 Q101 29 79.5 62.5 Q58 96 52 140 Q46 184 54 234 Q61 281 81 326 Q101 371 133.5 405.5 Q166 440 212.5 461 Q259 482 321 482 Q358 482 388.5 471 Q419 460 443 442.5 Q467 425 485 403 Q503 381 515 358 Q528 433 520 495.5 Q512 558 484.5 603 Q457 648 410.5 672.5 Q364 697 299 697 L306 710 Z " />
<glyph glyph-name="product" unicode="&#x220f;" horiz-adv-x="643" d="M494 0 L614 684 L190 684 L70 0 L50 0 L173 700 L636 700 L513 0 L494 0 Z " />
<glyph glyph-name="summation" unicode="&#x2211;" horiz-adv-x="596" d="M633 700 L630 684 L145 684 L334 371 L18 16 L528 16 L526 0 L-6 0 L-4 17 L312 371 L125 682 L128 700 L633 700 Z " />
<glyph glyph-name="radical" unicode="&#x221a;" horiz-adv-x="608" d="M269 0 L165 482 L44 482 L48 500 L182 500 L285 16 L672 700 L691 700 L296 0 L269 0 Z " />
<glyph glyph-name="infinity" unicode="&#x221e;" horiz-adv-x="783" d="M262 539 Q228 539 199 526 Q170 513 147.5 489 Q125 465 109.5 432 Q94 399 87 359 Q80 319 83.5 286 Q87 253 101 229 Q115 205 139.5 192 Q164 179 198 179 Q238 179 269 194 Q300 209 324.5 233.5 Q349 258 368.5 290 Q388 322 405 356 Q400 392 392.5 425 Q385 458 369.5 483.5 Q354 509 328.5 524 Q303 539 262 539 Z M265 556 Q308 556 335.5 542 Q363 528 380.5 504.5 Q398 481 406.5 449.5 Q415 418 420 384 Q437 417 457 448 Q477 479 502.5 503 Q528 527 560 541.5 Q592 556 634 556 Q709 556 740.5 503 Q772 450 756 359 Q740 269 689.5 215.5 Q639 162 564 162 Q521 162 493 176 Q465 190 448 213 Q431 236 422 267 Q413 298 408 333 Q391 300 371.5 269 Q352 238 326.5 214 Q301 190 269 176 Q237 162 195 162 Q120 162 88.5 215 Q57 268 73 359 Q89 449 139.5 502.5 Q190 556 265 556 Z M631 539 Q591 539 560 524 Q529 509 504 484 Q479 459 459.5 427 Q440 395 423 361 Q428 325 435.5 292.5 Q443 260 459 234.5 Q475 209 500.5 194 Q526 179 567 179 Q601 179 630 192 Q659 205 681.5 229 Q704 253 719.5 286 Q735 319 742 359 Q749 399 745 432 Q741 465 727 489 Q713 513 689 526 Q665 539 631 539 Z " />
<glyph glyph-name="integral" unicode="&#x222b;" horiz-adv-x="570" d="M331 542 Q346 627 391.5 667.5 Q437 708 517 700 L514 683 Q442 691 402.5 655 Q363 619 349 542 L245 -50 Q230 -135 184.5 -175.5 Q139 -216 59 -208 L62 -191 Q134 -199 173.5 -163 Q213 -127 227 -50 L331 542 Z " />
<glyph glyph-name="lozenge" unicode="&#x25ca;" horiz-adv-x="444" d="M145 -195 L399 244 L304 684 L51 245 L145 -195 Z M155 -211 L128 -211 L31 244 L294 700 L321 700 L418 245 L155 -211 Z " />
<glyph glyph-name="logicalnot" unicode="&#xac;" horiz-adv-x="570" d="M474 0 L521 269 L43 269 L46 285 L544 285 L494 0 L474 0 Z " />
<glyph glyph-name="bar" unicode="&#x7c;" horiz-adv-x="260" d="M42 -211 L203 700 L223 700 L62 -211 L42 -211 Z " />
<glyph glyph-name="degree" unicode="&#xb0;" horiz-adv-x="416" d="M293 710 Q331 710 358 696 Q385 682 401 657.5 Q417 633 421 599 Q425 565 418 526 Q411 487 395 453.5 Q379 420 354.5 395.5 Q330 371 298 356.5 Q266 342 228 342 Q190 342 163 356 Q136 370 120 394.5 Q104 419 99.5 453 Q95 487 102 526 Q109 565 125.5 598.5 Q142 632 166.5 656.5 Q191 681 223 695.5 Q255 710 293 710 Z M290 697 Q255 697 226.5 683.5 Q198 670 176.5 647 Q155 624 140.5 593 Q126 562 120 526 Q114 489 118 458 Q122 427 136.5 404 Q151 381 174.5 368 Q198 355 230 355 Q265 355 293.5 368.5 Q322 382 343.5 405 Q365 428 379.5 459 Q394 490 400 526 Q407 563 402.5 594 Q398 625 384 648 Q370 671 346 684 Q322 697 290 697 Z " />
<glyph glyph-name="ordfeminine" unicode="&#xaa;" horiz-adv-x="577" d="M319 746 Q360 746 390 732.5 Q420 719 440.5 697 Q461 675 471 646 Q481 617 482 586 L508 736 L526 736 L439 236 L421 236 L446 382 Q435 352 413.5 324 Q392 296 363 274.5 Q334 253 299.5 239.5 Q265 226 228 226 Q177 226 140.5 245 Q104 264 83 298.5 Q62 333 56.5 381 Q51 429 61 486 Q71 543 93.5 591 Q116 639 149 673.5 Q182 708 225 727 Q268 746 319 746 Z M317 733 Q271 733 232 714.5 Q193 696 162.5 663.5 Q132 631 111 585.5 Q90 540 81 486 Q71 432 76 386.5 Q81 341 99.5 308.5 Q118 276 151 257.5 Q184 239 230 239 Q278 239 317.5 259 Q357 279 386.5 312 Q416 345 435.5 388 Q455 431 463 478 Q475 545 468.5 593 Q462 641 442 672 Q422 703 389.5 718 Q357 733 317 733 Z " />
<glyph glyph-name="ordmasculine" unicode="&#xba;" horiz-adv-x="556" d="M327 746 Q378 746 415.5 726.5 Q453 707 475.5 672.5 Q498 638 505.5 590.5 Q513 543 503 486 Q492 428 468 380 Q444 332 409.5 298 Q375 264 331 245 Q287 226 236 226 Q185 226 147.5 245 Q110 264 87.5 298 Q65 332 57.5 380 Q50 428 61 486 Q71 543 94.5 590.5 Q118 638 153 672.5 Q188 707 232 726.5 Q276 746 327 746 Z M325 733 Q279 733 239 715 Q199 697 167 664 Q135 631 112.5 585.5 Q90 540 81 486 Q71 431 77.5 385.5 Q84 340 104 307.5 Q124 275 158 257 Q192 239 238 239 Q284 239 324 257 Q364 275 396.5 307.5 Q429 340 451 385.5 Q473 431 483 486 Q492 540 486 585.5 Q480 631 459.5 664 Q439 697 405 715 Q371 733 325 733 Z " />
<glyph glyph-name="underscore" unicode="&#x5f;" horiz-adv-x="570" d="M-53 -113 L-50 -95 L507 -95 L504 -113 L-53 -113 Z " />
<glyph glyph-name="emdash" unicode="&#x2014;" horiz-adv-x="1029" d="M57 267 L60 285 L989 285 L986 267 L57 267 Z " />
<glyph glyph-name="endash" unicode="&#x2013;" horiz-adv-x="658" d="M57 267 L60 285 L618 285 L615 267 L57 267 Z " />
<glyph glyph-name="&amp;#x2d;" unicode="&#x2d;" horiz-adv-x="314" d="M57 267 L60 285 L274 285 L271 267 L57 267 Z " />
<glyph glyph-name="&amp;#xad;" unicode="&#xad;" horiz-adv-x="314" d="M57 267 L60 285 L274 285 L271 267 L57 267 Z " />
<glyph glyph-name="guillemotleft" unicode="&#xab;" horiz-adv-x="462" d="M455 473 L223 277 L386 82 L376 71 L207 270 L210 285 L449 484 L455 473 Z M305 473 L73 277 L236 82 L226 71 L57 270 L60 285 L299 484 L305 473 Z " />
<glyph glyph-name="guilsinglleft" unicode="&#x2039;" horiz-adv-x="312" d="M305 473 L73 277 L236 82 L226 71 L57 270 L60 285 L299 484 L305 473 Z " />
<glyph glyph-name="guilsinglright" unicode="&#x203a;" horiz-adv-x="312" d="M272 285 L269 270 L30 71 L24 82 L256 278 L93 473 L103 484 L272 285 Z " />
<glyph glyph-name="guillemotright" unicode="&#xbb;" horiz-adv-x="462" d="M272 285 L269 270 L30 71 L24 82 L256 278 L93 473 L103 484 L272 285 Z M422 285 L419 270 L180 71 L174 82 L406 278 L243 473 L253 484 L422 285 Z " />
<glyph glyph-name="quotesingle" unicode="&#x27;" horiz-adv-x="150" d="M123 535 L143 700 L173 700 L136 535 L123 535 Z " />
<glyph glyph-name="quotedbl" unicode="&#x22;" horiz-adv-x="246" d="M219 535 L239 700 L269 700 L232 535 L219 535 Z M123 535 L143 700 L173 700 L136 535 L123 535 Z " />
<glyph glyph-name="quotedblleft" unicode="&#x201c;" horiz-adv-x="279" d="M231 546 L203 546 L291 711 L303 711 L231 546 Z M141 546 L113 546 L201 711 L213 711 L141 546 Z " />
<glyph glyph-name="quotesinglbase" unicode="&#x201a;" horiz-adv-x="189" d="M68 48 L96 48 L8 -117 L-4 -117 L68 48 Z " />
<glyph glyph-name="quotedblbase" unicode="&#x201e;" horiz-adv-x="279" d="M158 48 L186 48 L98 -117 L86 -117 L158 48 Z M68 48 L96 48 L8 -117 L-4 -117 L68 48 Z " />
<glyph glyph-name="quotedblright" unicode="&#x201d;" horiz-adv-x="279" d="M273 700 L301 700 L213 535 L201 535 L273 700 Z M183 700 L211 700 L123 535 L111 535 L183 700 Z " />
<glyph glyph-name="quoteright" unicode="&#x2019;" horiz-adv-x="179" d="M183 700 L211 700 L123 535 L111 535 L183 700 Z " />
<glyph glyph-name="quoteleft" unicode="&#x2018;" horiz-adv-x="189" d="M145 546 L117 546 L205 711 L217 711 L145 546 Z " />
<glyph glyph-name="comma" unicode="&#x2c;" horiz-adv-x="189" d="M68 48 L96 48 L6 -127 L-6 -127 L68 48 Z " />
<glyph glyph-name="period" unicode="&#x2e;" horiz-adv-x="192" d="M80 37 L74 0 L38 0 L44 37 L80 37 Z " />
<glyph glyph-name="colon" unicode="&#x3a;" horiz-adv-x="192" d="M80 37 L74 0 L38 0 L44 37 L80 37 Z M162 500 L155 463 L119 463 L126 500 L162 500 Z " />
<glyph glyph-name="semicolon" unicode="&#x3b;" horiz-adv-x="192" d="M28 48 L56 48 L-34 -127 L-46 -127 L28 48 Z M162 500 L155 463 L119 463 L126 500 L162 500 Z " />
<glyph glyph-name="ellipsis" unicode="&#x2026;" horiz-adv-x="852" d="M640 37 L634 0 L598 0 L604 37 L640 37 Z M370 37 L364 0 L328 0 L334 37 L370 37 Z M100 37 L94 0 L58 0 L64 37 L100 37 Z " />
<glyph glyph-name="question" unicode="&#x3f;" horiz-adv-x="507" d="M199 33 L194 0 L162 0 L167 33 L199 33 Z M345 710 Q396 710 430.5 696 Q465 682 485 658.5 Q505 635 511.5 605 Q518 575 512 544 Q503 494 480 458 Q457 422 426 393 Q395 364 360.5 338.5 Q326 313 295.5 283.5 Q265 254 241 216.5 Q217 179 208 127 L191 127 Q201 182 224.5 221.5 Q248 261 279 292 Q310 323 344 348.5 Q378 374 408.5 402 Q439 430 462 463.5 Q485 497 493 544 Q497 568 492.5 594.5 Q488 621 471 643 Q454 665 422.5 679.5 Q391 694 342 694 Q296 694 261.5 683.5 Q227 673 201.5 655 Q176 637 159 613.5 Q142 590 131 565 L109 565 Q122 594 142.5 620 Q163 646 192 666 Q221 686 259 698 Q297 710 345 710 Z " />
<glyph glyph-name="questiondown" unicode="&#xbf;" horiz-adv-x="507" d="M353 500 L347 467 L315 467 L321 500 L353 500 Z M323 373 Q313 317 289.5 278 Q266 239 235 208 Q204 177 170 151.5 Q136 126 105.5 98 Q75 70 52 36.5 Q29 3 21 -44 Q16 -68 21 -94.5 Q26 -121 43 -143 Q60 -165 91.5 -179.5 Q123 -194 172 -194 Q218 -194 252.5 -183.5 Q287 -173 312.5 -155 Q338 -137 355 -113.5 Q372 -90 383 -65 L405 -65 Q392 -94 371.5 -120 Q351 -146 322 -166 Q293 -186 255 -198 Q217 -210 169 -210 Q118 -210 83.5 -196 Q49 -182 29 -158.5 Q9 -135 2.5 -105.5 Q-4 -76 2 -44 Q11 6 34 42 Q57 78 88 107 Q119 136 153.5 161.5 Q188 187 218.5 216.5 Q249 246 273 283.5 Q297 321 306 373 L323 373 Z " />
<glyph glyph-name="exclam" unicode="&#x21;" horiz-adv-x="214" d="M207 700 L101 150 L85 150 L173 700 L207 700 Z M88 33 L83 0 L51 0 L56 33 L88 33 Z " />
<glyph glyph-name="exclamdown" unicode="&#xa1;" horiz-adv-x="214" d="M136 350 L48 -200 L14 -200 L120 350 L136 350 Z M171 500 L165 467 L133 467 L139 500 L171 500 Z " />
<glyph glyph-name="parenleft" unicode="&#x28;" horiz-adv-x="310" d="M392 697 Q338 688 292 649.5 Q246 611 208.5 551 Q171 491 143.5 413.5 Q116 336 101 249 Q86 162 86 84.5 Q86 7 102 -53 Q118 -113 151 -151.5 Q184 -190 234 -199 L232 -212 Q181 -203 145 -166 Q109 -129 89.5 -69 Q70 -9 68 71.5 Q66 152 83 249 Q100 346 130.5 426.5 Q161 507 201.5 567 Q242 627 291.5 664 Q341 701 395 710 L392 697 Z " />
<glyph glyph-name="parenright" unicode="&#x29;" horiz-adv-x="310" d="M85 710 Q136 701 171.5 664 Q207 627 226.5 567 Q246 507 248 426.5 Q250 346 233 249 Q216 152 186 71.5 Q156 -9 115.5 -69 Q75 -129 26 -166 Q-23 -203 -77 -212 L-75 -199 Q-21 -190 25 -151.5 Q71 -113 108 -53 Q145 7 172.5 84.5 Q200 162 215 249 Q230 336 230.5 413.5 Q231 491 214.5 551 Q198 611 165.5 649.5 Q133 688 82 697 L85 710 Z " />
<glyph glyph-name="bracketleft" unicode="&#x5b;" horiz-adv-x="306" d="M22 -211 L183 700 L339 700 L337 687 L199 687 L43 -198 L181 -198 L178 -211 L22 -211 Z " />
<glyph glyph-name="bracketright" unicode="&#x5d;" horiz-adv-x="306" d="M289 700 L128 -211 L-28 -211 L-25 -198 L113 -198 L269 687 L131 687 L133 700 L289 700 Z " />
<glyph glyph-name="braceleft" unicode="&#x7b;" horiz-adv-x="320" d="M372 696 Q332 696 304.5 686 Q277 676 259 657 Q241 638 231 612 Q221 586 215 555 Q208 516 208.5 475.5 Q209 435 201 392 Q189 326 160.5 292 Q132 258 85 249 Q128 240 145 206 Q162 172 150 106 Q142 63 128.5 22.5 Q115 -18 107 -57 Q102 -89 103 -114.5 Q104 -140 116 -159 Q128 -178 151.5 -188 Q175 -198 215 -198 L212 -211 Q167 -211 140 -199 Q113 -187 99.5 -166.5 Q86 -146 84.5 -118 Q83 -90 89 -57 Q97 -16 109.5 24 Q122 64 130 106 Q142 175 124 207.5 Q106 240 61 240 L52 240 L55 258 L64 258 Q109 258 138.5 290.5 Q168 323 181 392 Q188 434 189 474 Q190 514 197 555 Q203 588 214.5 616 Q226 644 246.5 664.5 Q267 685 298.5 697 Q330 709 375 709 L372 696 Z " />
<glyph glyph-name="braceright" unicode="&#x7d;" horiz-adv-x="320" d="M115 709 Q160 709 187 697 Q214 685 227 664.5 Q240 644 241.5 616 Q243 588 237 555 Q230 514 217 474 Q204 434 197 392 Q184 323 202.5 290.5 Q221 258 266 258 L275 258 L272 240 L263 240 Q218 240 188 207.5 Q158 175 146 106 Q138 64 137.5 24 Q137 -16 129 -57 Q123 -90 112 -118 Q101 -146 80.5 -166.5 Q60 -187 29 -199 Q-2 -211 -47 -211 L-44 -198 Q-5 -198 22.5 -188 Q50 -178 68 -159 Q86 -140 96 -114.5 Q106 -89 111 -57 Q119 -18 118.5 22.5 Q118 63 126 106 Q138 172 166.5 206 Q195 240 241 249 Q199 258 182 292 Q165 326 177 392 Q185 435 198.5 475.5 Q212 516 219 555 Q225 586 223.5 612 Q222 638 210.5 657 Q199 676 175.5 686 Q152 696 112 696 L115 709 Z " />
<glyph glyph-name="slash" unicode="&#x2f;" horiz-adv-x="417" d="M480 700 L1 0 L-20 0 L461 700 L480 700 Z " />
<glyph glyph-name="backslash" unicode="&#x5c;" horiz-adv-x="323" d="M122 700 L357 0 L336 0 L103 700 L122 700 Z " />
<glyph glyph-name="asterisk" unicode="&#x2a;" horiz-adv-x="387" d="M288 700 L256 563 L397 610 L400 586 L258 555 L327 441 L305 428 L249 550 L152 428 L136 441 L243 555 L113 586 L125 610 L248 563 L265 700 L288 700 Z " />
<glyph glyph-name="bullet" unicode="&#x2022;" horiz-adv-x="388" d="M176 127 Q146 127 121.5 138 Q97 149 81 168.5 Q65 188 58.5 214.5 Q52 241 57 271 Q63 301 79 327.5 Q95 354 118 373.5 Q141 393 169 404.5 Q197 416 227 416 Q257 416 281.5 404.5 Q306 393 322 373.5 Q338 354 344.5 327.5 Q351 301 345 271 Q340 241 324 214.5 Q308 188 285 168.5 Q262 149 234 138 Q206 127 176 127 Z " />
<glyph glyph-name="section" unicode="&#xa7;" horiz-adv-x="586" d="M528 227 Q536 273 520 301.5 Q504 330 473 348.5 Q442 367 401 377.5 Q360 388 318.5 398.5 Q277 409 240 422 Q203 435 180 458 Q151 437 127 403.5 Q103 370 95 328 Q87 282 103 253 Q119 224 150 206 Q181 188 221.5 177 Q262 166 303.5 155.5 Q345 145 382 132 Q419 119 442 96 Q471 117 495.5 151 Q520 185 528 227 Z M379 710 Q430 710 469 698 Q508 686 535 666 Q562 646 576.5 620 Q591 594 593 565 L571 565 Q569 590 557 613.5 Q545 637 521 655 Q497 673 461 683.5 Q425 694 376 694 Q327 694 290.5 681 Q254 668 229.5 648 Q205 628 191 603 Q177 578 173 554 Q166 515 180.5 490.5 Q195 466 222 450 Q249 434 286 424 Q323 414 361.5 404.5 Q400 395 436.5 383.5 Q473 372 500 352.5 Q527 333 540 303 Q553 273 545 227 Q535 177 509.5 142.5 Q484 108 452 85 Q464 69 469 48.5 Q474 28 469 1 Q463 -31 446.5 -59 Q430 -87 401.5 -108.5 Q373 -130 334 -142.5 Q295 -155 244 -155 Q193 -155 154 -143 Q115 -131 88 -111 Q61 -91 46.5 -65 Q32 -39 30 -10 L52 -10 Q54 -35 66 -58.5 Q78 -82 102 -100 Q126 -118 161.5 -128.5 Q197 -139 247 -139 Q296 -139 332 -126 Q368 -113 393 -93 Q418 -73 431.5 -48 Q445 -23 450 1 Q457 40 442.5 64.5 Q428 89 401 105 Q374 121 337 130.5 Q300 140 261.5 149.5 Q223 159 186.5 171 Q150 183 123 202.5 Q96 222 83 252 Q70 282 78 328 Q87 378 112.5 412.5 Q138 447 170 470 Q158 486 153.5 506 Q149 526 154 554 Q160 585 176.5 613.5 Q193 642 221.5 663.5 Q250 685 289 697.5 Q328 710 379 710 Z " />
<glyph glyph-name="dagger" unicode="&#x2020;" horiz-adv-x="478" d="M334 700 L295 518 L478 525 L473 499 L293 506 L268 324 L242 324 L281 506 L97 499 L102 525 L283 518 L308 700 L334 700 Z " />
<glyph glyph-name="daggerdbl" unicode="&#x2021;" horiz-adv-x="478" d="M334 700 L295 518 L478 525 L473 499 L293 506 L238 194 L421 201 L416 175 L236 182 L211 0 L185 0 L224 182 L40 175 L45 201 L226 194 L281 506 L97 499 L102 525 L283 518 L308 700 L334 700 Z " />
<glyph glyph-name="paragraph" unicode="&#xb6;" horiz-adv-x="585" d="M535 500 L429 -97 Q418 -158 380.5 -184.5 Q343 -211 298 -212 L302 -192 Q317 -192 334 -187.5 Q351 -183 366 -172.5 Q381 -162 392.5 -143.5 Q404 -125 409 -97 L427 0 L228 0 Q181 0 145 19 Q109 38 87.5 71.5 Q66 105 58.5 151 Q51 197 61 251 Q70 305 93.5 351 Q117 397 150.5 430 Q184 463 226 481.5 Q268 500 316 500 L535 500 Z " />
<glyph glyph-name="copyright" unicode="&#xa9;" horiz-adv-x="823" d="M466 604 Q535 604 580 568.5 Q625 533 631 462 L611 462 Q607 520 567 556 Q527 592 464 592 Q420 592 380.5 574 Q341 556 309.5 524.5 Q278 493 256.5 448.5 Q235 404 226 352 Q216 300 222 256 Q228 212 248.5 180.5 Q269 149 302 131 Q335 113 380 113 Q411 113 440.5 122.5 Q470 132 495 149 Q520 166 540 190 Q560 214 572 243 L593 243 Q561 172 504 136 Q447 100 378 100 Q329 100 292.5 118.5 Q256 137 233.5 170.5 Q211 204 204 250.5 Q197 297 207 352 Q216 407 239.5 453.5 Q263 500 297 533.5 Q331 567 374 585.5 Q417 604 466 604 Z M485 696 Q413 696 346.5 669 Q280 642 227 595.5 Q174 549 137.5 485.5 Q101 422 88 350 Q75 278 89.5 214.5 Q104 151 140.5 104.5 Q177 58 234 31 Q291 4 363 4 Q435 4 501.5 31 Q568 58 621 104.5 Q674 151 710.5 214.5 Q747 278 760 350 Q773 422 758.5 485.5 Q744 549 707.5 595.5 Q671 642 614 669 Q557 696 485 696 Z M488 710 Q563 710 622 682 Q681 654 720 605 Q759 556 774.5 490.5 Q790 425 777 350 Q764 275 725.5 209.5 Q687 144 630.5 95 Q574 46 505 18 Q436 -10 361 -10 Q286 -10 226.5 18 Q167 46 128 95 Q89 144 73.5 209.5 Q58 275 71 350 Q84 425 122.5 490.5 Q161 556 217.5 605 Q274 654 343.5 682 Q413 710 488 710 Z " />
<glyph glyph-name="registered" unicode="&#xae;" horiz-adv-x="500" d="M350 649 Q394 649 410.5 628.5 Q427 608 422 580 Q417 552 399 532.5 Q381 513 351 507 Q363 505 371.5 499.5 Q380 494 384.5 479 Q389 464 388.5 438 Q388 412 381 370 L365 370 Q372 413 372 439.5 Q372 466 366 479.5 Q360 493 349 497.5 Q338 502 324 502 L227 502 L204 370 L188 370 L237 649 L350 649 Z M229 515 L326 515 Q363 515 381 534.5 Q399 554 404 580 Q408 604 397.5 620 Q387 636 348 636 L251 636 L229 515 Z M334 698 Q301 698 265.5 686.5 Q230 675 199.5 651.5 Q169 628 146.5 592.5 Q124 557 115 509 Q108 468 116 433 Q124 398 144 373 Q164 348 195.5 334 Q227 320 267 320 Q307 320 343 334 Q379 348 408.5 373 Q438 398 458 433 Q478 468 485 509 Q492 550 484.5 585 Q477 620 456.5 645 Q436 670 405 684 Q374 698 334 698 Z M336 710 Q380 710 414 695 Q448 680 469.5 653 Q491 626 499 589 Q507 552 499 508 Q491 464 470.5 427.5 Q450 391 419 364.5 Q388 338 348.5 323 Q309 308 265 308 Q220 308 186 323 Q152 338 130 364.5 Q108 391 99.5 427.5 Q91 464 99 508 Q106 550 128 587 Q150 624 181.5 651 Q213 678 252.5 694 Q292 710 336 710 Z " />
<glyph glyph-name="trademark" unicode="&#x2122;" horiz-adv-x="731" d="M434 700 L513 392 L699 700 L724 700 L666 369 L650 369 L705 685 L515 369 L503 369 L421 685 L366 369 L351 369 L406 686 L272 686 L217 369 L201 369 L256 686 L130 686 L133 700 L434 700 Z " />
<glyph glyph-name="ampersand" unicode="&#x26;" horiz-adv-x="762" d="M453 695 Q399 695 349 675.5 Q299 656 256 620 Q213 584 179.5 533 Q146 482 124 420 L405 420 Q441 420 471.5 432 Q502 444 525.5 464 Q549 484 563.5 509.5 Q578 535 583 562 Q587 589 582.5 613.5 Q578 638 562 656 Q546 674 519 684.5 Q492 695 453 695 Z M318 6 Q386 6 453 35.5 Q520 65 576 117.5 Q632 170 673 243.5 Q714 317 731 404 L119 404 Q107 368 101 330 Q88 256 96.5 196.5 Q105 137 133 94.5 Q161 52 207.5 29 Q254 6 318 6 Z M456 710 Q499 710 530 698 Q561 686 579 666 Q597 646 603 619 Q609 592 604 562 Q596 515 561.5 477 Q527 439 469 420 L756 420 Q736 322 692.5 242.5 Q649 163 590 107 Q531 51 460 20.5 Q389 -10 315 -10 Q246 -10 195.5 16 Q145 42 114.5 87.5 Q84 133 74.5 195.5 Q65 258 78 330 Q92 410 126.5 479.5 Q161 549 211.5 600 Q262 651 324.5 680.5 Q387 710 456 710 Z " />
<glyph glyph-name="at" unicode="&#x40;" horiz-adv-x="817" d="M468 607 Q538 607 591.5 587 Q645 567 682 529.5 Q719 492 738 438 Q757 384 757 317 Q757 257 743.5 205 Q730 153 706.5 114.5 Q683 76 652 54.5 Q621 33 586 33 Q563 33 547 46 Q531 59 531 100 Q531 114 532 127.5 Q533 141 538 163 Q527 136 509 112 Q491 88 466.5 70 Q442 52 411.5 41.5 Q381 31 344 31 Q274 31 237.5 72 Q201 113 201 182 Q201 233 215.5 285 Q230 337 258.5 380 Q287 423 330.5 450 Q374 477 431 477 Q471 477 498 465 Q525 453 542 433.5 Q559 414 566.5 388 Q574 362 574 334 L603 468 L619 468 L556 169 Q551 147 549.5 130 Q548 113 548 99 Q548 70 557.5 58 Q567 46 586 46 Q617 46 645.5 68 Q674 90 695.5 126.5 Q717 163 729.5 212 Q742 261 742 315 Q742 448 671 521 Q600 594 466 594 Q383 594 312 563 Q241 532 188 477 Q135 422 105 346.5 Q75 271 75 183 Q75 112 96.5 59 Q118 6 155.5 -29 Q193 -64 245 -82 Q297 -100 358 -100 Q382 -100 408.5 -96 Q435 -92 459.5 -85.5 Q484 -79 505 -71 Q526 -63 540 -55 L546 -66 Q513 -86 465.5 -99.5 Q418 -113 355 -113 Q294 -113 240 -94.5 Q186 -76 146 -39.5 Q106 -3 83 52.5 Q60 108 60 182 Q60 274 92 352 Q124 430 179.5 486.5 Q235 543 309.5 575 Q384 607 468 607 Z M431 464 Q380 464 340.5 439 Q301 414 273.5 374 Q246 334 231.5 283.5 Q217 233 217 183 Q217 119 249.5 81.5 Q282 44 345 44 Q400 44 440.5 70 Q481 96 508 137 Q535 178 548 227.5 Q561 277 561 325 Q561 363 551.5 389.5 Q542 416 525 432.5 Q508 449 484 456.5 Q460 464 431 464 Z " />
<glyph glyph-name="acute" unicode="&#xb4;" horiz-adv-x="233" d="M268 708 L123 557 L108 557 L248 713 L268 708 Z " />
<glyph glyph-name="grave" unicode="&#x60;" horiz-adv-x="233" d="M155 713 L241 557 L226 557 L135 708 L155 713 Z " />
<glyph glyph-name="caron" unicode="&#x2c7;" horiz-adv-x="333" d="M145 713 L227 576 L358 713 L368 708 L233 557 L216 557 L135 708 L145 713 Z " />
<glyph glyph-name="circumflex" unicode="&#x2c6;" horiz-adv-x="333" d="M260 713 L342 562 L331 557 L249 694 L118 557 L109 562 L243 713 L260 713 Z " />
<glyph glyph-name="breve" unicode="&#x2d8;" horiz-adv-x="285" d="M140 677 Q135 641 150.5 616.5 Q166 592 206 592 Q228 592 244.5 599.5 Q261 607 273 619 Q285 631 292.5 646 Q300 661 303 677 L314 676 Q306 634 278.5 605.5 Q251 577 203 577 Q156 577 139 605.5 Q122 634 129 676 L140 677 Z " />
<glyph glyph-name="dieresis" unicode="&#xa8;" horiz-adv-x="238" d="M239 622 L244 646 L262 646 L257 622 L239 622 Z M119 622 L124 646 L142 646 L137 622 L119 622 Z " />
<glyph glyph-name="dotaccent" unicode="&#x2d9;" horiz-adv-x="118" d="M117 622 L122 648 L144 648 L139 622 L117 622 Z " />
<glyph glyph-name="hungarumlaut" unicode="&#x2dd;" horiz-adv-x="340" d="M375 708 L240 557 L227 557 L357 713 L375 708 Z M256 708 L122 557 L108 557 L238 713 L256 708 Z " />
<glyph glyph-name="&amp;#xaf;" unicode="&#xaf;" horiz-adv-x="321" d="M117 607 L120 623 L341 623 L338 607 L117 607 Z " />
<glyph glyph-name="&amp;#x2c9;" unicode="&#x2c9;" horiz-adv-x="321" d="M117 607 L120 623 L341 623 L338 607 L117 607 Z " />
<glyph glyph-name="ring" unicode="&#x2da;" horiz-adv-x="288" d="M224 693 Q186 693 162.5 671.5 Q139 650 134 624 Q128 592 148 573.5 Q168 555 200 555 Q237 555 260 573.5 Q283 592 289 624 Q294 656 275 674.5 Q256 693 224 693 Z M226 705 Q268 705 289 682 Q310 659 304 624 Q297 588 268 565.5 Q239 543 197 543 Q156 543 134.5 565.5 Q113 588 120 624 Q126 659 155.5 682 Q185 705 226 705 Z " />
<glyph glyph-name="tilde" unicode="&#x2dc;" horiz-adv-x="380" d="M207 672 Q228 672 242 662 Q256 652 268 639.5 Q280 627 291.5 617 Q303 607 318 607 Q365 607 382 656 L393 654 Q382 622 360 608 Q338 594 315 594 Q295 594 282 604 Q269 614 258 626.5 Q247 639 235 649 Q223 659 205 659 Q157 659 140 609 L130 612 Q141 644 162.5 658 Q184 672 207 672 Z " />
<glyph glyph-name="ogonek" unicode="&#x2db;" horiz-adv-x="220" d="M97 0 Q62 -24 36.5 -58.5 Q11 -93 5 -129 Q-1 -163 16.5 -180.5 Q34 -198 66 -198 Q73 -198 80 -197 Q87 -196 95 -194 L93 -208 Q76 -211 62 -211 Q44 -211 29 -206.5 Q14 -202 3.5 -192 Q-7 -182 -12 -166.5 Q-17 -151 -13 -130 Q-6 -92 20.5 -58.5 Q47 -25 85 0 L97 0 Z " />
<glyph glyph-name="cedilla" unicode="&#xb8;" horiz-adv-x="310" d="M107 0 L61 -68 Q72 -66 83 -65 Q94 -64 104 -64 Q156 -64 177.5 -86 Q199 -108 194 -138 Q189 -168 158 -192.5 Q127 -217 71 -217 Q42 -217 15.5 -208.5 Q-11 -200 -24 -184 L-14 -174 Q-5 -188 21 -195 Q47 -202 76 -202 Q125 -202 147.5 -183 Q170 -164 175 -141 Q177 -129 174.5 -117.5 Q172 -106 163.5 -97 Q155 -88 138.5 -82.5 Q122 -77 97 -77 Q72 -77 34 -85 L86 0 L107 0 Z " />
<glyph glyph-name="&amp;#x394;" unicode="&#x394;" horiz-adv-x="581" d="M373 688 Q360 656 341 623 L2 16 L502 16 L381 623 Q379 638 377 654.5 Q375 671 373 688 Z M387 700 L528 0 L-27 0 L362 700 L387 700 Z " />
<glyph glyph-name="&amp;#x2206;" unicode="&#x2206;" horiz-adv-x="581" d="M373 688 Q360 656 341 623 L2 16 L502 16 L381 623 Q379 638 377 654.5 Q375 671 373 688 Z M387 700 L528 0 L-27 0 L362 700 L387 700 Z " />
<glyph glyph-name="&amp;#x3a9;" unicode="&#x3a9;" horiz-adv-x="732" d="M451 710 Q526 710 578.5 681 Q631 652 661 602.5 Q691 553 699.5 487.5 Q708 422 695 350 Q685 294 664.5 242.5 Q644 191 613.5 147.5 Q583 104 543 70 Q503 36 454 16 L684 16 L682 0 L405 0 L407 16 Q460 29 504.5 60 Q549 91 582.5 134.5 Q616 178 639 233 Q662 288 673 350 Q686 423 678.5 486 Q671 549 643 595.5 Q615 642 566 668 Q517 694 448 694 Q379 694 321 668 Q263 642 218.5 595.5 Q174 549 144 486 Q114 423 101 350 Q90 288 94 233 Q98 178 116.5 134.5 Q135 91 168 60 Q201 29 249 16 L247 0 L-30 0 L-28 16 L202 16 Q161 36 133 70 Q105 104 89.5 147.5 Q74 191 71.5 242.5 Q69 294 79 350 Q92 422 123.5 487.5 Q155 553 202.5 602.5 Q250 652 313 681 Q376 710 451 710 Z " />
<glyph glyph-name="&amp;#x2126;" unicode="&#x2126;" horiz-adv-x="732" d="M451 710 Q526 710 578.5 681 Q631 652 661 602.5 Q691 553 699.5 487.5 Q708 422 695 350 Q685 294 664.5 242.5 Q644 191 613.5 147.5 Q583 104 543 70 Q503 36 454 16 L684 16 L682 0 L405 0 L407 16 Q460 29 504.5 60 Q549 91 582.5 134.5 Q616 178 639 233 Q662 288 673 350 Q686 423 678.5 486 Q671 549 643 595.5 Q615 642 566 668 Q517 694 448 694 Q379 694 321 668 Q263 642 218.5 595.5 Q174 549 144 486 Q114 423 101 350 Q90 288 94 233 Q98 178 116.5 134.5 Q135 91 168 60 Q201 29 249 16 L247 0 L-30 0 L-28 16 L202 16 Q161 36 133 70 Q105 104 89.5 147.5 Q74 191 71.5 242.5 Q69 294 79 350 Q92 422 123.5 487.5 Q155 553 202.5 602.5 Q250 652 313 681 Q376 710 451 710 Z " />
<glyph glyph-name="&amp;#xb5;" unicode="&#xb5;" horiz-adv-x="583" d="M164 500 L109 190 Q101 148 103.5 114 Q106 80 119.5 55.5 Q133 31 159 17.5 Q185 4 224 4 Q258 4 294 16 Q330 28 362 55 Q394 82 418.5 125.5 Q443 169 454 231 L502 500 L520 500 L452 114 Q443 64 454 39.5 Q465 15 504 15 Q507 15 513.5 15 Q520 15 525 16 L523 0 Q518 -1 511 -1 Q504 -1 501 -1 Q477 -1 461.5 5.5 Q446 12 438.5 28 Q431 44 430.5 70 Q430 96 437 134 Q423 104 402 77.5 Q381 51 354 31.5 Q327 12 293.5 1 Q260 -10 222 -10 Q162 -10 129 15.5 Q96 41 88 89 L42 -200 L22 -200 L146 500 L164 500 Z " />
<glyph glyph-name="&amp;#x3bc;" unicode="&#x3bc;" horiz-adv-x="583" d="M164 500 L109 190 Q101 148 103.5 114 Q106 80 119.5 55.5 Q133 31 159 17.5 Q185 4 224 4 Q258 4 294 16 Q330 28 362 55 Q394 82 418.5 125.5 Q443 169 454 231 L502 500 L520 500 L452 114 Q443 64 454 39.5 Q465 15 504 15 Q507 15 513.5 15 Q520 15 525 16 L523 0 Q518 -1 511 -1 Q504 -1 501 -1 Q477 -1 461.5 5.5 Q446 12 438.5 28 Q431 44 430.5 70 Q430 96 437 134 Q423 104 402 77.5 Q381 51 354 31.5 Q327 12 293.5 1 Q260 -10 222 -10 Q162 -10 129 15.5 Q96 41 88 89 L42 -200 L22 -200 L146 500 L164 500 Z " />
<glyph glyph-name="pi" unicode="&#x3c0;" horiz-adv-x="533" d="M561 500 L558 485 L436 485 L371 114 Q362 64 373 39.5 Q384 15 423 15 Q426 15 432.5 15 Q439 15 444 16 L442 0 Q437 -1 430 -1 Q423 -1 420 -1 Q372 -1 357 26.5 Q342 54 353 114 L418 485 L205 485 L120 0 L102 0 L187 485 L65 485 L68 500 L561 500 Z " />
<glyph glyph-name="Aacute" unicode="&#xc1;" horiz-adv-x="591" d="M489 863 L347 727 L332 727 L470 868 L489 863 Z M377 694 Q365 668 351.5 644 Q338 620 327 600 L131 250 L467 250 L393 600 Q388 621 384.5 644.5 Q381 668 377 694 Z M393 700 L538 0 L516 0 L471 235 L122 235 L-6 0 L-27 0 L365 700 L393 700 Z " />
<glyph glyph-name="Acircumflex" unicode="&#xc2;" horiz-adv-x="591" d="M485 727 L401 851 L272 727 L263 732 L395 868 L412 868 L496 732 L485 727 Z M377 694 Q365 668 351.5 644 Q338 620 327 600 L131 250 L467 250 L393 600 Q388 621 384.5 644.5 Q381 668 377 694 Z M393 700 L538 0 L516 0 L471 235 L122 235 L-6 0 L-27 0 L365 700 L393 700 Z " />
<glyph glyph-name="Adieresis" unicode="&#xc4;" horiz-adv-x="591" d="M436 771 L440 792 L458 792 L454 771 L436 771 Z M316 771 L320 792 L338 792 L334 771 L316 771 Z M377 694 Q365 668 351.5 644 Q338 620 327 600 L131 250 L467 250 L393 600 Q388 621 384.5 644.5 Q381 668 377 694 Z M393 700 L538 0 L516 0 L471 235 L122 235 L-6 0 L-27 0 L365 700 L393 700 Z " />
<glyph glyph-name="Agrave" unicode="&#xc0;" horiz-adv-x="591" d="M337 868 L425 727 L410 727 L316 863 L337 868 Z M377 694 Q365 668 351.5 644 Q338 620 327 600 L131 250 L467 250 L393 600 Q388 621 384.5 644.5 Q381 668 377 694 Z M393 700 L538 0 L516 0 L471 235 L122 235 L-6 0 L-27 0 L365 700 L393 700 Z " />
<glyph glyph-name="Aring" unicode="&#xc5;" horiz-adv-x="591" d="M397 834 Q359 834 335.5 818 Q312 802 308 779 Q303 751 324 738 Q345 725 377 725 Q414 725 437.5 737.5 Q461 750 466 779 Q468 793 463.5 803.5 Q459 814 449.5 820.5 Q440 827 426.5 830.5 Q413 834 397 834 Z M398 845 Q440 845 463 827.5 Q486 810 481 779 Q475 747 446.5 731 Q418 715 376 715 Q335 715 311 731 Q287 747 293 779 Q298 810 327.5 827.5 Q357 845 398 845 Z M377 694 Q365 668 351.5 644 Q338 620 327 600 L131 250 L467 250 L393 600 Q388 621 384.5 644.5 Q381 668 377 694 Z M393 700 L538 0 L516 0 L471 235 L122 235 L-6 0 L-27 0 L365 700 L393 700 Z " />
<glyph glyph-name="Atilde" unicode="&#xc3;" horiz-adv-x="591" d="M335 822 Q356 822 370 812 Q384 802 396 789.5 Q408 777 419.5 767 Q431 757 446 757 Q494 757 511 806 L521 804 Q510 772 488.5 758 Q467 744 444 744 Q424 744 411 754 Q398 764 386.5 776.5 Q375 789 363 799 Q351 809 333 809 Q287 809 268 759 L258 762 Q269 794 290.5 808 Q312 822 335 822 Z M377 694 Q365 668 351.5 644 Q338 620 327 600 L131 250 L467 250 L393 600 Q388 621 384.5 644.5 Q381 668 377 694 Z M393 700 L538 0 L516 0 L471 235 L122 235 L-6 0 L-27 0 L365 700 L393 700 Z " />
<glyph glyph-name="Ccedilla" unicode="&#xc7;" horiz-adv-x="665" d="M626 174 Q606 133 575.5 99 Q545 65 506 41 Q467 17 421.5 3.5 Q376 -10 327 -10 Q323 -10 319.5 -9.5 Q316 -9 312 -9 L273 -68 Q284 -66 295 -65 Q306 -64 316 -64 Q368 -64 389.5 -86 Q411 -108 406 -138 Q401 -168 370 -192.5 Q339 -217 283 -217 Q254 -217 227.5 -208.5 Q201 -200 188 -184 L198 -174 Q207 -188 233 -195 Q259 -202 288 -202 Q337 -202 359.5 -183 Q382 -164 387 -141 Q389 -129 386.5 -117.5 Q384 -106 375.5 -97 Q367 -88 350.5 -82.5 Q334 -77 309 -77 Q284 -77 246 -85 L293 -8 Q227 -2 181 29.5 Q135 61 108 109.5 Q81 158 74 220 Q67 282 79 350 Q92 422 124 487.5 Q156 553 204 602.5 Q252 652 315.5 681 Q379 710 454 710 Q503 710 543.5 696.5 Q584 683 614.5 659 Q645 635 663.5 601 Q682 567 688 526 L667 526 Q663 563 646 593.5 Q629 624 601.5 646.5 Q574 669 535.5 681.5 Q497 694 451 694 Q382 694 323.5 668 Q265 642 220 595.5 Q175 549 144.5 486 Q114 423 101 350 Q88 276 96.5 213.5 Q105 151 133.5 104.5 Q162 58 211.5 32 Q261 6 330 6 Q376 6 418.5 18.5 Q461 31 496.5 53.5 Q532 76 560 106.5 Q588 137 605 174 L626 174 Z " />
<glyph glyph-name="Eacute" unicode="&#xc9;" horiz-adv-x="600" d="M542 863 L400 727 L385 727 L523 868 L542 863 Z M58 0 L181 700 L623 700 L620 684 L198 684 L143 372 L509 372 L506 356 L140 356 L80 16 L504 16 L502 0 L58 0 Z " />
<glyph glyph-name="Ecircumflex" unicode="&#xca;" horiz-adv-x="600" d="M514 727 L430 851 L301 727 L292 732 L424 868 L441 868 L525 732 L514 727 Z M58 0 L181 700 L623 700 L620 684 L198 684 L143 372 L509 372 L506 356 L140 356 L80 16 L504 16 L502 0 L58 0 Z " />
<glyph glyph-name="Edieresis" unicode="&#xcb;" horiz-adv-x="600" d="M469 771 L473 792 L491 792 L487 771 L469 771 Z M349 771 L353 792 L371 792 L367 771 L349 771 Z M58 0 L181 700 L623 700 L620 684 L198 684 L143 372 L509 372 L506 356 L140 356 L80 16 L504 16 L502 0 L58 0 Z " />
<glyph glyph-name="Egrave" unicode="&#xc8;" horiz-adv-x="600" d="M358 868 L446 727 L431 727 L337 863 L358 868 Z M58 0 L181 700 L623 700 L620 684 L198 684 L143 372 L509 372 L506 356 L140 356 L80 16 L504 16 L502 0 L58 0 Z " />
<glyph glyph-name="Iacute" unicode="&#xcd;" horiz-adv-x="216" d="M317 863 L175 727 L160 727 L298 868 L317 863 Z M58 0 L181 700 L201 700 L78 0 L58 0 Z " />
<glyph glyph-name="Icircumflex" unicode="&#xce;" horiz-adv-x="216" d="M303 727 L219 851 L90 727 L81 732 L213 868 L230 868 L314 732 L303 727 Z M58 0 L181 700 L201 700 L78 0 L58 0 Z " />
<glyph glyph-name="Idieresis" unicode="&#xcf;" horiz-adv-x="216" d="M254 771 L258 792 L276 792 L272 771 L254 771 Z M134 771 L138 792 L156 792 L152 771 L134 771 Z M58 0 L181 700 L201 700 L78 0 L58 0 Z " />
<glyph glyph-name="Igrave" unicode="&#xcc;" horiz-adv-x="216" d="M127 868 L215 727 L200 727 L106 863 L127 868 Z M58 0 L181 700 L201 700 L78 0 L58 0 Z " />
<glyph glyph-name="Ntilde" unicode="&#xd1;" horiz-adv-x="660" d="M373 822 Q394 822 408 812 Q422 802 434 789.5 Q446 777 457.5 767 Q469 757 484 757 Q532 757 549 806 L559 804 Q548 772 526.5 758 Q505 744 482 744 Q462 744 449 754 Q436 764 424.5 776.5 Q413 789 401 799 Q389 809 371 809 Q325 809 306 759 L296 762 Q307 794 328.5 808 Q350 822 373 822 Z M211 700 L486 78 Q492 64 497.5 50.5 Q503 37 508 23 Q509 40 511.5 56 Q514 72 517 89 L625 700 L645 700 L522 0 L500 0 L220 632 Q214 646 208 659.5 Q202 673 198 687 L188 626 L78 0 L58 0 L181 700 L211 700 Z " />
<glyph glyph-name="Oacute" unicode="&#xd3;" horiz-adv-x="732" d="M555 863 L413 727 L398 727 L536 868 L555 863 Z M451 710 Q526 710 578.5 681 Q631 652 661 602.5 Q691 553 699.5 487.5 Q708 422 695 350 Q682 278 651 212.5 Q620 147 572.5 97.5 Q525 48 462 19 Q399 -10 324 -10 Q249 -10 196.5 19 Q144 48 113.5 97.5 Q83 147 74.5 212.5 Q66 278 79 350 Q92 422 123.5 487.5 Q155 553 202.5 602.5 Q250 652 313 681 Q376 710 451 710 Z M448 694 Q379 694 321 668 Q263 642 218.5 595.5 Q174 549 144 486 Q114 423 101 350 Q88 276 96 213.5 Q104 151 132 104.5 Q160 58 209 32 Q258 6 327 6 Q396 6 454 32 Q512 58 556.5 104.5 Q601 151 630.5 213.5 Q660 276 673 350 Q686 423 678.5 486 Q671 549 643 595.5 Q615 642 566 668 Q517 694 448 694 Z " />
<glyph glyph-name="Ocircumflex" unicode="&#xd4;" horiz-adv-x="732" d="M560 727 L476 851 L347 727 L338 732 L470 868 L487 868 L571 732 L560 727 Z M451 710 Q526 710 578.5 681 Q631 652 661 602.5 Q691 553 699.5 487.5 Q708 422 695 350 Q682 278 651 212.5 Q620 147 572.5 97.5 Q525 48 462 19 Q399 -10 324 -10 Q249 -10 196.5 19 Q144 48 113.5 97.5 Q83 147 74.5 212.5 Q66 278 79 350 Q92 422 123.5 487.5 Q155 553 202.5 602.5 Q250 652 313 681 Q376 710 451 710 Z M448 694 Q379 694 321 668 Q263 642 218.5 595.5 Q174 549 144 486 Q114 423 101 350 Q88 276 96 213.5 Q104 151 132 104.5 Q160 58 209 32 Q258 6 327 6 Q396 6 454 32 Q512 58 556.5 104.5 Q601 151 630.5 213.5 Q660 276 673 350 Q686 423 678.5 486 Q671 549 643 595.5 Q615 642 566 668 Q517 694 448 694 Z " />
<glyph glyph-name="Odieresis" unicode="&#xd6;" horiz-adv-x="732" d="M512 771 L516 792 L534 792 L530 771 L512 771 Z M392 771 L396 792 L414 792 L410 771 L392 771 Z M451 710 Q526 710 578.5 681 Q631 652 661 602.5 Q691 553 699.5 487.5 Q708 422 695 350 Q682 278 651 212.5 Q620 147 572.5 97.5 Q525 48 462 19 Q399 -10 324 -10 Q249 -10 196.5 19 Q144 48 113.5 97.5 Q83 147 74.5 212.5 Q66 278 79 350 Q92 422 123.5 487.5 Q155 553 202.5 602.5 Q250 652 313 681 Q376 710 451 710 Z M448 694 Q379 694 321 668 Q263 642 218.5 595.5 Q174 549 144 486 Q114 423 101 350 Q88 276 96 213.5 Q104 151 132 104.5 Q160 58 209 32 Q258 6 327 6 Q396 6 454 32 Q512 58 556.5 104.5 Q601 151 630.5 213.5 Q660 276 673 350 Q686 423 678.5 486 Q671 549 643 595.5 Q615 642 566 668 Q517 694 448 694 Z " />
<glyph glyph-name="Ograve" unicode="&#xd2;" horiz-adv-x="732" d="M413 868 L501 727 L486 727 L392 863 L413 868 Z M451 710 Q526 710 578.5 681 Q631 652 661 602.5 Q691 553 699.5 487.5 Q708 422 695 350 Q682 278 651 212.5 Q620 147 572.5 97.5 Q525 48 462 19 Q399 -10 324 -10 Q249 -10 196.5 19 Q144 48 113.5 97.5 Q83 147 74.5 212.5 Q66 278 79 350 Q92 422 123.5 487.5 Q155 553 202.5 602.5 Q250 652 313 681 Q376 710 451 710 Z M448 694 Q379 694 321 668 Q263 642 218.5 595.5 Q174 549 144 486 Q114 423 101 350 Q88 276 96 213.5 Q104 151 132 104.5 Q160 58 209 32 Q258 6 327 6 Q396 6 454 32 Q512 58 556.5 104.5 Q601 151 630.5 213.5 Q660 276 673 350 Q686 423 678.5 486 Q671 549 643 595.5 Q615 642 566 668 Q517 694 448 694 Z " />
<glyph glyph-name="Otilde" unicode="&#xd5;" horiz-adv-x="732" d="M409 822 Q430 822 444 812 Q458 802 470 789.5 Q482 777 493.5 767 Q505 757 520 757 Q568 757 585 806 L595 804 Q584 772 562.5 758 Q541 744 518 744 Q498 744 485 754 Q472 764 460.5 776.5 Q449 789 437 799 Q425 809 407 809 Q361 809 342 759 L332 762 Q343 794 364.5 808 Q386 822 409 822 Z M451 710 Q526 710 578.5 681 Q631 652 661 602.5 Q691 553 699.5 487.5 Q708 422 695 350 Q682 278 651 212.5 Q620 147 572.5 97.5 Q525 48 462 19 Q399 -10 324 -10 Q249 -10 196.5 19 Q144 48 113.5 97.5 Q83 147 74.5 212.5 Q66 278 79 350 Q92 422 123.5 487.5 Q155 553 202.5 602.5 Q250 652 313 681 Q376 710 451 710 Z M448 694 Q379 694 321 668 Q263 642 218.5 595.5 Q174 549 144 486 Q114 423 101 350 Q88 276 96 213.5 Q104 151 132 104.5 Q160 58 209 32 Q258 6 327 6 Q396 6 454 32 Q512 58 556.5 104.5 Q601 151 630.5 213.5 Q660 276 673 350 Q686 423 678.5 486 Q671 549 643 595.5 Q615 642 566 668 Q517 694 448 694 Z " />
<glyph glyph-name="Uacute" unicode="&#xda;" horiz-adv-x="660" d="M522 863 L380 727 L365 727 L503 868 L522 863 Z M626 700 L646 700 L551 160 Q544 120 521.5 88.5 Q499 57 464.5 35 Q430 13 385 1.5 Q340 -10 289 -10 Q238 -10 197.5 1.5 Q157 13 130 35 Q103 57 91.5 88.5 Q80 120 87 160 L182 700 L203 700 L109 165 Q102 127 112 97.5 Q122 68 146.5 48 Q171 28 208 17.5 Q245 7 292 7 Q387 7 452.5 48.5 Q518 90 532 165 L626 700 Z " />
<glyph glyph-name="Ucircumflex" unicode="&#xdb;" horiz-adv-x="660" d="M525 727 L441 851 L312 727 L303 732 L435 868 L452 868 L536 732 L525 727 Z M626 700 L646 700 L551 160 Q544 120 521.5 88.5 Q499 57 464.5 35 Q430 13 385 1.5 Q340 -10 289 -10 Q238 -10 197.5 1.5 Q157 13 130 35 Q103 57 91.5 88.5 Q80 120 87 160 L182 700 L203 700 L109 165 Q102 127 112 97.5 Q122 68 146.5 48 Q171 28 208 17.5 Q245 7 292 7 Q387 7 452.5 48.5 Q518 90 532 165 L626 700 Z " />
<glyph glyph-name="Udieresis" unicode="&#xdc;" horiz-adv-x="660" d="M476 771 L480 792 L498 792 L494 771 L476 771 Z M356 771 L360 792 L378 792 L374 771 L356 771 Z M626 700 L646 700 L551 160 Q544 120 521.5 88.5 Q499 57 464.5 35 Q430 13 385 1.5 Q340 -10 289 -10 Q238 -10 197.5 1.5 Q157 13 130 35 Q103 57 91.5 88.5 Q80 120 87 160 L182 700 L203 700 L109 165 Q102 127 112 97.5 Q122 68 146.5 48 Q171 28 208 17.5 Q245 7 292 7 Q387 7 452.5 48.5 Q518 90 532 165 L626 700 Z " />
<glyph glyph-name="Ugrave" unicode="&#xd9;" horiz-adv-x="660" d="M386 868 L474 727 L459 727 L365 863 L386 868 Z M626 700 L646 700 L551 160 Q544 120 521.5 88.5 Q499 57 464.5 35 Q430 13 385 1.5 Q340 -10 289 -10 Q238 -10 197.5 1.5 Q157 13 130 35 Q103 57 91.5 88.5 Q80 120 87 160 L182 700 L203 700 L109 165 Q102 127 112 97.5 Q122 68 146.5 48 Q171 28 208 17.5 Q245 7 292 7 Q387 7 452.5 48.5 Q518 90 532 165 L626 700 Z " />
<glyph glyph-name="Ydieresis" unicode="&#x178;" horiz-adv-x="568" d="M430 771 L434 792 L452 792 L448 771 L430 771 Z M310 771 L314 792 L332 792 L328 771 L310 771 Z M233 0 L292 338 L91 700 L117 700 L305 354 L620 700 L643 700 L312 338 L253 0 L233 0 Z " />
<glyph glyph-name="aacute" unicode="&#xe1;" horiz-adv-x="577" d="M465 708 L320 557 L305 557 L445 713 L465 708 Z M319 510 Q360 510 390 496.5 Q420 483 440.5 461 Q461 439 471 410 Q481 381 482 350 L508 500 L526 500 L439 0 L421 0 L446 146 Q435 116 413.5 88 Q392 60 363 38.5 Q334 17 299.5 3.5 Q265 -10 228 -10 Q177 -10 140.5 9 Q104 28 83 62.5 Q62 97 56.5 145 Q51 193 61 250 Q71 307 93.5 355 Q116 403 149 437.5 Q182 472 225 491 Q268 510 319 510 Z M317 497 Q271 497 232 478.5 Q193 460 162.5 427.5 Q132 395 111 349.5 Q90 304 81 250 Q71 196 76 150.5 Q81 105 99.5 72.5 Q118 40 151 21.5 Q184 3 230 3 Q278 3 317.5 23 Q357 43 386.5 76 Q416 109 435.5 152 Q455 195 463 242 Q475 309 468.5 357 Q462 405 442 436 Q422 467 389.5 482 Q357 497 317 497 Z " />
<glyph glyph-name="acircumflex" unicode="&#xe2;" horiz-adv-x="577" d="M376 713 L458 562 L447 557 L365 694 L234 557 L225 562 L359 713 L376 713 Z M319 510 Q360 510 390 496.5 Q420 483 440.5 461 Q461 439 471 410 Q481 381 482 350 L508 500 L526 500 L439 0 L421 0 L446 146 Q435 116 413.5 88 Q392 60 363 38.5 Q334 17 299.5 3.5 Q265 -10 228 -10 Q177 -10 140.5 9 Q104 28 83 62.5 Q62 97 56.5 145 Q51 193 61 250 Q71 307 93.5 355 Q116 403 149 437.5 Q182 472 225 491 Q268 510 319 510 Z M317 497 Q271 497 232 478.5 Q193 460 162.5 427.5 Q132 395 111 349.5 Q90 304 81 250 Q71 196 76 150.5 Q81 105 99.5 72.5 Q118 40 151 21.5 Q184 3 230 3 Q278 3 317.5 23 Q357 43 386.5 76 Q416 109 435.5 152 Q455 195 463 242 Q475 309 468.5 357 Q462 405 442 436 Q422 467 389.5 482 Q357 497 317 497 Z " />
<glyph glyph-name="adieresis" unicode="&#xe4;" horiz-adv-x="577" d="M401 622 L406 646 L424 646 L419 622 L401 622 Z M281 622 L286 646 L304 646 L299 622 L281 622 Z M319 510 Q360 510 390 496.5 Q420 483 440.5 461 Q461 439 471 410 Q481 381 482 350 L508 500 L526 500 L439 0 L421 0 L446 146 Q435 116 413.5 88 Q392 60 363 38.5 Q334 17 299.5 3.5 Q265 -10 228 -10 Q177 -10 140.5 9 Q104 28 83 62.5 Q62 97 56.5 145 Q51 193 61 250 Q71 307 93.5 355 Q116 403 149 437.5 Q182 472 225 491 Q268 510 319 510 Z M317 497 Q271 497 232 478.5 Q193 460 162.5 427.5 Q132 395 111 349.5 Q90 304 81 250 Q71 196 76 150.5 Q81 105 99.5 72.5 Q118 40 151 21.5 Q184 3 230 3 Q278 3 317.5 23 Q357 43 386.5 76 Q416 109 435.5 152 Q455 195 463 242 Q475 309 468.5 357 Q462 405 442 436 Q422 467 389.5 482 Q357 497 317 497 Z " />
<glyph glyph-name="agrave" unicode="&#xe0;" horiz-adv-x="577" d="M301 713 L387 557 L372 557 L281 708 L301 713 Z M319 510 Q360 510 390 496.5 Q420 483 440.5 461 Q461 439 471 410 Q481 381 482 350 L508 500 L526 500 L439 0 L421 0 L446 146 Q435 116 413.5 88 Q392 60 363 38.5 Q334 17 299.5 3.5 Q265 -10 228 -10 Q177 -10 140.5 9 Q104 28 83 62.5 Q62 97 56.5 145 Q51 193 61 250 Q71 307 93.5 355 Q116 403 149 437.5 Q182 472 225 491 Q268 510 319 510 Z M317 497 Q271 497 232 478.5 Q193 460 162.5 427.5 Q132 395 111 349.5 Q90 304 81 250 Q71 196 76 150.5 Q81 105 99.5 72.5 Q118 40 151 21.5 Q184 3 230 3 Q278 3 317.5 23 Q357 43 386.5 76 Q416 109 435.5 152 Q455 195 463 242 Q475 309 468.5 357 Q462 405 442 436 Q422 467 389.5 482 Q357 497 317 497 Z " />
<glyph glyph-name="aring" unicode="&#xe5;" horiz-adv-x="577" d="M374 693 Q336 693 312.5 671.5 Q289 650 284 624 Q278 592 298 573.5 Q318 555 350 555 Q387 555 410 573.5 Q433 592 439 624 Q444 656 425 674.5 Q406 693 374 693 Z M376 705 Q418 705 439 682 Q460 659 454 624 Q447 588 418 565.5 Q389 543 347 543 Q306 543 284.5 565.5 Q263 588 270 624 Q276 659 305.5 682 Q335 705 376 705 Z M319 510 Q360 510 390 496.5 Q420 483 440.5 461 Q461 439 471 410 Q481 381 482 350 L508 500 L526 500 L439 0 L421 0 L446 146 Q435 116 413.5 88 Q392 60 363 38.5 Q334 17 299.5 3.5 Q265 -10 228 -10 Q177 -10 140.5 9 Q104 28 83 62.5 Q62 97 56.5 145 Q51 193 61 250 Q71 307 93.5 355 Q116 403 149 437.5 Q182 472 225 491 Q268 510 319 510 Z M317 497 Q271 497 232 478.5 Q193 460 162.5 427.5 Q132 395 111 349.5 Q90 304 81 250 Q71 196 76 150.5 Q81 105 99.5 72.5 Q118 40 151 21.5 Q184 3 230 3 Q278 3 317.5 23 Q357 43 386.5 76 Q416 109 435.5 152 Q455 195 463 242 Q475 309 468.5 357 Q462 405 442 436 Q422 467 389.5 482 Q357 497 317 497 Z " />
<glyph glyph-name="atilde" unicode="&#xe3;" horiz-adv-x="577" d="M304 672 Q325 672 339 662 Q353 652 365 639.5 Q377 627 388.5 617 Q400 607 415 607 Q462 607 479 656 L490 654 Q479 622 457 608 Q435 594 412 594 Q392 594 379 604 Q366 614 355 626.5 Q344 639 332 649 Q320 659 302 659 Q254 659 237 609 L227 612 Q238 644 259.5 658 Q281 672 304 672 Z M319 510 Q360 510 390 496.5 Q420 483 440.5 461 Q461 439 471 410 Q481 381 482 350 L508 500 L526 500 L439 0 L421 0 L446 146 Q435 116 413.5 88 Q392 60 363 38.5 Q334 17 299.5 3.5 Q265 -10 228 -10 Q177 -10 140.5 9 Q104 28 83 62.5 Q62 97 56.5 145 Q51 193 61 250 Q71 307 93.5 355 Q116 403 149 437.5 Q182 472 225 491 Q268 510 319 510 Z M317 497 Q271 497 232 478.5 Q193 460 162.5 427.5 Q132 395 111 349.5 Q90 304 81 250 Q71 196 76 150.5 Q81 105 99.5 72.5 Q118 40 151 21.5 Q184 3 230 3 Q278 3 317.5 23 Q357 43 386.5 76 Q416 109 435.5 152 Q455 195 463 242 Q475 309 468.5 357 Q462 405 442 436 Q422 467 389.5 482 Q357 497 317 497 Z " />
<glyph glyph-name="ccedilla" unicode="&#xe7;" horiz-adv-x="505" d="M328 510 Q363 510 394.5 500.5 Q426 491 449 472.5 Q472 454 485.5 426.5 Q499 399 499 363 L479 363 Q480 395 469 420 Q458 445 437.5 462 Q417 479 388.5 488 Q360 497 326 497 Q280 497 239.5 478.5 Q199 460 166.5 427.5 Q134 395 111.5 349.5 Q89 304 80 250 Q70 196 76.5 150.5 Q83 105 104 72.5 Q125 40 159 21.5 Q193 3 239 3 Q273 3 305 12 Q337 21 363 38 Q389 55 409 80 Q429 105 439 137 L459 137 Q447 101 424 73.5 Q401 46 371 27.5 Q341 9 306.5 -0.5 Q272 -10 237 -10 L229 -10 L190 -68 Q201 -66 212 -65 Q223 -64 233 -64 Q285 -64 306.5 -86 Q328 -108 323 -138 Q318 -168 287 -192.5 Q256 -217 200 -217 Q171 -217 144.5 -208.5 Q118 -200 105 -184 L115 -174 Q124 -188 150 -195 Q176 -202 205 -202 Q254 -202 276.5 -183 Q299 -164 304 -141 Q306 -129 303.5 -117.5 Q301 -106 292.5 -97 Q284 -88 267.5 -82.5 Q251 -77 226 -77 Q201 -77 163 -85 L210 -8 Q166 -3 134 18 Q102 39 82.5 72.5 Q63 106 57.5 151.5 Q52 197 61 250 Q71 307 95 354.5 Q119 402 154 436.5 Q189 471 233 490.5 Q277 510 328 510 Z " />
<glyph glyph-name="eacute" unicode="&#xe9;" horiz-adv-x="541" d="M459 708 L314 557 L299 557 L439 713 L459 708 Z M337 497 Q293 497 253.5 481.5 Q214 466 181.5 437.5 Q149 409 124.5 369.5 Q100 330 87 283 L293 283 Q387 283 433 313.5 Q479 344 479 393 Q479 412 471 431 Q463 450 446 464.5 Q429 479 402 488 Q375 497 337 497 Z M339 510 Q382 510 412.5 500 Q443 490 462 473.5 Q481 457 490 436.5 Q499 416 499 394 Q499 339 447.5 304 Q396 269 293 269 L84 269 Q82 264 81.5 259.5 Q81 255 80 250 Q70 196 76.5 150.5 Q83 105 103 72.5 Q123 40 157 21.5 Q191 3 237 3 Q304 3 360 36.5 Q416 70 439 137 L458 137 Q444 99 420.5 71.5 Q397 44 367.5 26 Q338 8 304 -1 Q270 -10 235 -10 Q184 -10 146.5 9 Q109 28 86.5 62.5 Q64 97 57 145 Q50 193 60 250 Q70 307 96 355 Q122 403 159 437.5 Q196 472 242 491 Q288 510 339 510 Z " />
<glyph glyph-name="ecircumflex" unicode="&#xea;" horiz-adv-x="541" d="M373 713 L455 562 L444 557 L362 694 L231 557 L222 562 L356 713 L373 713 Z M337 497 Q293 497 253.5 481.5 Q214 466 181.5 437.5 Q149 409 124.5 369.5 Q100 330 87 283 L293 283 Q387 283 433 313.5 Q479 344 479 393 Q479 412 471 431 Q463 450 446 464.5 Q429 479 402 488 Q375 497 337 497 Z M339 510 Q382 510 412.5 500 Q443 490 462 473.5 Q481 457 490 436.5 Q499 416 499 394 Q499 339 447.5 304 Q396 269 293 269 L84 269 Q82 264 81.5 259.5 Q81 255 80 250 Q70 196 76.5 150.5 Q83 105 103 72.5 Q123 40 157 21.5 Q191 3 237 3 Q304 3 360 36.5 Q416 70 439 137 L458 137 Q444 99 420.5 71.5 Q397 44 367.5 26 Q338 8 304 -1 Q270 -10 235 -10 Q184 -10 146.5 9 Q109 28 86.5 62.5 Q64 97 57 145 Q50 193 60 250 Q70 307 96 355 Q122 403 159 437.5 Q196 472 242 491 Q288 510 339 510 Z " />
<glyph glyph-name="edieresis" unicode="&#xeb;" horiz-adv-x="541" d="M399 622 L404 646 L422 646 L417 622 L399 622 Z M279 622 L284 646 L302 646 L297 622 L279 622 Z M337 497 Q293 497 253.5 481.5 Q214 466 181.5 437.5 Q149 409 124.5 369.5 Q100 330 87 283 L293 283 Q387 283 433 313.5 Q479 344 479 393 Q479 412 471 431 Q463 450 446 464.5 Q429 479 402 488 Q375 497 337 497 Z M339 510 Q382 510 412.5 500 Q443 490 462 473.5 Q481 457 490 436.5 Q499 416 499 394 Q499 339 447.5 304 Q396 269 293 269 L84 269 Q82 264 81.5 259.5 Q81 255 80 250 Q70 196 76.5 150.5 Q83 105 103 72.5 Q123 40 157 21.5 Q191 3 237 3 Q304 3 360 36.5 Q416 70 439 137 L458 137 Q444 99 420.5 71.5 Q397 44 367.5 26 Q338 8 304 -1 Q270 -10 235 -10 Q184 -10 146.5 9 Q109 28 86.5 62.5 Q64 97 57 145 Q50 193 60 250 Q70 307 96 355 Q122 403 159 437.5 Q196 472 242 491 Q288 510 339 510 Z " />
<glyph glyph-name="egrave" unicode="&#xe8;" horiz-adv-x="541" d="M297 713 L383 557 L368 557 L277 708 L297 713 Z M337 497 Q293 497 253.5 481.5 Q214 466 181.5 437.5 Q149 409 124.5 369.5 Q100 330 87 283 L293 283 Q387 283 433 313.5 Q479 344 479 393 Q479 412 471 431 Q463 450 446 464.5 Q429 479 402 488 Q375 497 337 497 Z M339 510 Q382 510 412.5 500 Q443 490 462 473.5 Q481 457 490 436.5 Q499 416 499 394 Q499 339 447.5 304 Q396 269 293 269 L84 269 Q82 264 81.5 259.5 Q81 255 80 250 Q70 196 76.5 150.5 Q83 105 103 72.5 Q123 40 157 21.5 Q191 3 237 3 Q304 3 360 36.5 Q416 70 439 137 L458 137 Q444 99 420.5 71.5 Q397 44 367.5 26 Q338 8 304 -1 Q270 -10 235 -10 Q184 -10 146.5 9 Q109 28 86.5 62.5 Q64 97 57 145 Q50 193 60 250 Q70 307 96 355 Q122 403 159 437.5 Q196 472 242 491 Q288 510 339 510 Z " />
<glyph glyph-name="iacute" unicode="&#xed;" horiz-adv-x="216" d="M294 708 L149 557 L134 557 L274 713 L294 708 Z M58 0 L146 500 L164 500 L76 0 L58 0 Z " />
<glyph glyph-name="icircumflex" unicode="&#xee;" horiz-adv-x="216" d="M202 713 L284 562 L273 557 L191 694 L60 557 L51 562 L185 713 L202 713 Z M58 0 L146 500 L164 500 L76 0 L58 0 Z " />
<glyph glyph-name="idieresis" unicode="&#xef;" horiz-adv-x="216" d="M228 622 L233 646 L251 646 L246 622 L228 622 Z M108 622 L113 646 L131 646 L126 622 L108 622 Z M58 0 L146 500 L164 500 L76 0 L58 0 Z " />
<glyph glyph-name="igrave" unicode="&#xec;" horiz-adv-x="216" d="M107 713 L193 557 L178 557 L87 708 L107 713 Z M58 0 L146 500 L164 500 L76 0 L58 0 Z " />
<glyph glyph-name="dotlessi" unicode="&#x131;" horiz-adv-x="216" d="M58 0 L146 500 L164 500 L76 0 L58 0 Z " />
<glyph glyph-name="ntilde" unicode="&#xf1;" horiz-adv-x="570" d="M303 672 Q324 672 338 662 Q352 652 364 639.5 Q376 627 387.5 617 Q399 607 414 607 Q461 607 478 656 L489 654 Q478 622 456 608 Q434 594 411 594 Q391 594 378 604 Q365 614 354 626.5 Q343 639 331 649 Q319 659 301 659 Q253 659 236 609 L226 612 Q237 644 258.5 658 Q280 672 303 672 Z M164 500 L140 366 Q154 396 175 422.5 Q196 449 223 468.5 Q250 488 283.5 499 Q317 510 355 510 Q398 510 427 496 Q456 482 472 456 Q488 430 491 393 Q494 356 486 310 L432 0 L414 0 L468 310 Q475 352 473 386 Q471 420 457.5 444.5 Q444 469 418 482.5 Q392 496 353 496 Q319 496 283 484 Q247 472 215 445 Q183 418 158.5 374.5 Q134 331 123 269 L76 0 L58 0 L146 500 L164 500 Z " />
<glyph glyph-name="oacute" unicode="&#xf3;" horiz-adv-x="556" d="M431 708 L286 557 L271 557 L411 713 L431 708 Z M327 510 Q378 510 415.5 490.5 Q453 471 475.5 436.5 Q498 402 505.5 354.5 Q513 307 503 250 Q492 192 468 144 Q444 96 409.5 62 Q375 28 331 9 Q287 -10 236 -10 Q185 -10 147.5 9 Q110 28 87.5 62 Q65 96 57.5 144 Q50 192 61 250 Q71 307 94.5 354.5 Q118 402 153 436.5 Q188 471 232 490.5 Q276 510 327 510 Z M325 497 Q279 497 239 479 Q199 461 167 428 Q135 395 112.5 349.5 Q90 304 81 250 Q71 195 77.5 149.5 Q84 104 104 71.5 Q124 39 158 21 Q192 3 238 3 Q284 3 324 21 Q364 39 396.5 71.5 Q429 104 451 149.5 Q473 195 483 250 Q492 304 486 349.5 Q480 395 459.5 428 Q439 461 405 479 Q371 497 325 497 Z " />
<glyph glyph-name="ocircumflex" unicode="&#xf4;" horiz-adv-x="556" d="M372 713 L454 562 L443 557 L361 694 L230 557 L221 562 L355 713 L372 713 Z M327 510 Q378 510 415.5 490.5 Q453 471 475.5 436.5 Q498 402 505.5 354.5 Q513 307 503 250 Q492 192 468 144 Q444 96 409.5 62 Q375 28 331 9 Q287 -10 236 -10 Q185 -10 147.5 9 Q110 28 87.5 62 Q65 96 57.5 144 Q50 192 61 250 Q71 307 94.5 354.5 Q118 402 153 436.5 Q188 471 232 490.5 Q276 510 327 510 Z M325 497 Q279 497 239 479 Q199 461 167 428 Q135 395 112.5 349.5 Q90 304 81 250 Q71 195 77.5 149.5 Q84 104 104 71.5 Q124 39 158 21 Q192 3 238 3 Q284 3 324 21 Q364 39 396.5 71.5 Q429 104 451 149.5 Q473 195 483 250 Q492 304 486 349.5 Q480 395 459.5 428 Q439 461 405 479 Q371 497 325 497 Z " />
<glyph glyph-name="odieresis" unicode="&#xf6;" horiz-adv-x="556" d="M398 622 L403 646 L421 646 L416 622 L398 622 Z M278 622 L283 646 L301 646 L296 622 L278 622 Z M327 510 Q378 510 415.5 490.5 Q453 471 475.5 436.5 Q498 402 505.5 354.5 Q513 307 503 250 Q492 192 468 144 Q444 96 409.5 62 Q375 28 331 9 Q287 -10 236 -10 Q185 -10 147.5 9 Q110 28 87.5 62 Q65 96 57.5 144 Q50 192 61 250 Q71 307 94.5 354.5 Q118 402 153 436.5 Q188 471 232 490.5 Q276 510 327 510 Z M325 497 Q279 497 239 479 Q199 461 167 428 Q135 395 112.5 349.5 Q90 304 81 250 Q71 195 77.5 149.5 Q84 104 104 71.5 Q124 39 158 21 Q192 3 238 3 Q284 3 324 21 Q364 39 396.5 71.5 Q429 104 451 149.5 Q473 195 483 250 Q492 304 486 349.5 Q480 395 459.5 428 Q439 461 405 479 Q371 497 325 497 Z " />
<glyph glyph-name="ograve" unicode="&#xf2;" horiz-adv-x="556" d="M312 713 L398 557 L383 557 L292 708 L312 713 Z M327 510 Q378 510 415.5 490.5 Q453 471 475.5 436.5 Q498 402 505.5 354.5 Q513 307 503 250 Q492 192 468 144 Q444 96 409.5 62 Q375 28 331 9 Q287 -10 236 -10 Q185 -10 147.5 9 Q110 28 87.5 62 Q65 96 57.5 144 Q50 192 61 250 Q71 307 94.5 354.5 Q118 402 153 436.5 Q188 471 232 490.5 Q276 510 327 510 Z M325 497 Q279 497 239 479 Q199 461 167 428 Q135 395 112.5 349.5 Q90 304 81 250 Q71 195 77.5 149.5 Q84 104 104 71.5 Q124 39 158 21 Q192 3 238 3 Q284 3 324 21 Q364 39 396.5 71.5 Q429 104 451 149.5 Q473 195 483 250 Q492 304 486 349.5 Q480 395 459.5 428 Q439 461 405 479 Q371 497 325 497 Z " />
<glyph glyph-name="otilde" unicode="&#xf5;" horiz-adv-x="556" d="M295 672 Q316 672 330 662 Q344 652 356 639.5 Q368 627 379.5 617 Q391 607 406 607 Q453 607 470 656 L481 654 Q470 622 448 608 Q426 594 403 594 Q383 594 370 604 Q357 614 346 626.5 Q335 639 323 649 Q311 659 293 659 Q245 659 228 609 L218 612 Q229 644 250.5 658 Q272 672 295 672 Z M327 510 Q378 510 415.5 490.5 Q453 471 475.5 436.5 Q498 402 505.5 354.5 Q513 307 503 250 Q492 192 468 144 Q444 96 409.5 62 Q375 28 331 9 Q287 -10 236 -10 Q185 -10 147.5 9 Q110 28 87.5 62 Q65 96 57.5 144 Q50 192 61 250 Q71 307 94.5 354.5 Q118 402 153 436.5 Q188 471 232 490.5 Q276 510 327 510 Z M325 497 Q279 497 239 479 Q199 461 167 428 Q135 395 112.5 349.5 Q90 304 81 250 Q71 195 77.5 149.5 Q84 104 104 71.5 Q124 39 158 21 Q192 3 238 3 Q284 3 324 21 Q364 39 396.5 71.5 Q429 104 451 149.5 Q473 195 483 250 Q492 304 486 349.5 Q480 395 459.5 428 Q439 461 405 479 Q371 497 325 497 Z " />
<glyph glyph-name="uacute" unicode="&#xfa;" horiz-adv-x="570" d="M467 708 L322 557 L307 557 L447 713 L467 708 Z M164 500 L109 190 Q101 148 103.5 114 Q106 80 119.5 55.5 Q133 31 159 17.5 Q185 4 224 4 Q258 4 294 16 Q330 28 362 55 Q394 82 418.5 125.5 Q443 169 454 231 L502 500 L520 500 L432 0 L414 0 L437 134 Q423 104 402 77.5 Q381 51 354 31.5 Q327 12 293.5 1 Q260 -10 222 -10 Q135 -10 104.5 44 Q74 98 91 190 L146 500 L164 500 Z " />
<glyph glyph-name="ucircumflex" unicode="&#xfb;" horiz-adv-x="570" d="M382 713 L464 562 L453 557 L371 694 L240 557 L231 562 L365 713 L382 713 Z M164 500 L109 190 Q101 148 103.5 114 Q106 80 119.5 55.5 Q133 31 159 17.5 Q185 4 224 4 Q258 4 294 16 Q330 28 362 55 Q394 82 418.5 125.5 Q443 169 454 231 L502 500 L520 500 L432 0 L414 0 L437 134 Q423 104 402 77.5 Q381 51 354 31.5 Q327 12 293.5 1 Q260 -10 222 -10 Q135 -10 104.5 44 Q74 98 91 190 L146 500 L164 500 Z " />
<glyph glyph-name="udieresis" unicode="&#xfc;" horiz-adv-x="570" d="M406 622 L411 646 L429 646 L424 622 L406 622 Z M286 622 L291 646 L309 646 L304 622 L286 622 Z M164 500 L109 190 Q101 148 103.5 114 Q106 80 119.5 55.5 Q133 31 159 17.5 Q185 4 224 4 Q258 4 294 16 Q330 28 362 55 Q394 82 418.5 125.5 Q443 169 454 231 L502 500 L520 500 L432 0 L414 0 L437 134 Q423 104 402 77.5 Q381 51 354 31.5 Q327 12 293.5 1 Q260 -10 222 -10 Q135 -10 104.5 44 Q74 98 91 190 L146 500 L164 500 Z " />
<glyph glyph-name="ugrave" unicode="&#xf9;" horiz-adv-x="570" d="M315 713 L401 557 L386 557 L295 708 L315 713 Z M164 500 L109 190 Q101 148 103.5 114 Q106 80 119.5 55.5 Q133 31 159 17.5 Q185 4 224 4 Q258 4 294 16 Q330 28 362 55 Q394 82 418.5 125.5 Q443 169 454 231 L502 500 L520 500 L432 0 L414 0 L437 134 Q423 104 402 77.5 Q381 51 354 31.5 Q327 12 293.5 1 Q260 -10 222 -10 Q135 -10 104.5 44 Q74 98 91 190 L146 500 L164 500 Z " />
<glyph glyph-name="ydieresis" unicode="&#xff;" horiz-adv-x="444" d="M342 622 L347 646 L365 646 L360 622 L342 622 Z M222 622 L227 646 L245 646 L240 622 L222 622 Z M79 500 L171 66 Q175 51 177 38.5 Q179 26 181 9 Q188 26 195 38 Q202 50 211 66 L462 500 L481 500 L140 -90 Q103 -153 61 -181 Q19 -209 -25 -210 L-21 -191 Q19 -190 52.5 -169 Q86 -148 119 -91 L168 -8 L59 500 L79 500 Z " />
<glyph glyph-name="C" unicode="C" horiz-adv-x="665" d="M626 174 Q606 133 575.5 99 Q545 65 506 41 Q467 17 421.5 3.5 Q376 -10 327 -10 Q252 -10 199 19 Q146 48 115 97.5 Q84 147 75 212.5 Q66 278 79 350 Q92 422 124 487.5 Q156 553 204 602.5 Q252 652 315.5 681 Q379 710 454 710 Q503 710 543.5 696.5 Q584 683 614.5 659 Q645 635 663.5 601 Q682 567 688 526 L667 526 Q663 563 646 593.5 Q629 624 601.5 646.5 Q574 669 535.5 681.5 Q497 694 451 694 Q382 694 323.5 668 Q265 642 220 595.5 Q175 549 144.5 486 Q114 423 101 350 Q88 276 96.5 213.5 Q105 151 133.5 104.5 Q162 58 211.5 32 Q261 6 330 6 Q376 6 418.5 18.5 Q461 31 496.5 53.5 Q532 76 560 106.5 Q588 137 605 174 L626 174 Z " />
<glyph glyph-name="nbspace" unicode="&#xa0;" horiz-adv-x="240" d="" />
<glyph glyph-name="A" unicode="A" horiz-adv-x="591" d="M377 694 Q365 668 351.5 644 Q338 620 327 600 L131 250 L467 250 L393 600 Q388 621 384.5 644.5 Q381 668 377 694 Z M393 700 L538 0 L516 0 L471 235 L122 235 L-6 0 L-27 0 L365 700 L393 700 Z " />
<glyph glyph-name="B" unicode="B" horiz-adv-x="654" d="M346 16 Q394 16 430.5 30.5 Q467 45 493 68.5 Q519 92 534 122 Q549 152 555 184 Q561 216 555 247 Q549 278 530.5 302 Q512 326 480 341 Q448 356 402 356 L140 356 L80 16 L346 16 Z M394 372 Q440 372 474.5 387 Q509 402 532 425.5 Q555 449 568 477.5 Q581 506 586 533 Q591 560 587.5 587 Q584 614 568.5 635.5 Q553 657 523.5 670.5 Q494 684 448 684 L198 684 L143 372 L394 372 Z M58 0 L181 700 L451 700 Q501 700 534 685.5 Q567 671 585 648 Q603 625 608 595.5 Q613 566 608 536 Q603 507 590.5 479 Q578 451 557.5 428 Q537 405 508 388.5 Q479 372 441 367 Q480 363 508.5 347 Q537 331 554 306.5 Q571 282 576.5 251 Q582 220 576 187 Q570 151 552 117.5 Q534 84 505 57.5 Q476 31 435.5 15.5 Q395 0 344 0 L58 0 Z " />
<glyph glyph-name="Eng" unicode="&#x14a;" horiz-adv-x="660" d="M211 700 L486 78 Q492 64 497.5 50.5 Q503 37 508 23 Q509 40 511.5 56 Q514 72 517 89 L625 700 L645 700 L522 0 L504 -97 Q493 -158 461.5 -184.5 Q430 -211 385 -212 L388 -196 Q426 -196 451 -175 Q476 -154 486 -97 L504 0 L500 0 L220 632 Q214 646 208 659.5 Q202 673 198 687 L188 626 L78 0 L58 0 L181 700 L211 700 Z " />
<glyph glyph-name="Eth" unicode="&#xd0;" horiz-adv-x="703" d="M310 16 Q377 16 433.5 42.5 Q490 69 532.5 114.5 Q575 160 604 222 Q633 284 645 356 Q658 429 650 489 Q642 549 614.5 592.5 Q587 636 540 660 Q493 684 428 684 L198 684 L143 372 L269 372 L266 354 L140 354 L80 16 L310 16 Z M58 0 L120 354 L52 354 L55 372 L123 372 L181 700 L431 700 Q499 700 549.5 675 Q600 650 630.5 604.5 Q661 559 670.5 495.5 Q680 432 667 356 Q653 280 622 215 Q591 150 545 102 Q499 54 439 27 Q379 0 308 0 L58 0 Z " />
<glyph glyph-name="IJ" unicode="&#x132;" horiz-adv-x="682" d="M647 700 L667 700 L570 153 Q558 81 505 35.5 Q452 -10 364 -10 Q327 -10 298.5 0 Q270 10 250 28 Q230 46 220 70 Q210 94 211 123 L232 123 Q230 74 266 40 Q302 6 367 6 Q409 6 441 18 Q473 30 495.5 50.5 Q518 71 531.5 97.5 Q545 124 550 153 L647 700 Z M58 0 L181 700 L201 700 L78 0 L58 0 Z " />
<glyph glyph-name="Thorn" unicode="&#xde;" horiz-adv-x="612" d="M112 196 L371 196 Q415 196 449 210 Q483 224 507.5 248 Q532 272 547 305 Q562 338 569 377 Q575 412 572 443 Q569 474 553.5 497.5 Q538 521 508.5 534.5 Q479 548 433 548 L174 548 L112 196 Z M58 0 L181 700 L201 700 L177 564 L436 564 Q486 564 519 549.5 Q552 535 570.5 509.5 Q589 484 593.5 450 Q598 416 591 377 Q584 336 567.5 300.5 Q551 265 524 238 Q497 211 458.5 195.5 Q420 180 368 180 L109 180 L78 0 L58 0 Z " />
<glyph glyph-name="longs" unicode="&#x17f;" horiz-adv-x="239" d="M311 710 Q325 710 341 709 Q357 708 374 704 L371 688 Q354 693 338.5 694.5 Q323 696 309 696 Q199 696 176 571 L41 -200 L23 -200 L158 571 Q182 710 311 710 Z " />
<glyph glyph-name="eng" unicode="&#x14b;" horiz-adv-x="575" d="M168 500 L144 366 Q158 396 179 422.5 Q200 449 227 468.5 Q254 488 287.5 499 Q321 510 359 510 Q402 510 431 496 Q460 482 476 456 Q492 430 495 393 Q498 356 490 310 L424 -66 Q413 -127 381.5 -153.5 Q350 -180 305 -181 L308 -164 Q325 -164 341 -159 Q357 -154 369.5 -143 Q382 -132 391.5 -113 Q401 -94 406 -66 L472 310 Q479 352 477 386 Q475 420 461.5 444.5 Q448 469 422 482.5 Q396 496 357 496 Q323 496 287 484 Q251 472 219 445 Q187 418 162.5 374.5 Q138 331 127 269 L80 0 L62 0 L150 500 L168 500 Z " />
<glyph glyph-name="eth" unicode="&#xf0;" horiz-adv-x="570" d="M318 467 Q261 467 218.5 447 Q176 427 146.5 394.5 Q117 362 99.5 320 Q82 278 75 234 Q67 188 71.5 146.5 Q76 105 95.5 74 Q115 43 150.5 24.5 Q186 6 241 6 Q292 6 335.5 30.5 Q379 55 413 99 Q447 143 472 204 Q497 265 511 338 Q499 360 480 383 Q461 406 437 425 Q413 444 383 455.5 Q353 467 318 467 Z M306 710 Q423 710 485 639 L568 704 L576 693 L494 628 Q529 582 539.5 513.5 Q550 445 534 354 Q519 269 492.5 201.5 Q466 134 428.5 87 Q391 40 343 15 Q295 -10 238 -10 Q179 -10 140 9.5 Q101 29 79.5 62.5 Q58 96 52 140 Q46 184 54 234 Q61 281 81 326 Q101 371 133.5 405.5 Q166 440 212.5 461 Q259 482 321 482 Q358 482 388.5 471 Q419 460 443 442.5 Q467 425 485 403 Q503 381 515 358 Q529 439 519 504 Q509 569 477 614 L378 536 L370 548 L468 625 Q440 660 398 678.5 Q356 697 299 697 L306 710 Z " />
<glyph glyph-name="ij" unicode="&#x133;" horiz-adv-x="428" d="M404 638 L399 612 L377 612 L382 638 L404 638 Z M378 500 L273 -96 Q262 -157 230.5 -183.5 Q199 -210 155 -211 L158 -195 Q196 -195 220.5 -174 Q245 -153 255 -96 L360 500 L378 500 Z M190 638 L185 612 L163 612 L168 638 L190 638 Z M164 500 L76 0 L58 0 L146 500 L164 500 Z " />
<glyph glyph-name="thorn" unicode="&#xfe;" horiz-adv-x="579" d="M358 510 Q409 510 445.5 491 Q482 472 503 437.5 Q524 403 530 355 Q536 307 526 250 Q516 193 493.5 145 Q471 97 437.5 62.5 Q404 28 361 9 Q318 -10 267 -10 Q230 -10 200 2.5 Q170 15 148.5 36.5 Q127 58 115 86.5 Q103 115 103 147 L42 -201 L24 -201 L183 700 L201 700 L139 350 Q151 381 171.5 410 Q192 439 219.5 461 Q247 483 282 496.5 Q317 510 358 510 Z M356 497 Q316 497 278.5 482 Q241 467 210 436 Q179 405 155.5 357 Q132 309 120 242 Q112 195 116 152 Q120 109 138 76 Q156 43 188.5 23 Q221 3 269 3 Q315 3 354 21.5 Q393 40 423.5 72.5 Q454 105 475 150.5 Q496 196 506 250 Q515 304 510 349.5 Q505 395 486.5 427.5 Q468 460 435 478.5 Q402 497 356 497 Z " />
<glyph glyph-name="onequarter" unicode="&#xbc;" horiz-adv-x="678" d="M343 125 L497 125 L534 336 L343 125 Z M553 356 L513 125 L570 125 L567 111 L510 111 L491 0 L475 0 L494 111 L321 111 L324 126 L534 356 L553 356 Z M59 345 L61 360 L157 360 L216 691 L86 612 L79 624 L219 708 L236 708 L174 360 L256 360 L254 345 L59 345 Z M11 0 L647 700 L668 700 L32 0 L11 0 Z " />
<glyph glyph-name="onehalf" unicode="&#xbd;" horiz-adv-x="678" d="M500 363 Q530 363 550 354 Q570 345 581 330.5 Q592 316 595 297 Q598 278 594 258 Q589 232 577 208 Q565 184 536.5 156.5 Q508 129 459 95 Q410 61 332 15 L557 15 L555 0 L308 0 L310 16 Q392 65 442 100.5 Q492 136 520.5 163 Q549 190 560.5 212.5 Q572 235 576 258 Q579 275 576.5 291.5 Q574 308 565 320.5 Q556 333 539 341 Q522 349 497 349 Q448 349 418.5 325 Q389 301 377 266 L362 266 Q373 307 409.5 335 Q446 363 500 363 Z M52 345 L54 360 L150 360 L209 691 L79 612 L72 624 L212 708 L229 708 L167 360 L249 360 L247 345 L52 345 Z M4 0 L640 700 L661 700 L25 0 L4 0 Z " />
<glyph glyph-name="threequarters" unicode="&#xbe;" horiz-adv-x="678" d="M298 125 L452 125 L489 336 L298 125 Z M508 356 L468 125 L525 125 L522 111 L465 111 L446 0 L430 0 L449 111 L276 111 L279 126 L489 356 L508 356 Z M224 708 Q283 708 307 682.5 Q331 657 324 619 Q316 578 287 556 Q258 534 220 527 Q259 522 281 498.5 Q303 475 295 435 Q292 416 281 398.5 Q270 381 252.5 367.5 Q235 354 211 346 Q187 338 157 338 Q103 338 76 362.5 Q49 387 50 425 L67 425 Q65 393 88 372.5 Q111 352 160 352 Q214 352 243.5 377.5 Q273 403 278 435 Q286 475 261 498 Q236 521 176 521 L178 535 Q236 535 267.5 556.5 Q299 578 307 618 Q312 650 294 672 Q276 694 221 694 Q173 694 145 675 Q117 656 108 624 L90 624 Q103 661 137 684.5 Q171 708 224 708 Z M8 0 L644 700 L665 700 L29 0 L8 0 Z " />
<glyph glyph-name="onethird" unicode="&#x2153;" horiz-adv-x="678" d="M493 363 Q552 363 576 337.5 Q600 312 593 274 Q585 233 556 211 Q527 189 489 182 Q528 177 550 153.5 Q572 130 564 90 Q561 71 550 53.5 Q539 36 521.5 22.5 Q504 9 480 1 Q456 -7 426 -7 Q372 -7 345 17.5 Q318 42 319 80 L336 80 Q334 48 357 27.5 Q380 7 429 7 Q483 7 512.5 32.5 Q542 58 547 90 Q555 130 530 153 Q505 176 445 176 L447 190 Q505 190 536.5 211.5 Q568 233 576 273 Q581 305 563 327 Q545 349 490 349 Q442 349 414 330 Q386 311 377 279 L359 279 Q372 316 406 339.5 Q440 363 493 363 Z M-2 0 L634 700 L655 700 L19 0 L-2 0 Z M58 345 L60 360 L156 360 L215 691 L85 612 L78 624 L218 708 L235 708 L173 360 L255 360 L253 345 L58 345 Z " />
<glyph glyph-name="Euro" unicode="&#x20ac;" horiz-adv-x="650" d="M617 171 Q576 89 505 38 Q434 -13 335 -13 Q273 -13 228 7 Q183 27 154.5 62.5 Q126 98 112.5 145.5 Q99 193 99 249 L20 249 L33 264 L99 264 Q100 303 108 347 Q111 365 115.5 383 Q120 401 125 419 L50 419 L63 434 L130 434 Q149 491 179.5 541 Q210 591 251.5 628 Q293 665 345.5 686 Q398 707 462 707 Q560 707 614 656 Q668 605 679 523 L658 523 Q653 560 639 590.5 Q625 621 600.5 643.5 Q576 666 540.5 678.5 Q505 691 459 691 Q400 691 351.5 672 Q303 653 264.5 619 Q226 585 197.5 538 Q169 491 151 434 L502 434 L489 419 L147 419 Q142 402 137.5 384 Q133 366 130 347 Q126 325 123.5 304.5 Q121 284 120 264 L372 264 L359 249 L120 249 Q120 195 132.5 149.5 Q145 104 171.5 71.5 Q198 39 239.5 21 Q281 3 338 3 Q384 3 424 15.5 Q464 28 496 50.5 Q528 73 553 103.5 Q578 134 596 171 L617 171 Z " />
<glyph glyph-name="multiply" unicode="&#xd7;" horiz-adv-x="570" d="M295 288 L529 487 L538 476 L304 277 L468 78 L455 67 L291 266 L57 67 L48 78 L282 277 L118 476 L131 487 L295 288 Z " />
<glyph glyph-name="minus" unicode="&#x2212;" horiz-adv-x="570" d="M43 269 L46 285 L544 285 L541 269 L43 269 Z " />
<glyph glyph-name="estimated" unicode="&#x212e;" horiz-adv-x="681" d="M443 694 Q382 694 329.5 673.5 Q277 653 234.5 617 Q192 581 160.5 530.5 Q129 480 110 420 L662 420 Q666 478 655.5 528 Q645 578 618.5 615 Q592 652 548.5 673 Q505 694 443 694 Z M446 710 Q510 710 557 688 Q604 666 633.5 626 Q663 586 675 529.5 Q687 473 682 404 L105 404 Q97 377 93 350 Q80 276 88.5 213.5 Q97 151 125.5 104.5 Q154 58 203.5 32 Q253 6 322 6 Q368 6 410.5 18.5 Q453 31 488.5 53.5 Q524 76 552 106.5 Q580 137 597 174 L618 174 Q598 133 567.5 99 Q537 65 498 41 Q459 17 413.5 3.5 Q368 -10 319 -10 Q244 -10 191 19 Q138 48 107 97.5 Q76 147 67 212.5 Q58 278 71 350 Q84 422 116 487.5 Q148 553 196 602.5 Q244 652 307.5 681 Q371 710 446 710 Z " />
<glyph glyph-name="brokenbar" unicode="&#xa6;" horiz-adv-x="260" d="M42 -211 L99 112 L119 112 L62 -211 L42 -211 Z M146 377 L203 700 L223 700 L166 377 L146 377 Z " />
<glyph glyph-name="minute" unicode="&#x2032;" horiz-adv-x="150" d="M123 535 L143 700 L173 700 L136 535 L123 535 Z " />
<glyph glyph-name="second" unicode="&#x2033;" horiz-adv-x="246" d="M219 535 L239 700 L269 700 L232 535 L219 535 Z M123 535 L143 700 L173 700 L136 535 L123 535 Z " />
<glyph glyph-name="commaaccent" unicode="&#xf6c3;" horiz-adv-x="142" d="M41 -59 L36 -90 Q31 -118 18 -141.5 Q5 -165 -14 -185 L-22 -178 Q15 -139 24 -90 L7 -90 L12 -59 L41 -59 Z " />
<glyph glyph-name="arrowleft" unicode="&#x2190;" horiz-adv-x="611" d="M305 487 L314 476 L90 285 L571 285 L568 269 L87 269 L244 78 L231 67 L58 277 L305 487 Z " />
<glyph glyph-name="arrowright" unicode="&#x2192;" horiz-adv-x="611" d="M569 277 L322 67 L313 78 L538 269 L57 269 L60 285 L541 285 L383 476 L396 487 L569 277 Z " />
<glyph glyph-name="arrowup" unicode="&#x2191;" horiz-adv-x="520" d="M483 301 L470 290 L312 481 L228 0 L212 0 L296 481 L72 290 L63 301 L310 511 L483 301 Z " />
<glyph glyph-name="arrowdown" unicode="&#x2193;" horiz-adv-x="520" d="M316 500 L231 19 L456 210 L465 199 L218 -11 L45 199 L58 210 L215 19 L300 500 L316 500 Z " />
<glyph glyph-name="afii00208" unicode="&#x2015;" horiz-adv-x="1029" d="M57 267 L60 285 L989 285 L986 267 L57 267 Z " />
<glyph glyph-name="afii10017" unicode="&#x410;" horiz-adv-x="591" d="M377 694 Q365 668 351.5 644 Q338 620 327 600 L131 250 L467 250 L393 600 Q388 621 384.5 644.5 Q381 668 377 694 Z M393 700 L538 0 L516 0 L471 235 L122 235 L-6 0 L-27 0 L365 700 L393 700 Z " />
<glyph glyph-name="afii10018" unicode="&#x411;" horiz-adv-x="654" d="M80 16 L346 16 Q394 16 430.5 30.5 Q467 45 493 69.5 Q519 94 535 126 Q551 158 557 194 Q563 230 558 263 Q553 296 534.5 321 Q516 346 484 361 Q452 376 406 376 L144 376 L80 16 Z M609 700 L606 684 L198 684 L147 392 L413 392 Q464 392 499 375.5 Q534 359 553.5 331.5 Q573 304 579 269 Q585 234 578 197 Q571 157 553 121.5 Q535 86 505.5 59 Q476 32 435.5 16 Q395 0 344 0 L58 0 L181 700 L609 700 Z " />
<glyph glyph-name="afii10019" unicode="&#x412;" horiz-adv-x="654" d="M346 16 Q394 16 430.5 30.5 Q467 45 493 68.5 Q519 92 534 122 Q549 152 555 184 Q561 216 555 247 Q549 278 530.5 302 Q512 326 480 341 Q448 356 402 356 L140 356 L80 16 L346 16 Z M394 372 Q440 372 474.5 387 Q509 402 532 425.5 Q555 449 568 477.5 Q581 506 586 533 Q591 560 587.5 587 Q584 614 568.5 635.5 Q553 657 523.5 670.5 Q494 684 448 684 L198 684 L143 372 L394 372 Z M58 0 L181 700 L451 700 Q501 700 534 685.5 Q567 671 585 648 Q603 625 608 595.5 Q613 566 608 536 Q603 507 590.5 479 Q578 451 557.5 428 Q537 405 508 388.5 Q479 372 441 367 Q480 363 508.5 347 Q537 331 554 306.5 Q571 282 576.5 251 Q582 220 576 187 Q570 151 552 117.5 Q534 84 505 57.5 Q476 31 435.5 15.5 Q395 0 344 0 L58 0 Z " />
<glyph glyph-name="afii10020" unicode="&#x413;" horiz-adv-x="529" d="M602 700 L599 684 L198 684 L78 0 L58 0 L181 700 L602 700 Z " />
<glyph glyph-name="afii10021" unicode="&#x414;" horiz-adv-x="740" d="M363 684 Q345 591 321 498.5 Q297 406 265 320 Q233 234 190.5 156.5 Q148 79 94 16 L532 16 L650 684 L363 684 Z M673 700 L552 16 L664 16 L625 -162 L606 -162 L635 0 L17 0 L-12 -162 L-31 -162 L-8 16 L73 16 Q134 88 178.5 171.5 Q223 255 254.5 343.5 Q286 432 307.5 522.5 Q329 613 346 700 L673 700 Z " />
<glyph glyph-name="afii10022" unicode="&#x415;" horiz-adv-x="600" d="M58 0 L181 700 L623 700 L620 684 L198 684 L143 372 L509 372 L506 356 L140 356 L80 16 L504 16 L502 0 L58 0 Z " />
<glyph glyph-name="afii10023" unicode="&#x401;" horiz-adv-x="600" d="M469 771 L473 792 L491 792 L487 771 L469 771 Z M349 771 L353 792 L371 792 L367 771 L349 771 Z M58 0 L181 700 L623 700 L620 684 L198 684 L143 372 L509 372 L506 356 L140 356 L80 16 L504 16 L502 0 L58 0 Z " />
<glyph glyph-name="afii10024" unicode="&#x416;" horiz-adv-x="864" d="M382 0 L505 700 L525 700 L402 0 L382 0 Z M783 0 L470 364 L880 700 L908 700 L496 365 L811 0 L783 0 Z M-27 0 L416 365 L122 700 L150 700 L442 364 L1 0 L-27 0 Z " />
<glyph glyph-name="afii10025" unicode="&#x417;" horiz-adv-x="601" d="M303 371 Q411 371 476.5 413.5 Q542 456 556 538 Q562 571 555.5 599.5 Q549 628 528 649 Q507 670 471.5 682 Q436 694 385 694 Q294 694 235.5 654.5 Q177 615 159 552 L138 552 Q162 622 226.5 666 Q291 710 388 710 Q441 710 479.5 697 Q518 684 542 661 Q566 638 574.5 607 Q583 576 577 540 Q569 496 548 463.5 Q527 431 496 409 Q465 387 425.5 375 Q386 363 343 361 Q388 359 424 346.5 Q460 334 484 311 Q508 288 517.5 254.5 Q527 221 520 178 Q514 142 492 108 Q470 74 436 48 Q402 22 357 6 Q312 -10 259 -10 Q211 -10 173.5 2.5 Q136 15 110 36.5 Q84 58 71 88 Q58 118 59 154 L80 154 Q78 122 89 95 Q100 68 123.5 48.5 Q147 29 182 17.5 Q217 6 262 6 Q313 6 354.5 21 Q396 36 426.5 60.5 Q457 85 475.5 116 Q494 147 500 180 Q514 262 460.5 306 Q407 350 299 350 L303 371 Z " />
<glyph glyph-name="afii10026" unicode="&#x418;" horiz-adv-x="660" d="M201 700 L93 89 Q90 72 87 56 Q84 40 80 23 Q100 53 120 78 L615 700 L645 700 L522 0 L502 0 L612 628 Q615 643 617.5 658.5 Q620 674 624 689 Q615 675 604 661.5 Q593 648 582 634 L79 0 L58 0 L181 700 L201 700 Z " />
<glyph glyph-name="afii10027" unicode="&#x419;" horiz-adv-x="660" d="M201 700 L93 89 Q90 72 87 56 Q84 40 80 23 Q100 53 120 78 L615 700 L645 700 L522 0 L502 0 L612 628 Q615 643 617.5 658.5 Q620 674 624 689 Q615 675 604 661.5 Q593 648 582 634 L79 0 L58 0 L181 700 L201 700 Z M355 819 Q350 787 365 765.5 Q380 744 420 744 Q464 744 485.5 766.5 Q507 789 513 819 L529 819 Q521 781 493.5 756.5 Q466 732 418 732 Q371 732 352 756.5 Q333 781 339 819 L355 819 Z " />
<glyph glyph-name="afii10028" unicode="&#x41a;" horiz-adv-x="550" d="M58 0 L181 700 L201 700 L78 0 L58 0 Z M469 0 L156 364 L566 700 L594 700 L182 365 L497 0 L469 0 Z " />
<glyph glyph-name="afii10029" unicode="&#x41b;" horiz-adv-x="631" d="M616 700 L493 0 L473 0 L593 684 L310 684 Q298 631 280 558 Q262 485 239 407 Q216 329 186.5 253 Q157 177 123 118 Q89 59 50.5 24.5 Q12 -10 -34 -10 L-31 7 Q7 7 41 38.5 Q75 70 105 124 Q139 182 167.5 257.5 Q196 333 220 412.5 Q244 492 262 567.5 Q280 643 293 700 L616 700 Z " />
<glyph glyph-name="afii10030" unicode="&#x41c;" horiz-adv-x="795" d="M214 700 L353 67 L362 18 Q374 43 389 69 L748 700 L780 700 L657 0 L638 0 L751 644 L760 690 Q754 678 747.5 666.5 Q741 655 734 643 L368 0 L348 0 L206 644 L197 690 Q196 679 194 667.5 Q192 656 190 645 L77 0 L58 0 L181 700 L214 700 Z " />
<glyph glyph-name="afii10031" unicode="&#x41d;" horiz-adv-x="669" d="M511 0 L573 356 L140 356 L78 0 L58 0 L181 700 L201 700 L143 372 L576 372 L634 700 L654 700 L531 0 L511 0 Z " />
<glyph glyph-name="afii10032" unicode="&#x41e;" horiz-adv-x="732" d="M451 710 Q526 710 578.5 681 Q631 652 661 602.5 Q691 553 699.5 487.5 Q708 422 695 350 Q682 278 651 212.5 Q620 147 572.5 97.5 Q525 48 462 19 Q399 -10 324 -10 Q249 -10 196.5 19 Q144 48 113.5 97.5 Q83 147 74.5 212.5 Q66 278 79 350 Q92 422 123.5 487.5 Q155 553 202.5 602.5 Q250 652 313 681 Q376 710 451 710 Z M448 694 Q379 694 321 668 Q263 642 218.5 595.5 Q174 549 144 486 Q114 423 101 350 Q88 276 96 213.5 Q104 151 132 104.5 Q160 58 209 32 Q258 6 327 6 Q396 6 454 32 Q512 58 556.5 104.5 Q601 151 630.5 213.5 Q660 276 673 350 Q686 423 678.5 486 Q671 549 643 595.5 Q615 642 566 668 Q517 694 448 694 Z " />
<glyph glyph-name="afii10033" unicode="&#x41f;" horiz-adv-x="643" d="M494 0 L614 684 L190 684 L70 0 L50 0 L173 700 L636 700 L513 0 L494 0 Z " />
<glyph glyph-name="afii10034" unicode="&#x420;" horiz-adv-x="612" d="M198 684 L136 332 L395 332 Q439 332 473 346 Q507 360 531.5 384 Q556 408 571 441 Q586 474 593 513 Q599 548 596 579 Q593 610 577.5 633.5 Q562 657 532.5 670.5 Q503 684 457 684 L198 684 Z M460 700 Q510 700 543 685.5 Q576 671 594.5 645.5 Q613 620 617.5 586 Q622 552 615 513 Q608 472 591.5 436.5 Q575 401 548 374 Q521 347 482.5 331.5 Q444 316 392 316 L133 316 L78 0 L58 0 L181 700 L460 700 Z " />
<glyph glyph-name="afii10035" unicode="&#x421;" horiz-adv-x="665" d="M626 174 Q606 133 575.5 99 Q545 65 506 41 Q467 17 421.5 3.5 Q376 -10 327 -10 Q252 -10 199 19 Q146 48 115 97.5 Q84 147 75 212.5 Q66 278 79 350 Q92 422 124 487.5 Q156 553 204 602.5 Q252 652 315.5 681 Q379 710 454 710 Q503 710 543.5 696.5 Q584 683 614.5 659 Q645 635 663.5 601 Q682 567 688 526 L667 526 Q663 563 646 593.5 Q629 624 601.5 646.5 Q574 669 535.5 681.5 Q497 694 451 694 Q382 694 323.5 668 Q265 642 220 595.5 Q175 549 144.5 486 Q114 423 101 350 Q88 276 96.5 213.5 Q105 151 133.5 104.5 Q162 58 211.5 32 Q261 6 330 6 Q376 6 418.5 18.5 Q461 31 496.5 53.5 Q532 76 560 106.5 Q588 137 605 174 L626 174 Z " />
<glyph glyph-name="afii10036" unicode="&#x422;" horiz-adv-x="542" d="M222 0 L342 684 L92 684 L95 700 L615 700 L612 684 L362 684 L242 0 L222 0 Z " />
<glyph glyph-name="afii10037" unicode="&#x423;" horiz-adv-x="578" d="M128 700 L279 291 Q284 278 288.5 264.5 Q293 251 296 234 Q306 251 315.5 264.5 Q325 278 335 291 L629 700 L651 700 L199 75 Q165 28 123.5 9.5 Q82 -9 44 -9 Q37 -9 29.5 -8.5 Q22 -8 16 -7 L19 9 Q31 6 47 6 Q81 6 117 22.5 Q153 39 182 79 L283 219 L104 700 L128 700 Z " />
<glyph glyph-name="afii10038" unicode="&#x424;" horiz-adv-x="732" d="M102 357 Q93 304 103.5 261.5 Q114 219 143.5 188 Q173 157 221.5 140 Q270 123 337 123 L420 591 Q284 589 202.5 525.5 Q121 462 102 357 Z M674 357 Q693 462 633.5 525.5 Q574 589 440 591 L357 123 Q424 123 478.5 140 Q533 157 573.5 188 Q614 219 639.5 261.5 Q665 304 674 357 Z M459 700 L442 605 Q515 604 567.5 585.5 Q620 567 651.5 534.5 Q683 502 694.5 457 Q706 412 696 357 Q687 302 659.5 256.5 Q632 211 588.5 179 Q545 147 486.5 128.5 Q428 110 355 109 L336 0 L316 0 L335 109 Q262 110 209.5 128.5 Q157 147 125 179 Q93 211 82 256.5 Q71 302 80 357 Q90 412 117 457 Q144 502 187.5 534.5 Q231 567 290 585.5 Q349 604 422 605 L439 700 L459 700 Z " />
<glyph glyph-name="afii10039" unicode="&#x425;" horiz-adv-x="589" d="M137 700 L300 409 Q305 400 309.5 390 Q314 380 318 368 Q326 380 335.5 390.5 Q345 401 353 409 L618 700 L640 700 L328 358 L529 0 L504 0 L334 304 Q329 314 324 324 Q319 334 315 347 Q306 334 296.5 324 Q287 314 278 304 L3 0 L-20 0 L304 356 L113 700 L137 700 Z " />
<glyph glyph-name="afii10040" unicode="&#x426;" horiz-adv-x="711" d="M201 700 L80 16 L504 16 L625 700 L644 700 L523 16 L635 16 L596 -162 L577 -162 L606 0 L58 0 L181 700 L201 700 Z " />
<glyph glyph-name="afii10041" unicode="&#x427;" horiz-adv-x="639" d="M482 0 L546 365 Q527 326 497 296.5 Q467 267 431 247 Q395 227 355.5 217 Q316 207 279 207 Q243 207 211.5 216.5 Q180 226 157.5 244.5 Q135 263 124.5 291.5 Q114 320 121 358 L181 700 L201 700 L141 359 Q135 325 144 299.5 Q153 274 173 256.5 Q193 239 221.5 230.5 Q250 222 283 222 Q325 222 369.5 236 Q414 250 453 277.5 Q492 305 521 346.5 Q550 388 560 444 L605 700 L624 700 L501 0 L482 0 Z " />
<glyph glyph-name="afii10042" unicode="&#x428;" horiz-adv-x="879" d="M200 700 L79 16 L391 16 L512 700 L532 700 L411 16 L723 16 L844 700 L864 700 L741 0 L58 0 L181 700 L200 700 Z " />
<glyph glyph-name="afii10043" unicode="&#x429;" horiz-adv-x="931" d="M200 700 L79 16 L391 16 L512 700 L532 700 L411 16 L723 16 L844 700 L864 700 L743 16 L855 16 L816 -162 L797 -162 L826 0 L58 0 L181 700 L200 700 Z " />
<glyph glyph-name="afii10044" unicode="&#x42a;" horiz-adv-x="711" d="M137 16 L403 16 Q451 16 487.5 30.5 Q524 45 550 69.5 Q576 94 592 126 Q608 158 614 194 Q620 230 615 263 Q610 296 591.5 321 Q573 346 541 361 Q509 376 463 376 L201 376 L137 16 Z M258 700 L204 392 L470 392 Q521 392 556 375.5 Q591 359 610.5 331.5 Q630 304 636 269 Q642 234 635 197 Q628 157 610 121.5 Q592 86 562.5 59 Q533 32 492.5 16 Q452 0 401 0 L115 0 L235 684 L90 684 L93 700 L258 700 Z " />
<glyph glyph-name="afii10045" unicode="&#x42b;" horiz-adv-x="785" d="M627 0 L750 700 L770 700 L647 0 L627 0 Z M80 16 L346 16 Q394 16 430.5 30.5 Q467 45 493 69.5 Q519 94 535 126 Q551 158 557 194 Q563 230 558 263 Q553 296 534.5 321 Q516 346 484 361 Q452 376 406 376 L144 376 L80 16 Z M201 700 L147 392 L413 392 Q464 392 499 375.5 Q534 359 553.5 331.5 Q573 304 579 269 Q585 234 578 197 Q571 157 553 121.5 Q535 86 505.5 59 Q476 32 435.5 16 Q395 0 344 0 L58 0 L181 700 L201 700 Z " />
<glyph glyph-name="afii10046" unicode="&#x42c;" horiz-adv-x="654" d="M80 16 L346 16 Q394 16 430.5 30.5 Q467 45 493 69.5 Q519 94 535 126 Q551 158 557 194 Q563 230 558 263 Q553 296 534.5 321 Q516 346 484 361 Q452 376 406 376 L144 376 L80 16 Z M201 700 L147 392 L413 392 Q464 392 499 375.5 Q534 359 553.5 331.5 Q573 304 579 269 Q585 234 578 197 Q571 157 553 121.5 Q535 86 505.5 59 Q476 32 435.5 16 Q395 0 344 0 L58 0 L181 700 L201 700 Z " />
<glyph glyph-name="afii10047" unicode="&#x42d;" horiz-adv-x="665" d="M381 710 Q456 710 509 681 Q562 652 592.5 602.5 Q623 553 632 487.5 Q641 422 628 350 Q615 278 583.5 212.5 Q552 147 504 97.5 Q456 48 392.5 19 Q329 -10 254 -10 Q205 -10 164 3.5 Q123 17 93 41 Q63 65 44 99 Q25 133 19 174 L40 174 Q44 137 61.5 106.5 Q79 76 106.5 53.5 Q134 31 172 18.5 Q210 6 257 6 Q327 6 386 33 Q445 60 490 107 Q535 154 565 218 Q595 282 607 356 L251 356 L254 372 L609 372 Q619 441 609 500 Q599 559 570 602 Q541 645 493 669.5 Q445 694 378 694 Q331 694 289 681.5 Q247 669 211 646.5 Q175 624 147.5 593.5 Q120 563 102 526 L81 526 Q101 567 132 601 Q163 635 202 659 Q241 683 286.5 696.5 Q332 710 381 710 Z " />
<glyph glyph-name="afii10048" unicode="&#x42e;" horiz-adv-x="963" d="M679 694 Q610 694 552 668 Q494 642 449.5 595.5 Q405 549 375 486 Q345 423 332 350 Q319 276 327 213.5 Q335 151 363 104.5 Q391 58 440 32 Q489 6 558 6 Q627 6 685 32 Q743 58 787.5 104.5 Q832 151 861.5 213.5 Q891 276 904 350 Q917 423 909.5 486 Q902 549 874 595.5 Q846 642 797 668 Q748 694 679 694 Z M201 700 L143 372 L314 372 Q329 441 361 502 Q393 563 440 609.5 Q487 656 548 683 Q609 710 682 710 Q757 710 809.5 681 Q862 652 892 602.5 Q922 553 930.5 487.5 Q939 422 926 350 Q913 278 882 212.5 Q851 147 803.5 97.5 Q756 48 693 19 Q630 -10 555 -10 Q480 -10 427 18 Q374 46 343.5 95 Q313 144 305 211 Q297 278 311 356 L140 356 L78 0 L58 0 L181 700 L201 700 Z " />
<glyph glyph-name="afii10049" unicode="&#x42f;" horiz-adv-x="643" d="M628 700 L505 0 L485 0 L544 336 L294 336 Q260 336 226.5 325 Q193 314 162.5 278.5 Q132 243 106 176.5 Q80 110 61 0 L41 0 Q59 102 82.5 166 Q106 230 132.5 267.5 Q159 305 186.5 321 Q214 337 240 343 Q167 354 141.5 402.5 Q116 451 129 523 Q135 559 151 591 Q167 623 194 647 Q221 671 259.5 685.5 Q298 700 348 700 L628 700 Z M345 684 Q298 684 264 671 Q230 658 207 636 Q184 614 170.5 585 Q157 556 151 523 Q145 489 148 458 Q151 427 166.5 403.5 Q182 380 211 366 Q240 352 287 352 L547 352 L605 684 L345 684 Z " />
<glyph glyph-name="afii10050" unicode="&#x490;" horiz-adv-x="560" d="M582 700 L603 790 L618 790 L599 684 L198 684 L78 0 L58 0 L181 700 L582 700 Z " />
<glyph glyph-name="afii10051" unicode="&#x402;" horiz-adv-x="709" d="M615 700 L612 684 L362 684 L299 326 Q313 356 334 382.5 Q355 409 382 428.5 Q409 448 442.5 459 Q476 470 514 470 Q557 470 586.5 456 Q616 442 632 416 Q648 390 651 353 Q654 316 646 270 L618 109 Q612 75 594.5 47.5 Q577 20 552 0.5 Q527 -19 496 -29.5 Q465 -40 431 -40 L434 -23 Q463 -23 490 -14 Q517 -5 539.5 11.5 Q562 28 577.5 52.5 Q593 77 599 109 L627 270 Q634 312 632 346 Q630 380 616.5 404.5 Q603 429 577 442.5 Q551 456 512 456 Q479 456 443 443.5 Q407 431 375 404.5 Q343 378 318 336 Q293 294 283 235 L242 0 L222 0 L342 684 L92 684 L95 700 L615 700 Z " />
<glyph glyph-name="afii10052" unicode="&#x403;" horiz-adv-x="529" d="M531 863 L389 727 L374 727 L512 868 L531 863 Z M602 700 L599 684 L198 684 L78 0 L58 0 L181 700 L602 700 Z " />
<glyph glyph-name="afii10053" unicode="&#x404;" horiz-adv-x="665" d="M454 710 Q503 710 543.5 696.5 Q584 683 614.5 659 Q645 635 663.5 601 Q682 567 688 526 L667 526 Q663 563 646 593.5 Q629 624 601.5 646.5 Q574 669 535.5 681.5 Q497 694 451 694 Q384 694 327.5 669.5 Q271 645 226.5 602 Q182 559 151 500 Q120 441 105 372 L461 372 L458 356 L102 356 Q101 354 101 350 Q88 276 96.5 213.5 Q105 151 133.5 104.5 Q162 58 211.5 32 Q261 6 330 6 Q376 6 418.5 18.5 Q461 31 496.5 53.5 Q532 76 560 106.5 Q588 137 605 174 L626 174 Q606 133 575.5 99 Q545 65 506 41 Q467 17 421.5 3.5 Q376 -10 327 -10 Q252 -10 199 19 Q146 48 115 97.5 Q84 147 75 212.5 Q66 278 79 350 Q92 422 124 487.5 Q156 553 204 602.5 Q252 652 315.5 681 Q379 710 454 710 Z " />
<glyph glyph-name="afii10054" unicode="&#x405;" horiz-adv-x="607" d="M387 710 Q438 710 477 698 Q516 686 543 666 Q570 646 584.5 620 Q599 594 601 565 L579 565 Q577 590 565 613.5 Q553 637 529 655 Q505 673 469 683.5 Q433 694 384 694 Q327 694 284.5 680.5 Q242 667 212.5 644.5 Q183 622 166 593.5 Q149 565 144 535 Q136 491 148.5 463 Q161 435 187 418 Q213 401 248.5 392 Q284 383 323 377 Q368 370 411 359.5 Q454 349 486.5 328 Q519 307 535 272.5 Q551 238 541 184 Q534 147 513 112 Q492 77 456.5 50 Q421 23 372.5 6.5 Q324 -10 263 -10 Q212 -10 171 1.5 Q130 13 101.5 33 Q73 53 57 79 Q41 105 40 135 L62 135 Q63 109 76.5 86 Q90 63 115.5 45 Q141 27 178.5 16.5 Q216 6 266 6 Q321 6 365.5 21 Q410 36 442.5 60.5 Q475 85 494.5 117 Q514 149 520 184 Q529 232 513.5 262.5 Q498 293 468 312 Q438 331 397.5 341 Q357 351 315 358 Q274 365 235.5 374.5 Q197 384 169 402.5 Q141 421 127.5 452.5 Q114 484 123 535 Q129 567 148.5 598.5 Q168 630 201 654.5 Q234 679 280.5 694.5 Q327 710 387 710 Z " />
<glyph glyph-name="afii10055" unicode="&#x406;" horiz-adv-x="216" d="M58 0 L181 700 L201 700 L78 0 L58 0 Z " />
<glyph glyph-name="afii10056" unicode="&#x407;" horiz-adv-x="216" d="M254 771 L258 792 L276 792 L272 771 L254 771 Z M134 771 L138 792 L156 792 L152 771 L134 771 Z M58 0 L181 700 L201 700 L78 0 L58 0 Z " />
<glyph glyph-name="afii10057" unicode="&#x408;" horiz-adv-x="482" d="M467 700 L370 153 Q358 81 305 35.5 Q252 -10 164 -10 Q127 -10 98.5 0 Q70 10 50 28 Q30 46 20 70 Q10 94 11 123 L32 123 Q30 74 66 40 Q102 6 167 6 Q209 6 241 18 Q273 30 295.5 50.5 Q318 71 331.5 97.5 Q345 124 350 153 L447 700 L467 700 Z " />
<glyph glyph-name="afii10058" unicode="&#x409;" horiz-adv-x="1069" d="M616 700 L562 392 L828 392 Q879 392 914 375.5 Q949 359 968.5 331.5 Q988 304 994 269 Q1000 234 993 197 Q986 157 968 121.5 Q950 86 920.5 59 Q891 32 850.5 16 Q810 0 759 0 L473 0 L593 684 L310 684 Q298 631 280 558 Q262 485 239 407 Q216 329 186.5 253 Q157 177 123 118 Q89 59 50.5 24.5 Q12 -10 -34 -10 L-31 7 Q7 7 41 38.5 Q75 70 105 124 Q139 182 167.5 257.5 Q196 333 220 412.5 Q244 492 262 567.5 Q280 643 293 700 L616 700 Z M495 16 L761 16 Q809 16 845.5 30.5 Q882 45 908 69.5 Q934 94 950 126 Q966 158 972 194 Q978 230 973 263 Q968 296 949.5 321 Q931 346 899 361 Q867 376 821 376 L559 376 L495 16 Z " />
<glyph glyph-name="afii10059" unicode="&#x40a;" horiz-adv-x="1017" d="M483 16 L709 16 Q757 16 793.5 30.5 Q830 45 856 69.5 Q882 94 898 126 Q914 158 920 194 Q926 230 921 263 Q916 296 897.5 321 Q879 346 847 361 Q815 376 769 376 L547 376 L483 16 Z M201 700 L147 392 L530 392 L584 700 L604 700 L550 392 L776 392 Q827 392 862 375.5 Q897 359 916.5 331.5 Q936 304 942 269 Q948 234 941 197 Q934 157 916 121.5 Q898 86 868.5 59 Q839 32 798.5 16 Q758 0 707 0 L461 0 L527 376 L144 376 L78 0 L58 0 L181 700 L201 700 Z " />
<glyph glyph-name="afii10060" unicode="&#x40b;" horiz-adv-x="737" d="M615 700 L612 684 L362 684 L297 316 Q311 346 332.5 372.5 Q354 399 381 418.5 Q408 438 441.5 449 Q475 460 513 460 Q556 460 585 446 Q614 432 630 406 Q646 380 649 343 Q652 306 644 260 L599 0 L580 0 L625 260 Q632 302 630 336 Q628 370 614.5 394.5 Q601 419 575 432.5 Q549 446 510 446 Q477 446 441 433.5 Q405 421 373 394.5 Q341 368 316 326 Q291 284 281 225 L242 0 L222 0 L342 684 L92 684 L95 700 L615 700 Z " />
<glyph glyph-name="afii10061" unicode="&#x40c;" horiz-adv-x="550" d="M18 0 L141 700 L161 700 L38 0 L18 0 Z M429 0 L116 364 L526 700 L554 700 L142 365 L457 0 L429 0 Z M453 863 L311 727 L296 727 L434 868 L453 863 Z " />
<glyph glyph-name="afii10062" unicode="&#x40e;" horiz-adv-x="578" d="M128 700 L279 291 Q284 278 288.5 264.5 Q293 251 296 234 Q306 251 315.5 264.5 Q325 278 335 291 L629 700 L651 700 L199 75 Q165 28 123.5 9.5 Q82 -9 44 -9 Q37 -9 29.5 -8.5 Q22 -8 16 -7 L19 9 Q31 6 47 6 Q81 6 117 22.5 Q153 39 182 79 L283 219 L104 700 L128 700 Z M324 819 Q319 787 334 765.5 Q349 744 389 744 Q433 744 454.5 766.5 Q476 789 482 819 L498 819 Q490 781 462.5 756.5 Q435 732 387 732 Q340 732 321 756.5 Q302 781 308 819 L324 819 Z " />
<glyph glyph-name="afii10065" unicode="&#x430;" horiz-adv-x="577" d="M319 510 Q360 510 390 496.5 Q420 483 440.5 461 Q461 439 471 410 Q481 381 482 350 L508 500 L526 500 L439 0 L421 0 L446 146 Q435 116 413.5 88 Q392 60 363 38.5 Q334 17 299.5 3.5 Q265 -10 228 -10 Q177 -10 140.5 9 Q104 28 83 62.5 Q62 97 56.5 145 Q51 193 61 250 Q71 307 93.5 355 Q116 403 149 437.5 Q182 472 225 491 Q268 510 319 510 Z M317 497 Q271 497 232 478.5 Q193 460 162.5 427.5 Q132 395 111 349.5 Q90 304 81 250 Q71 196 76 150.5 Q81 105 99.5 72.5 Q118 40 151 21.5 Q184 3 230 3 Q278 3 317.5 23 Q357 43 386.5 76 Q416 109 435.5 152 Q455 195 463 242 Q475 309 468.5 357 Q462 405 442 436 Q422 467 389.5 482 Q357 497 317 497 Z " />
<glyph glyph-name="afii10066" unicode="&#x431;" horiz-adv-x="566" d="M349 497 Q317 497 285 488.5 Q253 480 223 465.5 Q193 451 166 432.5 Q139 414 118 393 Q109 361 103 325 Q76 174 112 88.5 Q148 3 251 3 Q302 3 343 23.5 Q384 44 414.5 79 Q445 114 464.5 159.5 Q484 205 493 255 Q501 299 501 342 Q501 385 486 419.5 Q471 454 438.5 475.5 Q406 497 349 497 Z M413 710 Q438 710 474.5 713.5 Q511 717 536 725 L533 708 Q521 705 505 702.5 Q489 700 471.5 698.5 Q454 697 438 696.5 Q422 696 410 696 Q362 696 318.5 675.5 Q275 655 238 618.5 Q201 582 172 530 Q143 478 124 415 Q168 455 226 482.5 Q284 510 351 510 Q412 510 448.5 488 Q485 466 502 430 Q519 394 520.5 348 Q522 302 513 255 Q504 202 482 154 Q460 106 426.5 69.5 Q393 33 348.5 11.5 Q304 -10 249 -10 Q137 -10 96 77 Q55 164 84 325 Q99 409 129.5 479.5 Q160 550 202.5 601.5 Q245 653 298.5 681.5 Q352 710 413 710 Z " />
<glyph glyph-name="afii10067" unicode="&#x432;" horiz-adv-x="516" d="M78 15 L275 15 Q311 15 338.5 24.5 Q366 34 385.5 50 Q405 66 416.5 87 Q428 108 432 131 Q436 154 431.5 176 Q427 198 413.5 215 Q400 232 376 242 Q352 252 317 252 L120 252 L78 15 Z M122 266 L310 266 Q345 266 370.5 276.5 Q396 287 413 303.5 Q430 320 439.5 339.5 Q449 359 452 378 Q455 397 452.5 416.5 Q450 436 438.5 451 Q427 466 405.5 475.5 Q384 485 349 485 L161 485 L122 266 Z M352 500 Q390 500 415 489 Q440 478 454 460 Q468 442 472 420.5 Q476 399 472 378 Q465 339 435.5 305 Q406 271 351 260 Q411 253 435.5 216 Q460 179 452 131 Q447 105 433.5 81.5 Q420 58 397 40 Q374 22 343 11 Q312 0 273 0 L58 0 L146 500 L352 500 Z " />
<glyph glyph-name="afii10068" unicode="&#x433;" horiz-adv-x="439" d="M467 500 L464 485 L161 485 L76 0 L58 0 L146 500 L467 500 Z " />
<glyph glyph-name="afii10069" unicode="&#x434;" horiz-adv-x="545" d="M243 485 Q234 439 213.5 374.5 Q193 310 166 243 Q139 176 109.5 115 Q80 54 55 15 L375 15 L458 485 L243 485 Z M479 500 L393 15 L487 15 L453 -132 L442 -132 L466 0 L-11 0 L-35 -132 L-45 -132 L-28 15 L40 15 Q68 59 98.5 123 Q129 187 155.5 255.5 Q182 324 202 389 Q222 454 230 500 L479 500 Z " />
<glyph glyph-name="afii10070" unicode="&#x435;" horiz-adv-x="541" d="M337 497 Q293 497 253.5 481.5 Q214 466 181.5 437.5 Q149 409 124.5 369.5 Q100 330 87 283 L293 283 Q387 283 433 313.5 Q479 344 479 393 Q479 412 471 431 Q463 450 446 464.5 Q429 479 402 488 Q375 497 337 497 Z M339 510 Q382 510 412.5 500 Q443 490 462 473.5 Q481 457 490 436.5 Q499 416 499 394 Q499 339 447.5 304 Q396 269 293 269 L84 269 Q82 264 81.5 259.5 Q81 255 80 250 Q70 196 76.5 150.5 Q83 105 103 72.5 Q123 40 157 21.5 Q191 3 237 3 Q304 3 360 36.5 Q416 70 439 137 L458 137 Q444 99 420.5 71.5 Q397 44 367.5 26 Q338 8 304 -1 Q270 -10 235 -10 Q184 -10 146.5 9 Q109 28 86.5 62.5 Q64 97 57 145 Q50 193 60 250 Q70 307 96 355 Q122 403 159 437.5 Q196 472 242 491 Q288 510 339 510 Z " />
<glyph glyph-name="afii10071" unicode="&#x451;" horiz-adv-x="541" d="M399 622 L404 646 L422 646 L417 622 L399 622 Z M279 622 L284 646 L302 646 L297 622 L279 622 Z M337 497 Q293 497 253.5 481.5 Q214 466 181.5 437.5 Q149 409 124.5 369.5 Q100 330 87 283 L293 283 Q387 283 433 313.5 Q479 344 479 393 Q479 412 471 431 Q463 450 446 464.5 Q429 479 402 488 Q375 497 337 497 Z M339 510 Q382 510 412.5 500 Q443 490 462 473.5 Q481 457 490 436.5 Q499 416 499 394 Q499 339 447.5 304 Q396 269 293 269 L84 269 Q82 264 81.5 259.5 Q81 255 80 250 Q70 196 76.5 150.5 Q83 105 103 72.5 Q123 40 157 21.5 Q191 3 237 3 Q304 3 360 36.5 Q416 70 439 137 L458 137 Q444 99 420.5 71.5 Q397 44 367.5 26 Q338 8 304 -1 Q270 -10 235 -10 Q184 -10 146.5 9 Q109 28 86.5 62.5 Q64 97 57 145 Q50 193 60 250 Q70 307 96 355 Q122 403 159 437.5 Q196 472 242 491 Q288 510 339 510 Z " />
<glyph glyph-name="afii10072" unicode="&#x436;" horiz-adv-x="628" d="M370 500 L282 0 L264 0 L352 500 L370 500 Z M641 500 L356 257 L573 0 L546 0 L332 256 L615 500 L641 500 Z M109 500 L306 256 L2 0 L-25 0 L282 257 L83 500 L109 500 Z " />
<glyph glyph-name="afii10073" unicode="&#x437;" horiz-adv-x="466" d="M281 510 Q366 510 404 475 Q442 440 433 386 Q427 355 411.5 332 Q396 309 373 293 Q350 277 321.5 268.5 Q293 260 262 257 Q294 255 320.5 246 Q347 237 365 220.5 Q383 204 390.5 180 Q398 156 393 125 Q388 99 371.5 74.5 Q355 50 328.5 31.5 Q302 13 266.5 1.5 Q231 -10 189 -10 Q111 -10 69 24 Q27 58 28 110 L46 110 Q44 65 81.5 34.5 Q119 4 191 4 Q231 4 263 14 Q295 24 318.5 41 Q342 58 356 80 Q370 102 374 125 Q385 186 342.5 217.5 Q300 249 215 249 L218 266 Q301 266 352 295.5 Q403 325 414 385 Q422 432 391 464 Q360 496 279 496 Q207 496 162.5 468 Q118 440 104 394 L85 394 Q103 445 153.5 477.5 Q204 510 281 510 Z " />
<glyph glyph-name="afii10074" unicode="&#x438;" horiz-adv-x="550" d="M163 500 L89 83 Q87 69 84 54 Q81 39 78 25 Q87 36 95.5 47.5 Q104 59 115 71 L476 500 L500 500 L412 0 L394 0 L470 433 Q472 447 474.5 460.5 Q477 474 482 488 Q473 476 463 464 Q453 452 443 440 L74 0 L58 0 L146 500 L163 500 Z " />
<glyph glyph-name="afii10075" unicode="&#x439;" horiz-adv-x="550" d="M163 500 L89 83 Q87 69 84 54 Q81 39 78 25 Q87 36 95.5 47.5 Q104 59 115 71 L476 500 L500 500 L412 0 L394 0 L470 433 Q472 447 474.5 460.5 Q477 474 482 488 Q473 476 463 464 Q453 452 443 440 L74 0 L58 0 L146 500 L163 500 Z M283 667 Q278 631 290.5 605.5 Q303 580 343 580 Q365 580 380.5 587.5 Q396 595 407 607.5 Q418 620 424.5 635.5 Q431 651 434 667 L451 666 Q443 624 416 596.5 Q389 569 341 569 Q294 569 276.5 596.5 Q259 624 266 666 L283 667 Z " />
<glyph glyph-name="afii10076" unicode="&#x43a;" horiz-adv-x="464" d="M164 500 L76 0 L58 0 L146 500 L164 500 Z M462 500 L154 269 L394 0 L370 0 L130 268 L438 500 L462 500 Z " />
<glyph glyph-name="afii10077" unicode="&#x43b;" horiz-adv-x="529" d="M479 500 L391 0 L373 0 L458 485 L243 485 Q237 455 223.5 405.5 Q210 356 190.5 300 Q171 244 145.5 187.5 Q120 131 92 88 Q66 48 37.5 24 Q9 0 -21 0 L-19 15 Q6 15 30.5 37.5 Q55 60 79 98 Q106 141 131 198 Q156 255 175.5 312 Q195 369 208.5 419 Q222 469 228 500 L479 500 Z " />
<glyph glyph-name="afii10078" unicode="&#x43c;" horiz-adv-x="659" d="M173 500 L282 68 Q286 56 288.5 43 Q291 30 293 16 Q300 30 307.5 43 Q315 56 322 68 L582 500 L609 500 L521 0 L504 0 L580 435 Q582 448 584.5 461 Q587 474 591 487 Q584 474 576 461 Q568 448 560 435 L299 0 L281 0 L171 435 Q164 459 159 487 Q158 474 155.5 461 Q153 448 151 435 L75 0 L58 0 L146 500 L173 500 Z " />
<glyph glyph-name="afii10079" unicode="&#x43d;" horiz-adv-x="559" d="M164 500 L122 266 L449 266 L491 500 L509 500 L421 0 L403 0 L447 251 L120 251 L76 0 L58 0 L146 500 L164 500 Z " />
<glyph glyph-name="afii10080" unicode="&#x43e;" horiz-adv-x="556" d="M327 510 Q378 510 415.5 490.5 Q453 471 475.5 436.5 Q498 402 505.5 354.5 Q513 307 503 250 Q492 192 468 144 Q444 96 409.5 62 Q375 28 331 9 Q287 -10 236 -10 Q185 -10 147.5 9 Q110 28 87.5 62 Q65 96 57.5 144 Q50 192 61 250 Q71 307 94.5 354.5 Q118 402 153 436.5 Q188 471 232 490.5 Q276 510 327 510 Z M325 497 Q279 497 239 479 Q199 461 167 428 Q135 395 112.5 349.5 Q90 304 81 250 Q71 195 77.5 149.5 Q84 104 104 71.5 Q124 39 158 21 Q192 3 238 3 Q284 3 324 21 Q364 39 396.5 71.5 Q429 104 451 149.5 Q473 195 483 250 Q492 304 486 349.5 Q480 395 459.5 428 Q439 461 405 479 Q371 497 325 497 Z " />
<glyph glyph-name="afii10081" unicode="&#x43f;" horiz-adv-x="549" d="M499 500 L411 0 L393 0 L478 485 L161 485 L76 0 L58 0 L146 500 L499 500 Z " />
<glyph glyph-name="afii10082" unicode="&#x440;" horiz-adv-x="577" d="M356 510 Q407 510 443.5 491 Q480 472 501 437.5 Q522 403 528 355 Q534 307 524 250 Q514 193 491.5 145 Q469 97 435.5 62.5 Q402 28 359 9 Q316 -10 265 -10 Q228 -10 198 2.5 Q168 15 146.5 36.5 Q125 58 113 86.5 Q101 115 101 147 L40 -200 L22 -200 L146 500 L164 500 L137 350 Q149 381 169.5 410 Q190 439 217.5 461 Q245 483 280 496.5 Q315 510 356 510 Z M354 497 Q314 497 276.5 482 Q239 467 208 436 Q177 405 153.5 357 Q130 309 118 242 Q110 195 114 152 Q118 109 136 76 Q154 43 186.5 23 Q219 3 267 3 Q313 3 352 21.5 Q391 40 421.5 72.5 Q452 105 473 150.5 Q494 196 504 250 Q513 304 508 349.5 Q503 395 484.5 427.5 Q466 460 433 478.5 Q400 497 354 497 Z " />
<glyph glyph-name="afii10083" unicode="&#x441;" horiz-adv-x="505" d="M328 510 Q363 510 394.5 500.5 Q426 491 449 472.5 Q472 454 485.5 426.5 Q499 399 499 363 L479 363 Q480 395 469 420 Q458 445 437.5 462 Q417 479 388.5 488 Q360 497 326 497 Q280 497 239.5 478.5 Q199 460 166.5 427.5 Q134 395 111.5 349.5 Q89 304 80 250 Q70 196 76.5 150.5 Q83 105 104 72.5 Q125 40 159 21.5 Q193 3 239 3 Q273 3 305 12 Q337 21 363 38 Q389 55 409 80 Q429 105 439 137 L459 137 Q447 101 424 73.5 Q401 46 371 27.5 Q341 9 306.5 -0.5 Q272 -10 237 -10 Q186 -10 148.5 9 Q111 28 88 62.5 Q65 97 58 145 Q51 193 61 250 Q71 307 95 354.5 Q119 402 154 436.5 Q189 471 233 490.5 Q277 510 328 510 Z " />
<glyph glyph-name="afii10084" unicode="&#x442;" horiz-adv-x="397" d="M445 500 L442 485 L253 485 L168 0 L150 0 L235 485 L45 485 L48 500 L445 500 Z " />
<glyph glyph-name="afii10085" unicode="&#x443;" horiz-adv-x="444" d="M79 500 L171 66 Q175 51 177 38.5 Q179 26 181 9 Q188 26 195 38 Q202 50 211 66 L462 500 L481 500 L140 -90 Q103 -153 61 -181 Q19 -209 -25 -210 L-21 -191 Q19 -190 52.5 -169 Q86 -148 119 -91 L168 -8 L59 500 L79 500 Z " />
<glyph glyph-name="afii10086" unicode="&#x444;" horiz-adv-x="860" d="M297 497 Q258 497 223 478.5 Q188 460 159.5 427.5 Q131 395 110.5 349.5 Q90 304 81 250 Q71 196 75.5 150.5 Q80 105 97 72.5 Q114 40 142.5 21.5 Q171 3 210 3 Q251 3 286 23 Q321 43 349 76 Q377 109 396 152 Q415 195 423 242 Q435 309 429 357 Q423 405 404.5 436 Q386 467 358 482 Q330 497 297 497 Z M299 510 Q334 510 360.5 496.5 Q387 483 405 461 Q423 439 432.5 410 Q442 381 442 350 L504 700 L522 700 L460 350 Q472 381 491 410 Q510 439 535.5 461 Q561 483 592.5 496.5 Q624 510 659 510 Q702 510 734.5 491 Q767 472 786.5 437.5 Q806 403 811.5 355 Q817 307 807 250 Q797 193 774.5 145 Q752 97 720.5 62.5 Q689 28 650 9 Q611 -10 568 -10 Q536 -10 510 2.5 Q484 15 464.5 36.5 Q445 58 434.5 86.5 Q424 115 424 147 L363 -200 L345 -200 L406 147 Q395 115 374.5 86.5 Q354 58 327.5 36.5 Q301 15 270 2.5 Q239 -10 208 -10 Q164 -10 132 9 Q100 28 81 62.5 Q62 97 56.5 145 Q51 193 61 250 Q71 307 93 355 Q115 403 146.5 437.5 Q178 472 216.5 491 Q255 510 299 510 Z M657 497 Q624 497 591 482 Q558 467 528.5 436 Q499 405 476 357 Q453 309 441 242 Q433 195 436.5 152 Q440 109 456 76 Q472 43 500.5 23 Q529 3 570 3 Q609 3 644 21.5 Q679 40 707.5 72.5 Q736 105 756.5 150.5 Q777 196 787 250 Q796 304 791.5 349.5 Q787 395 770 427.5 Q753 460 724.5 478.5 Q696 497 657 497 Z " />
<glyph glyph-name="afii10087" unicode="&#x445;" horiz-adv-x="459" d="M103 500 L222 298 Q230 285 236 269 Q242 277 249 284.5 Q256 292 261 298 L452 500 L473 500 L245 259 L399 0 L375 0 L247 215 Q243 221 238.5 230 Q234 239 231 248 Q218 230 203 215 L1 0 L-20 0 L222 257 L79 500 L103 500 Z " />
<glyph glyph-name="afii10088" unicode="&#x446;" horiz-adv-x="549" d="M164 500 L78 15 L395 15 L481 500 L499 500 L413 15 L507 15 L473 -132 L462 -132 L486 0 L58 0 L146 500 L164 500 Z " />
<glyph glyph-name="afii10089" unicode="&#x447;" horiz-adv-x="552" d="M146 500 L114 321 Q107 279 109 245 Q111 211 124.5 186.5 Q138 162 164 148.5 Q190 135 229 135 Q263 135 299 147 Q335 159 367 186 Q399 213 423.5 256.5 Q448 300 459 362 L484 500 L502 500 L414 0 L396 0 L442 265 Q428 235 407 208.5 Q386 182 359 162.5 Q332 143 298.5 132 Q265 121 227 121 Q140 121 109.5 175 Q79 229 96 321 L128 500 L146 500 Z " />
<glyph glyph-name="afii10090" unicode="&#x448;" horiz-adv-x="883" d="M164 500 L78 15 L394 15 L480 500 L498 500 L412 15 L729 15 L815 500 L833 500 L745 0 L58 0 L146 500 L164 500 Z " />
<glyph glyph-name="afii10091" unicode="&#x449;" horiz-adv-x="899" d="M164 500 L78 15 L394 15 L480 500 L498 500 L412 15 L729 15 L815 500 L833 500 L747 15 L841 15 L807 -132 L796 -132 L820 0 L58 0 L146 500 L164 500 Z " />
<glyph glyph-name="afii10092" unicode="&#x44a;" horiz-adv-x="494" d="M90 15 L282 15 Q317 15 343 24.5 Q369 34 386.5 50.5 Q404 67 414.5 88.5 Q425 110 429 135 Q434 162 431 185 Q428 208 416 225 Q404 242 381.5 251.5 Q359 261 326 261 L134 261 L90 15 Z M176 500 L136 276 L328 276 Q368 276 393.5 264.5 Q419 253 432.5 234 Q446 215 449 189 Q452 163 447 135 Q442 107 430 82.5 Q418 58 397.5 39.5 Q377 21 348 10.5 Q319 0 280 0 L70 0 L155 485 L55 485 L58 500 L176 500 Z " />
<glyph glyph-name="afii10093" unicode="&#x44b;" horiz-adv-x="634" d="M584 500 L496 0 L478 0 L566 500 L584 500 Z M78 15 L270 15 Q305 15 331 24.5 Q357 34 374.5 50.5 Q392 67 402.5 88.5 Q413 110 417 135 Q422 162 419 185 Q416 208 404 225 Q392 242 369.5 251.5 Q347 261 314 261 L122 261 L78 15 Z M164 500 L124 276 L316 276 Q356 276 381.5 264.5 Q407 253 420.5 234 Q434 215 437 189 Q440 163 435 135 Q430 107 418 82.5 Q406 58 385.5 39.5 Q365 21 336 10.5 Q307 0 268 0 L58 0 L146 500 L164 500 Z " />
<glyph glyph-name="afii10094" unicode="&#x44c;" horiz-adv-x="482" d="M78 15 L270 15 Q305 15 331 24.5 Q357 34 374.5 50.5 Q392 67 402.5 88.5 Q413 110 417 135 Q422 162 419 185 Q416 208 404 225 Q392 242 369.5 251.5 Q347 261 314 261 L122 261 L78 15 Z M164 500 L124 276 L316 276 Q356 276 381.5 264.5 Q407 253 420.5 234 Q434 215 437 189 Q440 163 435 135 Q430 107 418 82.5 Q406 58 385.5 39.5 Q365 21 336 10.5 Q307 0 268 0 L58 0 L146 500 L164 500 Z " />
<glyph glyph-name="afii10095" unicode="&#x44d;" horiz-adv-x="505" d="M275 510 Q326 510 363.5 490.5 Q401 471 424 436.5 Q447 402 454.5 354.5 Q462 307 452 250 Q442 193 418 145 Q394 97 358.5 62.5 Q323 28 279 9 Q235 -10 184 -10 Q149 -10 118 -0.5 Q87 9 63.5 27.5 Q40 46 27 73.5 Q14 101 14 137 L34 137 Q32 73 74.5 38 Q117 3 186 3 Q232 3 272.5 21.5 Q313 40 345.5 73 Q378 106 400.5 151.5 Q423 197 433 252 L181 252 L183 266 L435 266 Q442 317 434 359 Q426 401 405 432 Q384 463 350.5 480 Q317 497 273 497 Q204 497 149 462 Q94 427 74 363 L54 363 Q66 399 89 426.5 Q112 454 141.5 472.5 Q171 491 205.5 500.5 Q240 510 275 510 Z " />
<glyph glyph-name="afii10096" unicode="&#x44e;" horiz-adv-x="752" d="M526 497 Q480 497 440.5 479 Q401 461 370 428 Q339 395 317.5 349.5 Q296 304 287 250 Q277 195 282.5 149.5 Q288 104 307.5 71.5 Q327 39 360 21 Q393 3 439 3 Q485 3 524.5 21 Q564 39 595 71.5 Q626 104 647.5 149.5 Q669 195 679 250 Q688 304 682.5 349.5 Q677 395 657.5 428 Q638 461 605 479 Q572 497 526 497 Z M164 500 L122 266 L269 266 Q281 320 304.5 364.5 Q328 409 361.5 441.5 Q395 474 437 492 Q479 510 528 510 Q579 510 615.5 490.5 Q652 471 674 436.5 Q696 402 702.5 354.5 Q709 307 699 250 Q688 192 665 144 Q642 96 608 62 Q574 28 531 9 Q488 -10 437 -10 Q386 -10 349.5 9 Q313 28 291 62.5 Q269 97 262.5 145 Q256 193 267 252 L120 252 L76 0 L58 0 L146 500 L164 500 Z " />
<glyph glyph-name="afii10097" unicode="&#x44f;" horiz-adv-x="527" d="M477 500 L389 0 L371 0 L413 239 L219 239 Q194 239 170 231 Q146 223 124 197.5 Q102 172 83.5 125 Q65 78 52 0 L34 0 Q47 75 64 121.5 Q81 168 100.5 194 Q120 220 140 230.5 Q160 241 180 245 Q129 256 109.5 290.5 Q90 325 98 374 Q102 399 114.5 421.5 Q127 444 147.5 461.5 Q168 479 197 489.5 Q226 500 265 500 L477 500 Z M262 485 Q227 485 201.5 476 Q176 467 159 451.5 Q142 436 132 416 Q122 396 118 374 Q114 350 116.5 328.5 Q119 307 130.5 290 Q142 273 164 263 Q186 253 221 253 L415 253 L456 485 L262 485 Z " />
<glyph glyph-name="afii10098" unicode="&#x491;" horiz-adv-x="439" d="M445 500 L469 600 L484 600 L464 485 L161 485 L76 0 L58 0 L146 500 L445 500 Z " />
<glyph glyph-name="afii10099" unicode="&#x452;" horiz-adv-x="575" d="M186 607 L144 366 Q158 396 179 422.5 Q200 449 227 468.5 Q254 488 287.5 499 Q321 510 359 510 Q402 510 431 496 Q460 482 476 456 Q492 430 495 393 Q498 356 490 310 L424 -66 Q413 -127 381.5 -153.5 Q350 -180 305 -181 L308 -164 Q325 -164 341 -159 Q357 -154 369.5 -143 Q382 -132 391.5 -113 Q401 -94 406 -66 L472 310 Q479 352 477 386 Q475 420 461.5 444.5 Q448 469 422 482.5 Q396 496 357 496 Q323 496 287 484 Q251 472 219 445 Q187 418 162.5 374.5 Q138 331 127 269 L80 0 L62 0 L168 607 L66 607 L69 623 L171 623 L185 700 L203 700 L189 623 L290 623 L287 607 L186 607 Z " />
<glyph glyph-name="afii10100" unicode="&#x453;" horiz-adv-x="439" d="M421 708 L276 557 L261 557 L401 713 L421 708 Z M467 500 L464 485 L161 485 L76 0 L58 0 L146 500 L467 500 Z " />
<glyph glyph-name="afii10101" unicode="&#x454;" horiz-adv-x="505" d="M328 510 Q363 510 394.5 500.5 Q426 491 449 472.5 Q472 454 485.5 426.5 Q499 399 499 363 L479 363 Q480 395 469 420 Q458 445 437.5 462 Q417 479 388.5 488 Q360 497 326 497 Q282 497 242.5 480 Q203 463 171 432 Q139 401 116.5 359 Q94 317 83 266 L334 266 L332 252 L80 252 Q70 197 76.5 151.5 Q83 106 104 73 Q125 40 159 21.5 Q193 3 239 3 Q273 3 305 12 Q337 21 363 38 Q389 55 409 80 Q429 105 439 137 L459 137 Q447 101 424 73.5 Q401 46 371 27.5 Q341 9 306.5 -0.5 Q272 -10 237 -10 Q186 -10 148.5 9 Q111 28 88 62.5 Q65 97 58 145 Q51 193 61 250 Q71 307 95 354.5 Q119 402 154 436.5 Q189 471 233 490.5 Q277 510 328 510 Z " />
<glyph glyph-name="afii10102" unicode="&#x455;" horiz-adv-x="480" d="M295 510 Q331 510 361.5 501.5 Q392 493 413 476.5 Q434 460 444 436.5 Q454 413 450 383 L431 383 Q435 410 426 431 Q417 452 398 466.5 Q379 481 352 489 Q325 497 293 497 Q252 497 220.5 487.5 Q189 478 167 462 Q145 446 132.5 426.5 Q120 407 116 386 Q111 356 120.5 336 Q130 316 149.5 303 Q169 290 195.5 282.5 Q222 275 251 269 Q283 263 314.5 254 Q346 245 369 229 Q392 213 404 187 Q416 161 409 122 Q404 97 388.5 73.5 Q373 50 346.5 31.5 Q320 13 283 1.5 Q246 -10 199 -10 Q163 -10 131 -1 Q99 8 76 24.5 Q53 41 41.5 65 Q30 89 34 119 L53 119 Q50 92 60.5 70.5 Q71 49 91.5 34 Q112 19 140.5 11 Q169 3 201 3 Q246 3 280 13.5 Q314 24 337.5 41.5 Q361 59 374 80 Q387 101 391 122 Q397 156 386.5 179 Q376 202 355 216 Q334 230 305 238 Q276 246 245 252 Q215 258 186 266.5 Q157 275 135 289.5 Q113 304 102.5 327 Q92 350 98 386 Q102 410 117 432.5 Q132 455 157.5 472 Q183 489 217.5 499.5 Q252 510 295 510 Z " />
<glyph glyph-name="afii10103" unicode="&#x456;" horiz-adv-x="214" d="M164 500 L76 0 L58 0 L146 500 L164 500 Z M190 638 L185 612 L163 612 L168 638 L190 638 Z " />
<glyph glyph-name="afii10104" unicode="&#x457;" horiz-adv-x="216" d="M228 622 L233 646 L251 646 L246 622 L228 622 Z M108 622 L113 646 L131 646 L126 622 L108 622 Z M58 0 L146 500 L164 500 L76 0 L58 0 Z " />
<glyph glyph-name="afii10105" unicode="&#x458;" horiz-adv-x="214" d="M190 638 L185 612 L163 612 L168 638 L190 638 Z M164 500 L58 -96 Q47 -157 15.5 -183.5 Q-16 -210 -60 -211 L-57 -195 Q-19 -195 5.5 -174 Q30 -153 40 -96 L146 500 L164 500 Z " />
<glyph glyph-name="afii10106" unicode="&#x459;" horiz-adv-x="797" d="M393 15 L585 15 Q620 15 646 24.5 Q672 34 689.5 50.5 Q707 67 717.5 88.5 Q728 110 732 135 Q737 162 734 185 Q731 208 719 225 Q707 242 684.5 251.5 Q662 261 629 261 L437 261 L393 15 Z M479 500 L439 276 L631 276 Q671 276 696.5 264.5 Q722 253 735.5 234 Q749 215 752 189 Q755 163 750 135 Q745 107 733 82.5 Q721 58 700.5 39.5 Q680 21 651 10.5 Q622 0 583 0 L373 0 L458 485 L243 485 Q237 456 224.5 408.5 Q212 361 193.5 307 Q175 253 151.5 198.5 Q128 144 100.5 100 Q73 56 42 28 Q11 0 -21 0 L-19 15 Q8 15 36 43 Q64 71 89.5 115 Q115 159 138 213.5 Q161 268 179 322 Q197 376 210 423.5 Q223 471 228 500 L479 500 Z " />
<glyph glyph-name="afii10107" unicode="&#x45a;" horiz-adv-x="777" d="M393 15 L565 15 Q600 15 626 24.5 Q652 34 669.5 50.5 Q687 67 697.5 88.5 Q708 110 712 135 Q717 162 714 185 Q711 208 699 225 Q687 242 664.5 251.5 Q642 261 609 261 L437 261 L393 15 Z M164 500 L124 276 L421 276 L461 500 L479 500 L439 276 L611 276 Q651 276 676.5 264.5 Q702 253 715.5 234 Q729 215 732 189 Q735 163 730 135 Q725 107 713 82.5 Q701 58 680.5 39.5 Q660 21 631 10.5 Q602 0 563 0 L373 0 L419 261 L122 261 L76 0 L58 0 L146 500 L164 500 Z " />
<glyph glyph-name="afii10108" unicode="&#x45b;" horiz-adv-x="571" d="M182 607 L140 366 Q154 396 175 422.5 Q196 449 224 468.5 Q252 488 285.5 499 Q319 510 357 510 Q400 510 429 496 Q458 482 473.5 456 Q489 430 492 393 Q495 356 487 310 L433 0 L415 0 L469 310 Q476 352 474 386 Q472 420 458.5 444.5 Q445 469 419.5 482.5 Q394 496 355 496 Q321 496 284.5 484 Q248 472 215.5 445 Q183 418 158.5 374.5 Q134 331 123 269 L76 0 L58 0 L164 607 L107 607 L110 623 L167 623 L181 700 L199 700 L185 623 L331 623 L328 607 L182 607 Z " />
<glyph glyph-name="afii10109" unicode="&#x45c;" horiz-adv-x="464" d="M406 708 L261 557 L246 557 L386 713 L406 708 Z M164 500 L76 0 L58 0 L146 500 L164 500 Z M462 500 L154 269 L394 0 L370 0 L130 268 L438 500 L462 500 Z " />
<glyph glyph-name="afii10110" unicode="&#x45e;" horiz-adv-x="444" d="M79 500 L171 66 Q175 51 177 38.5 Q179 26 181 9 Q188 26 195 38 Q202 50 211 66 L462 500 L481 500 L140 -90 Q103 -153 61 -181 Q19 -209 -25 -210 L-21 -191 Q19 -190 52.5 -169 Q86 -148 119 -91 L168 -8 L59 500 L79 500 Z M229 667 Q224 631 236.5 605.5 Q249 580 289 580 Q311 580 326.5 587.5 Q342 595 353 607.5 Q364 620 370.5 635.5 Q377 651 380 667 L397 666 Q389 624 362 596.5 Q335 569 287 569 Q240 569 222.5 596.5 Q205 624 212 666 L229 667 Z " />
<glyph glyph-name="afii10145" unicode="&#x40f;" horiz-adv-x="659" d="M201 700 L80 16 L504 16 L625 700 L644 700 L521 0 L301 0 L272 -134 L259 -134 L276 0 L58 0 L181 700 L201 700 Z " />
<glyph glyph-name="afii10193" unicode="&#x45f;" horiz-adv-x="549" d="M164 500 L78 15 L395 15 L481 500 L499 500 L411 0 L245 0 L217 -128 L206 -128 L222 0 L58 0 L146 500 L164 500 Z " />
<glyph glyph-name="afii61352" unicode="&#x2116;" horiz-adv-x="1234" d="M698 0 L701 14 L1087 14 L1084 0 L698 0 Z M211 700 L486 78 Q492 64 497.5 50.5 Q503 37 508 23 Q509 40 511.5 56 Q514 72 517 89 L625 700 L645 700 L522 0 L500 0 L220 632 Q214 646 208 659.5 Q202 673 198 687 L188 626 L78 0 L58 0 L181 700 L211 700 Z M1004 697 Q958 697 918 679 Q878 661 846 628 Q814 595 791.5 549.5 Q769 504 760 450 Q750 395 756.5 349.5 Q763 304 783 271.5 Q803 239 837 221 Q871 203 917 203 Q963 203 1003 221 Q1043 239 1075.5 271.5 Q1108 304 1130 349.5 Q1152 395 1162 450 Q1171 504 1165 549.5 Q1159 595 1138.5 628 Q1118 661 1084 679 Q1050 697 1004 697 Z M1006 710 Q1057 710 1094.5 690.5 Q1132 671 1154.5 636.5 Q1177 602 1184.5 554.5 Q1192 507 1182 450 Q1171 392 1147 344 Q1123 296 1088.5 262 Q1054 228 1010 209 Q966 190 915 190 Q864 190 826.5 209 Q789 228 766.5 262 Q744 296 736.5 344 Q729 392 740 450 Q750 507 773.5 554.5 Q797 602 832 636.5 Q867 671 911 690.5 Q955 710 1006 710 Z " />
<glyph glyph-name="Alpha" unicode="&#x391;" horiz-adv-x="581" d="M371 691 Q358 664 345.5 640.5 Q333 617 322 597 L131 250 L457 250 L388 597 Q384 617 379.5 641 Q375 665 371 691 Z M388 700 L528 0 L506 0 L461 235 L122 235 L-6 0 L-27 0 L360 700 L388 700 Z " />
<glyph glyph-name="Beta" unicode="&#x392;" horiz-adv-x="654" d="M346 16 Q394 16 430.5 30.5 Q467 45 493 68.5 Q519 92 534 122 Q549 152 555 184 Q561 216 555 247 Q549 278 530.5 302 Q512 326 480 341 Q448 356 402 356 L140 356 L80 16 L346 16 Z M394 372 Q440 372 474.5 387 Q509 402 532 425.5 Q555 449 568 477.5 Q581 506 586 533 Q591 560 587.5 587 Q584 614 568.5 635.5 Q553 657 523.5 670.5 Q494 684 448 684 L198 684 L143 372 L394 372 Z M58 0 L181 700 L451 700 Q501 700 534 685.5 Q567 671 585 648 Q603 625 608 595.5 Q613 566 608 536 Q603 507 590.5 479 Q578 451 557.5 428 Q537 405 508 388.5 Q479 372 441 367 Q480 363 508.5 347 Q537 331 554 306.5 Q571 282 576.5 251 Q582 220 576 187 Q570 151 552 117.5 Q534 84 505 57.5 Q476 31 435.5 15.5 Q395 0 344 0 L58 0 Z " />
<glyph glyph-name="Gamma" unicode="&#x393;" horiz-adv-x="529" d="M602 700 L599 684 L198 684 L78 0 L58 0 L181 700 L602 700 Z " />
<glyph glyph-name="Epsilon" unicode="&#x395;" horiz-adv-x="600" d="M58 0 L181 700 L623 700 L620 684 L198 684 L143 372 L509 372 L506 356 L140 356 L80 16 L504 16 L502 0 L58 0 Z " />
<glyph glyph-name="Zeta" unicode="&#x396;" horiz-adv-x="612" d="M2 0 L4 17 L618 684 L133 684 L136 700 L641 700 L638 682 L26 16 L536 16 L534 0 L2 0 Z " />
<glyph glyph-name="Eta" unicode="&#x397;" horiz-adv-x="669" d="M511 0 L573 356 L140 356 L78 0 L58 0 L181 700 L201 700 L143 372 L576 372 L634 700 L654 700 L531 0 L511 0 Z " />
<glyph glyph-name="Theta" unicode="&#x398;" horiz-adv-x="732" d="M539 372 L536 356 L239 356 L242 372 L539 372 Z M451 710 Q526 710 578.5 681 Q631 652 661 602.5 Q691 553 699.5 487.5 Q708 422 695 350 Q682 278 651 212.5 Q620 147 572.5 97.5 Q525 48 462 19 Q399 -10 324 -10 Q249 -10 196.5 19 Q144 48 113.5 97.5 Q83 147 74.5 212.5 Q66 278 79 350 Q92 422 123.5 487.5 Q155 553 202.5 602.5 Q250 652 313 681 Q376 710 451 710 Z M448 694 Q379 694 321 668 Q263 642 218.5 595.5 Q174 549 144 486 Q114 423 101 350 Q88 276 96 213.5 Q104 151 132 104.5 Q160 58 209 32 Q258 6 327 6 Q396 6 454 32 Q512 58 556.5 104.5 Q601 151 630.5 213.5 Q660 276 673 350 Q686 423 678.5 486 Q671 549 643 595.5 Q615 642 566 668 Q517 694 448 694 Z " />
<glyph glyph-name="Iota" unicode="&#x399;" horiz-adv-x="216" d="M201 700 L78 0 L58 0 L181 700 L201 700 Z " />
<glyph glyph-name="Kappa" unicode="&#x39a;" horiz-adv-x="550" d="M58 0 L181 700 L201 700 L78 0 L58 0 Z M469 0 L156 364 L566 700 L594 700 L182 365 L497 0 L469 0 Z " />
<glyph glyph-name="Lambda" unicode="&#x39b;" horiz-adv-x="581" d="M387 700 L528 0 L506 0 L381 623 Q379 638 377 654.5 Q375 671 373 688 Q360 656 341 623 L-6 0 L-27 0 L362 700 L387 700 Z " />
<glyph glyph-name="Mu" unicode="&#x39c;" horiz-adv-x="795" d="M214 700 L353 67 L362 18 Q374 43 389 69 L748 700 L780 700 L657 0 L638 0 L751 644 L760 690 Q754 678 747.5 666.5 Q741 655 734 643 L368 0 L348 0 L206 644 L197 690 Q196 679 194 667.5 Q192 656 190 645 L77 0 L58 0 L181 700 L214 700 Z " />
<glyph glyph-name="Nu" unicode="&#x39d;" horiz-adv-x="660" d="M211 700 L486 78 Q492 64 497.5 50.5 Q503 37 508 23 Q509 40 511.5 56 Q514 72 517 89 L625 700 L645 700 L522 0 L500 0 L220 632 Q214 646 208 659.5 Q202 673 198 687 L188 626 L78 0 L58 0 L181 700 L211 700 Z " />
<glyph glyph-name="Xi" unicode="&#x39e;" horiz-adv-x="631" d="M543 16 L541 0 L10 0 L12 16 L543 16 Z M662 700 L659 684 L132 684 L135 700 L662 700 Z M548 372 L545 356 L130 356 L133 372 L548 372 Z " />
<glyph glyph-name="Omicron" unicode="&#x39f;" horiz-adv-x="732" d="M451 710 Q526 710 578.5 681 Q631 652 661 602.5 Q691 553 699.5 487.5 Q708 422 695 350 Q682 278 651 212.5 Q620 147 572.5 97.5 Q525 48 462 19 Q399 -10 324 -10 Q249 -10 196.5 19 Q144 48 113.5 97.5 Q83 147 74.5 212.5 Q66 278 79 350 Q92 422 123.5 487.5 Q155 553 202.5 602.5 Q250 652 313 681 Q376 710 451 710 Z M448 694 Q379 694 321 668 Q263 642 218.5 595.5 Q174 549 144 486 Q114 423 101 350 Q88 276 96 213.5 Q104 151 132 104.5 Q160 58 209 32 Q258 6 327 6 Q396 6 454 32 Q512 58 556.5 104.5 Q601 151 630.5 213.5 Q660 276 673 350 Q686 423 678.5 486 Q671 549 643 595.5 Q615 642 566 668 Q517 694 448 694 Z " />
<glyph glyph-name="Pi" unicode="&#x3a0;" horiz-adv-x="659" d="M644 700 L521 0 L502 0 L622 684 L198 684 L78 0 L58 0 L181 700 L644 700 Z " />
<glyph glyph-name="Rho" unicode="&#x3a1;" horiz-adv-x="612" d="M198 684 L136 332 L395 332 Q439 332 473 346 Q507 360 531.5 384 Q556 408 571 441 Q586 474 593 513 Q599 548 596 579 Q593 610 577.5 633.5 Q562 657 532.5 670.5 Q503 684 457 684 L198 684 Z M460 700 Q510 700 543 685.5 Q576 671 594.5 645.5 Q613 620 617.5 586 Q622 552 615 513 Q608 472 591.5 436.5 Q575 401 548 374 Q521 347 482.5 331.5 Q444 316 392 316 L133 316 L78 0 L58 0 L181 700 L460 700 Z " />
<glyph glyph-name="Sigma" unicode="&#x3a3;" horiz-adv-x="596" d="M633 700 L630 684 L145 684 L334 371 L18 16 L528 16 L526 0 L-6 0 L-4 17 L312 371 L125 682 L128 700 L633 700 Z " />
<glyph glyph-name="Tau" unicode="&#x3a4;" horiz-adv-x="542" d="M222 0 L342 684 L92 684 L95 700 L615 700 L612 684 L362 684 L242 0 L222 0 Z " />
<glyph glyph-name="Upsilon" unicode="&#x3a5;" horiz-adv-x="568" d="M233 0 L292 338 L91 700 L117 700 L305 354 L620 700 L643 700 L312 338 L253 0 L233 0 Z " />
<glyph glyph-name="Phi" unicode="&#x3a6;" horiz-adv-x="732" d="M102 357 Q93 304 103.5 261.5 Q114 219 143.5 188 Q173 157 221.5 140 Q270 123 337 123 L420 591 Q284 589 202.5 525.5 Q121 462 102 357 Z M674 357 Q693 462 633.5 525.5 Q574 589 440 591 L357 123 Q424 123 478.5 140 Q533 157 573.5 188 Q614 219 639.5 261.5 Q665 304 674 357 Z M459 700 L442 605 Q515 604 567.5 585.5 Q620 567 651.5 534.5 Q683 502 694.5 457 Q706 412 696 357 Q687 302 659.5 256.5 Q632 211 588.5 179 Q545 147 486.5 128.5 Q428 110 355 109 L336 0 L316 0 L335 109 Q262 110 209.5 128.5 Q157 147 125 179 Q93 211 82 256.5 Q71 302 80 357 Q90 412 117 457 Q144 502 187.5 534.5 Q231 567 290 585.5 Q349 604 422 605 L439 700 L459 700 Z " />
<glyph glyph-name="Chi" unicode="&#x3a7;" horiz-adv-x="589" d="M137 700 L300 409 Q305 400 309.5 390 Q314 380 318 368 Q326 380 335.5 390.5 Q345 401 353 409 L618 700 L640 700 L328 358 L529 0 L504 0 L334 304 Q329 314 324 324 Q319 334 315 347 Q306 334 296.5 324 Q287 314 278 304 L3 0 L-20 0 L304 356 L113 700 L137 700 Z " />
<glyph glyph-name="Psi" unicode="&#x3a8;" horiz-adv-x="662" d="M424 700 L346 257 Q392 258 437 266 Q482 274 519 292.5 Q556 311 582 341 Q608 371 616 415 L666 700 L686 700 L635 410 Q626 363 598.5 331 Q571 299 531 279 Q491 259 442 250 Q393 241 343 240 L301 0 L281 0 L323 240 Q273 241 227.5 250 Q182 259 149 279 Q116 299 99 331 Q82 363 91 410 L142 700 L162 700 L112 415 Q104 371 119 341 Q134 311 164.5 292.5 Q195 274 237.5 266 Q280 258 326 257 L404 700 L424 700 Z " />
<glyph glyph-name="Alphatonos" unicode="&#x386;" horiz-adv-x="581" d="M272 700 L212 546 L199 546 L246 700 L272 700 Z M371 691 Q358 664 345.5 640.5 Q333 617 322 597 L131 250 L457 250 L388 597 Q384 617 379.5 641 Q375 665 371 691 Z M388 700 L528 0 L506 0 L461 235 L122 235 L-6 0 L-27 0 L360 700 L388 700 Z " />
<glyph glyph-name="Epsilontonos" unicode="&#x388;" horiz-adv-x="600" d="M146 700 L86 546 L73 546 L120 700 L146 700 Z M58 0 L181 700 L623 700 L620 684 L198 684 L143 372 L509 372 L506 356 L140 356 L80 16 L504 16 L502 0 L58 0 Z " />
<glyph glyph-name="Etatonos" unicode="&#x389;" horiz-adv-x="669" d="M146 700 L86 546 L73 546 L120 700 L146 700 Z M511 0 L573 356 L140 356 L78 0 L58 0 L181 700 L201 700 L143 372 L576 372 L634 700 L654 700 L531 0 L511 0 Z " />
<glyph glyph-name="Iotatonos" unicode="&#x38a;" horiz-adv-x="216" d="M146 700 L86 546 L73 546 L120 700 L146 700 Z M201 700 L78 0 L58 0 L181 700 L201 700 Z " />
<glyph glyph-name="Iotadieresis" unicode="&#x3aa;" horiz-adv-x="216" d="M254 771 L258 792 L276 792 L272 771 L254 771 Z M134 771 L138 792 L156 792 L152 771 L134 771 Z M58 0 L181 700 L201 700 L78 0 L58 0 Z " />
<glyph glyph-name="Omicrontonos" unicode="&#x38c;" horiz-adv-x="732" d="M176 700 L116 546 L103 546 L150 700 L176 700 Z M451 710 Q526 710 578.5 681 Q631 652 661 602.5 Q691 553 699.5 487.5 Q708 422 695 350 Q682 278 651 212.5 Q620 147 572.5 97.5 Q525 48 462 19 Q399 -10 324 -10 Q249 -10 196.5 19 Q144 48 113.5 97.5 Q83 147 74.5 212.5 Q66 278 79 350 Q92 422 123.5 487.5 Q155 553 202.5 602.5 Q250 652 313 681 Q376 710 451 710 Z M448 694 Q379 694 321 668 Q263 642 218.5 595.5 Q174 549 144 486 Q114 423 101 350 Q88 276 96 213.5 Q104 151 132 104.5 Q160 58 209 32 Q258 6 327 6 Q396 6 454 32 Q512 58 556.5 104.5 Q601 151 630.5 213.5 Q660 276 673 350 Q686 423 678.5 486 Q671 549 643 595.5 Q615 642 566 668 Q517 694 448 694 Z " />
<glyph glyph-name="Upsilontonos" unicode="&#x38e;" horiz-adv-x="568" d="M117 700 L305 354 L620 700 L643 700 L312 338 L253 0 L233 0 L292 338 L100 684 L46 546 L33 546 L80 700 L117 700 Z " />
<glyph glyph-name="Upsilondieresis" unicode="&#x3ab;" horiz-adv-x="568" d="M430 771 L434 792 L452 792 L448 771 L430 771 Z M310 771 L314 792 L332 792 L328 771 L310 771 Z M233 0 L292 338 L91 700 L117 700 L305 354 L620 700 L643 700 L312 338 L253 0 L233 0 Z " />
<glyph glyph-name="Omegatonos" unicode="&#x38f;" horiz-adv-x="732" d="M176 700 L116 546 L103 546 L150 700 L176 700 Z M451 710 Q526 710 578.5 681 Q631 652 661 602.5 Q691 553 699.5 487.5 Q708 422 695 350 Q685 294 664.5 242.5 Q644 191 613.5 147.5 Q583 104 543 70 Q503 36 454 16 L684 16 L682 0 L405 0 L407 16 Q460 29 504.5 60 Q549 91 582.5 134.5 Q616 178 639 233 Q662 288 673 350 Q686 423 678.5 486 Q671 549 643 595.5 Q615 642 566 668 Q517 694 448 694 Q379 694 321 668 Q263 642 218.5 595.5 Q174 549 144 486 Q114 423 101 350 Q90 288 94 233 Q98 178 116.5 134.5 Q135 91 168 60 Q201 29 249 16 L247 0 L-30 0 L-28 16 L202 16 Q161 36 133 70 Q105 104 89.5 147.5 Q74 191 71.5 242.5 Q69 294 79 350 Q92 422 123.5 487.5 Q155 553 202.5 602.5 Q250 652 313 681 Q376 710 451 710 Z " />
<glyph glyph-name="alpha" unicode="&#x3b1;" horiz-adv-x="590" d="M309 510 Q361 510 393.5 490 Q426 470 443.5 438 Q461 406 466.5 364 Q472 322 471 279 L552 500 L570 500 L469 230 Q464 183 462 143.5 Q460 104 464 75.5 Q468 47 479 31 Q490 15 511 15 Q514 15 520.5 15 Q527 15 532 16 L530 0 Q525 -1 518 -1 Q511 -1 508 -1 Q484 -1 470.5 14 Q457 29 450.5 54.5 Q444 80 444 114.5 Q444 149 447 187 Q402 83 347.5 36.5 Q293 -10 218 -10 Q167 -10 132.5 9 Q98 28 78.5 62.5 Q59 97 55 145 Q51 193 61 250 Q71 307 92 355 Q113 403 144 437.5 Q175 472 216.5 491 Q258 510 309 510 Z M307 497 Q261 497 223.5 478.5 Q186 460 157.5 427.5 Q129 395 109.5 349.5 Q90 304 81 250 Q71 196 74.5 150.5 Q78 105 95 72.5 Q112 40 143 21.5 Q174 3 220 3 Q268 3 304.5 23.5 Q341 44 368.5 77.5 Q396 111 417 154.5 Q438 198 455 245 Q463 379 425.5 438 Q388 497 307 497 Z " />
<glyph glyph-name="gamma" unicode="&#x3b3;" horiz-adv-x="444" d="M79 502 Q85 478 94.5 439 Q104 400 114 353 Q124 306 134 255.5 Q144 205 153 158.5 Q162 112 169 73 Q176 34 180 11 Q198 38 221 75.5 Q244 113 269.5 155.5 Q295 198 321.5 244 Q348 290 373.5 335.5 Q399 381 421.5 423 Q444 465 462 500 L481 500 Q453 446 414.5 377.5 Q376 309 335 238.5 Q294 168 253.5 101.5 Q213 35 182 -14 L154 -200 L130 -200 L168 -14 Q159 36 145 107 Q131 178 115 251.5 Q99 325 84 391 Q69 457 58 498 L79 502 Z " />
<glyph glyph-name="delta" unicode="&#x3b4;" horiz-adv-x="556" d="M324 478 Q278 478 237.5 460.5 Q197 443 164.5 411.5 Q132 380 110 336 Q88 292 79 240 Q70 187 76.5 143.5 Q83 100 103.5 68.5 Q124 37 158 20 Q192 3 238 3 Q284 3 324.5 20 Q365 37 397 68.5 Q429 100 451 143.5 Q473 187 482 240 Q491 292 485 336 Q479 380 459 411.5 Q439 443 405 460.5 Q371 478 324 478 Z M356 704 Q402 704 450.5 698.5 Q499 693 542 685 L539 669 Q496 677 448 683.5 Q400 690 353 690 Q320 690 289.5 685.5 Q259 681 235.5 670 Q212 659 196 640 Q180 621 175 593 Q170 567 184 549 Q198 531 222.5 519 Q247 507 278.5 501 Q310 495 342 492 Q393 488 427.5 467.5 Q462 447 481 414 Q500 381 504.5 336 Q509 291 500 239 Q490 183 467 137 Q444 91 409.5 58.5 Q375 26 331 8 Q287 -10 236 -10 Q185 -10 147.5 8 Q110 26 87 59 Q64 92 56.5 138 Q49 184 59 240 Q68 292 90.5 336 Q113 380 144 412.5 Q175 445 213.5 464.5 Q252 484 293 487 Q263 490 236.5 497.5 Q210 505 191 517.5 Q172 530 162 548.5 Q152 567 157 593 Q163 625 181 646.5 Q199 668 226 680.5 Q253 693 286.5 698.5 Q320 704 356 704 Z " />
<glyph glyph-name="epsilon" unicode="&#x3b5;" horiz-adv-x="457" d="M279 510 Q354 510 394.5 477.5 Q435 445 435 394 L416 394 Q419 440 382.5 468 Q346 496 277 496 Q236 496 205 487 Q174 478 152.5 463 Q131 448 118.5 427.5 Q106 407 102 384 Q92 327 132.5 296.5 Q173 266 256 266 L253 249 Q168 249 115 215.5 Q62 182 51 123 Q47 100 52.5 78.5 Q58 57 74.5 40.5 Q91 24 119.5 14 Q148 4 191 4 Q226 4 256 12 Q286 20 310 34.5 Q334 49 350.5 68 Q367 87 374 110 L392 110 Q383 84 364.5 62 Q346 40 319.5 24 Q293 8 260 -1 Q227 -10 189 -10 Q144 -10 112 1 Q80 12 61 30.5 Q42 49 34.5 73 Q27 97 32 123 Q37 153 53.5 177 Q70 201 94 217.5 Q118 234 148 244 Q178 254 210 256 Q181 259 156 268.5 Q131 278 113 293.5 Q95 309 87 331.5 Q79 354 84 384 Q94 437 143.5 473.5 Q193 510 279 510 Z " />
<glyph glyph-name="zeta" unicode="&#x3b6;" horiz-adv-x="400" d="M473 700 L470 685 L172 329 Q124 272 99 231.5 Q74 191 68 155 Q62 124 76 103.5 Q90 83 113.5 68 Q137 53 165 40 Q193 27 216.5 11.5 Q240 -4 254 -24.5 Q268 -45 262 -76 Q259 -91 249.5 -109 Q240 -127 226 -145.5 Q212 -164 193.5 -181 Q175 -198 156 -212 L145 -201 Q163 -188 179.5 -172 Q196 -156 209 -139.5 Q222 -123 231 -107 Q240 -91 242 -78 Q247 -49 233 -30.5 Q219 -12 195 1.5 Q171 15 142.5 27.5 Q114 40 91 56 Q68 72 54.5 95 Q41 118 48 154 Q55 192 80.5 234 Q106 276 154 333 L447 685 L90 685 L93 700 L473 700 Z " />
<glyph glyph-name="eta" unicode="&#x3b7;" horiz-adv-x="570" d="M164 500 L140 366 Q154 396 175 422.5 Q196 449 223 468.5 Q250 488 283.5 499 Q317 510 355 510 Q398 510 427 496 Q456 482 472 456 Q488 430 491 393 Q494 356 486 310 L396 -200 L378 -200 L468 310 Q475 352 473 386 Q471 420 457.5 444.5 Q444 469 418 482.5 Q392 496 353 496 Q319 496 283 484 Q247 472 215 445 Q183 418 158.5 374.5 Q134 331 123 269 L76 0 L58 0 L146 500 L164 500 Z " />
<glyph glyph-name="theta" unicode="&#x3b8;" horiz-adv-x="556" d="M278 365 Q342 365 401.5 392 Q461 419 503 459 Q504 513 495 556.5 Q486 600 465.5 630.5 Q445 661 413.5 678 Q382 695 340 695 Q293 695 258.5 681 Q224 667 200 643.5 Q176 620 162 589.5 Q148 559 142 527 Q137 495 141 466 Q145 437 161 414.5 Q177 392 205.5 378.5 Q234 365 278 365 Z M343 710 Q400 710 439 685.5 Q478 661 499 616 Q520 571 523 506.5 Q526 442 512 362 Q497 278 472 209.5 Q447 141 410 92 Q373 43 325 16.5 Q277 -10 216 -10 Q145 -10 116.5 35.5 Q88 81 102 162 Q112 220 102 252.5 Q92 285 51 285 Q46 285 41.5 284.5 Q37 284 31 283 L34 299 Q40 300 46 300.5 Q52 301 57 301 Q103 301 118.5 265 Q134 229 122 163 Q109 89 132 46.5 Q155 4 218 4 Q275 4 320 30.5 Q365 57 399 105 Q433 153 456 218.5 Q479 284 493 362 Q501 404 502 442 Q459 402 401.5 376 Q344 350 275 350 Q226 350 193.5 364.5 Q161 379 143 404 Q125 429 120 460.5 Q115 492 121 527 Q127 562 143.5 595 Q160 628 187 653.5 Q214 679 252.5 694.5 Q291 710 343 710 Z " />
<glyph glyph-name="iota" unicode="&#x3b9;" horiz-adv-x="227" d="M164 500 L96 114 Q87 64 98 39.5 Q109 15 148 15 Q151 15 157.5 15 Q164 15 169 16 L167 0 Q162 -1 155 -1 Q148 -1 145 -1 Q97 -1 82 26.5 Q67 54 78 114 L146 500 L164 500 Z " />
<glyph glyph-name="kappa" unicode="&#x3ba;" horiz-adv-x="429" d="M164 500 L76 0 L58 0 L146 500 L164 500 Z M442 500 L159 269 L374 0 L347 0 L135 268 L416 500 L442 500 Z " />
<glyph glyph-name="lambda" unicode="&#x3bb;" horiz-adv-x="444" d="M138 711 Q182 710 213.5 681.5 Q245 653 260 590 L393 2 L374 -2 L276 434 Q273 450 270 462 Q267 474 266 491 Q258 474 251.5 461.5 Q245 449 236 434 L-9 0 L-29 0 L259 508 L240 591 Q226 648 200 669.5 Q174 691 135 692 L138 711 Z " />
<glyph glyph-name="nu" unicode="&#x3bd;" horiz-adv-x="444" d="M79 502 Q93 445 107 383 Q121 321 134 258.5 Q147 196 159 134 Q171 72 181 14 Q213 66 249 127 Q285 188 321.5 251.5 Q358 315 394 378.5 Q430 442 462 500 L481 500 Q447 439 409.5 374 Q372 309 334.5 244 Q297 179 260.5 117 Q224 55 191 0 L166 0 Q156 58 143.5 121.5 Q131 185 117 249 Q103 313 88 376.5 Q73 440 58 498 L79 502 Z " />
<glyph glyph-name="xi" unicode="&#x3be;" horiz-adv-x="430" d="M493 700 L490 685 Q435 659 376 629 Q317 599 266.5 566 Q216 533 181.5 497.5 Q147 462 141 427 Q137 403 154 385.5 Q171 368 202.5 356 Q234 344 275.5 338.5 Q317 333 361 333 L358 316 Q313 316 266.5 301 Q220 286 180.5 262 Q141 238 113.5 208.5 Q86 179 81 150 Q75 119 91 99 Q107 79 133 64.5 Q159 50 190.5 37.5 Q222 25 248 10.5 Q274 -4 289.5 -24.5 Q305 -45 300 -76 Q297 -91 287.5 -109 Q278 -127 263 -145.5 Q248 -164 229.5 -181 Q211 -198 192 -212 L181 -201 Q199 -188 215.5 -172 Q232 -156 245 -139.5 Q258 -123 267 -107 Q276 -91 278 -78 Q283 -49 267 -31 Q251 -13 225 0 Q199 13 167.5 25 Q136 37 110.5 52.5 Q85 68 70 90.5 Q55 113 61 149 Q66 179 91.5 208 Q117 237 152.5 261 Q188 285 228.5 301.5 Q269 318 304 323 Q278 323 244.5 328 Q211 333 181.5 345 Q152 357 133.5 376 Q115 395 120 423 Q127 462 162.5 499.5 Q198 537 248 571 Q298 605 354.5 634 Q411 663 460 685 L100 685 L103 700 L493 700 Z " />
<glyph glyph-name="omicron" unicode="&#x3bf;" horiz-adv-x="556" d="M327 510 Q378 510 415.5 490.5 Q453 471 475.5 436.5 Q498 402 505.5 354.5 Q513 307 503 250 Q492 192 468 144 Q444 96 409.5 62 Q375 28 331 9 Q287 -10 236 -10 Q185 -10 147.5 9 Q110 28 87.5 62 Q65 96 57.5 144 Q50 192 61 250 Q71 307 94.5 354.5 Q118 402 153 436.5 Q188 471 232 490.5 Q276 510 327 510 Z M325 497 Q279 497 239 479 Q199 461 167 428 Q135 395 112.5 349.5 Q90 304 81 250 Q71 195 77.5 149.5 Q84 104 104 71.5 Q124 39 158 21 Q192 3 238 3 Q284 3 324 21 Q364 39 396.5 71.5 Q429 104 451 149.5 Q473 195 483 250 Q492 304 486 349.5 Q480 395 459.5 428 Q439 461 405 479 Q371 497 325 497 Z " />
<glyph glyph-name="rho" unicode="&#x3c1;" horiz-adv-x="577" d="M356 510 Q407 510 443.5 491 Q480 472 501 437.5 Q522 403 528 355 Q534 307 524 250 Q514 193 491.5 145 Q469 97 435.5 62.5 Q402 28 359 9 Q316 -10 265 -10 Q228 -10 198 2.5 Q168 15 146.5 36.5 Q125 58 113 86.5 Q101 115 101 147 L40 -200 L22 -200 L100 243 Q113 315 138.5 366 Q164 417 198 449 Q232 481 272.5 495.5 Q313 510 356 510 Z M354 497 Q314 497 276.5 482 Q239 467 208 436 Q177 405 153.5 357 Q130 309 118 242 Q110 195 114 152 Q118 109 136 76 Q154 43 186.5 23 Q219 3 267 3 Q313 3 352 21.5 Q391 40 421.5 72.5 Q452 105 473 150.5 Q494 196 504 250 Q513 304 508 349.5 Q503 395 484.5 427.5 Q466 460 433 478.5 Q400 497 354 497 Z " />
<glyph glyph-name="sigma" unicode="&#x3c3;" horiz-adv-x="567" d="M325 497 Q279 497 239 479 Q199 461 167 428 Q135 395 112.5 349.5 Q90 304 81 250 Q71 195 77.5 149.5 Q84 104 104 71.5 Q124 39 158 21 Q192 3 238 3 Q284 3 324 21 Q364 39 396.5 71.5 Q429 104 451 149.5 Q473 195 483 250 Q492 304 486 349.5 Q480 395 459.5 428 Q439 461 405 479 Q371 497 325 497 Z M327 510 Q392 510 454 505 Q516 500 575 500 L572 485 Q558 485 537 486 Q516 487 492.5 488.5 Q469 490 446 491.5 Q423 493 405 495 Q465 470 491.5 404 Q518 338 503 250 Q492 192 468 144 Q444 96 409.5 62 Q375 28 331 9 Q287 -10 236 -10 Q185 -10 147.5 9 Q110 28 87.5 62 Q65 96 57.5 144 Q50 192 61 250 Q71 307 94.5 354.5 Q118 402 153 436.5 Q188 471 232 490.5 Q276 510 327 510 Z " />
<glyph glyph-name="sigma1" unicode="&#x3c2;" horiz-adv-x="471" d="M307 510 Q355 510 388.5 498 Q422 486 442.5 466 Q463 446 473 420 Q483 394 485 365 L463 365 Q461 390 453.5 413.5 Q446 437 428 455 Q410 473 380.5 483.5 Q351 494 305 494 Q257 494 219.5 474.5 Q182 455 154.5 423.5 Q127 392 109.5 352 Q92 312 85 271 Q73 202 87.5 161 Q102 120 130 94.5 Q158 69 193 55 Q228 41 258 26 Q288 11 305.5 -9.5 Q323 -30 317 -68 Q314 -83 304 -102 Q294 -121 279 -141 Q264 -161 245 -179.5 Q226 -198 207 -212 L198 -202 Q216 -189 232.5 -171.5 Q249 -154 262.5 -136 Q276 -118 284.5 -100 Q293 -82 296 -68 Q300 -44 290 -28 Q280 -12 262 -0.5 Q244 11 219.5 20.5 Q195 30 169.5 42.5 Q144 55 121 72 Q98 89 82 115.5 Q66 142 60.5 179.5 Q55 217 64 271 Q72 314 92 357 Q112 400 142.5 434 Q173 468 214.5 489 Q256 510 307 510 Z " />
<glyph glyph-name="tau" unicode="&#x3c4;" horiz-adv-x="472" d="M500 500 L497 485 L281 485 L216 114 Q207 64 218 39.5 Q229 15 268 15 Q271 15 277.5 15 Q284 15 289 16 L287 0 Q282 -1 275 -1 Q268 -1 265 -1 Q217 -1 202 26.5 Q187 54 198 114 L263 485 L65 485 L68 500 L500 500 Z " />
<glyph glyph-name="upsilon" unicode="&#x3c5;" horiz-adv-x="581" d="M90 510 Q138 510 153.5 482.5 Q169 455 158 395 L122 190 Q114 148 119.5 114 Q125 80 142.5 55.5 Q160 31 189 17.5 Q218 4 257 4 Q296 4 329.5 17.5 Q363 31 389 55.5 Q415 80 432.5 114 Q450 148 458 190 L513 500 L531 500 L476 190 Q459 97 401 43.5 Q343 -10 255 -10 Q167 -10 127 43.5 Q87 97 104 190 L140 395 Q149 445 138 469.5 Q127 494 88 494 Q85 494 78 494 Q71 494 66 493 L69 509 Q74 510 80.5 510 Q87 510 90 510 Z " />
<glyph glyph-name="phi" unicode="&#x3c6;" horiz-adv-x="715" d="M320 4 Q384 5 439 28 Q494 51 537 89 Q580 127 608 176.5 Q636 226 646 280 Q656 336 651 377 Q646 418 631 444.5 Q616 471 591.5 484 Q567 497 538 497 Q478 497 434.5 450 Q391 403 372 300 L320 4 Z M334 498 Q282 492 238.5 470 Q195 448 161.5 414.5 Q128 381 106 339 Q84 297 76 250 Q66 196 77 151.5 Q88 107 117 75 Q146 43 193 24 Q240 5 302 4 L354 300 Q374 410 424 460 Q474 510 541 510 Q574 510 601.5 496 Q629 482 647 453.5 Q665 425 671 382 Q677 339 667 280 Q657 223 627.5 171 Q598 119 552.5 79.5 Q507 40 447.5 16 Q388 -8 317 -9 L284 -200 L266 -200 L299 -9 Q230 -7 179.5 12.5 Q129 32 97.5 66 Q66 100 54.5 146.5 Q43 193 54 250 Q63 300 86.5 344.5 Q110 389 146 424 Q182 459 230.5 482 Q279 505 337 511 L334 498 Z " />
<glyph glyph-name="chi" unicode="&#x3c7;" horiz-adv-x="459" d="M103 500 L206 213 Q209 204 212.5 193.5 Q216 183 218 172 Q225 183 232 193.5 Q239 204 245 213 L452 500 L473 500 L227 162 L363 -200 L339 -200 L227 105 Q223 113 219 126 Q215 139 213 152 Q201 128 183 105 L-35 -200 L-55 -200 L204 159 L79 500 L103 500 Z " />
<glyph glyph-name="psi" unicode="&#x3c8;" horiz-adv-x="736" d="M460 700 L337 7 Q383 7 428.5 15.5 Q474 24 511.5 42.5 Q549 61 575 91 Q601 121 609 165 L668 500 L686 500 L626 160 Q617 113 589.5 81 Q562 49 522 29 Q482 9 433.5 0 Q385 -9 334 -10 L301 -200 L283 -200 L316 -10 Q266 -9 221 0 Q176 9 143 29 Q110 49 93.5 81 Q77 113 86 160 L146 500 L164 500 L105 165 Q97 121 112 91 Q127 61 158 42.5 Q189 24 231 16 Q273 8 319 7 L442 700 L460 700 Z " />
<glyph glyph-name="omega" unicode="&#x3c9;" horiz-adv-x="786" d="M328 494 Q277 493 235 473.5 Q193 454 161.5 420.5 Q130 387 109.5 342.5 Q89 298 80 247 Q69 185 74 139.5 Q79 94 95 64 Q111 34 137 19 Q163 4 194 4 Q218 4 246 11.5 Q274 19 300 39.5 Q326 60 347 95 Q368 130 378 185 L403 366 L431 366 L392 185 Q382 130 391 95 Q400 60 419 39.5 Q438 19 463 11.5 Q488 4 512 4 Q543 4 574 19 Q605 34 632 64 Q659 94 680 139.5 Q701 185 712 247 Q721 298 716 342.5 Q711 387 691.5 420.5 Q672 454 637 473.5 Q602 493 552 494 L554 510 Q618 506 656.5 481.5 Q695 457 714.5 420 Q734 383 737 337.5 Q740 292 732 247 Q721 182 699 134 Q677 86 647.5 54 Q618 22 583 6 Q548 -10 511 -10 Q481 -10 455.5 -1.5 Q430 7 411.5 23.5 Q393 40 382.5 64 Q372 88 374 120 Q364 88 345.5 64 Q327 40 302.5 23.5 Q278 7 249.5 -1.5 Q221 -10 191 -10 Q153 -10 124 6 Q95 22 77 54 Q59 86 54 134 Q49 182 60 247 Q68 292 86.5 337.5 Q105 383 137.5 420 Q170 457 217.5 481.5 Q265 506 330 510 L328 494 Z " />
<glyph glyph-name="alphatonos" unicode="&#x3ac;" horiz-adv-x="590" d="M413 700 L353 546 L340 546 L387 700 L413 700 Z M309 510 Q361 510 393.5 490 Q426 470 443.5 438 Q461 406 466.5 364 Q472 322 471 279 L552 500 L570 500 L469 230 Q464 183 462 143.5 Q460 104 464 75.5 Q468 47 479 31 Q490 15 511 15 Q514 15 520.5 15 Q527 15 532 16 L530 0 Q525 -1 518 -1 Q511 -1 508 -1 Q484 -1 470.5 14 Q457 29 450.5 54.5 Q444 80 444 114.5 Q444 149 447 187 Q402 83 347.5 36.5 Q293 -10 218 -10 Q167 -10 132.5 9 Q98 28 78.5 62.5 Q59 97 55 145 Q51 193 61 250 Q71 307 92 355 Q113 403 144 437.5 Q175 472 216.5 491 Q258 510 309 510 Z M307 497 Q261 497 223.5 478.5 Q186 460 157.5 427.5 Q129 395 109.5 349.5 Q90 304 81 250 Q71 196 74.5 150.5 Q78 105 95 72.5 Q112 40 143 21.5 Q174 3 220 3 Q268 3 304.5 23.5 Q341 44 368.5 77.5 Q396 111 417 154.5 Q438 198 455 245 Q463 379 425.5 438 Q388 497 307 497 Z " />
<glyph glyph-name="epsilontonos" unicode="&#x3ad;" horiz-adv-x="457" d="M352 700 L292 546 L279 546 L326 700 L352 700 Z M279 510 Q354 510 394.5 477.5 Q435 445 435 394 L416 394 Q419 440 382.5 468 Q346 496 277 496 Q236 496 205 487 Q174 478 152.5 463 Q131 448 118.5 427.5 Q106 407 102 384 Q92 327 132.5 296.5 Q173 266 256 266 L253 249 Q168 249 115 215.5 Q62 182 51 123 Q47 100 52.5 78.5 Q58 57 74.5 40.5 Q91 24 119.5 14 Q148 4 191 4 Q226 4 256 12 Q286 20 310 34.5 Q334 49 350.5 68 Q367 87 374 110 L392 110 Q383 84 364.5 62 Q346 40 319.5 24 Q293 8 260 -1 Q227 -10 189 -10 Q144 -10 112 1 Q80 12 61 30.5 Q42 49 34.5 73 Q27 97 32 123 Q37 153 53.5 177 Q70 201 94 217.5 Q118 234 148 244 Q178 254 210 256 Q181 259 156 268.5 Q131 278 113 293.5 Q95 309 87 331.5 Q79 354 84 384 Q94 437 143.5 473.5 Q193 510 279 510 Z " />
<glyph glyph-name="etatonos" unicode="&#x3ae;" horiz-adv-x="570" d="M403 700 L343 546 L330 546 L377 700 L403 700 Z M164 500 L140 366 Q154 396 175 422.5 Q196 449 223 468.5 Q250 488 283.5 499 Q317 510 355 510 Q398 510 427 496 Q456 482 472 456 Q488 430 491 393 Q494 356 486 310 L396 -200 L378 -200 L468 310 Q475 352 473 386 Q471 420 457.5 444.5 Q444 469 418 482.5 Q392 496 353 496 Q319 496 283 484 Q247 472 215 445 Q183 418 158.5 374.5 Q134 331 123 269 L76 0 L58 0 L146 500 L164 500 Z " />
<glyph glyph-name="iotatonos" unicode="&#x3af;" horiz-adv-x="227" d="M224 700 L164 546 L151 546 L198 700 L224 700 Z M164 500 L96 114 Q87 64 98 39.5 Q109 15 148 15 Q151 15 157.5 15 Q164 15 169 16 L167 0 Q162 -1 155 -1 Q148 -1 145 -1 Q97 -1 82 26.5 Q67 54 78 114 L146 500 L164 500 Z " />
<glyph glyph-name="iotadieresis" unicode="&#x3ca;" horiz-adv-x="227" d="M234 622 L239 646 L257 646 L252 622 L234 622 Z M114 622 L119 646 L137 646 L132 622 L114 622 Z M164 500 L96 114 Q87 64 98 39.5 Q109 15 148 15 Q151 15 157.5 15 Q164 15 169 16 L167 0 Q162 -1 155 -1 Q148 -1 145 -1 Q97 -1 82 26.5 Q67 54 78 114 L146 500 L164 500 Z " />
<glyph glyph-name="iotadieresistonos" unicode="&#x390;" horiz-adv-x="227" d="M234 612 L239 636 L257 636 L252 612 L234 612 Z M156 546 L176 700 L202 700 L169 546 L156 546 Z M94 612 L99 636 L117 636 L112 612 L94 612 Z M164 500 L96 114 Q87 64 98 39.5 Q109 15 148 15 Q151 15 157.5 15 Q164 15 169 16 L167 0 Q162 -1 155 -1 Q148 -1 145 -1 Q97 -1 82 26.5 Q67 54 78 114 L146 500 L164 500 Z " />
<glyph glyph-name="omicrontonos" unicode="&#x3cc;" horiz-adv-x="556" d="M396 700 L336 546 L323 546 L370 700 L396 700 Z M327 510 Q378 510 415.5 490.5 Q453 471 475.5 436.5 Q498 402 505.5 354.5 Q513 307 503 250 Q492 192 468 144 Q444 96 409.5 62 Q375 28 331 9 Q287 -10 236 -10 Q185 -10 147.5 9 Q110 28 87.5 62 Q65 96 57.5 144 Q50 192 61 250 Q71 307 94.5 354.5 Q118 402 153 436.5 Q188 471 232 490.5 Q276 510 327 510 Z M325 497 Q279 497 239 479 Q199 461 167 428 Q135 395 112.5 349.5 Q90 304 81 250 Q71 195 77.5 149.5 Q84 104 104 71.5 Q124 39 158 21 Q192 3 238 3 Q284 3 324 21 Q364 39 396.5 71.5 Q429 104 451 149.5 Q473 195 483 250 Q492 304 486 349.5 Q480 395 459.5 428 Q439 461 405 479 Q371 497 325 497 Z " />
<glyph glyph-name="upsilontonos" unicode="&#x3cd;" horiz-adv-x="581" d="M413 700 L353 546 L340 546 L387 700 L413 700 Z M90 510 Q138 510 153.5 482.5 Q169 455 158 395 L122 190 Q114 148 119.5 114 Q125 80 142.5 55.5 Q160 31 189 17.5 Q218 4 257 4 Q296 4 329.5 17.5 Q363 31 389 55.5 Q415 80 432.5 114 Q450 148 458 190 L513 500 L531 500 L476 190 Q459 97 401 43.5 Q343 -10 255 -10 Q167 -10 127 43.5 Q87 97 104 190 L140 395 Q149 445 138 469.5 Q127 494 88 494 Q85 494 78 494 Q71 494 66 493 L69 509 Q74 510 80.5 510 Q87 510 90 510 Z " />
<glyph glyph-name="upsilondieresistonos" unicode="&#x3b0;" horiz-adv-x="581" d="M422 612 L427 636 L445 636 L440 612 L422 612 Z M344 546 L364 700 L390 700 L357 546 L344 546 Z M282 612 L287 636 L305 636 L300 612 L282 612 Z M90 510 Q138 510 153.5 482.5 Q169 455 158 395 L122 190 Q114 148 119.5 114 Q125 80 142.5 55.5 Q160 31 189 17.5 Q218 4 257 4 Q296 4 329.5 17.5 Q363 31 389 55.5 Q415 80 432.5 114 Q450 148 458 190 L513 500 L531 500 L476 190 Q459 97 401 43.5 Q343 -10 255 -10 Q167 -10 127 43.5 Q87 97 104 190 L140 395 Q149 445 138 469.5 Q127 494 88 494 Q85 494 78 494 Q71 494 66 493 L69 509 Q74 510 80.5 510 Q87 510 90 510 Z " />
<glyph glyph-name="upsilondieresis" unicode="&#x3cb;" horiz-adv-x="581" d="M410 622 L415 646 L433 646 L428 622 L410 622 Z M290 622 L295 646 L313 646 L308 622 L290 622 Z M90 510 Q138 510 153.5 482.5 Q169 455 158 395 L122 190 Q114 148 119.5 114 Q125 80 142.5 55.5 Q160 31 189 17.5 Q218 4 257 4 Q296 4 329.5 17.5 Q363 31 389 55.5 Q415 80 432.5 114 Q450 148 458 190 L513 500 L531 500 L476 190 Q459 97 401 43.5 Q343 -10 255 -10 Q167 -10 127 43.5 Q87 97 104 190 L140 395 Q149 445 138 469.5 Q127 494 88 494 Q85 494 78 494 Q71 494 66 493 L69 509 Q74 510 80.5 510 Q87 510 90 510 Z " />
<glyph glyph-name="omegatonos" unicode="&#x3ce;" horiz-adv-x="786" d="M511 700 L451 546 L438 546 L485 700 L511 700 Z M328 494 Q277 493 235 473.5 Q193 454 161.5 420.5 Q130 387 109.5 342.5 Q89 298 80 247 Q69 185 74 139.5 Q79 94 95 64 Q111 34 137 19 Q163 4 194 4 Q218 4 246 11.5 Q274 19 300 39.5 Q326 60 347 95 Q368 130 378 185 L403 366 L431 366 L392 185 Q382 130 391 95 Q400 60 419 39.5 Q438 19 463 11.5 Q488 4 512 4 Q543 4 574 19 Q605 34 632 64 Q659 94 680 139.5 Q701 185 712 247 Q721 298 716 342.5 Q711 387 691.5 420.5 Q672 454 637 473.5 Q602 493 552 494 L554 510 Q618 506 656.5 481.5 Q695 457 714.5 420 Q734 383 737 337.5 Q740 292 732 247 Q721 182 699 134 Q677 86 647.5 54 Q618 22 583 6 Q548 -10 511 -10 Q481 -10 455.5 -1.5 Q430 7 411.5 23.5 Q393 40 382.5 64 Q372 88 374 120 Q364 88 345.5 64 Q327 40 302.5 23.5 Q278 7 249.5 -1.5 Q221 -10 191 -10 Q153 -10 124 6 Q95 22 77 54 Q59 86 54 134 Q49 182 60 247 Q68 292 86.5 337.5 Q105 383 137.5 420 Q170 457 217.5 481.5 Q265 506 330 510 L328 494 Z " />
<glyph glyph-name="tonos" unicode="&#x384;" horiz-adv-x="150" d="M193 700 L133 546 L120 546 L167 700 L193 700 Z " />
<glyph glyph-name="dieresistonos" unicode="&#x385;" horiz-adv-x="238" d="M247 612 L252 636 L270 636 L265 612 L247 612 Z M169 546 L189 700 L215 700 L182 546 L169 546 Z M107 612 L112 636 L130 636 L125 612 L107 612 Z " />
<glyph glyph-name="anoteleia" unicode="&#x387;" horiz-adv-x="570" d="M269 273 L263 240 L231 240 L237 273 L269 273 Z " />
<glyph glyph-name="Abreve" unicode="&#x102;" horiz-adv-x="591" d="M313 820 Q308 788 324.5 766.5 Q341 745 381 745 Q425 745 448 767.5 Q471 790 477 820 L490 819 Q482 781 454 755.5 Q426 730 378 730 Q331 730 312.5 755.5 Q294 781 300 819 L313 820 Z M377 694 Q365 668 351.5 644 Q338 620 327 600 L131 250 L467 250 L393 600 Q388 621 384.5 644.5 Q381 668 377 694 Z M393 700 L538 0 L516 0 L471 235 L122 235 L-6 0 L-27 0 L365 700 L393 700 Z " />
<glyph glyph-name="Amacron" unicode="&#x100;" horiz-adv-x="591" d="M273 757 L276 772 L497 772 L494 757 L273 757 Z M377 694 Q365 668 351.5 644 Q338 620 327 600 L131 250 L467 250 L393 600 Q388 621 384.5 644.5 Q381 668 377 694 Z M393 700 L538 0 L516 0 L471 235 L122 235 L-6 0 L-27 0 L365 700 L393 700 Z " />
<glyph glyph-name="Aogonek" unicode="&#x104;" horiz-adv-x="591" d="M377 694 Q365 668 351.5 644 Q338 620 327 600 L131 250 L467 250 L393 600 Q388 621 384.5 644.5 Q381 668 377 694 Z M516 0 L471 235 L122 235 L-6 0 L-27 0 L365 700 L393 700 L538 0 L521 0 Q486 -24 460.5 -58.5 Q435 -93 429 -129 Q423 -163 440.5 -180.5 Q458 -198 490 -198 Q497 -198 504 -197 Q511 -196 519 -194 L517 -208 Q500 -211 486 -211 Q468 -211 453 -206.5 Q438 -202 427.5 -192 Q417 -182 412 -166.5 Q407 -151 411 -130 Q418 -92 444.5 -58.5 Q471 -25 509 0 L516 0 Z " />
<glyph glyph-name="Cacute" unicode="&#x106;" horiz-adv-x="665" d="M557 863 L415 727 L400 727 L538 868 L557 863 Z M626 174 Q606 133 575.5 99 Q545 65 506 41 Q467 17 421.5 3.5 Q376 -10 327 -10 Q252 -10 199 19 Q146 48 115 97.5 Q84 147 75 212.5 Q66 278 79 350 Q92 422 124 487.5 Q156 553 204 602.5 Q252 652 315.5 681 Q379 710 454 710 Q503 710 543.5 696.5 Q584 683 614.5 659 Q645 635 663.5 601 Q682 567 688 526 L667 526 Q663 563 646 593.5 Q629 624 601.5 646.5 Q574 669 535.5 681.5 Q497 694 451 694 Q382 694 323.5 668 Q265 642 220 595.5 Q175 549 144.5 486 Q114 423 101 350 Q88 276 96.5 213.5 Q105 151 133.5 104.5 Q162 58 211.5 32 Q261 6 330 6 Q376 6 418.5 18.5 Q461 31 496.5 53.5 Q532 76 560 106.5 Q588 137 605 174 L626 174 Z " />
<glyph glyph-name="Ccaron" unicode="&#x10c;" horiz-adv-x="665" d="M376 868 L460 744 L589 868 L598 863 L466 727 L449 727 L365 863 L376 868 Z M626 174 Q606 133 575.5 99 Q545 65 506 41 Q467 17 421.5 3.5 Q376 -10 327 -10 Q252 -10 199 19 Q146 48 115 97.5 Q84 147 75 212.5 Q66 278 79 350 Q92 422 124 487.5 Q156 553 204 602.5 Q252 652 315.5 681 Q379 710 454 710 Q503 710 543.5 696.5 Q584 683 614.5 659 Q645 635 663.5 601 Q682 567 688 526 L667 526 Q663 563 646 593.5 Q629 624 601.5 646.5 Q574 669 535.5 681.5 Q497 694 451 694 Q382 694 323.5 668 Q265 642 220 595.5 Q175 549 144.5 486 Q114 423 101 350 Q88 276 96.5 213.5 Q105 151 133.5 104.5 Q162 58 211.5 32 Q261 6 330 6 Q376 6 418.5 18.5 Q461 31 496.5 53.5 Q532 76 560 106.5 Q588 137 605 174 L626 174 Z " />
<glyph glyph-name="Ccircumflex" unicode="&#x108;" horiz-adv-x="665" d="M565 727 L481 851 L352 727 L343 732 L475 868 L492 868 L576 732 L565 727 Z M626 174 Q606 133 575.5 99 Q545 65 506 41 Q467 17 421.5 3.5 Q376 -10 327 -10 Q252 -10 199 19 Q146 48 115 97.5 Q84 147 75 212.5 Q66 278 79 350 Q92 422 124 487.5 Q156 553 204 602.5 Q252 652 315.5 681 Q379 710 454 710 Q503 710 543.5 696.5 Q584 683 614.5 659 Q645 635 663.5 601 Q682 567 688 526 L667 526 Q663 563 646 593.5 Q629 624 601.5 646.5 Q574 669 535.5 681.5 Q497 694 451 694 Q382 694 323.5 668 Q265 642 220 595.5 Q175 549 144.5 486 Q114 423 101 350 Q88 276 96.5 213.5 Q105 151 133.5 104.5 Q162 58 211.5 32 Q261 6 330 6 Q376 6 418.5 18.5 Q461 31 496.5 53.5 Q532 76 560 106.5 Q588 137 605 174 L626 174 Z " />
<glyph glyph-name="Cdotaccent" unicode="&#x10a;" horiz-adv-x="665" d="M457 771 L461 792 L479 792 L475 771 L457 771 Z M626 174 Q606 133 575.5 99 Q545 65 506 41 Q467 17 421.5 3.5 Q376 -10 327 -10 Q252 -10 199 19 Q146 48 115 97.5 Q84 147 75 212.5 Q66 278 79 350 Q92 422 124 487.5 Q156 553 204 602.5 Q252 652 315.5 681 Q379 710 454 710 Q503 710 543.5 696.5 Q584 683 614.5 659 Q645 635 663.5 601 Q682 567 688 526 L667 526 Q663 563 646 593.5 Q629 624 601.5 646.5 Q574 669 535.5 681.5 Q497 694 451 694 Q382 694 323.5 668 Q265 642 220 595.5 Q175 549 144.5 486 Q114 423 101 350 Q88 276 96.5 213.5 Q105 151 133.5 104.5 Q162 58 211.5 32 Q261 6 330 6 Q376 6 418.5 18.5 Q461 31 496.5 53.5 Q532 76 560 106.5 Q588 137 605 174 L626 174 Z " />
<glyph glyph-name="Dcroat" unicode="&#x110;" horiz-adv-x="703" d="M310 16 Q377 16 433.5 42.5 Q490 69 532.5 114.5 Q575 160 604 222 Q633 284 645 356 Q658 429 650 489 Q642 549 614.5 592.5 Q587 636 540 660 Q493 684 428 684 L198 684 L144 377 L271 377 L268 361 L141 361 L80 16 L310 16 Z M58 0 L121 361 L47 361 L50 377 L124 377 L181 700 L431 700 Q499 700 549.5 675 Q600 650 630.5 604.5 Q661 559 670.5 495.5 Q680 432 667 356 Q653 280 622 215 Q591 150 545 102 Q499 54 439 27 Q379 0 308 0 L58 0 Z " />
<glyph glyph-name="Dcaron" unicode="&#x10e;" horiz-adv-x="703" d="M336 868 L420 744 L549 868 L558 863 L426 727 L409 727 L325 863 L336 868 Z M310 16 Q377 16 433.5 42.5 Q490 69 532.5 114.5 Q575 160 604 222 Q633 284 645 356 Q658 429 650 489 Q642 549 614.5 592.5 Q587 636 540 660 Q493 684 428 684 L198 684 L80 16 L310 16 Z M58 0 L181 700 L431 700 Q499 700 549.5 675 Q600 650 630.5 604.5 Q661 559 670.5 495.5 Q680 432 667 356 Q653 280 622 215 Q591 150 545 102 Q499 54 439 27 Q379 0 308 0 L58 0 Z " />
<glyph glyph-name="Ebreve" unicode="&#x114;" horiz-adv-x="600" d="M350 820 Q345 788 361.5 766.5 Q378 745 418 745 Q462 745 485 767.5 Q508 790 514 820 L527 819 Q519 781 491 755.5 Q463 730 415 730 Q368 730 349.5 755.5 Q331 781 337 819 L350 820 Z M58 0 L181 700 L623 700 L620 684 L198 684 L143 372 L509 372 L506 356 L140 356 L80 16 L504 16 L502 0 L58 0 Z " />
<glyph glyph-name="Ecaron" unicode="&#x11a;" horiz-adv-x="600" d="M331 868 L415 744 L544 868 L553 863 L421 727 L404 727 L320 863 L331 868 Z M58 0 L181 700 L623 700 L620 684 L198 684 L143 372 L509 372 L506 356 L140 356 L80 16 L504 16 L502 0 L58 0 Z " />
<glyph glyph-name="Edotaccent" unicode="&#x116;" horiz-adv-x="600" d="M403 771 L407 792 L425 792 L421 771 L403 771 Z M58 0 L181 700 L623 700 L620 684 L198 684 L143 372 L509 372 L506 356 L140 356 L80 16 L504 16 L502 0 L58 0 Z " />
<glyph glyph-name="Emacron" unicode="&#x112;" horiz-adv-x="600" d="M308 757 L311 772 L532 772 L529 757 L308 757 Z M58 0 L181 700 L623 700 L620 684 L198 684 L143 372 L509 372 L506 356 L140 356 L80 16 L504 16 L502 0 L58 0 Z " />
<glyph glyph-name="Eogonek" unicode="&#x118;" horiz-adv-x="600" d="M58 0 L181 700 L623 700 L620 684 L198 684 L143 372 L509 372 L506 356 L140 356 L80 16 L504 16 L502 0 L449 0 Q414 -24 388.5 -58.5 Q363 -93 357 -129 Q351 -163 368.5 -180.5 Q386 -198 418 -198 Q425 -198 432 -197 Q439 -196 447 -194 L445 -208 Q428 -211 414 -211 Q396 -211 381 -206.5 Q366 -202 355.5 -192 Q345 -182 340 -166.5 Q335 -151 339 -130 Q346 -92 372.5 -58.5 Q399 -25 437 0 L58 0 Z " />
<glyph glyph-name="Gbreve" unicode="&#x11e;" horiz-adv-x="737" d="M387 820 Q382 788 398.5 766.5 Q415 745 455 745 Q499 745 522 767.5 Q545 790 551 820 L564 819 Q556 781 528 755.5 Q500 730 452 730 Q405 730 386.5 755.5 Q368 781 374 819 L387 820 Z M454 710 Q503 710 543.5 696.5 Q584 683 614.5 659 Q645 635 663.5 601 Q682 567 688 526 L667 526 Q663 563 646 593.5 Q629 624 601.5 646.5 Q574 669 535.5 681.5 Q497 694 451 694 Q382 694 323.5 668 Q265 642 220 595.5 Q175 549 144.5 486 Q114 423 101 350 Q88 276 96.5 213.5 Q105 151 133.5 104.5 Q162 58 211.5 32 Q261 6 330 6 Q378 6 426.5 25 Q475 44 516.5 83.5 Q558 123 589.5 183.5 Q621 244 636 328 L380 328 L383 344 L659 344 L599 0 L579 0 L615 207 Q601 169 575.5 130.5 Q550 92 514 61 Q478 30 431.5 10 Q385 -10 327 -10 Q252 -10 199 19 Q146 48 115 97.5 Q84 147 75 212.5 Q66 278 79 350 Q92 422 124 487.5 Q156 553 204 602.5 Q252 652 315.5 681 Q379 710 454 710 Z " />
<glyph glyph-name="Gcircumflex" unicode="&#x11c;" horiz-adv-x="737" d="M563 727 L479 851 L350 727 L341 732 L473 868 L490 868 L574 732 L563 727 Z M454 710 Q503 710 543.5 696.5 Q584 683 614.5 659 Q645 635 663.5 601 Q682 567 688 526 L667 526 Q663 563 646 593.5 Q629 624 601.5 646.5 Q574 669 535.5 681.5 Q497 694 451 694 Q382 694 323.5 668 Q265 642 220 595.5 Q175 549 144.5 486 Q114 423 101 350 Q88 276 96.5 213.5 Q105 151 133.5 104.5 Q162 58 211.5 32 Q261 6 330 6 Q378 6 426.5 25 Q475 44 516.5 83.5 Q558 123 589.5 183.5 Q621 244 636 328 L380 328 L383 344 L659 344 L599 0 L579 0 L615 207 Q601 169 575.5 130.5 Q550 92 514 61 Q478 30 431.5 10 Q385 -10 327 -10 Q252 -10 199 19 Q146 48 115 97.5 Q84 147 75 212.5 Q66 278 79 350 Q92 422 124 487.5 Q156 553 204 602.5 Q252 652 315.5 681 Q379 710 454 710 Z " />
<glyph glyph-name="Gcommaaccent" unicode="&#x122;" horiz-adv-x="737" d="M313 -59 L308 -90 Q303 -118 290 -141.5 Q277 -165 258 -185 L250 -178 Q287 -139 296 -90 L279 -90 L284 -59 L313 -59 Z M454 710 Q503 710 543.5 696.5 Q584 683 614.5 659 Q645 635 663.5 601 Q682 567 688 526 L667 526 Q663 563 646 593.5 Q629 624 601.5 646.5 Q574 669 535.5 681.5 Q497 694 451 694 Q382 694 323.5 668 Q265 642 220 595.5 Q175 549 144.5 486 Q114 423 101 350 Q88 276 96.5 213.5 Q105 151 133.5 104.5 Q162 58 211.5 32 Q261 6 330 6 Q378 6 426.5 25 Q475 44 516.5 83.5 Q558 123 589.5 183.5 Q621 244 636 328 L380 328 L383 344 L659 344 L599 0 L579 0 L615 207 Q601 169 575.5 130.5 Q550 92 514 61 Q478 30 431.5 10 Q385 -10 327 -10 Q252 -10 199 19 Q146 48 115 97.5 Q84 147 75 212.5 Q66 278 79 350 Q92 422 124 487.5 Q156 553 204 602.5 Q252 652 315.5 681 Q379 710 454 710 Z " />
<glyph glyph-name="Gdotaccent" unicode="&#x120;" horiz-adv-x="737" d="M450 771 L454 792 L472 792 L468 771 L450 771 Z M454 710 Q503 710 543.5 696.5 Q584 683 614.5 659 Q645 635 663.5 601 Q682 567 688 526 L667 526 Q663 563 646 593.5 Q629 624 601.5 646.5 Q574 669 535.5 681.5 Q497 694 451 694 Q382 694 323.5 668 Q265 642 220 595.5 Q175 549 144.5 486 Q114 423 101 350 Q88 276 96.5 213.5 Q105 151 133.5 104.5 Q162 58 211.5 32 Q261 6 330 6 Q378 6 426.5 25 Q475 44 516.5 83.5 Q558 123 589.5 183.5 Q621 244 636 328 L380 328 L383 344 L659 344 L599 0 L579 0 L615 207 Q601 169 575.5 130.5 Q550 92 514 61 Q478 30 431.5 10 Q385 -10 327 -10 Q252 -10 199 19 Q146 48 115 97.5 Q84 147 75 212.5 Q66 278 79 350 Q92 422 124 487.5 Q156 553 204 602.5 Q252 652 315.5 681 Q379 710 454 710 Z " />
<glyph glyph-name="Hcircumflex" unicode="&#x124;" horiz-adv-x="669" d="M524 727 L440 851 L311 727 L302 732 L434 868 L451 868 L535 732 L524 727 Z M511 0 L573 356 L140 356 L78 0 L58 0 L181 700 L201 700 L143 372 L576 372 L634 700 L654 700 L531 0 L511 0 Z " />
<glyph glyph-name="Hbar" unicode="&#x126;" horiz-adv-x="669" d="M576 372 L607 551 L174 551 L143 372 L576 372 Z M511 0 L573 356 L140 356 L78 0 L58 0 L155 551 L86 551 L88 565 L157 565 L181 700 L201 700 L177 565 L610 565 L634 700 L654 700 L630 565 L674 565 L672 551 L628 551 L531 0 L511 0 Z " />
<glyph glyph-name="Ibreve" unicode="&#x12c;" horiz-adv-x="216" d="M131 820 Q126 788 142.5 766.5 Q159 745 199 745 Q243 745 266 767.5 Q289 790 295 820 L308 819 Q300 781 272 755.5 Q244 730 196 730 Q149 730 130.5 755.5 Q112 781 118 819 L131 820 Z M58 0 L181 700 L201 700 L78 0 L58 0 Z " />
<glyph glyph-name="Idotaccent" unicode="&#x130;" horiz-adv-x="216" d="M194 771 L198 792 L216 792 L212 771 L194 771 Z M58 0 L181 700 L201 700 L78 0 L58 0 Z " />
<glyph glyph-name="Imacron" unicode="&#x12a;" horiz-adv-x="216" d="M91 757 L94 772 L315 772 L312 757 L91 757 Z M58 0 L181 700 L201 700 L78 0 L58 0 Z " />
<glyph glyph-name="Iogonek" unicode="&#x12e;" horiz-adv-x="216" d="M58 0 L181 700 L201 700 L78 0 Q43 -24 17.5 -58.5 Q-8 -93 -14 -129 Q-20 -163 -2.5 -180.5 Q15 -198 47 -198 Q54 -198 61 -197 Q68 -196 76 -194 L74 -208 Q57 -211 43 -211 Q25 -211 10 -206.5 Q-5 -202 -15.5 -192 Q-26 -182 -31 -166.5 Q-36 -151 -32 -130 Q-25 -92 1.5 -58.5 Q28 -25 66 0 L58 0 Z " />
<glyph glyph-name="Itilde" unicode="&#x128;" horiz-adv-x="216" d="M151 822 Q172 822 186 812 Q200 802 212 789.5 Q224 777 235.5 767 Q247 757 262 757 Q310 757 327 806 L337 804 Q326 772 304.5 758 Q283 744 260 744 Q240 744 227 754 Q214 764 202.5 776.5 Q191 789 179 799 Q167 809 149 809 Q103 809 84 759 L74 762 Q85 794 106.5 808 Q128 822 151 822 Z M58 0 L181 700 L201 700 L78 0 L58 0 Z " />
<glyph glyph-name="Jcircumflex" unicode="&#x134;" horiz-adv-x="482" d="M562 727 L478 851 L349 727 L340 732 L472 868 L489 868 L573 732 L562 727 Z M467 700 L370 153 Q358 81 305 35.5 Q252 -10 164 -10 Q127 -10 98.5 0 Q70 10 50 28 Q30 46 20 70 Q10 94 11 123 L32 123 Q30 74 66 40 Q102 6 167 6 Q209 6 241 18 Q273 30 295.5 50.5 Q318 71 331.5 97.5 Q345 124 350 153 L447 700 L467 700 Z " />
<glyph glyph-name="Kcommaaccent" unicode="&#x136;" horiz-adv-x="550" d="M243 -59 L238 -90 Q233 -118 220 -141.5 Q207 -165 188 -185 L180 -178 Q217 -139 226 -90 L209 -90 L214 -59 L243 -59 Z M58 0 L181 700 L201 700 L78 0 L58 0 Z M469 0 L156 364 L566 700 L594 700 L182 365 L497 0 L469 0 Z " />
<glyph glyph-name="Lacute" unicode="&#x139;" horiz-adv-x="529" d="M355 863 L213 727 L198 727 L336 868 L355 863 Z M58 0 L181 700 L201 700 L80 16 L481 16 L479 0 L58 0 Z " />
<glyph glyph-name="Lcaron" unicode="&#x13d;" horiz-adv-x="529" d="M317 710 L274 568 L264 568 L289 710 L317 710 Z M58 0 L181 700 L201 700 L80 16 L481 16 L479 0 L58 0 Z " />
<glyph glyph-name="Lcommaaccent" unicode="&#x13b;" horiz-adv-x="529" d="M274 -59 L269 -90 Q264 -118 251 -141.5 Q238 -165 219 -185 L211 -178 Q248 -139 257 -90 L240 -90 L245 -59 L274 -59 Z M58 0 L181 700 L201 700 L80 16 L481 16 L479 0 L58 0 Z " />
<glyph glyph-name="Lslash" unicode="&#x141;" horiz-adv-x="529" d="M58 0 L104 264 L23 195 L15 205 L108 284 L181 700 L201 700 L131 304 L309 456 L318 446 L127 284 L80 16 L481 16 L479 0 L58 0 Z " />
<glyph glyph-name="Nacute" unicode="&#x143;" horiz-adv-x="660" d="M528 863 L386 727 L371 727 L509 868 L528 863 Z M211 700 L486 78 Q492 64 497.5 50.5 Q503 37 508 23 Q509 40 511.5 56 Q514 72 517 89 L625 700 L645 700 L522 0 L500 0 L220 632 Q214 646 208 659.5 Q202 673 198 687 L188 626 L78 0 L58 0 L181 700 L211 700 Z " />
<glyph glyph-name="Ncaron" unicode="&#x147;" horiz-adv-x="660" d="M337 868 L421 744 L550 868 L559 863 L427 727 L410 727 L326 863 L337 868 Z M211 700 L486 78 Q492 64 497.5 50.5 Q503 37 508 23 Q509 40 511.5 56 Q514 72 517 89 L625 700 L645 700 L522 0 L500 0 L220 632 Q214 646 208 659.5 Q202 673 198 687 L188 626 L78 0 L58 0 L181 700 L211 700 Z " />
<glyph glyph-name="Ncommaaccent" unicode="&#x145;" horiz-adv-x="660" d="M300 -59 L295 -90 Q290 -118 277 -141.5 Q264 -165 245 -185 L237 -178 Q274 -139 283 -90 L266 -90 L271 -59 L300 -59 Z M211 700 L486 78 Q492 64 497.5 50.5 Q503 37 508 23 Q509 40 511.5 56 Q514 72 517 89 L625 700 L645 700 L522 0 L500 0 L220 632 Q214 646 208 659.5 Q202 673 198 687 L188 626 L78 0 L58 0 L181 700 L211 700 Z " />
<glyph glyph-name="Obreve" unicode="&#x14e;" horiz-adv-x="732" d="M388 820 Q383 788 399.5 766.5 Q416 745 456 745 Q500 745 523 767.5 Q546 790 552 820 L565 819 Q557 781 529 755.5 Q501 730 453 730 Q406 730 387.5 755.5 Q369 781 375 819 L388 820 Z M451 710 Q526 710 578.5 681 Q631 652 661 602.5 Q691 553 699.5 487.5 Q708 422 695 350 Q682 278 651 212.5 Q620 147 572.5 97.5 Q525 48 462 19 Q399 -10 324 -10 Q249 -10 196.5 19 Q144 48 113.5 97.5 Q83 147 74.5 212.5 Q66 278 79 350 Q92 422 123.5 487.5 Q155 553 202.5 602.5 Q250 652 313 681 Q376 710 451 710 Z M448 694 Q379 694 321 668 Q263 642 218.5 595.5 Q174 549 144 486 Q114 423 101 350 Q88 276 96 213.5 Q104 151 132 104.5 Q160 58 209 32 Q258 6 327 6 Q396 6 454 32 Q512 58 556.5 104.5 Q601 151 630.5 213.5 Q660 276 673 350 Q686 423 678.5 486 Q671 549 643 595.5 Q615 642 566 668 Q517 694 448 694 Z " />
<glyph glyph-name="Ohungarumlaut" unicode="&#x150;" horiz-adv-x="732" d="M606 863 L474 727 L461 727 L589 868 L606 863 Z M487 863 L356 727 L342 727 L470 868 L487 863 Z M451 710 Q526 710 578.5 681 Q631 652 661 602.5 Q691 553 699.5 487.5 Q708 422 695 350 Q682 278 651 212.5 Q620 147 572.5 97.5 Q525 48 462 19 Q399 -10 324 -10 Q249 -10 196.5 19 Q144 48 113.5 97.5 Q83 147 74.5 212.5 Q66 278 79 350 Q92 422 123.5 487.5 Q155 553 202.5 602.5 Q250 652 313 681 Q376 710 451 710 Z M448 694 Q379 694 321 668 Q263 642 218.5 595.5 Q174 549 144 486 Q114 423 101 350 Q88 276 96 213.5 Q104 151 132 104.5 Q160 58 209 32 Q258 6 327 6 Q396 6 454 32 Q512 58 556.5 104.5 Q601 151 630.5 213.5 Q660 276 673 350 Q686 423 678.5 486 Q671 549 643 595.5 Q615 642 566 668 Q517 694 448 694 Z " />
<glyph glyph-name="Omacron" unicode="&#x14c;" horiz-adv-x="732" d="M349 757 L352 772 L573 772 L570 757 L349 757 Z M451 710 Q526 710 578.5 681 Q631 652 661 602.5 Q691 553 699.5 487.5 Q708 422 695 350 Q682 278 651 212.5 Q620 147 572.5 97.5 Q525 48 462 19 Q399 -10 324 -10 Q249 -10 196.5 19 Q144 48 113.5 97.5 Q83 147 74.5 212.5 Q66 278 79 350 Q92 422 123.5 487.5 Q155 553 202.5 602.5 Q250 652 313 681 Q376 710 451 710 Z M448 694 Q379 694 321 668 Q263 642 218.5 595.5 Q174 549 144 486 Q114 423 101 350 Q88 276 96 213.5 Q104 151 132 104.5 Q160 58 209 32 Q258 6 327 6 Q396 6 454 32 Q512 58 556.5 104.5 Q601 151 630.5 213.5 Q660 276 673 350 Q686 423 678.5 486 Q671 549 643 595.5 Q615 642 566 668 Q517 694 448 694 Z " />
<glyph glyph-name="Racute" unicode="&#x154;" horiz-adv-x="643" d="M504 863 L362 727 L347 727 L485 868 L504 863 Z M502 0 Q521 110 518 176.5 Q515 243 497 278.5 Q479 314 450 325 Q421 336 387 336 L137 336 L78 0 L58 0 L181 700 L461 700 Q511 700 544 685.5 Q577 671 595.5 647 Q614 623 619 591 Q624 559 618 523 Q605 451 563 402.5 Q521 354 443 343 Q466 337 488 321 Q510 305 523.5 267.5 Q537 230 538.5 166 Q540 102 522 0 L502 0 Z M400 352 Q446 352 480.5 366 Q515 380 538.5 403.5 Q562 427 576 458 Q590 489 596 523 Q602 556 598.5 585 Q595 614 579 636 Q563 658 533.5 671 Q504 684 458 684 L198 684 L140 352 L400 352 Z " />
<glyph glyph-name="Rcaron" unicode="&#x158;" horiz-adv-x="643" d="M317 868 L401 744 L530 868 L539 863 L407 727 L390 727 L306 863 L317 868 Z M502 0 Q521 110 518 176.5 Q515 243 497 278.5 Q479 314 450 325 Q421 336 387 336 L137 336 L78 0 L58 0 L181 700 L461 700 Q511 700 544 685.5 Q577 671 595.5 647 Q614 623 619 591 Q624 559 618 523 Q605 451 563 402.5 Q521 354 443 343 Q466 337 488 321 Q510 305 523.5 267.5 Q537 230 538.5 166 Q540 102 522 0 L502 0 Z M400 352 Q446 352 480.5 366 Q515 380 538.5 403.5 Q562 427 576 458 Q590 489 596 523 Q602 556 598.5 585 Q595 614 579 636 Q563 658 533.5 671 Q504 684 458 684 L198 684 L140 352 L400 352 Z " />
<glyph glyph-name="Rcommaaccent" unicode="&#x156;" horiz-adv-x="643" d="M288 -59 L283 -90 Q278 -118 265 -141.5 Q252 -165 233 -185 L225 -178 Q262 -139 271 -90 L254 -90 L259 -59 L288 -59 Z M502 0 Q521 110 518 176.5 Q515 243 497 278.5 Q479 314 450 325 Q421 336 387 336 L137 336 L78 0 L58 0 L181 700 L461 700 Q511 700 544 685.5 Q577 671 595.5 647 Q614 623 619 591 Q624 559 618 523 Q605 451 563 402.5 Q521 354 443 343 Q466 337 488 321 Q510 305 523.5 267.5 Q537 230 538.5 166 Q540 102 522 0 L502 0 Z M400 352 Q446 352 480.5 366 Q515 380 538.5 403.5 Q562 427 576 458 Q590 489 596 523 Q602 556 598.5 585 Q595 614 579 636 Q563 658 533.5 671 Q504 684 458 684 L198 684 L140 352 L400 352 Z " />
</font>
</svg>
