<?xml version="1.0" encoding="UTF-8"?>
<svg xmlns="http://www.w3.org/2000/svg" xmlns:xlink="http://www.w3.org/1999/xlink" version="1.2" >
<font id="Trivia Sans Light Italic">
<font-face  font-family="Trivia Sans Light" units-per-em="1000" ascent="868" descent="-200" font-style="italic" font-weight="400" font-stretch="normal" slope="-12" cap-height="700" x-height="500" underline-position="-125" underline-thickness="50" />
<missing-glyph  horiz-adv-x="235" d="" />
<glyph glyph-name="space" unicode="&#x20;" horiz-adv-x="235" d="" />
<glyph glyph-name="D" unicode="D" horiz-adv-x="709" d="M315 34 Q378 34 430.5 58 Q483 82 523 124.5 Q563 167 589.5 226 Q616 285 628 355 Q640 426 633 483.5 Q626 541 600.5 581.5 Q575 622 531 644 Q487 666 426 666 L214 666 L103 34 L315 34 Z M54 0 L177 700 L437 700 Q506 700 556.5 675 Q607 650 638 605 Q669 560 678.5 496.5 Q688 433 674 355 Q660 278 629 213 Q598 148 552 100.5 Q506 53 446.5 26.5 Q387 0 316 0 L54 0 Z " />
<glyph glyph-name="E" unicode="E" horiz-adv-x="601" d="M54 0 L177 700 L627 700 L620 666 L214 666 L164 380 L513 380 L507 347 L158 347 L103 34 L512 34 L507 0 L54 0 Z " />
<glyph glyph-name="F" unicode="F" horiz-adv-x="570" d="M630 700 L624 666 L214 666 L163 369 L515 369 L509 335 L156 335 L97 0 L54 0 L177 700 L630 700 Z " />
<glyph glyph-name="G" unicode="G" horiz-adv-x="743" d="M458 710 Q510 710 552 696 Q594 682 624.5 656.5 Q655 631 673 595 Q691 559 695 516 L651 516 Q644 586 591.5 629.5 Q539 673 451 673 Q386 673 331.5 648.5 Q277 624 235 581 Q193 538 165 478.5 Q137 419 125 350 Q113 280 120 220.5 Q127 161 153.5 118 Q180 75 225.5 50.5 Q271 26 336 26 Q382 26 427.5 43.5 Q473 61 511.5 97 Q550 133 579 188 Q608 243 621 319 L381 319 L387 352 L670 352 L608 0 L567 0 L600 192 Q586 156 562 120 Q538 84 503.5 55 Q469 26 424 8 Q379 -10 324 -10 Q252 -10 200 18 Q148 46 116.5 94.5 Q85 143 75 208.5 Q65 274 78 350 Q91 423 123.5 488.5 Q156 554 205 603 Q254 652 318 681 Q382 710 458 710 Z " />
<glyph glyph-name="H" unicode="H" horiz-adv-x="677" d="M499 0 L560 347 L158 347 L97 0 L54 0 L177 700 L220 700 L164 381 L566 381 L622 700 L665 700 L542 0 L499 0 Z " />
<glyph glyph-name="I" unicode="I" horiz-adv-x="232" d="M54 0 L177 700 L220 700 L97 0 L54 0 Z " />
<glyph glyph-name="J" unicode="J" horiz-adv-x="499" d="M488 700 L393 165 Q379 87 321.5 38.5 Q264 -10 170 -10 Q90 -10 47.5 31.5 Q5 73 7 137 L52 137 Q50 91 82 58.5 Q114 26 177 26 Q217 26 247 37 Q277 48 298.5 67 Q320 86 332.5 111 Q345 136 350 165 L445 700 L488 700 Z " />
<glyph glyph-name="K" unicode="K" horiz-adv-x="574" d="M467 0 L174 365 L567 700 L620 700 L226 367 L522 0 L467 0 Z M54 0 L177 700 L220 700 L97 0 L54 0 Z " />
<glyph glyph-name="L" unicode="L" horiz-adv-x="532" d="M54 0 L177 700 L220 700 L103 34 L488 34 L482 0 L54 0 Z " />
<glyph glyph-name="M" unicode="M" horiz-adv-x="816" d="M246 700 L370 105 Q372 91 373.5 75.5 Q375 60 377 46 Q383 61 390.5 77 Q398 93 406 107 L737 700 L804 700 L681 0 L639 0 L747 614 Q749 627 751.5 641.5 Q754 656 757 669 Q751 655 744 641.5 Q737 628 730 615 L387 0 L349 0 L221 616 Q216 641 213 669 Q212 656 209.5 641.5 Q207 627 204 615 L97 0 L54 0 L177 700 L246 700 Z " />
<glyph glyph-name="N" unicode="N" horiz-adv-x="672" d="M240 700 L487 110 Q492 96 497 80.5 Q502 65 507 49 Q508 66 510.5 84.5 Q513 103 516 120 L619 700 L661 700 L538 0 L485 0 L233 605 Q228 619 222.5 635.5 Q217 652 213 666 L203 600 L97 0 L54 0 L177 700 L240 700 Z " />
<glyph glyph-name="O" unicode="O" horiz-adv-x="740" d="M455 710 Q531 710 584 681 Q637 652 668 603 Q699 554 707.5 488.5 Q716 423 703 350 Q690 277 658.5 211.5 Q627 146 578.5 97 Q530 48 467 19 Q404 -10 328 -10 Q252 -10 199 19 Q146 48 114.5 97 Q83 146 74 211.5 Q65 277 78 350 Q91 423 123 488.5 Q155 554 203.5 603 Q252 652 315.5 681 Q379 710 455 710 Z M448 673 Q383 673 329 648.5 Q275 624 234 581 Q193 538 165 478.5 Q137 419 125 350 Q113 281 120 221.5 Q127 162 153 119 Q179 76 224 51.5 Q269 27 334 27 Q399 27 453 51.5 Q507 76 548.5 119 Q590 162 617.5 221.5 Q645 281 657 350 Q669 419 662.5 478.5 Q656 538 630 581 Q604 624 558.5 648.5 Q513 673 448 673 Z " />
<glyph glyph-name="P" unicode="P" horiz-adv-x="619" d="M214 666 L156 336 L394 336 Q435 336 467 349 Q499 362 521.5 384.5 Q544 407 558.5 438.5 Q573 470 579 506 Q585 539 582 568.5 Q579 598 565 619.5 Q551 641 523 653.5 Q495 666 452 666 L214 666 Z M465 700 Q516 700 550 684.5 Q584 669 602.5 643 Q621 617 626 581.5 Q631 546 624 506 Q617 464 600 427.5 Q583 391 554.5 363.5 Q526 336 486 320 Q446 304 393 304 L150 304 L97 0 L54 0 L177 700 L465 700 Z " />
<glyph glyph-name="Q" unicode="Q" horiz-adv-x="740" d="M386 197 L476 62 Q548 102 594 177.5 Q640 253 657 350 Q669 419 662.5 478.5 Q656 538 630 581 Q604 624 558.5 648.5 Q513 673 448 673 Q383 673 329 648.5 Q275 624 234 581 Q193 538 165 478.5 Q137 419 125 350 Q113 281 120 221.5 Q127 162 153 119 Q179 76 224 51.5 Q269 27 334 27 Q390 27 438 45 L338 197 L386 197 Z M455 710 Q531 710 584 681 Q637 652 668 603 Q699 554 707.5 488.5 Q716 423 703 350 Q694 299 676 252 Q658 205 631.5 164 Q605 123 570.5 89.5 Q536 56 495 33 L606 -132 L557 -132 L458 15 Q429 4 396 -3 Q363 -10 328 -10 Q252 -10 199 19 Q146 48 114.5 97 Q83 146 74 211.5 Q65 277 78 350 Q91 423 123 488.5 Q155 554 203.5 603 Q252 652 315.5 681 Q379 710 455 710 Z " />
<glyph glyph-name="R" unicode="R" horiz-adv-x="650" d="M400 358 Q443 358 475 370.5 Q507 383 528.5 405 Q550 427 563 456 Q576 485 582 517 Q587 548 584 575 Q581 602 566.5 622 Q552 642 524.5 654 Q497 666 454 666 L214 666 L161 358 L400 358 Z M492 0 Q510 106 508 170 Q506 234 489 268.5 Q472 303 444 314 Q416 325 383 325 L155 325 L97 0 L54 0 L177 700 L467 700 Q518 700 552 685.5 Q586 671 605 646.5 Q624 622 629 589.5 Q634 557 628 521 Q615 447 571.5 399.5 Q528 352 450 341 Q475 335 498 319 Q521 303 535 265.5 Q549 228 550.5 164.5 Q552 101 534 0 L492 0 Z " />
<glyph glyph-name="S" unicode="S" horiz-adv-x="619" d="M394 710 Q448 710 488.5 697.5 Q529 685 556.5 663.5 Q584 642 598 613 Q612 584 613 552 L568 552 Q566 577 555.5 599.5 Q545 622 523 639 Q501 656 467.5 666 Q434 676 387 676 Q334 676 295 663.5 Q256 651 229 630.5 Q202 610 186.5 583.5 Q171 557 166 530 Q159 490 170 464.5 Q181 439 205 423.5 Q229 408 262.5 399.5 Q296 391 334 385 Q382 378 426 367 Q470 356 502 334.5 Q534 313 549.5 278.5 Q565 244 556 191 Q549 151 526.5 114.5 Q504 78 467.5 50.5 Q431 23 381 6.5 Q331 -10 268 -10 Q214 -10 172 2.5 Q130 15 100.5 36.5 Q71 58 56 87 Q41 116 41 149 L86 149 Q87 124 99 101.5 Q111 79 134 61.5 Q157 44 192.5 34 Q228 24 275 24 Q327 24 368 37.5 Q409 51 438.5 73.5 Q468 96 485.5 125.5 Q503 155 509 187 Q517 231 503.5 258.5 Q490 286 462.5 303.5 Q435 321 397 330 Q359 339 318 346 Q273 353 233 363 Q193 373 165 393 Q137 413 124 445 Q111 477 120 528 Q126 562 146.5 595 Q167 628 201.5 653.5 Q236 679 284 694.5 Q332 710 394 710 Z " />
<glyph glyph-name="T" unicode="T" horiz-adv-x="556" d="M217 0 L334 666 L89 666 L95 700 L628 700 L622 666 L377 666 L260 0 L217 0 Z " />
<glyph glyph-name="U" unicode="U" horiz-adv-x="672" d="M619 700 L662 700 L569 171 Q561 127 537 93.5 Q513 60 476 37 Q439 14 392.5 2 Q346 -10 294 -10 Q242 -10 199.5 2 Q157 14 129 37 Q101 60 88.5 93.5 Q76 127 84 171 L177 700 L221 700 L129 180 Q116 105 163 65.5 Q210 26 301 26 Q392 26 453 65.5 Q514 105 528 180 L619 700 Z " />
<glyph glyph-name="V" unicode="V" horiz-adv-x="594" d="M139 700 L253 98 Q259 68 262 33 Q274 67 292 98 L623 700 L668 700 L285 0 L228 0 L92 700 L139 700 Z " />
<glyph glyph-name="W" unicode="W" horiz-adv-x="925" d="M152 700 L215 112 Q217 95 219 75 Q221 55 221 37 Q228 55 236.5 74.5 Q245 94 253 112 L525 700 L567 700 L630 113 Q632 95 634 75.5 Q636 56 636 37 Q643 56 651.5 76 Q660 96 668 113 L941 700 L982 700 L656 0 L604 0 L541 569 Q539 586 537.5 608.5 Q536 631 536 649 Q529 631 520.5 609 Q512 587 504 569 L240 0 L187 0 L108 700 L152 700 Z " />
<glyph glyph-name="X" unicode="X" horiz-adv-x="608" d="M161 700 L312 428 Q317 417 322 406 Q327 395 331 382 Q339 395 349.5 406.5 Q360 418 368 428 L614 700 L663 700 L352 357 L552 0 L498 0 L340 284 Q335 295 329.5 306.5 Q324 318 321 332 Q311 318 301.5 306.5 Q292 295 281 284 L26 0 L-24 0 L299 355 L108 700 L161 700 Z " />
<glyph glyph-name="Y" unicode="Y" horiz-adv-x="585" d="M230 0 L288 331 L88 700 L140 700 L317 367 L616 700 L664 700 L331 331 L273 0 L230 0 Z " />
<glyph glyph-name="Z" unicode="Z" horiz-adv-x="615" d="M2 0 L7 35 L593 666 L129 666 L135 700 L647 700 L641 664 L57 34 L543 34 L538 0 L2 0 Z " />
<glyph glyph-name="AE" unicode="&#xc6;" horiz-adv-x="962" d="M460 257 L530 658 L168 257 L460 257 Z M415 0 L454 224 L140 224 L-60 0 L-111 0 L522 700 L987 700 L981 666 L575 666 L525 380 L873 380 L867 347 L518 347 L463 34 L872 34 L867 0 L415 0 Z " />
<glyph glyph-name="OE" unicode="&#x152;" horiz-adv-x="1063" d="M448 673 Q383 673 329 648.5 Q275 624 234 581 Q193 538 165 478.5 Q137 419 125 350 Q113 281 120 221.5 Q127 162 153 119 Q179 76 224 51.5 Q269 27 334 27 Q399 27 453 51.5 Q507 76 548.5 119 Q590 162 617.5 221.5 Q645 281 657 350 Q669 419 662.5 478.5 Q656 538 630 581 Q604 624 558.5 648.5 Q513 673 448 673 Z M455 710 Q477 710 496 707.5 Q515 705 534 700 L1089 700 L1083 666 L594 666 Q629 648 653 618.5 Q677 589 691 552 Q705 515 709 471 Q713 427 707 380 L975 380 L969 347 L702 347 Q692 294 673 246 Q654 198 626 157.5 Q598 117 562 85 Q526 53 483 34 L974 34 L969 0 L411 0 Q390 -5 370 -7.5 Q350 -10 328 -10 Q252 -10 199 19 Q146 48 114.5 97 Q83 146 74 211.5 Q65 277 78 350 Q91 423 123 488.5 Q155 554 203.5 603 Q252 652 315.5 681 Q379 710 455 710 Z " />
<glyph glyph-name="Oslash" unicode="&#xd8;" horiz-adv-x="740" d="M657 350 Q671 425 662 487.5 Q653 550 621 594 L181 82 Q208 56 246 41.5 Q284 27 334 27 Q399 27 453 51.5 Q507 76 548.5 119 Q590 162 617.5 221.5 Q645 281 657 350 Z M448 673 Q383 673 329 648.5 Q275 624 234 581 Q193 538 165 478.5 Q137 419 125 350 Q112 275 120.5 212.5 Q129 150 161 106 L601 617 Q574 643 536 658 Q498 673 448 673 Z M713 700 L650 627 Q692 577 705 505 Q718 433 703 350 Q690 277 658.5 211.5 Q627 146 578.5 97 Q530 48 467 19 Q404 -10 328 -10 Q271 -10 228 5.5 Q185 21 153 50 L110 0 L69 0 L132 73 Q90 123 77 195 Q64 267 78 350 Q91 423 123 488.5 Q155 554 203.5 603 Q252 652 315.5 681 Q379 710 455 710 Q511 710 554 694 Q597 678 629 649 L673 700 L713 700 Z " />
<glyph glyph-name="a" unicode="a" horiz-adv-x="576" d="M314 479 Q272 479 236 462 Q200 445 172.5 415 Q145 385 126 343 Q107 301 98 250 Q89 199 93 157 Q97 115 114 85 Q131 55 161 38 Q191 21 233 21 Q278 21 314.5 39.5 Q351 58 378 88.5 Q405 119 422.5 159 Q440 199 448 243 Q459 304 453.5 348.5 Q448 393 429.5 422 Q411 451 381 465 Q351 479 314 479 Z M313 510 Q352 510 380.5 497.5 Q409 485 428 464.5 Q447 444 457 417 Q467 390 469 361 L493 500 L532 500 L445 0 L406 0 L429 135 Q417 107 396.5 81 Q376 55 349 34.5 Q322 14 289.5 2 Q257 -10 222 -10 Q172 -10 136 9 Q100 28 79 62.5 Q58 97 52 145 Q46 193 56 250 Q66 308 89 355.5 Q112 403 145 437.5 Q178 472 220.5 491 Q263 510 313 510 Z " />
<glyph glyph-name="b" unicode="b" horiz-adv-x="576" d="M350 479 Q312 479 277.5 465 Q243 451 214 422 Q185 393 164 348.5 Q143 304 132 243 Q124 199 127.5 159 Q131 119 147.5 88.5 Q164 58 194 39.5 Q224 21 269 21 Q311 21 347 38 Q383 55 410.5 85 Q438 115 457.5 157 Q477 199 486 250 Q495 301 490.5 343 Q486 385 469 415 Q452 445 422 462 Q392 479 350 479 Z M213 700 L153 361 Q165 390 184.5 417 Q204 444 230.5 464.5 Q257 485 289.5 497.5 Q322 510 361 510 Q411 510 447 491 Q483 472 504 437.5 Q525 403 531 355.5 Q537 308 527 250 Q517 193 494 145 Q471 97 438 62.5 Q405 28 362.5 9 Q320 -10 270 -10 Q235 -10 206.5 2 Q178 14 157.5 34.5 Q137 55 125.5 81 Q114 107 113 135 L90 0 L51 0 L174 700 L213 700 Z " />
<glyph glyph-name="c" unicode="c" horiz-adv-x="507" d="M327 510 Q364 510 396 500 Q428 490 451.5 470 Q475 450 488 421 Q501 392 500 354 L459 354 Q461 413 422.5 446 Q384 479 321 479 Q279 479 241.5 462 Q204 445 175 414.5 Q146 384 125.5 342 Q105 300 96 250 Q87 200 92.5 158 Q98 116 116.5 85.5 Q135 55 166.5 38 Q198 21 240 21 Q304 21 354 54 Q404 87 423 146 L464 146 Q452 108 428.5 79 Q405 50 374.5 30 Q344 10 308.5 0 Q273 -10 236 -10 Q184 -10 145.5 9 Q107 28 83.5 62.5 Q60 97 53 145 Q46 193 56 250 Q66 307 90 355 Q114 403 149.5 437.5 Q185 472 230 491 Q275 510 327 510 Z " />
<glyph glyph-name="d" unicode="d" horiz-adv-x="576" d="M314 479 Q272 479 236 462 Q200 445 172.5 415 Q145 385 126 343 Q107 301 98 250 Q89 199 93 157 Q97 115 114 85 Q131 55 161 38 Q191 21 233 21 Q278 21 314.5 39.5 Q351 58 378 88.5 Q405 119 422.5 159 Q440 199 448 243 Q459 304 453.5 348.5 Q448 393 429.5 422 Q411 451 381 465 Q351 479 314 479 Z M313 510 Q352 510 380.5 497.5 Q409 485 428 464.5 Q447 444 457 417 Q467 390 469 361 L529 700 L568 700 L445 0 L406 0 L429 135 Q417 107 396.5 81 Q376 55 349 34.5 Q322 14 289.5 2 Q257 -10 222 -10 Q172 -10 136 9 Q100 28 79 62.5 Q58 97 52 145 Q46 193 56 250 Q66 308 89 355.5 Q112 403 145 437.5 Q178 472 220.5 491 Q263 510 313 510 Z " />
<glyph glyph-name="e" unicode="e" horiz-adv-x="539" d="M333 481 Q252 481 191 428.5 Q130 376 104 288 L289 288 Q377 288 419 315.5 Q461 343 461 388 Q461 405 454 422 Q447 439 431.5 452 Q416 465 391.5 473 Q367 481 333 481 Z M338 510 Q382 510 413 500 Q444 490 464 473 Q484 456 493 434.5 Q502 413 502 391 Q502 334 449.5 297 Q397 260 288 260 L98 260 Q96 254 96 250 Q87 199 92 156.5 Q97 114 115.5 83.5 Q134 53 165 36.5 Q196 20 239 20 Q269 20 298 28 Q327 36 351 51 Q375 66 393.5 89 Q412 112 422 142 L462 142 Q449 104 425.5 75.5 Q402 47 371.5 28 Q341 9 306 -0.5 Q271 -10 234 -10 Q183 -10 144.5 9 Q106 28 83 62.5 Q60 97 52.5 145 Q45 193 56 250 Q66 308 92 355.5 Q118 403 155.5 437.5 Q193 472 239.5 491 Q286 510 338 510 Z " />
<glyph glyph-name="f" unicode="f" horiz-adv-x="307" d="M325 710 Q340 710 356.5 709 Q373 708 391 704 L385 670 Q368 675 352.5 676.5 Q337 678 323 678 Q222 678 201 564 L190 500 L355 500 L349 469 L184 469 L67 -200 L28 -200 L145 469 L62 469 L68 500 L151 500 L162 564 Q175 637 217 673.5 Q259 710 325 710 Z " />
<glyph glyph-name="g" unicode="g" horiz-adv-x="576" d="M314 479 Q271 479 235.5 462 Q200 445 172 415 Q144 385 125.5 343 Q107 301 98 250 Q89 199 93 157 Q97 115 114.5 85 Q132 55 162 38.5 Q192 22 234 22 Q279 22 315 40 Q351 58 378 89 Q405 120 422.5 159.5 Q440 199 448 243 Q459 304 453.5 348.5 Q448 393 429.5 422 Q411 451 381.5 465 Q352 479 314 479 Z M314 510 Q353 510 381.5 497.5 Q410 485 429 464.5 Q448 444 458 417.5 Q468 391 469 362 L494 500 L533 500 L445 -1 Q435 -58 411.5 -97.5 Q388 -137 353.5 -162.5 Q319 -188 275.5 -199.5 Q232 -211 183 -211 Q145 -211 111.5 -201.5 Q78 -192 54 -173 Q30 -154 18 -125 Q6 -96 9 -57 L51 -57 Q48 -86 58.5 -109 Q69 -132 88.5 -147.5 Q108 -163 134 -171.5 Q160 -180 190 -180 Q229 -180 264 -170.5 Q299 -161 327.5 -140 Q356 -119 376.5 -85 Q397 -51 406 -1 L429 136 Q417 106 396.5 80 Q376 54 349 34 Q322 14 289.5 2.5 Q257 -9 221 -9 Q171 -9 135 10 Q99 29 78 63 Q57 97 51.5 145 Q46 193 56 250 Q66 307 88 354.5 Q110 402 143 436.5 Q176 471 219 490.5 Q262 510 314 510 Z " />
<glyph glyph-name="h" unicode="h" horiz-adv-x="570" d="M214 700 L157 377 Q171 405 191.5 429.5 Q212 454 238 472 Q264 490 296 500 Q328 510 364 510 Q449 510 479 457.5 Q509 405 493 315 L438 0 L399 0 L453 310 Q460 348 458 379 Q456 410 444 431.5 Q432 453 409 465 Q386 477 350 477 Q318 477 285 465.5 Q252 454 222.5 429.5 Q193 405 170.5 365.5 Q148 326 138 270 L91 0 L52 0 L175 700 L214 700 Z " />
<glyph glyph-name="i" unicode="i" horiz-adv-x="223" d="M179 500 L91 0 L52 0 L140 500 L179 500 Z M206 646 L199 603 L156 603 L164 646 L206 646 Z " />
<glyph glyph-name="j" unicode="j" horiz-adv-x="223" d="M206 646 L199 603 L156 603 L164 646 L206 646 Z M179 500 L76 -82 Q70 -116 56.5 -140 Q43 -164 24 -180 Q5 -196 -18 -203.5 Q-41 -211 -65 -211 L-59 -177 Q-22 -177 2.5 -157 Q27 -137 37 -81 L140 500 L179 500 Z " />
<glyph glyph-name="k" unicode="k" horiz-adv-x="449" d="M347 0 L149 269 L417 500 L467 500 L196 271 L398 0 L347 0 Z M52 0 L175 700 L214 700 L91 0 L52 0 Z " />
<glyph glyph-name="l" unicode="l" horiz-adv-x="223" d="M52 0 L175 700 L214 700 L91 0 L52 0 Z " />
<glyph glyph-name="m" unicode="m" horiz-adv-x="878" d="M179 500 L157 376 Q185 434 235 472 Q285 510 351 510 Q417 510 447.5 471 Q478 432 476 364 Q508 433 561 471.5 Q614 510 677 510 Q756 510 786.5 458 Q817 406 801 315 L746 0 L707 0 L761 309 Q774 385 751 431 Q728 477 663 477 Q636 477 606 466.5 Q576 456 549 432 Q522 408 500 370.5 Q478 333 467 279 L418 0 L379 0 L433 309 Q447 385 424 431 Q401 477 336 477 Q308 477 277.5 466 Q247 455 219 430 Q191 405 169.5 365.5 Q148 326 138 269 L91 0 L52 0 L140 500 L179 500 Z " />
<glyph glyph-name="n" unicode="n" horiz-adv-x="569" d="M179 500 L157 377 Q171 405 191 429.5 Q211 454 237 472 Q263 490 294.5 500 Q326 510 362 510 Q447 510 478 458 Q509 406 492 315 L437 0 L398 0 L452 310 Q466 386 443 431.5 Q420 477 348 477 Q316 477 283.5 465.5 Q251 454 222 429.5 Q193 405 170.5 365.5 Q148 326 138 270 L91 0 L52 0 L140 500 L179 500 Z " />
<glyph glyph-name="o" unicode="o" horiz-adv-x="552" d="M325 510 Q376 510 414 491 Q452 472 475 437.5 Q498 403 505.5 355.5 Q513 308 503 250 Q492 191 468 143 Q444 95 409 61 Q374 27 329.5 8.5 Q285 -10 234 -10 Q183 -10 145 8.5 Q107 27 83.5 61 Q60 95 52.5 143 Q45 191 56 250 Q66 308 90 355.5 Q114 403 149.5 437.5 Q185 472 229.5 491 Q274 510 325 510 Z M320 479 Q278 479 241.5 462.5 Q205 446 175.5 415.5 Q146 385 126 343 Q106 301 97 250 Q88 198 93.5 156 Q99 114 117 84 Q135 54 166 37.5 Q197 21 239 21 Q281 21 317.5 37.5 Q354 54 383.5 84 Q413 114 433 156 Q453 198 462 250 Q471 301 465.5 343 Q460 385 442 415.5 Q424 446 393 462.5 Q362 479 320 479 Z " />
<glyph glyph-name="p" unicode="p" horiz-adv-x="576" d="M349 479 Q311 479 276.5 465 Q242 451 213.5 422 Q185 393 164 348.5 Q143 304 132 243 Q124 199 127.5 159 Q131 119 147.5 88.5 Q164 58 194 39.5 Q224 21 269 21 Q311 21 347 38 Q383 55 410.5 85 Q438 115 457.5 157 Q477 199 486 250 Q495 301 490.5 343 Q486 385 469 415 Q452 445 422 462 Q392 479 349 479 Z M361 510 Q411 510 447 491 Q483 472 504 437.5 Q525 403 531 355.5 Q537 308 527 250 Q517 193 494.5 145 Q472 97 439 62.5 Q406 28 363 9 Q320 -10 270 -10 Q235 -10 206.5 1.5 Q178 13 157.5 33 Q137 53 125.5 79.5 Q114 106 113 136 L54 -200 L15 -200 L139 500 L178 500 L153 361 Q165 390 184.5 417 Q204 444 230.5 464.5 Q257 485 290 497.5 Q323 510 361 510 Z " />
<glyph glyph-name="q" unicode="q" horiz-adv-x="576" d="M313 479 Q271 479 235.5 462 Q200 445 172.5 415 Q145 385 126 343 Q107 301 98 250 Q89 199 93 157 Q97 115 114 85 Q131 55 161 38 Q191 21 233 21 Q278 21 314 39.5 Q350 58 377 88.5 Q404 119 422 159 Q440 199 448 243 Q459 304 453.5 348.5 Q448 393 429 422 Q410 451 380 465 Q350 479 313 479 Z M312 510 Q351 510 379.5 497.5 Q408 485 427.5 464.5 Q447 444 457 417 Q467 390 469 361 L494 500 L533 500 L409 -200 L370 -200 L429 136 Q417 106 396 79.5 Q375 53 348 33 Q321 13 288.5 1.5 Q256 -10 221 -10 Q171 -10 135 9 Q99 28 78 62.5 Q57 97 51.5 145 Q46 193 56 250 Q66 308 88.5 355.5 Q111 403 144 437.5 Q177 472 219.5 491 Q262 510 312 510 Z " />
<glyph glyph-name="r" unicode="r" horiz-adv-x="328" d="M179 500 L156 369 Q169 398 190 423.5 Q211 449 237 468.5 Q263 488 294 499 Q325 510 357 510 L351 473 Q348 474 340 474 Q313 474 281 461.5 Q249 449 220.5 423 Q192 397 169 357.5 Q146 318 137 263 L91 0 L52 0 L140 500 L179 500 Z " />
<glyph glyph-name="s" unicode="s" horiz-adv-x="484" d="M296 510 Q375 510 420 474.5 Q465 439 457 377 L418 377 Q422 401 414 420.5 Q406 440 389 453.5 Q372 467 347 474.5 Q322 482 292 482 Q254 482 225.5 473.5 Q197 465 177 451 Q157 437 145.5 419 Q134 401 131 382 Q126 355 134.5 337 Q143 319 161 307 Q179 295 203.5 288 Q228 281 255 276 Q288 270 320 261.5 Q352 253 376 237 Q400 221 412.5 195 Q425 169 418 128 Q413 101 397 76.5 Q381 52 354 32.5 Q327 13 288.5 1.5 Q250 -10 201 -10 Q162 -10 129 -0.5 Q96 9 73 26.5 Q50 44 38.5 69 Q27 94 32 125 L70 125 Q67 101 76.5 81 Q86 61 104.5 47.5 Q123 34 149.5 26.5 Q176 19 206 19 Q248 19 279 28.5 Q310 38 331 53 Q352 68 364 87 Q376 106 379 125 Q384 156 374.5 176.5 Q365 197 346 209.5 Q327 222 300.5 229.5 Q274 237 246 242 Q214 248 183.5 256 Q153 264 130.5 279 Q108 294 96.5 317.5 Q85 341 92 379 Q96 405 112 428.5 Q128 452 154 470 Q180 488 216 499 Q252 510 296 510 Z " />
<glyph glyph-name="germandbls" unicode="&#xdf;" horiz-adv-x="546" d="M367 710 Q416 710 450 697 Q484 684 503.5 661.5 Q523 639 529.5 609 Q536 579 530 545 Q516 469 462.5 425 Q409 381 318 376 Q412 368 457 322.5 Q502 277 487 191 Q480 154 460.5 118.5 Q441 83 408.5 55 Q376 27 330.5 10 Q285 -7 227 -7 Q209 -7 194 -5 Q179 -3 164 0 L169 33 Q184 31 199.5 29 Q215 27 232 27 Q283 27 321 42 Q359 57 384.5 80.5 Q410 104 424.5 134 Q439 164 444 194 Q458 271 413.5 313 Q369 355 258 355 L263 390 Q318 390 357.5 400 Q397 410 423.5 429.5 Q450 449 465 476 Q480 503 486 538 Q491 564 488 589.5 Q485 615 471 634.5 Q457 654 430 666 Q403 678 360 678 Q282 678 239.5 641 Q197 604 185 539 L91 0 L52 0 L146 539 Q161 620 217 665 Q273 710 367 710 Z " />
<glyph glyph-name="t" unicode="t" horiz-adv-x="308" d="M205 610 L186 500 L350 500 L345 469 L180 469 L122 138 Q101 22 204 22 Q231 22 267 31 L262 -3 Q242 -7 225 -8.5 Q208 -10 193 -10 Q57 -10 82 135 L141 469 L58 469 L64 500 L147 500 L166 610 L205 610 Z " />
<glyph glyph-name="u" unicode="u" horiz-adv-x="569" d="M179 500 L124 190 Q110 114 133.5 68.5 Q157 23 228 23 Q259 23 292 34 Q325 45 354 70 Q383 95 405.5 134.5 Q428 174 438 230 L486 500 L525 500 L437 0 L398 0 L419 123 Q405 95 385 70.5 Q365 46 339 28 Q313 10 281.5 0 Q250 -10 214 -10 Q129 -10 98 42 Q67 94 84 185 L140 500 L179 500 Z " />
<glyph glyph-name="v" unicode="v" horiz-adv-x="453" d="M98 500 L181 91 Q185 75 186.5 60 Q188 45 189 28 Q196 45 203.5 59.5 Q211 74 220 91 L453 500 L493 500 L210 0 L158 0 L56 500 L98 500 Z " />
<glyph glyph-name="w" unicode="w" horiz-adv-x="739" d="M108 500 L162 90 Q164 74 165.5 60 Q167 46 167 29 Q174 46 180 59.5 Q186 73 194 90 L397 500 L438 500 L495 90 Q497 74 498 60 Q499 46 500 29 Q507 46 513 59.5 Q519 73 527 90 L728 500 L766 500 L520 0 L470 0 L416 389 Q414 406 412 425 Q410 444 410 461 Q404 444 395.5 425 Q387 406 379 389 L186 0 L136 0 L68 500 L108 500 Z " />
<glyph glyph-name="x" unicode="x" horiz-adv-x="472" d="M123 500 L231 314 Q239 300 245 283 Q251 291 258 299 Q265 307 271 314 L445 500 L488 500 L263 259 L415 0 L367 0 L250 198 Q246 205 241.5 214 Q237 223 234 233 Q228 224 221 215 Q214 206 206 198 L22 0 L-23 0 L217 256 L76 500 L123 500 Z " />
<glyph glyph-name="y" unicode="y" horiz-adv-x="453" d="M98 500 L181 90 Q185 74 186.5 59.5 Q188 45 189 28 Q196 44 203.5 58.5 Q211 73 220 90 L453 500 L493 500 L164 -78 Q122 -153 75 -181 Q28 -209 -26 -210 L-19 -173 Q22 -172 54.5 -153.5 Q87 -135 117 -84 L161 -10 L56 500 L98 500 Z " />
<glyph glyph-name="z" unicode="z" horiz-adv-x="463" d="M-6 0 L-1 31 L413 469 L89 469 L95 500 L466 500 L461 469 L46 31 L398 31 L393 0 L-6 0 Z " />
<glyph glyph-name="ae" unicode="&#xe6;" horiz-adv-x="931" d="M725 481 Q685 481 649.5 467.5 Q614 454 584 428.5 Q554 403 532 367.5 Q510 332 497 288 L682 288 Q770 288 811.5 315.5 Q853 343 853 388 Q853 405 846 422 Q839 439 824 452 Q809 465 784.5 473 Q760 481 725 481 Z M314 479 Q272 479 236 462 Q200 445 172.5 415 Q145 385 126 343 Q107 301 98 250 Q89 199 93 157 Q97 115 114 85 Q131 55 161 38 Q191 21 233 21 Q278 21 314.5 39.5 Q351 58 378 88.5 Q405 119 422.5 159 Q440 199 448 243 Q459 304 453.5 348.5 Q448 393 429.5 422 Q411 451 381 465 Q351 479 314 479 Z M313 510 Q352 510 380.5 497.5 Q409 485 428 464.5 Q447 444 457 417 Q467 390 469 361 L493 500 L526 500 L503 368 Q541 434 601 472 Q661 510 733 510 Q776 510 807 500 Q838 490 857.5 473 Q877 456 886 434.5 Q895 413 895 391 Q895 334 842.5 297 Q790 260 681 260 L491 260 Q489 254 489 250 Q480 199 485 156.5 Q490 114 508.5 83.5 Q527 53 558 36.5 Q589 20 632 20 Q662 20 691 28 Q720 36 744 51 Q768 66 786.5 89 Q805 112 815 142 L854 142 Q841 104 818 75.5 Q795 47 764.5 28 Q734 9 699 -0.5 Q664 -10 627 -10 Q558 -10 515.5 25 Q473 60 460 121 L439 0 L406 0 L429 135 Q417 107 396.5 81 Q376 55 349 34.5 Q322 14 289.5 2 Q257 -10 222 -10 Q172 -10 136 9 Q100 28 79 62.5 Q58 97 52 145 Q46 193 56 250 Q66 308 89 355.5 Q112 403 145 437.5 Q178 472 220.5 491 Q263 510 313 510 Z " />
<glyph glyph-name="oe" unicode="&#x153;" horiz-adv-x="945" d="M739 481 Q658 481 597 428.5 Q536 376 510 288 L695 288 Q783 288 825 315.5 Q867 343 867 388 Q867 405 860 422 Q853 439 837.5 452 Q822 465 797.5 473 Q773 481 739 481 Z M320 479 Q278 479 241.5 462.5 Q205 446 175.5 415.5 Q146 385 126 343 Q106 301 97 250 Q88 198 93.5 156 Q99 114 117 84 Q135 54 166 37.5 Q197 21 239 21 Q281 21 317.5 37.5 Q354 54 383.5 84 Q413 114 433 156 Q453 198 462 250 Q471 301 465.5 343 Q460 385 442 415.5 Q424 446 393 462.5 Q362 479 320 479 Z M325 510 Q401 510 446.5 469 Q492 428 502 357 Q540 428 603.5 469 Q667 510 744 510 Q788 510 819 500 Q850 490 870 473 Q890 456 899 434.5 Q908 413 908 391 Q908 334 855.5 297 Q803 260 694 260 L504 260 Q502 254 502 250 Q493 199 498 156.5 Q503 114 521.5 83.5 Q540 53 571 36.5 Q602 20 645 20 Q675 20 704 28 Q733 36 757 51 Q781 66 799.5 89 Q818 112 828 142 L868 142 Q855 104 831.5 75.5 Q808 47 777.5 28 Q747 9 712 -0.5 Q677 -10 640 -10 Q564 -10 519 30 Q474 70 463 139 Q428 69 368.5 29.5 Q309 -10 234 -10 Q183 -10 145 8.5 Q107 27 83.5 61 Q60 95 52.5 143 Q45 191 56 250 Q66 308 90 355.5 Q114 403 149.5 437.5 Q185 472 229.5 491 Q274 510 325 510 Z " />
<glyph glyph-name="oslash" unicode="&#xf8;" horiz-adv-x="548" d="M320 478 Q278 478 241 461.5 Q204 445 175 415 Q146 385 126 343 Q106 301 97 250 Q78 148 115 86 L427 434 Q388 478 320 478 Z M463 250 Q471 301 465.5 342 Q460 383 442 413 L132 64 Q171 22 239 22 Q281 22 318 38.5 Q355 55 384 85 Q413 115 433.5 157 Q454 199 463 250 Z M325 510 Q366 510 398 498 Q430 486 453 464 L486 500 L520 500 L470 445 Q524 374 503 250 Q492 191 468 143 Q444 95 409 61 Q374 27 329.5 8.5 Q285 -10 234 -10 Q153 -10 105 35 L74 0 L38 0 L87 55 Q61 89 53 138.5 Q45 188 56 250 Q66 308 90 356 Q114 404 149 438 Q184 472 229 491 Q274 510 325 510 Z " />
<glyph glyph-name="zero" unicode="0" horiz-adv-x="576" d="M373 710 Q430 710 470 684.5 Q510 659 532 612.5 Q554 566 558 499 Q562 432 547 350 Q532 267 504.5 200.5 Q477 134 438.5 87.5 Q400 41 351.5 15.5 Q303 -10 246 -10 Q189 -10 149.5 15.5 Q110 41 87.5 87.5 Q65 134 60.5 200.5 Q56 267 71 350 Q86 432 113.5 499 Q141 566 180 612.5 Q219 659 267.5 684.5 Q316 710 373 710 Z M366 675 Q317 675 276 650 Q235 625 203 581.5 Q171 538 148.5 478.5 Q126 419 114 350 Q102 281 103.5 221.5 Q105 162 121.5 118.5 Q138 75 170 50 Q202 25 252 25 Q301 25 342.5 50 Q384 75 415.5 118.5 Q447 162 469.5 221.5 Q492 281 504 350 Q516 419 514.5 478.5 Q513 538 496.5 581.5 Q480 625 447.5 650 Q415 675 366 675 Z " />
<glyph glyph-name="one" unicode="1" horiz-adv-x="576" d="M162 0 L167 34 L309 34 L420 661 L210 528 L198 558 L427 700 L469 700 L351 34 L475 34 L470 0 L162 0 Z " />
<glyph glyph-name="two" unicode="2" horiz-adv-x="576" d="M17 0 L23 35 Q171 129 263.5 197.5 Q356 266 409 319 Q462 372 484.5 416 Q507 460 515 506 Q521 538 516 568.5 Q511 599 494.5 622.5 Q478 646 448.5 660.5 Q419 675 374 675 Q285 675 233 633 Q181 591 160 523 L120 523 Q131 565 155 599.5 Q179 634 213 658.5 Q247 683 289.5 696.5 Q332 710 382 710 Q437 710 474.5 693.5 Q512 677 533 649 Q554 621 559.5 584.5 Q565 548 558 508 Q549 457 524.5 409.5 Q500 362 446.5 307.5 Q393 253 303.5 187 Q214 121 74 34 L484 34 L479 0 L17 0 Z " />
<glyph glyph-name="three" unicode="3" horiz-adv-x="576" d="M287 378 Q392 378 447.5 417.5 Q503 457 516 533 Q522 563 517 589.5 Q512 616 495 635.5 Q478 655 447 666 Q416 677 368 677 Q283 677 233.5 640.5 Q184 604 167 543 L126 543 Q149 618 213 664 Q277 710 376 710 Q430 710 468 697 Q506 684 528.5 661 Q551 638 559 606.5 Q567 575 561 538 Q545 453 487 409.5 Q429 366 341 361 Q430 356 475 311 Q520 266 505 181 Q498 143 477 108.5 Q456 74 422.5 47.5 Q389 21 344 5.5 Q299 -10 245 -10 Q147 -10 96.5 38 Q46 86 50 162 L92 162 Q87 101 127 62 Q167 23 252 23 Q299 23 336 36.5 Q373 50 399 72.5 Q425 95 441 123.5 Q457 152 463 183 Q476 260 431 301 Q386 342 280 342 L287 378 Z " />
<glyph glyph-name="four" unicode="4" horiz-adv-x="576" d="M449 657 L100 254 L378 254 L449 657 Z M334 0 L372 220 L56 220 L62 255 L446 700 L498 700 L420 254 L524 254 L518 220 L414 220 L375 0 L334 0 Z " />
<glyph glyph-name="five" unicode="5" horiz-adv-x="576" d="M561 700 L554 666 L218 666 L164 431 Q195 436 233.5 441 Q272 446 321 446 Q381 446 422 429 Q463 412 487 383 Q511 354 518.5 314 Q526 274 519 229 Q510 179 485 135 Q460 91 423.5 59 Q387 27 339 8.5 Q291 -10 236 -10 Q187 -10 150.5 3 Q114 16 90.5 39 Q67 62 56.5 94 Q46 126 48 165 L88 165 Q83 103 120.5 63 Q158 23 242 23 Q289 23 328.5 38.5 Q368 54 398 81.5 Q428 109 447.5 146.5 Q467 184 475 227 Q482 266 476.5 300 Q471 334 451.5 359.5 Q432 385 396.5 400 Q361 415 308 415 Q212 415 118 395 L189 700 L561 700 Z " />
<glyph glyph-name="six" unicode="6" horiz-adv-x="576" d="M110 316 Q100 252 104 198.5 Q108 145 126.5 106 Q145 67 178 45.5 Q211 24 259 24 Q306 24 344 39.5 Q382 55 410 82 Q438 109 456 146 Q474 183 482 225 Q488 262 485 297.5 Q482 333 465 361 Q448 389 415.5 405.5 Q383 422 331 422 Q299 422 267.5 413.5 Q236 405 207.5 390.5 Q179 376 154 356.5 Q129 337 110 316 Z M398 710 Q437 710 469.5 699.5 Q502 689 525.5 668.5 Q549 648 561.5 618.5 Q574 589 573 550 L533 550 Q535 614 494 646.5 Q453 679 391 679 Q338 679 293.5 654 Q249 629 213.5 585 Q178 541 153 481 Q128 421 115 350 Q157 392 214 422.5 Q271 453 342 453 Q403 453 441.5 434 Q480 415 501 383.5 Q522 352 526.5 311 Q531 270 524 227 Q515 178 492.5 135 Q470 92 435.5 59.5 Q401 27 354.5 8.5 Q308 -10 252 -10 Q193 -10 152.5 14 Q112 38 89 83.5 Q66 129 61.5 193.5 Q57 258 71 339 Q86 423 115.5 491 Q145 559 187 608 Q229 657 282 683.5 Q335 710 398 710 Z " />
<glyph glyph-name="seven" unicode="7" horiz-adv-x="576" d="M150 0 L560 666 L131 666 L137 700 L606 700 L600 666 L194 0 L150 0 Z " />
<glyph glyph-name="eight" unicode="8" horiz-adv-x="576" d="M373 710 Q425 710 463 697 Q501 684 524 660.5 Q547 637 555.5 605 Q564 573 557 535 Q546 472 498.5 425.5 Q451 379 366 367 Q446 361 488 312.5 Q530 264 516 183 Q508 139 486 103.5 Q464 68 429.5 43 Q395 18 348.5 4 Q302 -10 246 -10 Q190 -10 148.5 4 Q107 18 81.5 43 Q56 68 46.5 103.5 Q37 139 45 183 Q52 223 71 256 Q90 289 118 312.5 Q146 336 181.5 350 Q217 364 257 367 Q179 379 147.5 425.5 Q116 472 127 535 Q134 573 153.5 605 Q173 637 204.5 660.5 Q236 684 278.5 697 Q321 710 373 710 Z M310 350 Q273 350 236.5 341.5 Q200 333 169.5 313.5 Q139 294 117 263 Q95 232 87 187 Q81 151 88 121.5 Q95 92 116 70 Q137 48 171 36 Q205 24 252 24 Q299 24 337.5 36 Q376 48 404.5 70 Q433 92 451 121.5 Q469 151 475 187 Q483 232 472 263 Q461 294 437.5 313.5 Q414 333 380.5 341.5 Q347 350 310 350 Z M367 678 Q325 678 290.5 667 Q256 656 230.5 636.5 Q205 617 189 590 Q173 563 167 532 Q161 495 169.5 467 Q178 439 198 420.5 Q218 402 248 392.5 Q278 383 315 383 Q352 383 385.5 392.5 Q419 402 446 420.5 Q473 439 491.5 467 Q510 495 516 532 Q526 595 488.5 636.5 Q451 678 367 678 Z " />
<glyph glyph-name="nine" unicode="9" horiz-adv-x="576" d="M360 676 Q313 676 275 660.5 Q237 645 209 618 Q181 591 162.5 554 Q144 517 137 475 Q131 437 134 402 Q137 367 153.5 339 Q170 311 202.5 294.5 Q235 278 288 278 Q320 278 351.5 286.5 Q383 295 411.5 309.5 Q440 324 464.5 343.5 Q489 363 509 384 Q519 448 515 501.5 Q511 555 492.5 594 Q474 633 441 654.5 Q408 676 360 676 Z M368 710 Q426 710 467 686 Q508 662 530.5 616.5 Q553 571 557.5 506.5 Q562 442 547 361 Q532 277 503 209 Q474 141 432 92 Q390 43 337 16.5 Q284 -10 222 -10 Q183 -10 150 0 Q117 10 93.5 30.5 Q70 51 57 81 Q44 111 46 150 L85 150 Q83 86 124 53.5 Q165 21 227 21 Q279 21 324 46 Q369 71 404.5 115 Q440 159 465 219 Q490 279 504 350 Q462 308 405 277.5 Q348 247 276 247 Q216 247 177 266 Q138 285 117 316.5 Q96 348 91 389 Q86 430 94 473 Q103 522 125.5 565 Q148 608 183 640.5 Q218 673 264.5 691.5 Q311 710 368 710 Z " />
<glyph glyph-name="dollar" unicode="&#x24;" horiz-adv-x="595" d="M151 525 Q144 488 154.5 464.5 Q165 441 187.5 425.5 Q210 410 242 401.5 Q274 393 309 386 L360 676 Q310 674 273 660 Q236 646 210.5 625 Q185 604 170 577.5 Q155 551 151 525 Z M498 182 Q505 225 494 252.5 Q483 280 459 297.5 Q435 315 402 324.5 Q369 334 332 341 L276 24 Q325 25 364 39.5 Q403 54 431 76.5 Q459 99 476 126.5 Q493 154 498 182 Z M222 -106 L239 -9 Q189 -7 151 6.5 Q113 20 86.5 41 Q60 62 46.5 89.5 Q33 117 32 149 L75 149 Q76 125 86.5 103.5 Q97 82 118 65 Q139 48 171 37 Q203 26 245 24 L302 347 Q261 354 222.5 364 Q184 374 155.5 392.5 Q127 411 113 441.5 Q99 472 108 522 Q114 555 133 588 Q152 621 184.5 647 Q217 673 262.5 690.5 Q308 708 366 710 L382 798 L412 798 L396 710 Q446 708 483.5 695 Q521 682 546.5 660.5 Q572 639 585 611 Q598 583 599 552 L556 552 Q555 576 545 597.5 Q535 619 514.5 635.5 Q494 652 463.5 662.5 Q433 673 390 675 L339 381 Q381 373 421.5 362 Q462 351 492 330.5 Q522 310 536.5 275.5 Q551 241 541 186 Q535 150 514 116 Q493 82 458.5 54.5 Q424 27 376.5 9.5 Q329 -8 270 -10 L253 -106 L222 -106 Z " />
<glyph glyph-name="cent" unicode="&#xa2;" horiz-adv-x="520" d="M120 360 Q111 312 116 271 Q121 230 137.5 200 Q154 170 182 151.5 Q210 133 249 130 L329 589 Q288 586 253.5 567.5 Q219 549 192 519 Q165 489 146.5 448.5 Q128 408 120 360 Z M226 1 L243 100 Q196 103 161 123.5 Q126 144 105 178 Q84 212 78 258 Q72 304 82 360 Q92 415 114.5 461 Q137 507 170 541 Q203 575 245 595.5 Q287 616 335 619 L349 699 L375 699 L361 620 Q432 618 476.5 578.5 Q521 539 526 464 L486 464 Q483 518 448.5 552.5 Q414 587 356 590 L275 130 Q334 133 380.5 167.5 Q427 202 449 256 L489 256 Q458 181 399.5 141.5 Q341 102 269 100 L252 1 L226 1 Z " />
<glyph glyph-name="sterling" unicode="&#xa3;" horiz-adv-x="595" d="M166 327 Q167 289 166 251 Q165 213 156 176 Q147 139 126.5 102.5 Q106 66 70 31 L475 31 L470 0 L24 0 L29 31 Q66 67 85.5 103.5 Q105 140 114 177 Q123 214 123.5 251.5 Q124 289 122 327 L53 327 L57 352 L121 352 Q119 390 118.5 428 Q118 466 126 506 Q132 540 150 576.5 Q168 613 199.5 642.5 Q231 672 277 691 Q323 710 384 710 Q436 710 474.5 697.5 Q513 685 538.5 664 Q564 643 576.5 614.5 Q589 586 590 554 L547 554 Q545 578 536 600.5 Q527 623 507 639.5 Q487 656 455 666 Q423 676 377 676 Q324 676 287 660 Q250 644 225.5 619 Q201 594 188 564 Q175 534 170 507 Q163 468 163 429 Q163 390 165 352 L406 352 L402 327 L166 327 Z " />
<glyph glyph-name="yen" unicode="&#xa5;" horiz-adv-x="561" d="M315 309 L296 201 L425 201 L419 172 L291 172 L261 0 L218 0 L248 172 L123 172 L129 201 L253 201 L272 309 L95 309 L100 337 L273 337 L107 700 L157 700 L305 368 L575 700 L620 700 L324 337 L502 337 L498 309 L315 309 Z " />
<glyph glyph-name="florin" unicode="&#x192;" horiz-adv-x="304" d="M339 709 Q370 709 404 702 L398 668 Q363 677 337 677 Q234 677 214 563 L203 500 L369 500 L363 469 L197 469 L103 -63 Q90 -136 48 -172.5 Q6 -209 -60 -209 Q-75 -209 -91.5 -207.5 Q-108 -206 -125 -202 L-119 -168 Q-86 -177 -59 -177 Q44 -177 64 -63 L158 469 L75 469 L80 500 L164 500 L174 563 Q187 635 229.5 672 Q272 709 339 709 Z " />
<glyph glyph-name="numbersign" unicode="&#x23;" horiz-adv-x="647" d="M215 237 L434 237 L474 462 L255 462 L215 237 Z M134 0 L170 205 L49 205 L54 237 L175 237 L215 462 L94 462 L100 494 L220 494 L257 700 L297 700 L260 494 L479 494 L516 700 L555 700 L518 494 L641 494 L635 462 L513 462 L473 237 L595 237 L590 205 L468 205 L432 0 L393 0 L429 205 L210 205 L174 0 L134 0 Z " />
<glyph glyph-name="currency" unicode="&#xa4;" horiz-adv-x="676" d="M401 582 Q359 582 325 565 Q291 548 265 519 Q239 490 222 452 Q205 414 198 372 Q190 329 193.5 291 Q197 253 212.5 224 Q228 195 256.5 178 Q285 161 327 161 Q369 161 403 178 Q437 195 462.5 224 Q488 253 505 291 Q522 329 529 372 Q536 414 533 452 Q530 490 514.5 519 Q499 548 471 565 Q443 582 401 582 Z M406 614 Q455 614 489 595 Q523 576 543 544 L701 679 L720 656 L559 518 Q572 487 574.5 449.5 Q577 412 570 372 Q562 330 546.5 292.5 Q531 255 507 224 L621 87 L593 64 L482 198 Q451 166 411 147.5 Q371 129 321 129 Q270 129 236.5 147.5 Q203 166 183 198 L24 64 L5 87 L167 225 Q154 256 152 293 Q150 330 158 372 Q165 412 180 449 Q195 486 218 517 L105 656 L132 679 L244 544 Q275 576 315.5 595 Q356 614 406 614 Z " />
<glyph glyph-name="percent" unicode="&#x25;" horiz-adv-x="770" d="M584 363 Q623 363 650.5 349 Q678 335 694 310 Q710 285 714 251 Q718 217 711 177 Q704 137 687.5 103 Q671 69 646 44 Q621 19 588.5 4.5 Q556 -10 518 -10 Q479 -10 451.5 4 Q424 18 408 43 Q392 68 387 102 Q382 136 389 176 Q396 216 413 250 Q430 284 455.5 309 Q481 334 513.5 348.5 Q546 363 584 363 Z M578 335 Q546 335 520.5 323 Q495 311 475 290 Q455 269 442 240 Q429 211 423 177 Q411 108 437.5 63.5 Q464 19 523 19 Q554 19 580 31 Q606 43 625.5 64 Q645 85 658 114 Q671 143 677 177 Q689 246 663 290.5 Q637 335 578 335 Z M750 700 L109 0 L63 0 L703 700 L750 700 Z M295 710 Q334 710 361.5 696 Q389 682 405 657 Q421 632 425.5 598 Q430 564 423 524 Q416 484 399 450 Q382 416 357 391 Q332 366 299.5 351.5 Q267 337 229 337 Q190 337 162.5 351 Q135 365 119 390 Q103 415 98 449 Q93 483 100 523 Q107 563 124 597 Q141 631 166.5 656 Q192 681 224.5 695.5 Q257 710 295 710 Z M289 681 Q257 681 231.5 669 Q206 657 186 636 Q166 615 153 586.5 Q140 558 134 524 Q122 454 148.5 410 Q175 366 234 366 Q265 366 291 378 Q317 390 336.5 411 Q356 432 369.5 461 Q383 490 389 523 Q401 593 374.5 637 Q348 681 289 681 Z " />
<glyph glyph-name="perthousand" unicode="&#x2030;" horiz-adv-x="1142" d="M956 363 Q995 363 1022.5 349 Q1050 335 1066 310 Q1082 285 1086.5 251 Q1091 217 1084 177 Q1077 137 1060 103 Q1043 69 1018 44 Q993 19 960.5 4.5 Q928 -10 890 -10 Q851 -10 823.5 4 Q796 18 780 43 Q764 68 759 102 Q754 136 761 176 Q768 216 785 250 Q802 284 827.5 309 Q853 334 885.5 348.5 Q918 363 956 363 Z M950 335 Q918 335 892.5 323 Q867 311 847 290 Q827 269 814 240 Q801 211 795 177 Q783 108 809.5 63.5 Q836 19 895 19 Q926 19 952 31 Q978 43 998 64 Q1018 85 1031 114 Q1044 143 1050 177 Q1062 246 1035.5 290.5 Q1009 335 950 335 Z M584 363 Q623 363 650.5 349 Q678 335 694 310 Q710 285 714 251 Q718 217 711 177 Q704 137 687.5 103 Q671 69 646 44 Q621 19 588.5 4.5 Q556 -10 518 -10 Q479 -10 451.5 4 Q424 18 408 43 Q392 68 387 102 Q382 136 389 176 Q396 216 413 250 Q430 284 455.5 309 Q481 334 513.5 348.5 Q546 363 584 363 Z M578 335 Q546 335 520.5 323 Q495 311 475 290 Q455 269 442 240 Q429 211 423 177 Q411 108 437.5 63.5 Q464 19 523 19 Q554 19 580 31 Q606 43 625.5 64 Q645 85 658 114 Q671 143 677 177 Q689 246 663 290.5 Q637 335 578 335 Z M750 700 L109 0 L63 0 L703 700 L750 700 Z M295 710 Q334 710 361.5 696 Q389 682 405 657 Q421 632 425.5 598 Q430 564 423 524 Q416 484 399 450 Q382 416 357 391 Q332 366 299.5 351.5 Q267 337 229 337 Q190 337 162.5 351 Q135 365 119 390 Q103 415 98 449 Q93 483 100 523 Q107 563 124 597 Q141 631 166.5 656 Q192 681 224.5 695.5 Q257 710 295 710 Z M289 681 Q257 681 231.5 669 Q206 657 186 636 Q166 615 153 586.5 Q140 558 134 524 Q122 454 148.5 410 Q175 366 234 366 Q265 366 291 378 Q317 390 336.5 411 Q356 432 369.5 461 Q383 490 389 523 Q401 593 374.5 637 Q348 681 289 681 Z " />
<glyph glyph-name="&amp;#x2044;" unicode="&#x2044;" horiz-adv-x="561" d="M-40 0 L603 700 L644 700 L1 0 L-40 0 Z " />
<glyph glyph-name="&amp;#x2215;" unicode="&#x2215;" horiz-adv-x="561" d="M-40 0 L603 700 L644 700 L1 0 L-40 0 Z " />
<glyph glyph-name="asciicircum" unicode="&#x5e;" horiz-adv-x="576" d="M552 491 L525 468 L365 662 L136 468 L116 491 L373 709 L552 491 Z " />
<glyph glyph-name="asciitilde" unicode="&#x7e;" horiz-adv-x="576" d="M241 628 Q280 628 308 612 Q336 596 360 576.5 Q384 557 407 541 Q430 525 458 525 Q492 525 514.5 542.5 Q537 560 553 606 L577 595 Q567 564 553.5 543.5 Q540 523 523.5 511 Q507 499 489 494.5 Q471 490 452 490 Q415 490 389 506 Q363 522 339.5 541.5 Q316 561 291.5 577 Q267 593 234 593 Q200 593 177.5 574.5 Q155 556 139 510 L114 522 Q136 584 169.5 606 Q203 628 241 628 Z " />
<glyph glyph-name="&amp;#xb7;" unicode="&#xb7;" horiz-adv-x="574" d="M324 295 L315 243 L264 243 L273 295 L324 295 Z " />
<glyph glyph-name="&amp;#x2219;" unicode="&#x2219;" horiz-adv-x="574" d="M324 295 L315 243 L264 243 L273 295 L324 295 Z " />
<glyph glyph-name="plus" unicode="&#x2b;" horiz-adv-x="576" d="M317 301 L551 301 L545 268 L311 268 L270 34 L237 34 L278 268 L45 268 L51 301 L284 301 L325 535 L359 535 L317 301 Z " />
<glyph glyph-name="plusminus" unicode="&#xb1;" horiz-adv-x="576" d="M-31 61 L-25 94 L475 94 L469 61 L-31 61 Z M301 437 L535 437 L529 404 L295 404 L254 170 L221 170 L262 404 L29 404 L35 437 L268 437 L309 671 L343 671 L301 437 Z " />
<glyph glyph-name="less" unicode="&#x3c;" horiz-adv-x="576" d="M112 285 L484 58 L462 29 L70 271 L75 299 L552 541 L564 512 L112 285 Z " />
<glyph glyph-name="equal" unicode="&#x3d;" horiz-adv-x="576" d="M63 372 L69 405 L569 405 L564 372 L63 372 Z M26 164 L32 197 L533 197 L527 164 L26 164 Z " />
<glyph glyph-name="greater" unicode="&#x3e;" horiz-adv-x="574" d="M484 286 L112 512 L133 541 L526 299 L521 271 L44 29 L32 58 L484 286 Z " />
<glyph glyph-name="approxequal" unicode="&#x2248;" horiz-adv-x="574" d="M172 239 Q211 239 239 223 Q267 207 291.5 187.5 Q316 168 339 152 Q362 136 390 136 Q424 136 446 153.5 Q468 171 485 218 L509 206 Q498 175 484.5 154.5 Q471 134 454.5 122 Q438 110 420 105.5 Q402 101 383 101 Q346 101 320 117 Q294 133 270.5 152.5 Q247 172 222.5 188 Q198 204 165 204 Q131 204 108.5 186 Q86 168 71 122 L46 133 Q67 195 100.5 217 Q134 239 172 239 Z M209 450 Q248 450 276 434 Q304 418 328.5 398.5 Q353 379 376 363 Q399 347 427 347 Q461 347 483.5 364 Q506 381 522 428 L547 417 Q536 386 522 365.5 Q508 345 491.5 333 Q475 321 457 316.5 Q439 312 420 312 Q383 312 357 328 Q331 344 307.5 363.5 Q284 383 259.5 399 Q235 415 202 415 Q168 415 145.5 396.5 Q123 378 108 332 L84 344 Q104 406 137.5 428 Q171 450 209 450 Z " />
<glyph glyph-name="notequal" unicode="&#x2260;" horiz-adv-x="576" d="M231 164 L126 29 L86 29 L191 164 L-14 164 L-8 197 L217 197 L354 372 L23 372 L29 405 L380 405 L474 525 L512 525 L418 405 L529 405 L524 372 L393 372 L256 197 L493 197 L487 164 L231 164 Z " />
<glyph glyph-name="lessequal" unicode="&#x2264;" horiz-adv-x="576" d="M3 34 L9 67 L510 67 L504 34 L3 34 Z M130 389 L498 164 L476 136 L87 375 L92 403 L566 642 L577 614 L130 389 Z " />
<glyph glyph-name="greaterequal" unicode="&#x2265;" horiz-adv-x="574" d="M3 34 L9 67 L510 67 L504 34 L3 34 Z M497 390 L130 614 L151 642 L539 403 L535 375 L61 136 L50 164 L497 390 Z " />
<glyph glyph-name="divide" unicode="&#xf7;" horiz-adv-x="576" d="M257 135 L248 80 L195 80 L204 135 L257 135 Z M321 495 L312 440 L259 440 L268 495 L321 495 Z M5 268 L11 301 L511 301 L505 268 L5 268 Z " />
<glyph glyph-name="partialdiff" unicode="&#x2202;" horiz-adv-x="576" d="M317 449 Q264 449 225 430.5 Q186 412 159 382 Q132 352 116 313 Q100 274 93 234 Q86 191 90 153 Q94 115 112 86.5 Q130 58 162.5 41 Q195 24 246 24 Q294 24 334 46.5 Q374 69 406 109.5 Q438 150 460.5 206 Q483 262 497 330 Q485 351 467.5 372.5 Q450 394 427.5 411 Q405 428 377 438.5 Q349 449 317 449 Z M309 710 Q378 710 428.5 685.5 Q479 661 509.5 615 Q540 569 549 502.5 Q558 436 544 352 Q529 268 501.5 200.5 Q474 133 436 86.5 Q398 40 348.5 15 Q299 -10 241 -10 Q181 -10 141 9.5 Q101 29 78.5 62.5 Q56 96 49.5 140.5 Q43 185 51 234 Q58 280 78 324.5 Q98 369 131 403.5 Q164 438 210 459 Q256 480 317 480 Q353 480 382 470 Q411 460 434 443.5 Q457 427 474.5 406.5 Q492 386 504 364 Q516 435 508 493 Q500 551 473 592.5 Q446 634 401.5 657 Q357 680 295 680 L309 710 Z " />
<glyph glyph-name="product" unicode="&#x220f;" horiz-adv-x="649" d="M482 0 L598 666 L206 666 L89 0 L47 0 L170 700 L645 700 L522 0 L482 0 Z " />
<glyph glyph-name="summation" unicode="&#x2211;" horiz-adv-x="597" d="M636 700 L630 666 L169 666 L350 370 L48 34 L533 34 L527 0 L-5 0 L0 35 L301 370 L122 664 L129 700 L636 700 Z " />
<glyph glyph-name="radical" unicode="&#x221a;" horiz-adv-x="619" d="M261 0 L164 465 L44 465 L51 500 L200 500 L294 39 L663 700 L702 700 L313 0 L261 0 Z " />
<glyph glyph-name="infinity" unicode="&#x221e;" horiz-adv-x="785" d="M263 523 Q200 523 158 477.5 Q116 432 103 357 Q90 282 116.5 237 Q143 192 206 192 Q242 192 270 205.5 Q298 219 320.5 241 Q343 263 361.5 291.5 Q380 320 396 351 Q391 385 383.5 416 Q376 447 362 471 Q348 495 324 509 Q300 523 263 523 Z M272 562 Q313 562 340.5 549 Q368 536 385 513.5 Q402 491 411.5 461.5 Q421 432 427 399 Q444 431 464 460.5 Q484 490 509 512.5 Q534 535 565 548.5 Q596 562 635 562 Q711 562 743 507.5 Q775 453 758 358 Q741 263 687.5 208 Q634 153 558 153 Q517 153 490 166 Q463 179 445.5 201.5 Q428 224 418.5 253.5 Q409 283 403 316 Q386 284 366 254.5 Q346 225 321.5 202.5 Q297 180 266 166.5 Q235 153 196 153 Q120 153 88 207.5 Q56 262 73 357 Q90 453 143 507.5 Q196 562 272 562 Z M625 523 Q589 523 560.5 509.5 Q532 496 509 473.5 Q486 451 468 422.5 Q450 394 434 363 Q439 329 446.5 298 Q454 267 468.5 243.5 Q483 220 506.5 206 Q530 192 567 192 Q630 192 672 237.5 Q714 283 727 358 Q740 433 714 478 Q688 523 625 523 Z " />
<glyph glyph-name="integral" unicode="&#x222b;" horiz-adv-x="576" d="M323 540 Q339 626 388 668 Q437 710 523 701 L517 666 Q387 681 361 539 L258 -47 Q243 -133 193.5 -175 Q144 -217 58 -208 L65 -173 Q196 -188 220 -47 L323 540 Z " />
<glyph glyph-name="lozenge" unicode="&#x25ca;" horiz-adv-x="453" d="M154 -172 L391 242 L304 661 L68 247 L154 -172 Z M172 -211 L120 -211 L28 244 L286 700 L337 700 L430 245 L172 -211 Z " />
<glyph glyph-name="logicalnot" unicode="&#xac;" horiz-adv-x="576" d="M457 0 L503 268 L45 268 L51 301 L551 301 L498 0 L457 0 Z " />
<glyph glyph-name="bar" unicode="&#x7c;" horiz-adv-x="277" d="M39 -211 L200 700 L242 700 L81 -211 L39 -211 Z " />
<glyph glyph-name="degree" unicode="&#xb0;" horiz-adv-x="420" d="M295 710 Q334 710 361.5 696 Q389 682 405 657 Q421 632 425.5 598 Q430 564 423 524 Q416 484 399 450 Q382 416 357 391 Q332 366 299.5 351.5 Q267 337 229 337 Q190 337 162.5 351 Q135 365 119 390 Q103 415 98 449 Q93 483 100 523 Q107 563 124 597 Q141 631 166.5 656 Q192 681 224.5 695.5 Q257 710 295 710 Z M289 681 Q257 681 231.5 669 Q206 657 186 636 Q166 615 153 586.5 Q140 558 134 524 Q122 454 148.5 410 Q175 366 234 366 Q265 366 291 378 Q317 390 336.5 411 Q356 432 369.5 461 Q383 490 389 523 Q401 593 374.5 637 Q348 681 289 681 Z " />
<glyph glyph-name="ordfeminine" unicode="&#xaa;" horiz-adv-x="576" d="M314 710 Q272 710 236 693 Q200 676 172.5 646 Q145 616 126 574 Q107 532 98 481 Q89 430 93 388 Q97 346 114 316 Q131 286 161 269 Q191 252 233 252 Q278 252 314.5 270.5 Q351 289 378 319.5 Q405 350 422.5 390 Q440 430 448 474 Q459 535 453.5 579.5 Q448 624 429.5 653 Q411 682 381 696 Q351 710 314 710 Z M313 741 Q352 741 380.5 728.5 Q409 716 428 695.5 Q447 675 457 648 Q467 621 469 592 L493 731 L532 731 L445 231 L406 231 L429 366 Q417 338 396.5 312 Q376 286 349 265.5 Q322 245 289.5 233 Q257 221 222 221 Q172 221 136 240 Q100 259 79 293.5 Q58 328 52 376 Q46 424 56 481 Q66 539 89 586.5 Q112 634 145 668.5 Q178 703 220.5 722 Q263 741 313 741 Z " />
<glyph glyph-name="ordmasculine" unicode="&#xba;" horiz-adv-x="552" d="M325 741 Q376 741 414 722 Q452 703 475 668.5 Q498 634 505.5 586.5 Q513 539 503 481 Q492 422 468 374 Q444 326 409 292 Q374 258 329.5 239.5 Q285 221 234 221 Q183 221 145 239.5 Q107 258 83.5 292 Q60 326 52.5 374 Q45 422 56 481 Q66 539 90 586.5 Q114 634 149.5 668.5 Q185 703 229.5 722 Q274 741 325 741 Z M320 710 Q278 710 241.5 693.5 Q205 677 175.5 646.5 Q146 616 126 574 Q106 532 97 481 Q88 429 93.5 387 Q99 345 117 315 Q135 285 166 268.5 Q197 252 239 252 Q281 252 317.5 268.5 Q354 285 383.5 315 Q413 345 433 387 Q453 429 462 481 Q471 532 465.5 574 Q460 616 442 646.5 Q424 677 393 693.5 Q362 710 320 710 Z " />
<glyph glyph-name="underscore" unicode="&#x5f;" horiz-adv-x="576" d="M-49 -123 L-43 -88 L509 -88 L503 -123 L-49 -123 Z " />
<glyph glyph-name="emdash" unicode="&#x2014;" horiz-adv-x="1021" d="M57 266 L63 301 L984 301 L978 266 L57 266 Z " />
<glyph glyph-name="endash" unicode="&#x2013;" horiz-adv-x="653" d="M57 266 L63 301 L616 301 L610 266 L57 266 Z " />
<glyph glyph-name="&amp;#x2d;" unicode="&#x2d;" horiz-adv-x="321" d="M57 266 L63 301 L284 301 L277 266 L57 266 Z " />
<glyph glyph-name="&amp;#xad;" unicode="&#xad;" horiz-adv-x="321" d="M57 266 L63 301 L284 301 L277 266 L57 266 Z " />
<glyph glyph-name="guillemotleft" unicode="&#xab;" horiz-adv-x="493" d="M485 469 L262 277 L417 86 L397 66 L225 262 L231 292 L471 488 L485 469 Z M315 469 L92 277 L248 86 L227 66 L56 262 L61 292 L302 488 L315 469 Z " />
<glyph glyph-name="guilsinglleft" unicode="&#x2039;" horiz-adv-x="323" d="M315 469 L92 277 L248 86 L227 66 L56 262 L61 292 L302 488 L315 469 Z " />
<glyph glyph-name="guilsinglright" unicode="&#x203a;" horiz-adv-x="323" d="M284 292 L279 262 L38 66 L25 86 L248 277 L92 469 L113 488 L284 292 Z " />
<glyph glyph-name="guillemotright" unicode="&#xbb;" horiz-adv-x="493" d="M284 292 L279 262 L38 66 L25 86 L248 277 L92 469 L113 488 L284 292 Z M454 292 L448 262 L208 66 L194 86 L417 277 L262 469 L282 488 L454 292 Z " />
<glyph glyph-name="quotesingle" unicode="&#x27;" horiz-adv-x="161" d="M121 524 L139 704 L189 704 L145 524 L121 524 Z " />
<glyph glyph-name="quotedbl" unicode="&#x22;" horiz-adv-x="272" d="M232 524 L251 704 L300 704 L256 524 L232 524 Z M121 524 L139 704 L189 704 L145 524 L121 524 Z " />
<glyph glyph-name="quotedblleft" unicode="&#x201c;" horiz-adv-x="303" d="M258 534 L212 534 L308 714 L333 714 L258 534 Z M153 534 L107 534 L203 714 L227 714 L153 534 Z " />
<glyph glyph-name="quotesinglbase" unicode="&#x201a;" horiz-adv-x="198" d="M66 62 L112 62 L16 -119 L-8 -119 L66 62 Z " />
<glyph glyph-name="quotedblbase" unicode="&#x201e;" horiz-adv-x="303" d="M171 62 L217 62 L121 -119 L97 -119 L171 62 Z M66 62 L112 62 L16 -119 L-8 -119 L66 62 Z " />
<glyph glyph-name="quotedblright" unicode="&#x201d;" horiz-adv-x="303" d="M285 704 L331 704 L234 524 L210 524 L285 704 Z M180 704 L226 704 L129 524 L105 524 L180 704 Z " />
<glyph glyph-name="quoteright" unicode="&#x2019;" horiz-adv-x="190" d="M180 704 L226 704 L129 524 L105 524 L180 704 Z " />
<glyph glyph-name="quoteleft" unicode="&#x2018;" horiz-adv-x="198" d="M156 534 L110 534 L207 714 L231 714 L156 534 Z " />
<glyph glyph-name="comma" unicode="&#x2c;" horiz-adv-x="201" d="M67 65 L116 65 L15 -130 L-11 -130 L67 65 Z " />
<glyph glyph-name="period" unicode="&#x2e;" horiz-adv-x="203" d="M97 55 L88 0 L35 0 L44 55 L97 55 Z " />
<glyph glyph-name="colon" unicode="&#x3a;" horiz-adv-x="203" d="M176 500 L166 445 L112 445 L123 500 L176 500 Z M97 55 L88 0 L35 0 L44 55 L97 55 Z " />
<glyph glyph-name="semicolon" unicode="&#x3b;" horiz-adv-x="204" d="M27 65 L76 65 L-25 -130 L-51 -130 L27 65 Z M176 500 L166 445 L112 445 L123 500 L176 500 Z " />
<glyph glyph-name="ellipsis" unicode="&#x2026;" horiz-adv-x="868" d="M115 55 L106 0 L53 0 L62 55 L115 55 Z M663 55 L654 0 L601 0 L610 55 L663 55 Z M389 55 L380 0 L327 0 L336 55 L389 55 Z " />
<glyph glyph-name="question" unicode="&#x3f;" horiz-adv-x="519" d="M217 51 L209 0 L159 0 L167 51 L217 51 Z M351 710 Q403 710 438.5 695.5 Q474 681 495 657.5 Q516 634 522.5 603 Q529 572 523 539 Q514 490 491.5 454.5 Q469 419 438.5 390.5 Q408 362 374.5 337 Q341 312 310.5 284 Q280 256 257 221 Q234 186 226 138 L189 138 Q198 191 221.5 229.5 Q245 268 275 298 Q305 328 338.5 353 Q372 378 401.5 405 Q431 432 453 464 Q475 496 483 539 Q487 561 482.5 585.5 Q478 610 462.5 630 Q447 650 418 663 Q389 676 344 676 Q302 676 270 666 Q238 656 214.5 639 Q191 622 175 600 Q159 578 149 553 L107 553 Q120 585 141 613.5 Q162 642 192.5 663.5 Q223 685 262.5 697.5 Q302 710 351 710 Z " />
<glyph glyph-name="questiondown" unicode="&#xbf;" horiz-adv-x="519" d="M368 500 L359 449 L308 449 L318 500 L368 500 Z M337 362 Q327 309 304 270.5 Q281 232 251 202 Q221 172 187.5 147 Q154 122 124.5 95 Q95 68 73 36.5 Q51 5 43 -39 Q39 -62 43.5 -86 Q48 -110 63.5 -130 Q79 -150 108 -163 Q137 -176 182 -176 Q224 -176 256 -166 Q288 -156 311 -139 Q334 -122 350 -100 Q366 -78 376 -53 L419 -53 Q406 -85 384.5 -113.5 Q363 -142 333 -163.5 Q303 -185 263.5 -197.5 Q224 -210 175 -210 Q123 -210 87.5 -195.5 Q52 -181 31 -157.5 Q10 -134 3.5 -103 Q-3 -72 3 -39 Q11 10 34 45.5 Q57 81 87.5 109.5 Q118 138 151.5 163 Q185 188 215.5 216 Q246 244 268.5 279 Q291 314 300 362 L337 362 Z " />
<glyph glyph-name="exclam" unicode="&#x21;" horiz-adv-x="237" d="M112 51 L104 0 L53 0 L62 51 L112 51 Z M230 700 L124 158 L88 158 L173 700 L230 700 Z " />
<glyph glyph-name="exclamdown" unicode="&#xa1;" horiz-adv-x="237" d="M192 500 L182 449 L132 449 L141 500 L192 500 Z M156 342 L71 -200 L14 -200 L120 342 L156 342 Z " />
<glyph glyph-name="parenleft" unicode="&#x28;" horiz-adv-x="321" d="M398 683 Q348 675 304.5 639.5 Q261 604 226 546.5 Q191 489 164.5 413 Q138 337 123 249 Q108 161 107.5 85.5 Q107 10 122 -47.5 Q137 -105 167.5 -141 Q198 -177 245 -185 L241 -212 Q188 -204 150 -168 Q112 -132 91 -72.5 Q70 -13 67 68.5 Q64 150 81 249 Q99 348 130.5 429.5 Q162 511 204 570.5 Q246 630 297 666 Q348 702 404 710 L398 683 Z " />
<glyph glyph-name="parenright" unicode="&#x29;" horiz-adv-x="321" d="M88 710 Q140 702 178 666 Q216 630 237 570.5 Q258 511 261 429.5 Q264 348 246 249 Q229 150 197.5 68.5 Q166 -13 124 -72.5 Q82 -132 31.5 -168 Q-19 -204 -74 -212 L-70 -185 Q-20 -177 23 -141 Q66 -105 101.5 -47.5 Q137 10 163 85.5 Q189 161 204 249 Q220 337 220.5 413 Q221 489 206 546.5 Q191 604 160 639.5 Q129 675 82 683 L88 710 Z " />
<glyph glyph-name="bracketleft" unicode="&#x5b;" horiz-adv-x="316" d="M19 -211 L180 700 L354 700 L350 675 L214 675 L62 -186 L198 -186 L193 -211 L19 -211 Z " />
<glyph glyph-name="bracketright" unicode="&#x5d;" horiz-adv-x="316" d="M302 700 L141 -211 L-33 -211 L-28 -186 L108 -186 L260 675 L124 675 L128 700 L302 700 Z " />
<glyph glyph-name="braceleft" unicode="&#x7b;" horiz-adv-x="335" d="M385 682 Q346 682 320 672 Q294 662 276.5 644 Q259 626 249.5 601 Q240 576 234 546 Q227 508 227.5 468.5 Q228 429 220 387 Q209 324 180.5 291 Q152 258 107 250 Q149 241 166 207.5 Q183 174 172 111 Q164 69 151 30 Q138 -9 130 -47 Q125 -77 126 -102.5 Q127 -128 138 -146 Q149 -164 171.5 -174 Q194 -184 233 -184 L226 -211 Q177 -211 148 -198.5 Q119 -186 104.5 -164 Q90 -142 87.5 -113 Q85 -84 91 -51 Q98 -13 110 27 Q122 67 130 105 Q152 232 65 232 L52 232 L58 266 L71 266 Q157 266 181 393 Q187 431 188.5 471 Q190 511 197 550 Q203 583 215.5 612 Q228 641 250.5 662.5 Q273 684 306.5 696.5 Q340 709 389 709 L385 682 Z " />
<glyph glyph-name="braceright" unicode="&#x7d;" horiz-adv-x="335" d="M116 709 Q165 709 194.5 696.5 Q224 684 238.5 662.5 Q253 641 255 611.5 Q257 582 251 549 Q244 511 231.5 471 Q219 431 213 393 Q201 328 218 297 Q235 266 277 266 L291 266 L285 232 L272 232 Q184 232 162 105 Q154 67 153 27 Q152 -13 145 -51 Q139 -84 126.5 -113.5 Q114 -143 92 -164.5 Q70 -186 36 -198.5 Q2 -211 -46 -211 L-42 -184 Q-4 -184 22.5 -174 Q49 -164 66 -146 Q83 -128 92.5 -103 Q102 -78 107 -48 Q115 -10 114.5 29.5 Q114 69 122 111 Q133 174 161.5 207 Q190 240 235 248 Q193 257 176.5 290.5 Q160 324 171 387 Q179 429 192 468.5 Q205 508 211 546 Q217 576 216 601 Q215 626 204.5 644 Q194 662 171 672 Q148 682 110 682 L116 709 Z " />
<glyph glyph-name="slash" unicode="&#x2f;" horiz-adv-x="434" d="M498 700 L21 0 L-21 0 L457 700 L498 700 Z " />
<glyph glyph-name="backslash" unicode="&#x5c;" horiz-adv-x="352" d="M143 700 L375 0 L332 0 L102 700 L143 700 Z " />
<glyph glyph-name="asterisk" unicode="&#x2a;" horiz-adv-x="407" d="M305 700 L274 565 L413 612 L418 574 L278 543 L346 430 L310 409 L256 529 L160 409 L133 430 L240 543 L111 574 L130 612 L251 565 L267 700 L305 700 Z " />
<glyph glyph-name="bullet" unicode="&#x2022;" horiz-adv-x="389" d="M177 127 Q147 127 122.5 138 Q98 149 82 168.5 Q66 188 59.5 214.5 Q53 241 58 271 Q64 301 80 327.5 Q96 354 119 373.5 Q142 393 170 404.5 Q198 416 228 416 Q258 416 282.5 404.5 Q307 393 323 373.5 Q339 354 345.5 327.5 Q352 301 346 271 Q341 241 325 214.5 Q309 188 286 168.5 Q263 149 235 138 Q207 127 177 127 Z " />
<glyph glyph-name="section" unicode="&#xa7;" horiz-adv-x="591" d="M516 225 Q523 267 508 293.5 Q493 320 464.5 337.5 Q436 355 397.5 365.5 Q359 376 320 386.5 Q281 397 244.5 409.5 Q208 422 183 442 Q157 422 136.5 391 Q116 360 109 323 Q101 281 116 254.5 Q131 228 159 210.5 Q187 193 225.5 182 Q264 171 303 161 Q342 151 378.5 138.5 Q415 126 441 106 Q467 126 487.5 157 Q508 188 516 225 Z M381 710 Q434 710 474.5 697.5 Q515 685 542 663.5 Q569 642 583 613 Q597 584 598 552 L555 552 Q553 577 542 599.5 Q531 622 509.5 639 Q488 656 454.5 666 Q421 676 375 676 Q329 676 295.5 664.5 Q262 653 239.5 635 Q217 617 204.5 594 Q192 571 188 549 Q182 514 196 491.5 Q210 469 237 454 Q264 439 300 429.5 Q336 420 374 410 Q412 400 447.5 388 Q483 376 509.5 355.5 Q536 335 548.5 304.5 Q561 274 553 228 Q544 180 518 145 Q492 110 460 87 Q473 70 478 49 Q483 28 478 -1 Q472 -34 454 -63.5 Q436 -93 407 -114.5 Q378 -136 337.5 -149 Q297 -162 245 -162 Q191 -162 151 -149.5 Q111 -137 84 -115.5 Q57 -94 42.5 -65 Q28 -36 27 -4 L71 -4 Q72 -29 83 -51.5 Q94 -74 115.5 -91 Q137 -108 170.5 -118 Q204 -128 251 -128 Q296 -128 329.5 -116.5 Q363 -105 385.5 -87 Q408 -69 420.5 -46.5 Q433 -24 438 -1 Q444 34 429.5 56.5 Q415 79 388 94 Q361 109 324.5 118.5 Q288 128 250 137.5 Q212 147 176.5 159 Q141 171 115 191 Q89 211 76 242 Q63 273 71 319 Q80 368 106 403 Q132 438 164 461 Q152 477 147.5 498.5 Q143 520 148 549 Q154 582 171.5 611.5 Q189 641 218 662.5 Q247 684 288 697 Q329 710 381 710 Z " />
<glyph glyph-name="dagger" unicode="&#x2020;" horiz-adv-x="477" d="M346 700 L306 523 L484 532 L476 487 L301 496 L279 319 L234 319 L274 496 L95 487 L103 532 L279 523 L301 700 L346 700 Z " />
<glyph glyph-name="daggerdbl" unicode="&#x2021;" horiz-adv-x="482" d="M346 700 L306 523 L484 532 L476 487 L301 496 L249 204 L428 213 L420 168 L245 177 L223 0 L178 0 L218 177 L39 168 L47 213 L223 204 L274 496 L95 487 L103 532 L279 523 L301 700 L346 700 Z " />
<glyph glyph-name="paragraph" unicode="&#xb6;" horiz-adv-x="579" d="M536 500 L433 -84 Q427 -118 412 -142 Q397 -166 376 -182 Q355 -198 330.5 -205.5 Q306 -213 281 -213 L288 -177 Q304 -177 320.5 -173 Q337 -169 351.5 -158.5 Q366 -148 377 -130.5 Q388 -113 393 -85 L409 0 L226 0 Q177 0 141 19 Q105 38 83 72 Q61 106 54 152 Q47 198 56 251 Q65 305 88 350.5 Q111 396 145 429 Q179 462 221.5 481 Q264 500 312 500 L536 500 Z " />
<glyph glyph-name="copyright" unicode="&#xa9;" horiz-adv-x="824" d="M468 599 Q538 599 582.5 561.5 Q627 524 632 452 L594 452 Q591 505 555 538.5 Q519 572 462 572 Q421 572 385.5 555.5 Q350 539 322 510 Q294 481 274.5 440.5 Q255 400 247 351 Q238 303 243 263 Q248 223 266 193.5 Q284 164 314 148 Q344 132 385 132 Q442 132 489.5 165 Q537 198 559 252 L597 252 Q567 179 509 141.5 Q451 104 381 104 Q332 104 295.5 122 Q259 140 237 172.5 Q215 205 208 250.5 Q201 296 211 351 Q220 406 243 452 Q266 498 299.5 530.5 Q333 563 375.5 581 Q418 599 468 599 Z M489 710 Q564 710 624.5 682.5 Q685 655 724.5 606.5 Q764 558 779.5 492 Q795 426 782 350 Q768 273 729 207.5 Q690 142 633.5 93.5 Q577 45 507 17.5 Q437 -10 362 -10 Q288 -10 228 17.5 Q168 45 128 93.5 Q88 142 72 207.5 Q56 273 69 350 Q82 426 121.5 492 Q161 558 218 606.5 Q275 655 344.5 682.5 Q414 710 489 710 Z M484 683 Q414 683 350.5 657.5 Q287 632 236.5 587 Q186 542 151 481 Q116 420 104 350 Q92 280 105 219 Q118 158 153 113 Q188 68 242.5 42.5 Q297 17 367 17 Q437 17 501 42.5 Q565 68 615.5 113 Q666 158 700.5 219 Q735 280 747 350 Q759 420 746 481 Q733 542 698.5 587 Q664 632 609 657.5 Q554 683 484 683 Z " />
<glyph glyph-name="registered" unicode="&#xae;" horiz-adv-x="503" d="M237 517 L323 517 Q357 517 373 534 Q389 551 394 575 Q397 597 387.5 611 Q378 625 343 625 L257 625 L237 517 Z M349 644 Q392 644 408.5 624 Q425 604 420 577 Q415 550 397.5 531 Q380 512 351 506 Q362 504 370.5 498.5 Q379 493 383.5 478.5 Q388 464 387.5 439 Q387 414 380 374 L356 374 Q363 415 363 439.5 Q363 464 358 477 Q353 490 343 494 Q333 498 320 498 L234 498 L213 374 L189 374 L236 644 L349 644 Z M336 710 Q380 710 414.5 695 Q449 680 470.5 653 Q492 626 500.5 589 Q509 552 501 508 Q493 464 472 427 Q451 390 419.5 363.5 Q388 337 348.5 322 Q309 307 265 307 Q221 307 186.5 322 Q152 337 129.5 363.5 Q107 390 98 427 Q89 464 97 508 Q105 551 127 588 Q149 625 181 652 Q213 679 252.5 694.5 Q292 710 336 710 Z M333 691 Q300 691 266 679.5 Q232 668 202.5 645 Q173 622 152 588 Q131 554 123 508 Q116 468 123 434.5 Q130 401 149.5 377 Q169 353 199 339.5 Q229 326 268 326 Q307 326 342 339.5 Q377 353 405 377 Q433 401 452 434.5 Q471 468 478 508 Q485 548 478 581.5 Q471 615 451.5 639.5 Q432 664 402 677.5 Q372 691 333 691 Z " />
<glyph glyph-name="trademark" unicode="&#x2122;" horiz-adv-x="741" d="M456 700 L526 409 L697 700 L739 700 L681 369 L653 369 L706 669 L530 369 L507 369 L434 669 L382 369 L355 369 L408 676 L277 676 L224 369 L195 369 L248 676 L126 676 L130 700 L456 700 Z " />
<glyph glyph-name="ampersand" unicode="&#x26;" horiz-adv-x="768" d="M450 676 Q400 676 354 658.5 Q308 641 269 608.5 Q230 576 199 530 Q168 484 148 427 L404 427 Q438 427 466.5 438 Q495 449 516.5 467 Q538 485 551.5 508 Q565 531 569 555 Q573 580 568.5 602 Q564 624 550 640.5 Q536 657 511 666.5 Q486 676 450 676 Z M326 27 Q390 27 452.5 54 Q515 81 568 129.5 Q621 178 659.5 245.5 Q698 313 713 395 L137 395 Q132 378 127.5 361 Q123 344 121 327 Q109 259 117 203.5 Q125 148 151.5 109 Q178 70 222 48.5 Q266 27 326 27 Z M458 710 Q504 710 536.5 698.5 Q569 687 588.5 667 Q608 647 614.5 620 Q621 593 616 562 Q608 518 575 481.5 Q542 445 488 427 L765 427 Q745 325 700.5 244 Q656 163 596 106.5 Q536 50 464.5 20 Q393 -10 320 -10 Q249 -10 197 15.5 Q145 41 113.5 86.5 Q82 132 72 194.5 Q62 257 75 330 Q89 411 124.5 480.5 Q160 550 210.5 601 Q261 652 324.5 681 Q388 710 458 710 Z " />
<glyph glyph-name="at" unicode="&#x40;" horiz-adv-x="825" d="M471 607 Q543 607 598.5 586.5 Q654 566 691.5 528.5 Q729 491 748 437.5 Q767 384 767 319 Q767 259 753 207 Q739 155 714 116 Q689 77 655.5 55 Q622 33 583 33 Q558 33 541 46.5 Q524 60 524 100 Q524 113 524.5 125 Q525 137 530 157 Q507 105 460.5 69.5 Q414 34 345 34 Q276 34 239 74 Q202 114 202 183 Q202 233 216.5 284.5 Q231 336 259.5 378 Q288 420 330.5 447 Q373 474 430 474 Q467 474 492.5 463 Q518 452 534.5 434 Q551 416 558.5 392 Q566 368 567 342 L593 464 L624 464 L563 173 Q558 153 556.5 137.5 Q555 122 555 110 Q555 84 564 72.5 Q573 61 591 61 Q620 61 646 81.5 Q672 102 692 137.5 Q712 173 724 219 Q736 265 736 316 Q736 439 668 510 Q600 581 469 581 Q387 581 317.5 550.5 Q248 520 197.5 466.5 Q147 413 118.5 340.5 Q90 268 90 185 Q90 119 110 68.5 Q130 18 165.5 -16 Q201 -50 251 -67.5 Q301 -85 361 -85 Q383 -85 407 -81.5 Q431 -78 453 -72.5 Q475 -67 494.5 -60 Q514 -53 527 -46 L532 -71 Q500 -88 456.5 -100.5 Q413 -113 356 -113 Q292 -113 237.5 -93.5 Q183 -74 143.5 -36.5 Q104 1 81.5 57 Q59 113 59 185 Q59 275 90.5 352 Q122 429 177.5 485.5 Q233 542 308 574.5 Q383 607 471 607 Z M432 447 Q385 447 348.5 423.5 Q312 400 287 363 Q262 326 249 279.5 Q236 233 236 187 Q236 128 265.5 94 Q295 60 353 60 Q404 60 441 84 Q478 108 503 145.5 Q528 183 540 229 Q552 275 552 319 Q552 389 519.5 418 Q487 447 432 447 Z " />
<glyph glyph-name="acute" unicode="&#xb4;" horiz-adv-x="249" d="M286 707 L135 555 L106 555 L245 714 L286 707 Z " />
<glyph glyph-name="grave" unicode="&#x60;" horiz-adv-x="249" d="M175 714 L259 555 L230 555 L133 707 L175 714 Z " />
<glyph glyph-name="caron" unicode="&#x2c7;" horiz-adv-x="354" d="M159 713 L239 585 L365 713 L390 706 L253 555 L216 555 L133 706 L159 713 Z " />
<glyph glyph-name="circumflex" unicode="&#x2c6;" horiz-adv-x="354" d="M280 712 L364 561 L337 554 L257 682 L131 554 L107 561 L244 712 L280 712 Z " />
<glyph glyph-name="breve" unicode="&#x2d8;" horiz-adv-x="299" d="M151 681 Q146 646 161 623 Q176 600 214 600 Q256 600 279 625 Q302 650 307 681 L331 679 Q322 632 290.5 602.5 Q259 573 209 573 Q160 573 139.5 602.5 Q119 632 127 679 L151 681 Z " />
<glyph glyph-name="dieresis" unicode="&#xa8;" horiz-adv-x="271" d="M253 613 L261 652 L293 652 L286 613 L253 613 Z M120 613 L128 652 L160 652 L153 613 L120 613 Z " />
<glyph glyph-name="dotaccent" unicode="&#x2d9;" horiz-adv-x="138" d="M116 613 L124 656 L165 656 L157 613 L116 613 Z " />
<glyph glyph-name="hungarumlaut" unicode="&#x2dd;" horiz-adv-x="362" d="M397 707 L260 556 L236 556 L364 714 L397 707 Z M269 707 L133 556 L108 556 L236 714 L269 707 Z " />
<glyph glyph-name="&amp;#xaf;" unicode="&#xaf;" horiz-adv-x="329" d="M116 600 L121 629 L350 629 L345 600 L116 600 Z " />
<glyph glyph-name="&amp;#x2c9;" unicode="&#x2c9;" horiz-adv-x="329" d="M116 600 L121 629 L350 629 L345 600 L116 600 Z " />
<glyph glyph-name="ring" unicode="&#x2da;" horiz-adv-x="299" d="M229 688 Q194 688 172 669 Q150 650 146 625 Q140 596 158.5 579 Q177 562 207 562 Q241 562 262.5 578.5 Q284 595 289 625 Q294 654 276 671 Q258 688 229 688 Z M233 710 Q276 710 299.5 686.5 Q323 663 316 625 Q309 587 277.5 564 Q246 541 202 541 Q160 541 136 564 Q112 587 119 625 Q126 663 158 686.5 Q190 710 233 710 Z " />
<glyph glyph-name="tilde" unicode="&#x2dc;" horiz-adv-x="390" d="M212 676 Q234 676 249 666 Q264 656 276 644.5 Q288 633 299.5 623 Q311 613 326 613 Q348 613 363 624 Q378 635 386 661 L405 657 Q394 622 370.5 604.5 Q347 587 321 587 Q300 587 286.5 597 Q273 607 261.5 619 Q250 631 237.5 641 Q225 651 207 651 Q162 651 145 602 L127 607 Q139 642 161.5 659 Q184 676 212 676 Z " />
<glyph glyph-name="ogonek" unicode="&#x2db;" horiz-adv-x="229" d="M109 0 Q76 -23 51.5 -55.5 Q27 -88 21 -122 Q16 -153 32.5 -169.5 Q49 -186 78 -186 Q85 -186 92 -185 Q99 -184 106 -182 L102 -209 Q84 -212 68 -212 Q48 -212 31.5 -207 Q15 -202 4 -191.5 Q-7 -181 -12 -165 Q-17 -149 -13 -128 Q-6 -91 20.5 -58 Q47 -25 86 0 L109 0 Z " />
<glyph glyph-name="cedilla" unicode="&#xb8;" horiz-adv-x="319" d="M119 0 L73 -66 Q83 -64 93.5 -63 Q104 -62 114 -62 Q165 -62 186.5 -83.5 Q208 -105 203 -137 Q197 -171 163 -196 Q129 -221 73 -221 Q43 -221 16.5 -212 Q-10 -203 -24 -187 L-8 -170 Q1 -184 25.5 -190.5 Q50 -197 77 -197 Q122 -197 143.5 -180 Q165 -163 169 -141 Q173 -118 157.5 -99.5 Q142 -81 93 -81 Q80 -81 64 -82.5 Q48 -84 31 -88 L87 0 L119 0 Z " />
<glyph glyph-name="&amp;#x394;" unicode="&#x394;" horiz-adv-x="594" d="M410 700 L545 0 L-31 0 L352 700 L410 700 Z M375 670 Q362 637 343 602 L30 34 L492 34 L383 602 Q381 618 379 635 Q377 652 375 670 Z " />
<glyph glyph-name="&amp;#x2206;" unicode="&#x2206;" horiz-adv-x="594" d="M410 700 L545 0 L-31 0 L352 700 L410 700 Z M375 670 Q362 637 343 602 L30 34 L492 34 L383 602 Q381 618 379 635 Q377 652 375 670 Z " />
<glyph glyph-name="&amp;#x3a9;" unicode="&#x3a9;" horiz-adv-x="740" d="M455 710 Q530 710 583.5 682 Q637 654 668 605.5 Q699 557 708 492 Q717 427 704 354 Q695 301 675 252 Q655 203 626 161 Q597 119 559.5 86 Q522 53 476 34 L694 34 L688 0 L403 0 L409 36 Q459 49 500 77 Q541 105 572.5 146 Q604 187 625 239.5 Q646 292 657 352 Q669 421 662.5 480 Q656 539 630 582 Q604 625 558.5 649 Q513 673 448 673 Q383 673 329 649 Q275 625 234 582 Q193 539 165.5 480 Q138 421 126 352 Q115 292 118 239.5 Q121 187 138 146 Q155 105 186 77 Q217 49 262 36 L257 0 L-29 0 L-23 34 L194 34 Q155 53 129 86 Q103 119 89 161 Q75 203 72.5 252 Q70 301 79 354 Q92 427 124 492 Q156 557 204.5 605.5 Q253 654 316 682 Q379 710 455 710 Z " />
<glyph glyph-name="&amp;#x2126;" unicode="&#x2126;" horiz-adv-x="740" d="M455 710 Q530 710 583.5 682 Q637 654 668 605.5 Q699 557 708 492 Q717 427 704 354 Q695 301 675 252 Q655 203 626 161 Q597 119 559.5 86 Q522 53 476 34 L694 34 L688 0 L403 0 L409 36 Q459 49 500 77 Q541 105 572.5 146 Q604 187 625 239.5 Q646 292 657 352 Q669 421 662.5 480 Q656 539 630 582 Q604 625 558.5 649 Q513 673 448 673 Q383 673 329 649 Q275 625 234 582 Q193 539 165.5 480 Q138 421 126 352 Q115 292 118 239.5 Q121 187 138 146 Q155 105 186 77 Q217 49 262 36 L257 0 L-29 0 L-23 34 L194 34 Q155 53 129 86 Q103 119 89 161 Q75 203 72.5 252 Q70 301 79 354 Q92 427 124 492 Q156 557 204.5 605.5 Q253 654 316 682 Q379 710 455 710 Z " />
<glyph glyph-name="&amp;#xb5;" unicode="&#xb5;" horiz-adv-x="581" d="M179 500 L124 190 Q110 114 133 68.5 Q156 23 228 23 Q259 23 292 34 Q325 45 353.5 70 Q382 95 404 134.5 Q426 174 436 230 L485 500 L524 500 L457 122 Q449 77 459.5 54.5 Q470 32 506 32 Q509 32 515.5 32 Q522 32 527 33 L522 0 Q514 -2 505.5 -2 Q497 -2 492 -2 Q442 -2 424 26 Q406 54 418 125 Q405 97 385 72.5 Q365 48 339.5 29.5 Q314 11 282.5 0.5 Q251 -10 215 -10 Q161 -10 132 12 Q103 34 95 76 L56 -200 L16 -200 L140 500 L179 500 Z " />
<glyph glyph-name="&amp;#x3bc;" unicode="&#x3bc;" horiz-adv-x="581" d="M179 500 L124 190 Q110 114 133 68.5 Q156 23 228 23 Q259 23 292 34 Q325 45 353.5 70 Q382 95 404 134.5 Q426 174 436 230 L485 500 L524 500 L457 122 Q449 77 459.5 54.5 Q470 32 506 32 Q509 32 515.5 32 Q522 32 527 33 L522 0 Q514 -2 505.5 -2 Q497 -2 492 -2 Q442 -2 424 26 Q406 54 418 125 Q405 97 385 72.5 Q365 48 339.5 29.5 Q314 11 282.5 0.5 Q251 -10 215 -10 Q161 -10 132 12 Q103 34 95 76 L56 -200 L16 -200 L140 500 L179 500 Z " />
<glyph glyph-name="pi" unicode="&#x3c0;" horiz-adv-x="544" d="M574 500 L569 469 L452 469 L391 121 Q383 76 393.5 54 Q404 32 439 32 Q443 32 449.5 32 Q456 32 461 33 L456 0 Q448 -2 439 -2 Q430 -2 424 -2 Q375 -2 357 24.5 Q339 51 350 111 L413 469 L216 469 L134 0 L95 0 L177 469 L60 469 L66 500 L574 500 Z " />
<glyph glyph-name="Aacute" unicode="&#xc1;" horiz-adv-x="604" d="M508 863 L359 726 L331 726 L470 870 L508 863 Z M380 678 Q369 652 355.5 627 Q342 602 331 582 L151 257 L461 257 L395 582 Q390 603 386.5 628 Q383 653 380 678 Z M416 700 L555 0 L508 0 L466 224 L134 224 L14 0 L-31 0 L355 700 L416 700 Z " />
<glyph glyph-name="Acircumflex" unicode="&#xc2;" horiz-adv-x="604" d="M489 726 L406 842 L280 726 L258 733 L393 870 L427 870 L514 733 L489 726 Z M380 678 Q369 652 355.5 627 Q342 602 331 582 L151 257 L461 257 L395 582 Q390 603 386.5 628 Q383 653 380 678 Z M416 700 L555 0 L508 0 L466 224 L134 224 L14 0 L-31 0 L355 700 L416 700 Z " />
<glyph glyph-name="Adieresis" unicode="&#xc4;" horiz-adv-x="604" d="M442 766 L449 801 L481 801 L475 766 L442 766 Z M307 766 L313 801 L346 801 L339 766 L307 766 Z M380 678 Q369 652 355.5 627 Q342 602 331 582 L151 257 L461 257 L395 582 Q390 603 386.5 628 Q383 653 380 678 Z M416 700 L555 0 L508 0 L466 224 L134 224 L14 0 L-31 0 L355 700 L416 700 Z " />
<glyph glyph-name="Agrave" unicode="&#xc0;" horiz-adv-x="604" d="M350 870 L439 726 L411 726 L310 863 L350 870 Z M380 678 Q369 652 355.5 627 Q342 602 331 582 L151 257 L461 257 L395 582 Q390 603 386.5 628 Q383 653 380 678 Z M416 700 L555 0 L508 0 L466 224 L134 224 L14 0 L-31 0 L355 700 L416 700 Z " />
<glyph glyph-name="Aring" unicode="&#xc5;" horiz-adv-x="604" d="M403 834 Q368 834 346 819.5 Q324 805 320 783 Q315 756 334.5 744 Q354 732 384 732 Q419 732 441 744 Q463 756 468 783 Q473 809 453 821.5 Q433 834 403 834 Z M406 853 Q449 853 474 834.5 Q499 816 494 783 Q487 748 456.5 731 Q426 714 382 714 Q340 714 314 731 Q288 748 295 783 Q300 816 331.5 834.5 Q363 853 406 853 Z M380 678 Q369 652 355.5 627 Q342 602 331 582 L151 257 L461 257 L395 582 Q390 603 386.5 628 Q383 653 380 678 Z M416 700 L555 0 L508 0 L466 224 L134 224 L14 0 L-31 0 L355 700 L416 700 Z " />
<glyph glyph-name="Atilde" unicode="&#xc3;" horiz-adv-x="604" d="M341 828 Q363 828 378 818.5 Q393 809 405 797 Q417 785 428.5 775.5 Q440 766 455 766 Q477 766 492.5 776.5 Q508 787 517 813 L535 809 Q523 774 500.5 757.5 Q478 741 452 741 Q431 741 417 751 Q403 761 391 772.5 Q379 784 366.5 794 Q354 804 336 804 Q314 804 299 793 Q284 782 275 756 L257 760 Q268 795 290.5 811.5 Q313 828 341 828 Z M380 678 Q369 652 355.5 627 Q342 602 331 582 L151 257 L461 257 L395 582 Q390 603 386.5 628 Q383 653 380 678 Z M416 700 L555 0 L508 0 L466 224 L134 224 L14 0 L-31 0 L355 700 L416 700 Z " />
<glyph glyph-name="Ccedilla" unicode="&#xc7;" horiz-adv-x="674" d="M637 184 Q618 141 587 105 Q556 69 516.5 43.5 Q477 18 429.5 4 Q382 -10 330 -10 L323 -10 L284 -66 Q294 -64 304.5 -63 Q315 -62 325 -62 Q376 -62 397.5 -83.5 Q419 -105 414 -137 Q408 -171 374 -196 Q340 -221 284 -221 Q254 -221 227.5 -212 Q201 -203 187 -187 L203 -170 Q212 -184 236.5 -190.5 Q261 -197 288 -197 Q333 -197 354.5 -180 Q376 -163 380 -141 Q384 -118 368.5 -99.5 Q353 -81 304 -81 Q291 -81 275 -82.5 Q259 -84 242 -88 L293 -8 Q227 -1 181 30 Q135 61 108 109.5 Q81 158 73.5 219.5 Q66 281 78 350 Q91 423 123.5 488.5 Q156 554 205 603 Q254 652 318 681 Q382 710 457 710 Q509 710 551.5 696 Q594 682 624.5 656.5 Q655 631 673 595 Q691 559 695 516 L651 516 Q644 586 591.5 629.5 Q539 673 451 673 Q386 673 331.5 648.5 Q277 624 235 581 Q193 538 165 478.5 Q137 419 125 350 Q113 281 120 221.5 Q127 162 153.5 119 Q180 76 226 51.5 Q272 27 337 27 Q381 27 420.5 38.5 Q460 50 493 70.5 Q526 91 551.5 120 Q577 149 592 184 L637 184 Z " />
<glyph glyph-name="Eacute" unicode="&#xc9;" horiz-adv-x="601" d="M554 863 L405 726 L377 726 L516 870 L554 863 Z M54 0 L177 700 L627 700 L620 666 L214 666 L164 380 L513 380 L507 347 L158 347 L103 34 L512 34 L507 0 L54 0 Z " />
<glyph glyph-name="Ecircumflex" unicode="&#xca;" horiz-adv-x="601" d="M514 726 L431 842 L305 726 L283 733 L418 870 L452 870 L539 733 L514 726 Z M54 0 L177 700 L627 700 L620 666 L214 666 L164 380 L513 380 L507 347 L158 347 L103 34 L512 34 L507 0 L54 0 Z " />
<glyph glyph-name="Edieresis" unicode="&#xcb;" horiz-adv-x="601" d="M470 766 L477 801 L509 801 L503 766 L470 766 Z M335 766 L341 801 L374 801 L367 766 L335 766 Z M54 0 L177 700 L627 700 L620 666 L214 666 L164 380 L513 380 L507 347 L158 347 L103 34 L512 34 L507 0 L54 0 Z " />
<glyph glyph-name="Egrave" unicode="&#xc8;" horiz-adv-x="601" d="M366 870 L455 726 L427 726 L326 863 L366 870 Z M54 0 L177 700 L627 700 L620 666 L214 666 L164 380 L513 380 L507 347 L158 347 L103 34 L512 34 L507 0 L54 0 Z " />
<glyph glyph-name="Iacute" unicode="&#xcd;" horiz-adv-x="232" d="M336 863 L187 726 L159 726 L298 870 L336 863 Z M54 0 L177 700 L220 700 L97 0 L54 0 Z " />
<glyph glyph-name="Icircumflex" unicode="&#xce;" horiz-adv-x="232" d="M309 726 L226 842 L100 726 L78 733 L213 870 L247 870 L334 733 L309 726 Z M54 0 L177 700 L220 700 L97 0 L54 0 Z " />
<glyph glyph-name="Idieresis" unicode="&#xcf;" horiz-adv-x="232" d="M262 766 L269 801 L301 801 L295 766 L262 766 Z M127 766 L133 801 L166 801 L159 766 L127 766 Z M54 0 L177 700 L220 700 L97 0 L54 0 Z " />
<glyph glyph-name="Igrave" unicode="&#xcc;" horiz-adv-x="232" d="M145 870 L234 726 L206 726 L105 863 L145 870 Z M54 0 L177 700 L220 700 L97 0 L54 0 Z " />
<glyph glyph-name="Ntilde" unicode="&#xd1;" horiz-adv-x="672" d="M378 828 Q400 828 415 818.5 Q430 809 442 797 Q454 785 465.5 775.5 Q477 766 492 766 Q514 766 529.5 776.5 Q545 787 554 813 L572 809 Q560 774 537.5 757.5 Q515 741 489 741 Q468 741 454 751 Q440 761 428 772.5 Q416 784 403.5 794 Q391 804 373 804 Q351 804 336 793 Q321 782 312 756 L294 760 Q305 795 327.5 811.5 Q350 828 378 828 Z M240 700 L487 110 Q492 96 497 80.5 Q502 65 507 49 Q508 66 510.5 84.5 Q513 103 516 120 L619 700 L661 700 L538 0 L485 0 L233 605 Q228 619 222.5 635.5 Q217 652 213 666 L203 600 L97 0 L54 0 L177 700 L240 700 Z " />
<glyph glyph-name="Oacute" unicode="&#xd3;" horiz-adv-x="740" d="M570 863 L421 726 L393 726 L532 870 L570 863 Z M455 710 Q531 710 584 681 Q637 652 668 603 Q699 554 707.5 488.5 Q716 423 703 350 Q690 277 658.5 211.5 Q627 146 578.5 97 Q530 48 467 19 Q404 -10 328 -10 Q252 -10 199 19 Q146 48 114.5 97 Q83 146 74 211.5 Q65 277 78 350 Q91 423 123 488.5 Q155 554 203.5 603 Q252 652 315.5 681 Q379 710 455 710 Z M448 673 Q383 673 329 648.5 Q275 624 234 581 Q193 538 165 478.5 Q137 419 125 350 Q113 281 120 221.5 Q127 162 153 119 Q179 76 224 51.5 Q269 27 334 27 Q399 27 453 51.5 Q507 76 548.5 119 Q590 162 617.5 221.5 Q645 281 657 350 Q669 419 662.5 478.5 Q656 538 630 581 Q604 624 558.5 648.5 Q513 673 448 673 Z " />
<glyph glyph-name="Ocircumflex" unicode="&#xd4;" horiz-adv-x="740" d="M561 726 L478 842 L352 726 L330 733 L465 870 L499 870 L586 733 L561 726 Z M455 710 Q531 710 584 681 Q637 652 668 603 Q699 554 707.5 488.5 Q716 423 703 350 Q690 277 658.5 211.5 Q627 146 578.5 97 Q530 48 467 19 Q404 -10 328 -10 Q252 -10 199 19 Q146 48 114.5 97 Q83 146 74 211.5 Q65 277 78 350 Q91 423 123 488.5 Q155 554 203.5 603 Q252 652 315.5 681 Q379 710 455 710 Z M448 673 Q383 673 329 648.5 Q275 624 234 581 Q193 538 165 478.5 Q137 419 125 350 Q113 281 120 221.5 Q127 162 153 119 Q179 76 224 51.5 Q269 27 334 27 Q399 27 453 51.5 Q507 76 548.5 119 Q590 162 617.5 221.5 Q645 281 657 350 Q669 419 662.5 478.5 Q656 538 630 581 Q604 624 558.5 648.5 Q513 673 448 673 Z " />
<glyph glyph-name="Odieresis" unicode="&#xd6;" horiz-adv-x="740" d="M515 766 L522 801 L554 801 L548 766 L515 766 Z M380 766 L386 801 L419 801 L412 766 L380 766 Z M455 710 Q531 710 584 681 Q637 652 668 603 Q699 554 707.5 488.5 Q716 423 703 350 Q690 277 658.5 211.5 Q627 146 578.5 97 Q530 48 467 19 Q404 -10 328 -10 Q252 -10 199 19 Q146 48 114.5 97 Q83 146 74 211.5 Q65 277 78 350 Q91 423 123 488.5 Q155 554 203.5 603 Q252 652 315.5 681 Q379 710 455 710 Z M448 673 Q383 673 329 648.5 Q275 624 234 581 Q193 538 165 478.5 Q137 419 125 350 Q113 281 120 221.5 Q127 162 153 119 Q179 76 224 51.5 Q269 27 334 27 Q399 27 453 51.5 Q507 76 548.5 119 Q590 162 617.5 221.5 Q645 281 657 350 Q669 419 662.5 478.5 Q656 538 630 581 Q604 624 558.5 648.5 Q513 673 448 673 Z " />
<glyph glyph-name="Ograve" unicode="&#xd2;" horiz-adv-x="740" d="M425 870 L514 726 L486 726 L385 863 L425 870 Z M455 710 Q531 710 584 681 Q637 652 668 603 Q699 554 707.5 488.5 Q716 423 703 350 Q690 277 658.5 211.5 Q627 146 578.5 97 Q530 48 467 19 Q404 -10 328 -10 Q252 -10 199 19 Q146 48 114.5 97 Q83 146 74 211.5 Q65 277 78 350 Q91 423 123 488.5 Q155 554 203.5 603 Q252 652 315.5 681 Q379 710 455 710 Z M448 673 Q383 673 329 648.5 Q275 624 234 581 Q193 538 165 478.5 Q137 419 125 350 Q113 281 120 221.5 Q127 162 153 119 Q179 76 224 51.5 Q269 27 334 27 Q399 27 453 51.5 Q507 76 548.5 119 Q590 162 617.5 221.5 Q645 281 657 350 Q669 419 662.5 478.5 Q656 538 630 581 Q604 624 558.5 648.5 Q513 673 448 673 Z " />
<glyph glyph-name="Otilde" unicode="&#xd5;" horiz-adv-x="740" d="M412 828 Q434 828 449 818.5 Q464 809 476 797 Q488 785 499.5 775.5 Q511 766 526 766 Q548 766 563.5 776.5 Q579 787 588 813 L606 809 Q594 774 571.5 757.5 Q549 741 523 741 Q502 741 488 751 Q474 761 462 772.5 Q450 784 437.5 794 Q425 804 407 804 Q385 804 370 793 Q355 782 346 756 L328 760 Q339 795 361.5 811.5 Q384 828 412 828 Z M455 710 Q531 710 584 681 Q637 652 668 603 Q699 554 707.5 488.5 Q716 423 703 350 Q690 277 658.5 211.5 Q627 146 578.5 97 Q530 48 467 19 Q404 -10 328 -10 Q252 -10 199 19 Q146 48 114.5 97 Q83 146 74 211.5 Q65 277 78 350 Q91 423 123 488.5 Q155 554 203.5 603 Q252 652 315.5 681 Q379 710 455 710 Z M448 673 Q383 673 329 648.5 Q275 624 234 581 Q193 538 165 478.5 Q137 419 125 350 Q113 281 120 221.5 Q127 162 153 119 Q179 76 224 51.5 Q269 27 334 27 Q399 27 453 51.5 Q507 76 548.5 119 Q590 162 617.5 221.5 Q645 281 657 350 Q669 419 662.5 478.5 Q656 538 630 581 Q604 624 558.5 648.5 Q513 673 448 673 Z " />
<glyph glyph-name="Uacute" unicode="&#xda;" horiz-adv-x="672" d="M541 863 L392 726 L364 726 L503 870 L541 863 Z M619 700 L662 700 L569 171 Q561 127 537 93.5 Q513 60 476 37 Q439 14 392.5 2 Q346 -10 294 -10 Q242 -10 199.5 2 Q157 14 129 37 Q101 60 88.5 93.5 Q76 127 84 171 L177 700 L221 700 L129 180 Q116 105 163 65.5 Q210 26 301 26 Q392 26 453 65.5 Q514 105 528 180 L619 700 Z " />
<glyph glyph-name="Ucircumflex" unicode="&#xdb;" horiz-adv-x="672" d="M528 726 L445 842 L319 726 L297 733 L432 870 L466 870 L553 733 L528 726 Z M619 700 L662 700 L569 171 Q561 127 537 93.5 Q513 60 476 37 Q439 14 392.5 2 Q346 -10 294 -10 Q242 -10 199.5 2 Q157 14 129 37 Q101 60 88.5 93.5 Q76 127 84 171 L177 700 L221 700 L129 180 Q116 105 163 65.5 Q210 26 301 26 Q392 26 453 65.5 Q514 105 528 180 L619 700 Z " />
<glyph glyph-name="Udieresis" unicode="&#xdc;" horiz-adv-x="672" d="M481 766 L488 801 L520 801 L514 766 L481 766 Z M346 766 L352 801 L385 801 L378 766 L346 766 Z M619 700 L662 700 L569 171 Q561 127 537 93.5 Q513 60 476 37 Q439 14 392.5 2 Q346 -10 294 -10 Q242 -10 199.5 2 Q157 14 129 37 Q101 60 88.5 93.5 Q76 127 84 171 L177 700 L221 700 L129 180 Q116 105 163 65.5 Q210 26 301 26 Q392 26 453 65.5 Q514 105 528 180 L619 700 Z " />
<glyph glyph-name="Ugrave" unicode="&#xd9;" horiz-adv-x="672" d="M400 870 L489 726 L461 726 L360 863 L400 870 Z M619 700 L662 700 L569 171 Q561 127 537 93.5 Q513 60 476 37 Q439 14 392.5 2 Q346 -10 294 -10 Q242 -10 199.5 2 Q157 14 129 37 Q101 60 88.5 93.5 Q76 127 84 171 L177 700 L221 700 L129 180 Q116 105 163 65.5 Q210 26 301 26 Q392 26 453 65.5 Q514 105 528 180 L619 700 Z " />
<glyph glyph-name="Ydieresis" unicode="&#x178;" horiz-adv-x="585" d="M438 766 L445 801 L477 801 L471 766 L438 766 Z M303 766 L309 801 L342 801 L335 766 L303 766 Z M230 0 L288 331 L88 700 L140 700 L317 367 L616 700 L664 700 L331 331 L273 0 L230 0 Z " />
<glyph glyph-name="aacute" unicode="&#xe1;" horiz-adv-x="576" d="M479 707 L328 555 L299 555 L438 714 L479 707 Z M314 479 Q272 479 236 462 Q200 445 172.5 415 Q145 385 126 343 Q107 301 98 250 Q89 199 93 157 Q97 115 114 85 Q131 55 161 38 Q191 21 233 21 Q278 21 314.5 39.5 Q351 58 378 88.5 Q405 119 422.5 159 Q440 199 448 243 Q459 304 453.5 348.5 Q448 393 429.5 422 Q411 451 381 465 Q351 479 314 479 Z M313 510 Q352 510 380.5 497.5 Q409 485 428 464.5 Q447 444 457 417 Q467 390 469 361 L493 500 L532 500 L445 0 L406 0 L429 135 Q417 107 396.5 81 Q376 55 349 34.5 Q322 14 289.5 2 Q257 -10 222 -10 Q172 -10 136 9 Q100 28 79 62.5 Q58 97 52 145 Q46 193 56 250 Q66 308 89 355.5 Q112 403 145 437.5 Q178 472 220.5 491 Q263 510 313 510 Z " />
<glyph glyph-name="acircumflex" unicode="&#xe2;" horiz-adv-x="576" d="M387 712 L471 561 L444 554 L364 682 L238 554 L214 561 L351 712 L387 712 Z M314 479 Q272 479 236 462 Q200 445 172.5 415 Q145 385 126 343 Q107 301 98 250 Q89 199 93 157 Q97 115 114 85 Q131 55 161 38 Q191 21 233 21 Q278 21 314.5 39.5 Q351 58 378 88.5 Q405 119 422.5 159 Q440 199 448 243 Q459 304 453.5 348.5 Q448 393 429.5 422 Q411 451 381 465 Q351 479 314 479 Z M313 510 Q352 510 380.5 497.5 Q409 485 428 464.5 Q447 444 457 417 Q467 390 469 361 L493 500 L532 500 L445 0 L406 0 L429 135 Q417 107 396.5 81 Q376 55 349 34.5 Q322 14 289.5 2 Q257 -10 222 -10 Q172 -10 136 9 Q100 28 79 62.5 Q58 97 52 145 Q46 193 56 250 Q66 308 89 355.5 Q112 403 145 437.5 Q178 472 220.5 491 Q263 510 313 510 Z " />
<glyph glyph-name="adieresis" unicode="&#xe4;" horiz-adv-x="576" d="M401 613 L409 652 L441 652 L434 613 L401 613 Z M268 613 L276 652 L308 652 L301 613 L268 613 Z M314 479 Q272 479 236 462 Q200 445 172.5 415 Q145 385 126 343 Q107 301 98 250 Q89 199 93 157 Q97 115 114 85 Q131 55 161 38 Q191 21 233 21 Q278 21 314.5 39.5 Q351 58 378 88.5 Q405 119 422.5 159 Q440 199 448 243 Q459 304 453.5 348.5 Q448 393 429.5 422 Q411 451 381 465 Q351 479 314 479 Z M313 510 Q352 510 380.5 497.5 Q409 485 428 464.5 Q447 444 457 417 Q467 390 469 361 L493 500 L532 500 L445 0 L406 0 L429 135 Q417 107 396.5 81 Q376 55 349 34.5 Q322 14 289.5 2 Q257 -10 222 -10 Q172 -10 136 9 Q100 28 79 62.5 Q58 97 52 145 Q46 193 56 250 Q66 308 89 355.5 Q112 403 145 437.5 Q178 472 220.5 491 Q263 510 313 510 Z " />
<glyph glyph-name="agrave" unicode="&#xe0;" horiz-adv-x="576" d="M314 714 L398 555 L369 555 L272 707 L314 714 Z M314 479 Q272 479 236 462 Q200 445 172.5 415 Q145 385 126 343 Q107 301 98 250 Q89 199 93 157 Q97 115 114 85 Q131 55 161 38 Q191 21 233 21 Q278 21 314.5 39.5 Q351 58 378 88.5 Q405 119 422.5 159 Q440 199 448 243 Q459 304 453.5 348.5 Q448 393 429.5 422 Q411 451 381 465 Q351 479 314 479 Z M313 510 Q352 510 380.5 497.5 Q409 485 428 464.5 Q447 444 457 417 Q467 390 469 361 L493 500 L532 500 L445 0 L406 0 L429 135 Q417 107 396.5 81 Q376 55 349 34.5 Q322 14 289.5 2 Q257 -10 222 -10 Q172 -10 136 9 Q100 28 79 62.5 Q58 97 52 145 Q46 193 56 250 Q66 308 89 355.5 Q112 403 145 437.5 Q178 472 220.5 491 Q263 510 313 510 Z " />
<glyph glyph-name="aring" unicode="&#xe5;" horiz-adv-x="576" d="M374 688 Q339 688 317 669 Q295 650 291 625 Q285 596 303.5 579 Q322 562 352 562 Q386 562 407.5 578.5 Q429 595 434 625 Q439 654 421 671 Q403 688 374 688 Z M378 710 Q421 710 444.5 686.5 Q468 663 461 625 Q454 587 422.5 564 Q391 541 347 541 Q305 541 281 564 Q257 587 264 625 Q271 663 303 686.5 Q335 710 378 710 Z M314 479 Q272 479 236 462 Q200 445 172.5 415 Q145 385 126 343 Q107 301 98 250 Q89 199 93 157 Q97 115 114 85 Q131 55 161 38 Q191 21 233 21 Q278 21 314.5 39.5 Q351 58 378 88.5 Q405 119 422.5 159 Q440 199 448 243 Q459 304 453.5 348.5 Q448 393 429.5 422 Q411 451 381 465 Q351 479 314 479 Z M313 510 Q352 510 380.5 497.5 Q409 485 428 464.5 Q447 444 457 417 Q467 390 469 361 L493 500 L532 500 L445 0 L406 0 L429 135 Q417 107 396.5 81 Q376 55 349 34.5 Q322 14 289.5 2 Q257 -10 222 -10 Q172 -10 136 9 Q100 28 79 62.5 Q58 97 52 145 Q46 193 56 250 Q66 308 89 355.5 Q112 403 145 437.5 Q178 472 220.5 491 Q263 510 313 510 Z " />
<glyph glyph-name="atilde" unicode="&#xe3;" horiz-adv-x="576" d="M305 676 Q327 676 342 666 Q357 656 369 644.5 Q381 633 392.5 623 Q404 613 419 613 Q441 613 456 624 Q471 635 479 661 L498 657 Q487 622 463.5 604.5 Q440 587 414 587 Q393 587 379.5 597 Q366 607 354.5 619 Q343 631 330.5 641 Q318 651 300 651 Q255 651 238 602 L220 607 Q232 642 254.5 659 Q277 676 305 676 Z M314 479 Q272 479 236 462 Q200 445 172.5 415 Q145 385 126 343 Q107 301 98 250 Q89 199 93 157 Q97 115 114 85 Q131 55 161 38 Q191 21 233 21 Q278 21 314.5 39.5 Q351 58 378 88.5 Q405 119 422.5 159 Q440 199 448 243 Q459 304 453.5 348.5 Q448 393 429.5 422 Q411 451 381 465 Q351 479 314 479 Z M313 510 Q352 510 380.5 497.5 Q409 485 428 464.5 Q447 444 457 417 Q467 390 469 361 L493 500 L532 500 L445 0 L406 0 L429 135 Q417 107 396.5 81 Q376 55 349 34.5 Q322 14 289.5 2 Q257 -10 222 -10 Q172 -10 136 9 Q100 28 79 62.5 Q58 97 52 145 Q46 193 56 250 Q66 308 89 355.5 Q112 403 145 437.5 Q178 472 220.5 491 Q263 510 313 510 Z " />
<glyph glyph-name="ccedilla" unicode="&#xe7;" horiz-adv-x="507" d="M327 510 Q364 510 396 500 Q428 490 451.5 470 Q475 450 488 421 Q501 392 500 354 L459 354 Q461 413 422.5 446 Q384 479 321 479 Q279 479 241.5 462 Q204 445 175 414.5 Q146 384 125.5 342 Q105 300 96 250 Q87 200 92.5 158 Q98 116 116.5 85.5 Q135 55 166.5 38 Q198 21 240 21 Q304 21 354 54 Q404 87 423 146 L464 146 Q452 108 428.5 79 Q405 50 374.5 30 Q344 10 308.5 0 Q273 -10 236 -10 L235 -10 L196 -66 Q206 -64 216.5 -63 Q227 -62 237 -62 Q288 -62 309.5 -83.5 Q331 -105 326 -137 Q320 -171 286 -196 Q252 -221 196 -221 Q166 -221 139.5 -212 Q113 -203 99 -187 L115 -170 Q124 -184 148.5 -190.5 Q173 -197 200 -197 Q245 -197 266.5 -180 Q288 -163 292 -141 Q296 -118 280.5 -99.5 Q265 -81 216 -81 Q203 -81 187 -82.5 Q171 -84 154 -88 L205 -8 Q161 -2 128.5 19 Q96 40 77 73.5 Q58 107 52.5 152 Q47 197 56 250 Q66 307 90 355 Q114 403 149.5 437.5 Q185 472 230 491 Q275 510 327 510 Z " />
<glyph glyph-name="eacute" unicode="&#xe9;" horiz-adv-x="539" d="M469 707 L318 555 L289 555 L428 714 L469 707 Z M333 481 Q252 481 191 428.5 Q130 376 104 288 L289 288 Q377 288 419 315.5 Q461 343 461 388 Q461 405 454 422 Q447 439 431.5 452 Q416 465 391.5 473 Q367 481 333 481 Z M338 510 Q382 510 413 500 Q444 490 464 473 Q484 456 493 434.5 Q502 413 502 391 Q502 334 449.5 297 Q397 260 288 260 L98 260 Q96 254 96 250 Q87 199 92 156.5 Q97 114 115.5 83.5 Q134 53 165 36.5 Q196 20 239 20 Q269 20 298 28 Q327 36 351 51 Q375 66 393.5 89 Q412 112 422 142 L462 142 Q449 104 425.5 75.5 Q402 47 371.5 28 Q341 9 306 -0.5 Q271 -10 234 -10 Q183 -10 144.5 9 Q106 28 83 62.5 Q60 97 52.5 145 Q45 193 56 250 Q66 308 92 355.5 Q118 403 155.5 437.5 Q193 472 239.5 491 Q286 510 338 510 Z " />
<glyph glyph-name="ecircumflex" unicode="&#xea;" horiz-adv-x="539" d="M382 712 L466 561 L439 554 L359 682 L233 554 L209 561 L346 712 L382 712 Z M333 481 Q252 481 191 428.5 Q130 376 104 288 L289 288 Q377 288 419 315.5 Q461 343 461 388 Q461 405 454 422 Q447 439 431.5 452 Q416 465 391.5 473 Q367 481 333 481 Z M338 510 Q382 510 413 500 Q444 490 464 473 Q484 456 493 434.5 Q502 413 502 391 Q502 334 449.5 297 Q397 260 288 260 L98 260 Q96 254 96 250 Q87 199 92 156.5 Q97 114 115.5 83.5 Q134 53 165 36.5 Q196 20 239 20 Q269 20 298 28 Q327 36 351 51 Q375 66 393.5 89 Q412 112 422 142 L462 142 Q449 104 425.5 75.5 Q402 47 371.5 28 Q341 9 306 -0.5 Q271 -10 234 -10 Q183 -10 144.5 9 Q106 28 83 62.5 Q60 97 52.5 145 Q45 193 56 250 Q66 308 92 355.5 Q118 403 155.5 437.5 Q193 472 239.5 491 Q286 510 338 510 Z " />
<glyph glyph-name="edieresis" unicode="&#xeb;" horiz-adv-x="539" d="M395 613 L403 652 L435 652 L428 613 L395 613 Z M262 613 L270 652 L302 652 L295 613 L262 613 Z M333 481 Q252 481 191 428.5 Q130 376 104 288 L289 288 Q377 288 419 315.5 Q461 343 461 388 Q461 405 454 422 Q447 439 431.5 452 Q416 465 391.5 473 Q367 481 333 481 Z M338 510 Q382 510 413 500 Q444 490 464 473 Q484 456 493 434.5 Q502 413 502 391 Q502 334 449.5 297 Q397 260 288 260 L98 260 Q96 254 96 250 Q87 199 92 156.5 Q97 114 115.5 83.5 Q134 53 165 36.5 Q196 20 239 20 Q269 20 298 28 Q327 36 351 51 Q375 66 393.5 89 Q412 112 422 142 L462 142 Q449 104 425.5 75.5 Q402 47 371.5 28 Q341 9 306 -0.5 Q271 -10 234 -10 Q183 -10 144.5 9 Q106 28 83 62.5 Q60 97 52.5 145 Q45 193 56 250 Q66 308 92 355.5 Q118 403 155.5 437.5 Q193 472 239.5 491 Q286 510 338 510 Z " />
<glyph glyph-name="egrave" unicode="&#xe8;" horiz-adv-x="539" d="M307 714 L391 555 L362 555 L265 707 L307 714 Z M333 481 Q252 481 191 428.5 Q130 376 104 288 L289 288 Q377 288 419 315.5 Q461 343 461 388 Q461 405 454 422 Q447 439 431.5 452 Q416 465 391.5 473 Q367 481 333 481 Z M338 510 Q382 510 413 500 Q444 490 464 473 Q484 456 493 434.5 Q502 413 502 391 Q502 334 449.5 297 Q397 260 288 260 L98 260 Q96 254 96 250 Q87 199 92 156.5 Q97 114 115.5 83.5 Q134 53 165 36.5 Q196 20 239 20 Q269 20 298 28 Q327 36 351 51 Q375 66 393.5 89 Q412 112 422 142 L462 142 Q449 104 425.5 75.5 Q402 47 371.5 28 Q341 9 306 -0.5 Q271 -10 234 -10 Q183 -10 144.5 9 Q106 28 83 62.5 Q60 97 52.5 145 Q45 193 56 250 Q66 308 92 355.5 Q118 403 155.5 437.5 Q193 472 239.5 491 Q286 510 338 510 Z " />
<glyph glyph-name="iacute" unicode="&#xed;" horiz-adv-x="225" d="M52 0 L140 500 L179 500 L91 0 L52 0 Z M309 707 L158 555 L129 555 L268 714 L309 707 Z " />
<glyph glyph-name="icircumflex" unicode="&#xee;" horiz-adv-x="225" d="M216 712 L300 561 L273 554 L193 682 L67 554 L43 561 L180 712 L216 712 Z M52 0 L140 500 L179 500 L91 0 L52 0 Z " />
<glyph glyph-name="idieresis" unicode="&#xef;" horiz-adv-x="225" d="M52 0 L140 500 L179 500 L91 0 L52 0 Z M230 613 L238 652 L270 652 L263 613 L230 613 Z M97 613 L105 652 L137 652 L130 613 L97 613 Z " />
<glyph glyph-name="igrave" unicode="&#xec;" horiz-adv-x="225" d="M52 0 L140 500 L179 500 L91 0 L52 0 Z M125 714 L209 555 L180 555 L83 707 L125 714 Z " />
<glyph glyph-name="dotlessi" unicode="&#x131;" horiz-adv-x="225" d="M52 0 L140 500 L179 500 L91 0 L52 0 Z " />
<glyph glyph-name="ntilde" unicode="&#xf1;" horiz-adv-x="569" d="M302 676 Q324 676 339 666 Q354 656 366 644.5 Q378 633 389.5 623 Q401 613 416 613 Q438 613 453 624 Q468 635 476 661 L495 657 Q484 622 460.5 604.5 Q437 587 411 587 Q390 587 376.5 597 Q363 607 351.5 619 Q340 631 327.5 641 Q315 651 297 651 Q252 651 235 602 L217 607 Q229 642 251.5 659 Q274 676 302 676 Z M179 500 L157 377 Q171 405 191 429.5 Q211 454 237 472 Q263 490 294.5 500 Q326 510 362 510 Q447 510 478 458 Q509 406 492 315 L437 0 L398 0 L452 310 Q466 386 443 431.5 Q420 477 348 477 Q316 477 283.5 465.5 Q251 454 222 429.5 Q193 405 170.5 365.5 Q148 326 138 270 L91 0 L52 0 L140 500 L179 500 Z " />
<glyph glyph-name="oacute" unicode="&#xf3;" horiz-adv-x="552" d="M442 707 L291 555 L262 555 L401 714 L442 707 Z M325 510 Q376 510 414 491 Q452 472 475 437.5 Q498 403 505.5 355.5 Q513 308 503 250 Q492 191 468 143 Q444 95 409 61 Q374 27 329.5 8.5 Q285 -10 234 -10 Q183 -10 145 8.5 Q107 27 83.5 61 Q60 95 52.5 143 Q45 191 56 250 Q66 308 90 355.5 Q114 403 149.5 437.5 Q185 472 229.5 491 Q274 510 325 510 Z M320 479 Q278 479 241.5 462.5 Q205 446 175.5 415.5 Q146 385 126 343 Q106 301 97 250 Q88 198 93.5 156 Q99 114 117 84 Q135 54 166 37.5 Q197 21 239 21 Q281 21 317.5 37.5 Q354 54 383.5 84 Q413 114 433 156 Q453 198 462 250 Q471 301 465.5 343 Q460 385 442 415.5 Q424 446 393 462.5 Q362 479 320 479 Z " />
<glyph glyph-name="ocircumflex" unicode="&#xf4;" horiz-adv-x="552" d="M379 712 L463 561 L436 554 L356 682 L230 554 L206 561 L343 712 L379 712 Z M325 510 Q376 510 414 491 Q452 472 475 437.5 Q498 403 505.5 355.5 Q513 308 503 250 Q492 191 468 143 Q444 95 409 61 Q374 27 329.5 8.5 Q285 -10 234 -10 Q183 -10 145 8.5 Q107 27 83.5 61 Q60 95 52.5 143 Q45 191 56 250 Q66 308 90 355.5 Q114 403 149.5 437.5 Q185 472 229.5 491 Q274 510 325 510 Z M320 479 Q278 479 241.5 462.5 Q205 446 175.5 415.5 Q146 385 126 343 Q106 301 97 250 Q88 198 93.5 156 Q99 114 117 84 Q135 54 166 37.5 Q197 21 239 21 Q281 21 317.5 37.5 Q354 54 383.5 84 Q413 114 433 156 Q453 198 462 250 Q471 301 465.5 343 Q460 385 442 415.5 Q424 446 393 462.5 Q362 479 320 479 Z " />
<glyph glyph-name="odieresis" unicode="&#xf6;" horiz-adv-x="552" d="M393 613 L401 652 L433 652 L426 613 L393 613 Z M260 613 L268 652 L300 652 L293 613 L260 613 Z M325 510 Q376 510 414 491 Q452 472 475 437.5 Q498 403 505.5 355.5 Q513 308 503 250 Q492 191 468 143 Q444 95 409 61 Q374 27 329.5 8.5 Q285 -10 234 -10 Q183 -10 145 8.5 Q107 27 83.5 61 Q60 95 52.5 143 Q45 191 56 250 Q66 308 90 355.5 Q114 403 149.5 437.5 Q185 472 229.5 491 Q274 510 325 510 Z M320 479 Q278 479 241.5 462.5 Q205 446 175.5 415.5 Q146 385 126 343 Q106 301 97 250 Q88 198 93.5 156 Q99 114 117 84 Q135 54 166 37.5 Q197 21 239 21 Q281 21 317.5 37.5 Q354 54 383.5 84 Q413 114 433 156 Q453 198 462 250 Q471 301 465.5 343 Q460 385 442 415.5 Q424 446 393 462.5 Q362 479 320 479 Z " />
<glyph glyph-name="ograve" unicode="&#xf2;" horiz-adv-x="552" d="M320 714 L404 555 L375 555 L278 707 L320 714 Z M325 510 Q376 510 414 491 Q452 472 475 437.5 Q498 403 505.5 355.5 Q513 308 503 250 Q492 191 468 143 Q444 95 409 61 Q374 27 329.5 8.5 Q285 -10 234 -10 Q183 -10 145 8.5 Q107 27 83.5 61 Q60 95 52.5 143 Q45 191 56 250 Q66 308 90 355.5 Q114 403 149.5 437.5 Q185 472 229.5 491 Q274 510 325 510 Z M320 479 Q278 479 241.5 462.5 Q205 446 175.5 415.5 Q146 385 126 343 Q106 301 97 250 Q88 198 93.5 156 Q99 114 117 84 Q135 54 166 37.5 Q197 21 239 21 Q281 21 317.5 37.5 Q354 54 383.5 84 Q413 114 433 156 Q453 198 462 250 Q471 301 465.5 343 Q460 385 442 415.5 Q424 446 393 462.5 Q362 479 320 479 Z " />
<glyph glyph-name="otilde" unicode="&#xf5;" horiz-adv-x="552" d="M292 676 Q314 676 329 666 Q344 656 356 644.5 Q368 633 379.5 623 Q391 613 406 613 Q428 613 443 624 Q458 635 466 661 L485 657 Q474 622 450.5 604.5 Q427 587 401 587 Q380 587 366.5 597 Q353 607 341.5 619 Q330 631 317.5 641 Q305 651 287 651 Q242 651 225 602 L207 607 Q219 642 241.5 659 Q264 676 292 676 Z M325 510 Q376 510 414 491 Q452 472 475 437.5 Q498 403 505.5 355.5 Q513 308 503 250 Q492 191 468 143 Q444 95 409 61 Q374 27 329.5 8.5 Q285 -10 234 -10 Q183 -10 145 8.5 Q107 27 83.5 61 Q60 95 52.5 143 Q45 191 56 250 Q66 308 90 355.5 Q114 403 149.5 437.5 Q185 472 229.5 491 Q274 510 325 510 Z M320 479 Q278 479 241.5 462.5 Q205 446 175.5 415.5 Q146 385 126 343 Q106 301 97 250 Q88 198 93.5 156 Q99 114 117 84 Q135 54 166 37.5 Q197 21 239 21 Q281 21 317.5 37.5 Q354 54 383.5 84 Q413 114 433 156 Q453 198 462 250 Q471 301 465.5 343 Q460 385 442 415.5 Q424 446 393 462.5 Q362 479 320 479 Z " />
<glyph glyph-name="uacute" unicode="&#xfa;" horiz-adv-x="569" d="M477 707 L326 555 L297 555 L436 714 L477 707 Z M179 500 L124 190 Q110 114 133.5 68.5 Q157 23 228 23 Q259 23 292 34 Q325 45 354 70 Q383 95 405.5 134.5 Q428 174 438 230 L486 500 L525 500 L437 0 L398 0 L419 123 Q405 95 385 70.5 Q365 46 339 28 Q313 10 281.5 0 Q250 -10 214 -10 Q129 -10 98 42 Q67 94 84 185 L140 500 L179 500 Z " />
<glyph glyph-name="ucircumflex" unicode="&#xfb;" horiz-adv-x="569" d="M389 712 L473 561 L446 554 L366 682 L240 554 L216 561 L353 712 L389 712 Z M179 500 L124 190 Q110 114 133.5 68.5 Q157 23 228 23 Q259 23 292 34 Q325 45 354 70 Q383 95 405.5 134.5 Q428 174 438 230 L486 500 L525 500 L437 0 L398 0 L419 123 Q405 95 385 70.5 Q365 46 339 28 Q313 10 281.5 0 Q250 -10 214 -10 Q129 -10 98 42 Q67 94 84 185 L140 500 L179 500 Z " />
<glyph glyph-name="udieresis" unicode="&#xfc;" horiz-adv-x="569" d="M401 613 L409 652 L441 652 L434 613 L401 613 Z M268 613 L276 652 L308 652 L301 613 L268 613 Z M179 500 L124 190 Q110 114 133.5 68.5 Q157 23 228 23 Q259 23 292 34 Q325 45 354 70 Q383 95 405.5 134.5 Q428 174 438 230 L486 500 L525 500 L437 0 L398 0 L419 123 Q405 95 385 70.5 Q365 46 339 28 Q313 10 281.5 0 Q250 -10 214 -10 Q129 -10 98 42 Q67 94 84 185 L140 500 L179 500 Z " />
<glyph glyph-name="ugrave" unicode="&#xf9;" horiz-adv-x="569" d="M322 714 L406 555 L377 555 L280 707 L322 714 Z M179 500 L124 190 Q110 114 133.5 68.5 Q157 23 228 23 Q259 23 292 34 Q325 45 354 70 Q383 95 405.5 134.5 Q428 174 438 230 L486 500 L525 500 L437 0 L398 0 L419 123 Q405 95 385 70.5 Q365 46 339 28 Q313 10 281.5 0 Q250 -10 214 -10 Q129 -10 98 42 Q67 94 84 185 L140 500 L179 500 Z " />
<glyph glyph-name="ydieresis" unicode="&#xff;" horiz-adv-x="453" d="M344 613 L352 652 L384 652 L377 613 L344 613 Z M211 613 L219 652 L251 652 L244 613 L211 613 Z M98 500 L181 90 Q185 74 186.5 59.5 Q188 45 189 28 Q196 44 203.5 58.5 Q211 73 220 90 L453 500 L493 500 L164 -78 Q122 -153 75 -181 Q28 -209 -26 -210 L-19 -173 Q22 -172 54.5 -153.5 Q87 -135 117 -84 L161 -10 L56 500 L98 500 Z " />
<glyph glyph-name="C" unicode="C" horiz-adv-x="674" d="M637 184 Q618 141 587 105 Q556 69 516.5 43.5 Q477 18 429.5 4 Q382 -10 330 -10 Q255 -10 201 19 Q147 48 115.5 97 Q84 146 74.5 211.5 Q65 277 78 350 Q91 423 123.5 488.5 Q156 554 205 603 Q254 652 318 681 Q382 710 457 710 Q509 710 551.5 696 Q594 682 624.5 656.5 Q655 631 673 595 Q691 559 695 516 L651 516 Q644 586 591.5 629.5 Q539 673 451 673 Q386 673 331.5 648.5 Q277 624 235 581 Q193 538 165 478.5 Q137 419 125 350 Q113 281 120 221.5 Q127 162 153.5 119 Q180 76 226 51.5 Q272 27 337 27 Q381 27 420.5 38.5 Q460 50 493 70.5 Q526 91 551.5 120 Q577 149 592 184 L637 184 Z " />
<glyph glyph-name="nbspace" unicode="&#xa0;" horiz-adv-x="235" d="" />
<glyph glyph-name="A" unicode="A" horiz-adv-x="604" d="M380 678 Q369 652 355.5 627 Q342 602 331 582 L151 257 L461 257 L395 582 Q390 603 386.5 628 Q383 653 380 678 Z M416 700 L555 0 L508 0 L466 224 L134 224 L14 0 L-31 0 L355 700 L416 700 Z " />
<glyph glyph-name="B" unicode="B" horiz-adv-x="659" d="M346 34 Q391 34 425.5 47 Q460 60 484 81.5 Q508 103 522.5 131 Q537 159 542 189 Q547 219 541.5 248 Q536 277 519 299 Q502 321 472 334.5 Q442 348 399 348 L158 348 L103 34 L346 34 Z M54 0 L177 700 L457 700 Q508 700 541.5 685.5 Q575 671 594 648 Q613 625 618.5 595.5 Q624 566 619 535 Q613 506 600.5 478 Q588 450 567.5 427.5 Q547 405 518 389 Q489 373 451 367 Q490 363 518.5 347 Q547 331 563.5 307 Q580 283 585.5 252 Q591 221 585 188 Q579 151 560.5 117 Q542 83 512 57 Q482 31 441 15.5 Q400 0 349 0 L54 0 Z M394 379 Q437 379 468.5 392.5 Q500 406 522 427.5 Q544 449 556 475 Q568 501 572 527 Q576 553 573 578 Q570 603 555.5 622.5 Q541 642 513.5 654 Q486 666 443 666 L214 666 L164 379 L394 379 Z " />
<glyph glyph-name="Eng" unicode="&#x14a;" horiz-adv-x="672" d="M240 700 L487 110 Q492 96 497 80.5 Q502 65 507 49 Q508 66 510.5 84.5 Q513 103 516 120 L619 700 L661 700 L539 6 L538 0 L522 -84 Q516 -118 502.5 -142 Q489 -166 470 -182 Q451 -198 428 -205.5 Q405 -213 380 -213 L386 -179 Q424 -179 448.5 -159 Q473 -139 483 -83 L499 0 L485 0 L233 605 Q228 619 222.5 635.5 Q217 652 213 666 L203 600 L97 0 L54 0 L177 700 L240 700 Z " />
<glyph glyph-name="Eth" unicode="&#xd0;" horiz-adv-x="709" d="M315 34 Q378 34 430.5 58 Q483 82 523 124.5 Q563 167 589.5 226 Q616 285 628 355 Q640 426 633 483.5 Q626 541 600.5 581.5 Q575 622 531 644 Q487 666 426 666 L214 666 L163 379 L283 379 L277 345 L157 345 L103 34 L315 34 Z M54 0 L114 345 L49 345 L55 379 L120 379 L177 700 L437 700 Q506 700 556.5 675 Q607 650 638 605 Q669 560 678.5 496.5 Q688 433 674 355 Q660 278 629 213 Q598 148 552 100.5 Q506 53 446.5 26.5 Q387 0 316 0 L54 0 Z " />
<glyph glyph-name="IJ" unicode="&#x132;" horiz-adv-x="714" d="M660 700 L703 700 L608 165 Q594 87 536.5 38.5 Q479 -10 385 -10 Q305 -10 262.5 31.5 Q220 73 222 137 L267 137 Q265 91 297 58.5 Q329 26 392 26 Q432 26 462 37 Q492 48 513.5 67 Q535 86 547.5 111 Q560 136 565 165 L660 700 Z M54 0 L177 700 L220 700 L97 0 L54 0 Z " />
<glyph glyph-name="Thorn" unicode="&#xde;" horiz-adv-x="619" d="M133 205 L371 205 Q412 205 444 218 Q476 231 498.5 253.5 Q521 276 535.5 307 Q550 338 556 374 Q562 407 559 436.5 Q556 466 541.5 488 Q527 510 499.5 522.5 Q472 535 429 535 L191 535 L133 205 Z M54 0 L177 700 L220 700 L197 569 L442 569 Q493 569 526.5 553.5 Q560 538 579 512 Q598 486 603 450.5 Q608 415 601 375 Q594 333 577 296.5 Q560 260 531.5 232 Q503 204 463 188 Q423 172 370 172 L127 172 L97 0 L54 0 Z " />
<glyph glyph-name="longs" unicode="&#x17f;" horiz-adv-x="247" d="M314 710 Q329 710 345.5 709 Q362 708 379 704 L373 670 Q356 675 341 676.5 Q326 678 312 678 Q210 678 190 564 L56 -200 L17 -200 L150 564 Q163 637 205 673.5 Q247 710 314 710 Z " />
<glyph glyph-name="eng" unicode="&#x14b;" horiz-adv-x="573" d="M183 500 L161 377 Q174 405 194.5 429.5 Q215 454 241 472 Q267 490 298.5 500 Q330 510 366 510 Q451 510 481.5 458 Q512 406 496 315 L430 -57 Q424 -91 410.5 -115 Q397 -139 378.5 -154.5 Q360 -170 336.5 -177.5 Q313 -185 288 -185 L294 -150 Q311 -150 326.5 -145 Q342 -140 355 -129.5 Q368 -119 377 -101.5 Q386 -84 391 -57 L456 310 Q469 386 446 431.5 Q423 477 352 477 Q320 477 287 465.5 Q254 454 225 429.5 Q196 405 174 365.5 Q152 326 142 270 L95 0 L55 0 L143 500 L183 500 Z " />
<glyph glyph-name="eth" unicode="&#xf0;" horiz-adv-x="576" d="M317 449 Q264 449 225 430.5 Q186 412 159 382 Q132 352 116 313 Q100 274 93 234 Q86 191 90 153 Q94 115 112 86.5 Q130 58 162.5 41 Q195 24 246 24 Q294 24 334 46.5 Q374 69 406 109.5 Q438 150 460.5 206 Q483 262 497 330 Q485 351 467.5 372.5 Q450 394 427.5 411 Q405 428 377 438.5 Q349 449 317 449 Z M309 710 Q422 710 485 645 L562 706 L577 688 L501 627 Q536 580 547.5 511 Q559 442 544 352 Q529 268 501.5 200.5 Q474 133 436 86.5 Q398 40 348.5 15 Q299 -10 241 -10 Q181 -10 141 9.5 Q101 29 78.5 62.5 Q56 96 49.5 140.5 Q43 185 51 234 Q58 280 78 324.5 Q98 369 131 403.5 Q164 438 210 459 Q256 480 317 480 Q353 480 382 470 Q411 460 434 443.5 Q457 427 474.5 406.5 Q492 386 504 364 Q516 438 506.5 498 Q497 558 468 600 L376 526 L361 545 L453 618 Q425 647 385.5 663.5 Q346 680 295 680 L309 710 Z " />
<glyph glyph-name="ij" unicode="&#x133;" horiz-adv-x="446" d="M430 646 L422 603 L379 603 L387 646 L430 646 Z M402 500 L300 -83 Q294 -117 280.5 -141 Q267 -165 248 -180.5 Q229 -196 206 -203.5 Q183 -211 159 -211 L164 -177 Q202 -177 226.5 -157 Q251 -137 261 -82 L363 500 L402 500 Z M206 646 L199 603 L156 603 L164 646 L206 646 Z M179 500 L91 0 L52 0 L140 500 L179 500 Z " />
<glyph glyph-name="thorn" unicode="&#xfe;" horiz-adv-x="578" d="M351 479 Q313 479 278.5 465 Q244 451 215.5 422 Q187 393 166 348.5 Q145 304 134 243 Q126 199 129.5 159 Q133 119 149.5 88.5 Q166 58 196 39.5 Q226 21 271 21 Q313 21 349 38 Q385 55 412.5 85 Q440 115 459 157 Q478 199 487 250 Q496 301 492 343 Q488 385 470.5 415 Q453 445 423 462 Q393 479 351 479 Z M363 510 Q413 510 449 491 Q485 472 506 437.5 Q527 403 533 355.5 Q539 308 529 250 Q519 193 496 145 Q473 97 440 62.5 Q407 28 364.5 9 Q322 -10 272 -10 Q237 -10 208.5 1.5 Q180 13 159.5 33 Q139 53 127.5 79.5 Q116 106 115 136 L56 -201 L16 -201 L175 700 L215 700 L155 361 Q167 390 186.5 417 Q206 444 232.5 464.5 Q259 485 291.5 497.5 Q324 510 363 510 Z " />
<glyph glyph-name="onequarter" unicode="&#xbc;" horiz-adv-x="707" d="M370 131 L511 131 L544 323 L370 131 Z M581 356 L542 131 L598 131 L593 105 L537 105 L519 0 L488 0 L506 105 L333 105 L338 131 L544 356 L581 356 Z M59 345 L64 372 L156 372 L210 676 L86 601 L76 623 L217 707 L250 707 L190 372 L269 372 L264 345 L59 345 Z M12 0 L655 700 L696 700 L53 0 L12 0 Z " />
<glyph glyph-name="onehalf" unicode="&#xbd;" horiz-adv-x="707" d="M525 363 Q556 363 577 354 Q598 345 610 330.5 Q622 316 625.5 297 Q629 278 625 257 Q620 231 608 208 Q596 185 569 158.5 Q542 132 496 100.5 Q450 69 378 27 L589 27 L585 0 L326 0 L330 26 Q408 72 457 105 Q506 138 533.5 164 Q561 190 572.5 211 Q584 232 588 254 Q591 270 589 284.5 Q587 299 578.5 310.5 Q570 322 555 329 Q540 336 517 336 Q472 336 445.5 314 Q419 292 408 258 L377 258 Q389 303 428 333 Q467 363 525 363 Z M53 345 L58 372 L150 372 L204 676 L80 601 L70 623 L211 707 L244 707 L184 372 L263 372 L258 345 L53 345 Z M6 0 L649 700 L690 700 L47 0 L6 0 Z " />
<glyph glyph-name="threequarters" unicode="&#xbe;" horiz-adv-x="707" d="M230 708 Q291 708 316.5 682.5 Q342 657 335 618 Q327 578 299 556 Q271 534 233 527 Q272 522 293.5 498.5 Q315 475 307 436 Q300 397 262.5 367.5 Q225 338 162 338 Q105 338 77 364 Q49 390 51 431 L84 431 Q82 401 102.5 382 Q123 363 168 363 Q216 363 242 385.5 Q268 408 273 438 Q281 474 258 495 Q235 516 179 516 L183 539 Q237 539 265.5 558.5 Q294 578 301 614 Q306 643 289.5 663 Q273 683 225 683 Q181 683 155.5 666 Q130 649 122 618 L89 618 Q102 658 138 683 Q174 708 230 708 Z M329 131 L470 131 L503 323 L329 131 Z M540 356 L501 131 L557 131 L552 105 L496 105 L478 0 L447 0 L465 105 L292 105 L297 131 L503 356 L540 356 Z M8 0 L651 700 L692 700 L49 0 L8 0 Z " />
<glyph glyph-name="onethird" unicode="&#x2153;" horiz-adv-x="707" d="M518 363 Q579 363 604.5 337.5 Q630 312 623 273 Q615 233 587 211 Q559 189 521 182 Q560 177 581.5 153.5 Q603 130 595 91 Q588 52 550.5 22.5 Q513 -7 450 -7 Q393 -7 365 19 Q337 45 339 86 L372 86 Q370 56 390.5 37 Q411 18 456 18 Q504 18 530 40.5 Q556 63 561 93 Q569 129 546 150 Q523 171 467 171 L471 194 Q525 194 553.5 213.5 Q582 233 589 269 Q594 298 577.5 318 Q561 338 513 338 Q469 338 443.5 321 Q418 304 410 273 L377 273 Q390 313 426 338 Q462 363 518 363 Z M56 345 L61 372 L153 372 L207 676 L83 601 L73 623 L214 707 L247 707 L187 372 L266 372 L261 345 L56 345 Z M0 0 L643 700 L684 700 L41 0 L0 0 Z " />
<glyph glyph-name="Euro" unicode="&#x20ac;" horiz-adv-x="646" d="M160 414 Q151 380 145 347 Q138 307 136 270 L374 270 L357 244 L136 244 Q136 194 148 153.5 Q160 113 185 84 Q210 55 248 39 Q286 23 338 23 Q426 23 486 66.5 Q546 110 579 180 L621 180 Q601 137 572.5 101.5 Q544 66 508 40.5 Q472 15 427.5 1 Q383 -13 332 -13 Q270 -13 225 6.5 Q180 26 151 60.5 Q122 95 107.5 142 Q93 189 92 244 L14 244 L31 270 L93 270 Q94 289 95.5 308 Q97 327 101 347 Q107 380 116 414 L44 414 L61 440 L125 440 Q144 497 175 546 Q206 595 248 630.5 Q290 666 343 686.5 Q396 707 459 707 Q562 707 616.5 654 Q671 601 680 515 L638 515 Q630 584 585 628 Q540 672 452 672 Q398 672 353.5 655 Q309 638 273.5 607.5 Q238 577 211.5 534.5 Q185 492 168 440 L498 440 L480 414 L160 414 Z " />
<glyph glyph-name="multiply" unicode="&#xd7;" horiz-adv-x="576" d="M301 308 L530 502 L550 479 L321 284 L481 90 L454 66 L293 260 L65 66 L45 90 L274 284 L114 479 L141 502 L301 308 Z " />
<glyph glyph-name="minus" unicode="&#x2212;" horiz-adv-x="576" d="M45 268 L51 301 L551 301 L545 268 L45 268 Z " />
<glyph glyph-name="estimated" unicode="&#x212e;" horiz-adv-x="691" d="M443 675 Q387 675 339.5 657 Q292 639 253.5 606 Q215 573 185.5 528 Q156 483 138 429 L645 429 Q649 481 639 526 Q629 571 604.5 604 Q580 637 540 656 Q500 675 443 675 Z M451 710 Q517 710 565 688 Q613 666 643 624.5 Q673 583 684.5 525 Q696 467 689 395 L128 395 Q125 384 122.5 372.5 Q120 361 118 350 Q106 281 113 221.5 Q120 162 146.5 119 Q173 76 219 51.5 Q265 27 330 27 Q374 27 413 38.5 Q452 50 485 70.5 Q518 91 543.5 120 Q569 149 585 184 L630 184 Q610 141 579.5 105 Q549 69 509.5 43.5 Q470 18 423 4 Q376 -10 324 -10 Q248 -10 194.5 19 Q141 48 109 97 Q77 146 67.5 211.5 Q58 277 71 350 Q84 423 116.5 488.5 Q149 554 198 603 Q247 652 311 681 Q375 710 451 710 Z " />
<glyph glyph-name="brokenbar" unicode="&#xa6;" horiz-adv-x="277" d="M39 -211 L96 112 L138 112 L81 -211 L39 -211 Z M143 377 L200 700 L242 700 L185 377 L143 377 Z " />
<glyph glyph-name="minute" unicode="&#x2032;" horiz-adv-x="161" d="M121 524 L139 704 L189 704 L145 524 L121 524 Z " />
<glyph glyph-name="second" unicode="&#x2033;" horiz-adv-x="272" d="M232 524 L251 704 L300 704 L256 524 L232 524 Z M121 524 L139 704 L189 704 L145 524 L121 524 Z " />
<glyph glyph-name="commaaccent" unicode="&#xf6c3;" horiz-adv-x="159" d="M59 -55 L53 -93 Q47 -125 29.5 -150.5 Q12 -176 -13 -196 L-21 -183 Q21 -147 30 -97 L7 -97 L14 -55 L59 -55 Z " />
<glyph glyph-name="arrowleft" unicode="&#x2190;" horiz-adv-x="629" d="M320 506 L340 483 L127 301 L591 301 L585 268 L120 268 L270 86 L242 62 L59 284 L320 506 Z " />
<glyph glyph-name="arrowright" unicode="&#x2192;" horiz-adv-x="629" d="M588 284 L327 62 L308 86 L521 268 L57 268 L63 301 L528 301 L377 483 L405 506 L588 284 Z " />
<glyph glyph-name="arrowup" unicode="&#x2191;" horiz-adv-x="544" d="M508 307 L480 283 L330 465 L249 0 L215 0 L296 465 L83 283 L64 307 L325 529 L508 307 Z " />
<glyph glyph-name="arrowdown" unicode="&#x2193;" horiz-adv-x="544" d="M339 512 L257 47 L471 229 L490 205 L229 -17 L46 205 L74 229 L223 47 L305 512 L339 512 Z " />
<glyph glyph-name="afii00208" unicode="&#x2015;" horiz-adv-x="1021" d="M57 266 L63 301 L984 301 L978 266 L57 266 Z " />
<glyph glyph-name="afii10017" unicode="&#x410;" horiz-adv-x="604" d="M380 678 Q369 652 355.5 627 Q342 602 331 582 L151 257 L461 257 L395 582 Q390 603 386.5 628 Q383 653 380 678 Z M416 700 L555 0 L508 0 L466 224 L134 224 L14 0 L-31 0 L355 700 L416 700 Z " />
<glyph glyph-name="afii10018" unicode="&#x411;" horiz-adv-x="658" d="M102 32 L346 32 Q391 32 425 45.5 Q459 59 483 81.5 Q507 104 521.5 134 Q536 164 542 197 Q548 231 543 261.5 Q538 292 521.5 315.5 Q505 339 475 353 Q445 367 402 367 L162 367 L102 32 Z M611 700 L605 666 L214 666 L167 397 L416 397 Q468 397 504 380.5 Q540 364 560.5 336 Q581 308 587 272.5 Q593 237 586 199 Q579 159 560.5 123 Q542 87 512 59.5 Q482 32 440.5 16 Q399 0 348 0 L54 0 L177 700 L611 700 Z " />
<glyph glyph-name="afii10019" unicode="&#x412;" horiz-adv-x="659" d="M346 34 Q391 34 425.5 47 Q460 60 484 81.5 Q508 103 522.5 131 Q537 159 542 189 Q547 219 541.5 248 Q536 277 519 299 Q502 321 472 334.5 Q442 348 399 348 L158 348 L103 34 L346 34 Z M54 0 L177 700 L457 700 Q508 700 541.5 685.5 Q575 671 594 648 Q613 625 618.5 595.5 Q624 566 619 535 Q613 506 600.5 478 Q588 450 567.5 427.5 Q547 405 518 389 Q489 373 451 367 Q490 363 518.5 347 Q547 331 563.5 307 Q580 283 585.5 252 Q591 221 585 188 Q579 151 560.5 117 Q542 83 512 57 Q482 31 441 15.5 Q400 0 349 0 L54 0 Z M394 379 Q437 379 468.5 392.5 Q500 406 522 427.5 Q544 449 556 475 Q568 501 572 527 Q576 553 573 578 Q570 603 555.5 622.5 Q541 642 513.5 654 Q486 666 443 666 L214 666 L164 379 L394 379 Z " />
<glyph glyph-name="afii10020" unicode="&#x413;" horiz-adv-x="532" d="M605 700 L599 666 L214 666 L97 0 L54 0 L177 700 L605 700 Z " />
<glyph glyph-name="afii10021" unicode="&#x414;" horiz-adv-x="752" d="M372 666 Q355 579 332.5 493 Q310 407 279.5 325.5 Q249 244 210 170 Q171 96 120 34 L524 34 L635 666 L372 666 Z M684 700 L566 34 L683 34 L639 -165 L599 -165 L629 0 L35 0 L6 -165 L-34 -165 L-9 34 L78 34 Q136 106 177.5 187.5 Q219 269 249 355.5 Q279 442 300 529.5 Q321 617 337 700 L684 700 Z " />
<glyph glyph-name="afii10022" unicode="&#x415;" horiz-adv-x="601" d="M54 0 L177 700 L627 700 L620 666 L214 666 L164 380 L513 380 L507 347 L158 347 L103 34 L512 34 L507 0 L54 0 Z " />
<glyph glyph-name="afii10023" unicode="&#x401;" horiz-adv-x="601" d="M470 766 L477 801 L509 801 L503 766 L470 766 Z M335 766 L341 801 L374 801 L367 766 L335 766 Z M54 0 L177 700 L627 700 L620 666 L214 666 L164 380 L513 380 L507 347 L158 347 L103 34 L512 34 L507 0 L54 0 Z " />
<glyph glyph-name="afii10024" unicode="&#x416;" horiz-adv-x="897" d="M791 0 L498 365 L890 700 L944 700 L550 367 L846 0 L791 0 Z M387 0 L510 700 L553 700 L430 0 L387 0 Z M-29 0 L396 367 L119 700 L173 700 L448 365 L26 0 L-29 0 Z " />
<glyph glyph-name="afii10025" unicode="&#x417;" horiz-adv-x="608" d="M302 378 Q407 378 467 417.5 Q527 457 541 533 Q547 563 540.5 589.5 Q534 616 515 635 Q496 654 463.5 665 Q431 676 384 676 Q299 676 245.5 640 Q192 604 175 543 L130 543 Q142 580 165.5 611 Q189 642 223 664 Q257 686 299 698 Q341 710 390 710 Q445 710 485.5 697 Q526 684 551 661 Q576 638 585.5 606.5 Q595 575 588 538 Q580 496 559.5 464 Q539 432 509 410 Q479 388 440.5 376 Q402 364 359 361 Q403 358 438.5 345.5 Q474 333 497.5 310.5 Q521 288 530.5 255.5 Q540 223 533 181 Q526 143 503.5 108.5 Q481 74 445 47.5 Q409 21 362 5.5 Q315 -10 260 -10 Q211 -10 172 2.5 Q133 15 106 38 Q79 61 65.5 92.5 Q52 124 54 162 L100 162 Q95 101 139.5 62.5 Q184 24 268 24 Q315 24 353.5 37.5 Q392 51 419.5 73 Q447 95 464.5 124 Q482 153 487 183 Q501 260 451 301 Q401 342 295 342 L302 378 Z " />
<glyph glyph-name="afii10026" unicode="&#x418;" horiz-adv-x="671" d="M220 700 L118 122 Q115 105 111.5 87 Q108 69 104 52 Q122 83 144 112 L600 700 L660 700 L537 0 L494 0 L599 602 Q602 617 605 634.5 Q608 652 612 667 Q604 653 593 637.5 Q582 622 571 608 L104 0 L54 0 L177 700 L220 700 Z " />
<glyph glyph-name="afii10027" unicode="&#x419;" horiz-adv-x="671" d="M220 700 L118 122 Q115 105 111.5 87 Q108 69 104 52 Q122 83 144 112 L600 700 L660 700 L537 0 L494 0 L599 602 Q602 617 605 634.5 Q608 652 612 667 Q604 653 593 637.5 Q582 622 571 608 L104 0 L54 0 L177 700 L220 700 Z M364 827 Q359 795 374 774.5 Q389 754 428 754 Q470 754 491 776 Q512 798 518 827 L546 827 Q538 785 505.5 759 Q473 733 424 733 Q375 733 352 759 Q329 785 336 827 L364 827 Z " />
<glyph glyph-name="afii10028" unicode="&#x41a;" horiz-adv-x="574" d="M467 0 L174 365 L567 700 L620 700 L226 367 L522 0 L467 0 Z M54 0 L177 700 L220 700 L97 0 L54 0 Z " />
<glyph glyph-name="afii10029" unicode="&#x41b;" horiz-adv-x="646" d="M635 700 L512 0 L469 0 L586 666 L322 666 Q310 609 292 537.5 Q274 466 251 391 Q228 316 199.5 244.5 Q171 173 138 118 Q101 56 58.5 23 Q16 -10 -34 -10 L-27 29 Q10 29 42.5 57.5 Q75 86 104 136 Q136 189 163 259.5 Q190 330 213 406.5 Q236 483 254 559 Q272 635 286 700 L635 700 Z " />
<glyph glyph-name="afii10030" unicode="&#x41c;" horiz-adv-x="816" d="M246 700 L370 105 Q372 91 373.5 75.5 Q375 60 377 46 Q383 61 390.5 77 Q398 93 406 107 L737 700 L804 700 L681 0 L639 0 L747 614 Q749 627 751.5 641.5 Q754 656 757 669 Q751 655 744 641.5 Q737 628 730 615 L387 0 L349 0 L221 616 Q216 641 213 669 Q212 656 209.5 641.5 Q207 627 204 615 L97 0 L54 0 L177 700 L246 700 Z " />
<glyph glyph-name="afii10031" unicode="&#x41d;" horiz-adv-x="677" d="M499 0 L560 347 L158 347 L97 0 L54 0 L177 700 L220 700 L164 381 L566 381 L622 700 L665 700 L542 0 L499 0 Z " />
<glyph glyph-name="afii10032" unicode="&#x41e;" horiz-adv-x="740" d="M455 710 Q531 710 584 681 Q637 652 668 603 Q699 554 707.5 488.5 Q716 423 703 350 Q690 277 658.5 211.5 Q627 146 578.5 97 Q530 48 467 19 Q404 -10 328 -10 Q252 -10 199 19 Q146 48 114.5 97 Q83 146 74 211.5 Q65 277 78 350 Q91 423 123 488.5 Q155 554 203.5 603 Q252 652 315.5 681 Q379 710 455 710 Z M448 673 Q383 673 329 648.5 Q275 624 234 581 Q193 538 165 478.5 Q137 419 125 350 Q113 281 120 221.5 Q127 162 153 119 Q179 76 224 51.5 Q269 27 334 27 Q399 27 453 51.5 Q507 76 548.5 119 Q590 162 617.5 221.5 Q645 281 657 350 Q669 419 662.5 478.5 Q656 538 630 581 Q604 624 558.5 648.5 Q513 673 448 673 Z " />
<glyph glyph-name="afii10033" unicode="&#x41f;" horiz-adv-x="649" d="M482 0 L598 666 L206 666 L89 0 L47 0 L170 700 L645 700 L522 0 L482 0 Z " />
<glyph glyph-name="afii10034" unicode="&#x420;" horiz-adv-x="619" d="M214 666 L156 336 L394 336 Q435 336 467 349 Q499 362 521.5 384.5 Q544 407 558.5 438.5 Q573 470 579 506 Q585 539 582 568.5 Q579 598 565 619.5 Q551 641 523 653.5 Q495 666 452 666 L214 666 Z M465 700 Q516 700 550 684.5 Q584 669 602.5 643 Q621 617 626 581.5 Q631 546 624 506 Q617 464 600 427.5 Q583 391 554.5 363.5 Q526 336 486 320 Q446 304 393 304 L150 304 L97 0 L54 0 L177 700 L465 700 Z " />
<glyph glyph-name="afii10035" unicode="&#x421;" horiz-adv-x="674" d="M637 184 Q618 141 587 105 Q556 69 516.5 43.5 Q477 18 429.5 4 Q382 -10 330 -10 Q255 -10 201 19 Q147 48 115.5 97 Q84 146 74.5 211.5 Q65 277 78 350 Q91 423 123.5 488.5 Q156 554 205 603 Q254 652 318 681 Q382 710 457 710 Q509 710 551.5 696 Q594 682 624.5 656.5 Q655 631 673 595 Q691 559 695 516 L651 516 Q644 586 591.5 629.5 Q539 673 451 673 Q386 673 331.5 648.5 Q277 624 235 581 Q193 538 165 478.5 Q137 419 125 350 Q113 281 120 221.5 Q127 162 153.5 119 Q180 76 226 51.5 Q272 27 337 27 Q381 27 420.5 38.5 Q460 50 493 70.5 Q526 91 551.5 120 Q577 149 592 184 L637 184 Z " />
<glyph glyph-name="afii10036" unicode="&#x422;" horiz-adv-x="556" d="M217 0 L334 666 L89 666 L95 700 L628 700 L622 666 L377 666 L260 0 L217 0 Z " />
<glyph glyph-name="afii10037" unicode="&#x423;" horiz-adv-x="591" d="M150 700 L290 311 Q295 298 299 284 Q303 270 306 253 Q315 270 324.5 284 Q334 298 343 311 L619 700 L666 700 L232 92 Q194 38 147.5 14.5 Q101 -9 53 -9 Q45 -9 36 -8.5 Q27 -8 19 -7 L25 30 Q38 27 56 27 Q90 27 124.5 42.5 Q159 58 187 96 L276 219 L101 700 L150 700 Z " />
<glyph glyph-name="afii10038" unicode="&#x424;" horiz-adv-x="750" d="M122 356 Q114 307 123 267 Q132 227 159 198.5 Q186 170 230.5 154 Q275 138 337 137 L414 575 Q352 574 302 557.5 Q252 541 215 512.5 Q178 484 154.5 444 Q131 404 122 356 Z M671 356 Q680 404 670.5 444 Q661 484 634 512.5 Q607 541 562.5 557.5 Q518 574 457 575 L380 137 Q504 139 579 198.5 Q654 258 671 356 Z M479 700 L462 606 Q535 603 587.5 584.5 Q640 566 672 533.5 Q704 501 715.5 456 Q727 411 717 356 Q708 301 681 256 Q654 211 610.5 178.5 Q567 146 507.5 127.5 Q448 109 375 106 L356 0 L313 0 L332 106 Q258 109 205.5 127.5 Q153 146 121 178.5 Q89 211 78 256 Q67 301 76 356 Q86 411 113 456 Q140 501 183.5 533.5 Q227 566 286 584.5 Q345 603 419 606 L436 700 L479 700 Z " />
<glyph glyph-name="afii10039" unicode="&#x425;" horiz-adv-x="608" d="M161 700 L312 428 Q317 417 322 406 Q327 395 331 382 Q339 395 349.5 406.5 Q360 418 368 428 L614 700 L663 700 L352 357 L552 0 L498 0 L340 284 Q335 295 329.5 306.5 Q324 318 321 332 Q311 318 301.5 306.5 Q292 295 281 284 L26 0 L-24 0 L299 355 L108 700 L161 700 Z " />
<glyph glyph-name="afii10040" unicode="&#x426;" horiz-adv-x="724" d="M220 700 L103 34 L497 34 L614 700 L656 700 L539 34 L655 34 L611 -165 L572 -165 L601 0 L54 0 L177 700 L220 700 Z " />
<glyph glyph-name="afii10041" unicode="&#x427;" horiz-adv-x="648" d="M471 0 L534 355 Q515 317 486 289 Q457 261 421.5 241.5 Q386 222 347.5 212.5 Q309 203 272 203 Q236 203 204 212.5 Q172 222 150 241.5 Q128 261 118 290 Q108 319 115 358 L175 700 L218 700 L159 367 Q153 335 161.5 311 Q170 287 188 271.5 Q206 256 232.5 248 Q259 240 290 240 Q329 240 371 253 Q413 266 450 292 Q487 318 514 356.5 Q541 395 550 447 L594 700 L636 700 L513 0 L471 0 Z " />
<glyph glyph-name="afii10042" unicode="&#x428;" horiz-adv-x="906" d="M220 700 L102 34 L397 34 L514 700 L557 700 L439 34 L734 34 L852 700 L895 700 L772 0 L54 0 L177 700 L220 700 Z " />
<glyph glyph-name="afii10043" unicode="&#x429;" horiz-adv-x="963" d="M220 700 L102 34 L397 34 L514 700 L557 700 L439 34 L734 34 L852 700 L895 700 L777 34 L894 34 L850 -165 L810 -165 L840 0 L54 0 L177 700 L220 700 Z " />
<glyph glyph-name="afii10044" unicode="&#x42a;" horiz-adv-x="711" d="M273 700 L221 401 L470 401 Q522 401 558 384 Q594 367 614.5 339.5 Q635 312 641 276 Q647 240 640 202 Q633 161 614 124.5 Q595 88 565 60.5 Q535 33 493.5 16.5 Q452 0 401 0 L107 0 L224 666 L87 666 L93 700 L273 700 Z M156 33 L399 33 Q444 33 478 46.5 Q512 60 536 83 Q560 106 575 136.5 Q590 167 596 200 Q602 234 597 264.5 Q592 295 575 318 Q558 341 528.5 355 Q499 369 456 369 L215 369 L156 33 Z " />
<glyph glyph-name="afii10045" unicode="&#x42b;" horiz-adv-x="806" d="M629 0 L752 700 L795 700 L672 0 L629 0 Z M103 33 L345 33 Q390 33 424 46.5 Q458 60 482 83 Q506 106 520.5 136.5 Q535 167 541 200 Q547 234 542 264.5 Q537 295 520.5 318 Q504 341 474 355 Q444 369 401 369 L162 369 L103 33 Z M220 700 L168 401 L416 401 Q468 401 504 384 Q540 367 560.5 339.5 Q581 312 587 276 Q593 240 586 202 Q579 161 560 124.5 Q541 88 511 60.5 Q481 33 439.5 16.5 Q398 0 347 0 L54 0 L177 700 L220 700 Z " />
<glyph glyph-name="afii10046" unicode="&#x42c;" horiz-adv-x="658" d="M103 33 L347 33 Q391 33 425 46.5 Q459 60 483 83 Q507 106 522 136.5 Q537 167 543 200 Q549 234 544 264.5 Q539 295 522 318 Q505 341 475.5 355 Q446 369 403 369 L162 369 L103 33 Z M220 700 L168 401 L417 401 Q469 401 505 384 Q541 367 561.5 339.5 Q582 312 588 276 Q594 240 587 202 Q580 161 561 124.5 Q542 88 512 60.5 Q482 33 440.5 16.5 Q399 0 348 0 L54 0 L177 700 L220 700 Z " />
<glyph glyph-name="afii10047" unicode="&#x42d;" horiz-adv-x="674" d="M387 710 Q463 710 516.5 681 Q570 652 601 603 Q632 554 641.5 488.5 Q651 423 638 350 Q625 277 593 211.5 Q561 146 512 97 Q463 48 399.5 19 Q336 -10 260 -10 Q208 -10 165.5 4 Q123 18 92.5 43.5 Q62 69 43.5 104.5 Q25 140 21 183 L65 183 Q73 113 125.5 69 Q178 25 266 25 Q331 25 385.5 49.5 Q440 74 481.5 117.5 Q523 161 550.5 219.5 Q578 278 590 347 L254 347 L260 380 L595 380 Q603 444 593.5 498 Q584 552 557 591 Q530 630 485.5 652 Q441 674 380 674 Q336 674 296.5 662.5 Q257 651 224 630.5 Q191 610 165.5 581 Q140 552 124 517 L80 517 Q99 560 130 595.5 Q161 631 200.5 656.5 Q240 682 287.5 696 Q335 710 387 710 Z " />
<glyph glyph-name="afii10048" unicode="&#x42e;" horiz-adv-x="975" d="M685 673 Q620 673 566 648.5 Q512 624 471 581 Q430 538 402.5 478.5 Q375 419 363 350 Q351 281 357.5 221.5 Q364 162 390 119 Q416 76 461 51.5 Q506 27 571 27 Q636 27 690 51.5 Q744 76 785 119 Q826 162 853 221.5 Q880 281 892 350 Q904 419 897.5 478.5 Q891 538 865.5 581 Q840 624 795 648.5 Q750 673 685 673 Z M220 700 L164 381 L323 381 Q339 448 371.5 508 Q404 568 451 613 Q498 658 559 684 Q620 710 692 710 Q767 710 820 681 Q873 652 903.5 603 Q934 554 943 488.5 Q952 423 939 350 Q926 277 894 211.5 Q862 146 814 97 Q766 48 703 19 Q640 -10 565 -10 Q490 -10 437.5 17 Q385 44 353.5 91.5 Q322 139 313 204.5 Q304 270 316 347 L158 347 L97 0 L54 0 L177 700 L220 700 Z " />
<glyph glyph-name="afii10049" unicode="&#x42f;" horiz-adv-x="650" d="M350 666 Q307 666 275.5 654 Q244 642 222 622 Q200 602 187.5 575 Q175 548 170 517 Q164 485 167 456 Q170 427 184.5 405 Q199 383 226 370.5 Q253 358 297 358 L536 358 L590 666 L350 666 Z M639 700 L516 0 L473 0 L530 325 L302 325 Q269 325 236.5 314 Q204 303 175.5 268.5 Q147 234 122 170 Q97 106 79 0 L36 0 Q54 101 77.5 164.5 Q101 228 128 265.5 Q155 303 184 319 Q213 335 240 341 Q165 352 138.5 399.5 Q112 447 125 521 Q131 557 147.5 589.5 Q164 622 191.5 646.5 Q219 671 258.5 685.5 Q298 700 349 700 L639 700 Z " />
<glyph glyph-name="afii10050" unicode="&#x490;" horiz-adv-x="560" d="M564 700 L588 793 L622 793 L599 666 L214 666 L97 0 L54 0 L177 700 L564 700 Z " />
<glyph glyph-name="afii10051" unicode="&#x402;" horiz-adv-x="717" d="M628 700 L622 666 L377 666 L319 337 Q333 365 353.5 389.5 Q374 414 400 432 Q426 450 458 460 Q490 470 527 470 Q612 470 644 417.5 Q676 365 660 275 L633 119 Q627 82 608.5 52.5 Q590 23 563 2.5 Q536 -18 502 -29 Q468 -40 431 -40 L437 -7 Q464 -7 489.5 1 Q515 9 535.5 25 Q556 41 570.5 64 Q585 87 591 118 L617 270 Q631 346 607.5 391.5 Q584 437 512 437 Q481 437 447.5 425.5 Q414 414 384.5 389.5 Q355 365 332.5 327 Q310 289 301 235 L260 0 L217 0 L334 666 L89 666 L95 700 L628 700 Z " />
<glyph glyph-name="afii10052" unicode="&#x403;" horiz-adv-x="532" d="M540 863 L391 726 L363 726 L502 870 L540 863 Z M605 700 L599 666 L214 666 L97 0 L54 0 L177 700 L605 700 Z " />
<glyph glyph-name="afii10053" unicode="&#x404;" horiz-adv-x="674" d="M457 710 Q509 710 551.5 696 Q594 682 624.5 656.5 Q655 631 673 595.5 Q691 560 695 517 L651 517 Q644 587 591.5 630.5 Q539 674 451 674 Q389 674 337 652 Q285 630 244 591 Q203 552 174.5 498 Q146 444 131 380 L467 380 L461 347 L124 347 Q113 278 120.5 219 Q128 160 154.5 117 Q181 74 226.5 49.5 Q272 25 337 25 Q381 25 420.5 36.5 Q460 48 493 69 Q526 90 551 119 Q576 148 592 183 L637 183 Q618 140 587 104.5 Q556 69 516.5 43.5 Q477 18 429.5 4 Q382 -10 330 -10 Q255 -10 201 19 Q147 48 115.5 97 Q84 146 74.5 211.5 Q65 277 78 350 Q91 423 123.5 488.5 Q156 554 205 603 Q254 652 318 681 Q382 710 457 710 Z " />
<glyph glyph-name="afii10054" unicode="&#x405;" horiz-adv-x="619" d="M394 710 Q448 710 488.5 697.5 Q529 685 556.5 663.5 Q584 642 598 613 Q612 584 613 552 L568 552 Q566 577 555.5 599.5 Q545 622 523 639 Q501 656 467.5 666 Q434 676 387 676 Q334 676 295 663.5 Q256 651 229 630.5 Q202 610 186.5 583.5 Q171 557 166 530 Q159 490 170 464.5 Q181 439 205 423.5 Q229 408 262.5 399.5 Q296 391 334 385 Q382 378 426 367 Q470 356 502 334.5 Q534 313 549.5 278.5 Q565 244 556 191 Q549 151 526.5 114.5 Q504 78 467.5 50.5 Q431 23 381 6.5 Q331 -10 268 -10 Q214 -10 172 2.5 Q130 15 100.5 36.5 Q71 58 56 87 Q41 116 41 149 L86 149 Q87 124 99 101.5 Q111 79 134 61.5 Q157 44 192.5 34 Q228 24 275 24 Q327 24 368 37.5 Q409 51 438.5 73.5 Q468 96 485.5 125.5 Q503 155 509 187 Q517 231 503.5 258.5 Q490 286 462.5 303.5 Q435 321 397 330 Q359 339 318 346 Q273 353 233 363 Q193 373 165 393 Q137 413 124 445 Q111 477 120 528 Q126 562 146.5 595 Q167 628 201.5 653.5 Q236 679 284 694.5 Q332 710 394 710 Z " />
<glyph glyph-name="afii10055" unicode="&#x406;" horiz-adv-x="232" d="M54 0 L177 700 L220 700 L97 0 L54 0 Z " />
<glyph glyph-name="afii10056" unicode="&#x407;" horiz-adv-x="232" d="M262 766 L269 801 L301 801 L295 766 L262 766 Z M127 766 L133 801 L166 801 L159 766 L127 766 Z M54 0 L177 700 L220 700 L97 0 L54 0 Z " />
<glyph glyph-name="afii10057" unicode="&#x408;" horiz-adv-x="499" d="M488 700 L393 165 Q379 87 321.5 38.5 Q264 -10 170 -10 Q90 -10 47.5 31.5 Q5 73 7 137 L52 137 Q50 91 82 58.5 Q114 26 177 26 Q217 26 247 37 Q277 48 298.5 67 Q320 86 332.5 111 Q345 136 350 165 L445 700 L488 700 Z " />
<glyph glyph-name="afii10058" unicode="&#x409;" horiz-adv-x="1073" d="M635 700 L582 401 L832 401 Q884 401 919.5 384 Q955 367 975.5 339.5 Q996 312 1002 276 Q1008 240 1001 202 Q994 161 975.5 124.5 Q957 88 926.5 60.5 Q896 33 855 16.5 Q814 0 762 0 L469 0 L586 666 L322 666 Q310 609 292 537.5 Q274 466 251 391 Q228 316 199.5 244.5 Q171 173 138 118 Q101 56 58.5 23 Q16 -10 -34 -10 L-27 29 Q10 29 42.5 57.5 Q75 86 104 136 Q136 189 163 259.5 Q190 330 213 406.5 Q236 483 254 559 Q272 635 286 700 L635 700 Z M517 33 L761 33 Q806 33 840 46.5 Q874 60 898 83 Q922 106 936.5 136.5 Q951 167 957 200 Q963 234 958 264.5 Q953 295 936 318 Q919 341 889.5 355 Q860 369 817 369 L577 369 L517 33 Z " />
<glyph glyph-name="afii10059" unicode="&#x40a;" horiz-adv-x="1025" d="M504 33 L713 33 Q758 33 792 46.5 Q826 60 850 83 Q874 106 888.5 136 Q903 166 909 200 Q915 234 910 264.5 Q905 295 888 318 Q871 341 841.5 355 Q812 369 769 369 L563 369 L504 33 Z M220 700 L168 401 L526 401 L579 700 L622 700 L569 401 L784 401 Q836 401 872 384 Q908 367 928 339.5 Q948 312 954 276 Q960 240 953 202 Q946 161 927.5 124.5 Q909 88 878.5 60.5 Q848 33 807 16.5 Q766 0 714 0 L456 0 L520 369 L162 369 L97 0 L54 0 L177 700 L220 700 Z " />
<glyph glyph-name="afii10060" unicode="&#x40b;" horiz-adv-x="744" d="M628 700 L622 666 L377 666 L317 328 Q346 385 399 423 Q452 461 526 461 Q612 461 643.5 409 Q675 357 659 266 L612 0 L570 0 L616 261 Q630 337 606 383 Q582 429 510 429 Q479 429 445.5 417.5 Q412 406 383 381 Q354 356 331.5 318 Q309 280 299 226 L260 0 L217 0 L334 666 L89 666 L95 700 L628 700 Z " />
<glyph glyph-name="afii10061" unicode="&#x40c;" horiz-adv-x="574" d="M483 863 L334 726 L306 726 L445 870 L483 863 Z M433 0 L140 365 L533 700 L586 700 L192 367 L488 0 L433 0 Z M20 0 L143 700 L186 700 L63 0 L20 0 Z " />
<glyph glyph-name="afii10062" unicode="&#x40e;" horiz-adv-x="591" d="M150 700 L290 311 Q295 298 299 284 Q303 270 306 253 Q315 270 324.5 284 Q334 298 343 311 L619 700 L666 700 L232 92 Q194 38 147.5 14.5 Q101 -9 53 -9 Q45 -9 36 -8.5 Q27 -8 19 -7 L25 30 Q38 27 56 27 Q90 27 124.5 42.5 Q159 58 187 96 L276 219 L101 700 L150 700 Z M334 827 Q329 795 344 774.5 Q359 754 397 754 Q439 754 460.5 776 Q482 798 487 827 L516 827 Q508 785 475.5 759 Q443 733 393 733 Q345 733 321.5 759 Q298 785 305 827 L334 827 Z " />
<glyph glyph-name="afii10065" unicode="&#x430;" horiz-adv-x="576" d="M314 479 Q272 479 236 462 Q200 445 172.5 415 Q145 385 126 343 Q107 301 98 250 Q89 199 93 157 Q97 115 114 85 Q131 55 161 38 Q191 21 233 21 Q278 21 314.5 39.5 Q351 58 378 88.5 Q405 119 422.5 159 Q440 199 448 243 Q459 304 453.5 348.5 Q448 393 429.5 422 Q411 451 381 465 Q351 479 314 479 Z M313 510 Q352 510 380.5 497.5 Q409 485 428 464.5 Q447 444 457 417 Q467 390 469 361 L493 500 L532 500 L445 0 L406 0 L429 135 Q417 107 396.5 81 Q376 55 349 34.5 Q322 14 289.5 2 Q257 -10 222 -10 Q172 -10 136 9 Q100 28 79 62.5 Q58 97 52 145 Q46 193 56 250 Q66 308 89 355.5 Q112 403 145 437.5 Q178 472 220.5 491 Q263 510 313 510 Z " />
<glyph glyph-name="afii10066" unicode="&#x431;" horiz-adv-x="561" d="M338 477 Q283 477 228 451.5 Q173 426 132 391 Q128 375 124.5 358.5 Q121 342 118 325 Q92 179 124.5 100 Q157 21 251 21 Q298 21 335 40 Q372 59 399.5 91 Q427 123 445 165 Q463 207 471 254 Q478 296 478 336 Q478 376 464 407.5 Q450 439 420 458 Q390 477 338 477 Z M409 709 Q422 709 439 709.5 Q456 710 473 712 Q490 714 506.5 716.5 Q523 719 536 724 L529 689 Q516 686 500 683.5 Q484 681 466.5 679.5 Q449 678 432.5 677.5 Q416 677 403 677 Q313 677 246 608.5 Q179 540 141 422 Q184 459 238 483 Q292 507 352 507 Q410 507 446 486 Q482 465 499.5 429.5 Q517 394 519.5 349 Q522 304 513 256 Q503 202 481 153.5 Q459 105 425 68.5 Q391 32 346 11 Q301 -10 246 -10 Q133 -10 91 76.5 Q49 163 78 327 Q93 412 123.5 482 Q154 552 196.5 602.5 Q239 653 293 681 Q347 709 409 709 Z " />
<glyph glyph-name="afii10067" unicode="&#x432;" horiz-adv-x="518" d="M96 30 L271 30 Q338 30 372.5 61 Q407 92 415 135 Q419 156 415 176 Q411 196 398.5 211.5 Q386 227 364 236 Q342 245 310 245 L134 245 L96 30 Z M353 500 Q392 500 418 489 Q444 478 458.5 460.5 Q473 443 477.5 421.5 Q482 400 478 378 Q470 338 440.5 304.5 Q411 271 357 260 Q416 252 440.5 216 Q465 180 457 132 Q452 106 438 82 Q424 58 400.5 40 Q377 22 345 11 Q313 0 274 0 L52 0 L140 500 L353 500 Z M138 272 L306 272 Q338 272 361 281.5 Q384 291 399.5 305.5 Q415 320 423.5 338 Q432 356 435 374 Q438 392 435.5 409.5 Q433 427 422.5 440.5 Q412 454 392.5 462.5 Q373 471 341 471 L174 471 L138 272 Z " />
<glyph glyph-name="afii10068" unicode="&#x433;" horiz-adv-x="439" d="M470 500 L464 468 L173 468 L91 0 L52 0 L140 500 L470 500 Z " />
<glyph glyph-name="afii10069" unicode="&#x434;" horiz-adv-x="563" d="M254 468 Q246 424 226.5 364 Q207 304 182 241.5 Q157 179 130 122.5 Q103 66 79 30 L373 30 L450 468 L254 468 Z M495 500 L412 30 L509 30 L469 -133 L438 -133 L463 0 L10 0 L-15 -133 L-43 -133 L-27 30 L44 30 Q70 71 98 131 Q126 191 151 256.5 Q176 322 195.5 386.5 Q215 451 224 500 L495 500 Z " />
<glyph glyph-name="afii10070" unicode="&#x435;" horiz-adv-x="539" d="M333 481 Q252 481 191 428.5 Q130 376 104 288 L289 288 Q377 288 419 315.5 Q461 343 461 388 Q461 405 454 422 Q447 439 431.5 452 Q416 465 391.5 473 Q367 481 333 481 Z M338 510 Q382 510 413 500 Q444 490 464 473 Q484 456 493 434.5 Q502 413 502 391 Q502 334 449.5 297 Q397 260 288 260 L98 260 Q96 254 96 250 Q87 199 92 156.5 Q97 114 115.5 83.5 Q134 53 165 36.5 Q196 20 239 20 Q269 20 298 28 Q327 36 351 51 Q375 66 393.5 89 Q412 112 422 142 L462 142 Q449 104 425.5 75.5 Q402 47 371.5 28 Q341 9 306 -0.5 Q271 -10 234 -10 Q183 -10 144.5 9 Q106 28 83 62.5 Q60 97 52.5 145 Q45 193 56 250 Q66 308 92 355.5 Q118 403 155.5 437.5 Q193 472 239.5 491 Q286 510 338 510 Z " />
<glyph glyph-name="afii10071" unicode="&#x451;" horiz-adv-x="539" d="M395 613 L403 652 L435 652 L428 613 L395 613 Z M262 613 L270 652 L302 652 L295 613 L262 613 Z M333 481 Q252 481 191 428.5 Q130 376 104 288 L289 288 Q377 288 419 315.5 Q461 343 461 388 Q461 405 454 422 Q447 439 431.5 452 Q416 465 391.5 473 Q367 481 333 481 Z M338 510 Q382 510 413 500 Q444 490 464 473 Q484 456 493 434.5 Q502 413 502 391 Q502 334 449.5 297 Q397 260 288 260 L98 260 Q96 254 96 250 Q87 199 92 156.5 Q97 114 115.5 83.5 Q134 53 165 36.5 Q196 20 239 20 Q269 20 298 28 Q327 36 351 51 Q375 66 393.5 89 Q412 112 422 142 L462 142 Q449 104 425.5 75.5 Q402 47 371.5 28 Q341 9 306 -0.5 Q271 -10 234 -10 Q183 -10 144.5 9 Q106 28 83 62.5 Q60 97 52.5 145 Q45 193 56 250 Q66 308 92 355.5 Q118 403 155.5 437.5 Q193 472 239.5 491 Q286 510 338 510 Z " />
<glyph glyph-name="afii10072" unicode="&#x436;" horiz-adv-x="664" d="M680 500 L407 260 L611 0 L561 0 L361 258 L631 500 L680 500 Z M399 500 L311 0 L271 0 L359 500 L399 500 Z M129 500 L313 258 L23 0 L-27 0 L267 260 L80 500 L129 500 Z " />
<glyph glyph-name="afii10073" unicode="&#x437;" horiz-adv-x="474" d="M286 510 Q375 510 414.5 474 Q454 438 445 384 Q439 354 424 331.5 Q409 309 386.5 293 Q364 277 336.5 268.5 Q309 260 278 257 Q310 255 336 246 Q362 237 379 220.5 Q396 204 403.5 180.5 Q411 157 406 127 Q401 100 383.5 75 Q366 50 338.5 31.5 Q311 13 274 1.5 Q237 -10 193 -10 Q110 -10 67.5 26 Q25 62 27 118 L66 118 Q64 75 98 47 Q132 19 199 19 Q235 19 264 28 Q293 37 314 52.5 Q335 68 347.5 87.5 Q360 107 364 128 Q374 185 335.5 213.5 Q297 242 215 242 L220 272 Q299 272 345.5 298.5 Q392 325 402 380 Q410 423 382 452 Q354 481 281 481 Q215 481 174.5 455.5 Q134 430 121 386 L81 386 Q99 442 152 476 Q205 510 286 510 Z " />
<glyph glyph-name="afii10074" unicode="&#x438;" horiz-adv-x="553" d="M176 500 L107 112 Q105 97 102 81 Q99 65 95 49 Q104 62 113 74.5 Q122 87 133 101 L462 500 L509 500 L421 0 L384 0 L455 407 Q458 422 461 437.5 Q464 453 469 468 L429 413 L91 0 L52 0 L140 500 L176 500 Z " />
<glyph glyph-name="afii10075" unicode="&#x439;" horiz-adv-x="553" d="M288 670 Q283 635 295.5 610.5 Q308 586 346 586 Q367 586 382 593.5 Q397 601 407.5 613 Q418 625 424 640 Q430 655 433 670 L462 669 Q454 624 423 594.5 Q392 565 342 565 Q293 565 272 594.5 Q251 624 259 669 L288 670 Z M176 500 L107 112 Q105 97 102 81 Q99 65 95 49 Q104 62 113 74.5 Q122 87 133 101 L462 500 L509 500 L421 0 L384 0 L455 407 Q458 422 461 437.5 Q464 453 469 468 L429 413 L91 0 L52 0 L140 500 L176 500 Z " />
<glyph glyph-name="afii10076" unicode="&#x43a;" horiz-adv-x="481" d="M484 500 L191 271 L415 0 L368 0 L145 269 L437 500 L484 500 Z M179 500 L91 0 L52 0 L140 500 L179 500 Z " />
<glyph glyph-name="afii10077" unicode="&#x43b;" horiz-adv-x="537" d="M493 500 L405 0 L365 0 L448 469 L252 469 Q246 434 232 385 Q218 336 199 282 Q180 228 155.5 175.5 Q131 123 104 83 Q76 44 44 21.5 Q12 -1 -23 -1 L-18 29 Q7 29 31 50 Q55 71 78 107 Q103 147 126 200 Q149 253 167.5 308 Q186 363 199.5 413.5 Q213 464 220 500 L493 500 Z " />
<glyph glyph-name="afii10078" unicode="&#x43c;" horiz-adv-x="669" d="M197 500 L293 96 Q296 84 298 69 Q300 54 302 39 Q309 54 316.5 69 Q324 84 331 96 L570 500 L625 500 L537 0 L501 0 L573 412 Q575 426 577.5 439.5 Q580 453 584 467 Q577 453 569.5 439.5 Q562 426 554 412 L313 0 L277 0 L179 411 Q175 425 172.5 440 Q170 455 168 469 Q167 455 164.5 440 Q162 425 160 411 L88 0 L52 0 L140 500 L197 500 Z " />
<glyph glyph-name="afii10079" unicode="&#x43d;" horiz-adv-x="559" d="M179 500 L139 274 L435 274 L476 500 L515 500 L427 0 L388 0 L430 243 L134 243 L91 0 L52 0 L140 500 L179 500 Z " />
<glyph glyph-name="afii10080" unicode="&#x43e;" horiz-adv-x="552" d="M325 510 Q376 510 414 491 Q452 472 475 437.5 Q498 403 505.5 355.5 Q513 308 503 250 Q492 191 468 143 Q444 95 409 61 Q374 27 329.5 8.5 Q285 -10 234 -10 Q183 -10 145 8.5 Q107 27 83.5 61 Q60 95 52.5 143 Q45 191 56 250 Q66 308 90 355.5 Q114 403 149.5 437.5 Q185 472 229.5 491 Q274 510 325 510 Z M320 479 Q278 479 241.5 462.5 Q205 446 175.5 415.5 Q146 385 126 343 Q106 301 97 250 Q88 198 93.5 156 Q99 114 117 84 Q135 54 166 37.5 Q197 21 239 21 Q281 21 317.5 37.5 Q354 54 383.5 84 Q413 114 433 156 Q453 198 462 250 Q471 301 465.5 343 Q460 385 442 415.5 Q424 446 393 462.5 Q362 479 320 479 Z " />
<glyph glyph-name="afii10081" unicode="&#x43f;" horiz-adv-x="550" d="M505 500 L417 0 L378 0 L461 469 L173 469 L91 0 L52 0 L140 500 L505 500 Z " />
<glyph glyph-name="afii10082" unicode="&#x440;" horiz-adv-x="576" d="M349 479 Q311 479 276.5 465 Q242 451 213.5 422 Q185 393 164 348.5 Q143 304 132 243 Q124 199 127.5 159 Q131 119 147.5 88.5 Q164 58 194 39.5 Q224 21 269 21 Q311 21 347 38 Q383 55 410.5 85 Q438 115 457.5 157 Q477 199 486 250 Q495 301 490.5 343 Q486 385 469 415 Q452 445 422 462 Q392 479 349 479 Z M361 510 Q411 510 447 491 Q483 472 504 437.5 Q525 403 531 355.5 Q537 308 527 250 Q517 193 494.5 145 Q472 97 439 62.5 Q406 28 363 9 Q320 -10 270 -10 Q235 -10 206.5 1.5 Q178 13 157.5 33 Q137 53 125.5 79.5 Q114 106 113 136 L54 -200 L15 -200 L139 500 L178 500 L153 361 Q165 390 184.5 417 Q204 444 230.5 464.5 Q257 485 290 497.5 Q323 510 361 510 Z " />
<glyph glyph-name="afii10083" unicode="&#x441;" horiz-adv-x="507" d="M327 510 Q364 510 396 500 Q428 490 451.5 470 Q475 450 488 421 Q501 392 500 354 L459 354 Q461 413 422.5 446 Q384 479 321 479 Q279 479 241.5 462 Q204 445 175 414.5 Q146 384 125.5 342 Q105 300 96 250 Q87 200 92.5 158 Q98 116 116.5 85.5 Q135 55 166.5 38 Q198 21 240 21 Q304 21 354 54 Q404 87 423 146 L464 146 Q452 108 428.5 79 Q405 50 374.5 30 Q344 10 308.5 0 Q273 -10 236 -10 Q184 -10 145.5 9 Q107 28 83.5 62.5 Q60 97 53 145 Q46 193 56 250 Q66 307 90 355 Q114 403 149.5 437.5 Q185 472 230 491 Q275 510 327 510 Z " />
<glyph glyph-name="afii10084" unicode="&#x442;" horiz-adv-x="410" d="M457 500 L451 469 L267 469 L185 0 L146 0 L228 469 L44 469 L49 500 L457 500 Z " />
<glyph glyph-name="afii10085" unicode="&#x443;" horiz-adv-x="453" d="M98 500 L181 90 Q185 74 186.5 59.5 Q188 45 189 28 Q196 44 203.5 58.5 Q211 73 220 90 L453 500 L493 500 L164 -78 Q122 -153 75 -181 Q28 -209 -26 -210 L-19 -173 Q22 -172 54.5 -153.5 Q87 -135 117 -84 L161 -10 L56 500 L98 500 Z " />
<glyph glyph-name="afii10086" unicode="&#x444;" horiz-adv-x="863" d="M296 479 Q260 479 228 462 Q196 445 170 415 Q144 385 125.5 343 Q107 301 98 250 Q89 199 93 157 Q97 115 112 85 Q127 55 153.5 38 Q180 21 216 21 Q254 21 287 39.5 Q320 58 345.5 88.5 Q371 119 388.5 159 Q406 199 414 243 Q425 304 419.5 348.5 Q414 393 397 422 Q380 451 353.5 465 Q327 479 296 479 Z M654 479 Q623 479 591.5 465 Q560 451 533 422 Q506 393 485 348.5 Q464 304 453 243 Q445 199 448.5 159 Q452 119 467 88.5 Q482 58 508.5 39.5 Q535 21 573 21 Q609 21 641 38 Q673 55 699.5 85 Q726 115 745 157 Q764 199 773 250 Q782 301 777.5 343 Q773 385 757.5 415 Q742 445 716 462 Q690 479 654 479 Z M296 510 Q329 510 354.5 497.5 Q380 485 397.5 464.5 Q415 444 424 417 Q433 390 435 361 L495 700 L534 700 L474 361 Q486 390 504.5 417 Q523 444 547.5 464.5 Q572 485 601.5 497.5 Q631 510 665 510 Q708 510 741 491 Q774 472 793.5 437.5 Q813 403 818.5 355.5 Q824 308 814 250 Q804 193 781.5 145 Q759 97 727.5 62.5 Q696 28 656.5 9 Q617 -10 574 -10 Q544 -10 518.5 1.5 Q493 13 474.5 33 Q456 53 445.5 79.5 Q435 106 434 136 L375 -200 L336 -200 L395 136 Q383 106 363.5 79.5 Q344 53 319 33 Q294 13 264.5 1.5 Q235 -10 205 -10 Q161 -10 128.5 9 Q96 28 76.5 62.5 Q57 97 51.5 145 Q46 193 56 250 Q66 308 88.5 355.5 Q111 403 142.5 437.5 Q174 472 213 491 Q252 510 296 510 Z " />
<glyph glyph-name="afii10087" unicode="&#x445;" horiz-adv-x="472" d="M123 500 L231 314 Q239 300 245 283 Q251 291 258 299 Q265 307 271 314 L445 500 L488 500 L263 259 L415 0 L367 0 L250 198 Q246 205 241.5 214 Q237 223 234 233 Q228 224 221 215 Q214 206 206 198 L22 0 L-23 0 L217 256 L76 500 L123 500 Z " />
<glyph glyph-name="afii10088" unicode="&#x446;" horiz-adv-x="559" d="M179 500 L96 30 L383 30 L466 500 L505 500 L422 30 L519 30 L479 -133 L449 -133 L473 0 L52 0 L140 500 L179 500 Z " />
<glyph glyph-name="afii10089" unicode="&#x447;" horiz-adv-x="552" d="M163 500 L131 320 Q118 244 140.5 198 Q163 152 234 152 Q266 152 299 163.5 Q332 175 361 199.5 Q390 224 412 263.5 Q434 303 444 360 L469 500 L508 500 L420 0 L381 0 L425 253 Q397 196 345.5 158 Q294 120 221 120 Q136 120 105 172 Q74 224 91 315 L124 500 L163 500 Z " />
<glyph glyph-name="afii10090" unicode="&#x448;" horiz-adv-x="874" d="M179 500 L96 30 L382 30 L465 500 L504 500 L421 30 L708 30 L791 500 L830 500 L742 0 L52 0 L140 500 L179 500 Z " />
<glyph glyph-name="afii10091" unicode="&#x449;" horiz-adv-x="898" d="M179 500 L96 30 L382 30 L465 500 L504 500 L421 30 L708 30 L791 500 L830 500 L747 30 L844 30 L804 -133 L774 -133 L798 0 L52 0 L140 500 L179 500 Z " />
<glyph glyph-name="afii10092" unicode="&#x44a;" horiz-adv-x="500" d="M192 500 L153 286 L332 286 Q372 286 398.5 274.5 Q425 263 439 243 Q453 223 456.5 197 Q460 171 455 141 Q450 111 437 85 Q424 59 402.5 40.5 Q381 22 351 11 Q321 0 282 0 L65 0 L147 468 L52 468 L58 500 L192 500 Z M108 30 L280 30 Q312 30 336 38.5 Q360 47 376 62 Q392 77 401.5 97 Q411 117 415 140 Q419 165 416.5 186 Q414 207 403 222.5 Q392 238 371.5 247 Q351 256 320 256 L149 256 L108 30 Z " />
<glyph glyph-name="afii10093" unicode="&#x44b;" horiz-adv-x="652" d="M179 500 L141 286 L319 286 Q359 286 385.5 274.5 Q412 263 426.5 243 Q441 223 444.5 197 Q448 171 442 141 Q437 111 424 85 Q411 59 389.5 40.5 Q368 22 338 11 Q308 0 269 0 L52 0 L140 500 L179 500 Z M96 30 L267 30 Q300 30 323.5 38.5 Q347 47 363.5 62 Q380 77 389.5 97 Q399 117 403 140 Q407 165 404.5 186 Q402 207 390.5 222.5 Q379 238 359 247 Q339 256 308 256 L136 256 L96 30 Z M608 500 L520 0 L481 0 L569 500 L608 500 Z " />
<glyph glyph-name="afii10094" unicode="&#x44c;" horiz-adv-x="488" d="M179 500 L141 286 L319 286 Q359 286 385.5 274.5 Q412 263 426.5 243 Q441 223 444.5 197 Q448 171 442 141 Q437 111 424 85 Q411 59 389.5 40.5 Q368 22 338 11 Q308 0 269 0 L52 0 L140 500 L179 500 Z M96 30 L267 30 Q300 30 323.5 38.5 Q347 47 363.5 62 Q380 77 389.5 97 Q399 117 403 140 Q407 165 404.5 186 Q402 207 390.5 222.5 Q379 238 359 247 Q339 256 308 256 L136 256 L96 30 Z " />
<glyph glyph-name="afii10095" unicode="&#x44d;" horiz-adv-x="507" d="M278 510 Q330 510 368.5 491 Q407 472 430 437.5 Q453 403 460.5 355 Q468 307 458 250 Q448 193 423.5 145 Q399 97 364 62.5 Q329 28 284 9 Q239 -10 187 -10 Q150 -10 118 -0.5 Q86 9 62.5 28 Q39 47 25.5 75.5 Q12 104 14 141 L55 141 Q53 82 91 50 Q129 18 193 18 Q235 18 271.5 34.5 Q308 51 337 81 Q366 111 386.5 152.5 Q407 194 416 244 L177 244 L181 272 L421 272 Q427 318 420 357 Q413 396 394 423.5 Q375 451 344.5 466.5 Q314 482 274 482 Q211 482 161 450 Q111 418 94 359 L52 359 Q64 396 87 424.5 Q110 453 140 472 Q170 491 205.5 500.5 Q241 510 278 510 Z " />
<glyph glyph-name="afii10096" unicode="&#x44e;" horiz-adv-x="758" d="M531 479 Q489 479 452.5 462.5 Q416 446 388 415.5 Q360 385 341 343 Q322 301 313 250 Q304 199 308.5 156.5 Q313 114 330.5 84 Q348 54 378 37.5 Q408 21 450 21 Q492 21 528 37.5 Q564 54 592 84 Q620 114 639.5 156.5 Q659 199 668 250 Q677 301 672.5 343 Q668 385 650.5 415.5 Q633 446 603 462.5 Q573 479 531 479 Z M179 500 L139 274 L276 274 Q288 326 312 369.5 Q336 413 370 444.5 Q404 476 446 493 Q488 510 536 510 Q587 510 624 491 Q661 472 683.5 438 Q706 404 713 356 Q720 308 710 250 Q699 191 675.5 143 Q652 95 617.5 61 Q583 27 539.5 8.5 Q496 -10 445 -10 Q395 -10 358 8 Q321 26 298.5 59 Q276 92 269 139 Q262 186 271 244 L134 244 L91 0 L52 0 L140 500 L179 500 Z " />
<glyph glyph-name="afii10097" unicode="&#x44f;" horiz-adv-x="528" d="M264 469 Q232 469 209 460.5 Q186 452 170.5 438 Q155 424 146 405.5 Q137 387 133 367 Q129 345 131.5 325 Q134 305 144.5 290 Q155 275 175 266 Q195 257 227 257 L402 257 L439 469 L264 469 Z M484 500 L396 0 L357 0 L397 228 L224 228 Q200 228 178 220.5 Q156 213 135.5 189 Q115 165 98 120 Q81 75 68 0 L28 0 Q41 74 58 119.5 Q75 165 94 190.5 Q113 216 134 226.5 Q155 237 175 242 Q124 253 104 287.5 Q84 322 92 371 Q97 396 109.5 419.5 Q122 443 143.5 461 Q165 479 195 489.5 Q225 500 264 500 L484 500 Z " />
<glyph glyph-name="afii10098" unicode="&#x491;" horiz-adv-x="439" d="M429 500 L454 598 L487 598 L464 468 L173 468 L91 0 L52 0 L140 500 L429 500 Z " />
<glyph glyph-name="afii10099" unicode="&#x452;" horiz-adv-x="572" d="M200 600 L161 377 Q174 405 194 429.5 Q214 454 240 472 Q266 490 297.5 500 Q329 510 365 510 Q450 510 480 457.5 Q510 405 494 315 L429 -57 Q417 -125 377.5 -154.5 Q338 -184 288 -185 L294 -152 Q329 -151 354.5 -131.5 Q380 -112 390 -57 L454 310 Q461 348 459 379 Q457 410 445 431.5 Q433 453 410 465 Q387 477 351 477 Q319 477 286 465.5 Q253 454 224.5 429.5 Q196 405 174 365.5 Q152 326 142 270 L95 0 L55 0 L160 600 L66 600 L71 629 L165 629 L178 700 L218 700 L205 629 L300 629 L295 600 L200 600 Z " />
<glyph glyph-name="afii10100" unicode="&#x453;" horiz-adv-x="439" d="M470 500 L464 468 L173 468 L91 0 L52 0 L140 500 L470 500 Z M434 707 L283 555 L254 555 L393 714 L434 707 Z " />
<glyph glyph-name="afii10101" unicode="&#x454;" horiz-adv-x="507" d="M327 510 Q364 510 396.5 500.5 Q429 491 452.5 472 Q476 453 489 424.5 Q502 396 501 359 L460 359 Q462 418 423.5 450 Q385 482 321 482 Q281 482 245.5 466.5 Q210 451 181 423.5 Q152 396 131.5 357 Q111 318 101 272 L340 272 L335 244 L96 244 Q87 194 93 152.5 Q99 111 117.5 81 Q136 51 167 34.5 Q198 18 240 18 Q303 18 353 50 Q403 82 421 141 L463 141 Q451 104 428 75.5 Q405 47 374.5 28 Q344 9 308.5 -0.5 Q273 -10 236 -10 Q184 -10 145.5 9 Q107 28 83.5 62.5 Q60 97 53 145 Q46 193 56 250 Q66 307 90.5 355 Q115 403 150 437.5 Q185 472 230 491 Q275 510 327 510 Z " />
<glyph glyph-name="afii10102" unicode="&#x455;" horiz-adv-x="484" d="M296 510 Q375 510 420 474.5 Q465 439 457 377 L418 377 Q422 401 414 420.5 Q406 440 389 453.5 Q372 467 347 474.5 Q322 482 292 482 Q254 482 225.5 473.5 Q197 465 177 451 Q157 437 145.5 419 Q134 401 131 382 Q126 355 134.5 337 Q143 319 161 307 Q179 295 203.5 288 Q228 281 255 276 Q288 270 320 261.5 Q352 253 376 237 Q400 221 412.5 195 Q425 169 418 128 Q413 101 397 76.5 Q381 52 354 32.5 Q327 13 288.5 1.5 Q250 -10 201 -10 Q162 -10 129 -0.5 Q96 9 73 26.5 Q50 44 38.5 69 Q27 94 32 125 L70 125 Q67 101 76.5 81 Q86 61 104.5 47.5 Q123 34 149.5 26.5 Q176 19 206 19 Q248 19 279 28.5 Q310 38 331 53 Q352 68 364 87 Q376 106 379 125 Q384 156 374.5 176.5 Q365 197 346 209.5 Q327 222 300.5 229.5 Q274 237 246 242 Q214 248 183.5 256 Q153 264 130.5 279 Q108 294 96.5 317.5 Q85 341 92 379 Q96 405 112 428.5 Q128 452 154 470 Q180 488 216 499 Q252 510 296 510 Z " />
<glyph glyph-name="afii10103" unicode="&#x456;" horiz-adv-x="223" d="M179 500 L91 0 L52 0 L140 500 L179 500 Z M206 646 L199 603 L156 603 L164 646 L206 646 Z " />
<glyph glyph-name="afii10104" unicode="&#x457;" horiz-adv-x="225" d="M52 0 L140 500 L179 500 L91 0 L52 0 Z M230 613 L238 652 L270 652 L263 613 L230 613 Z M97 613 L105 652 L137 652 L130 613 L97 613 Z " />
<glyph glyph-name="afii10105" unicode="&#x458;" horiz-adv-x="223" d="M206 646 L199 603 L156 603 L164 646 L206 646 Z M179 500 L76 -82 Q70 -116 56.5 -140 Q43 -164 24 -180 Q5 -196 -18 -203.5 Q-41 -211 -65 -211 L-59 -177 Q-22 -177 2.5 -157 Q27 -137 37 -81 L140 500 L179 500 Z " />
<glyph glyph-name="afii10106" unicode="&#x459;" horiz-adv-x="802" d="M493 500 L454 286 L633 286 Q673 286 699.5 274.5 Q726 263 740 243 Q754 223 757.5 197 Q761 171 756 141 Q751 111 738 85 Q725 59 703.5 40.5 Q682 22 652 11 Q622 0 583 0 L365 0 L448 469 L252 469 Q245 433 231.5 384 Q218 335 199 283 Q180 231 155.5 180 Q131 129 103 89 Q75 49 43 24 Q11 -1 -23 -1 L-18 29 Q8 29 34.5 54 Q61 79 85 119 Q109 159 130.5 210.5 Q152 262 169.5 314 Q187 366 200 415 Q213 464 220 500 L493 500 Z M409 30 L581 30 Q645 30 677 62 Q709 94 717 140 Q721 165 718 186 Q715 207 704 222.5 Q693 238 672.5 247 Q652 256 621 256 L450 256 L409 30 Z " />
<glyph glyph-name="afii10107" unicode="&#x45a;" horiz-adv-x="780" d="M179 500 L141 284 L410 284 L449 500 L488 500 L450 286 L611 286 Q651 286 677.5 274.5 Q704 263 718 243 Q732 223 735.5 197 Q739 171 734 141 Q729 111 716 85 Q703 59 681.5 40.5 Q660 22 630 11 Q600 0 561 0 L361 0 L406 254 L136 254 L91 0 L52 0 L140 500 L179 500 Z M405 30 L558 30 Q591 30 614.5 38.5 Q638 47 654.5 62 Q671 77 680.5 97 Q690 117 694 140 Q698 165 695.5 186 Q693 207 682 222.5 Q671 238 650.5 247 Q630 256 599 256 L445 256 L405 30 Z " />
<glyph glyph-name="afii10108" unicode="&#x45b;" horiz-adv-x="570" d="M196 600 L157 377 Q171 405 191.5 429.5 Q212 454 238 472 Q264 490 296 500 Q328 510 364 510 Q449 510 479 457.5 Q509 405 493 315 L438 0 L399 0 L453 310 Q460 348 458 379 Q456 410 444 431.5 Q432 453 409 465 Q386 477 350 477 Q318 477 285 465.5 Q252 454 222.5 429.5 Q193 405 170.5 365.5 Q148 326 138 270 L91 0 L52 0 L157 600 L102 600 L107 629 L162 629 L175 700 L214 700 L201 629 L336 629 L331 600 L196 600 Z " />
<glyph glyph-name="afii10109" unicode="&#x45c;" horiz-adv-x="481" d="M484 500 L191 271 L415 0 L368 0 L145 269 L437 500 L484 500 Z M179 500 L91 0 L52 0 L140 500 L179 500 Z M428 707 L277 555 L248 555 L387 714 L428 707 Z " />
<glyph glyph-name="afii10110" unicode="&#x45e;" horiz-adv-x="453" d="M98 500 L181 90 Q185 74 186.5 59.5 Q188 45 189 28 Q196 44 203.5 58.5 Q211 73 220 90 L453 500 L493 500 L164 -78 Q122 -153 75 -181 Q28 -209 -26 -210 L-19 -173 Q22 -172 54.5 -153.5 Q87 -135 117 -84 L161 -10 L56 500 L98 500 Z M237 670 Q232 635 244 610.5 Q256 586 294 586 Q315 586 330 593.5 Q345 601 355.5 613 Q366 625 372.5 640 Q379 655 382 670 L411 669 Q403 624 371.5 594.5 Q340 565 291 565 Q242 565 221 594.5 Q200 624 207 669 L237 670 Z " />
<glyph glyph-name="afii10145" unicode="&#x40f;" horiz-adv-x="668" d="M220 700 L103 34 L497 34 L614 700 L656 700 L533 0 L315 0 L283 -141 L255 -141 L271 0 L54 0 L177 700 L220 700 Z " />
<glyph glyph-name="afii10193" unicode="&#x45f;" horiz-adv-x="550" d="M179 500 L96 31 L383 31 L466 500 L505 500 L417 0 L254 0 L224 -133 L198 -133 L214 0 L52 0 L140 500 L179 500 Z " />
<glyph glyph-name="afii61352" unicode="&#x2116;" horiz-adv-x="1238" d="M699 0 L705 31 L1098 31 L1093 0 L699 0 Z M240 700 L487 110 Q492 96 497 80.5 Q502 65 507 49 Q508 66 510.5 84.5 Q513 103 516 120 L619 700 L661 700 L538 0 L485 0 L233 605 Q228 619 222.5 635.5 Q217 652 213 666 L203 600 L97 0 L54 0 L177 700 L240 700 Z M1007 679 Q965 679 928.5 662.5 Q892 646 862.5 615.5 Q833 585 813 543 Q793 501 784 450 Q775 398 780.5 356 Q786 314 804 284 Q822 254 853 237.5 Q884 221 926 221 Q968 221 1004.5 237.5 Q1041 254 1070.5 284 Q1100 314 1120 356 Q1140 398 1149 450 Q1158 501 1152.5 543 Q1147 585 1129 615.5 Q1111 646 1080 662.5 Q1049 679 1007 679 Z M1012 710 Q1063 710 1100.5 691 Q1138 672 1161.5 637.5 Q1185 603 1192.5 555.5 Q1200 508 1190 450 Q1179 391 1155 343 Q1131 295 1095.5 261 Q1060 227 1016 208.5 Q972 190 921 190 Q870 190 832 208.5 Q794 227 770.5 261 Q747 295 739.5 343 Q732 391 743 450 Q753 508 777 555.5 Q801 603 836.5 637.5 Q872 672 916.5 691 Q961 710 1012 710 Z " />
<glyph glyph-name="Alpha" unicode="&#x391;" horiz-adv-x="594" d="M374 673 Q362 647 349.5 623 Q337 599 326 579 L151 257 L451 257 L389 579 Q385 600 381 623.5 Q377 647 374 673 Z M411 700 L545 0 L498 0 L456 224 L134 224 L14 0 L-31 0 L350 700 L411 700 Z " />
<glyph glyph-name="Beta" unicode="&#x392;" horiz-adv-x="659" d="M346 34 Q391 34 425.5 47 Q460 60 484 81.5 Q508 103 522.5 131 Q537 159 542 189 Q547 219 541.5 248 Q536 277 519 299 Q502 321 472 334.5 Q442 348 399 348 L158 348 L103 34 L346 34 Z M54 0 L177 700 L457 700 Q508 700 541.5 685.5 Q575 671 594 648 Q613 625 618.5 595.5 Q624 566 619 535 Q613 506 600.5 478 Q588 450 567.5 427.5 Q547 405 518 389 Q489 373 451 367 Q490 363 518.5 347 Q547 331 563.5 307 Q580 283 585.5 252 Q591 221 585 188 Q579 151 560.5 117 Q542 83 512 57 Q482 31 441 15.5 Q400 0 349 0 L54 0 Z M394 379 Q437 379 468.5 392.5 Q500 406 522 427.5 Q544 449 556 475 Q568 501 572 527 Q576 553 573 578 Q570 603 555.5 622.5 Q541 642 513.5 654 Q486 666 443 666 L214 666 L164 379 L394 379 Z " />
<glyph glyph-name="Gamma" unicode="&#x393;" horiz-adv-x="532" d="M605 700 L599 666 L214 666 L97 0 L54 0 L177 700 L605 700 Z " />
<glyph glyph-name="Epsilon" unicode="&#x395;" horiz-adv-x="601" d="M54 0 L177 700 L627 700 L620 666 L214 666 L164 380 L513 380 L507 347 L158 347 L103 34 L512 34 L507 0 L54 0 Z " />
<glyph glyph-name="Zeta" unicode="&#x396;" horiz-adv-x="615" d="M2 0 L7 35 L593 666 L129 666 L135 700 L647 700 L641 664 L57 34 L543 34 L538 0 L2 0 Z " />
<glyph glyph-name="Eta" unicode="&#x397;" horiz-adv-x="677" d="M499 0 L560 347 L158 347 L97 0 L54 0 L177 700 L220 700 L164 381 L566 381 L622 700 L665 700 L542 0 L499 0 Z " />
<glyph glyph-name="Theta" unicode="&#x398;" horiz-adv-x="740" d="M539 379 L533 347 L246 347 L252 379 L539 379 Z M455 710 Q531 710 584 681 Q637 652 668 603 Q699 554 707.5 488.5 Q716 423 703 350 Q690 277 658.5 211.5 Q627 146 578.5 97 Q530 48 467 19 Q404 -10 328 -10 Q252 -10 199 19 Q146 48 114.5 97 Q83 146 74 211.5 Q65 277 78 350 Q91 423 123 488.5 Q155 554 203.5 603 Q252 652 315.5 681 Q379 710 455 710 Z M448 673 Q383 673 329 648.5 Q275 624 234 581 Q193 538 165 478.5 Q137 419 125 350 Q113 281 120 221.5 Q127 162 153 119 Q179 76 224 51.5 Q269 27 334 27 Q399 27 453 51.5 Q507 76 548.5 119 Q590 162 617.5 221.5 Q645 281 657 350 Q669 419 662.5 478.5 Q656 538 630 581 Q604 624 558.5 648.5 Q513 673 448 673 Z " />
<glyph glyph-name="Iota" unicode="&#x399;" horiz-adv-x="232" d="M220 700 L97 0 L54 0 L177 700 L220 700 Z " />
<glyph glyph-name="Kappa" unicode="&#x39a;" horiz-adv-x="574" d="M467 0 L174 365 L567 700 L620 700 L226 367 L522 0 L467 0 Z M54 0 L177 700 L220 700 L97 0 L54 0 Z " />
<glyph glyph-name="Lambda" unicode="&#x39b;" horiz-adv-x="594" d="M409 700 L545 0 L498 0 L383 602 Q381 617 379 633.5 Q377 650 375 667 Q368 650 360 634 Q352 618 344 602 L14 0 L-31 0 L352 700 L409 700 Z " />
<glyph glyph-name="Mu" unicode="&#x39c;" horiz-adv-x="816" d="M246 700 L370 105 Q372 91 373.5 75.5 Q375 60 377 46 Q383 61 390.5 77 Q398 93 406 107 L737 700 L804 700 L681 0 L639 0 L747 614 Q749 627 751.5 641.5 Q754 656 757 669 Q751 655 744 641.5 Q737 628 730 615 L387 0 L349 0 L221 616 Q216 641 213 669 Q212 656 209.5 641.5 Q207 627 204 615 L97 0 L54 0 L177 700 L246 700 Z " />
<glyph glyph-name="Nu" unicode="&#x39d;" horiz-adv-x="672" d="M240 700 L487 110 Q492 96 497 80.5 Q502 65 507 49 Q508 66 510.5 84.5 Q513 103 516 120 L619 700 L661 700 L538 0 L485 0 L233 605 Q228 619 222.5 635.5 Q217 652 213 666 L203 600 L97 0 L54 0 L177 700 L240 700 Z " />
<glyph glyph-name="Xi" unicode="&#x39e;" horiz-adv-x="627" d="M545 35 L539 0 L7 0 L13 35 L545 35 Z M546 381 L540 346 L128 346 L134 381 L546 381 Z M659 700 L653 665 L127 665 L133 700 L659 700 Z " />
<glyph glyph-name="Omicron" unicode="&#x39f;" horiz-adv-x="740" d="M455 710 Q531 710 584 681 Q637 652 668 603 Q699 554 707.5 488.5 Q716 423 703 350 Q690 277 658.5 211.5 Q627 146 578.5 97 Q530 48 467 19 Q404 -10 328 -10 Q252 -10 199 19 Q146 48 114.5 97 Q83 146 74 211.5 Q65 277 78 350 Q91 423 123 488.5 Q155 554 203.5 603 Q252 652 315.5 681 Q379 710 455 710 Z M448 673 Q383 673 329 648.5 Q275 624 234 581 Q193 538 165 478.5 Q137 419 125 350 Q113 281 120 221.5 Q127 162 153 119 Q179 76 224 51.5 Q269 27 334 27 Q399 27 453 51.5 Q507 76 548.5 119 Q590 162 617.5 221.5 Q645 281 657 350 Q669 419 662.5 478.5 Q656 538 630 581 Q604 624 558.5 648.5 Q513 673 448 673 Z " />
<glyph glyph-name="Pi" unicode="&#x3a0;" horiz-adv-x="668" d="M656 700 L533 0 L491 0 L608 666 L214 666 L97 0 L54 0 L177 700 L656 700 Z " />
<glyph glyph-name="Rho" unicode="&#x3a1;" horiz-adv-x="619" d="M214 666 L156 336 L394 336 Q435 336 467 349 Q499 362 521.5 384.5 Q544 407 558.5 438.5 Q573 470 579 506 Q585 539 582 568.5 Q579 598 565 619.5 Q551 641 523 653.5 Q495 666 452 666 L214 666 Z M465 700 Q516 700 550 684.5 Q584 669 602.5 643 Q621 617 626 581.5 Q631 546 624 506 Q617 464 600 427.5 Q583 391 554.5 363.5 Q526 336 486 320 Q446 304 393 304 L150 304 L97 0 L54 0 L177 700 L465 700 Z " />
<glyph glyph-name="Sigma" unicode="&#x3a3;" horiz-adv-x="597" d="M636 700 L630 666 L169 666 L350 370 L48 34 L533 34 L527 0 L-5 0 L0 35 L301 370 L122 664 L129 700 L636 700 Z " />
<glyph glyph-name="Tau" unicode="&#x3a4;" horiz-adv-x="556" d="M217 0 L334 666 L89 666 L95 700 L628 700 L622 666 L377 666 L260 0 L217 0 Z " />
<glyph glyph-name="Upsilon" unicode="&#x3a5;" horiz-adv-x="585" d="M230 0 L288 331 L88 700 L140 700 L317 367 L616 700 L664 700 L331 331 L273 0 L230 0 Z " />
<glyph glyph-name="Phi" unicode="&#x3a6;" horiz-adv-x="750" d="M122 356 Q114 307 123 267 Q132 227 159 198.5 Q186 170 230.5 154 Q275 138 337 137 L414 575 Q352 574 302 557.5 Q252 541 215 512.5 Q178 484 154.5 444 Q131 404 122 356 Z M671 356 Q680 404 670.5 444 Q661 484 634 512.5 Q607 541 562.5 557.5 Q518 574 457 575 L380 137 Q504 139 579 198.5 Q654 258 671 356 Z M479 700 L462 606 Q535 603 587.5 584.5 Q640 566 672 533.5 Q704 501 715.5 456 Q727 411 717 356 Q708 301 681 256 Q654 211 610.5 178.5 Q567 146 507.5 127.5 Q448 109 375 106 L356 0 L313 0 L332 106 Q258 109 205.5 127.5 Q153 146 121 178.5 Q89 211 78 256 Q67 301 76 356 Q86 411 113 456 Q140 501 183.5 533.5 Q227 566 286 584.5 Q345 603 419 606 L436 700 L479 700 Z " />
<glyph glyph-name="Chi" unicode="&#x3a7;" horiz-adv-x="608" d="M161 700 L312 428 Q317 417 322 406 Q327 395 331 382 Q339 395 349.5 406.5 Q360 418 368 428 L614 700 L663 700 L352 357 L552 0 L498 0 L340 284 Q335 295 329.5 306.5 Q324 318 321 332 Q311 318 301.5 306.5 Q292 295 281 284 L26 0 L-24 0 L299 355 L108 700 L161 700 Z " />
<glyph glyph-name="Psi" unicode="&#x3a8;" horiz-adv-x="688" d="M184 700 L135 423 Q127 381 139.5 352.5 Q152 324 179 305.5 Q206 287 245 278 Q284 269 330 268 L406 700 L449 700 L373 268 Q419 269 461 278 Q503 287 536 305.5 Q569 324 591.5 352.5 Q614 381 622 423 L670 700 L713 700 L663 417 Q654 368 627.5 333.5 Q601 299 561 277 Q521 255 471 244 Q421 233 366 231 L326 0 L283 0 L323 231 Q269 233 222.5 244 Q176 255 144 277 Q112 299 97 333.5 Q82 368 91 417 L141 700 L184 700 Z " />
<glyph glyph-name="Alphatonos" unicode="&#x386;" horiz-adv-x="594" d="M267 703 L200 544 L176 544 L221 703 L267 703 Z M374 673 Q362 647 349.5 623 Q337 599 326 579 L151 257 L451 257 L389 579 Q385 600 381 623.5 Q377 647 374 673 Z M411 700 L545 0 L498 0 L456 224 L134 224 L14 0 L-31 0 L350 700 L411 700 Z " />
<glyph glyph-name="Epsilontonos" unicode="&#x388;" horiz-adv-x="601" d="M54 0 L177 700 L627 700 L620 666 L214 666 L164 380 L513 380 L507 347 L158 347 L103 34 L512 34 L507 0 L54 0 Z M149 703 L82 544 L58 544 L103 703 L149 703 Z " />
<glyph glyph-name="Etatonos" unicode="&#x389;" horiz-adv-x="677" d="M149 703 L82 544 L58 544 L103 703 L149 703 Z M499 0 L560 347 L158 347 L97 0 L54 0 L177 700 L220 700 L164 381 L566 381 L622 700 L665 700 L542 0 L499 0 Z " />
<glyph glyph-name="Iotatonos" unicode="&#x38a;" horiz-adv-x="232" d="M149 703 L82 544 L58 544 L103 703 L149 703 Z M220 700 L97 0 L54 0 L177 700 L220 700 Z " />
<glyph glyph-name="Iotadieresis" unicode="&#x3aa;" horiz-adv-x="232" d="M262 766 L269 801 L301 801 L295 766 L262 766 Z M127 766 L133 801 L166 801 L159 766 L127 766 Z M54 0 L177 700 L220 700 L97 0 L54 0 Z " />
<glyph glyph-name="Omicrontonos" unicode="&#x38c;" horiz-adv-x="740" d="M455 710 Q531 710 584 681 Q637 652 668 603 Q699 554 707.5 488.5 Q716 423 703 350 Q690 277 658.5 211.5 Q627 146 578.5 97 Q530 48 467 19 Q404 -10 328 -10 Q252 -10 199 19 Q146 48 114.5 97 Q83 146 74 211.5 Q65 277 78 350 Q91 423 123 488.5 Q155 554 203.5 603 Q252 652 315.5 681 Q379 710 455 710 Z M448 673 Q383 673 329 648.5 Q275 624 234 581 Q193 538 165 478.5 Q137 419 125 350 Q113 281 120 221.5 Q127 162 153 119 Q179 76 224 51.5 Q269 27 334 27 Q399 27 453 51.5 Q507 76 548.5 119 Q590 162 617.5 221.5 Q645 281 657 350 Q669 419 662.5 478.5 Q656 538 630 581 Q604 624 558.5 648.5 Q513 673 448 673 Z M181 703 L114 544 L90 544 L135 703 L181 703 Z " />
<glyph glyph-name="Upsilontonos" unicode="&#x38e;" horiz-adv-x="585" d="M230 0 L288 331 L97 683 L39 544 L15 544 L60 703 L106 703 L104 700 L140 700 L317 367 L616 700 L664 700 L331 331 L273 0 L230 0 Z " />
<glyph glyph-name="Upsilondieresis" unicode="&#x3ab;" horiz-adv-x="585" d="M438 766 L445 801 L477 801 L471 766 L438 766 Z M303 766 L309 801 L342 801 L335 766 L303 766 Z M230 0 L288 331 L88 700 L140 700 L317 367 L616 700 L664 700 L331 331 L273 0 L230 0 Z " />
<glyph glyph-name="Omegatonos" unicode="&#x38f;" horiz-adv-x="740" d="M179 703 L112 544 L88 544 L133 703 L179 703 Z M455 710 Q530 710 583.5 682 Q637 654 668 605.5 Q699 557 708 492 Q717 427 704 354 Q695 301 675 252 Q655 203 626 161 Q597 119 559.5 86 Q522 53 476 34 L694 34 L688 0 L403 0 L409 36 Q459 49 500 77 Q541 105 572.5 146 Q604 187 625 239.5 Q646 292 657 352 Q669 421 662.5 480 Q656 539 630 582 Q604 625 558.5 649 Q513 673 448 673 Q383 673 329 649 Q275 625 234 582 Q193 539 165.5 480 Q138 421 126 352 Q115 292 118 239.5 Q121 187 138 146 Q155 105 186 77 Q217 49 262 36 L257 0 L-29 0 L-23 34 L194 34 Q155 53 129 86 Q103 119 89 161 Q75 203 72.5 252 Q70 301 79 354 Q92 427 124 492 Q156 557 204.5 605.5 Q253 654 316 682 Q379 710 455 710 Z " />
<glyph glyph-name="alpha" unicode="&#x3b1;" horiz-adv-x="590" d="M304 479 Q262 479 228 462 Q194 445 168 415 Q142 385 125 343 Q108 301 99 250 Q90 199 92.5 157 Q95 115 110 85 Q125 55 153.5 38 Q182 21 224 21 Q268 21 301 40 Q334 59 359.5 90 Q385 121 404.5 161.5 Q424 202 441 246 Q447 369 412 424 Q377 479 304 479 Z M304 510 Q354 510 385 492 Q416 474 433.5 444.5 Q451 415 457.5 377 Q464 339 464 299 L539 500 L578 500 L475 230 Q470 186 468.5 149.5 Q467 113 471 87 Q475 61 485 46.5 Q495 32 514 32 Q518 32 524.5 32 Q531 32 536 33 L531 0 Q523 -2 514 -2 Q505 -2 500 -2 Q476 -2 461.5 11.5 Q447 25 440 48.5 Q433 72 432 103.5 Q431 135 433 171 Q390 76 337.5 33 Q285 -10 213 -10 Q162 -10 127.5 9 Q93 28 73.5 62.5 Q54 97 50 145 Q46 193 56 250 Q66 308 87.5 355.5 Q109 403 140.5 437.5 Q172 472 213 491 Q254 510 304 510 Z " />
<glyph glyph-name="beta" unicode="&#x3b2;" horiz-adv-x="539" d="M369 710 Q418 710 450.5 697 Q483 684 501 661.5 Q519 639 524 609 Q529 579 523 545 Q510 469 457.5 425 Q405 381 314 376 Q408 368 451.5 322.5 Q495 277 480 191 Q474 154 457.5 118 Q441 82 412.5 53.5 Q384 25 342.5 7.5 Q301 -10 243 -10 Q129 -10 86.5 84 Q44 178 74 350 Q105 523 179.5 616.5 Q254 710 369 710 Z M362 678 Q314 678 274.5 655.5 Q235 633 204 590.5 Q173 548 151 487.5 Q129 427 116 351 Q103 275 103.5 214 Q104 153 119.5 110.5 Q135 68 167 45 Q199 22 248 22 Q299 22 333.5 38 Q368 54 390 78.5 Q412 103 423.5 134 Q435 165 440 195 Q454 273 409.5 315 Q365 357 255 357 L260 391 Q314 391 353.5 401 Q393 411 419.5 430 Q446 449 461 476 Q476 503 482 538 Q487 564 485 589 Q483 614 470.5 633.5 Q458 653 431.5 665.5 Q405 678 362 678 Z " />
<glyph glyph-name="gamma" unicode="&#x3b3;" horiz-adv-x="453" d="M99 504 Q105 479 113.5 440.5 Q122 402 131 356.5 Q140 311 149 263 Q158 215 166 170.5 Q174 126 180 90 Q186 54 189 32 Q215 72 250 131.5 Q285 191 321.5 256 Q358 321 393 385.5 Q428 450 453 500 L493 500 Q464 444 426.5 376 Q389 308 349 238 Q309 168 269.5 102 Q230 36 198 -15 L171 -200 L122 -200 L161 -13 Q153 38 139.5 108 Q126 178 111 250.5 Q96 323 81 388.5 Q66 454 55 496 L99 504 Z " />
<glyph glyph-name="delta" unicode="&#x3b4;" horiz-adv-x="551" d="M357 705 Q402 705 450 700 Q498 695 541 687 L535 652 Q492 660 444 666.5 Q396 673 351 673 Q320 673 293 669 Q266 665 244.5 655 Q223 645 208.5 628 Q194 611 190 586 Q186 563 199 546.5 Q212 530 234.5 519 Q257 508 286 502 Q315 496 345 493 Q441 483 480 416 Q519 349 499 240 Q489 183 465.5 137 Q442 91 407.5 58.5 Q373 26 329 8 Q285 -10 234 -10 Q183 -10 145 7.5 Q107 25 83.5 57.5 Q60 90 52 136 Q44 182 54 239 Q63 290 85 332.5 Q107 375 137.5 406.5 Q168 438 205.5 457 Q243 476 283 479 Q253 483 227 490.5 Q201 498 182.5 511 Q164 524 155 543 Q146 562 151 588 Q157 620 175 642.5 Q193 665 220.5 679 Q248 693 283 699 Q318 705 357 705 Z M318 460 Q276 460 239.5 444 Q203 428 173.5 399 Q144 370 124 329 Q104 288 95 239 Q86 190 92 149.5 Q98 109 116.5 80.5 Q135 52 165.5 36.5 Q196 21 238 21 Q280 21 316.5 36.5 Q353 52 382 80.5 Q411 109 431 149.5 Q451 190 460 239 Q468 288 463 328.5 Q458 369 440 398 Q422 427 391.5 443.5 Q361 460 318 460 Z " />
<glyph glyph-name="epsilon" unicode="&#x3b5;" horiz-adv-x="466" d="M283 510 Q361 510 404 476 Q447 442 445 386 L405 386 Q407 430 375 455.5 Q343 481 279 481 Q204 481 167 451.5 Q130 422 122 379 Q113 326 149.5 299 Q186 272 265 272 L259 242 Q178 242 130 211.5 Q82 181 72 127 Q68 106 72.5 86.5 Q77 67 92 52 Q107 37 132.5 28 Q158 19 197 19 Q263 19 307 47 Q351 75 365 118 L405 118 Q396 90 376.5 66.5 Q357 43 329 26 Q301 9 266.5 -0.5 Q232 -10 193 -10 Q147 -10 114 1 Q81 12 60.5 30.5 Q40 49 32.5 73.5 Q25 98 30 125 Q35 154 50.5 177.5 Q66 201 89 217.5 Q112 234 141.5 243.5 Q171 253 203 256 Q174 260 149.5 269 Q125 278 108 293.5 Q91 309 83.5 331 Q76 353 81 382 Q92 436 142.5 473 Q193 510 283 510 Z " />
<glyph glyph-name="zeta" unicode="&#x3b6;" horiz-adv-x="412" d="M485 700 L479 667 L191 331 Q146 279 122.5 241.5 Q99 204 93 169 Q88 139 101.5 119 Q115 99 137.5 84 Q160 69 187.5 55.5 Q215 42 237.5 26 Q260 10 273.5 -11 Q287 -32 281 -64 Q278 -82 266.5 -101.5 Q255 -121 238 -141 Q221 -161 199.5 -179 Q178 -197 154 -212 L137 -185 Q176 -159 204 -125.5 Q232 -92 237 -67 Q241 -40 227.5 -22.5 Q214 -5 190.5 9 Q167 23 140 35.5 Q113 48 90.5 64.5 Q68 81 55 105 Q42 129 49 165 Q56 204 81.5 245.5 Q107 287 157 345 L430 667 L87 667 L93 700 L485 700 Z " />
<glyph glyph-name="eta" unicode="&#x3b7;" horiz-adv-x="568" d="M179 500 L157 377 Q171 405 191 429.5 Q211 454 237 472 Q263 490 294.5 500 Q326 510 362 510 Q447 510 477 457.5 Q507 405 491 315 L400 -200 L361 -200 L451 310 Q464 386 441 431.5 Q418 477 347 477 Q315 477 282.5 465.5 Q250 454 221 429.5 Q192 405 170 365.5 Q148 326 138 270 L91 0 L52 0 L140 500 L179 500 Z " />
<glyph glyph-name="theta" unicode="&#x3b8;" horiz-adv-x="557" d="M284 373 Q341 373 393.5 394.5 Q446 416 487 448 Q492 554 456 615.5 Q420 677 339 677 Q297 677 265 664 Q233 651 211 629.5 Q189 608 176 580 Q163 552 157 522 Q152 493 156 466 Q160 439 175 418.5 Q190 398 216.5 385.5 Q243 373 284 373 Z M345 710 Q403 710 443 686 Q483 662 504.5 617 Q526 572 529 507.5 Q532 443 518 362 Q503 277 477 208.5 Q451 140 413.5 91.5 Q376 43 327.5 16.5 Q279 -10 218 -10 Q144 -10 113.5 33.5 Q83 77 97 155 Q107 209 97 238 Q87 267 49 267 Q40 267 27 264 L33 296 Q41 298 49.5 299 Q58 300 66 300 Q114 300 132 265 Q150 230 139 166 Q127 99 147.5 60.5 Q168 22 225 22 Q277 22 318 46.5 Q359 71 390 115.5 Q421 160 442.5 222.5 Q464 285 477 360 Q479 375 481 389 Q483 403 485 417 Q443 385 390.5 364 Q338 343 273 343 Q224 343 191 357.5 Q158 372 139.5 396.5 Q121 421 115.5 453.5 Q110 486 116 522 Q122 558 139 592 Q156 626 184.5 652 Q213 678 252.5 694 Q292 710 345 710 Z " />
<glyph glyph-name="iota" unicode="&#x3b9;" horiz-adv-x="236" d="M179 500 L112 121 Q104 76 114.5 54 Q125 32 161 32 Q164 32 171 32 Q178 32 183 33 L177 0 Q169 -2 160.5 -2 Q152 -2 147 -2 Q96 -2 78 24.5 Q60 51 71 111 L140 500 L179 500 Z " />
<glyph glyph-name="kappa" unicode="&#x3ba;" horiz-adv-x="451" d="M467 500 L196 271 L398 0 L348 0 L149 269 L418 500 L467 500 Z M179 500 L91 0 L52 0 L140 500 L179 500 Z " />
<glyph glyph-name="lambda" unicode="&#x3bb;" horiz-adv-x="453" d="M136 711 Q191 710 227.5 682 Q264 654 280 578 L405 4 L363 -4 L275 410 Q272 427 269.5 441 Q267 455 267 471 Q259 454 252 440 Q245 426 236 410 L9 0 L-32 0 L251 508 L234 582 Q221 633 196 653 Q171 673 130 674 L136 711 Z " />
<glyph glyph-name="nu" unicode="&#x3bd;" horiz-adv-x="453" d="M99 504 Q112 448 125 387.5 Q138 327 149.5 266 Q161 205 171.5 146.5 Q182 88 190 36 Q220 85 253.5 142.5 Q287 200 321.5 261 Q356 322 389.5 383 Q423 444 453 500 L493 500 Q459 438 422.5 373.5 Q386 309 349 244.5 Q312 180 276 118 Q240 56 207 0 L159 0 Q150 58 138 121 Q126 184 112.5 248.5 Q99 313 84.5 376 Q70 439 55 496 L99 504 Z " />
<glyph glyph-name="xi" unicode="&#x3be;" horiz-adv-x="435" d="M500 700 L494 669 Q438 642 381 612 Q324 582 277.5 550.5 Q231 519 199.5 486.5 Q168 454 162 422 Q158 399 173.5 382.5 Q189 366 217.5 355 Q246 344 285 338.5 Q324 333 367 333 L362 301 Q318 301 273.5 287.5 Q229 274 193 252.5 Q157 231 132.5 204.5 Q108 178 103 151 Q98 123 113 104 Q128 85 152.5 71 Q177 57 206.5 44.5 Q236 32 260.5 16.5 Q285 1 299.5 -19.5 Q314 -40 309 -70 Q306 -87 295 -106 Q284 -125 266.5 -144 Q249 -163 227 -181 Q205 -199 181 -213 L167 -187 Q205 -163 231.5 -130.5 Q258 -98 263 -74 Q268 -47 253 -30 Q238 -13 213 0 Q188 13 158.5 25 Q129 37 105 52.5 Q81 68 67 90.5 Q53 113 59 148 Q64 177 87.5 205 Q111 233 143.5 256 Q176 279 214 295 Q252 311 285 316 Q260 317 228.5 322.5 Q197 328 170 340 Q143 352 126.5 370.5 Q110 389 115 416 Q121 453 153.5 488 Q186 523 232 555.5 Q278 588 332.5 616.5 Q387 645 437 668 L95 668 L101 700 L500 700 Z " />
<glyph glyph-name="omicron" unicode="&#x3bf;" horiz-adv-x="552" d="M325 510 Q376 510 414 491 Q452 472 475 437.5 Q498 403 505.5 355.5 Q513 308 503 250 Q492 191 468 143 Q444 95 409 61 Q374 27 329.5 8.5 Q285 -10 234 -10 Q183 -10 145 8.5 Q107 27 83.5 61 Q60 95 52.5 143 Q45 191 56 250 Q66 308 90 355.5 Q114 403 149.5 437.5 Q185 472 229.5 491 Q274 510 325 510 Z M320 479 Q278 479 241.5 462.5 Q205 446 175.5 415.5 Q146 385 126 343 Q106 301 97 250 Q88 198 93.5 156 Q99 114 117 84 Q135 54 166 37.5 Q197 21 239 21 Q281 21 317.5 37.5 Q354 54 383.5 84 Q413 114 433 156 Q453 198 462 250 Q471 301 465.5 343 Q460 385 442 415.5 Q424 446 393 462.5 Q362 479 320 479 Z " />
<glyph glyph-name="rho" unicode="&#x3c1;" horiz-adv-x="575" d="M348 479 Q310 479 276 465 Q242 451 213.5 422 Q185 393 164 348.5 Q143 304 132 243 Q124 199 127.5 159 Q131 119 147 88.5 Q163 58 193 39.5 Q223 21 268 21 Q310 21 345.5 38 Q381 55 409 85 Q437 115 456 157 Q475 199 484 250 Q493 301 488.5 343 Q484 385 467 415 Q450 445 420 462 Q390 479 348 479 Z M354 510 Q406 510 443 491 Q480 472 502 437.5 Q524 403 530 355.5 Q536 308 526 250 Q516 193 493 145 Q470 97 437 62.5 Q404 28 361 9 Q318 -10 268 -10 Q233 -10 204.5 1.5 Q176 13 156 32.5 Q136 52 125 78.5 Q114 105 113 135 L54 -200 L15 -200 L93 244 Q105 314 130 364.5 Q155 415 189.5 447 Q224 479 265.5 494.5 Q307 510 354 510 Z " />
<glyph glyph-name="sigma" unicode="&#x3c3;" horiz-adv-x="566" d="M320 479 Q278 479 241.5 462.5 Q205 446 175.5 415.5 Q146 385 126 343 Q106 301 97 250 Q88 199 93.5 156.5 Q99 114 117 84 Q135 54 166 37.5 Q197 21 239 21 Q281 21 317.5 37.5 Q354 54 383.5 84 Q413 114 433 156.5 Q453 199 462 250 Q471 301 465.5 343 Q460 385 442 415.5 Q424 446 393 462.5 Q362 479 320 479 Z M325 510 Q391 510 451.5 505 Q512 500 578 500 L572 469 Q560 469 539.5 469.5 Q519 470 496.5 471.5 Q474 473 452.5 474.5 Q431 476 415 478 Q442 466 461.5 444.5 Q481 423 492.5 393 Q504 363 507 326 Q510 289 503 248 Q492 190 468 142.5 Q444 95 409 61 Q374 27 329.5 8.5 Q285 -10 234 -10 Q183 -10 145 8.5 Q107 27 83.5 61 Q60 95 52.5 143 Q45 191 56 250 Q66 308 90 356 Q114 404 149.5 438 Q185 472 229.5 491 Q274 510 325 510 Z " />
<glyph glyph-name="sigma1" unicode="&#x3c2;" horiz-adv-x="473" d="M306 510 Q356 510 390 497.5 Q424 485 445 464 Q466 443 475.5 415 Q485 387 486 357 L446 357 Q444 380 437.5 401.5 Q431 423 415 439.5 Q399 456 372 466 Q345 476 303 476 Q259 476 225 458.5 Q191 441 166 412.5 Q141 384 125 347.5 Q109 311 102 273 Q90 208 104.5 168.5 Q119 129 146.5 105 Q174 81 208 66.5 Q242 52 271 36.5 Q300 21 317.5 -1 Q335 -23 328 -61 Q325 -78 313 -98.5 Q301 -119 283.5 -139.5 Q266 -160 244 -179.5 Q222 -199 198 -213 L183 -188 Q202 -175 219.5 -159 Q237 -143 250.5 -126 Q264 -109 272.5 -92.5 Q281 -76 284 -62 Q289 -32 271 -15.5 Q253 1 224 14.5 Q195 28 161 43.5 Q127 59 101 86 Q75 113 61.5 157 Q48 201 61 271 Q69 316 89 359 Q109 402 140.5 435.5 Q172 469 213.5 489.5 Q255 510 306 510 Z " />
<glyph glyph-name="tau" unicode="&#x3c4;" horiz-adv-x="471" d="M501 500 L495 469 L289 469 L228 121 Q220 76 230.5 54 Q241 32 277 32 Q280 32 286.5 32 Q293 32 298 33 L293 0 Q285 -2 276 -2 Q267 -2 262 -2 Q212 -2 194 24.5 Q176 51 187 111 L250 469 L60 469 L66 500 L501 500 Z " />
<glyph glyph-name="upsilon" unicode="&#x3c5;" horiz-adv-x="579" d="M98 510 Q148 510 166.5 483.5 Q185 457 174 397 L137 190 Q123 114 155.5 68.5 Q188 23 260 23 Q332 23 379.5 68.5 Q427 114 441 190 L496 500 L535 500 L480 188 Q464 97 404.5 43.5 Q345 -10 254 -10 Q164 -10 122.5 43.5 Q81 97 98 188 L133 387 Q141 432 130.5 454 Q120 476 84 476 Q81 476 74 476 Q67 476 62 475 L68 508 Q75 510 84 510 Q93 510 98 510 Z " />
<glyph glyph-name="phi" unicode="&#x3c6;" horiz-adv-x="720" d="M337 21 Q397 24 447.5 45.5 Q498 67 536.5 101.5 Q575 136 600 181 Q625 226 634 277 Q643 330 639 368 Q635 406 621.5 430.5 Q608 455 586 466.5 Q564 478 537 478 Q482 478 442.5 435.5 Q403 393 385 295 L337 21 Z M329 479 Q281 473 241 453.5 Q201 434 171 403.5 Q141 373 121 334 Q101 295 93 251 Q75 149 128.5 88 Q182 27 297 21 L346 299 Q366 407 416.5 458.5 Q467 510 541 510 Q578 510 607.5 496 Q637 482 655.5 453 Q674 424 680 380.5 Q686 337 676 277 Q666 219 637 168 Q608 117 563.5 78.5 Q519 40 460 17 Q401 -6 331 -9 L298 -200 L259 -200 L292 -8 Q224 -5 174 14 Q124 33 93 66.5 Q62 100 51 147 Q40 194 50 251 Q59 302 83.5 347 Q108 392 145 426.5 Q182 461 230 483 Q278 505 335 510 L329 479 Z " />
<glyph glyph-name="chi" unicode="&#x3c7;" horiz-adv-x="472" d="M124 500 L216 234 Q219 224 222 212 Q225 200 227 188 L256 235 L444 500 L488 500 L245 162 L379 -200 L330 -200 L229 82 Q225 91 221.5 105.5 Q218 120 216 133 Q210 121 201.5 107 Q193 93 184 81 L-14 -200 L-58 -200 L199 158 L76 500 L124 500 Z " />
<glyph glyph-name="psi" unicode="&#x3c8;" horiz-adv-x="744" d="M474 700 L354 24 Q399 25 441 33.5 Q483 42 516.5 60.5 Q550 79 573 108 Q596 137 604 179 L661 500 L700 500 L643 175 Q634 126 606.5 92 Q579 58 539.5 36 Q500 14 450.5 3 Q401 -8 348 -9 L315 -200 L276 -200 L309 -9 Q257 -8 212 3 Q167 14 135 36 Q103 58 88 92.5 Q73 127 82 175 L140 500 L179 500 L122 179 Q114 137 127 108 Q140 79 167 61 Q194 43 232.5 34 Q271 25 315 24 L435 700 L474 700 Z " />
<glyph glyph-name="omega" unicode="&#x3c9;" horiz-adv-x="781" d="M321 478 Q275 477 237 459 Q199 441 170.5 410.5 Q142 380 123.5 338.5 Q105 297 96 248 Q86 190 90 147.5 Q94 105 109 77 Q124 49 147 35.5 Q170 22 199 22 Q221 22 246.5 29 Q272 36 296 54.5 Q320 73 338.5 104.5 Q357 136 366 186 L390 365 L438 365 L399 186 Q390 136 398 104.5 Q406 73 423 54.5 Q440 36 463 29 Q486 22 508 22 Q536 22 564.5 35.5 Q593 49 617.5 77 Q642 105 661 147.5 Q680 190 690 248 Q699 297 695 338.5 Q691 380 673.5 410.5 Q656 441 624.5 459 Q593 477 547 478 L552 510 Q615 506 654 482.5 Q693 459 713 423 Q733 387 736 341.5 Q739 296 731 248 Q708 119 647.5 54.5 Q587 -10 506 -10 Q477 -10 452.5 -2 Q428 6 409.5 22 Q391 38 380.5 61 Q370 84 370 114 Q359 84 340.5 61 Q322 38 298 22 Q274 6 246.5 -2 Q219 -10 190 -10 Q150 -10 120 6.5 Q90 23 72 55 Q54 87 49.5 135.5 Q45 184 56 248 Q64 296 83.5 341.5 Q103 387 135.5 423 Q168 459 215 482.5 Q262 506 326 510 L321 478 Z " />
<glyph glyph-name="alphatonos" unicode="&#x3ac;" horiz-adv-x="590" d="M426 703 L359 544 L335 544 L380 703 L426 703 Z M304 479 Q262 479 228 462 Q194 445 168 415 Q142 385 125 343 Q108 301 99 250 Q90 199 92.5 157 Q95 115 110 85 Q125 55 153.5 38 Q182 21 224 21 Q268 21 301 40 Q334 59 359.5 90 Q385 121 404.5 161.5 Q424 202 441 246 Q447 369 412 424 Q377 479 304 479 Z M304 510 Q354 510 385 492 Q416 474 433.5 444.5 Q451 415 457.5 377 Q464 339 464 299 L539 500 L578 500 L475 230 Q470 186 468.5 149.5 Q467 113 471 87 Q475 61 485 46.5 Q495 32 514 32 Q518 32 524.5 32 Q531 32 536 33 L531 0 Q523 -2 514 -2 Q505 -2 500 -2 Q476 -2 461.5 11.5 Q447 25 440 48.5 Q433 72 432 103.5 Q431 135 433 171 Q390 76 337.5 33 Q285 -10 213 -10 Q162 -10 127.5 9 Q93 28 73.5 62.5 Q54 97 50 145 Q46 193 56 250 Q66 308 87.5 355.5 Q109 403 140.5 437.5 Q172 472 213 491 Q254 510 304 510 Z " />
<glyph glyph-name="epsilontonos" unicode="&#x3ad;" horiz-adv-x="466" d="M283 510 Q361 510 404 476 Q447 442 445 386 L405 386 Q407 430 375 455.5 Q343 481 279 481 Q204 481 167 451.5 Q130 422 122 379 Q113 326 149.5 299 Q186 272 265 272 L259 242 Q178 242 130 211.5 Q82 181 72 127 Q68 106 72.5 86.5 Q77 67 92 52 Q107 37 132.5 28 Q158 19 197 19 Q263 19 307 47 Q351 75 365 118 L405 118 Q396 90 376.5 66.5 Q357 43 329 26 Q301 9 266.5 -0.5 Q232 -10 193 -10 Q147 -10 114 1 Q81 12 60.5 30.5 Q40 49 32.5 73.5 Q25 98 30 125 Q35 154 50.5 177.5 Q66 201 89 217.5 Q112 234 141.5 243.5 Q171 253 203 256 Q174 260 149.5 269 Q125 278 108 293.5 Q91 309 83.5 331 Q76 353 81 382 Q92 436 142.5 473 Q193 510 283 510 Z M365 703 L298 544 L274 544 L319 703 L365 703 Z " />
<glyph glyph-name="etatonos" unicode="&#x3ae;" horiz-adv-x="568" d="M411 703 L344 544 L320 544 L365 703 L411 703 Z M179 500 L157 377 Q171 405 191 429.5 Q211 454 237 472 Q263 490 294.5 500 Q326 510 362 510 Q447 510 477 457.5 Q507 405 491 315 L400 -200 L361 -200 L451 310 Q464 386 441 431.5 Q418 477 347 477 Q315 477 282.5 465.5 Q250 454 221 429.5 Q192 405 170 365.5 Q148 326 138 270 L91 0 L52 0 L140 500 L179 500 Z " />
<glyph glyph-name="iotatonos" unicode="&#x3af;" horiz-adv-x="236" d="M237 703 L170 544 L146 544 L191 703 L237 703 Z M179 500 L112 121 Q104 76 114.5 54 Q125 32 161 32 Q164 32 171 32 Q178 32 183 33 L177 0 Q169 -2 160.5 -2 Q152 -2 147 -2 Q96 -2 78 24.5 Q60 51 71 111 L140 500 L179 500 Z " />
<glyph glyph-name="iotadieresis" unicode="&#x3ca;" horiz-adv-x="236" d="M235 613 L243 652 L275 652 L268 613 L235 613 Z M102 613 L110 652 L142 652 L135 613 L102 613 Z M179 500 L112 121 Q104 76 114.5 54 Q125 32 161 32 Q164 32 171 32 Q178 32 183 33 L177 0 Q169 -2 160.5 -2 Q152 -2 147 -2 Q96 -2 78 24.5 Q60 51 71 111 L140 500 L179 500 Z " />
<glyph glyph-name="iotadieresistonos" unicode="&#x390;" horiz-adv-x="236" d="M241 605 L248 643 L279 643 L271 605 L241 605 Z M156 546 L174 705 L215 705 L178 546 L156 546 Z M81 605 L88 643 L119 643 L112 605 L81 605 Z M179 500 L112 121 Q104 76 114.5 54 Q125 32 161 32 Q164 32 171 32 Q178 32 183 33 L177 0 Q169 -2 160.5 -2 Q152 -2 147 -2 Q96 -2 78 24.5 Q60 51 71 111 L140 500 L179 500 Z " />
<glyph glyph-name="omicrontonos" unicode="&#x3cc;" horiz-adv-x="552" d="M325 510 Q376 510 414 491 Q452 472 475 437.5 Q498 403 505.5 355.5 Q513 308 503 250 Q492 191 468 143 Q444 95 409 61 Q374 27 329.5 8.5 Q285 -10 234 -10 Q183 -10 145 8.5 Q107 27 83.5 61 Q60 95 52.5 143 Q45 191 56 250 Q66 308 90 355.5 Q114 403 149.5 437.5 Q185 472 229.5 491 Q274 510 325 510 Z M320 479 Q278 479 241.5 462.5 Q205 446 175.5 415.5 Q146 385 126 343 Q106 301 97 250 Q88 198 93.5 156 Q99 114 117 84 Q135 54 166 37.5 Q197 21 239 21 Q281 21 317.5 37.5 Q354 54 383.5 84 Q413 114 433 156 Q453 198 462 250 Q471 301 465.5 343 Q460 385 442 415.5 Q424 446 393 462.5 Q362 479 320 479 Z M403 703 L336 544 L312 544 L357 703 L403 703 Z " />
<glyph glyph-name="upsilontonos" unicode="&#x3cd;" horiz-adv-x="579" d="M98 510 Q148 510 166.5 483.5 Q185 457 174 397 L137 190 Q123 114 155.5 68.5 Q188 23 260 23 Q332 23 379.5 68.5 Q427 114 441 190 L496 500 L535 500 L480 188 Q464 97 404.5 43.5 Q345 -10 254 -10 Q164 -10 122.5 43.5 Q81 97 98 188 L133 387 Q141 432 130.5 454 Q120 476 84 476 Q81 476 74 476 Q67 476 62 475 L68 508 Q75 510 84 510 Q93 510 98 510 Z M420 703 L353 544 L329 544 L374 703 L420 703 Z " />
<glyph glyph-name="upsilondieresistonos" unicode="&#x3b0;" horiz-adv-x="579" d="M423 605 L430 643 L461 643 L453 605 L423 605 Z M338 546 L356 705 L397 705 L360 546 L338 546 Z M263 605 L270 643 L301 643 L294 605 L263 605 Z M98 510 Q148 510 166.5 483.5 Q185 457 174 397 L137 190 Q123 114 155.5 68.5 Q188 23 260 23 Q332 23 379.5 68.5 Q427 114 441 190 L496 500 L535 500 L480 188 Q464 97 404.5 43.5 Q345 -10 254 -10 Q164 -10 122.5 43.5 Q81 97 98 188 L133 387 Q141 432 130.5 454 Q120 476 84 476 Q81 476 74 476 Q67 476 62 475 L68 508 Q75 510 84 510 Q93 510 98 510 Z " />
<glyph glyph-name="upsilondieresis" unicode="&#x3cb;" horiz-adv-x="579" d="M407 613 L415 652 L447 652 L440 613 L407 613 Z M274 613 L282 652 L314 652 L307 613 L274 613 Z M98 510 Q148 510 166.5 483.5 Q185 457 174 397 L137 190 Q123 114 155.5 68.5 Q188 23 260 23 Q332 23 379.5 68.5 Q427 114 441 190 L496 500 L535 500 L480 188 Q464 97 404.5 43.5 Q345 -10 254 -10 Q164 -10 122.5 43.5 Q81 97 98 188 L133 387 Q141 432 130.5 454 Q120 476 84 476 Q81 476 74 476 Q67 476 62 475 L68 508 Q75 510 84 510 Q93 510 98 510 Z " />
<glyph glyph-name="omegatonos" unicode="&#x3ce;" horiz-adv-x="781" d="M518 703 L451 544 L427 544 L472 703 L518 703 Z M321 478 Q275 477 237 459 Q199 441 170.5 410.5 Q142 380 123.5 338.5 Q105 297 96 248 Q86 190 90 147.5 Q94 105 109 77 Q124 49 147 35.5 Q170 22 199 22 Q221 22 246.5 29 Q272 36 296 54.5 Q320 73 338.5 104.5 Q357 136 366 186 L390 365 L438 365 L399 186 Q390 136 398 104.5 Q406 73 423 54.5 Q440 36 463 29 Q486 22 508 22 Q536 22 564.5 35.5 Q593 49 617.5 77 Q642 105 661 147.5 Q680 190 690 248 Q699 297 695 338.5 Q691 380 673.5 410.5 Q656 441 624.5 459 Q593 477 547 478 L552 510 Q615 506 654 482.5 Q693 459 713 423 Q733 387 736 341.5 Q739 296 731 248 Q708 119 647.5 54.5 Q587 -10 506 -10 Q477 -10 452.5 -2 Q428 6 409.5 22 Q391 38 380.5 61 Q370 84 370 114 Q359 84 340.5 61 Q322 38 298 22 Q274 6 246.5 -2 Q219 -10 190 -10 Q150 -10 120 6.5 Q90 23 72 55 Q54 87 49.5 135.5 Q45 184 56 248 Q64 296 83.5 341.5 Q103 387 135.5 423 Q168 459 215 482.5 Q262 506 326 510 L321 478 Z " />
<glyph glyph-name="tonos" unicode="&#x384;" horiz-adv-x="168" d="M212 703 L145 544 L121 544 L166 703 L212 703 Z " />
<glyph glyph-name="dieresistonos" unicode="&#x385;" horiz-adv-x="273" d="M267 605 L274 643 L305 643 L297 605 L267 605 Z M182 546 L200 705 L241 705 L204 546 L182 546 Z M107 605 L114 643 L145 643 L138 605 L107 605 Z " />
<glyph glyph-name="anoteleia" unicode="&#x387;" horiz-adv-x="574" d="M284 295 L275 243 L224 243 L233 295 L284 295 Z " />
<glyph glyph-name="Abreve" unicode="&#x102;" horiz-adv-x="604" d="M323 827 Q318 795 334.5 775 Q351 755 389 755 Q431 755 453.5 776.5 Q476 798 481 827 L505 825 Q497 783 465.5 756 Q434 729 384 729 Q335 729 313.5 756 Q292 783 299 825 L323 827 Z M380 678 Q369 652 355.5 627 Q342 602 331 582 L151 257 L461 257 L395 582 Q390 603 386.5 628 Q383 653 380 678 Z M416 700 L555 0 L508 0 L466 224 L134 224 L14 0 L-31 0 L355 700 L416 700 Z " />
<glyph glyph-name="Amacron" unicode="&#x100;" horiz-adv-x="604" d="M274 754 L279 781 L509 781 L504 754 L274 754 Z M380 678 Q369 652 355.5 627 Q342 602 331 582 L151 257 L461 257 L395 582 Q390 603 386.5 628 Q383 653 380 678 Z M416 700 L555 0 L508 0 L466 224 L134 224 L14 0 L-31 0 L355 700 L416 700 Z " />
<glyph glyph-name="Aogonek" unicode="&#x104;" horiz-adv-x="604" d="M380 678 Q369 652 355.5 627 Q342 602 331 582 L151 257 L461 257 L395 582 Q390 603 386.5 628 Q383 653 380 678 Z M508 0 L466 224 L134 224 L14 0 L-31 0 L355 700 L416 700 L555 0 L533 0 Q500 -23 475.5 -55.5 Q451 -88 445 -122 Q440 -153 456.5 -169.5 Q473 -186 502 -186 Q509 -186 516 -185 Q523 -184 530 -182 L526 -209 Q508 -212 492 -212 Q472 -212 455.5 -207 Q439 -202 428 -191.5 Q417 -181 412 -165 Q407 -149 411 -128 Q418 -91 444.5 -58 Q471 -25 510 0 L508 0 Z " />
<glyph glyph-name="Cacute" unicode="&#x106;" horiz-adv-x="674" d="M572 863 L423 726 L395 726 L534 870 L572 863 Z M637 184 Q618 141 587 105 Q556 69 516.5 43.5 Q477 18 429.5 4 Q382 -10 330 -10 Q255 -10 201 19 Q147 48 115.5 97 Q84 146 74.5 211.5 Q65 277 78 350 Q91 423 123.5 488.5 Q156 554 205 603 Q254 652 318 681 Q382 710 457 710 Q509 710 551.5 696 Q594 682 624.5 656.5 Q655 631 673 595 Q691 559 695 516 L651 516 Q644 586 591.5 629.5 Q539 673 451 673 Q386 673 331.5 648.5 Q277 624 235 581 Q193 538 165 478.5 Q137 419 125 350 Q113 281 120 221.5 Q127 162 153.5 119 Q180 76 226 51.5 Q272 27 337 27 Q381 27 420.5 38.5 Q460 50 493 70.5 Q526 91 551.5 120 Q577 149 592 184 L637 184 Z " />
<glyph glyph-name="Ccaron" unicode="&#x10c;" horiz-adv-x="674" d="M382 870 L465 755 L590 870 L613 863 L478 726 L444 726 L357 863 L382 870 Z M637 184 Q618 141 587 105 Q556 69 516.5 43.5 Q477 18 429.5 4 Q382 -10 330 -10 Q255 -10 201 19 Q147 48 115.5 97 Q84 146 74.5 211.5 Q65 277 78 350 Q91 423 123.5 488.5 Q156 554 205 603 Q254 652 318 681 Q382 710 457 710 Q509 710 551.5 696 Q594 682 624.5 656.5 Q655 631 673 595 Q691 559 695 516 L651 516 Q644 586 591.5 629.5 Q539 673 451 673 Q386 673 331.5 648.5 Q277 624 235 581 Q193 538 165 478.5 Q137 419 125 350 Q113 281 120 221.5 Q127 162 153.5 119 Q180 76 226 51.5 Q272 27 337 27 Q381 27 420.5 38.5 Q460 50 493 70.5 Q526 91 551.5 120 Q577 149 592 184 L637 184 Z " />
<glyph glyph-name="Ccircumflex" unicode="&#x108;" horiz-adv-x="674" d="M565 726 L482 842 L356 726 L334 733 L469 870 L503 870 L590 733 L565 726 Z M637 184 Q618 141 587 105 Q556 69 516.5 43.5 Q477 18 429.5 4 Q382 -10 330 -10 Q255 -10 201 19 Q147 48 115.5 97 Q84 146 74.5 211.5 Q65 277 78 350 Q91 423 123.5 488.5 Q156 554 205 603 Q254 652 318 681 Q382 710 457 710 Q509 710 551.5 696 Q594 682 624.5 656.5 Q655 631 673 595 Q691 559 695 516 L651 516 Q644 586 591.5 629.5 Q539 673 451 673 Q386 673 331.5 648.5 Q277 624 235 581 Q193 538 165 478.5 Q137 419 125 350 Q113 281 120 221.5 Q127 162 153.5 119 Q180 76 226 51.5 Q272 27 337 27 Q381 27 420.5 38.5 Q460 50 493 70.5 Q526 91 551.5 120 Q577 149 592 184 L637 184 Z " />
<glyph glyph-name="Cdotaccent" unicode="&#x10a;" horiz-adv-x="674" d="M449 766 L456 803 L494 803 L487 766 L449 766 Z M637 184 Q618 141 587 105 Q556 69 516.5 43.5 Q477 18 429.5 4 Q382 -10 330 -10 Q255 -10 201 19 Q147 48 115.5 97 Q84 146 74.5 211.5 Q65 277 78 350 Q91 423 123.5 488.5 Q156 554 205 603 Q254 652 318 681 Q382 710 457 710 Q509 710 551.5 696 Q594 682 624.5 656.5 Q655 631 673 595 Q691 559 695 516 L651 516 Q644 586 591.5 629.5 Q539 673 451 673 Q386 673 331.5 648.5 Q277 624 235 581 Q193 538 165 478.5 Q137 419 125 350 Q113 281 120 221.5 Q127 162 153.5 119 Q180 76 226 51.5 Q272 27 337 27 Q381 27 420.5 38.5 Q460 50 493 70.5 Q526 91 551.5 120 Q577 149 592 184 L637 184 Z " />
<glyph glyph-name="Dcroat" unicode="&#x110;" horiz-adv-x="709" d="M315 34 Q378 34 430.5 58 Q483 82 523 124.5 Q563 167 589.5 226 Q616 285 628 355 Q640 426 633 483.5 Q626 541 600.5 581.5 Q575 622 531 644 Q487 666 426 666 L214 666 L164 383 L282 383 L277 354 L159 354 L103 34 L315 34 Z M54 0 L116 354 L48 354 L53 383 L121 383 L177 700 L437 700 Q506 700 556.5 675 Q607 650 638 605 Q669 560 678.5 496.5 Q688 433 674 355 Q660 278 629 213 Q598 148 552 100.5 Q506 53 446.5 26.5 Q387 0 316 0 L54 0 Z " />
<glyph glyph-name="Dcaron" unicode="&#x10e;" horiz-adv-x="709" d="M339 870 L422 755 L547 870 L570 863 L435 726 L401 726 L314 863 L339 870 Z M315 34 Q378 34 430.5 58 Q483 82 523 124.5 Q563 167 589.5 226 Q616 285 628 355 Q640 426 633 483.5 Q626 541 600.5 581.5 Q575 622 531 644 Q487 666 426 666 L214 666 L103 34 L315 34 Z M54 0 L177 700 L437 700 Q506 700 556.5 675 Q607 650 638 605 Q669 560 678.5 496.5 Q688 433 674 355 Q660 278 629 213 Q598 148 552 100.5 Q506 53 446.5 26.5 Q387 0 316 0 L54 0 Z " />
<glyph glyph-name="Ebreve" unicode="&#x114;" horiz-adv-x="601" d="M354 827 Q349 795 365.5 775 Q382 755 420 755 Q462 755 484.5 776.5 Q507 798 512 827 L536 825 Q528 783 496.5 756 Q465 729 415 729 Q366 729 344.5 756 Q323 783 330 825 L354 827 Z M54 0 L177 700 L627 700 L620 666 L214 666 L164 380 L513 380 L507 347 L158 347 L103 34 L512 34 L507 0 L54 0 Z " />
<glyph glyph-name="Ecaron" unicode="&#x11a;" horiz-adv-x="601" d="M335 870 L418 755 L543 870 L566 863 L431 726 L397 726 L310 863 L335 870 Z M54 0 L177 700 L627 700 L620 666 L214 666 L164 380 L513 380 L507 347 L158 347 L103 34 L512 34 L507 0 L54 0 Z " />
<glyph glyph-name="Edotaccent" unicode="&#x116;" horiz-adv-x="601" d="M395 766 L402 803 L440 803 L433 766 L395 766 Z M54 0 L177 700 L627 700 L620 666 L214 666 L164 380 L513 380 L507 347 L158 347 L103 34 L512 34 L507 0 L54 0 Z " />
<glyph glyph-name="Emacron" unicode="&#x112;" horiz-adv-x="601" d="M303 754 L308 781 L538 781 L533 754 L303 754 Z M54 0 L177 700 L627 700 L620 666 L214 666 L164 380 L513 380 L507 347 L158 347 L103 34 L512 34 L507 0 L54 0 Z " />
<glyph glyph-name="Eogonek" unicode="&#x118;" horiz-adv-x="601" d="M54 0 L177 700 L627 700 L620 666 L214 666 L164 380 L513 380 L507 347 L158 347 L103 34 L512 34 L507 0 L456 0 Q423 -23 398.5 -55.5 Q374 -88 368 -122 Q363 -153 379.5 -169.5 Q396 -186 425 -186 Q432 -186 439 -185 Q446 -184 453 -182 L449 -209 Q431 -212 415 -212 Q395 -212 378.5 -207 Q362 -202 351 -191.5 Q340 -181 335 -165 Q330 -149 334 -128 Q341 -91 367.5 -58 Q394 -25 433 0 L54 0 Z " />
<glyph glyph-name="Gbreve" unicode="&#x11e;" horiz-adv-x="743" d="M395 827 Q390 795 406.5 775 Q423 755 461 755 Q503 755 525.5 776.5 Q548 798 553 827 L577 825 Q569 783 537.5 756 Q506 729 456 729 Q407 729 385.5 756 Q364 783 371 825 L395 827 Z M458 710 Q510 710 552 696 Q594 682 624.5 656.5 Q655 631 673 595 Q691 559 695 516 L651 516 Q644 586 591.5 629.5 Q539 673 451 673 Q386 673 331.5 648.5 Q277 624 235 581 Q193 538 165 478.5 Q137 419 125 350 Q113 280 120 220.5 Q127 161 153.5 118 Q180 75 225.5 50.5 Q271 26 336 26 Q382 26 427.5 43.5 Q473 61 511.5 97 Q550 133 579 188 Q608 243 621 319 L381 319 L387 352 L670 352 L608 0 L567 0 L600 192 Q586 156 562 120 Q538 84 503.5 55 Q469 26 424 8 Q379 -10 324 -10 Q252 -10 200 18 Q148 46 116.5 94.5 Q85 143 75 208.5 Q65 274 78 350 Q91 423 123.5 488.5 Q156 554 205 603 Q254 652 318 681 Q382 710 458 710 Z " />
<glyph glyph-name="Gcircumflex" unicode="&#x11c;" horiz-adv-x="743" d="M563 726 L480 842 L354 726 L332 733 L467 870 L501 870 L588 733 L563 726 Z M458 710 Q510 710 552 696 Q594 682 624.5 656.5 Q655 631 673 595 Q691 559 695 516 L651 516 Q644 586 591.5 629.5 Q539 673 451 673 Q386 673 331.5 648.5 Q277 624 235 581 Q193 538 165 478.5 Q137 419 125 350 Q113 280 120 220.5 Q127 161 153.5 118 Q180 75 225.5 50.5 Q271 26 336 26 Q382 26 427.5 43.5 Q473 61 511.5 97 Q550 133 579 188 Q608 243 621 319 L381 319 L387 352 L670 352 L608 0 L567 0 L600 192 Q586 156 562 120 Q538 84 503.5 55 Q469 26 424 8 Q379 -10 324 -10 Q252 -10 200 18 Q148 46 116.5 94.5 Q85 143 75 208.5 Q65 274 78 350 Q91 423 123.5 488.5 Q156 554 205 603 Q254 652 318 681 Q382 710 458 710 Z " />
<glyph glyph-name="Gcommaaccent" unicode="&#x122;" horiz-adv-x="743" d="M328 -55 L322 -93 Q316 -125 298.5 -150.5 Q281 -176 256 -196 L248 -183 Q290 -147 299 -97 L276 -97 L283 -55 L328 -55 Z M458 710 Q510 710 552 696 Q594 682 624.5 656.5 Q655 631 673 595 Q691 559 695 516 L651 516 Q644 586 591.5 629.5 Q539 673 451 673 Q386 673 331.5 648.5 Q277 624 235 581 Q193 538 165 478.5 Q137 419 125 350 Q113 280 120 220.5 Q127 161 153.5 118 Q180 75 225.5 50.5 Q271 26 336 26 Q382 26 427.5 43.5 Q473 61 511.5 97 Q550 133 579 188 Q608 243 621 319 L381 319 L387 352 L670 352 L608 0 L567 0 L600 192 Q586 156 562 120 Q538 84 503.5 55 Q469 26 424 8 Q379 -10 324 -10 Q252 -10 200 18 Q148 46 116.5 94.5 Q85 143 75 208.5 Q65 274 78 350 Q91 423 123.5 488.5 Q156 554 205 603 Q254 652 318 681 Q382 710 458 710 Z " />
<glyph glyph-name="Gdotaccent" unicode="&#x120;" horiz-adv-x="743" d="M441 766 L448 803 L486 803 L479 766 L441 766 Z M458 710 Q510 710 552 696 Q594 682 624.5 656.5 Q655 631 673 595 Q691 559 695 516 L651 516 Q644 586 591.5 629.5 Q539 673 451 673 Q386 673 331.5 648.5 Q277 624 235 581 Q193 538 165 478.5 Q137 419 125 350 Q113 280 120 220.5 Q127 161 153.5 118 Q180 75 225.5 50.5 Q271 26 336 26 Q382 26 427.5 43.5 Q473 61 511.5 97 Q550 133 579 188 Q608 243 621 319 L381 319 L387 352 L670 352 L608 0 L567 0 L600 192 Q586 156 562 120 Q538 84 503.5 55 Q469 26 424 8 Q379 -10 324 -10 Q252 -10 200 18 Q148 46 116.5 94.5 Q85 143 75 208.5 Q65 274 78 350 Q91 423 123.5 488.5 Q156 554 205 603 Q254 652 318 681 Q382 710 458 710 Z " />
<glyph glyph-name="Hcircumflex" unicode="&#x124;" horiz-adv-x="677" d="M526 726 L443 842 L317 726 L295 733 L430 870 L464 870 L551 733 L526 726 Z M499 0 L560 347 L158 347 L97 0 L54 0 L177 700 L220 700 L164 381 L566 381 L622 700 L665 700 L542 0 L499 0 Z " />
<glyph glyph-name="Hbar" unicode="&#x126;" horiz-adv-x="677" d="M566 381 L595 546 L193 546 L164 381 L566 381 Z M499 0 L560 347 L158 347 L97 0 L54 0 L150 546 L84 546 L89 573 L154 573 L177 700 L220 700 L197 573 L599 573 L622 700 L665 700 L642 573 L687 573 L683 546 L638 546 L542 0 L499 0 Z " />
<glyph glyph-name="Ibreve" unicode="&#x12c;" horiz-adv-x="232" d="M144 827 Q139 795 155.5 775 Q172 755 210 755 Q252 755 274.5 776.5 Q297 798 302 827 L326 825 Q318 783 286.5 756 Q255 729 205 729 Q156 729 134.5 756 Q113 783 120 825 L144 827 Z M54 0 L177 700 L220 700 L97 0 L54 0 Z " />
<glyph glyph-name="Idotaccent" unicode="&#x130;" horiz-adv-x="232" d="M191 766 L198 803 L236 803 L229 766 L191 766 Z M54 0 L177 700 L220 700 L97 0 L54 0 Z " />
<glyph glyph-name="Imacron" unicode="&#x12a;" horiz-adv-x="232" d="M94 754 L99 781 L329 781 L324 754 L94 754 Z M54 0 L177 700 L220 700 L97 0 L54 0 Z " />
<glyph glyph-name="Iogonek" unicode="&#x12e;" horiz-adv-x="232" d="M54 0 L177 700 L220 700 L97 0 L96 0 Q63 -23 38.5 -55.5 Q14 -88 8 -122 Q3 -153 19.5 -169.5 Q36 -186 65 -186 Q72 -186 79 -185 Q86 -184 93 -182 L89 -209 Q71 -212 55 -212 Q35 -212 18.5 -207 Q2 -202 -9 -191.5 Q-20 -181 -25 -165 Q-30 -149 -26 -128 Q-19 -91 7.5 -58 Q34 -25 73 0 L54 0 Z " />
<glyph glyph-name="Itilde" unicode="&#x128;" horiz-adv-x="232" d="M159 828 Q181 828 196 818.5 Q211 809 223 797 Q235 785 246.5 775.5 Q258 766 273 766 Q295 766 310.5 776.5 Q326 787 335 813 L353 809 Q341 774 318.5 757.5 Q296 741 270 741 Q249 741 235 751 Q221 761 209 772.5 Q197 784 184.5 794 Q172 804 154 804 Q132 804 117 793 Q102 782 93 756 L75 760 Q86 795 108.5 811.5 Q131 828 159 828 Z M54 0 L177 700 L220 700 L97 0 L54 0 Z " />
<glyph glyph-name="Jcircumflex" unicode="&#x134;" horiz-adv-x="499" d="M569 726 L486 842 L360 726 L338 733 L473 870 L507 870 L594 733 L569 726 Z M488 700 L393 165 Q379 87 321.5 38.5 Q264 -10 170 -10 Q90 -10 47.5 31.5 Q5 73 7 137 L52 137 Q50 91 82 58.5 Q114 26 177 26 Q217 26 247 37 Q277 48 298.5 67 Q320 86 332.5 111 Q345 136 350 165 L445 700 L488 700 Z " />
<glyph glyph-name="Kcommaaccent" unicode="&#x136;" horiz-adv-x="574" d="M263 -55 L257 -93 Q251 -125 233.5 -150.5 Q216 -176 191 -196 L183 -183 Q225 -147 234 -97 L211 -97 L218 -55 L263 -55 Z M467 0 L174 365 L567 700 L620 700 L226 367 L522 0 L467 0 Z M54 0 L177 700 L220 700 L97 0 L54 0 Z " />
<glyph glyph-name="Lacute" unicode="&#x139;" horiz-adv-x="532" d="M373 863 L224 726 L196 726 L335 870 L373 863 Z M54 0 L177 700 L220 700 L103 34 L488 34 L482 0 L54 0 Z " />
<glyph glyph-name="Lcaron" unicode="&#x13d;" horiz-adv-x="532" d="M347 710 L298 565 L277 565 L303 710 L347 710 Z M54 0 L177 700 L220 700 L103 34 L488 34 L482 0 L54 0 Z " />
<glyph glyph-name="Lcommaaccent" unicode="&#x13b;" horiz-adv-x="532" d="M282 -55 L276 -93 Q270 -125 252.5 -150.5 Q235 -176 210 -196 L202 -183 Q244 -147 253 -97 L230 -97 L237 -55 L282 -55 Z M54 0 L177 700 L220 700 L103 34 L488 34 L482 0 L54 0 Z " />
<glyph glyph-name="Lslash" unicode="&#x141;" horiz-adv-x="532" d="M54 0 L98 249 L26 188 L9 209 L105 291 L177 700 L220 700 L156 334 L317 471 L335 451 L148 292 L103 34 L488 34 L482 0 L54 0 Z " />
<glyph glyph-name="Nacute" unicode="&#x143;" horiz-adv-x="672" d="M547 863 L398 726 L370 726 L509 870 L547 863 Z M240 700 L487 110 Q492 96 497 80.5 Q502 65 507 49 Q508 66 510.5 84.5 Q513 103 516 120 L619 700 L661 700 L538 0 L485 0 L233 605 Q228 619 222.5 635.5 Q217 652 213 666 L203 600 L97 0 L54 0 L177 700 L240 700 Z " />
<glyph glyph-name="Ncaron" unicode="&#x147;" horiz-adv-x="672" d="M345 870 L428 755 L553 870 L576 863 L441 726 L407 726 L320 863 L345 870 Z M240 700 L487 110 Q492 96 497 80.5 Q502 65 507 49 Q508 66 510.5 84.5 Q513 103 516 120 L619 700 L661 700 L538 0 L485 0 L233 605 Q228 619 222.5 635.5 Q217 652 213 666 L203 600 L97 0 L54 0 L177 700 L240 700 Z " />
<glyph glyph-name="Ncommaaccent" unicode="&#x145;" horiz-adv-x="672" d="M316 -55 L310 -93 Q304 -125 286.5 -150.5 Q269 -176 244 -196 L236 -183 Q278 -147 287 -97 L264 -97 L271 -55 L316 -55 Z M240 700 L487 110 Q492 96 497 80.5 Q502 65 507 49 Q508 66 510.5 84.5 Q513 103 516 120 L619 700 L661 700 L538 0 L485 0 L233 605 Q228 619 222.5 635.5 Q217 652 213 666 L203 600 L97 0 L54 0 L177 700 L240 700 Z " />
<glyph glyph-name="Obreve" unicode="&#x14e;" horiz-adv-x="740" d="M396 827 Q391 795 407.5 775 Q424 755 462 755 Q504 755 526.5 776.5 Q549 798 554 827 L578 825 Q570 783 538.5 756 Q507 729 457 729 Q408 729 386.5 756 Q365 783 372 825 L396 827 Z M455 710 Q531 710 584 681 Q637 652 668 603 Q699 554 707.5 488.5 Q716 423 703 350 Q690 277 658.5 211.5 Q627 146 578.5 97 Q530 48 467 19 Q404 -10 328 -10 Q252 -10 199 19 Q146 48 114.5 97 Q83 146 74 211.5 Q65 277 78 350 Q91 423 123 488.5 Q155 554 203.5 603 Q252 652 315.5 681 Q379 710 455 710 Z M448 673 Q383 673 329 648.5 Q275 624 234 581 Q193 538 165 478.5 Q137 419 125 350 Q113 281 120 221.5 Q127 162 153 119 Q179 76 224 51.5 Q269 27 334 27 Q399 27 453 51.5 Q507 76 548.5 119 Q590 162 617.5 221.5 Q645 281 657 350 Q669 419 662.5 478.5 Q656 538 630 581 Q604 624 558.5 648.5 Q513 673 448 673 Z " />
<glyph glyph-name="Ohungarumlaut" unicode="&#x150;" horiz-adv-x="740" d="M626 863 L491 728 L467 728 L593 870 L626 863 Z M495 863 L361 728 L337 728 L462 870 L495 863 Z M455 710 Q531 710 584 681 Q637 652 668 603 Q699 554 707.5 488.5 Q716 423 703 350 Q690 277 658.5 211.5 Q627 146 578.5 97 Q530 48 467 19 Q404 -10 328 -10 Q252 -10 199 19 Q146 48 114.5 97 Q83 146 74 211.5 Q65 277 78 350 Q91 423 123 488.5 Q155 554 203.5 603 Q252 652 315.5 681 Q379 710 455 710 Z M448 673 Q383 673 329 648.5 Q275 624 234 581 Q193 538 165 478.5 Q137 419 125 350 Q113 281 120 221.5 Q127 162 153 119 Q179 76 224 51.5 Q269 27 334 27 Q399 27 453 51.5 Q507 76 548.5 119 Q590 162 617.5 221.5 Q645 281 657 350 Q669 419 662.5 478.5 Q656 538 630 581 Q604 624 558.5 648.5 Q513 673 448 673 Z " />
<glyph glyph-name="Omacron" unicode="&#x14c;" horiz-adv-x="740" d="M347 754 L352 781 L582 781 L577 754 L347 754 Z M455 710 Q531 710 584 681 Q637 652 668 603 Q699 554 707.5 488.5 Q716 423 703 350 Q690 277 658.5 211.5 Q627 146 578.5 97 Q530 48 467 19 Q404 -10 328 -10 Q252 -10 199 19 Q146 48 114.5 97 Q83 146 74 211.5 Q65 277 78 350 Q91 423 123 488.5 Q155 554 203.5 603 Q252 652 315.5 681 Q379 710 455 710 Z M448 673 Q383 673 329 648.5 Q275 624 234 581 Q193 538 165 478.5 Q137 419 125 350 Q113 281 120 221.5 Q127 162 153 119 Q179 76 224 51.5 Q269 27 334 27 Q399 27 453 51.5 Q507 76 548.5 119 Q590 162 617.5 221.5 Q645 281 657 350 Q669 419 662.5 478.5 Q656 538 630 581 Q604 624 558.5 648.5 Q513 673 448 673 Z " />
<glyph glyph-name="Racute" unicode="&#x154;" horiz-adv-x="650" d="M523 863 L374 726 L346 726 L485 870 L523 863 Z M400 358 Q443 358 475 370.5 Q507 383 528.5 405 Q550 427 563 456 Q576 485 582 517 Q587 548 584 575 Q581 602 566.5 622 Q552 642 524.5 654 Q497 666 454 666 L214 666 L161 358 L400 358 Z M492 0 Q510 106 508 170 Q506 234 489 268.5 Q472 303 444 314 Q416 325 383 325 L155 325 L97 0 L54 0 L177 700 L467 700 Q518 700 552 685.5 Q586 671 605 646.5 Q624 622 629 589.5 Q634 557 628 521 Q615 447 571.5 399.5 Q528 352 450 341 Q475 335 498 319 Q521 303 535 265.5 Q549 228 550.5 164.5 Q552 101 534 0 L492 0 Z " />
<glyph glyph-name="Rcaron" unicode="&#x158;" horiz-adv-x="650" d="M325 870 L408 755 L533 870 L556 863 L421 726 L387 726 L300 863 L325 870 Z M400 358 Q443 358 475 370.5 Q507 383 528.5 405 Q550 427 563 456 Q576 485 582 517 Q587 548 584 575 Q581 602 566.5 622 Q552 642 524.5 654 Q497 666 454 666 L214 666 L161 358 L400 358 Z M492 0 Q510 106 508 170 Q506 234 489 268.5 Q472 303 444 314 Q416 325 383 325 L155 325 L97 0 L54 0 L177 700 L467 700 Q518 700 552 685.5 Q586 671 605 646.5 Q624 622 629 589.5 Q634 557 628 521 Q615 447 571.5 399.5 Q528 352 450 341 Q475 335 498 319 Q521 303 535 265.5 Q549 228 550.5 164.5 Q552 101 534 0 L492 0 Z " />
<glyph glyph-name="Rcommaaccent" unicode="&#x156;" horiz-adv-x="650" d="M301 -55 L295 -93 Q289 -125 271.5 -150.5 Q254 -176 229 -196 L221 -183 Q263 -147 272 -97 L249 -97 L256 -55 L301 -55 Z M400 358 Q443 358 475 370.5 Q507 383 528.5 405 Q550 427 563 456 Q576 485 582 517 Q587 548 584 575 Q581 602 566.5 622 Q552 642 524.5 654 Q497 666 454 666 L214 666 L161 358 L400 358 Z M492 0 Q510 106 508 170 Q506 234 489 268.5 Q472 303 444 314 Q416 325 383 325 L155 325 L97 0 L54 0 L177 700 L467 700 Q518 700 552 685.5 Q586 671 605 646.5 Q624 622 629 589.5 Q634 557 628 521 Q615 447 571.5 399.5 Q528 352 450 341 Q475 335 498 319 Q521 303 535 265.5 Q549 228 550.5 164.5 Q552 101 534 0 L492 0 Z " />
<glyph glyph-name="Sacute" unicode="&#x15a;" horiz-adv-x="619" d="M511 863 L362 726 L334 726 L473 870 L511 863 Z M394 710 Q448 710 488.5 697.5 Q529 685 556.5 663.5 Q584 642 598 613 Q612 584 613 552 L568 552 Q566 577 555.5 599.5 Q545 622 523 639 Q501 656 467.5 666 Q434 676 387 676 Q334 676 295 663.5 Q256 651 229 630.5 Q202 610 186.5 583.5 Q171 557 166 530 Q159 490 170 464.5 Q181 439 205 423.5 Q229 408 262.5 399.5 Q296 391 334 385 Q382 378 426 367 Q470 356 502 334.5 Q534 313 549.5 278.5 Q565 244 556 191 Q549 151 526.5 114.5 Q504 78 467.5 50.5 Q431 23 381 6.5 Q331 -10 268 -10 Q214 -10 172 2.5 Q130 15 100.5 36.5 Q71 58 56 87 Q41 116 41 149 L86 149 Q87 124 99 101.5 Q111 79 134 61.5 Q157 44 192.5 34 Q228 24 275 24 Q327 24 368 37.5 Q409 51 438.5 73.5 Q468 96 485.5 125.5 Q503 155 509 187 Q517 231 503.5 258.5 Q490 286 462.5 303.5 Q435 321 397 330 Q359 339 318 346 Q273 353 233 363 Q193 373 165 393 Q137 413 124 445 Q111 477 120 528 Q126 562 146.5 595 Q167 628 201.5 653.5 Q236 679 284 694.5 Q332 710 394 710 Z " />
<glyph glyph-name="Scaron" unicode="&#x160;" horiz-adv-x="619" d="M317 870 L400 755 L525 870 L548 863 L413 726 L379 726 L292 863 L317 870 Z M394 710 Q448 710 488.5 697.5 Q529 685 556.5 663.5 Q584 642 598 613 Q612 584 613 552 L568 552 Q566 577 555.5 599.5 Q545 622 523 639 Q501 656 467.5 666 Q434 676 387 676 Q334 676 295 663.5 Q256 651 229 630.5 Q202 610 186.5 583.5 Q171 557 166 530 Q159 490 170 464.5 Q181 439 205 423.5 Q229 408 262.5 399.5 Q296 391 334 385 Q382 378 426 367 Q470 356 502 334.5 Q534 313 549.5 278.5 Q565 244 556 191 Q549 151 526.5 114.5 Q504 78 467.5 50.5 Q431 23 381 6.5 Q331 -10 268 -10 Q214 -10 172 2.5 Q130 15 100.5 36.5 Q71 58 56 87 Q41 116 41 149 L86 149 Q87 124 99 101.5 Q111 79 134 61.5 Q157 44 192.5 34 Q228 24 275 24 Q327 24 368 37.5 Q409 51 438.5 73.5 Q468 96 485.5 125.5 Q503 155 509 187 Q517 231 503.5 258.5 Q490 286 462.5 303.5 Q435 321 397 330 Q359 339 318 346 Q273 353 233 363 Q193 373 165 393 Q137 413 124 445 Q111 477 120 528 Q126 562 146.5 595 Q167 628 201.5 653.5 Q236 679 284 694.5 Q332 710 394 710 Z " />
<glyph glyph-name="&amp;#x15e;" unicode="&#x15e;" horiz-adv-x="619" d="M394 710 Q448 710 488.5 697.5 Q529 685 556.5 663.5 Q584 642 598 613 Q612 584 613 552 L568 552 Q566 577 555.5 599.5 Q545 622 523 639 Q501 656 467.5 666 Q434 676 387 676 Q334 676 295 663.5 Q256 651 229 630.5 Q202 610 186.5 583.5 Q171 557 166 530 Q159 490 170 464.5 Q181 439 205 423.5 Q229 408 262.5 399.5 Q296 391 334 385 Q382 378 426 367 Q470 356 502 334.5 Q534 313 549.5 278.5 Q565 244 556 191 Q549 151 526.5 114.5 Q504 78 467.5 50.5 Q431 23 381 6.5 Q331 -10 268 -10 L263 -10 L224 -66 Q234 -64 244.5 -63 Q255 -62 265 -62 Q316 -62 337.5 -83.5 Q359 -105 354 -137 Q348 -171 314 -196 Q280 -221 224 -221 Q194 -221 167.5 -212 Q141 -203 127 -187 L143 -170 Q152 -184 176.5 -190.5 Q201 -197 228 -197 Q273 -197 294.5 -180 Q316 -163 320 -141 Q324 -118 308.5 -99.5 Q293 -81 244 -81 Q231 -81 215 -82.5 Q199 -84 182 -88 L232 -8 Q140 0 90.5 44 Q41 88 41 149 L86 149 Q87 124 99 101.5 Q111 79 134 61.5 Q157 44 192.5 34 Q228 24 275 24 Q327 24 368 37.5 Q409 51 438.5 73.5 Q468 96 485.5 125.5 Q503 155 509 187 Q517 231 503.5 258.5 Q490 286 462.5 303.5 Q435 321 397 330 Q359 339 318 346 Q273 353 233 363 Q193 373 165 393 Q137 413 124 445 Q111 477 120 528 Q126 562 146.5 595 Q167 628 201.5 653.5 Q236 679 284 694.5 Q332 710 394 710 Z " />
</font>
</svg>
