<?xml version="1.0" encoding="UTF-8"?>
<svg xmlns="http://www.w3.org/2000/svg" xmlns:xlink="http://www.w3.org/1999/xlink" version="1.2" >
<font id="Trivia Sans Book Bold">
<font-face  font-family="Trivia Sans Book" units-per-em="1000" ascent="868" descent="-200" font-style="normal" font-weight="700" font-stretch="normal" cap-height="700" x-height="500" underline-position="-125" underline-thickness="50" />
<missing-glyph  horiz-adv-x="220" d="" />
<glyph glyph-name="space" unicode="&#x20;" horiz-adv-x="220" d="" />
<glyph glyph-name="D" unicode="D" horiz-adv-x="731" d="M356 95 Q551 95 551 351 Q551 480 501 542.5 Q451 605 353 605 L204 605 L204 95 L356 95 Z M83 0 L83 700 L377 700 Q446 700 501.5 676 Q557 652 596 607 Q635 562 656 498 Q677 434 677 353 Q677 273 657 207.5 Q637 142 599 96 Q561 50 506 25 Q451 0 382 0 L83 0 Z " />
<glyph glyph-name="E" unicode="E" horiz-adv-x="605" d="M83 0 L83 700 L555 700 L555 605 L204 605 L204 409 L495 409 L495 316 L204 316 L204 95 L562 95 L562 0 L83 0 Z " />
<glyph glyph-name="F" unicode="F" horiz-adv-x="568" d="M557 700 L557 605 L204 605 L204 389 L497 389 L497 296 L204 296 L204 0 L83 0 L83 700 L557 700 Z " />
<glyph glyph-name="G" unicode="G" horiz-adv-x="762" d="M386 710 Q447 710 497 693.5 Q547 677 584.5 647 Q622 617 645.5 575.5 Q669 534 675 484 L552 484 Q541 540 498.5 572 Q456 604 384 604 Q334 604 296.5 585.5 Q259 567 234 533 Q209 499 197 452.5 Q185 406 185 350 Q185 291 197 243.5 Q209 196 233 163 Q257 130 294 112 Q331 94 381 94 Q459 94 509 143 Q559 192 560 288 L373 288 L373 377 L680 377 L680 0 L566 0 L566 140 Q556 110 540 83 Q524 56 499 35.5 Q474 15 439 2.5 Q404 -10 356 -10 Q297 -10 242.5 14 Q188 38 146.5 83.5 Q105 129 80 196 Q55 263 55 350 Q55 426 78 491.5 Q101 557 143.5 605.5 Q186 654 247.5 682 Q309 710 386 710 Z " />
<glyph glyph-name="H" unicode="H" horiz-adv-x="703" d="M499 0 L499 315 L204 315 L204 0 L83 0 L83 700 L204 700 L204 410 L499 410 L499 700 L619 700 L619 0 L499 0 Z " />
<glyph glyph-name="I" unicode="I" horiz-adv-x="286" d="M83 0 L83 700 L204 700 L204 0 L83 0 Z " />
<glyph glyph-name="J" unicode="J" horiz-adv-x="555" d="M475 700 L475 205 Q475 155 458 115 Q441 75 409.5 47.5 Q378 20 332.5 5 Q287 -10 231 -10 Q132 -10 72.5 44 Q13 98 1 186 L126 186 Q129 149 154.5 121 Q180 93 235 93 Q299 93 326.5 121.5 Q354 150 354 204 L354 700 L475 700 Z " />
<glyph glyph-name="K" unicode="K" horiz-adv-x="654" d="M502 0 L211 367 L485 700 L626 700 L351 375 L648 0 L502 0 Z M83 0 L83 700 L204 700 L204 0 L83 0 Z " />
<glyph glyph-name="L" unicode="L" horiz-adv-x="544" d="M83 0 L83 700 L204 700 L204 95 L534 95 L534 0 L83 0 Z " />
<glyph glyph-name="M" unicode="M" horiz-adv-x="885" d="M271 700 L427 233 Q432 216 437 189 Q442 162 445 142 Q446 152 448 164.5 Q450 177 452.5 190 Q455 203 457.5 214.5 Q460 226 462 234 L615 700 L802 700 L802 0 L683 0 L683 513 Q683 533 683 560.5 Q683 588 685 607 Q681 586 675.5 562 Q670 538 665 519 L492 0 L393 0 L220 519 Q215 538 210.5 561.5 Q206 585 201 607 Q203 588 203 560 Q203 532 203 514 L203 0 L83 0 L83 700 L271 700 Z " />
<glyph glyph-name="N" unicode="N" horiz-adv-x="715" d="M253 700 L490 218 Q497 204 505 181 Q513 158 518 136 Q516 153 515 181 Q514 209 514 226 L514 700 L632 700 L632 0 L476 0 L227 514 Q220 530 212.5 553.5 Q205 577 200 596 Q201 588 201.5 577 Q202 566 202.5 554 Q203 542 203.5 530.5 Q204 519 204 512 L204 0 L83 0 L83 700 L253 700 Z " />
<glyph glyph-name="O" unicode="O" horiz-adv-x="765" d="M383 710 Q459 710 520 682 Q581 654 623 605.5 Q665 557 687.5 491.5 Q710 426 710 350 Q710 274 687.5 208.5 Q665 143 623 94.5 Q581 46 520 18 Q459 -10 383 -10 Q306 -10 245 18 Q184 46 142 94.5 Q100 143 77.5 208.5 Q55 274 55 350 Q55 426 77.5 491.5 Q100 557 142 605.5 Q184 654 245 682 Q306 710 383 710 Z M383 604 Q332 604 295 585.5 Q258 567 233.5 533 Q209 499 197 452.5 Q185 406 185 350 Q185 294 197 247.5 Q209 201 233.5 167 Q258 133 295 114.5 Q332 96 383 96 Q433 96 470 114.5 Q507 133 531.5 167 Q556 201 568 247.5 Q580 294 580 350 Q580 406 568 452.5 Q556 499 531.5 533 Q507 567 470 585.5 Q433 604 383 604 Z " />
<glyph glyph-name="P" unicode="P" horiz-adv-x="642" d="M204 605 L204 349 L370 349 Q432 349 459.5 386 Q487 423 487 481 Q487 535 460.5 570 Q434 605 370 605 L204 605 Z M399 700 Q452 700 491.5 683 Q531 666 557.5 636.5 Q584 607 597.5 567.5 Q611 528 611 484 Q611 438 598 397.5 Q585 357 558 327 Q531 297 490 279.5 Q449 262 392 262 L204 262 L204 0 L83 0 L83 700 L399 700 Z " />
<glyph glyph-name="Q" unicode="Q" horiz-adv-x="765" d="M452 218 L510 143 Q545 176 562.5 229.5 Q580 283 580 350 Q580 406 568 452.5 Q556 499 531.5 533 Q507 567 470 585.5 Q433 604 383 604 Q332 604 295 585.5 Q258 567 233.5 533 Q209 499 197 452.5 Q185 406 185 350 Q185 294 197 247.5 Q209 201 233.5 167 Q258 133 295 114.5 Q332 96 383 96 Q402 96 420 99 L331 218 L452 218 Z M383 710 Q459 710 520 682 Q581 654 623 605.5 Q665 557 687.5 491.5 Q710 426 710 350 Q710 256 676.5 179 Q643 102 580 53 L709 -113 L579 -113 L490 6 Q465 -2 438.5 -6 Q412 -10 383 -10 Q306 -10 245 18 Q184 46 142 94.5 Q100 143 77.5 208.5 Q55 274 55 350 Q55 426 77.5 491.5 Q100 557 142 605.5 Q184 654 245 682 Q306 710 383 710 Z " />
<glyph glyph-name="R" unicode="R" horiz-adv-x="675" d="M373 381 Q437 381 462.5 412.5 Q488 444 488 496 Q488 545 462.5 575 Q437 605 373 605 L204 605 L204 381 L373 381 Z M496 0 Q496 91 486 147.5 Q476 204 458 235 Q440 266 414 277 Q388 288 357 288 L204 288 L204 0 L83 0 L83 700 L405 700 Q460 700 499.5 685 Q539 670 564.5 644.5 Q590 619 602 585 Q614 551 614 512 Q614 437 574 389.5 Q534 342 454 334 Q487 329 516.5 313 Q546 297 568.5 260 Q591 223 604 160 Q617 97 617 0 L496 0 Z " />
<glyph glyph-name="S" unicode="S" horiz-adv-x="659" d="M332 710 Q394 710 443 694.5 Q492 679 526.5 652 Q561 625 581 587.5 Q601 550 605 506 L480 506 Q477 530 468 549.5 Q459 569 441.5 583.5 Q424 598 396.5 606 Q369 614 329 614 Q290 614 263.5 605.5 Q237 597 220.5 583 Q204 569 197 551 Q190 533 190 513 Q190 486 200 469 Q210 452 229.5 440.5 Q249 429 277 422.5 Q305 416 340 412 Q399 406 448.5 393 Q498 380 533.5 356.5 Q569 333 589 298 Q609 263 609 213 Q609 165 590.5 124.5 Q572 84 536 54 Q500 24 447.5 7 Q395 -10 327 -10 Q265 -10 215 5.5 Q165 21 130 48.5 Q95 76 74.5 113.5 Q54 151 50 195 L175 195 Q180 148 216 116.5 Q252 85 331 85 Q370 85 397.5 94 Q425 103 443 118 Q461 133 469 153 Q477 173 477 195 Q477 224 466 243 Q455 262 434 274 Q413 286 382.5 293 Q352 300 313 305 Q253 312 206 325.5 Q159 339 126.5 361.5 Q94 384 77 418.5 Q60 453 60 503 Q60 545 77 582.5 Q94 620 128.5 648.5 Q163 677 213.5 693.5 Q264 710 332 710 Z " />
<glyph glyph-name="T" unicode="T" horiz-adv-x="601" d="M241 0 L241 605 L11 605 L11 700 L591 700 L591 605 L361 605 L361 0 L241 0 Z " />
<glyph glyph-name="U" unicode="U" horiz-adv-x="711" d="M513 700 L635 700 L635 206 Q635 152 611.5 111.5 Q588 71 549 44 Q510 17 459 3.5 Q408 -10 353 -10 Q298 -10 248 3.5 Q198 17 160 44 Q122 71 99.5 111.5 Q77 152 77 206 L77 700 L198 700 L198 229 Q198 157 238 124 Q278 91 356 91 Q434 91 473.5 124.5 Q513 158 513 229 L513 700 Z " />
<glyph glyph-name="V" unicode="V" horiz-adv-x="637" d="M125 700 L303 169 Q308 154 312 137.5 Q316 121 320 104 Q326 135 337 169 L516 700 L644 700 L401 0 L235 0 L-6 700 L125 700 Z " />
<glyph glyph-name="W" unicode="W" horiz-adv-x="964" d="M143 700 L270 202 Q275 187 279.5 164 Q284 141 286 120 Q289 141 293.5 163.5 Q298 186 302 202 L428 700 L539 700 L667 203 Q671 187 675.5 164 Q680 141 683 120 Q685 141 689.5 164 Q694 187 698 203 L828 700 L948 700 L758 0 L610 0 L497 436 Q492 454 488.5 476.5 Q485 499 483 519 Q481 499 477.5 476.5 Q474 454 469 436 L356 0 L208 0 L17 700 L143 700 Z " />
<glyph glyph-name="X" unicode="X" horiz-adv-x="671" d="M159 700 L306 491 Q315 477 323.5 461 Q332 445 338 428 Q346 445 354.5 461.5 Q363 478 373 492 L519 700 L659 700 L410 356 L668 0 L517 0 L364 217 Q354 232 345 248.5 Q336 265 330 282 Q317 249 295 216 L143 0 L3 0 L259 353 L8 700 L159 700 Z " />
<glyph glyph-name="Y" unicode="Y" horiz-adv-x="643" d="M262 0 L262 308 L-6 700 L135 700 L326 410 L518 700 L650 700 L382 308 L382 0 L262 0 Z " />
<glyph glyph-name="Z" unicode="Z" horiz-adv-x="626" d="M40 0 L40 95 L440 605 L50 605 L50 700 L583 700 L583 604 L184 95 L590 95 L590 0 L40 0 Z " />
<glyph glyph-name="AE" unicode="&#xc6;" horiz-adv-x="950" d="M428 281 L428 588 L224 281 L428 281 Z M428 0 L428 189 L168 189 L43 0 L-92 0 L377 700 L900 700 L900 605 L549 605 L549 409 L840 409 L840 316 L549 316 L549 95 L907 95 L907 0 L428 0 Z " />
<glyph glyph-name="OE" unicode="&#x152;" horiz-adv-x="1055" d="M383 604 Q332 604 295 585.5 Q258 567 233.5 533 Q209 499 197 452.5 Q185 406 185 350 Q185 294 197 247.5 Q209 201 233.5 167 Q258 133 295 114.5 Q332 96 383 96 Q433 96 470 114.5 Q507 133 531.5 167 Q556 201 568 247.5 Q580 294 580 350 Q580 406 568 452.5 Q556 499 531.5 533 Q507 567 470 585.5 Q433 604 383 604 Z M383 710 Q406 710 426.5 707.5 Q447 705 467 700 L1005 700 L1005 605 L604 605 Q649 574 674 522.5 Q699 471 704 409 L944 409 L944 316 L707 316 Q704 245 678 187 Q652 129 604 95 L1011 95 L1011 0 L467 0 Q447 -5 426.5 -7.5 Q406 -10 383 -10 Q306 -10 245 18 Q184 46 142 94.5 Q100 143 77.5 208.5 Q55 274 55 350 Q55 426 77.5 491.5 Q100 557 142 605.5 Q184 654 245 682 Q306 710 383 710 Z " />
<glyph glyph-name="Oslash" unicode="&#xd8;" horiz-adv-x="765" d="M383 604 Q332 604 295 585.5 Q258 567 233.5 533 Q209 499 197 452.5 Q185 406 185 350 Q185 304 192.5 265 Q200 226 217 194 L486 576 Q442 604 383 604 Z M580 350 Q580 443 547 506 L278 124 Q322 96 383 96 Q433 96 470 114.5 Q507 133 531.5 167 Q556 201 568 247.5 Q580 294 580 350 Z M684 700 L620 609 Q664 560 687 494 Q710 428 710 350 Q710 274 687.5 208.5 Q665 143 623 94.5 Q581 46 520 18 Q459 -10 383 -10 Q334 -10 291.5 1.5 Q249 13 214 34 L190 0 L80 0 L144 91 Q100 140 77.5 206 Q55 272 55 350 Q55 426 77.5 491.5 Q100 557 142 605.5 Q184 654 245 682 Q306 710 383 710 Q431 710 473 698.5 Q515 687 550 666 L574 700 L684 700 Z " />
<glyph glyph-name="a" unicode="a" horiz-adv-x="539" d="M311 233 Q235 233 196 213 Q157 193 157 146 Q157 113 176.5 95 Q196 77 231 77 Q257 77 280 85 Q303 93 320 109 Q337 125 347 147 Q357 169 357 198 L357 232 Q346 233 334.5 233 Q323 233 311 233 Z M275 510 Q330 510 367.5 498 Q405 486 427 464.5 Q449 443 458.5 414 Q468 385 468 351 L468 0 L357 0 L357 86 Q336 40 297 16 Q258 -8 195 -8 Q124 -8 83.5 29 Q43 66 43 129 Q43 214 105.5 260 Q168 306 308 306 Q320 306 333 305.5 Q346 305 357 304 L357 351 Q357 386 338.5 406.5 Q320 427 269 427 Q218 427 190.5 406 Q163 385 161 347 L57 347 Q63 424 118.5 467 Q174 510 275 510 Z " />
<glyph glyph-name="b" unicode="b" horiz-adv-x="573" d="M302 417 Q244 417 210.5 374.5 Q177 332 177 247 Q177 213 184.5 183.5 Q192 154 207 131.5 Q222 109 245.5 96 Q269 83 302 83 Q362 83 391 127.5 Q420 172 420 250 Q420 328 391 372.5 Q362 417 302 417 Z M177 700 L177 399 Q194 445 231 477.5 Q268 510 329 510 Q376 510 414 491 Q452 472 479 438 Q506 404 520.5 356 Q535 308 535 250 Q535 192 520.5 144 Q506 96 479 62 Q452 28 414 9 Q376 -10 329 -10 Q300 -10 276 -1 Q252 8 233 23 Q214 38 200 57.5 Q186 77 177 99 L177 0 L66 0 L66 700 L177 700 Z " />
<glyph glyph-name="c" unicode="c" horiz-adv-x="514" d="M274 510 Q317 510 354.5 497 Q392 484 421 459.5 Q450 435 467.5 400.5 Q485 366 488 324 L376 324 Q372 365 345 391.5 Q318 418 270 418 Q208 418 178 372.5 Q148 327 148 250 Q148 173 178 127.5 Q208 82 270 82 Q318 82 345 108.5 Q372 135 376 176 L488 176 Q485 134 467.5 99.5 Q450 65 421 40.5 Q392 16 354.5 3 Q317 -10 274 -10 Q218 -10 174 8.5 Q130 27 99.5 61.5 Q69 96 53 143.5 Q37 191 37 250 Q37 308 53 356 Q69 404 99.5 438.5 Q130 473 174 491.5 Q218 510 274 510 Z " />
<glyph glyph-name="d" unicode="d" horiz-adv-x="573" d="M271 417 Q211 417 181.5 372.5 Q152 328 152 250 Q152 172 181.5 127.5 Q211 83 271 83 Q303 83 326.5 96 Q350 109 365 131.5 Q380 154 387.5 183.5 Q395 213 395 247 Q395 332 362 374.5 Q329 417 271 417 Z M244 510 Q305 510 341.5 477.5 Q378 445 395 399 L395 700 L506 700 L506 0 L395 0 L395 99 Q386 77 372.5 57.5 Q359 38 340 23 Q321 8 297 -1 Q273 -10 244 -10 Q197 -10 159 9 Q121 28 94 62 Q67 96 52 144 Q37 192 37 250 Q37 308 52 356 Q67 404 94 438 Q121 472 159 491 Q197 510 244 510 Z " />
<glyph glyph-name="e" unicode="e" horiz-adv-x="530" d="M271 427 Q168 427 150 305 L381 305 Q379 358 351.5 392.5 Q324 427 271 427 Z M275 510 Q334 510 376.5 487 Q419 464 446 425.5 Q473 387 485 336.5 Q497 286 494 230 L147 230 Q151 155 181 117 Q211 79 271 79 Q313 79 341.5 100 Q370 121 375 160 L486 160 Q482 122 464 91 Q446 60 417.5 37.5 Q389 15 351.5 2.5 Q314 -10 272 -10 Q218 -10 174.5 8.5 Q131 27 100.5 61 Q70 95 53.5 143.5 Q37 192 37 251 Q37 309 53.5 356.5 Q70 404 100.5 438 Q131 472 175 491 Q219 510 275 510 Z " />
<glyph glyph-name="f" unicode="f" horiz-adv-x="340" d="M262 710 Q279 710 298 708.5 Q317 707 337 702 L337 611 Q319 616 305 617.5 Q291 619 276 619 Q204 619 204 542 L204 500 L337 500 L337 415 L204 415 L204 0 L93 0 L93 415 L19 415 L19 500 L93 500 L93 541 Q93 628 139 669 Q185 710 262 710 Z " />
<glyph glyph-name="g" unicode="g" horiz-adv-x="552" d="M220 14 Q214 14 207 14.5 Q200 15 194 15 Q154 -8 154 -53 Q154 -89 180.5 -108.5 Q207 -128 272 -128 Q348 -128 379.5 -103.5 Q411 -79 411 -42 Q411 -14 393 0 Q375 14 334 14 L220 14 Z M371 329 Q371 374 348 402.5 Q325 431 270 431 Q219 431 195 403 Q171 375 171 329 Q171 288 195.5 258.5 Q220 229 270 229 Q322 229 346.5 257 Q371 285 371 329 Z M270 510 Q305 510 343.5 508.5 Q382 507 418.5 505 Q455 503 488 501.5 Q521 500 545 500 L545 415 Q522 415 486 418 Q450 421 421 425 Q449 412 464.5 383 Q480 354 480 321 Q480 285 466.5 253.5 Q453 222 426 199.5 Q399 177 359 164 Q319 151 267 151 Q221 151 179 165 Q158 152 158 128 Q158 105 173.5 96.5 Q189 88 215 88 L364 88 Q449 88 487 56 Q525 24 525 -39 Q525 -75 509.5 -106.5 Q494 -138 462.5 -161 Q431 -184 383 -197 Q335 -210 269 -210 Q148 -210 97 -177 Q46 -144 46 -85 Q46 -47 67 -18.5 Q88 10 123 25 Q94 35 76.5 51 Q59 67 59 102 Q59 132 78 157 Q97 182 123 195 Q94 218 76.5 251.5 Q59 285 59 329 Q59 368 72.5 401.5 Q86 435 112.5 459 Q139 483 178.5 496.5 Q218 510 270 510 Z " />
<glyph glyph-name="h" unicode="h" horiz-adv-x="566" d="M183 700 L183 415 Q203 457 241 483.5 Q279 510 339 510 Q417 510 456.5 463 Q496 416 496 331 L496 0 L385 0 L385 309 Q385 360 366.5 387 Q348 414 301 414 Q277 414 256 405.5 Q235 397 218.5 380 Q202 363 192.5 336 Q183 309 183 272 L183 0 L72 0 L72 700 L183 700 Z " />
<glyph glyph-name="i" unicode="i" horiz-adv-x="254" d="M184 673 L184 574 L71 574 L71 673 L184 673 Z M183 500 L183 0 L72 0 L72 500 L183 500 Z " />
<glyph glyph-name="j" unicode="j" horiz-adv-x="254" d="M184 673 L184 574 L71 574 L71 673 L184 673 Z M183 500 L183 -34 Q183 -79 166 -112.5 Q149 -146 122 -167.5 Q95 -189 60.5 -199.5 Q26 -210 -8 -210 L-8 -117 Q29 -117 50.5 -100 Q72 -83 72 -33 L72 500 L183 500 Z " />
<glyph glyph-name="k" unicode="k" horiz-adv-x="516" d="M388 0 L190 272 L374 500 L505 500 L314 276 L521 0 L388 0 Z M72 0 L72 700 L183 700 L183 0 L72 0 Z " />
<glyph glyph-name="l" unicode="l" horiz-adv-x="254" d="M72 0 L72 700 L183 700 L183 0 L72 0 Z " />
<glyph glyph-name="m" unicode="m" horiz-adv-x="860" d="M183 500 L183 412 Q203 457 241 483.5 Q279 510 336 510 Q392 510 426 478 Q460 446 471 395 Q497 455 541 482.5 Q585 510 637 510 Q711 510 750.5 463 Q790 416 790 331 L790 0 L679 0 L679 307 Q679 358 660.5 386 Q642 414 597 414 Q576 414 556.5 406 Q537 398 521.5 381.5 Q506 365 496.5 338 Q487 311 486 274 L486 0 L375 0 L375 307 Q375 358 356.5 386 Q338 414 294 414 Q273 414 253 406 Q233 398 217.5 380.5 Q202 363 192.5 335.5 Q183 308 183 269 L183 0 L72 0 L72 500 L183 500 Z " />
<glyph glyph-name="n" unicode="n" horiz-adv-x="566" d="M183 500 L183 415 Q203 457 239.5 483.5 Q276 510 336 510 Q413 510 454.5 463 Q496 416 496 331 L496 0 L384 0 L384 309 Q384 360 366 387 Q348 414 300 414 Q276 414 255 405.5 Q234 397 218 380 Q202 363 192.5 336 Q183 309 183 272 L183 0 L72 0 L72 500 L183 500 Z " />
<glyph glyph-name="o" unicode="o" horiz-adv-x="537" d="M269 510 Q321 510 363.5 492 Q406 474 436.5 440.5 Q467 407 483.5 359 Q500 311 500 251 Q500 190 483.5 141.5 Q467 93 436.5 59.5 Q406 26 363.5 8 Q321 -10 269 -10 Q217 -10 174 8 Q131 26 100.5 59.5 Q70 93 53.5 141.5 Q37 190 37 251 Q37 311 53.5 359 Q70 407 100.5 440.5 Q131 474 174 492 Q217 510 269 510 Z M269 418 Q209 418 179 374 Q149 330 149 251 Q149 170 179 126 Q209 82 269 82 Q328 82 358 126 Q388 170 388 251 Q388 330 358 374 Q328 418 269 418 Z " />
<glyph glyph-name="p" unicode="p" horiz-adv-x="573" d="M301 417 Q243 417 210 374.5 Q177 332 177 247 Q177 213 184 183.5 Q191 154 206 131.5 Q221 109 244.5 96 Q268 83 301 83 Q361 83 390.5 127.5 Q420 172 420 250 Q420 328 390.5 372.5 Q361 417 301 417 Z M330 510 Q377 510 415 491 Q453 472 479.5 438 Q506 404 520.5 356 Q535 308 535 250 Q535 192 520.5 144 Q506 96 479.5 62 Q453 28 415 9 Q377 -10 330 -10 Q273 -10 233.5 22 Q194 54 177 100 L177 -200 L66 -200 L66 500 L177 500 L177 399 Q194 445 231.5 477.5 Q269 510 330 510 Z " />
<glyph glyph-name="q" unicode="q" horiz-adv-x="573" d="M268 417 Q208 417 180 372.5 Q152 328 152 250 Q152 172 180 127.5 Q208 83 268 83 Q301 83 324.5 96 Q348 109 364 131.5 Q380 154 387.5 183.5 Q395 213 395 247 Q395 332 360.5 374.5 Q326 417 268 417 Z M241 510 Q302 510 340 477.5 Q378 445 395 399 L395 500 L506 500 L506 -200 L395 -200 L395 100 Q378 53 338.5 21.5 Q299 -10 241 -10 Q194 -10 156.5 9 Q119 28 92.5 62 Q66 96 51.5 144 Q37 192 37 250 Q37 308 51.5 356 Q66 404 92.5 438 Q119 472 156.5 491 Q194 510 241 510 Z " />
<glyph glyph-name="r" unicode="r" horiz-adv-x="353" d="M183 500 L183 389 Q197 443 235.5 476.5 Q274 510 343 510 L343 403 Q340 405 333 405.5 Q326 406 318 406 Q293 406 268.5 396.5 Q244 387 225 366.5 Q206 346 194.5 315 Q183 284 183 242 L183 0 L72 0 L72 500 L183 500 Z " />
<glyph glyph-name="s" unicode="s" horiz-adv-x="497" d="M249 510 Q349 510 402 467.5 Q455 425 457 356 L353 356 Q352 390 324.5 410 Q297 430 253 430 Q200 430 178.5 410 Q157 390 157 365 Q157 348 164.5 337.5 Q172 327 185.5 320 Q199 313 217 308.5 Q235 304 256 301 Q291 297 327.5 290 Q364 283 394 267 Q424 251 443 223.5 Q462 196 462 151 Q462 118 450 88.5 Q438 59 412.5 37 Q387 15 346 2.5 Q305 -10 248 -10 Q148 -10 94.5 33.5 Q41 77 38 146 L143 146 Q144 113 173.5 92.5 Q203 72 251 72 Q310 72 332 92.5 Q354 113 354 138 Q354 157 346 169 Q338 181 324 188.5 Q310 196 292 200 Q274 204 253 207 Q215 212 178 219 Q141 226 112.5 241.5 Q84 257 66.5 284 Q49 311 49 356 Q49 387 62.5 415 Q76 443 101.5 464 Q127 485 164.5 497.5 Q202 510 249 510 Z " />
<glyph glyph-name="germandbls" unicode="&#xdf;" horiz-adv-x="567" d="M290 710 Q336 710 375.5 698.5 Q415 687 443.5 664.5 Q472 642 488 610 Q504 578 504 537 Q504 464 464.5 423.5 Q425 383 348 374 Q434 363 482 320 Q530 277 530 196 Q530 156 513.5 119.5 Q497 83 465.5 55.5 Q434 28 388 11.5 Q342 -5 283 -5 Q268 -5 257 -4 Q246 -3 232 -1 L232 92 Q245 90 254.5 88.5 Q264 87 278 87 Q313 87 338 96.5 Q363 106 378.5 122 Q394 138 401 159.5 Q408 181 408 205 Q408 263 372 292 Q336 321 247 321 L247 408 Q288 408 315.5 415 Q343 422 359 436 Q375 450 381.5 470.5 Q388 491 388 518 Q388 539 382.5 557 Q377 575 365 589 Q353 603 333.5 611 Q314 619 286 619 Q231 619 207 593.5 Q183 568 183 521 L183 0 L72 0 L72 522 Q72 567 88.5 602 Q105 637 134.5 661 Q164 685 203.5 697.5 Q243 710 290 710 Z " />
<glyph glyph-name="t" unicode="t" horiz-adv-x="342" d="M202 615 L202 500 L335 500 L335 415 L202 415 L202 169 Q202 124 220.5 103 Q239 82 278 82 Q291 82 304.5 84 Q318 86 335 91 L335 -2 Q292 -10 260 -10 Q183 -10 137 29 Q91 68 91 154 L91 415 L17 415 L17 500 L91 500 L91 615 L202 615 Z " />
<glyph glyph-name="u" unicode="u" horiz-adv-x="566" d="M182 500 L182 191 Q182 140 200 113 Q218 86 266 86 Q290 86 311 94.5 Q332 103 348 120 Q364 137 373.5 164 Q383 191 383 228 L383 500 L494 500 L494 0 L383 0 L383 85 Q363 43 326.5 16.5 Q290 -10 230 -10 Q153 -10 111.5 37 Q70 84 70 169 L70 500 L182 500 Z " />
<glyph glyph-name="v" unicode="v" horiz-adv-x="483" d="M116 500 L225 174 Q231 156 235.5 132.5 Q240 109 242 92 Q245 109 250 132 Q255 155 261 174 L374 500 L484 500 L307 0 L173 0 L-1 500 L116 500 Z " />
<glyph glyph-name="w" unicode="w" horiz-adv-x="762" d="M117 500 L208 172 Q213 154 216.5 134.5 Q220 115 223 96 Q225 114 228.5 134 Q232 154 237 172 L329 500 L435 500 L528 172 Q533 154 536.5 134 Q540 114 543 96 Q546 114 549 134 Q552 154 557 172 L649 500 L757 500 L608 0 L476 0 L396 286 Q391 306 386.5 330 Q382 354 380 376 Q377 354 372.5 330 Q368 306 362 286 L281 0 L153 0 L5 500 L117 500 Z " />
<glyph glyph-name="x" unicode="x" horiz-adv-x="517" d="M142 500 L237 369 Q250 350 258 330 Q263 339 268.5 349.5 Q274 360 280 369 L374 500 L492 500 L318 260 L510 0 L378 0 L278 139 Q264 158 254 181 Q244 158 231 139 L131 0 L7 0 L195 255 L18 500 L142 500 Z " />
<glyph glyph-name="y" unicode="y" horiz-adv-x="483" d="M116 500 L225 178 Q230 160 235 136.5 Q240 113 242 97 Q245 112 250 136 Q255 160 261 179 L374 500 L484 500 L291 -33 Q271 -92 247 -127 Q223 -162 193.5 -180.5 Q164 -199 127.5 -204.5 Q91 -210 45 -210 L45 -113 Q91 -112 118.5 -99.5 Q146 -87 161 -53 L180 -10 L-1 500 L116 500 Z " />
<glyph glyph-name="z" unicode="z" horiz-adv-x="462" d="M29 0 L29 86 L297 415 L43 415 L43 500 L427 500 L427 415 L159 86 L434 86 L434 0 L29 0 Z " />
<glyph glyph-name="ae" unicode="&#xe6;" horiz-adv-x="853" d="M591 427 Q542 427 511 396 Q480 365 470 305 L707 305 Q704 357 675 392 Q646 427 591 427 Z M228 77 Q254 77 277.5 85.5 Q301 94 319 110 Q337 126 348 148.5 Q359 171 359 200 L359 235 L310 235 Q234 235 193 214 Q152 193 152 146 Q152 113 172.5 95 Q193 77 228 77 Z M273 510 Q338 510 377 494.5 Q416 479 436 449 Q465 478 505.5 494 Q546 510 597 510 Q652 510 694 488.5 Q736 467 764 430 Q792 393 805 343 Q818 293 815 235 L466 235 Q468 159 499 119 Q530 79 590 79 Q633 79 662.5 101 Q692 123 698 159 L806 159 Q803 120 784.5 88.5 Q766 57 737 35.5 Q708 14 671 2 Q634 -10 594 -10 Q522 -10 470.5 20 Q419 50 391 107 Q366 56 319 23.5 Q272 -9 193 -9 Q122 -9 83 28.5 Q44 66 44 129 Q44 214 106 259.5 Q168 305 308 305 L359 305 L359 352 Q359 386 336.5 406 Q314 426 265 426 Q219 426 189 407 Q159 388 158 347 L58 347 Q62 424 116 467 Q170 510 273 510 Z " />
<glyph glyph-name="oe" unicode="&#x153;" horiz-adv-x="885" d="M623 426 Q519 426 501 302 L737 302 Q735 354 706 390 Q677 426 623 426 Z M269 416 Q209 416 178.5 371.5 Q148 327 148 251 Q148 173 178.5 129 Q209 85 269 85 Q328 85 358.5 129 Q389 173 389 251 Q389 327 358.5 371.5 Q328 416 269 416 Z M629 510 Q686 510 728.5 487 Q771 464 798.5 425.5 Q826 387 839 336 Q852 285 849 229 L498 229 Q505 82 624 82 Q666 82 693 102.5 Q720 123 729 160 L839 160 Q820 78 763 34 Q706 -10 625 -10 Q566 -10 521 11 Q476 32 445 70 Q385 -10 269 -10 Q160 -10 98.5 58 Q37 126 37 251 Q37 373 98.5 441.5 Q160 510 269 510 Q328 510 372.5 489 Q417 468 446 428 Q477 467 523 488.5 Q569 510 629 510 Z " />
<glyph glyph-name="oslash" unicode="&#xf8;" horiz-adv-x="535" d="M392 251 Q392 300 376 340 L206 103 Q232 86 269 86 Q328 86 360 129.5 Q392 173 392 251 Z M269 414 Q209 414 177 370.5 Q145 327 145 251 Q145 196 160 159 L332 396 Q305 414 269 414 Z M269 510 Q339 510 392 479 L407 500 L492 500 L444 434 Q471 401 485.5 354.5 Q500 308 500 251 Q500 126 438.5 58 Q377 -10 269 -10 Q197 -10 146 20 L132 0 L46 0 L93 65 Q37 133 37 251 Q37 373 98.5 441.5 Q160 510 269 510 Z " />
<glyph glyph-name="zero" unicode="0" horiz-adv-x="599" d="M299 710 Q356 710 404 687.5 Q452 665 487 620 Q522 575 542 507.5 Q562 440 562 350 Q562 260 542 192.5 Q522 125 487 80 Q452 35 404 12.5 Q356 -10 299 -10 Q243 -10 195 12.5 Q147 35 112 80 Q77 125 57 192.5 Q37 260 37 350 Q37 440 57 507.5 Q77 575 112 620 Q147 665 195 687.5 Q243 710 299 710 Z M299 603 Q261 603 235 585 Q209 567 192 534 Q175 501 167.5 454.5 Q160 408 160 350 Q160 292 167.5 245.5 Q175 199 192 166 Q209 133 235 115 Q261 97 299 97 Q337 97 363.5 115 Q390 133 407 166 Q424 199 431.5 245.5 Q439 292 439 350 Q439 408 431.5 454.5 Q424 501 407 534 Q390 567 363.5 585 Q337 603 299 603 Z " />
<glyph glyph-name="one" unicode="1" horiz-adv-x="599" d="M169 0 L169 95 L304 95 L304 590 L145 487 L98 570 L304 700 L419 700 L419 95 L532 95 L532 0 L169 0 Z " />
<glyph glyph-name="two" unicode="2" horiz-adv-x="599" d="M56 0 L56 92 Q170 169 242 227 Q314 285 354 330.5 Q394 376 408.5 414 Q423 452 423 490 Q423 541 394.5 576.5 Q366 612 301 612 Q233 612 202 581.5 Q171 551 164 491 L58 491 Q60 543 79.5 584 Q99 625 132 653 Q165 681 210.5 695.5 Q256 710 309 710 Q367 710 411 693.5 Q455 677 484.5 648.5 Q514 620 528.5 581.5 Q543 543 543 499 Q543 447 525 401.5 Q507 356 466.5 309 Q426 262 360 210.5 Q294 159 198 95 L545 95 L545 0 L56 0 Z " />
<glyph glyph-name="three" unicode="3" horiz-adv-x="599" d="M256 402 Q303 402 334.5 409.5 Q366 417 384.5 431.5 Q403 446 411 467.5 Q419 489 419 517 Q419 563 392.5 591.5 Q366 620 297 620 Q230 620 200 593 Q170 566 163 512 L56 512 Q58 558 77.5 595 Q97 632 129.5 657.5 Q162 683 206 696.5 Q250 710 302 710 Q359 710 403.5 696.5 Q448 683 478.5 659 Q509 635 524.5 602 Q540 569 540 530 Q540 453 495 411.5 Q450 370 366 360 Q454 353 502 311 Q550 269 550 191 Q550 147 532 110 Q514 73 480.5 46.5 Q447 20 400 5 Q353 -10 296 -10 Q243 -10 199 4 Q155 18 122 44 Q89 70 69.5 107 Q50 144 48 190 L158 190 Q165 135 198.5 107.5 Q232 80 299 80 Q365 80 397.5 113 Q430 146 430 195 Q430 224 421 246.5 Q412 269 392 284 Q372 299 338.5 307 Q305 315 256 315 L256 402 Z " />
<glyph glyph-name="four" unicode="4" horiz-adv-x="599" d="M349 584 L144 283 L349 283 L349 584 Z M349 0 L349 189 L42 189 L42 284 L324 700 L464 700 L464 283 L562 283 L562 189 L464 189 L464 0 L349 0 Z " />
<glyph glyph-name="five" unicode="5" horiz-adv-x="599" d="M507 700 L507 605 L194 605 L186 444 Q212 449 243 452.5 Q274 456 309 456 Q363 456 407.5 440.5 Q452 425 484.5 396.5 Q517 368 535 326.5 Q553 285 553 234 Q553 180 533.5 135 Q514 90 479.5 58 Q445 26 396.5 8 Q348 -10 290 -10 Q185 -10 121 42.5 Q57 95 52 192 L157 192 Q162 137 194.5 108 Q227 79 294 79 Q360 79 397 119.5 Q434 160 434 226 Q434 290 397.5 328 Q361 366 275 366 Q228 366 176 362 Q124 358 74 349 L97 700 L507 700 Z " />
<glyph glyph-name="six" unicode="6" horiz-adv-x="599" d="M161 297 Q165 202 201.5 144.5 Q238 87 312 87 Q379 87 411 127 Q443 167 443 230 Q443 258 436.5 284 Q430 310 414.5 330 Q399 350 373.5 361.5 Q348 373 311 373 Q264 373 225.5 352.5 Q187 332 161 297 Z M324 710 Q371 710 411.5 696 Q452 682 482.5 657.5 Q513 633 531 598 Q549 563 552 521 L444 521 Q436 573 404 597.5 Q372 622 323 622 Q243 622 203 556 Q163 490 159 376 Q188 411 232 434.5 Q276 458 335 458 Q393 458 435 439.5 Q477 421 504 390 Q531 359 544 320 Q557 281 557 239 Q557 191 541.5 146 Q526 101 494.5 66.5 Q463 32 416 11 Q369 -10 307 -10 Q243 -10 193.5 13.5 Q144 37 110 82 Q76 127 58.5 192 Q41 257 41 340 Q41 423 59.5 491 Q78 559 114 608 Q150 657 203 683.5 Q256 710 324 710 Z " />
<glyph glyph-name="seven" unicode="7" horiz-adv-x="599" d="M162 0 L428 605 L55 605 L55 700 L543 700 L543 605 L288 0 L162 0 Z " />
<glyph glyph-name="eight" unicode="8" horiz-adv-x="599" d="M299 710 Q357 710 401 695.5 Q445 681 474.5 656 Q504 631 519 597.5 Q534 564 534 525 Q534 464 497 420.5 Q460 377 385 365 Q459 357 504.5 309 Q550 261 550 185 Q550 94 487 42 Q424 -10 299 -10 Q174 -10 111 42 Q48 94 48 185 Q48 261 93 308 Q138 355 213 362 Q142 375 102.5 419 Q63 463 63 525 Q63 564 78 598 Q93 632 123 656.5 Q153 681 197 695.5 Q241 710 299 710 Z M299 318 Q271 318 246 312 Q221 306 202 292.5 Q183 279 172 256.5 Q161 234 161 202 Q161 150 195 118 Q229 86 299 86 Q368 86 402.5 118 Q437 150 437 202 Q437 234 426 256.5 Q415 279 396 292.5 Q377 306 352 312 Q327 318 299 318 Z M299 617 Q236 617 207 587.5 Q178 558 178 513 Q178 456 211.5 430 Q245 404 299 404 Q353 404 386.5 430 Q420 456 420 513 Q420 558 390.5 587.5 Q361 617 299 617 Z " />
<glyph glyph-name="nine" unicode="9" horiz-adv-x="599" d="M286 613 Q219 613 187 573 Q155 533 155 470 Q155 441 161.5 415.5 Q168 390 183.5 370 Q199 350 224.5 338.5 Q250 327 287 327 Q334 327 372.5 347.5 Q411 368 437 403 Q435 451 425 489.5 Q415 528 396.5 555.5 Q378 583 350.5 598 Q323 613 286 613 Z M291 710 Q355 710 404.5 686 Q454 662 488 617 Q522 572 539.5 507 Q557 442 557 360 Q557 277 538 209 Q519 141 483 92 Q447 43 394.5 16.5 Q342 -10 274 -10 Q227 -10 186.5 2.5 Q146 15 115.5 39 Q85 63 67 98.5 Q49 134 46 179 L152 179 Q157 128 191.5 103 Q226 78 275 78 Q354 78 394.5 144 Q435 210 439 324 Q410 289 366 265.5 Q322 242 263 242 Q205 242 163 260.5 Q121 279 94 310 Q67 341 54 380 Q41 419 41 461 Q41 509 56.5 554 Q72 599 103.5 633.5 Q135 668 182 689 Q229 710 291 710 Z " />
<glyph glyph-name="dollar" unicode="&#x24;" horiz-adv-x="608" d="M154 510 Q154 489 162.5 473.5 Q171 458 186.5 447.5 Q202 437 223 430 Q244 423 269 417 L269 612 Q236 609 213.5 599 Q191 589 178 575 Q165 561 159.5 544 Q154 527 154 510 Z M460 193 Q460 218 450.5 235 Q441 252 424 264 Q407 276 384.5 284 Q362 292 336 298 L336 86 Q403 93 431.5 124.5 Q460 156 460 193 Z M269 -94 L269 -9 Q216 -5 173.5 12 Q131 29 101 56 Q71 83 53.5 118.5 Q36 154 33 195 L147 195 Q152 153 181 124 Q210 95 269 87 L269 311 Q228 318 187 328.5 Q146 339 114 359.5 Q82 380 62 413.5 Q42 447 42 500 Q42 539 56.5 575 Q71 611 99.5 639 Q128 667 170.5 685 Q213 703 269 708 L269 787 L336 787 L336 709 Q388 705 429.5 688 Q471 671 500.5 644.5 Q530 618 547.5 582.5 Q565 547 570 506 L457 506 Q450 548 422.5 576.5 Q395 605 336 612 L336 404 Q379 396 421.5 385.5 Q464 375 498 354.5 Q532 334 553.5 300 Q575 266 575 212 Q575 169 559 131 Q543 93 512.5 63.5 Q482 34 437.5 15 Q393 -4 336 -8 L336 -94 L269 -94 Z " />
<glyph glyph-name="cent" unicode="&#xa2;" horiz-adv-x="571" d="M168 359 Q168 292 192.5 246 Q217 200 267 189 L267 528 Q215 517 191.5 471 Q168 425 168 359 Z M267 6 L267 100 Q170 111 118 178.5 Q66 246 66 359 Q66 470 120 537.5 Q174 605 267 616 L267 695 L323 695 L323 617 Q400 611 452 564 Q504 517 517 433 L413 433 Q406 467 384 494 Q362 521 323 529 L323 188 Q361 196 383 223 Q405 250 413 285 L517 285 Q504 200 452.5 152 Q401 104 323 98 L323 6 L267 6 Z " />
<glyph glyph-name="sterling" unicode="&#xa3;" horiz-adv-x="608" d="M215 297 Q222 245 215.5 193 Q209 141 172 86 L533 86 L533 0 L59 0 L59 86 Q79 115 89.5 142.5 Q100 170 104 196 Q108 222 105.5 247 Q103 272 98 297 L27 297 L27 357 L83 357 Q75 387 69 419.5 Q63 452 63 487 Q63 529 78 569 Q93 609 124 640.5 Q155 672 202.5 691 Q250 710 316 710 Q372 710 415.5 695.5 Q459 681 490 655.5 Q521 630 539 595 Q557 560 562 518 L449 518 Q442 561 412 587.5 Q382 614 313 614 Q274 614 249.5 602.5 Q225 591 211 573.5 Q197 556 191.5 535 Q186 514 186 494 Q186 458 192 424 Q198 390 204 357 L411 357 L411 297 L215 297 Z " />
<glyph glyph-name="yen" unicode="&#xa5;" horiz-adv-x="591" d="M356 298 L356 206 L463 206 L463 144 L356 144 L356 0 L235 0 L235 144 L130 144 L130 206 L235 206 L235 298 L68 298 L68 360 L203 360 L-7 700 L134 700 L300 416 L468 700 L598 700 L388 360 L525 360 L525 298 L356 298 Z " />
<glyph glyph-name="florin" unicode="&#x192;" horiz-adv-x="464" d="M340 708 Q357 708 375.5 706.5 Q394 705 414 700 L414 609 Q378 618 353 618 Q276 618 276 541 L276 500 L414 500 L414 415 L276 415 L276 -41 Q276 -84 263 -116 Q250 -148 227 -169 Q204 -190 172 -200 Q140 -210 102 -210 Q85 -210 66 -208.5 Q47 -207 27 -202 L27 -110 Q63 -119 89 -119 Q165 -119 165 -41 L165 415 L91 415 L91 500 L165 500 L165 539 Q165 582 178 614 Q191 646 214 667 Q237 688 269.5 698 Q302 708 340 708 Z " />
<glyph glyph-name="numbersign" unicode="&#x23;" horiz-adv-x="676" d="M263 266 L413 266 L413 433 L263 433 L263 266 Z M159 0 L159 184 L63 184 L63 266 L159 266 L159 433 L63 433 L63 515 L159 515 L159 700 L263 700 L263 515 L413 515 L413 700 L517 700 L517 515 L613 515 L613 433 L517 433 L517 266 L613 266 L613 184 L517 184 L517 0 L413 0 L413 184 L263 184 L263 0 L159 0 Z " />
<glyph glyph-name="currency" unicode="&#xa4;" horiz-adv-x="715" d="M358 508 Q328 508 306.5 496.5 Q285 485 271 464.5 Q257 444 250 415.5 Q243 387 243 353 Q243 319 250 290.5 Q257 262 271 241 Q285 220 306.5 208.5 Q328 197 358 197 Q387 197 408.5 208.5 Q430 220 444 241 Q458 262 465 290.5 Q472 319 472 353 Q472 387 465 415.5 Q458 444 444 464.5 Q430 485 408.5 496.5 Q387 508 358 508 Z M358 604 Q400 604 434 591 Q468 578 494 555 L619 680 L685 614 L553 483 Q567 456 573.5 422.5 Q580 389 580 353 Q580 277 554 222 L685 91 L619 25 L495 149 Q469 126 435 113.5 Q401 101 358 101 Q313 101 279 113.5 Q245 126 219 149 L96 25 L30 91 L160 221 Q134 279 134 353 Q134 390 140 422.5 Q146 455 160 483 L30 614 L96 680 L219 555 Q245 578 279.5 591 Q314 604 358 604 Z " />
<glyph glyph-name="percent" unicode="&#x25;" horiz-adv-x="856" d="M640 381 Q680 381 711.5 367 Q743 353 765.5 327.5 Q788 302 800 266 Q812 230 812 187 Q812 144 800 108 Q788 72 766 45.5 Q744 19 712.5 4.5 Q681 -10 641 -10 Q601 -10 569 4 Q537 18 515 44 Q493 70 481 105.5 Q469 141 469 185 Q469 228 481 264 Q493 300 515 326 Q537 352 568.5 366.5 Q600 381 640 381 Z M640 300 Q599 300 577.5 271 Q556 242 556 187 Q556 132 579 102.5 Q602 73 640 73 Q682 73 703 102.5 Q724 132 724 186 Q724 241 701.5 270.5 Q679 300 640 300 Z M761 700 L218 0 L96 0 L638 700 L761 700 Z M215 710 Q255 710 287 696 Q319 682 341.5 656 Q364 630 376 594 Q388 558 388 515 Q388 472 376 436 Q364 400 342 374 Q320 348 288.5 333.5 Q257 319 217 319 Q177 319 145 333 Q113 347 90.5 372.5 Q68 398 56 434 Q44 470 44 513 Q44 556 56 592 Q68 628 90 654.5 Q112 681 144 695.5 Q176 710 215 710 Z M215 629 Q175 629 153.5 600 Q132 571 132 515 Q132 461 154.5 431.5 Q177 402 215 402 Q257 402 278.5 431 Q300 460 300 515 Q300 570 277 599.5 Q254 629 215 629 Z " />
<glyph glyph-name="perthousand" unicode="&#x2030;" horiz-adv-x="1236" d="M1019 381 Q1059 381 1091 367 Q1123 353 1145.5 327.5 Q1168 302 1180 266 Q1192 230 1192 187 Q1192 144 1180 108 Q1168 72 1146 45.5 Q1124 19 1092.5 4.5 Q1061 -10 1021 -10 Q981 -10 949 4 Q917 18 894.5 44 Q872 70 860 105.5 Q848 141 848 185 Q848 228 860 264 Q872 300 894 326 Q916 352 948 366.5 Q980 381 1019 381 Z M1019 300 Q979 300 957.5 271 Q936 242 936 187 Q936 132 958.5 102.5 Q981 73 1019 73 Q1061 73 1082.5 102.5 Q1104 132 1104 186 Q1104 241 1081 270.5 Q1058 300 1019 300 Z M640 381 Q680 381 711.5 367 Q743 353 765.5 327.5 Q788 302 800 266 Q812 230 812 187 Q812 144 800 108 Q788 72 766 45.5 Q744 19 712.5 4.5 Q681 -10 641 -10 Q601 -10 569 4 Q537 18 515 44 Q493 70 481 105.5 Q469 141 469 185 Q469 228 481 264 Q493 300 515 326 Q537 352 568.5 366.5 Q600 381 640 381 Z M640 300 Q599 300 577.5 271 Q556 242 556 187 Q556 132 579 102.5 Q602 73 640 73 Q682 73 703 102.5 Q724 132 724 186 Q724 241 701.5 270.5 Q679 300 640 300 Z M761 700 L218 0 L96 0 L638 700 L761 700 Z M215 710 Q255 710 287 696 Q319 682 341.5 656 Q364 630 376 594 Q388 558 388 515 Q388 472 376 436 Q364 400 342 374 Q320 348 288.5 333.5 Q257 319 217 319 Q177 319 145 333 Q113 347 90.5 372.5 Q68 398 56 434 Q44 470 44 513 Q44 556 56 592 Q68 628 90 654.5 Q112 681 144 695.5 Q176 710 215 710 Z M215 629 Q175 629 153.5 600 Q132 571 132 515 Q132 461 154.5 431.5 Q177 402 215 402 Q257 402 278.5 431 Q300 460 300 515 Q300 570 277 599.5 Q254 629 215 629 Z " />
<glyph glyph-name="fraction" unicode="&#x2044;" horiz-adv-x="654" d="M0 0 L544 700 L654 700 L110 0 L0 0 Z " />
<glyph glyph-name="asciicircum" unicode="&#x5e;" horiz-adv-x="599" d="M544 465 L478 399 L299 579 L120 400 L54 465 L299 710 L544 465 Z " />
<glyph glyph-name="asciitilde" unicode="&#x7e;" horiz-adv-x="599" d="M195 634 Q232 634 261.5 621.5 Q291 609 315 594 Q339 579 360.5 566.5 Q382 554 404 554 Q431 554 446 568 Q461 582 469 617 L538 580 Q526 512 488.5 483.5 Q451 455 402 455 Q367 455 341 467.5 Q315 480 291.5 495 Q268 510 245 522.5 Q222 535 194 535 Q167 535 152 520.5 Q137 506 129 471 L60 509 Q72 576 109.5 605 Q147 634 195 634 Z " />
<glyph glyph-name="periodcentered" unicode="&#xb7;" horiz-adv-x="587" d="M350 368 L350 255 L237 255 L237 368 L350 368 Z " />
<glyph glyph-name="plus" unicode="&#x2b;" horiz-adv-x="599" d="M345 356 L553 356 L553 263 L345 263 L345 55 L252 55 L252 263 L45 263 L45 356 L252 356 L252 564 L345 564 L345 356 Z " />
<glyph glyph-name="plusminus" unicode="&#xb1;" horiz-adv-x="599" d="M45 30 L45 123 L553 123 L553 30 L45 30 Z M345 478 L553 478 L553 385 L345 385 L345 177 L252 177 L252 385 L45 385 L45 478 L252 478 L252 686 L345 686 L345 478 Z " />
<glyph glyph-name="less" unicode="&#x3c;" horiz-adv-x="599" d="M177 311 L540 112 L496 31 L57 275 L57 348 L496 592 L540 511 L177 311 Z " />
<glyph glyph-name="equal" unicode="&#x3d;" horiz-adv-x="599" d="M45 380 L45 473 L553 473 L553 380 L45 380 Z M45 146 L45 239 L553 239 L553 146 L45 146 Z " />
<glyph glyph-name="greater" unicode="&#x3e;" horiz-adv-x="587" d="M421 312 L57 511 L102 592 L540 348 L540 275 L102 31 L57 112 L421 312 Z " />
<glyph glyph-name="approxequal" unicode="&#x2248;" horiz-adv-x="587" d="M195 270 Q232 270 261.5 257.5 Q291 245 315 230 Q339 215 360.5 202.5 Q382 190 404 190 Q431 190 446 204 Q461 218 469 253 L538 216 Q526 148 488.5 119.5 Q451 91 402 91 Q367 91 341 103.5 Q315 116 291.5 131 Q268 146 245 158.5 Q222 171 194 171 Q167 171 152 156.5 Q137 142 129 107 L60 145 Q72 212 109.5 241 Q147 270 195 270 Z M195 517 Q232 517 261.5 504.5 Q291 492 315 477 Q339 462 360.5 449.5 Q382 437 404 437 Q431 437 446 451 Q461 465 469 500 L538 462 Q526 395 488.5 366.5 Q451 338 402 338 Q367 338 341 350.5 Q315 363 291.5 377.5 Q268 392 245 404.5 Q222 417 194 417 Q167 417 152 403 Q137 389 129 354 L60 392 Q72 459 109.5 488 Q147 517 195 517 Z " />
<glyph glyph-name="notequal" unicode="&#x2260;" horiz-adv-x="599" d="M266 146 L205 34 L106 34 L167 146 L45 146 L45 239 L217 239 L294 380 L45 380 L45 473 L344 473 L400 576 L499 576 L443 473 L553 473 L553 380 L393 380 L316 239 L553 239 L553 146 L266 146 Z " />
<glyph glyph-name="lessequal" unicode="&#x2264;" horiz-adv-x="599" d="M45 17 L45 110 L553 110 L553 17 L45 17 Z M186 428 L533 241 L488 159 L67 392 L67 465 L488 698 L533 616 L186 428 Z " />
<glyph glyph-name="greaterequal" unicode="&#x2265;" horiz-adv-x="587" d="M45 17 L45 110 L553 110 L553 17 L45 17 Z M413 429 L67 616 L111 698 L533 465 L533 392 L111 159 L67 241 L413 429 Z " />
<glyph glyph-name="divide" unicode="&#xf7;" horiz-adv-x="599" d="M355 166 L355 48 L242 48 L242 166 L355 166 Z M355 583 L355 465 L242 465 L242 583 L355 583 Z M45 263 L45 356 L553 356 L553 263 L45 263 Z " />
<glyph glyph-name="partialdiff" unicode="&#x2202;" horiz-adv-x="599" d="M287 386 Q250 386 224.5 373.5 Q199 361 183.5 339.5 Q168 318 161.5 290 Q155 262 155 232 Q155 166 187 126.5 Q219 87 286 87 Q361 87 396.5 142.5 Q432 198 437 300 Q411 338 372.5 362 Q334 386 287 386 Z M238 710 Q309 710 368 684 Q427 658 469 610 Q511 562 534 494.5 Q557 427 557 345 Q557 172 488.5 81 Q420 -10 291 -10 Q229 -10 182 9.5 Q135 29 103.5 62.5 Q72 96 56.5 140.5 Q41 185 41 235 Q41 278 54 320.5 Q67 363 94 396.5 Q121 430 163 450.5 Q205 471 263 471 Q322 471 366 445.5 Q410 420 439 382 Q435 496 378.5 559.5 Q322 623 217 623 L238 710 Z " />
<glyph glyph-name="product" unicode="&#x220f;" horiz-adv-x="672" d="M479 0 L479 605 L193 605 L193 0 L77 0 L77 700 L594 700 L594 0 L479 0 Z " />
<glyph glyph-name="summation" unicode="&#x2211;" horiz-adv-x="602" d="M565 700 L565 605 L184 605 L379 367 L175 95 L572 95 L572 0 L37 0 L37 95 L241 367 L47 604 L47 700 L565 700 Z " />
<glyph glyph-name="radical" unicode="&#x221a;" horiz-adv-x="655" d="M276 0 L132 407 L11 407 L11 500 L213 500 L345 117 L551 700 L655 700 L410 0 L276 0 Z " />
<glyph glyph-name="infinity" unicode="&#x221e;" horiz-adv-x="793" d="M225 468 Q183 468 160 438 Q137 408 137 351 Q137 294 161.5 264 Q186 234 231 234 Q254 234 271.5 242.5 Q289 251 302.5 265 Q316 279 327 297 Q338 315 347 335 Q337 362 326.5 386 Q316 410 302 428.5 Q288 447 269 457.5 Q250 468 225 468 Z M234 583 Q270 583 297 572.5 Q324 562 345 543.5 Q366 525 382 500.5 Q398 476 411 448 Q424 477 440 501.5 Q456 526 476 544 Q496 562 520.5 572.5 Q545 583 575 583 Q653 583 698 524 Q743 465 743 353 Q743 297 728.5 254 Q714 211 689.5 181.5 Q665 152 631.5 136.5 Q598 121 559 121 Q523 121 496 132 Q469 143 448 161.5 Q427 180 411 205 Q395 230 382 258 Q369 229 353 204 Q337 179 317 160.5 Q297 142 272.5 131.5 Q248 121 217 121 Q139 121 94.5 180 Q50 239 50 351 Q50 407 64 450 Q78 493 103 522.5 Q128 552 161.5 567.5 Q195 583 234 583 Z M562 470 Q539 470 521.5 461.5 Q504 453 490.5 439 Q477 425 466 406.5 Q455 388 446 368 Q456 341 466.5 317 Q477 293 491 275 Q505 257 523.5 246.5 Q542 236 567 236 Q609 236 632.5 266 Q656 296 656 353 Q656 410 631.5 440 Q607 470 562 470 Z " />
<glyph glyph-name="integral" unicode="&#x222b;" horiz-adv-x="596" d="M244 532 Q244 624 298 670 Q352 716 461 703 L461 607 Q410 615 380 596.5 Q350 578 350 528 L350 -36 Q350 -128 295 -174.5 Q240 -221 133 -207 L133 -111 Q184 -119 214 -102.5 Q244 -86 244 -36 L244 532 Z " />
<glyph glyph-name="lozenge" unicode="&#x25ca;" horiz-adv-x="483" d="M242 -94 L361 234 L241 583 L122 254 L242 -94 Z M307 -211 L173 -211 L14 244 L176 700 L310 700 L468 245 L307 -211 Z " />
<glyph glyph-name="logicalnot" unicode="&#xac;" horiz-adv-x="599" d="M438 0 L438 263 L45 263 L45 356 L553 356 L553 0 L438 0 Z " />
<glyph glyph-name="bar" unicode="&#x7c;" horiz-adv-x="332" d="M109 -211 L109 700 L224 700 L224 -211 L109 -211 Z " />
<glyph glyph-name="degree" unicode="&#xb0;" horiz-adv-x="432" d="M215 710 Q255 710 287 696 Q319 682 341.5 656 Q364 630 376 594 Q388 558 388 515 Q388 472 376 436 Q364 400 342 374 Q320 348 288.5 333.5 Q257 319 217 319 Q177 319 145 333 Q113 347 90.5 372.5 Q68 398 56 434 Q44 470 44 513 Q44 556 56 592 Q68 628 90 654.5 Q112 681 144 695.5 Q176 710 215 710 Z M215 629 Q175 629 153.5 600 Q132 571 132 515 Q132 461 154.5 431.5 Q177 402 215 402 Q257 402 278.5 431 Q300 460 300 515 Q300 570 277 599.5 Q254 629 215 629 Z " />
<glyph glyph-name="ordfeminine" unicode="&#xaa;" horiz-adv-x="539" d="M311 448 Q235 448 196 428 Q157 408 157 361 Q157 328 176.5 310 Q196 292 231 292 Q257 292 280 300 Q303 308 320 324 Q337 340 347 362 Q357 384 357 413 L357 447 Q346 448 334.5 448 Q323 448 311 448 Z M275 725 Q330 725 367.5 713 Q405 701 427 679.5 Q449 658 458.5 629 Q468 600 468 566 L468 215 L357 215 L357 301 Q336 255 297 231 Q258 207 195 207 Q124 207 83.5 244 Q43 281 43 344 Q43 429 105.5 475 Q168 521 308 521 Q320 521 333 520.5 Q346 520 357 519 L357 566 Q357 601 338.5 621.5 Q320 642 269 642 Q218 642 190.5 621 Q163 600 161 562 L57 562 Q63 639 118.5 682 Q174 725 275 725 Z " />
<glyph glyph-name="ordmasculine" unicode="&#xba;" horiz-adv-x="516" d="M269 725 Q321 725 363.5 707 Q406 689 436.5 655.5 Q467 622 483.5 574 Q500 526 500 466 Q500 405 483.5 356.5 Q467 308 436.5 274.5 Q406 241 363.5 223 Q321 205 269 205 Q217 205 174 223 Q131 241 100.5 274.5 Q70 308 53.5 356.5 Q37 405 37 466 Q37 526 53.5 574 Q70 622 100.5 655.5 Q131 689 174 707 Q217 725 269 725 Z M269 633 Q209 633 179 589 Q149 545 149 466 Q149 385 179 341 Q209 297 269 297 Q328 297 358 341 Q388 385 388 466 Q388 545 358 589 Q328 633 269 633 Z " />
<glyph glyph-name="underscore" unicode="&#x5f;" horiz-adv-x="599" d="M32 -157 L32 -64 L566 -64 L566 -157 L32 -157 Z " />
<glyph glyph-name="emdash" unicode="&#x2014;" horiz-adv-x="995" d="M51 262 L51 356 L944 356 L944 262 L51 262 Z " />
<glyph glyph-name="endash" unicode="&#x2013;" horiz-adv-x="636" d="M51 262 L51 356 L585 356 L585 262 L51 262 Z " />
<glyph glyph-name="hyphen" unicode="&#x2d;" horiz-adv-x="344" d="M50 262 L50 356 L294 356 L294 262 L50 262 Z " />
<glyph glyph-name="guillemotleft" unicode="&#xab;" horiz-adv-x="596" d="M546 454 L384 275 L546 97 L499 49 L286 237 L286 314 L499 502 L546 454 Z M310 454 L149 275 L310 97 L263 49 L50 237 L50 314 L263 502 L310 454 Z " />
<glyph glyph-name="guilsinglleft" unicode="&#x2039;" horiz-adv-x="360" d="M310 454 L149 275 L310 97 L263 49 L50 237 L50 314 L263 502 L310 454 Z " />
<glyph glyph-name="guilsinglright" unicode="&#x203a;" horiz-adv-x="360" d="M310 314 L310 237 L97 49 L50 97 L212 276 L50 454 L97 502 L310 314 Z " />
<glyph glyph-name="guillemotright" unicode="&#xbb;" horiz-adv-x="596" d="M310 314 L310 237 L97 49 L50 97 L212 276 L50 454 L97 502 L310 314 Z M546 314 L546 237 L333 49 L286 97 L447 276 L286 454 L333 502 L546 314 Z " />
<glyph glyph-name="quotesingle" unicode="&#x27;" horiz-adv-x="197" d="M68 488 L40 719 L157 719 L130 488 L68 488 Z " />
<glyph glyph-name="quotedbl" unicode="&#x22;" horiz-adv-x="360" d="M232 488 L203 719 L320 719 L293 488 L232 488 Z M68 488 L40 719 L157 719 L130 488 L68 488 Z " />
<glyph glyph-name="quotedblleft" unicode="&#x201c;" horiz-adv-x="386" d="M303 493 L195 493 L280 724 L346 724 L303 493 Z M147 493 L39 493 L123 724 L189 724 L147 493 Z " />
<glyph glyph-name="quotesinglbase" unicode="&#x201a;" horiz-adv-x="229" d="M82 107 L189 107 L105 -124 L39 -124 L82 107 Z " />
<glyph glyph-name="quotedblbase" unicode="&#x201e;" horiz-adv-x="386" d="M238 107 L346 107 L262 -124 L195 -124 L238 107 Z M82 107 L189 107 L105 -124 L39 -124 L82 107 Z " />
<glyph glyph-name="quotedblright" unicode="&#x201d;" horiz-adv-x="386" d="M238 719 L346 719 L262 488 L195 488 L238 719 Z M82 719 L189 719 L105 488 L39 488 L82 719 Z " />
<glyph glyph-name="quoteright" unicode="&#x2019;" horiz-adv-x="225" d="M82 719 L189 719 L105 488 L39 488 L82 719 Z " />
<glyph glyph-name="quoteleft" unicode="&#x2018;" horiz-adv-x="229" d="M148 493 L40 493 L125 724 L191 724 L148 493 Z " />
<glyph glyph-name="comma" unicode="&#x2c;" horiz-adv-x="243" d="M84 123 L202 123 L111 -142 L39 -142 L84 123 Z " />
<glyph glyph-name="period" unicode="&#x2e;" horiz-adv-x="240" d="M176 118 L176 0 L63 0 L63 118 L176 118 Z " />
<glyph glyph-name="colon" unicode="&#x3a;" horiz-adv-x="240" d="M176 500 L176 382 L63 382 L63 500 L176 500 Z M176 118 L176 0 L63 0 L63 118 L176 118 Z " />
<glyph glyph-name="semicolon" unicode="&#x3b;" horiz-adv-x="244" d="M84 123 L202 123 L111 -142 L39 -142 L84 123 Z M176 500 L176 382 L63 382 L63 500 L176 500 Z " />
<glyph glyph-name="ellipsis" unicode="&#x2026;" horiz-adv-x="922" d="M230 118 L230 0 L117 0 L117 118 L230 118 Z M804 118 L804 0 L691 0 L691 118 L804 118 Z M517 118 L517 0 L404 0 L404 118 L517 118 Z " />
<glyph glyph-name="question" unicode="&#x3f;" horiz-adv-x="558" d="M300 111 L300 0 L189 0 L189 111 L300 111 Z M285 710 Q341 710 383 695 Q425 680 452.5 654.5 Q480 629 494 595 Q508 561 508 523 Q508 478 492.5 444 Q477 410 453.5 383 Q430 356 402.5 333 Q375 310 351.5 286.5 Q328 263 312.5 237 Q297 211 297 177 L192 177 Q192 222 207 256.5 Q222 291 245 318.5 Q268 346 294 369 Q320 392 343 415.5 Q366 439 381 464.5 Q396 490 396 523 Q396 540 390 556.5 Q384 573 370.5 586 Q357 599 335.5 607 Q314 615 283 615 Q221 615 194.5 587 Q168 559 161 512 L50 512 Q56 556 73 592.5 Q90 629 119 655 Q148 681 189.5 695.5 Q231 710 285 710 Z " />
<glyph glyph-name="questiondown" unicode="&#xbf;" horiz-adv-x="558" d="M369 500 L369 389 L258 389 L258 500 L369 500 Z M366 323 Q366 277 351 243 Q336 209 313 181.5 Q290 154 264 131 Q238 108 215 84.5 Q192 61 177 35.5 Q162 10 162 -23 Q162 -40 168.5 -56.5 Q175 -73 188.5 -86 Q202 -99 223.5 -107 Q245 -115 276 -115 Q307 -115 328 -108 Q349 -101 363.5 -87.5 Q378 -74 385.5 -55 Q393 -36 397 -12 L508 -12 Q502 -56 485 -92.5 Q468 -129 439 -155 Q410 -181 368.5 -195.5 Q327 -210 273 -210 Q217 -210 175 -195 Q133 -180 105 -154.5 Q77 -129 63.5 -95 Q50 -61 50 -23 Q50 22 65.5 56 Q81 90 105 117 Q129 144 156 167 Q183 190 207 213.5 Q231 237 246.5 263 Q262 289 262 323 L366 323 Z " />
<glyph glyph-name="exclam" unicode="&#x21;" horiz-adv-x="315" d="M213 111 L213 0 L102 0 L102 111 L213 111 Z M225 700 L210 186 L105 186 L90 700 L225 700 Z " />
<glyph glyph-name="exclamdown" unicode="&#xa1;" horiz-adv-x="315" d="M213 500 L213 389 L102 389 L102 500 L213 500 Z M210 314 L225 -200 L90 -200 L105 314 L210 314 Z " />
<glyph glyph-name="parenleft" unicode="&#x28;" horiz-adv-x="359" d="M348 636 Q274 628 234 530 Q194 432 194 249 Q194 66 234 -31.5 Q274 -129 348 -137 L348 -211 Q289 -207 238.5 -174.5 Q188 -142 151 -83.5 Q114 -25 93 58.5 Q72 142 72 249 Q72 356 93 440 Q114 524 151 582.5 Q188 641 238.5 673.5 Q289 706 348 710 L348 636 Z " />
<glyph glyph-name="parenright" unicode="&#x29;" horiz-adv-x="359" d="M11 710 Q70 706 120.5 673.5 Q171 641 208 582.5 Q245 524 266 440 Q287 356 287 250 Q287 143 266 59 Q245 -25 208 -83.5 Q171 -142 120.5 -174.5 Q70 -207 11 -211 L11 -137 Q85 -129 125 -31 Q165 67 165 250 Q165 433 125 530.5 Q85 628 11 636 L11 710 Z " />
<glyph glyph-name="bracketleft" unicode="&#x5b;" horiz-adv-x="350" d="M89 -211 L89 700 L323 700 L323 633 L194 633 L194 -145 L323 -145 L323 -211 L89 -211 Z " />
<glyph glyph-name="bracketright" unicode="&#x5d;" horiz-adv-x="350" d="M261 700 L261 -211 L27 -211 L27 -145 L156 -145 L156 633 L27 633 L27 700 L261 700 Z " />
<glyph glyph-name="braceleft" unicode="&#x7b;" horiz-adv-x="388" d="M358 636 Q323 636 301.5 627 Q280 618 268.5 602 Q257 586 253 563.5 Q249 541 249 515 Q249 479 255 443 Q261 407 261 370 Q261 318 239 289 Q217 260 176 252 Q218 244 240.5 212.5 Q263 181 263 127 Q263 90 257 55 Q251 20 251 -15 Q251 -42 255 -64.5 Q259 -87 270.5 -103.5 Q282 -120 303 -129 Q324 -138 358 -138 L352 -211 Q292 -211 252 -196 Q212 -181 188 -156 Q164 -131 154 -98.5 Q144 -66 144 -31 Q144 1 147.5 37.5 Q151 74 151 103 Q151 153 135.5 179.5 Q120 206 83 206 L56 206 L56 294 L83 294 Q119 294 134.5 320.5 Q150 347 150 396 Q150 426 146.5 462.5 Q143 499 143 531 Q143 565 153 597.5 Q163 630 187.5 655 Q212 680 252 695 Q292 710 352 710 L358 636 Z " />
<glyph glyph-name="braceright" unicode="&#x7d;" horiz-adv-x="388" d="M36 710 Q96 710 136 695 Q176 680 200 655 Q224 630 234 597.5 Q244 565 244 530 Q244 498 240.5 461.5 Q237 425 237 395 Q237 346 252.5 319.5 Q268 293 305 293 L332 293 L332 205 L305 205 Q269 205 253.5 178.5 Q238 152 238 103 Q238 73 241 36.5 Q244 0 244 -32 Q244 -67 234 -99.5 Q224 -132 200 -156.5 Q176 -181 136 -196 Q96 -211 36 -211 L30 -137 Q65 -137 86.5 -128 Q108 -119 119.5 -103 Q131 -87 135 -65 Q139 -43 139 -17 Q139 19 132.5 55 Q126 91 126 128 Q126 181 148.5 210 Q171 239 212 247 Q170 255 147.5 286 Q125 317 125 371 Q125 408 130.5 443 Q136 478 136 513 Q136 540 132 562.5 Q128 585 117 601.5 Q106 618 85 627 Q64 636 30 636 L36 710 Z " />
<glyph glyph-name="slash" unicode="&#x2f;" horiz-adv-x="490" d="M476 700 L130 0 L14 0 L360 700 L476 700 Z " />
<glyph glyph-name="backslash" unicode="&#x5c;" horiz-adv-x="450" d="M130 700 L476 0 L359 0 L14 700 L130 700 Z " />
<glyph glyph-name="asterisk" unicode="&#x2a;" horiz-adv-x="474" d="M281 700 L273 573 L397 618 L424 534 L297 503 L379 395 L308 343 L239 456 L166 343 L95 395 L181 503 L50 534 L77 618 L200 573 L191 700 L281 700 Z " />
<glyph glyph-name="bullet" unicode="&#x2022;" horiz-adv-x="394" d="M197 127 Q167 127 140.5 138 Q114 149 94.5 168.5 Q75 188 64 214.5 Q53 241 53 271 Q53 301 64 327.5 Q75 354 94.5 373.5 Q114 393 140.5 404.5 Q167 416 197 416 Q227 416 253 404.5 Q279 393 298.5 373.5 Q318 354 329.5 327.5 Q341 301 341 271 Q341 241 329.5 214.5 Q318 188 298.5 168.5 Q279 149 253 138 Q227 127 197 127 Z " />
<glyph glyph-name="section" unicode="&#xa7;" horiz-adv-x="609" d="M476 217 Q476 246 461.5 266 Q447 286 423 300 Q399 314 368 323.5 Q337 333 303 342 Q269 351 235 361 Q201 371 171 386 Q158 370 150 349.5 Q142 329 142 306 Q142 262 172.5 238.5 Q203 215 249 199.5 Q295 184 348.5 171.5 Q402 159 447 138 Q460 154 468 174 Q476 194 476 217 Z M303 710 Q363 710 410 694.5 Q457 679 490 652 Q523 625 542.5 587.5 Q562 550 568 506 L450 506 Q443 554 408.5 584.5 Q374 615 302 615 Q269 615 246.5 608 Q224 601 210.5 589.5 Q197 578 191.5 563 Q186 548 186 531 Q186 499 215 481.5 Q244 464 288 452 Q332 440 382.5 427.5 Q433 415 477 392.5 Q521 370 550 332.5 Q579 295 579 233 Q579 188 559.5 152.5 Q540 117 511 93 Q528 74 538.5 49.5 Q549 25 549 -8 Q549 -46 534.5 -78.5 Q520 -111 491.5 -135 Q463 -159 420 -173 Q377 -187 321 -187 Q261 -187 214 -171.5 Q167 -156 133.5 -129 Q100 -102 80.5 -64.5 Q61 -27 55 17 L173 17 Q180 -31 214.5 -61.5 Q249 -92 321 -92 Q354 -92 376.5 -85 Q399 -78 412.5 -66.5 Q426 -55 431.5 -40 Q437 -25 437 -8 Q437 24 407.5 41.5 Q378 59 334 71 Q290 83 238 95.5 Q186 108 142 130.5 Q98 153 68.5 190.5 Q39 228 39 290 Q39 335 58.5 371.5 Q78 408 109 432 Q92 450 83 474.5 Q74 499 74 531 Q74 569 88.5 601.5 Q103 634 132 658 Q161 682 203.5 696 Q246 710 303 710 Z " />
<glyph glyph-name="dagger" unicode="&#x2020;" horiz-adv-x="472" d="M303 700 L286 540 L447 557 L447 447 L286 464 L303 303 L193 303 L210 464 L50 447 L50 557 L210 540 L193 700 L303 700 Z " />
<glyph glyph-name="daggerdbl" unicode="&#x2021;" horiz-adv-x="497" d="M303 700 L286 540 L447 557 L447 447 L286 464 L286 237 L447 253 L447 144 L286 160 L303 0 L193 0 L210 160 L50 144 L50 253 L210 237 L210 464 L50 447 L50 557 L210 540 L193 700 L303 700 Z " />
<glyph glyph-name="paragraph" unicode="&#xb6;" horiz-adv-x="560" d="M493 500 L493 -41 Q493 -86 476.5 -119 Q460 -152 433 -174 Q406 -196 372 -206.5 Q338 -217 304 -217 L304 -128 Q321 -128 336 -124.5 Q351 -121 362.5 -112 Q374 -103 380.5 -87.5 Q387 -72 387 -46 L387 0 L258 0 Q205 0 164 20.5 Q123 41 94.5 76 Q66 111 51.5 157 Q37 203 37 253 Q37 303 51.5 348 Q66 393 93.5 426.5 Q121 460 161 480 Q201 500 253 500 L493 500 Z " />
<glyph glyph-name="copyright" unicode="&#xa9;" horiz-adv-x="821" d="M417 581 Q493 581 544.5 538 Q596 495 608 415 L506 415 Q499 451 475 474.5 Q451 498 413 498 Q359 498 333 458 Q307 418 307 350 Q307 281 333 241 Q359 201 413 201 Q451 201 474.5 225 Q498 249 506 284 L608 284 Q596 205 544.5 161.5 Q493 118 417 118 Q317 118 261.5 179 Q206 240 206 350 Q206 459 261.5 520 Q317 581 417 581 Z M409 710 Q485 710 552.5 684 Q620 658 670 610.5 Q720 563 749 496.5 Q778 430 778 350 Q778 268 749 201.5 Q720 135 669.5 88 Q619 41 552 15.5 Q485 -10 409 -10 Q335 -10 268.5 15.5 Q202 41 152 88 Q102 135 72.5 201.5 Q43 268 43 350 Q43 432 72.5 498.5 Q102 565 152.5 612 Q203 659 269 684.5 Q335 710 409 710 Z M409 639 Q346 639 296 617.5 Q246 596 210.5 557.5 Q175 519 156 466 Q137 413 137 350 Q137 287 156 234 Q175 181 210.5 142.5 Q246 104 296 82.5 Q346 61 409 61 Q473 61 524 82.5 Q575 104 610 142.5 Q645 181 663.5 234 Q682 287 682 350 Q682 413 663.5 466 Q645 519 610 557.5 Q575 596 524 617.5 Q473 639 409 639 Z " />
<glyph glyph-name="registered" unicode="&#xae;" horiz-adv-x="513" d="M214 522 L263 522 Q284 522 292 531.5 Q300 541 300 557 Q300 571 292.5 579.5 Q285 588 263 588 L214 588 L214 522 Z M276 628 Q317 628 335.5 609.5 Q354 591 354 565 Q354 541 341 524.5 Q328 508 303 503 Q314 501 322.5 495.5 Q331 490 337 477.5 Q343 465 346.5 443.5 Q350 422 350 388 L298 388 Q298 421 295.5 440 Q293 459 288.5 469.5 Q284 480 276.5 483 Q269 486 260 486 L214 486 L214 388 L162 388 L162 628 L276 628 Z M251 710 Q296 710 334 695.5 Q372 681 400 654.5 Q428 628 444 590 Q460 552 460 506 Q460 459 444 422 Q428 385 399.5 358.5 Q371 332 333 318 Q295 304 251 304 Q208 304 170.5 318 Q133 332 104.5 358 Q76 384 59.5 421.5 Q43 459 43 506 Q43 552 59.5 590 Q76 628 104.5 654.5 Q133 681 171 695.5 Q209 710 251 710 Z M251 668 Q219 668 191 657.5 Q163 647 142.5 626.5 Q122 606 110.5 576 Q99 546 99 507 Q99 435 140 390.5 Q181 346 251 346 Q287 346 315.5 358 Q344 370 363.5 391 Q383 412 393.5 441.5 Q404 471 404 507 Q404 543 393.5 572.5 Q383 602 363.5 623 Q344 644 315.5 656 Q287 668 251 668 Z " />
<glyph glyph-name="trademark" unicode="&#x2122;" horiz-adv-x="776" d="M447 700 L526 468 L605 700 L709 700 L709 370 L640 370 L640 615 L556 370 L496 370 L411 615 L411 370 L343 370 L343 643 L221 643 L221 370 L150 370 L150 643 L39 643 L39 700 L447 700 Z " />
<glyph glyph-name="ampersand" unicode="&#x26;" horiz-adv-x="732" d="M285 88 Q323 88 356 99 Q389 110 416 130 Q356 176 304.5 231 Q253 286 218 344 Q183 327 165.5 294.5 Q148 262 148 226 Q148 199 156.5 174 Q165 149 182 130 Q199 111 224.5 99.5 Q250 88 285 88 Z M727 -9 Q676 -9 614.5 14.5 Q553 38 489 78 Q444 38 389 14.5 Q334 -9 269 -9 Q211 -9 168 8.5 Q125 26 96.5 55 Q68 84 53.5 121.5 Q39 159 39 200 Q39 234 48 266.5 Q57 299 75.5 326.5 Q94 354 121.5 375 Q149 396 185 408 Q162 462 162 512 Q162 552 174.5 588 Q187 624 213.5 651 Q240 678 282 694 Q324 710 383 710 Q433 710 473.5 696 Q514 682 543 658 Q572 634 588 601 Q604 568 606 531 L495 531 Q489 564 463 587.5 Q437 611 379 611 Q350 611 329.5 603 Q309 595 295.5 582 Q282 569 275.5 551.5 Q269 534 269 516 Q269 482 286.5 442 Q304 402 334 361.5 Q364 321 403.5 281 Q443 241 486 207 Q518 258 535 316.5 Q552 375 554 427 L677 427 Q666 361 636.5 289.5 Q607 218 560 155 Q606 126 649 110 Q692 94 727 94 L727 -9 Z " />
<glyph glyph-name="at" unicode="&#x40;" horiz-adv-x="853" d="M482 609 Q563 609 623 586.5 Q683 564 722 525.5 Q761 487 780 435 Q799 383 799 324 Q799 266 783 213.5 Q767 161 737.5 121.5 Q708 82 666.5 58.5 Q625 35 575 35 Q543 35 521 49 Q499 63 499 101 Q499 109 499.5 117 Q500 125 502 137 Q479 91 438.5 66.5 Q398 42 346 42 Q284 42 245.5 80.5 Q207 119 207 187 Q207 234 221 283.5 Q235 333 263 373.5 Q291 414 331.5 440 Q372 466 426 466 Q480 466 508.5 438 Q537 410 543 371 L560 449 L640 449 L585 185 Q582 173 581 163 Q580 153 580 145 Q580 114 606 114 Q627 114 646.5 130.5 Q666 147 681 175.5 Q696 204 705 241.5 Q714 279 714 320 Q714 367 700.5 407 Q687 447 658.5 476 Q630 505 585.5 521.5 Q541 538 479 538 Q398 538 335 509 Q272 480 229 431.5 Q186 383 164 320.5 Q142 258 142 191 Q142 87 201 25.5 Q260 -36 371 -36 Q400 -36 430.5 -28.5 Q461 -21 482 -13 L484 -88 Q458 -99 426.5 -105.5 Q395 -112 357 -112 Q286 -112 229.5 -89.5 Q173 -67 134 -26.5 Q95 14 74.5 70.5 Q54 127 54 194 Q54 275 83.5 350 Q113 425 168.5 482.5 Q224 540 303.5 574.5 Q383 609 482 609 Z M437 391 Q403 391 377.5 373.5 Q352 356 335.5 328 Q319 300 310.5 266.5 Q302 233 302 201 Q302 159 321.5 137 Q341 115 380 115 Q415 115 441.5 132 Q468 149 486 175.5 Q504 202 513 234.5 Q522 267 522 299 Q522 347 500 369 Q478 391 437 391 Z " />
<glyph glyph-name="acute" unicode="&#xb4;" horiz-adv-x="304" d="M262 703 L118 547 L41 547 L147 717 L262 703 Z " />
<glyph glyph-name="grave" unicode="&#x60;" horiz-adv-x="304" d="M157 717 L262 547 L186 547 L42 703 L157 717 Z " />
<glyph glyph-name="caron" unicode="&#x2c7;" horiz-adv-x="424" d="M121 711 L212 615 L303 711 L380 698 L263 547 L161 547 L44 698 L121 711 Z " />
<glyph glyph-name="circumflex" unicode="&#x2c6;" horiz-adv-x="424" d="M263 707 L380 557 L303 543 L213 640 L121 543 L44 557 L161 707 L263 707 Z " />
<glyph glyph-name="breve" unicode="&#x2d8;" horiz-adv-x="345" d="M104 696 Q105 663 122 644 Q139 625 172 625 Q209 625 224.5 646 Q240 667 240 696 L308 689 Q308 658 297.5 634 Q287 610 268.5 593 Q250 576 225 567 Q200 558 172 558 Q144 558 119.5 567 Q95 576 76.5 593 Q58 610 47.5 634 Q37 658 37 689 L104 696 Z " />
<glyph glyph-name="dieresis" unicode="&#xa8;" horiz-adv-x="382" d="M238 584 L238 671 L321 671 L321 584 L238 584 Z M61 584 L61 671 L144 671 L144 584 L61 584 Z " />
<glyph glyph-name="dotaccent" unicode="&#x2d9;" horiz-adv-x="205" d="M49 584 L49 683 L156 683 L156 584 L49 584 Z " />
<glyph glyph-name="hungarumlaut" unicode="&#x2dd;" horiz-adv-x="438" d="M388 703 L269 554 L208 554 L300 716 L388 703 Z M230 703 L111 554 L50 554 L142 716 L230 703 Z " />
<glyph glyph-name="macron" unicode="&#xaf;" horiz-adv-x="358" d="M50 578 L50 650 L308 650 L308 578 L50 578 Z " />
<glyph glyph-name="ring" unicode="&#x2da;" horiz-adv-x="336" d="M167 673 Q141 673 127.5 660 Q114 647 114 630 Q114 607 129 595.5 Q144 584 167 584 Q219 584 219 629 Q219 650 203.5 661.5 Q188 673 167 673 Z M167 727 Q192 727 214 720.5 Q236 714 252.5 701.5 Q269 689 278.5 670.5 Q288 652 288 629 Q288 605 278.5 587 Q269 569 252.5 557 Q236 545 214 538.5 Q192 532 167 532 Q143 532 121 538.5 Q99 545 82.5 557 Q66 569 56.5 587 Q47 605 47 629 Q47 652 56.5 670.5 Q66 689 82.5 701.5 Q99 714 121 720.5 Q143 727 167 727 Z " />
<glyph glyph-name="tilde" unicode="&#x2dc;" horiz-adv-x="426" d="M146 691 Q170 691 189.5 682 Q209 673 224.5 662.5 Q240 652 253.5 643 Q267 634 281 634 Q297 634 307.5 642.5 Q318 651 322 676 L370 668 Q365 619 343 591.5 Q321 564 283 564 Q260 564 242 573.5 Q224 583 208 594 Q192 605 176.5 614.5 Q161 624 143 624 Q106 624 102 578 L55 589 Q59 637 81.5 664 Q104 691 146 691 Z " />
<glyph glyph-name="ogonek" unicode="&#x2db;" horiz-adv-x="260" d="M189 0 Q164 -19 149.5 -45.5 Q135 -72 135 -98 Q135 -121 148.5 -133.5 Q162 -146 187 -146 Q198 -146 210 -143 L210 -213 Q193 -217 168 -217 Q114 -217 82 -191 Q50 -165 50 -123 Q50 -88 71 -56 Q92 -24 130 0 L189 0 Z " />
<glyph glyph-name="cedilla" unicode="&#xb8;" horiz-adv-x="348" d="M202 0 L165 -55 Q180 -52 195 -52 Q214 -52 232 -56.5 Q250 -61 264 -71 Q278 -81 287 -96 Q296 -111 296 -133 Q296 -178 257.5 -203.5 Q219 -229 161 -229 Q129 -229 99 -220 Q69 -211 50 -193 L82 -155 Q91 -166 111.5 -173 Q132 -180 154 -180 Q184 -180 198.5 -169 Q213 -158 213 -140 Q213 -112 190 -101.5 Q167 -91 132 -91 Q120 -91 107 -92 Q94 -93 81 -95 L132 0 L202 0 Z " />
<glyph glyph-name="Delta" unicode="&#x2206;" horiz-adv-x="637" d="M404 700 L644 0 L-6 0 L236 700 L404 700 Z M317 609 Q313 589 308.5 569.5 Q304 550 297 530 L148 95 L482 95 L336 531 Q330 550 325.5 569.5 Q321 589 317 609 Z " />
<glyph glyph-name="Omega" unicode="&#x2126;" horiz-adv-x="766" d="M383 710 Q459 710 519.5 685 Q580 660 622 614.5 Q664 569 686.5 506 Q709 443 709 367 Q709 324 700 282 Q691 240 674 203.5 Q657 167 632 138.5 Q607 110 576 95 L751 95 L751 0 L436 0 L436 103 Q511 123 545 186.5 Q579 250 579 358 Q579 413 567 458.5 Q555 504 530.5 536.5 Q506 569 469 586.5 Q432 604 383 604 Q333 604 296.5 586.5 Q260 569 235 536.5 Q210 504 198 458.5 Q186 413 186 358 Q186 250 220 186.5 Q254 123 330 103 L330 0 L16 0 L16 95 L189 95 Q157 110 132.5 138.5 Q108 167 91 203.5 Q74 240 65 282 Q56 324 56 367 Q56 443 78.5 506 Q101 569 143 614.5 Q185 660 245.5 685 Q306 710 383 710 Z " />
<glyph glyph-name="mu" unicode="&#xb5;" horiz-adv-x="573" d="M182 500 L182 191 Q182 140 200 113 Q218 86 266 86 Q289 86 309.5 94.5 Q330 103 345 120 Q360 137 369 164 Q378 191 378 228 L378 500 L489 500 L489 147 Q489 90 536 90 Q540 90 546.5 90.5 Q553 91 559 92 L559 1 Q544 -2 529 -3.5 Q514 -5 502 -5 Q448 -5 414.5 18 Q381 41 378 95 Q370 74 357.5 55 Q345 36 327 21.5 Q309 7 286 -1.5 Q263 -10 233 -10 Q176 -10 154 34 L181 -206 L70 -206 L70 500 L182 500 Z " />
<glyph glyph-name="pi" unicode="&#x3c0;" horiz-adv-x="583" d="M572 500 L572 417 L473 417 L473 146 Q473 89 520 89 Q524 89 530.5 89.5 Q537 90 543 91 L543 -1 Q528 -3 511.5 -4.5 Q495 -6 481 -6 Q427 -6 394.5 18 Q362 42 362 100 L362 417 L222 417 L222 0 L111 0 L111 417 L11 417 L11 500 L572 500 Z " />
<glyph glyph-name="Aacute" unicode="&#xc1;" horiz-adv-x="647" d="M477 865 L327 724 L256 724 L373 877 L477 865 Z M321 623 Q316 600 308 571 Q300 542 293 520 L211 281 L430 281 L349 521 Q341 543 333.5 571.5 Q326 600 321 623 Z M412 700 L654 0 L521 0 L458 189 L183 189 L120 0 L-6 0 L237 700 L412 700 Z " />
<glyph glyph-name="Acircumflex" unicode="&#xc2;" horiz-adv-x="647" d="M420 724 L324 811 L226 724 L155 737 L278 877 L368 877 L491 737 L420 724 Z M321 623 Q316 600 308 571 Q300 542 293 520 L211 281 L430 281 L349 521 Q341 543 333.5 571.5 Q326 600 321 623 Z M412 700 L654 0 L521 0 L458 189 L183 189 L120 0 L-6 0 L237 700 L412 700 Z " />
<glyph glyph-name="Adieresis" unicode="&#xc4;" horiz-adv-x="647" d="M376 751 L376 834 L459 834 L459 751 L376 751 Z M188 751 L188 834 L270 834 L270 751 L188 751 Z M321 623 Q316 600 308 571 Q300 542 293 520 L211 281 L430 281 L349 521 Q341 543 333.5 571.5 Q326 600 321 623 Z M412 700 L654 0 L521 0 L458 189 L183 189 L120 0 L-6 0 L237 700 L412 700 Z " />
<glyph glyph-name="Agrave" unicode="&#xc0;" horiz-adv-x="647" d="M280 877 L397 724 L326 724 L176 865 L280 877 Z M321 623 Q316 600 308 571 Q300 542 293 520 L211 281 L430 281 L349 521 Q341 543 333.5 571.5 Q326 600 321 623 Z M412 700 L654 0 L521 0 L458 189 L183 189 L120 0 L-6 0 L237 700 L412 700 Z " />
<glyph glyph-name="Aring" unicode="&#xc5;" horiz-adv-x="647" d="M322 834 Q295 834 280.5 823 Q266 812 266 794 Q266 772 282.5 763 Q299 754 322 754 Q349 754 364 764 Q379 774 379 794 Q379 815 362 824.5 Q345 834 322 834 Z M323 879 Q373 879 407 857.5 Q441 836 441 794 Q441 752 407 731.5 Q373 711 323 711 Q274 711 239.5 731.5 Q205 752 205 794 Q205 836 239.5 857.5 Q274 879 323 879 Z M321 623 Q316 600 308 571 Q300 542 293 520 L211 281 L430 281 L349 521 Q341 543 333.5 571.5 Q326 600 321 623 Z M412 700 L654 0 L521 0 L458 189 L183 189 L120 0 L-6 0 L237 700 L412 700 Z " />
<glyph glyph-name="Atilde" unicode="&#xc3;" horiz-adv-x="647" d="M256 850 Q280 850 299.5 841.5 Q319 833 334.5 823 Q350 813 363.5 804.5 Q377 796 391 796 Q407 796 417.5 804 Q428 812 432 836 L480 828 Q475 783 453 757.5 Q431 732 393 732 Q370 732 352 741 Q334 750 318 760.5 Q302 771 286.5 780 Q271 789 253 789 Q216 789 212 745 L165 755 Q169 800 191.5 825 Q214 850 256 850 Z M321 623 Q316 600 308 571 Q300 542 293 520 L211 281 L430 281 L349 521 Q341 543 333.5 571.5 Q326 600 321 623 Z M412 700 L654 0 L521 0 L458 189 L183 189 L120 0 L-6 0 L237 700 L412 700 Z " />
<glyph glyph-name="Ccedilla" unicode="&#xc7;" horiz-adv-x="705" d="M675 217 Q669 169 647.5 129 Q626 89 591 59 Q556 29 509 11.5 Q462 -6 405 -9 L375 -55 Q390 -52 405 -52 Q424 -52 442 -56.5 Q460 -61 474 -71 Q488 -81 497 -96 Q506 -111 506 -133 Q506 -178 467.5 -203.5 Q429 -229 371 -229 Q339 -229 309 -220 Q279 -211 260 -193 L292 -155 Q301 -166 321.5 -173 Q342 -180 364 -180 Q394 -180 408.5 -169 Q423 -158 423 -140 Q423 -112 400 -101.5 Q377 -91 342 -91 Q330 -91 317 -92 Q304 -93 291 -95 L338 -7 Q271 1 218.5 31.5 Q166 62 129.5 109.5 Q93 157 74 218.5 Q55 280 55 350 Q55 426 77.5 491.5 Q100 557 142.5 605.5 Q185 654 246 682 Q307 710 384 710 Q445 710 496 693.5 Q547 677 584.5 647 Q622 617 645.5 575 Q669 533 675 483 L552 483 Q541 539 498 571.5 Q455 604 384 604 Q333 604 296 585.5 Q259 567 234 533 Q209 499 197 452.5 Q185 406 185 350 Q185 294 197 247.5 Q209 201 234 167 Q259 133 296 114.5 Q333 96 384 96 Q455 96 498 128.5 Q541 161 552 217 L675 217 Z " />
<glyph glyph-name="Eacute" unicode="&#xc9;" horiz-adv-x="605" d="M484 865 L334 724 L263 724 L380 877 L484 865 Z M83 0 L83 700 L555 700 L555 605 L204 605 L204 409 L495 409 L495 316 L204 316 L204 95 L562 95 L562 0 L83 0 Z " />
<glyph glyph-name="Ecircumflex" unicode="&#xca;" horiz-adv-x="605" d="M426 724 L330 811 L232 724 L161 737 L284 877 L374 877 L497 737 L426 724 Z M83 0 L83 700 L555 700 L555 605 L204 605 L204 409 L495 409 L495 316 L204 316 L204 95 L562 95 L562 0 L83 0 Z " />
<glyph glyph-name="Edieresis" unicode="&#xcb;" horiz-adv-x="605" d="M380 751 L380 834 L463 834 L463 751 L380 751 Z M192 751 L192 834 L274 834 L274 751 L192 751 Z M83 0 L83 700 L555 700 L555 605 L204 605 L204 409 L495 409 L495 316 L204 316 L204 95 L562 95 L562 0 L83 0 Z " />
<glyph glyph-name="Egrave" unicode="&#xc8;" horiz-adv-x="605" d="M276 877 L393 724 L322 724 L172 865 L276 877 Z M83 0 L83 700 L555 700 L555 605 L204 605 L204 409 L495 409 L495 316 L204 316 L204 95 L562 95 L562 0 L83 0 Z " />
<glyph glyph-name="Iacute" unicode="&#xcd;" horiz-adv-x="286" d="M300 865 L150 724 L79 724 L196 877 L300 865 Z M83 0 L83 700 L204 700 L204 0 L83 0 Z " />
<glyph glyph-name="Icircumflex" unicode="&#xce;" horiz-adv-x="286" d="M241 724 L145 811 L47 724 L-24 737 L99 877 L189 877 L312 737 L241 724 Z M83 0 L83 700 L204 700 L204 0 L83 0 Z " />
<glyph glyph-name="Idieresis" unicode="&#xcf;" horiz-adv-x="286" d="M196 751 L196 834 L279 834 L279 751 L196 751 Z M8 751 L8 834 L90 834 L90 751 L8 751 Z M83 0 L83 700 L204 700 L204 0 L83 0 Z " />
<glyph glyph-name="Igrave" unicode="&#xcc;" horiz-adv-x="286" d="M88 877 L205 724 L134 724 L-16 865 L88 877 Z M83 0 L83 700 L204 700 L204 0 L83 0 Z " />
<glyph glyph-name="Ntilde" unicode="&#xd1;" horiz-adv-x="715" d="M290 850 Q314 850 333.5 841.5 Q353 833 368.5 823 Q384 813 397.5 804.5 Q411 796 425 796 Q441 796 451.5 804 Q462 812 466 836 L514 828 Q509 783 487 757.5 Q465 732 427 732 Q404 732 386 741 Q368 750 352 760.5 Q336 771 320.5 780 Q305 789 287 789 Q250 789 246 745 L199 755 Q203 800 225.5 825 Q248 850 290 850 Z M253 700 L490 218 Q497 204 505 181 Q513 158 518 136 Q516 153 515 181 Q514 209 514 226 L514 700 L632 700 L632 0 L476 0 L227 514 Q220 530 212.5 553.5 Q205 577 200 596 Q201 588 201.5 577 Q202 566 202.5 554 Q203 542 203.5 530.5 Q204 519 204 512 L204 0 L83 0 L83 700 L253 700 Z " />
<glyph glyph-name="Oacute" unicode="&#xd3;" horiz-adv-x="765" d="M520 865 L370 724 L299 724 L416 877 L520 865 Z M383 710 Q459 710 520 682 Q581 654 623 605.5 Q665 557 687.5 491.5 Q710 426 710 350 Q710 274 687.5 208.5 Q665 143 623 94.5 Q581 46 520 18 Q459 -10 383 -10 Q306 -10 245 18 Q184 46 142 94.5 Q100 143 77.5 208.5 Q55 274 55 350 Q55 426 77.5 491.5 Q100 557 142 605.5 Q184 654 245 682 Q306 710 383 710 Z M383 604 Q332 604 295 585.5 Q258 567 233.5 533 Q209 499 197 452.5 Q185 406 185 350 Q185 294 197 247.5 Q209 201 233.5 167 Q258 133 295 114.5 Q332 96 383 96 Q433 96 470 114.5 Q507 133 531.5 167 Q556 201 568 247.5 Q580 294 580 350 Q580 406 568 452.5 Q556 499 531.5 533 Q507 567 470 585.5 Q433 604 383 604 Z " />
<glyph glyph-name="Ocircumflex" unicode="&#xd4;" horiz-adv-x="765" d="M479 724 L383 811 L285 724 L214 737 L337 877 L427 877 L550 737 L479 724 Z M383 710 Q459 710 520 682 Q581 654 623 605.5 Q665 557 687.5 491.5 Q710 426 710 350 Q710 274 687.5 208.5 Q665 143 623 94.5 Q581 46 520 18 Q459 -10 383 -10 Q306 -10 245 18 Q184 46 142 94.5 Q100 143 77.5 208.5 Q55 274 55 350 Q55 426 77.5 491.5 Q100 557 142 605.5 Q184 654 245 682 Q306 710 383 710 Z M383 604 Q332 604 295 585.5 Q258 567 233.5 533 Q209 499 197 452.5 Q185 406 185 350 Q185 294 197 247.5 Q209 201 233.5 167 Q258 133 295 114.5 Q332 96 383 96 Q433 96 470 114.5 Q507 133 531.5 167 Q556 201 568 247.5 Q580 294 580 350 Q580 406 568 452.5 Q556 499 531.5 533 Q507 567 470 585.5 Q433 604 383 604 Z " />
<glyph glyph-name="Odieresis" unicode="&#xd6;" horiz-adv-x="765" d="M435 751 L435 834 L518 834 L518 751 L435 751 Z M247 751 L247 834 L329 834 L329 751 L247 751 Z M383 710 Q459 710 520 682 Q581 654 623 605.5 Q665 557 687.5 491.5 Q710 426 710 350 Q710 274 687.5 208.5 Q665 143 623 94.5 Q581 46 520 18 Q459 -10 383 -10 Q306 -10 245 18 Q184 46 142 94.5 Q100 143 77.5 208.5 Q55 274 55 350 Q55 426 77.5 491.5 Q100 557 142 605.5 Q184 654 245 682 Q306 710 383 710 Z M383 604 Q332 604 295 585.5 Q258 567 233.5 533 Q209 499 197 452.5 Q185 406 185 350 Q185 294 197 247.5 Q209 201 233.5 167 Q258 133 295 114.5 Q332 96 383 96 Q433 96 470 114.5 Q507 133 531.5 167 Q556 201 568 247.5 Q580 294 580 350 Q580 406 568 452.5 Q556 499 531.5 533 Q507 567 470 585.5 Q433 604 383 604 Z " />
<glyph glyph-name="Ograve" unicode="&#xd2;" horiz-adv-x="765" d="M347 877 L464 724 L393 724 L243 865 L347 877 Z M383 710 Q459 710 520 682 Q581 654 623 605.5 Q665 557 687.5 491.5 Q710 426 710 350 Q710 274 687.5 208.5 Q665 143 623 94.5 Q581 46 520 18 Q459 -10 383 -10 Q306 -10 245 18 Q184 46 142 94.5 Q100 143 77.5 208.5 Q55 274 55 350 Q55 426 77.5 491.5 Q100 557 142 605.5 Q184 654 245 682 Q306 710 383 710 Z M383 604 Q332 604 295 585.5 Q258 567 233.5 533 Q209 499 197 452.5 Q185 406 185 350 Q185 294 197 247.5 Q209 201 233.5 167 Q258 133 295 114.5 Q332 96 383 96 Q433 96 470 114.5 Q507 133 531.5 167 Q556 201 568 247.5 Q580 294 580 350 Q580 406 568 452.5 Q556 499 531.5 533 Q507 567 470 585.5 Q433 604 383 604 Z " />
<glyph glyph-name="Otilde" unicode="&#xd5;" horiz-adv-x="765" d="M315 850 Q339 850 358.5 841.5 Q378 833 393.5 823 Q409 813 422.5 804.5 Q436 796 450 796 Q466 796 476.5 804 Q487 812 491 836 L539 828 Q534 783 512 757.5 Q490 732 452 732 Q429 732 411 741 Q393 750 377 760.5 Q361 771 345.5 780 Q330 789 312 789 Q275 789 271 745 L224 755 Q228 800 250.5 825 Q273 850 315 850 Z M383 710 Q459 710 520 682 Q581 654 623 605.5 Q665 557 687.5 491.5 Q710 426 710 350 Q710 274 687.5 208.5 Q665 143 623 94.5 Q581 46 520 18 Q459 -10 383 -10 Q306 -10 245 18 Q184 46 142 94.5 Q100 143 77.5 208.5 Q55 274 55 350 Q55 426 77.5 491.5 Q100 557 142 605.5 Q184 654 245 682 Q306 710 383 710 Z M383 604 Q332 604 295 585.5 Q258 567 233.5 533 Q209 499 197 452.5 Q185 406 185 350 Q185 294 197 247.5 Q209 201 233.5 167 Q258 133 295 114.5 Q332 96 383 96 Q433 96 470 114.5 Q507 133 531.5 167 Q556 201 568 247.5 Q580 294 580 350 Q580 406 568 452.5 Q556 499 531.5 533 Q507 567 470 585.5 Q433 604 383 604 Z " />
<glyph glyph-name="Uacute" unicode="&#xda;" horiz-adv-x="711" d="M502 865 L352 724 L281 724 L398 877 L502 865 Z M513 700 L635 700 L635 206 Q635 152 611.5 111.5 Q588 71 549 44 Q510 17 459 3.5 Q408 -10 353 -10 Q298 -10 248 3.5 Q198 17 160 44 Q122 71 99.5 111.5 Q77 152 77 206 L77 700 L198 700 L198 229 Q198 157 238 124 Q278 91 356 91 Q434 91 473.5 124.5 Q513 158 513 229 L513 700 Z " />
<glyph glyph-name="Ucircumflex" unicode="&#xdb;" horiz-adv-x="711" d="M453 724 L357 811 L259 724 L188 737 L311 877 L401 877 L524 737 L453 724 Z M513 700 L635 700 L635 206 Q635 152 611.5 111.5 Q588 71 549 44 Q510 17 459 3.5 Q408 -10 353 -10 Q298 -10 248 3.5 Q198 17 160 44 Q122 71 99.5 111.5 Q77 152 77 206 L77 700 L198 700 L198 229 Q198 157 238 124 Q278 91 356 91 Q434 91 473.5 124.5 Q513 158 513 229 L513 700 Z " />
<glyph glyph-name="Udieresis" unicode="&#xdc;" horiz-adv-x="711" d="M408 751 L408 834 L491 834 L491 751 L408 751 Z M220 751 L220 834 L302 834 L302 751 L220 751 Z M513 700 L635 700 L635 206 Q635 152 611.5 111.5 Q588 71 549 44 Q510 17 459 3.5 Q408 -10 353 -10 Q298 -10 248 3.5 Q198 17 160 44 Q122 71 99.5 111.5 Q77 152 77 206 L77 700 L198 700 L198 229 Q198 157 238 124 Q278 91 356 91 Q434 91 473.5 124.5 Q513 158 513 229 L513 700 Z " />
<glyph glyph-name="Ugrave" unicode="&#xd9;" horiz-adv-x="711" d="M325 877 L442 724 L371 724 L221 865 L325 877 Z M513 700 L635 700 L635 206 Q635 152 611.5 111.5 Q588 71 549 44 Q510 17 459 3.5 Q408 -10 353 -10 Q298 -10 248 3.5 Q198 17 160 44 Q122 71 99.5 111.5 Q77 152 77 206 L77 700 L198 700 L198 229 Q198 157 238 124 Q278 91 356 91 Q434 91 473.5 124.5 Q513 158 513 229 L513 700 Z " />
<glyph glyph-name="Ydieresis" unicode="&#x178;" horiz-adv-x="643" d="M377 751 L377 834 L460 834 L460 751 L377 751 Z M189 751 L189 834 L271 834 L271 751 L189 751 Z M262 0 L262 308 L-6 700 L135 700 L326 410 L518 700 L650 700 L382 308 L382 0 L262 0 Z " />
<glyph glyph-name="aacute" unicode="&#xe1;" horiz-adv-x="539" d="M412 703 L268 547 L191 547 L297 717 L412 703 Z M311 233 Q235 233 196 213 Q157 193 157 146 Q157 113 176.5 95 Q196 77 231 77 Q257 77 280 85 Q303 93 320 109 Q337 125 347 147 Q357 169 357 198 L357 232 Q346 233 334.5 233 Q323 233 311 233 Z M275 510 Q330 510 367.5 498 Q405 486 427 464.5 Q449 443 458.5 414 Q468 385 468 351 L468 0 L357 0 L357 86 Q336 40 297 16 Q258 -8 195 -8 Q124 -8 83.5 29 Q43 66 43 129 Q43 214 105.5 260 Q168 306 308 306 Q320 306 333 305.5 Q346 305 357 304 L357 351 Q357 386 338.5 406.5 Q320 427 269 427 Q218 427 190.5 406 Q163 385 161 347 L57 347 Q63 424 118.5 467 Q174 510 275 510 Z " />
<glyph glyph-name="acircumflex" unicode="&#xe2;" horiz-adv-x="539" d="M321 707 L438 557 L361 543 L271 640 L179 543 L102 557 L219 707 L321 707 Z M311 233 Q235 233 196 213 Q157 193 157 146 Q157 113 176.5 95 Q196 77 231 77 Q257 77 280 85 Q303 93 320 109 Q337 125 347 147 Q357 169 357 198 L357 232 Q346 233 334.5 233 Q323 233 311 233 Z M275 510 Q330 510 367.5 498 Q405 486 427 464.5 Q449 443 458.5 414 Q468 385 468 351 L468 0 L357 0 L357 86 Q336 40 297 16 Q258 -8 195 -8 Q124 -8 83.5 29 Q43 66 43 129 Q43 214 105.5 260 Q168 306 308 306 Q320 306 333 305.5 Q346 305 357 304 L357 351 Q357 386 338.5 406.5 Q320 427 269 427 Q218 427 190.5 406 Q163 385 161 347 L57 347 Q63 424 118.5 467 Q174 510 275 510 Z " />
<glyph glyph-name="adieresis" unicode="&#xe4;" horiz-adv-x="539" d="M316 584 L316 671 L399 671 L399 584 L316 584 Z M139 584 L139 671 L222 671 L222 584 L139 584 Z M311 233 Q235 233 196 213 Q157 193 157 146 Q157 113 176.5 95 Q196 77 231 77 Q257 77 280 85 Q303 93 320 109 Q337 125 347 147 Q357 169 357 198 L357 232 Q346 233 334.5 233 Q323 233 311 233 Z M275 510 Q330 510 367.5 498 Q405 486 427 464.5 Q449 443 458.5 414 Q468 385 468 351 L468 0 L357 0 L357 86 Q336 40 297 16 Q258 -8 195 -8 Q124 -8 83.5 29 Q43 66 43 129 Q43 214 105.5 260 Q168 306 308 306 Q320 306 333 305.5 Q346 305 357 304 L357 351 Q357 386 338.5 406.5 Q320 427 269 427 Q218 427 190.5 406 Q163 385 161 347 L57 347 Q63 424 118.5 467 Q174 510 275 510 Z " />
<glyph glyph-name="agrave" unicode="&#xe0;" horiz-adv-x="539" d="M249 717 L354 547 L278 547 L134 703 L249 717 Z M311 233 Q235 233 196 213 Q157 193 157 146 Q157 113 176.5 95 Q196 77 231 77 Q257 77 280 85 Q303 93 320 109 Q337 125 347 147 Q357 169 357 198 L357 232 Q346 233 334.5 233 Q323 233 311 233 Z M275 510 Q330 510 367.5 498 Q405 486 427 464.5 Q449 443 458.5 414 Q468 385 468 351 L468 0 L357 0 L357 86 Q336 40 297 16 Q258 -8 195 -8 Q124 -8 83.5 29 Q43 66 43 129 Q43 214 105.5 260 Q168 306 308 306 Q320 306 333 305.5 Q346 305 357 304 L357 351 Q357 386 338.5 406.5 Q320 427 269 427 Q218 427 190.5 406 Q163 385 161 347 L57 347 Q63 424 118.5 467 Q174 510 275 510 Z " />
<glyph glyph-name="aring" unicode="&#xe5;" horiz-adv-x="539" d="M268 673 Q242 673 228.5 660 Q215 647 215 630 Q215 607 230 595.5 Q245 584 268 584 Q320 584 320 629 Q320 650 304.5 661.5 Q289 673 268 673 Z M268 727 Q293 727 315 720.5 Q337 714 353.5 701.5 Q370 689 379.5 670.5 Q389 652 389 629 Q389 605 379.5 587 Q370 569 353.5 557 Q337 545 315 538.5 Q293 532 268 532 Q244 532 222 538.5 Q200 545 183.5 557 Q167 569 157.5 587 Q148 605 148 629 Q148 652 157.5 670.5 Q167 689 183.5 701.5 Q200 714 222 720.5 Q244 727 268 727 Z M311 233 Q235 233 196 213 Q157 193 157 146 Q157 113 176.5 95 Q196 77 231 77 Q257 77 280 85 Q303 93 320 109 Q337 125 347 147 Q357 169 357 198 L357 232 Q346 233 334.5 233 Q323 233 311 233 Z M275 510 Q330 510 367.5 498 Q405 486 427 464.5 Q449 443 458.5 414 Q468 385 468 351 L468 0 L357 0 L357 86 Q336 40 297 16 Q258 -8 195 -8 Q124 -8 83.5 29 Q43 66 43 129 Q43 214 105.5 260 Q168 306 308 306 Q320 306 333 305.5 Q346 305 357 304 L357 351 Q357 386 338.5 406.5 Q320 427 269 427 Q218 427 190.5 406 Q163 385 161 347 L57 347 Q63 424 118.5 467 Q174 510 275 510 Z " />
<glyph glyph-name="atilde" unicode="&#xe3;" horiz-adv-x="539" d="M201 691 Q225 691 244.5 682 Q264 673 279.5 662.5 Q295 652 308.5 643 Q322 634 336 634 Q352 634 362.5 642.5 Q373 651 377 676 L425 668 Q420 619 398 591.5 Q376 564 338 564 Q315 564 297 573.5 Q279 583 263 594 Q247 605 231.5 614.5 Q216 624 198 624 Q161 624 157 578 L110 589 Q114 637 136.5 664 Q159 691 201 691 Z M311 233 Q235 233 196 213 Q157 193 157 146 Q157 113 176.5 95 Q196 77 231 77 Q257 77 280 85 Q303 93 320 109 Q337 125 347 147 Q357 169 357 198 L357 232 Q346 233 334.5 233 Q323 233 311 233 Z M275 510 Q330 510 367.5 498 Q405 486 427 464.5 Q449 443 458.5 414 Q468 385 468 351 L468 0 L357 0 L357 86 Q336 40 297 16 Q258 -8 195 -8 Q124 -8 83.5 29 Q43 66 43 129 Q43 214 105.5 260 Q168 306 308 306 Q320 306 333 305.5 Q346 305 357 304 L357 351 Q357 386 338.5 406.5 Q320 427 269 427 Q218 427 190.5 406 Q163 385 161 347 L57 347 Q63 424 118.5 467 Q174 510 275 510 Z " />
<glyph glyph-name="ccedilla" unicode="&#xe7;" horiz-adv-x="514" d="M274 510 Q317 510 354.5 497 Q392 484 421 459.5 Q450 435 467.5 400.5 Q485 366 488 324 L376 324 Q372 365 345 391.5 Q318 418 270 418 Q208 418 178 372.5 Q148 327 148 250 Q148 173 178 127.5 Q208 82 270 82 Q318 82 345 108.5 Q372 135 376 176 L488 176 Q485 136 469.5 103.5 Q454 71 428.5 47 Q403 23 369 8.5 Q335 -6 296 -9 L265 -55 Q280 -52 295 -52 Q314 -52 332 -56.5 Q350 -61 364 -71 Q378 -81 387 -96 Q396 -111 396 -133 Q396 -178 357.5 -203.5 Q319 -229 261 -229 Q229 -229 199 -220 Q169 -211 150 -193 L182 -155 Q191 -166 211.5 -173 Q232 -180 254 -180 Q284 -180 298.5 -169 Q313 -158 313 -140 Q313 -112 290 -101.5 Q267 -91 232 -91 Q220 -91 207 -92 Q194 -93 181 -95 L228 -6 Q136 8 86.5 76 Q37 144 37 250 Q37 308 53 356 Q69 404 99.5 438.5 Q130 473 174 491.5 Q218 510 274 510 Z " />
<glyph glyph-name="eacute" unicode="&#xe9;" horiz-adv-x="530" d="M417 703 L273 547 L196 547 L302 717 L417 703 Z M271 427 Q168 427 150 305 L381 305 Q379 358 351.5 392.5 Q324 427 271 427 Z M275 510 Q334 510 376.5 487 Q419 464 446 425.5 Q473 387 485 336.5 Q497 286 494 230 L147 230 Q151 155 181 117 Q211 79 271 79 Q313 79 341.5 100 Q370 121 375 160 L486 160 Q482 122 464 91 Q446 60 417.5 37.5 Q389 15 351.5 2.5 Q314 -10 272 -10 Q218 -10 174.5 8.5 Q131 27 100.5 61 Q70 95 53.5 143.5 Q37 192 37 251 Q37 309 53.5 356.5 Q70 404 100.5 438 Q131 472 175 491 Q219 510 275 510 Z " />
<glyph glyph-name="ecircumflex" unicode="&#xea;" horiz-adv-x="530" d="M271 427 Q168 427 150 305 L381 305 Q379 358 351.5 392.5 Q324 427 271 427 Z M325 707 L442 557 L365 543 L275 640 L183 543 L106 557 L223 707 L325 707 Z M275 510 Q334 510 376.5 487 Q419 464 446 425.5 Q473 387 485 336.5 Q497 286 494 230 L147 230 Q151 155 181 117 Q211 79 271 79 Q313 79 341.5 100 Q370 121 375 160 L486 160 Q482 122 464 91 Q446 60 417.5 37.5 Q389 15 351.5 2.5 Q314 -10 272 -10 Q218 -10 174.5 8.5 Q131 27 100.5 61 Q70 95 53.5 143.5 Q37 192 37 251 Q37 309 53.5 356.5 Q70 404 100.5 438 Q131 472 175 491 Q219 510 275 510 Z " />
<glyph glyph-name="edieresis" unicode="&#xeb;" horiz-adv-x="530" d="M322 584 L322 671 L405 671 L405 584 L322 584 Z M145 584 L145 671 L228 671 L228 584 L145 584 Z M271 427 Q168 427 150 305 L381 305 Q379 358 351.5 392.5 Q324 427 271 427 Z M275 510 Q334 510 376.5 487 Q419 464 446 425.5 Q473 387 485 336.5 Q497 286 494 230 L147 230 Q151 155 181 117 Q211 79 271 79 Q313 79 341.5 100 Q370 121 375 160 L486 160 Q482 122 464 91 Q446 60 417.5 37.5 Q389 15 351.5 2.5 Q314 -10 272 -10 Q218 -10 174.5 8.5 Q131 27 100.5 61 Q70 95 53.5 143.5 Q37 192 37 251 Q37 309 53.5 356.5 Q70 404 100.5 438 Q131 472 175 491 Q219 510 275 510 Z " />
<glyph glyph-name="egrave" unicode="&#xe8;" horiz-adv-x="530" d="M239 717 L344 547 L268 547 L124 703 L239 717 Z M271 427 Q168 427 150 305 L381 305 Q379 358 351.5 392.5 Q324 427 271 427 Z M275 510 Q334 510 376.5 487 Q419 464 446 425.5 Q473 387 485 336.5 Q497 286 494 230 L147 230 Q151 155 181 117 Q211 79 271 79 Q313 79 341.5 100 Q370 121 375 160 L486 160 Q482 122 464 91 Q446 60 417.5 37.5 Q389 15 351.5 2.5 Q314 -10 272 -10 Q218 -10 174.5 8.5 Q131 27 100.5 61 Q70 95 53.5 143.5 Q37 192 37 251 Q37 309 53.5 356.5 Q70 404 100.5 438 Q131 472 175 491 Q219 510 275 510 Z " />
<glyph glyph-name="iacute" unicode="&#xed;" horiz-adv-x="255" d="M72 0 L72 500 L183 500 L183 0 L72 0 Z M278 703 L134 547 L57 547 L163 717 L278 703 Z " />
<glyph glyph-name="icircumflex" unicode="&#xee;" horiz-adv-x="255" d="M179 707 L296 557 L219 543 L129 640 L37 543 L-40 557 L77 707 L179 707 Z M72 0 L72 500 L183 500 L183 0 L72 0 Z " />
<glyph glyph-name="idieresis" unicode="&#xef;" horiz-adv-x="255" d="M72 0 L72 500 L183 500 L183 0 L72 0 Z M175 584 L175 671 L258 671 L258 584 L175 584 Z M-2 584 L-2 671 L81 671 L81 584 L-2 584 Z " />
<glyph glyph-name="igrave" unicode="&#xec;" horiz-adv-x="255" d="M72 0 L72 500 L183 500 L183 0 L72 0 Z M91 717 L196 547 L120 547 L-24 703 L91 717 Z " />
<glyph glyph-name="dotlessi" unicode="&#x131;" horiz-adv-x="255" d="M72 0 L72 500 L183 500 L183 0 L72 0 Z " />
<glyph glyph-name="ntilde" unicode="&#xf1;" horiz-adv-x="562" d="M219 691 Q243 691 262.5 682 Q282 673 297.5 662.5 Q313 652 326.5 643 Q340 634 354 634 Q370 634 380.5 642.5 Q391 651 395 676 L443 668 Q438 619 416 591.5 Q394 564 356 564 Q333 564 315 573.5 Q297 583 281 594 Q265 605 249.5 614.5 Q234 624 216 624 Q179 624 175 578 L128 589 Q132 637 154.5 664 Q177 691 219 691 Z M184 500 L184 415 Q204 457 240.5 483.5 Q277 510 337 510 Q414 510 455.5 463 Q497 416 497 331 L497 0 L385 0 L385 309 Q385 360 367 387 Q349 414 301 414 Q277 414 256 405.5 Q235 397 219 380 Q203 363 193.5 336 Q184 309 184 272 L184 0 L73 0 L73 500 L184 500 Z " />
<glyph glyph-name="oacute" unicode="&#xf3;" horiz-adv-x="537" d="M407 703 L263 547 L186 547 L292 717 L407 703 Z M269 510 Q321 510 363.5 492 Q406 474 436.5 440.5 Q467 407 483.5 359 Q500 311 500 251 Q500 190 483.5 141.5 Q467 93 436.5 59.5 Q406 26 363.5 8 Q321 -10 269 -10 Q217 -10 174 8 Q131 26 100.5 59.5 Q70 93 53.5 141.5 Q37 190 37 251 Q37 311 53.5 359 Q70 407 100.5 440.5 Q131 474 174 492 Q217 510 269 510 Z M269 418 Q209 418 179 374 Q149 330 149 251 Q149 170 179 126 Q209 82 269 82 Q328 82 358 126 Q388 170 388 251 Q388 330 358 374 Q328 418 269 418 Z " />
<glyph glyph-name="ocircumflex" unicode="&#xf4;" horiz-adv-x="537" d="M319 707 L436 557 L359 543 L269 640 L177 543 L100 557 L217 707 L319 707 Z M269 510 Q321 510 363.5 492 Q406 474 436.5 440.5 Q467 407 483.5 359 Q500 311 500 251 Q500 190 483.5 141.5 Q467 93 436.5 59.5 Q406 26 363.5 8 Q321 -10 269 -10 Q217 -10 174 8 Q131 26 100.5 59.5 Q70 93 53.5 141.5 Q37 190 37 251 Q37 311 53.5 359 Q70 407 100.5 440.5 Q131 474 174 492 Q217 510 269 510 Z M269 418 Q209 418 179 374 Q149 330 149 251 Q149 170 179 126 Q209 82 269 82 Q328 82 358 126 Q388 170 388 251 Q388 330 358 374 Q328 418 269 418 Z " />
<glyph glyph-name="odieresis" unicode="&#xf6;" horiz-adv-x="537" d="M315 584 L315 671 L398 671 L398 584 L315 584 Z M138 584 L138 671 L221 671 L221 584 L138 584 Z M269 510 Q321 510 363.5 492 Q406 474 436.5 440.5 Q467 407 483.5 359 Q500 311 500 251 Q500 190 483.5 141.5 Q467 93 436.5 59.5 Q406 26 363.5 8 Q321 -10 269 -10 Q217 -10 174 8 Q131 26 100.5 59.5 Q70 93 53.5 141.5 Q37 190 37 251 Q37 311 53.5 359 Q70 407 100.5 440.5 Q131 474 174 492 Q217 510 269 510 Z M269 418 Q209 418 179 374 Q149 330 149 251 Q149 170 179 126 Q209 82 269 82 Q328 82 358 126 Q388 170 388 251 Q388 330 358 374 Q328 418 269 418 Z " />
<glyph glyph-name="ograve" unicode="&#xf2;" horiz-adv-x="537" d="M245 717 L350 547 L274 547 L130 703 L245 717 Z M269 510 Q321 510 363.5 492 Q406 474 436.5 440.5 Q467 407 483.5 359 Q500 311 500 251 Q500 190 483.5 141.5 Q467 93 436.5 59.5 Q406 26 363.5 8 Q321 -10 269 -10 Q217 -10 174 8 Q131 26 100.5 59.5 Q70 93 53.5 141.5 Q37 190 37 251 Q37 311 53.5 359 Q70 407 100.5 440.5 Q131 474 174 492 Q217 510 269 510 Z M269 418 Q209 418 179 374 Q149 330 149 251 Q149 170 179 126 Q209 82 269 82 Q328 82 358 126 Q388 170 388 251 Q388 330 358 374 Q328 418 269 418 Z " />
<glyph glyph-name="otilde" unicode="&#xf5;" horiz-adv-x="537" d="M201 691 Q225 691 244.5 682 Q264 673 279.5 662.5 Q295 652 308.5 643 Q322 634 336 634 Q352 634 362.5 642.5 Q373 651 377 676 L425 668 Q420 619 398 591.5 Q376 564 338 564 Q315 564 297 573.5 Q279 583 263 594 Q247 605 231.5 614.5 Q216 624 198 624 Q161 624 157 578 L110 589 Q114 637 136.5 664 Q159 691 201 691 Z M269 510 Q321 510 363.5 492 Q406 474 436.5 440.5 Q467 407 483.5 359 Q500 311 500 251 Q500 190 483.5 141.5 Q467 93 436.5 59.5 Q406 26 363.5 8 Q321 -10 269 -10 Q217 -10 174 8 Q131 26 100.5 59.5 Q70 93 53.5 141.5 Q37 190 37 251 Q37 311 53.5 359 Q70 407 100.5 440.5 Q131 474 174 492 Q217 510 269 510 Z M269 418 Q209 418 179 374 Q149 330 149 251 Q149 170 179 126 Q209 82 269 82 Q328 82 358 126 Q388 170 388 251 Q388 330 358 374 Q328 418 269 418 Z " />
<glyph glyph-name="uacute" unicode="&#xfa;" horiz-adv-x="568" d="M434 703 L290 547 L213 547 L319 717 L434 703 Z M182 500 L182 191 Q182 140 200 113 Q218 86 266 86 Q290 86 311 94.5 Q332 103 348 120 Q364 137 373.5 164 Q383 191 383 228 L383 500 L494 500 L494 0 L383 0 L383 85 Q363 43 326.5 16.5 Q290 -10 230 -10 Q153 -10 111.5 37 Q70 84 70 169 L70 500 L182 500 Z " />
<glyph glyph-name="ucircumflex" unicode="&#xfb;" horiz-adv-x="568" d="M335 707 L452 557 L375 543 L285 640 L193 543 L116 557 L233 707 L335 707 Z M182 500 L182 191 Q182 140 200 113 Q218 86 266 86 Q290 86 311 94.5 Q332 103 348 120 Q364 137 373.5 164 Q383 191 383 228 L383 500 L494 500 L494 0 L383 0 L383 85 Q363 43 326.5 16.5 Q290 -10 230 -10 Q153 -10 111.5 37 Q70 84 70 169 L70 500 L182 500 Z " />
<glyph glyph-name="udieresis" unicode="&#xfc;" horiz-adv-x="568" d="M330 584 L330 671 L413 671 L413 584 L330 584 Z M153 584 L153 671 L236 671 L236 584 L153 584 Z M182 500 L182 191 Q182 140 200 113 Q218 86 266 86 Q290 86 311 94.5 Q332 103 348 120 Q364 137 373.5 164 Q383 191 383 228 L383 500 L494 500 L494 0 L383 0 L383 85 Q363 43 326.5 16.5 Q290 -10 230 -10 Q153 -10 111.5 37 Q70 84 70 169 L70 500 L182 500 Z " />
<glyph glyph-name="ugrave" unicode="&#xf9;" horiz-adv-x="568" d="M253 717 L358 547 L282 547 L138 703 L253 717 Z M182 500 L182 191 Q182 140 200 113 Q218 86 266 86 Q290 86 311 94.5 Q332 103 348 120 Q364 137 373.5 164 Q383 191 383 228 L383 500 L494 500 L494 0 L383 0 L383 85 Q363 43 326.5 16.5 Q290 -10 230 -10 Q153 -10 111.5 37 Q70 84 70 169 L70 500 L182 500 Z " />
<glyph glyph-name="ydieresis" unicode="&#xff;" horiz-adv-x="483" d="M290 584 L290 671 L373 671 L373 584 L290 584 Z M113 584 L113 671 L196 671 L196 584 L113 584 Z M116 500 L225 178 Q230 160 235 136.5 Q240 113 242 97 Q245 112 250 136 Q255 160 261 179 L374 500 L484 500 L291 -33 Q271 -92 247 -127 Q223 -162 193.5 -180.5 Q164 -199 127.5 -204.5 Q91 -210 45 -210 L45 -113 Q91 -112 118.5 -99.5 Q146 -87 161 -53 L180 -10 L-1 500 L116 500 Z " />
<glyph glyph-name="f_i" unicode="&#xfb01;" horiz-adv-x="562" d="M490 673 L490 574 L377 574 L377 673 L490 673 Z M262 710 Q273 710 288 708.5 Q303 707 316 705 L316 614 Q305 617 293.5 618 Q282 619 273 619 Q236 619 220 599.5 Q204 580 204 542 L204 500 L489 500 L489 0 L378 0 L378 415 L204 415 L204 0 L93 0 L93 415 L19 415 L19 500 L93 500 L93 541 Q93 628 139 669 Q185 710 262 710 Z " />
<glyph glyph-name="f_l" unicode="&#xfb02;" horiz-adv-x="562" d="M302 710 Q349 710 396.5 705 Q444 700 489 691 L489 0 L378 0 L378 611 Q361 615 342.5 617 Q324 619 299 619 Q204 619 204 542 L204 500 L323 500 L323 415 L204 415 L204 0 L93 0 L93 415 L19 415 L19 500 L93 500 L93 541 Q93 584 109 616 Q125 648 152.5 669 Q180 690 218.5 700 Q257 710 302 710 Z " />
<glyph glyph-name="C" unicode="C" horiz-adv-x="705" d="M675 217 Q669 167 645.5 125 Q622 83 584.5 53 Q547 23 496 6.5 Q445 -10 384 -10 Q307 -10 246 18 Q185 46 142.5 94.5 Q100 143 77.5 208.5 Q55 274 55 350 Q55 426 77.5 491.5 Q100 557 142.5 605.5 Q185 654 246 682 Q307 710 384 710 Q445 710 496 693.5 Q547 677 584.5 647 Q622 617 645.5 575 Q669 533 675 483 L552 483 Q541 539 498 571.5 Q455 604 384 604 Q333 604 296 585.5 Q259 567 234 533 Q209 499 197 452.5 Q185 406 185 350 Q185 294 197 247.5 Q209 201 234 167 Q259 133 296 114.5 Q333 96 384 96 Q455 96 498 128.5 Q541 161 552 217 L675 217 Z " />
<glyph glyph-name="nbspace" unicode="&#xa0;" horiz-adv-x="220" d="" />
<glyph glyph-name="A" unicode="A" horiz-adv-x="647" d="M321 623 Q316 600 308 571 Q300 542 293 520 L211 281 L430 281 L349 521 Q341 543 333.5 571.5 Q326 600 321 623 Z M412 700 L654 0 L521 0 L458 189 L183 189 L120 0 L-6 0 L237 700 L412 700 Z " />
<glyph glyph-name="B" unicode="B" horiz-adv-x="677" d="M371 95 Q407 95 432 103.5 Q457 112 473 127 Q489 142 496 162 Q503 182 503 206 Q503 230 495.5 250.5 Q488 271 472 287 Q456 303 431 312 Q406 321 371 321 L204 321 L204 95 L371 95 Z M83 0 L83 700 L394 700 Q447 700 486 686.5 Q525 673 550.5 650 Q576 627 588.5 596.5 Q601 566 601 532 Q601 469 568 425.5 Q535 382 459 368 Q543 357 583.5 308.5 Q624 260 624 191 Q624 152 610 117 Q596 82 568.5 56 Q541 30 500.5 15 Q460 0 407 0 L83 0 Z M362 404 Q394 404 416 412.5 Q438 421 451.5 435 Q465 449 471 468 Q477 487 477 508 Q477 550 451.5 577.5 Q426 605 361 605 L204 605 L204 404 L362 404 Z " />
<glyph glyph-name="Eng" unicode="&#x14a;" horiz-adv-x="715" d="M253 700 L490 218 Q497 204 505 181 Q513 158 518 136 Q516 153 515 181 Q514 209 514 226 L514 700 L632 700 L632 -41 Q632 -86 615 -119 Q598 -152 571 -174 Q544 -196 510 -206.5 Q476 -217 442 -217 L442 -124 Q461 -124 475.5 -120.5 Q490 -117 500 -107 Q510 -97 515.5 -79.5 Q521 -62 521 -34 L521 0 L476 0 L227 514 Q220 530 212.5 553.5 Q205 577 200 596 Q201 588 201.5 577 Q202 566 202.5 554 Q203 542 203.5 530.5 Q204 519 204 512 L204 0 L83 0 L83 700 L253 700 Z " />
<glyph glyph-name="Eth" unicode="&#xd0;" horiz-adv-x="731" d="M356 95 Q551 95 551 351 Q551 480 501 542.5 Q451 605 353 605 L204 605 L204 404 L300 404 L300 316 L204 316 L204 95 L356 95 Z M83 0 L83 316 L23 316 L23 404 L83 404 L83 700 L377 700 Q446 700 501.5 676 Q557 652 596 607 Q635 562 656 498 Q677 434 677 353 Q677 273 657 207.5 Q637 142 599 96 Q561 50 506 25 Q451 0 382 0 L83 0 Z " />
<glyph glyph-name="IJ" unicode="&#x132;" horiz-adv-x="821" d="M620 700 L741 700 L741 205 Q741 155 724 115 Q707 75 675 47.5 Q643 20 597.5 5 Q552 -10 496 -10 Q398 -10 338.5 44 Q279 98 267 186 L392 186 Q393 168 400 151 Q407 134 420 121 Q433 108 453 100.5 Q473 93 501 93 Q565 93 592.5 121.5 Q620 150 620 204 L620 700 Z M83 0 L83 700 L204 700 L204 0 L83 0 Z " />
<glyph glyph-name="Thorn" unicode="&#xde;" horiz-adv-x="642" d="M204 234 L370 234 Q432 234 459.5 271 Q487 308 487 365 Q487 419 460.5 454.5 Q434 490 370 490 L204 490 L204 234 Z M83 0 L83 700 L204 700 L204 585 L399 585 Q452 585 491.5 568 Q531 551 557.5 521.5 Q584 492 597.5 452.5 Q611 413 611 368 Q611 322 598 281.5 Q585 241 558 211 Q531 181 490 163.5 Q449 146 392 146 L204 146 L204 0 L83 0 Z " />
<glyph glyph-name="longs" unicode="&#x17f;" horiz-adv-x="274" d="M239 710 Q256 710 274.5 708.5 Q293 707 313 702 L313 611 Q295 616 281.5 617.5 Q268 619 253 619 Q215 619 198 599.5 Q181 580 181 542 L181 0 L70 0 L70 541 Q70 628 116 669 Q162 710 239 710 Z " />
<glyph glyph-name="eng" unicode="&#x14b;" horiz-adv-x="568" d="M184 500 L184 415 Q204 457 242 483.5 Q280 510 340 510 Q418 510 457.5 463 Q497 416 497 331 L497 -21 Q497 -66 480 -99.5 Q463 -133 436 -154.5 Q409 -176 375 -187 Q341 -198 307 -198 L307 -104 Q324 -104 338.5 -100.5 Q353 -97 363.5 -88 Q374 -79 380 -63.5 Q386 -48 386 -22 L386 309 Q386 360 367.5 387 Q349 414 301 414 Q278 414 256.5 405.5 Q235 397 219 380 Q203 363 193.5 336 Q184 309 184 272 L184 0 L73 0 L73 500 L184 500 Z " />
<glyph glyph-name="eth" unicode="&#xf0;" horiz-adv-x="599" d="M287 386 Q250 386 224.5 373.5 Q199 361 183.5 339.5 Q168 318 161.5 290 Q155 262 155 232 Q155 166 187 126.5 Q219 87 286 87 Q361 87 396.5 142.5 Q432 198 437 300 Q411 338 372.5 362 Q334 386 287 386 Z M238 710 Q286 710 328.5 698 Q371 686 406 663 L457 714 L501 672 L454 625 Q503 577 530 506 Q557 435 557 345 Q557 172 488.5 81 Q420 -10 291 -10 Q229 -10 182 9.5 Q135 29 103.5 62.5 Q72 96 56.5 140.5 Q41 185 41 235 Q41 278 54 320.5 Q67 363 94 396.5 Q121 430 163 450.5 Q205 471 263 471 Q322 471 366 445.5 Q410 420 439 382 Q434 491 383 553 L322 492 L278 534 L337 593 Q312 607 282 615 Q252 623 217 623 L238 710 Z " />
<glyph glyph-name="ij" unicode="&#x133;" horiz-adv-x="509" d="M438 673 L438 574 L325 574 L325 673 L438 673 Z M437 500 L437 -34 Q437 -79 420 -112.5 Q403 -146 376 -167.5 Q349 -189 314.5 -199.5 Q280 -210 246 -210 L246 -117 Q283 -117 304.5 -100 Q326 -83 326 -33 L326 500 L437 500 Z M184 673 L184 574 L71 574 L71 673 L184 673 Z M183 500 L183 0 L72 0 L72 500 L183 500 Z " />
<glyph glyph-name="thorn" unicode="&#xfe;" horiz-adv-x="574" d="M302 417 Q244 417 211 374.5 Q178 332 178 247 Q178 213 185 183.5 Q192 154 207 131.5 Q222 109 245.5 96 Q269 83 302 83 Q362 83 391 127.5 Q420 172 420 250 Q420 328 391 372.5 Q362 417 302 417 Z M331 510 Q378 510 416 491 Q454 472 480.5 438 Q507 404 521.5 356 Q536 308 536 250 Q536 192 521.5 144 Q507 96 480.5 62 Q454 28 416 9 Q378 -10 331 -10 Q273 -10 234 22 Q195 54 178 100 L178 -205 L67 -205 L67 700 L178 700 L178 399 Q195 445 232.5 477.5 Q270 510 331 510 Z " />
<glyph glyph-name="zero.superior" unicode="&#x2070;" horiz-adv-x="374" d="M188 762 Q255 762 298.5 716 Q342 670 342 576 Q342 483 298.5 438 Q255 393 188 393 Q154 393 125.5 404 Q97 415 76 438 Q55 461 43.5 495 Q32 529 32 576 Q32 670 76 716 Q120 762 188 762 Z M188 692 Q150 692 134.5 662 Q119 632 119 578 Q119 523 134.5 493.5 Q150 464 188 464 Q223 464 239 493.5 Q255 523 255 578 Q255 632 239 662 Q223 692 188 692 Z " />
<glyph glyph-name="one.superior" unicode="&#xb9;" horiz-adv-x="374" d="M85 400 L85 469 L166 469 L166 679 L72 619 L40 677 L169 758 L256 758 L256 469 L323 469 L323 400 L85 400 Z " />
<glyph glyph-name="two.superior" unicode="&#xb2;" horiz-adv-x="374" d="M196 762 Q267 762 301 730.5 Q335 699 335 653 Q335 630 327.5 608.5 Q320 587 301.5 565.5 Q283 544 251.5 520.5 Q220 497 172 469 L337 469 L337 400 L39 400 L39 459 Q100 494 139 520.5 Q178 547 200 568 Q222 589 230 605.5 Q238 622 238 639 Q238 662 226 677 Q214 692 185 692 Q155 692 140.5 677 Q126 662 121 633 L39 633 Q44 690 84 726 Q124 762 196 762 Z " />
<glyph glyph-name="three.superior" unicode="&#xb3;" horiz-adv-x="374" d="M190 762 Q260 762 294 736 Q328 710 328 668 Q328 633 306.5 611.5 Q285 590 247 582 Q289 576 311.5 553.5 Q334 531 334 495 Q334 449 295.5 421 Q257 393 186 393 Q120 393 81 424.5 Q42 456 39 507 L125 507 Q131 455 188 455 Q218 455 231 469 Q244 483 244 503 Q244 528 226.5 540.5 Q209 553 166 553 L166 608 Q207 608 223.5 620 Q240 632 240 656 Q240 676 228 688.5 Q216 701 187 701 Q133 701 129 652 L44 652 Q47 703 86 732.5 Q125 762 190 762 Z " />
<glyph glyph-name="four.superior" unicode="&#x2074;" horiz-adv-x="374" d="M106 551 L202 551 L202 680 L106 551 Z M286 755 L286 551 L339 551 L339 483 L286 483 L286 400 L202 400 L202 483 L30 483 L30 547 L187 755 L286 755 Z " />
<glyph glyph-name="five.superior" unicode="&#x2075;" horiz-adv-x="374" d="M306 755 L306 690 L137 690 L133 630 Q156 634 191 634 Q258 634 295 604.5 Q332 575 332 518 Q332 491 321 468 Q310 445 290 428.5 Q270 412 242 402.5 Q214 393 180 393 Q113 393 80 425.5 Q47 458 42 506 L122 506 Q127 457 183 457 Q213 457 229 473.5 Q245 490 245 518 Q245 544 229.5 560 Q214 576 176 576 Q152 576 120 574.5 Q88 573 57 568 L69 755 L306 755 Z " />
<glyph glyph-name="six.superior" unicode="&#x2076;" horiz-adv-x="374" d="M192 576 Q170 576 152 567.5 Q134 559 120 545 Q123 506 141 482.5 Q159 459 192 459 Q223 459 238.5 475 Q254 491 254 518 Q254 543 240.5 559.5 Q227 576 192 576 Z M259 658 Q254 681 238 691 Q222 701 198 701 Q161 701 139 674.5 Q117 648 115 600 Q135 614 159 623.5 Q183 633 220 633 Q279 633 310 603 Q341 573 341 522 Q341 467 304 430 Q267 393 192 393 Q118 393 75.5 438 Q33 483 33 573 Q33 663 76.5 712.5 Q120 762 201 762 Q327 762 339 658 L259 658 Z " />
<glyph glyph-name="seven.superior" unicode="&#x2077;" horiz-adv-x="374" d="M331 755 L331 696 L194 400 L94 400 L236 686 L45 686 L45 755 L331 755 Z " />
<glyph glyph-name="eight.superior" unicode="&#x2078;" horiz-adv-x="374" d="M188 762 Q257 762 292.5 735 Q328 708 328 667 Q328 638 311 615.5 Q294 593 252 585 Q296 579 317 555 Q338 531 338 494 Q338 447 299 420 Q260 393 188 393 Q113 393 74.5 420 Q36 447 36 494 Q36 529 58 553 Q80 577 122 584 Q80 592 62.5 614.5 Q45 637 45 667 Q45 708 81 735 Q117 762 188 762 Z M188 555 Q159 555 140 543.5 Q121 532 121 502 Q121 479 137 465 Q153 451 188 451 Q222 451 237.5 465 Q253 479 253 502 Q253 532 234 543.5 Q215 555 188 555 Z M188 705 Q157 705 143 692.5 Q129 680 129 660 Q129 634 145 622 Q161 610 188 610 Q213 610 228.5 622 Q244 634 244 660 Q244 680 230.5 692.5 Q217 705 188 705 Z " />
<glyph glyph-name="nine.superior" unicode="&#x2079;" horiz-adv-x="374" d="M184 696 Q153 696 137.5 680 Q122 664 122 635 Q122 609 135.5 592.5 Q149 576 184 576 Q205 576 222.5 585 Q240 594 254 608 Q251 650 233.5 673 Q216 696 184 696 Z M183 762 Q258 762 300 717 Q342 672 342 582 Q342 493 297 443 Q252 393 174 393 Q116 393 78 419.5 Q40 446 35 494 L116 494 Q120 470 136 459.5 Q152 449 177 449 Q214 449 234 476.5 Q254 504 256 553 Q237 539 214.5 529.5 Q192 520 163 520 Q97 520 65.5 551 Q34 582 34 633 Q34 658 43 681.5 Q52 705 70 723 Q88 741 116 751.5 Q144 762 183 762 Z " />
<glyph glyph-name="zero.inferior" unicode="&#x2080;" horiz-adv-x="374" d="M188 242 Q255 242 298.5 196 Q342 150 342 56 Q342 -37 298.5 -82 Q255 -127 188 -127 Q154 -127 125.5 -116 Q97 -105 76 -82 Q55 -59 43.5 -25 Q32 9 32 56 Q32 150 76 196 Q120 242 188 242 Z M188 172 Q150 172 134.5 142 Q119 112 119 58 Q119 3 134.5 -26.5 Q150 -56 188 -56 Q223 -56 239 -26.5 Q255 3 255 58 Q255 112 239 142 Q223 172 188 172 Z " />
<glyph glyph-name="one.inferior" unicode="&#x2081;" horiz-adv-x="374" d="M85 -120 L85 -51 L166 -51 L166 159 L72 99 L40 157 L169 238 L256 238 L256 -51 L323 -51 L323 -120 L85 -120 Z " />
<glyph glyph-name="two.inferior" unicode="&#x2082;" horiz-adv-x="374" d="M196 242 Q267 242 301 210.5 Q335 179 335 133 Q335 110 327.5 88.5 Q320 67 301.5 45.5 Q283 24 251.5 0.5 Q220 -23 172 -51 L337 -51 L337 -120 L39 -120 L39 -61 Q100 -26 139 0.5 Q178 27 200 48 Q222 69 230 85.5 Q238 102 238 119 Q238 142 226 157 Q214 172 185 172 Q155 172 140.5 157 Q126 142 121 113 L39 113 Q44 170 84 206 Q124 242 196 242 Z " />
<glyph glyph-name="three.inferior" unicode="&#x2083;" horiz-adv-x="374" d="M190 242 Q260 242 294 216 Q328 190 328 148 Q328 113 306.5 91.5 Q285 70 247 62 Q289 56 311.5 33.5 Q334 11 334 -25 Q334 -71 295.5 -99 Q257 -127 186 -127 Q120 -127 81 -95.5 Q42 -64 39 -13 L125 -13 Q131 -65 188 -65 Q218 -65 231 -51 Q244 -37 244 -17 Q244 8 226.5 20.5 Q209 33 166 33 L166 88 Q207 88 223.5 100 Q240 112 240 136 Q240 156 228 168.5 Q216 181 187 181 Q133 181 129 132 L44 132 Q47 183 86 212.5 Q125 242 190 242 Z " />
<glyph glyph-name="four.inferior" unicode="&#x2084;" horiz-adv-x="374" d="M106 31 L202 31 L202 160 L106 31 Z M286 235 L286 31 L339 31 L339 -37 L286 -37 L286 -120 L202 -120 L202 -37 L30 -37 L30 27 L187 235 L286 235 Z " />
<glyph glyph-name="five.inferior" unicode="&#x2085;" horiz-adv-x="374" d="M306 235 L306 170 L137 170 L133 110 Q156 114 191 114 Q258 114 295 84.5 Q332 55 332 -2 Q332 -29 321 -52 Q310 -75 290 -91.5 Q270 -108 242 -117.5 Q214 -127 180 -127 Q113 -127 80 -94.5 Q47 -62 42 -14 L122 -14 Q127 -63 183 -63 Q213 -63 229 -46.5 Q245 -30 245 -2 Q245 24 229.5 40 Q214 56 176 56 Q152 56 120 54.5 Q88 53 57 48 L69 235 L306 235 Z " />
<glyph glyph-name="six.inferior" unicode="&#x2086;" horiz-adv-x="374" d="M192 56 Q170 56 152 47.5 Q134 39 120 25 Q123 -14 141 -37.5 Q159 -61 192 -61 Q223 -61 238.5 -45 Q254 -29 254 -2 Q254 23 240.5 39.5 Q227 56 192 56 Z M259 138 Q254 161 238 171 Q222 181 198 181 Q161 181 139 154.5 Q117 128 115 80 Q135 94 159 103.5 Q183 113 220 113 Q279 113 310 83 Q341 53 341 2 Q341 -53 304 -90 Q267 -127 192 -127 Q118 -127 75.5 -82 Q33 -37 33 53 Q33 143 76.5 192.5 Q120 242 201 242 Q327 242 339 138 L259 138 Z " />
<glyph glyph-name="seven.inferior" unicode="&#x2087;" horiz-adv-x="374" d="M331 235 L331 176 L194 -120 L94 -120 L236 166 L45 166 L45 235 L331 235 Z " />
<glyph glyph-name="eight.inferior" unicode="&#x2088;" horiz-adv-x="374" d="M188 242 Q257 242 292.5 215 Q328 188 328 147 Q328 118 311 95.5 Q294 73 252 65 Q296 59 317 35 Q338 11 338 -26 Q338 -73 299 -100 Q260 -127 188 -127 Q113 -127 74.5 -100 Q36 -73 36 -26 Q36 9 58 33 Q80 57 122 64 Q80 72 62.5 94.5 Q45 117 45 147 Q45 188 81 215 Q117 242 188 242 Z M188 35 Q159 35 140 23.5 Q121 12 121 -18 Q121 -41 137 -55 Q153 -69 188 -69 Q222 -69 237.5 -55 Q253 -41 253 -18 Q253 12 234 23.5 Q215 35 188 35 Z M188 185 Q157 185 143 172.5 Q129 160 129 140 Q129 114 145 102 Q161 90 188 90 Q213 90 228.5 102 Q244 114 244 140 Q244 160 230.5 172.5 Q217 185 188 185 Z " />
<glyph glyph-name="nine.inferior" unicode="&#x2089;" horiz-adv-x="374" d="M184 176 Q153 176 137.5 160 Q122 144 122 115 Q122 89 135.5 72.5 Q149 56 184 56 Q205 56 222.5 65 Q240 74 254 88 Q251 130 233.5 153 Q216 176 184 176 Z M183 242 Q258 242 300 197 Q342 152 342 62 Q342 -27 297 -77 Q252 -127 174 -127 Q116 -127 78 -100.5 Q40 -74 35 -26 L116 -26 Q120 -50 136 -60.5 Q152 -71 177 -71 Q214 -71 234 -43.5 Q254 -16 256 33 Q237 19 214.5 9.5 Q192 0 163 0 Q97 0 65.5 31 Q34 62 34 113 Q34 138 43 161.5 Q52 185 70 203 Q88 221 116 231.5 Q144 242 183 242 Z " />
<glyph glyph-name="onequarter" unicode="&#xbc;" horiz-adv-x="805" d="M515 151 L611 151 L611 280 L515 151 Z M695 355 L695 151 L748 151 L748 83 L695 83 L695 0 L611 0 L611 83 L439 83 L439 147 L596 355 L695 355 Z M85 345 L85 414 L166 414 L166 624 L72 564 L40 622 L169 703 L256 703 L256 414 L323 414 L323 345 L85 345 Z M98 0 L642 700 L752 700 L208 0 L98 0 Z " />
<glyph glyph-name="onehalf" unicode="&#xbd;" horiz-adv-x="805" d="M625 362 Q696 362 730 330.5 Q764 299 764 253 Q764 230 756.5 208.5 Q749 187 730.5 165.5 Q712 144 680.5 120.5 Q649 97 601 69 L766 69 L766 0 L468 0 L468 59 Q529 94 568 120.5 Q607 147 629 168 Q651 189 659 205.5 Q667 222 667 239 Q667 262 655 277 Q643 292 614 292 Q584 292 569.5 277 Q555 262 550 233 L468 233 Q473 290 513 326 Q553 362 625 362 Z M82 345 L82 414 L163 414 L163 624 L69 564 L37 622 L166 703 L253 703 L253 414 L320 414 L320 345 L82 345 Z M95 0 L639 700 L749 700 L205 0 L95 0 Z " />
<glyph glyph-name="threequarters" unicode="&#xbe;" horiz-adv-x="805" d="M211 707 Q281 707 315 681 Q349 655 349 613 Q349 578 327.5 556.5 Q306 535 268 527 Q310 521 332.5 498.5 Q355 476 355 440 Q355 394 316.5 366 Q278 338 207 338 Q141 338 102 369.5 Q63 401 60 452 L146 452 Q152 400 209 400 Q239 400 252 414 Q265 428 265 448 Q265 473 247.5 485.5 Q230 498 187 498 L187 553 Q228 553 244.5 565 Q261 577 261 601 Q261 621 249 633.5 Q237 646 208 646 Q154 646 150 597 L65 597 Q68 648 107 677.5 Q146 707 211 707 Z M490 151 L586 151 L586 280 L490 151 Z M670 355 L670 151 L723 151 L723 83 L670 83 L670 0 L586 0 L586 83 L414 83 L414 147 L571 355 L670 355 Z M89 0 L633 700 L743 700 L199 0 L89 0 Z " />
<glyph glyph-name="onethird" unicode="&#x2153;" horiz-adv-x="805" d="M619 362 Q689 362 723 336 Q757 310 757 268 Q757 233 735.5 211.5 Q714 190 676 182 Q718 176 740.5 153.5 Q763 131 763 95 Q763 49 724.5 21 Q686 -7 615 -7 Q549 -7 510 24.5 Q471 56 468 107 L554 107 Q560 55 617 55 Q647 55 660 69 Q673 83 673 103 Q673 128 655.5 140.5 Q638 153 595 153 L595 208 Q636 208 652.5 220 Q669 232 669 256 Q669 276 657 288.5 Q645 301 616 301 Q562 301 558 252 L473 252 Q476 303 515 332.5 Q554 362 619 362 Z M75 345 L75 414 L156 414 L156 624 L62 564 L30 622 L159 703 L246 703 L246 414 L313 414 L313 345 L75 345 Z M91 0 L635 700 L745 700 L201 0 L91 0 Z " />
<glyph glyph-name="rupee" unicode="&#x20a8;" horiz-adv-x="599" d="M552 700 L552 626 L408 626 Q436 609 450 578 Q464 547 466 513 L552 513 L552 438 L457 438 Q446 381 409 345 Q372 309 307 301 Q340 296 369 285 Q398 274 420.5 243 Q443 212 456 154.5 Q469 97 469 0 L349 0 Q349 81 339 129.5 Q329 178 311 204.5 Q293 231 267 239.5 Q241 248 210 248 L47 248 L47 340 L226 340 Q280 340 305.5 368.5 Q331 397 335 438 L47 438 L47 513 L336 513 Q331 551 306.5 578.5 Q282 606 229 606 L47 606 L47 700 L552 700 Z " />
<glyph glyph-name="Euro" unicode="&#x20ac;" horiz-adv-x="633" d="M177 398 Q175 386 175 374 Q175 362 175 349 Q175 318 178 290 L371 290 L350 229 L189 229 Q206 163 248 126 Q290 89 361 89 Q431 89 470.5 121.5 Q510 154 524 210 L637 210 Q620 109 550.5 49 Q481 -11 363 -11 Q304 -11 255.5 6.5 Q207 24 170.5 56 Q134 88 108.5 132 Q83 176 70 229 L-6 229 L15 290 L59 290 Q56 318 56 349 Q56 361 56.5 373.5 Q57 386 58 398 L-6 398 L15 459 L68 459 Q80 514 105 560 Q130 606 167.5 639 Q205 672 254 690.5 Q303 709 363 709 Q481 709 550.5 649 Q620 589 637 487 L524 487 Q510 544 470.5 576 Q431 608 361 608 Q287 608 245 568 Q203 528 186 459 L443 459 L421 398 L177 398 Z " />
<glyph glyph-name="multiply" unicode="&#xd7;" horiz-adv-x="599" d="M298 375 L478 555 L544 489 L364 309 L544 130 L478 64 L298 243 L120 65 L54 130 L233 309 L54 489 L120 554 L298 375 Z " />
<glyph glyph-name="minus" unicode="&#x2212;" horiz-adv-x="599" d="M45 263 L45 356 L553 356 L553 263 L45 263 Z " />
<glyph glyph-name="estimated" unicode="&#x212e;" horiz-adv-x="726" d="M376 610 Q301 610 256 568.5 Q211 527 193 458 L547 458 Q543 491 530.5 518.5 Q518 546 497 566.5 Q476 587 445.5 598.5 Q415 610 376 610 Z M382 710 Q454 710 510 686.5 Q566 663 605 618.5 Q644 574 665.5 510 Q687 446 690 365 L181 365 L181 350 Q181 294 193 247.5 Q205 201 230 167 Q255 133 292.5 114.5 Q330 96 380 96 Q452 96 492.5 128.5 Q533 161 548 217 L672 217 Q663 167 639.5 125 Q616 83 579 53 Q542 23 492.5 6.5 Q443 -10 382 -10 Q305 -10 243.5 18 Q182 46 139.5 94.5 Q97 143 74 208.5 Q51 274 51 350 Q51 426 74 491.5 Q97 557 139.5 605.5 Q182 654 243.5 682 Q305 710 382 710 Z " />
<glyph glyph-name="litre" unicode="&#x2113;" horiz-adv-x="416" d="M209 444 Q251 485 269 522.5 Q287 560 287 586 Q287 624 255 624 Q209 624 209 547 L209 444 Z M261 709 Q295 709 318.5 700 Q342 691 356.5 676.5 Q371 662 377.5 643 Q384 624 384 605 Q384 572 371 538 Q358 504 335 471.5 Q312 439 280 408 Q248 377 209 349 L209 111 Q209 91 216.5 83 Q224 75 240 75 Q260 75 274 92.5 Q288 110 291 148 L385 148 Q369 66 329.5 28 Q290 -10 224 -10 Q190 -10 167 -1 Q144 8 130 24 Q116 40 110 62 Q104 84 104 111 L104 284 Q90 276 76.5 270 Q63 264 49 258 L22 323 Q65 342 104 365 L104 539 Q104 580 115.5 611.5 Q127 643 148 665 Q169 687 198 698 Q227 709 261 709 Z " />
<glyph glyph-name="brokenbar" unicode="&#xa6;" horiz-adv-x="332" d="M109 -211 L109 111 L224 111 L224 -211 L109 -211 Z M109 378 L109 700 L224 700 L224 378 L109 378 Z " />
<glyph glyph-name="minute" unicode="&#x2032;" horiz-adv-x="197" d="M68 488 L40 719 L157 719 L130 488 L68 488 Z " />
<glyph glyph-name="second" unicode="&#x2033;" horiz-adv-x="360" d="M232 488 L203 719 L320 719 L293 488 L232 488 Z M68 488 L40 719 L157 719 L130 488 L68 488 Z " />
<glyph glyph-name="arrowleft" unicode="&#x2190;" horiz-adv-x="688" d="M312 572 L378 506 L228 356 L638 356 L638 263 L228 263 L378 113 L312 47 L50 309 L312 572 Z " />
<glyph glyph-name="arrowright" unicode="&#x2192;" horiz-adv-x="688" d="M638 309 L376 47 L310 113 L460 263 L50 263 L50 356 L460 356 L310 506 L376 572 L638 309 Z " />
<glyph glyph-name="arrowup" unicode="&#x2191;" horiz-adv-x="625" d="M575 326 L509 260 L359 410 L359 0 L266 0 L266 410 L116 260 L50 326 L312 588 L575 326 Z " />
<glyph glyph-name="arrowdown" unicode="&#x2193;" horiz-adv-x="625" d="M359 551 L359 141 L509 292 L575 226 L312 -37 L50 226 L116 292 L266 142 L266 551 L359 551 Z " />
<glyph glyph-name="arrowupleft" unicode="&#x2196;" horiz-adv-x="576" d="M79 500 L450 500 L450 407 L237 407 L526 117 L461 51 L171 341 L171 129 L79 129 L79 500 Z " />
<glyph glyph-name="arrowupright" unicode="&#x2197;" horiz-adv-x="576" d="M498 129 L405 129 L405 341 L115 51 L50 117 L340 407 L127 407 L127 500 L498 500 L498 129 Z " />
<glyph glyph-name="arrowdownleft" unicode="&#x2199;" horiz-adv-x="576" d="M79 371 L171 371 L171 159 L461 449 L526 383 L237 93 L450 93 L450 0 L79 0 L79 371 Z " />
<glyph glyph-name="arrowdownright" unicode="&#x2198;" horiz-adv-x="576" d="M498 0 L127 0 L127 93 L340 93 L50 383 L115 449 L405 159 L405 371 L498 371 L498 0 Z " />
<glyph glyph-name="afii00208" unicode="&#x2015;" horiz-adv-x="995" d="M51 262 L51 356 L944 356 L944 262 L51 262 Z " />
<glyph glyph-name="afii10017" unicode="&#x410;" horiz-adv-x="647" d="M321 623 Q316 600 308 571 Q300 542 293 520 L211 281 L430 281 L349 521 Q341 543 333.5 571.5 Q326 600 321 623 Z M412 700 L654 0 L521 0 L458 189 L183 189 L120 0 L-6 0 L237 700 L412 700 Z " />
<glyph glyph-name="afii10018" unicode="&#x411;" horiz-adv-x="672" d="M204 86 L373 86 Q439 86 467.5 121 Q496 156 496 208 Q496 234 488.5 257 Q481 280 465.5 297 Q450 314 426.5 324 Q403 334 371 334 L204 334 L204 86 Z M537 700 L537 605 L204 605 L204 414 L395 414 Q452 414 494 397 Q536 380 563.5 351.5 Q591 323 605 285.5 Q619 248 619 207 Q619 165 605 127 Q591 89 563.5 61 Q536 33 495.5 16.5 Q455 0 402 0 L83 0 L83 700 L537 700 Z " />
<glyph glyph-name="afii10019" unicode="&#x412;" horiz-adv-x="677" d="M371 95 Q407 95 432 103.5 Q457 112 473 127 Q489 142 496 162 Q503 182 503 206 Q503 230 495.5 250.5 Q488 271 472 287 Q456 303 431 312 Q406 321 371 321 L204 321 L204 95 L371 95 Z M83 0 L83 700 L394 700 Q447 700 486 686.5 Q525 673 550.5 650 Q576 627 588.5 596.5 Q601 566 601 532 Q601 469 568 425.5 Q535 382 459 368 Q543 357 583.5 308.5 Q624 260 624 191 Q624 152 610 117 Q596 82 568.5 56 Q541 30 500.5 15 Q460 0 407 0 L83 0 Z M362 404 Q394 404 416 412.5 Q438 421 451.5 435 Q465 449 471 468 Q477 487 477 508 Q477 550 451.5 577.5 Q426 605 361 605 L204 605 L204 404 L362 404 Z " />
<glyph glyph-name="afii10020" unicode="&#x413;" horiz-adv-x="544" d="M534 700 L534 605 L204 605 L204 0 L83 0 L83 700 L534 700 Z " />
<glyph glyph-name="afii10021" unicode="&#x414;" horiz-adv-x="794" d="M335 605 Q333 476 310 344.5 Q287 213 230 95 L519 95 L519 605 L335 605 Z M639 700 L639 95 L772 95 L757 -174 L648 -174 L648 0 L136 0 L136 -174 L28 -174 L13 95 L117 95 Q150 165 170.5 242 Q191 319 203 397 Q215 475 219.5 552 Q224 629 224 700 L639 700 Z " />
<glyph glyph-name="afii10022" unicode="&#x415;" horiz-adv-x="605" d="M83 0 L83 700 L555 700 L555 605 L204 605 L204 409 L495 409 L495 316 L204 316 L204 95 L562 95 L562 0 L83 0 Z " />
<glyph glyph-name="afii10023" unicode="&#x401;" horiz-adv-x="605" d="M384 751 L384 834 L467 834 L467 751 L384 751 Z M196 751 L196 834 L278 834 L278 751 L196 751 Z M83 0 L83 700 L555 700 L555 605 L204 605 L204 409 L495 409 L495 316 L204 316 L204 95 L562 95 L562 0 L83 0 Z " />
<glyph glyph-name="afii10024" unicode="&#x416;" horiz-adv-x="1010" d="M859 0 L567 367 L842 700 L983 700 L707 375 L1005 0 L859 0 Z M445 0 L445 700 L566 700 L566 0 L445 0 Z M6 0 L303 375 L28 700 L168 700 L443 367 L152 0 L6 0 Z " />
<glyph glyph-name="afii10025" unicode="&#x417;" horiz-adv-x="632" d="M267 402 Q361 402 400 431.5 Q439 461 439 517 Q439 562 409 588.5 Q379 615 314 615 Q248 615 216.5 590.5 Q185 566 179 512 L51 512 Q54 558 75.5 595 Q97 632 132.5 657.5 Q168 683 214.5 696.5 Q261 710 314 710 Q375 710 423.5 696.5 Q472 683 505 659 Q538 635 555.5 602 Q573 569 573 530 Q573 453 523 411.5 Q473 370 389 360 Q477 353 530 311 Q583 269 583 191 Q583 147 563 110 Q543 73 507 46.5 Q471 20 420 5 Q369 -10 307 -10 Q255 -10 208 4 Q161 18 125.5 44 Q90 70 68 107 Q46 144 44 190 L174 190 Q181 135 215.5 110 Q250 85 316 85 Q382 85 416 116 Q450 147 450 195 Q450 253 408 284 Q366 315 267 315 L267 402 Z " />
<glyph glyph-name="afii10026" unicode="&#x418;" horiz-adv-x="710" d="M201 700 L201 233 Q201 216 200 192 Q199 168 197 151 Q203 166 210 188.5 Q217 211 225 226 L467 700 L626 700 L626 0 L506 0 L506 516 Q506 531 506.5 553.5 Q507 576 508 591 Q503 577 496.5 556 Q490 535 483 521 L227 0 L83 0 L83 700 L201 700 Z " />
<glyph glyph-name="afii10027" unicode="&#x419;" horiz-adv-x="710" d="M201 700 L201 233 Q201 216 200 192 Q199 168 197 151 Q203 166 210 188.5 Q217 211 225 226 L467 700 L626 700 L626 0 L506 0 L506 516 Q506 531 506.5 553.5 Q507 576 508 591 Q503 577 496.5 556 Q490 535 483 521 L227 0 L83 0 L83 700 L201 700 Z M285 856 Q286 824 303.5 806.5 Q321 789 354 789 Q391 789 407 808 Q423 827 424 856 L495 856 Q495 829 483.5 806.5 Q472 784 452.5 768 Q433 752 407.5 743 Q382 734 354 734 Q326 734 301 743 Q276 752 256.5 768 Q237 784 225.5 806.5 Q214 829 214 856 L285 856 Z " />
<glyph glyph-name="afii10028" unicode="&#x41a;" horiz-adv-x="654" d="M502 0 L211 367 L485 700 L626 700 L351 375 L648 0 L502 0 Z M83 0 L83 700 L204 700 L204 0 L83 0 Z " />
<glyph glyph-name="afii10029" unicode="&#x41b;" horiz-adv-x="698" d="M615 700 L615 0 L495 0 L495 605 L297 605 Q295 537 289 468 Q283 399 272.5 335.5 Q262 272 247 215.5 Q232 159 211 116 Q173 46 121 18 Q69 -10 6 -10 L6 104 Q75 104 112 177 Q130 214 141.5 267 Q153 320 160.5 386.5 Q168 453 172 532 Q176 611 179 700 L615 700 Z " />
<glyph glyph-name="afii10030" unicode="&#x41c;" horiz-adv-x="885" d="M271 700 L427 233 Q432 216 437 189 Q442 162 445 142 Q446 152 448 164.5 Q450 177 452.5 190 Q455 203 457.5 214.5 Q460 226 462 234 L615 700 L802 700 L802 0 L683 0 L683 513 Q683 533 683 560.5 Q683 588 685 607 Q681 586 675.5 562 Q670 538 665 519 L492 0 L393 0 L220 519 Q215 538 210.5 561.5 Q206 585 201 607 Q203 588 203 560 Q203 532 203 514 L203 0 L83 0 L83 700 L271 700 Z " />
<glyph glyph-name="afii10031" unicode="&#x41d;" horiz-adv-x="703" d="M499 0 L499 315 L204 315 L204 0 L83 0 L83 700 L204 700 L204 410 L499 410 L499 700 L619 700 L619 0 L499 0 Z " />
<glyph glyph-name="afii10032" unicode="&#x41e;" horiz-adv-x="765" d="M383 710 Q459 710 520 682 Q581 654 623 605.5 Q665 557 687.5 491.5 Q710 426 710 350 Q710 274 687.5 208.5 Q665 143 623 94.5 Q581 46 520 18 Q459 -10 383 -10 Q306 -10 245 18 Q184 46 142 94.5 Q100 143 77.5 208.5 Q55 274 55 350 Q55 426 77.5 491.5 Q100 557 142 605.5 Q184 654 245 682 Q306 710 383 710 Z M383 604 Q332 604 295 585.5 Q258 567 233.5 533 Q209 499 197 452.5 Q185 406 185 350 Q185 294 197 247.5 Q209 201 233.5 167 Q258 133 295 114.5 Q332 96 383 96 Q433 96 470 114.5 Q507 133 531.5 167 Q556 201 568 247.5 Q580 294 580 350 Q580 406 568 452.5 Q556 499 531.5 533 Q507 567 470 585.5 Q433 604 383 604 Z " />
<glyph glyph-name="afii10033" unicode="&#x41f;" horiz-adv-x="672" d="M479 0 L479 605 L193 605 L193 0 L77 0 L77 700 L594 700 L594 0 L479 0 Z " />
<glyph glyph-name="afii10034" unicode="&#x420;" horiz-adv-x="642" d="M204 605 L204 349 L370 349 Q432 349 459.5 386 Q487 423 487 481 Q487 535 460.5 570 Q434 605 370 605 L204 605 Z M399 700 Q452 700 491.5 683 Q531 666 557.5 636.5 Q584 607 597.5 567.5 Q611 528 611 484 Q611 438 598 397.5 Q585 357 558 327 Q531 297 490 279.5 Q449 262 392 262 L204 262 L204 0 L83 0 L83 700 L399 700 Z " />
<glyph glyph-name="afii10035" unicode="&#x421;" horiz-adv-x="705" d="M675 217 Q669 167 645.5 125 Q622 83 584.5 53 Q547 23 496 6.5 Q445 -10 384 -10 Q307 -10 246 18 Q185 46 142.5 94.5 Q100 143 77.5 208.5 Q55 274 55 350 Q55 426 77.5 491.5 Q100 557 142.5 605.5 Q185 654 246 682 Q307 710 384 710 Q445 710 496 693.5 Q547 677 584.5 647 Q622 617 645.5 575 Q669 533 675 483 L552 483 Q541 539 498 571.5 Q455 604 384 604 Q333 604 296 585.5 Q259 567 234 533 Q209 499 197 452.5 Q185 406 185 350 Q185 294 197 247.5 Q209 201 234 167 Q259 133 296 114.5 Q333 96 384 96 Q455 96 498 128.5 Q541 161 552 217 L675 217 Z " />
<glyph glyph-name="afii10036" unicode="&#x422;" horiz-adv-x="601" d="M241 0 L241 605 L11 605 L11 700 L591 700 L591 605 L361 605 L361 0 L241 0 Z " />
<glyph glyph-name="afii10037" unicode="&#x423;" horiz-adv-x="636" d="M143 700 L302 377 Q308 365 313.5 349.5 Q319 334 323 318 Q328 334 333 349.5 Q338 365 345 377 L503 700 L633 700 L356 151 Q317 70 261 30 Q205 -10 125 -10 Q111 -10 97 -9 Q83 -8 69 -6 L69 102 Q88 99 109 99 Q144 99 171.5 111 Q199 123 216 154 L253 220 L9 700 L143 700 Z " />
<glyph glyph-name="afii10038" unicode="&#x424;" horiz-adv-x="810" d="M170 353 Q170 280 213 234.5 Q256 189 344 184 L344 522 Q256 517 213 471 Q170 425 170 353 Z M639 353 Q639 425 595.5 471 Q552 517 465 522 L465 183 Q552 188 595.5 234 Q639 280 639 353 Z M465 700 L465 608 Q617 594 692 528 Q767 462 767 353 Q767 244 692 177.5 Q617 111 465 97 L465 0 L344 0 L344 97 Q192 111 117 177.5 Q42 244 42 353 Q42 462 117 528 Q192 594 344 608 L344 700 L465 700 Z " />
<glyph glyph-name="afii10039" unicode="&#x425;" horiz-adv-x="671" d="M159 700 L306 491 Q315 477 323.5 461 Q332 445 338 428 Q346 445 354.5 461.5 Q363 478 373 492 L519 700 L659 700 L410 356 L668 0 L517 0 L364 217 Q354 232 345 248.5 Q336 265 330 282 Q317 249 295 216 L143 0 L3 0 L259 353 L8 700 L159 700 Z " />
<glyph glyph-name="afii10040" unicode="&#x426;" horiz-adv-x="770" d="M204 700 L204 95 L495 95 L495 700 L615 700 L615 95 L748 95 L733 -174 L624 -174 L624 0 L83 0 L83 700 L204 700 Z " />
<glyph glyph-name="afii10041" unicode="&#x427;" horiz-adv-x="678" d="M475 0 L475 321 Q463 288 441 263 Q419 238 390.5 221.5 Q362 205 328 197 Q294 189 258 189 Q220 189 186 199 Q152 209 126.5 230 Q101 251 86 282.5 Q71 314 71 357 L71 700 L192 700 L192 394 Q192 344 224 322.5 Q256 301 302 301 Q332 301 363 311 Q394 321 418.5 340.5 Q443 360 459 389.5 Q475 419 475 458 L475 700 L595 700 L595 0 L475 0 Z " />
<glyph glyph-name="afii10042" unicode="&#x428;" horiz-adv-x="999" d="M203 700 L203 95 L439 95 L439 700 L560 700 L560 95 L796 95 L796 700 L917 700 L917 0 L83 0 L83 700 L203 700 Z " />
<glyph glyph-name="afii10043" unicode="&#x429;" horiz-adv-x="1071" d="M203 700 L203 95 L439 95 L439 700 L560 700 L560 95 L796 95 L796 700 L917 700 L917 95 L1049 95 L1034 -174 L926 -174 L926 0 L83 0 L83 700 L203 700 Z " />
<glyph glyph-name="afii10044" unicode="&#x42a;" horiz-adv-x="712" d="M243 700 L243 431 L435 431 Q491 431 533 413 Q575 395 603 365.5 Q631 336 645 297.5 Q659 259 659 218 Q659 176 645 136.5 Q631 97 603.5 67 Q576 37 535 18.5 Q494 0 441 0 L122 0 L122 605 L10 605 L10 700 L243 700 Z M243 91 L412 91 Q445 91 468.5 101.5 Q492 112 506.5 129.5 Q521 147 528 170.5 Q535 194 535 220 Q535 246 527.5 269 Q520 292 505 309 Q490 326 466.5 336 Q443 346 410 346 L243 346 L243 91 Z " />
<glyph glyph-name="afii10045" unicode="&#x42b;" horiz-adv-x="878" d="M675 0 L675 700 L796 700 L796 0 L675 0 Z M204 91 L367 91 Q400 91 423.5 101.5 Q447 112 461.5 129.5 Q476 147 483 170.5 Q490 194 490 220 Q490 246 482.5 269 Q475 292 460 309 Q445 326 421.5 336 Q398 346 365 346 L204 346 L204 91 Z M204 700 L204 431 L390 431 Q446 431 488 413 Q530 395 558 365.5 Q586 336 600 297.5 Q614 259 614 218 Q614 176 600 136.5 Q586 97 558.5 67 Q531 37 490 18.5 Q449 0 396 0 L83 0 L83 700 L204 700 Z " />
<glyph glyph-name="afii10046" unicode="&#x42c;" horiz-adv-x="672" d="M204 91 L373 91 Q406 91 429.5 101.5 Q453 112 467.5 129.5 Q482 147 489 170.5 Q496 194 496 220 Q496 246 488.5 269 Q481 292 465.5 309 Q450 326 426.5 336 Q403 346 371 346 L204 346 L204 91 Z M204 700 L204 431 L395 431 Q452 431 494 413 Q536 395 563.5 365.5 Q591 336 605 297.5 Q619 259 619 218 Q619 176 605 136.5 Q591 97 563.5 67 Q536 37 495.5 18.5 Q455 0 402 0 L83 0 L83 700 L204 700 Z " />
<glyph glyph-name="afii10047" unicode="&#x42d;" horiz-adv-x="705" d="M322 710 Q398 710 459 682 Q520 654 563 605.5 Q606 557 628.5 491.5 Q651 426 651 350 Q651 274 628.5 208.5 Q606 143 563 94.5 Q520 46 459 18 Q398 -10 322 -10 Q261 -10 210 6 Q159 22 121.5 51 Q84 80 60.5 121 Q37 162 30 213 L154 213 Q165 156 207.5 124 Q250 92 322 92 Q368 92 403.5 108.5 Q439 125 463.5 154.5 Q488 184 502 225 Q516 266 520 316 L251 316 L251 409 L517 409 Q511 453 496 489.5 Q481 526 456.5 552.5 Q432 579 398.5 593.5 Q365 608 322 608 Q250 608 207.5 576 Q165 544 154 487 L30 487 Q37 538 60.5 579 Q84 620 121.5 649 Q159 678 210 694 Q261 710 322 710 Z " />
<glyph glyph-name="afii10048" unicode="&#x42e;" horiz-adv-x="1016" d="M639 604 Q588 604 552 585.5 Q516 567 492.5 533 Q469 499 458 452.5 Q447 406 447 350 Q447 294 458 247.5 Q469 201 492.5 167 Q516 133 552 114.5 Q588 96 639 96 Q689 96 725.5 114.5 Q762 133 785.5 167 Q809 201 820 247.5 Q831 294 831 350 Q831 406 820 452.5 Q809 499 785.5 533 Q762 567 725.5 585.5 Q689 604 639 604 Z M204 700 L204 410 L321 410 Q329 474 353.5 529 Q378 584 418.5 624 Q459 664 514.5 687 Q570 710 639 710 Q716 710 776 682 Q836 654 877 605.5 Q918 557 939.5 491.5 Q961 426 961 350 Q961 274 939.5 208.5 Q918 143 877 94.5 Q836 46 776 18 Q716 -10 639 -10 Q567 -10 510 14 Q453 38 412.5 81.5 Q372 125 348 184.5 Q324 244 319 315 L204 315 L204 0 L83 0 L83 700 L204 700 Z " />
<glyph glyph-name="afii10049" unicode="&#x42f;" horiz-adv-x="675" d="M303 605 Q238 605 212.5 575.5 Q187 546 187 496 Q187 470 193 449 Q199 428 212.5 413 Q226 398 248.5 389.5 Q271 381 303 381 L472 381 L472 605 L303 605 Z M593 700 L593 0 L472 0 L472 288 L318 288 Q287 288 261.5 277 Q236 266 217.5 235 Q199 204 189 147.5 Q179 91 179 0 L59 0 Q59 97 72 160 Q85 223 107.5 260 Q130 297 159.5 313 Q189 329 222 334 Q141 342 101.5 389.5 Q62 437 62 512 Q62 551 74 585 Q86 619 111.5 644.5 Q137 670 176 685 Q215 700 270 700 L593 700 Z " />
<glyph glyph-name="afii10050" unicode="&#x490;" horiz-adv-x="561" d="M418 700 L436 801 L534 801 L534 605 L204 605 L204 0 L83 0 L83 700 L418 700 Z " />
<glyph glyph-name="afii10051" unicode="&#x402;" horiz-adv-x="745" d="M591 700 L591 605 L361 605 L361 375 Q382 417 423 443.5 Q464 470 527 470 Q609 470 653.5 423 Q698 376 698 291 L698 151 Q698 104 682 68.5 Q666 33 637 9 Q608 -15 567.5 -27.5 Q527 -40 478 -40 L478 48 Q526 49 551.5 72.5 Q577 96 577 150 L577 269 Q577 320 556 347 Q535 374 486 374 Q462 374 439.5 365.5 Q417 357 399.5 339.5 Q382 322 371.5 296 Q361 270 361 235 L361 0 L241 0 L241 605 L11 605 L11 700 L591 700 Z " />
<glyph glyph-name="afii10052" unicode="&#x403;" horiz-adv-x="544" d="M461 865 L311 724 L240 724 L357 877 L461 865 Z M534 700 L534 605 L204 605 L204 0 L83 0 L83 700 L534 700 Z " />
<glyph glyph-name="afii10053" unicode="&#x404;" horiz-adv-x="705" d="M384 710 Q445 710 496 694 Q547 678 584.5 649 Q622 620 645.5 579 Q669 538 675 487 L552 487 Q541 544 498 576 Q455 608 384 608 Q340 608 306 593.5 Q272 579 248 552.5 Q224 526 209 489.5 Q194 453 188 409 L455 409 L455 316 L186 316 Q189 266 203 225 Q217 184 241.5 154.5 Q266 125 301.5 108.5 Q337 92 384 92 Q455 92 498 124 Q541 156 552 213 L675 213 Q669 162 645.5 121 Q622 80 584.5 51 Q547 22 496 6 Q445 -10 384 -10 Q307 -10 246 18 Q185 46 142.5 94.5 Q100 143 77.5 208.5 Q55 274 55 350 Q55 426 77.5 491.5 Q100 557 142.5 605.5 Q185 654 246 682 Q307 710 384 710 Z " />
<glyph glyph-name="afii10054" unicode="&#x405;" horiz-adv-x="659" d="M332 710 Q394 710 443 694.5 Q492 679 526.5 652 Q561 625 581 587.5 Q601 550 605 506 L480 506 Q477 530 468 549.5 Q459 569 441.5 583.5 Q424 598 396.5 606 Q369 614 329 614 Q290 614 263.5 605.5 Q237 597 220.5 583 Q204 569 197 551 Q190 533 190 513 Q190 486 200 469 Q210 452 229.5 440.5 Q249 429 277 422.5 Q305 416 340 412 Q399 406 448.5 393 Q498 380 533.5 356.5 Q569 333 589 298 Q609 263 609 213 Q609 165 590.5 124.5 Q572 84 536 54 Q500 24 447.5 7 Q395 -10 327 -10 Q265 -10 215 5.5 Q165 21 130 48.5 Q95 76 74.5 113.5 Q54 151 50 195 L175 195 Q180 148 216 116.5 Q252 85 331 85 Q370 85 397.5 94 Q425 103 443 118 Q461 133 469 153 Q477 173 477 195 Q477 224 466 243 Q455 262 434 274 Q413 286 382.5 293 Q352 300 313 305 Q253 312 206 325.5 Q159 339 126.5 361.5 Q94 384 77 418.5 Q60 453 60 503 Q60 545 77 582.5 Q94 620 128.5 648.5 Q163 677 213.5 693.5 Q264 710 332 710 Z " />
<glyph glyph-name="afii10055" unicode="&#x406;" horiz-adv-x="286" d="M83 0 L83 700 L204 700 L204 0 L83 0 Z " />
<glyph glyph-name="afii10056" unicode="&#x407;" horiz-adv-x="286" d="M196 751 L196 834 L279 834 L279 751 L196 751 Z M8 751 L8 834 L90 834 L90 751 L8 751 Z M83 0 L83 700 L204 700 L204 0 L83 0 Z " />
<glyph glyph-name="afii10057" unicode="&#x408;" horiz-adv-x="555" d="M475 700 L475 205 Q475 155 458 115 Q441 75 409.5 47.5 Q378 20 332.5 5 Q287 -10 231 -10 Q132 -10 72.5 44 Q13 98 1 186 L126 186 Q129 149 154.5 121 Q180 93 235 93 Q299 93 326.5 121.5 Q354 150 354 204 L354 700 L475 700 Z " />
<glyph glyph-name="afii10058" unicode="&#x409;" horiz-adv-x="1084" d="M616 700 L616 431 L808 431 Q864 431 906 413 Q948 395 975.5 365.5 Q1003 336 1017 297.5 Q1031 259 1031 218 Q1031 176 1017 136.5 Q1003 97 975.5 67 Q948 37 907.5 18.5 Q867 0 814 0 L495 0 L495 605 L297 605 Q295 537 289 468 Q283 399 272.5 335.5 Q262 272 247 215.5 Q232 159 211 116 Q173 46 121 18 Q69 -10 6 -10 L6 104 Q75 104 112 177 Q130 214 141.5 267 Q153 320 160.5 386.5 Q168 453 172 532 Q176 611 179 700 L616 700 Z M616 91 L785 91 Q818 91 841.5 101.5 Q865 112 879.5 129.5 Q894 147 901 170.5 Q908 194 908 220 Q908 246 900.5 269 Q893 292 877.5 309 Q862 326 838.5 336 Q815 346 783 346 L616 346 L616 91 Z " />
<glyph glyph-name="afii10059" unicode="&#x40a;" horiz-adv-x="1050" d="M599 91 L750 91 Q783 91 806.5 101 Q830 111 845 128.5 Q860 146 867 169.5 Q874 193 874 219 Q874 271 843.5 307.5 Q813 344 749 344 L599 344 L599 91 Z M204 700 L204 431 L478 431 L478 700 L599 700 L599 431 L773 431 Q829 431 871 413 Q913 395 941 365.5 Q969 336 983 297.5 Q997 259 997 218 Q997 176 983 136.5 Q969 97 941.5 67 Q914 37 873.5 18.5 Q833 0 779 0 L478 0 L478 344 L204 344 L204 0 L83 0 L83 700 L204 700 Z " />
<glyph glyph-name="afii10060" unicode="&#x40b;" horiz-adv-x="768" d="M591 700 L591 605 L361 605 L361 371 Q382 413 423 439.5 Q464 466 527 466 Q609 466 653.5 419 Q698 372 698 287 L698 0 L577 0 L577 265 Q577 316 556 343 Q535 370 486 370 Q462 370 439.5 361.5 Q417 353 399.5 335.5 Q382 318 371.5 292 Q361 266 361 231 L361 0 L241 0 L241 605 L11 605 L11 700 L591 700 Z " />
<glyph glyph-name="afii10061" unicode="&#x40c;" horiz-adv-x="654" d="M491 865 L341 724 L270 724 L387 877 L491 865 Z M502 0 L211 367 L485 700 L626 700 L351 375 L648 0 L502 0 Z M83 0 L83 700 L204 700 L204 0 L83 0 Z " />
<glyph glyph-name="afii10062" unicode="&#x40e;" horiz-adv-x="636" d="M143 700 L302 377 Q308 365 313.5 349.5 Q319 334 323 318 Q328 334 333 349.5 Q338 365 345 377 L503 700 L633 700 L356 151 Q317 70 261 30 Q205 -10 125 -10 Q111 -10 97 -9 Q83 -8 69 -6 L69 102 Q88 99 109 99 Q144 99 171.5 111 Q199 123 216 154 L253 220 L9 700 L143 700 Z M257 856 Q257 824 274.5 806.5 Q292 789 326 789 Q363 789 379 808 Q395 827 396 856 L467 856 Q467 829 455.5 806.5 Q444 784 424.5 768 Q405 752 379.5 743 Q354 734 326 734 Q298 734 272.5 743 Q247 752 228 768 Q209 784 197.5 806.5 Q186 829 186 856 L257 856 Z " />
<glyph glyph-name="afii10065" unicode="&#x430;" horiz-adv-x="539" d="M311 233 Q235 233 196 213 Q157 193 157 146 Q157 113 176.5 95 Q196 77 231 77 Q257 77 280 85 Q303 93 320 109 Q337 125 347 147 Q357 169 357 198 L357 232 Q346 233 334.5 233 Q323 233 311 233 Z M275 510 Q330 510 367.5 498 Q405 486 427 464.5 Q449 443 458.5 414 Q468 385 468 351 L468 0 L357 0 L357 86 Q336 40 297 16 Q258 -8 195 -8 Q124 -8 83.5 29 Q43 66 43 129 Q43 214 105.5 260 Q168 306 308 306 Q320 306 333 305.5 Q346 305 357 304 L357 351 Q357 386 338.5 406.5 Q320 427 269 427 Q218 427 190.5 406 Q163 385 161 347 L57 347 Q63 424 118.5 467 Q174 510 275 510 Z " />
<glyph glyph-name="afii10066" unicode="&#x431;" horiz-adv-x="543" d="M270 410 Q240 410 210 399.5 Q180 389 153 372 Q152 360 152 348 Q152 336 152 323 Q152 197 182.5 139.5 Q213 82 277 82 Q308 82 330 95 Q352 108 366 130.5 Q380 153 386 184.5 Q392 216 392 253 Q392 287 386 316 Q380 345 366 366 Q352 387 328.5 398.5 Q305 410 270 410 Z M313 704 Q347 704 383.5 707 Q420 710 448 719 L448 626 Q417 617 381.5 614.5 Q346 612 310 612 Q245 612 208.5 572.5 Q172 533 159 442 Q225 496 308 496 Q357 496 394.5 478 Q432 460 457.5 428.5 Q483 397 495.5 353.5 Q508 310 508 259 Q508 200 494 150.5 Q480 101 451.5 65.5 Q423 30 379.5 10 Q336 -10 278 -10 Q160 -10 100.5 75.5 Q41 161 41 334 Q41 509 110 606.5 Q179 704 313 704 Z " />
<glyph glyph-name="afii10067" unicode="&#x432;" horiz-adv-x="525" d="M183 79 L286 79 Q334 79 353.5 98 Q373 117 373 149 Q373 180 353 201 Q333 222 287 222 L183 222 L183 79 Z M310 500 Q352 500 382.5 490 Q413 480 432.5 462.5 Q452 445 461.5 423 Q471 401 471 377 Q471 335 447 305 Q423 275 372 262 Q432 252 461 217.5 Q490 183 490 136 Q490 108 478.5 83 Q467 58 445 39.5 Q423 21 391 10.5 Q359 0 319 0 L72 0 L72 500 L310 500 Z M183 294 L279 294 Q322 294 338.5 313.5 Q355 333 355 359 Q355 386 338.5 404 Q322 422 279 422 L183 422 L183 294 Z " />
<glyph glyph-name="afii10068" unicode="&#x433;" horiz-adv-x="440" d="M432 500 L432 411 L183 411 L183 0 L72 0 L72 500 L432 500 Z " />
<glyph glyph-name="afii10069" unicode="&#x434;" horiz-adv-x="624" d="M260 413 Q260 375 253.5 329 Q247 283 236.5 237.5 Q226 192 213.5 150.5 Q201 109 188 79 L391 79 L391 413 L260 413 Z M502 500 L502 79 L609 79 L587 -138 L492 -138 L492 0 L119 0 L119 -138 L27 -138 L4 79 L84 79 Q97 111 110 158 Q123 205 132.5 260.5 Q142 316 148 377.5 Q154 439 154 500 L502 500 Z " />
<glyph glyph-name="afii10070" unicode="&#x435;" horiz-adv-x="530" d="M271 427 Q168 427 150 305 L381 305 Q379 358 351.5 392.5 Q324 427 271 427 Z M275 510 Q334 510 376.5 487 Q419 464 446 425.5 Q473 387 485 336.5 Q497 286 494 230 L147 230 Q151 155 181 117 Q211 79 271 79 Q313 79 341.5 100 Q370 121 375 160 L486 160 Q482 122 464 91 Q446 60 417.5 37.5 Q389 15 351.5 2.5 Q314 -10 272 -10 Q218 -10 174.5 8.5 Q131 27 100.5 61 Q70 95 53.5 143.5 Q37 192 37 251 Q37 309 53.5 356.5 Q70 404 100.5 438 Q131 472 175 491 Q219 510 275 510 Z " />
<glyph glyph-name="afii10071" unicode="&#x451;" horiz-adv-x="530" d="M323 584 L323 671 L406 671 L406 584 L323 584 Z M146 584 L146 671 L229 671 L229 584 L146 584 Z M271 427 Q168 427 150 305 L381 305 Q379 358 351.5 392.5 Q324 427 271 427 Z M275 510 Q334 510 376.5 487 Q419 464 446 425.5 Q473 387 485 336.5 Q497 286 494 230 L147 230 Q151 155 181 117 Q211 79 271 79 Q313 79 341.5 100 Q370 121 375 160 L486 160 Q482 122 464 91 Q446 60 417.5 37.5 Q389 15 351.5 2.5 Q314 -10 272 -10 Q218 -10 174.5 8.5 Q131 27 100.5 61 Q70 95 53.5 143.5 Q37 192 37 251 Q37 309 53.5 356.5 Q70 404 100.5 438 Q131 472 175 491 Q219 510 275 510 Z " />
<glyph glyph-name="afii10072" unicode="&#x436;" horiz-adv-x="785" d="M763 500 L574 271 L778 0 L652 0 L453 267 L636 500 L763 500 Z M450 500 L450 0 L334 0 L334 500 L450 500 Z M149 500 L332 267 L133 0 L6 0 L210 271 L22 500 L149 500 Z " />
<glyph glyph-name="afii10073" unicode="&#x437;" horiz-adv-x="503" d="M253 510 Q356 510 407 473 Q458 436 458 376 Q458 324 423.5 292.5 Q389 261 327 256 Q394 254 430 221.5 Q466 189 466 135 Q466 103 451 76.5 Q436 50 407.5 30.5 Q379 11 338.5 0.5 Q298 -10 247 -10 Q151 -10 97 32.5 Q43 75 37 146 L150 146 Q156 108 181 89 Q206 70 254 70 Q302 70 324.5 90.5 Q347 111 347 140 Q347 181 318 199.5 Q289 218 216 218 L216 291 Q284 291 311.5 308 Q339 325 339 364 Q339 393 319 411.5 Q299 430 253 430 Q205 430 183 412 Q161 394 156 358 L44 358 Q51 428 105 469 Q159 510 253 510 Z " />
<glyph glyph-name="afii10074" unicode="&#x438;" horiz-adv-x="565" d="M173 500 L173 211 Q173 170 170 131 Q176 149 182.5 167.5 Q189 186 198 203 L365 500 L493 500 L493 0 L390 0 L390 318 Q390 339 390.5 358.5 Q391 378 393 399 Q387 380 380 361 Q373 342 365 324 L188 0 L72 0 L72 500 L173 500 Z " />
<glyph glyph-name="afii10075" unicode="&#x439;" horiz-adv-x="565" d="M173 500 L173 211 Q173 170 170 131 Q176 149 182.5 167.5 Q189 186 198 203 L365 500 L493 500 L493 0 L390 0 L390 318 Q390 339 390.5 358.5 Q391 378 393 399 Q387 380 380 361 Q373 342 365 324 L188 0 L72 0 L72 500 L173 500 Z M226 680 Q226 647 240 627.5 Q254 608 288 608 Q325 608 337.5 629.5 Q350 651 350 680 L422 680 Q422 651 411.5 628 Q401 605 383 588.5 Q365 572 340.5 563 Q316 554 288 554 Q260 554 235.5 563 Q211 572 193 588.5 Q175 605 164.5 628 Q154 651 154 680 L226 680 Z " />
<glyph glyph-name="afii10076" unicode="&#x43a;" horiz-adv-x="540" d="M512 500 L309 276 L527 0 L400 0 L187 272 L386 500 L512 500 Z M183 500 L183 0 L72 0 L72 500 L183 500 Z " />
<glyph glyph-name="afii10077" unicode="&#x43b;" horiz-adv-x="564" d="M491 500 L491 0 L380 0 L380 417 L251 417 Q250 369 245 319.5 Q240 270 230.5 224 Q221 178 207 138 Q193 98 174 68 Q146 29 104.5 11.5 Q63 -6 11 -6 L11 78 Q62 78 91 139 Q104 168 114 208 Q124 248 130.5 295 Q137 342 141 394.5 Q145 447 146 500 L491 500 Z " />
<glyph glyph-name="afii10078" unicode="&#x43c;" horiz-adv-x="703" d="M230 500 L337 191 Q341 177 345.5 156.5 Q350 136 353 119 Q355 136 359.5 156.5 Q364 177 369 191 L479 500 L632 500 L632 0 L530 0 L530 335 Q530 350 530.5 367 Q531 384 533 400 Q529 384 525 367 Q521 350 516 335 L399 0 L304 0 L189 330 Q184 344 179 364 Q174 384 170 400 Q172 384 172.5 364 Q173 344 173 330 L173 0 L72 0 L72 500 L230 500 Z " />
<glyph glyph-name="afii10079" unicode="&#x43d;" horiz-adv-x="558" d="M183 500 L183 303 L375 303 L375 500 L486 500 L486 0 L375 0 L375 214 L183 214 L183 0 L72 0 L72 500 L183 500 Z " />
<glyph glyph-name="afii10080" unicode="&#x43e;" horiz-adv-x="537" d="M269 510 Q321 510 363.5 492 Q406 474 436.5 440.5 Q467 407 483.5 359 Q500 311 500 251 Q500 190 483.5 141.5 Q467 93 436.5 59.5 Q406 26 363.5 8 Q321 -10 269 -10 Q217 -10 174 8 Q131 26 100.5 59.5 Q70 93 53.5 141.5 Q37 190 37 251 Q37 311 53.5 359 Q70 407 100.5 440.5 Q131 474 174 492 Q217 510 269 510 Z M269 418 Q209 418 179 374 Q149 330 149 251 Q149 170 179 126 Q209 82 269 82 Q328 82 358 126 Q388 170 388 251 Q388 330 358 374 Q328 418 269 418 Z " />
<glyph glyph-name="afii10081" unicode="&#x43f;" horiz-adv-x="551" d="M480 500 L480 0 L369 0 L369 416 L183 416 L183 0 L72 0 L72 500 L480 500 Z " />
<glyph glyph-name="afii10082" unicode="&#x440;" horiz-adv-x="573" d="M301 417 Q243 417 210 374.5 Q177 332 177 247 Q177 213 184 183.5 Q191 154 206 131.5 Q221 109 244.5 96 Q268 83 301 83 Q361 83 390.5 127.5 Q420 172 420 250 Q420 328 390.5 372.5 Q361 417 301 417 Z M330 510 Q377 510 415 491 Q453 472 479.5 438 Q506 404 520.5 356 Q535 308 535 250 Q535 192 520.5 144 Q506 96 479.5 62 Q453 28 415 9 Q377 -10 330 -10 Q273 -10 233.5 22 Q194 54 177 100 L177 -200 L66 -200 L66 500 L177 500 L177 399 Q194 445 231.5 477.5 Q269 510 330 510 Z " />
<glyph glyph-name="afii10083" unicode="&#x441;" horiz-adv-x="514" d="M274 510 Q317 510 354.5 497 Q392 484 421 459.5 Q450 435 467.5 400.5 Q485 366 488 324 L376 324 Q372 365 345 391.5 Q318 418 270 418 Q208 418 178 372.5 Q148 327 148 250 Q148 173 178 127.5 Q208 82 270 82 Q318 82 345 108.5 Q372 135 376 176 L488 176 Q485 134 467.5 99.5 Q450 65 421 40.5 Q392 16 354.5 3 Q317 -10 274 -10 Q218 -10 174 8.5 Q130 27 99.5 61.5 Q69 96 53 143.5 Q37 191 37 250 Q37 308 53 356 Q69 404 99.5 438.5 Q130 473 174 491.5 Q218 510 274 510 Z " />
<glyph glyph-name="afii10084" unicode="&#x442;" horiz-adv-x="453" d="M448 500 L448 417 L282 417 L282 0 L171 0 L171 417 L6 417 L6 500 L448 500 Z " />
<glyph glyph-name="afii10085" unicode="&#x443;" horiz-adv-x="483" d="M116 500 L225 178 Q230 160 235 136.5 Q240 113 242 97 Q245 112 250 136 Q255 160 261 179 L374 500 L484 500 L291 -33 Q271 -92 247 -127 Q223 -162 193.5 -180.5 Q164 -199 127.5 -204.5 Q91 -210 45 -210 L45 -113 Q91 -112 118.5 -99.5 Q146 -87 161 -53 L180 -10 L-1 500 L116 500 Z " />
<glyph glyph-name="afii10086" unicode="&#x444;" horiz-adv-x="872" d="M262 417 Q208 417 180 372.5 Q152 328 152 250 Q152 172 180 127.5 Q208 83 262 83 Q291 83 313.5 96 Q336 109 351 131.5 Q366 154 373.5 183.5 Q381 213 381 247 Q381 332 347.5 374.5 Q314 417 262 417 Z M610 417 Q558 417 524.5 374.5 Q491 332 491 247 Q491 213 498.5 183.5 Q506 154 521 131.5 Q536 109 558.5 96 Q581 83 610 83 Q664 83 692 127.5 Q720 172 720 250 Q720 328 692 372.5 Q664 417 610 417 Z M236 510 Q292 510 328 477.5 Q364 445 381 399 L381 700 L491 700 L491 399 Q508 445 544 477.5 Q580 510 636 510 Q679 510 716 491 Q753 472 779 438 Q805 404 820 356 Q835 308 835 250 Q835 192 820 144 Q805 96 779 62 Q753 28 716 9 Q679 -10 636 -10 Q583 -10 545.5 22 Q508 54 491 100 L491 -200 L381 -200 L381 100 Q364 54 326.5 22 Q289 -10 236 -10 Q192 -10 155.5 9 Q119 28 93 62 Q67 96 52 144 Q37 192 37 250 Q37 308 52 356 Q67 404 93 438 Q119 472 155.5 491 Q192 510 236 510 Z " />
<glyph glyph-name="afii10087" unicode="&#x445;" horiz-adv-x="517" d="M142 500 L237 369 Q250 350 258 330 Q263 339 268.5 349.5 Q274 360 280 369 L374 500 L492 500 L318 260 L510 0 L378 0 L278 139 Q264 158 254 181 Q244 158 231 139 L131 0 L7 0 L195 255 L18 500 L142 500 Z " />
<glyph glyph-name="afii10088" unicode="&#x446;" horiz-adv-x="594" d="M183 500 L183 79 L369 79 L369 500 L480 500 L480 79 L587 79 L564 -138 L469 -138 L469 0 L72 0 L72 500 L183 500 Z " />
<glyph glyph-name="afii10089" unicode="&#x447;" horiz-adv-x="553" d="M174 500 L174 316 Q174 265 192 238 Q210 211 256 211 Q279 211 300 219.5 Q321 228 336.5 245.5 Q352 263 361 289.5 Q370 316 370 353 L370 500 L481 500 L481 0 L370 0 L370 210 Q350 168 315 141.5 Q280 115 220 115 Q142 115 102 162 Q62 209 62 294 L62 500 L174 500 Z " />
<glyph glyph-name="afii10090" unicode="&#x448;" horiz-adv-x="845" d="M183 500 L183 79 L367 79 L367 500 L478 500 L478 79 L663 79 L663 500 L774 500 L774 0 L72 0 L72 500 L183 500 Z " />
<glyph glyph-name="afii10091" unicode="&#x449;" horiz-adv-x="895" d="M183 500 L183 79 L367 79 L367 500 L478 500 L478 79 L663 79 L663 500 L774 500 L774 79 L881 79 L858 -138 L763 -138 L763 0 L72 0 L72 500 L183 500 Z " />
<glyph glyph-name="afii10092" unicode="&#x44a;" horiz-adv-x="519" d="M197 500 L197 319 L329 319 Q370 319 401 307 Q432 295 452.5 274 Q473 253 483.5 224 Q494 195 494 161 Q494 86 452 43 Q410 0 329 0 L86 0 L86 411 L10 411 L10 500 L197 500 Z M197 79 L298 79 Q345 79 363.5 101.5 Q382 124 382 158 Q382 193 363 216 Q344 239 299 239 L197 239 L197 79 Z " />
<glyph glyph-name="afii10093" unicode="&#x44b;" horiz-adv-x="714" d="M183 500 L183 319 L315 319 Q356 319 387 307 Q418 295 438.5 274 Q459 253 469.5 224 Q480 195 480 161 Q480 86 437.5 43 Q395 0 314 0 L72 0 L72 500 L183 500 Z M183 79 L283 79 Q331 79 349.5 101.5 Q368 124 368 158 Q368 193 349 216 Q330 239 285 239 L183 239 L183 79 Z M643 500 L643 0 L532 0 L532 500 L643 500 Z " />
<glyph glyph-name="afii10094" unicode="&#x44c;" horiz-adv-x="510" d="M183 500 L183 319 L315 319 Q356 319 387 307 Q418 295 438.5 274 Q459 253 469.5 224 Q480 195 480 161 Q480 86 437.5 43 Q395 0 314 0 L72 0 L72 500 L183 500 Z M183 79 L283 79 Q331 79 349.5 101.5 Q368 124 368 158 Q368 193 349 216 Q330 239 285 239 L183 239 L183 79 Z " />
<glyph glyph-name="afii10095" unicode="&#x44d;" horiz-adv-x="514" d="M361 292 Q347 430 244 430 Q196 430 170 407.5 Q144 385 139 344 L25 344 Q28 384 46 415 Q64 446 93 467 Q122 488 160 499 Q198 510 241 510 Q297 510 341 491.5 Q385 473 415 438.5 Q445 404 461 356 Q477 308 477 250 Q477 191 461 143.5 Q445 96 414.5 61.5 Q384 27 340 8.5 Q296 -10 240 -10 Q197 -10 159 1 Q121 12 92 33 Q63 54 45.5 85 Q28 116 25 156 L139 156 Q144 115 170 92.5 Q196 70 244 70 Q351 70 362 218 L164 218 L164 292 L361 292 Z " />
<glyph glyph-name="afii10096" unicode="&#x44e;" horiz-adv-x="779" d="M513 418 Q453 418 425 373.5 Q397 329 397 251 Q397 171 425 126.5 Q453 82 513 82 Q572 82 600 126.5 Q628 171 628 251 Q628 329 600 373.5 Q572 418 513 418 Z M183 500 L183 301 L287 301 Q299 400 359 455 Q419 510 513 510 Q564 510 606.5 492.5 Q649 475 679 441.5 Q709 408 725.5 360 Q742 312 742 251 Q742 189 725.5 140.5 Q709 92 679 58.5 Q649 25 606.5 7.5 Q564 -10 513 -10 Q416 -10 355 49 Q294 108 285 216 L183 216 L183 0 L72 0 L72 500 L183 500 Z " />
<glyph glyph-name="afii10097" unicode="&#x44f;" horiz-adv-x="533" d="M240 416 Q197 416 180.5 395 Q164 374 164 345 Q164 313 180.5 291.5 Q197 270 240 270 L350 270 L350 416 L240 416 Z M461 500 L461 0 L350 0 L350 190 L249 190 Q230 190 214 184 Q198 178 186.5 158.5 Q175 139 168.5 101.5 Q162 64 162 0 L48 0 Q48 70 57 113 Q66 156 81 180.5 Q96 205 116 215.5 Q136 226 159 231 Q106 242 78 276 Q50 310 50 360 Q50 388 59.5 413.5 Q69 439 89 458.5 Q109 478 140 489 Q171 500 213 500 L461 500 Z " />
<glyph glyph-name="afii10098" unicode="&#x491;" horiz-adv-x="440" d="M326 500 L340 592 L432 592 L432 411 L183 411 L183 0 L72 0 L72 500 L326 500 Z " />
<glyph glyph-name="afii10099" unicode="&#x452;" horiz-adv-x="562" d="M184 578 L184 415 Q204 457 240.5 483.5 Q277 510 337 510 Q414 510 452.5 463 Q491 416 491 331 L491 -22 Q491 -67 475 -100 Q459 -133 433.5 -155 Q408 -177 374.5 -187.5 Q341 -198 307 -198 L307 -110 Q342 -109 361 -91.5 Q380 -74 380 -23 L380 309 Q380 360 362.5 387 Q345 414 297 414 Q273 414 252.5 405.5 Q232 397 217 380 Q202 363 193 336 Q184 309 184 272 L184 0 L73 0 L73 578 L21 578 L21 650 L73 650 L73 700 L184 700 L184 650 L279 650 L279 578 L184 578 Z " />
<glyph glyph-name="afii10100" unicode="&#x453;" horiz-adv-x="440" d="M432 500 L432 411 L183 411 L183 0 L72 0 L72 500 L432 500 Z M397 703 L253 547 L176 547 L282 717 L397 703 Z " />
<glyph glyph-name="afii10101" unicode="&#x454;" horiz-adv-x="514" d="M276 510 Q319 510 356.5 499 Q394 488 422.5 467 Q451 446 468 415 Q485 384 488 344 L374 344 Q370 385 344 407.5 Q318 430 270 430 Q167 430 153 292 L349 292 L349 218 L152 218 Q163 70 270 70 Q318 70 344 92.5 Q370 115 374 156 L488 156 Q485 116 467.5 85 Q450 54 421 33 Q392 12 354.5 1 Q317 -10 274 -10 Q218 -10 174 8.5 Q130 27 99.5 61.5 Q69 96 53 143.5 Q37 191 37 250 Q37 308 53 356 Q69 404 100 438.5 Q131 473 175.5 491.5 Q220 510 276 510 Z " />
<glyph glyph-name="afii10102" unicode="&#x455;" horiz-adv-x="497" d="M249 510 Q349 510 402 467.5 Q455 425 457 356 L353 356 Q352 390 324.5 410 Q297 430 253 430 Q200 430 178.5 410 Q157 390 157 365 Q157 348 164.5 337.5 Q172 327 185.5 320 Q199 313 217 308.5 Q235 304 256 301 Q291 297 327.5 290 Q364 283 394 267 Q424 251 443 223.5 Q462 196 462 151 Q462 118 450 88.5 Q438 59 412.5 37 Q387 15 346 2.5 Q305 -10 248 -10 Q148 -10 94.5 33.5 Q41 77 38 146 L143 146 Q144 113 173.5 92.5 Q203 72 251 72 Q310 72 332 92.5 Q354 113 354 138 Q354 157 346 169 Q338 181 324 188.5 Q310 196 292 200 Q274 204 253 207 Q215 212 178 219 Q141 226 112.5 241.5 Q84 257 66.5 284 Q49 311 49 356 Q49 387 62.5 415 Q76 443 101.5 464 Q127 485 164.5 497.5 Q202 510 249 510 Z " />
<glyph glyph-name="afii10103" unicode="&#x456;" horiz-adv-x="254" d="M184 673 L184 574 L71 574 L71 673 L184 673 Z M183 500 L183 0 L72 0 L72 500 L183 500 Z " />
<glyph glyph-name="afii10104" unicode="&#x457;" horiz-adv-x="255" d="M72 0 L72 500 L183 500 L183 0 L72 0 Z M173 584 L173 671 L256 671 L256 584 L173 584 Z M-4 584 L-4 671 L79 671 L79 584 L-4 584 Z " />
<glyph glyph-name="afii10105" unicode="&#x458;" horiz-adv-x="254" d="M184 673 L184 574 L71 574 L71 673 L184 673 Z M183 500 L183 -34 Q183 -79 166 -112.5 Q149 -146 122 -167.5 Q95 -189 60.5 -199.5 Q26 -210 -8 -210 L-8 -117 Q29 -117 50.5 -100 Q72 -83 72 -33 L72 500 L183 500 Z " />
<glyph glyph-name="afii10106" unicode="&#x459;" horiz-adv-x="819" d="M491 500 L491 319 L624 319 Q665 319 696 307 Q727 295 747.5 274 Q768 253 778.5 224 Q789 195 789 161 Q789 86 746.5 43 Q704 0 623 0 L380 0 L380 417 L251 417 Q248 328 233 251 Q218 174 188.5 117 Q159 60 115 27 Q71 -6 11 -6 L11 78 Q46 78 71 110.5 Q96 143 112 200 Q128 257 136 334 Q144 411 146 500 L491 500 Z M491 79 L592 79 Q640 79 658.5 101.5 Q677 124 677 158 Q677 193 657.5 216 Q638 239 593 239 L491 239 L491 79 Z " />
<glyph glyph-name="afii10107" unicode="&#x45a;" horiz-adv-x="790" d="M183 500 L183 313 L360 313 L360 500 L471 500 L471 319 L594 319 Q635 319 666 307 Q697 295 718 274 Q739 253 749.5 224 Q760 195 760 161 Q760 86 717.5 43 Q675 0 594 0 L360 0 L360 229 L183 229 L183 0 L72 0 L72 500 L183 500 Z M471 79 L563 79 Q610 79 628.5 101.5 Q647 124 647 158 Q647 193 628 216 Q609 239 564 239 L471 239 L471 79 Z " />
<glyph glyph-name="afii10108" unicode="&#x45b;" horiz-adv-x="566" d="M183 578 L183 415 Q203 457 241 483.5 Q279 510 339 510 Q417 510 456.5 463 Q496 416 496 331 L496 0 L385 0 L385 309 Q385 360 366.5 387 Q348 414 301 414 Q277 414 256 405.5 Q235 397 218.5 380 Q202 363 192.5 336 Q183 309 183 272 L183 0 L72 0 L72 578 L16 578 L16 650 L72 650 L72 700 L183 700 L183 650 L274 650 L274 578 L183 578 Z " />
<glyph glyph-name="afii10109" unicode="&#x45c;" horiz-adv-x="521" d="M512 500 L309 276 L527 0 L400 0 L187 272 L386 500 L512 500 Z M183 500 L183 0 L72 0 L72 500 L183 500 Z M418 703 L274 547 L197 547 L303 717 L418 703 Z " />
<glyph glyph-name="afii10110" unicode="&#x45e;" horiz-adv-x="483" d="M116 500 L225 178 Q230 160 235 136.5 Q240 113 242 97 Q245 112 250 136 Q255 160 261 179 L374 500 L484 500 L291 -33 Q271 -92 247 -127 Q223 -162 193.5 -180.5 Q164 -199 127.5 -204.5 Q91 -210 45 -210 L45 -113 Q91 -112 118.5 -99.5 Q146 -87 161 -53 L180 -10 L-1 500 L116 500 Z M184 680 Q185 647 199 627.5 Q213 608 246 608 Q283 608 295.5 629.5 Q308 651 309 680 L380 680 Q380 651 369.5 628 Q359 605 341 588.5 Q323 572 298.5 563 Q274 554 246 554 Q218 554 194 563 Q170 572 152 588.5 Q134 605 123.5 628 Q113 651 113 680 L184 680 Z " />
<glyph glyph-name="afii10145" unicode="&#x40f;" horiz-adv-x="698" d="M204 700 L204 95 L495 95 L495 700 L615 700 L615 0 L404 0 L387 -163 L311 -163 L293 0 L83 0 L83 700 L204 700 Z " />
<glyph glyph-name="afii10193" unicode="&#x45f;" horiz-adv-x="551" d="M183 500 L183 84 L369 84 L369 500 L480 500 L480 0 L325 0 L314 -149 L238 -149 L226 0 L72 0 L72 500 L183 500 Z " />
<glyph glyph-name="afii61352" unicode="&#x2116;" horiz-adv-x="1216" d="M740 1 L740 88 L1159 88 L1159 1 L740 1 Z M947 710 Q999 710 1041.5 692 Q1084 674 1114.5 640.5 Q1145 607 1161.5 559 Q1178 511 1178 451 Q1178 390 1161.5 341.5 Q1145 293 1114.5 259.5 Q1084 226 1041.5 208 Q999 190 947 190 Q895 190 852 208 Q809 226 778.5 259.5 Q748 293 731.5 341.5 Q715 390 715 451 Q715 511 731.5 559 Q748 607 778.5 640.5 Q809 674 852 692 Q895 710 947 710 Z M947 618 Q887 618 857 574 Q827 530 827 451 Q827 370 857 326 Q887 282 947 282 Q1006 282 1036 326 Q1066 370 1066 451 Q1066 530 1036 574 Q1006 618 947 618 Z M253 700 L490 218 Q497 204 505 181 Q513 158 518 136 Q516 153 515 181 Q514 209 514 226 L514 700 L632 700 L632 0 L476 0 L227 514 Q220 530 212.5 553.5 Q205 577 200 596 Q201 588 201.5 577 Q202 566 202.5 554 Q203 542 203.5 530.5 Q204 519 204 512 L204 0 L83 0 L83 700 L253 700 Z " />
<glyph glyph-name="Alpha" unicode="&#x391;" horiz-adv-x="642" d="M318 612 Q313 588 306.5 565 Q300 542 293 520 L211 281 L424 281 L343 521 Q336 543 329.5 566 Q323 589 318 612 Z M406 700 L648 0 L516 0 L452 189 L183 189 L120 0 L-6 0 L237 700 L406 700 Z " />
<glyph glyph-name="Beta" unicode="&#x392;" horiz-adv-x="677" d="M371 95 Q407 95 432 103.5 Q457 112 473 127 Q489 142 496 162 Q503 182 503 206 Q503 230 495.5 250.5 Q488 271 472 287 Q456 303 431 312 Q406 321 371 321 L204 321 L204 95 L371 95 Z M83 0 L83 700 L394 700 Q447 700 486 686.5 Q525 673 550.5 650 Q576 627 588.5 596.5 Q601 566 601 532 Q601 469 568 425.5 Q535 382 459 368 Q543 357 583.5 308.5 Q624 260 624 191 Q624 152 610 117 Q596 82 568.5 56 Q541 30 500.5 15 Q460 0 407 0 L83 0 Z M362 404 Q394 404 416 412.5 Q438 421 451.5 435 Q465 449 471 468 Q477 487 477 508 Q477 550 451.5 577.5 Q426 605 361 605 L204 605 L204 404 L362 404 Z " />
<glyph glyph-name="Gamma" unicode="&#x393;" horiz-adv-x="544" d="M534 700 L534 605 L204 605 L204 0 L83 0 L83 700 L534 700 Z " />
<glyph glyph-name="Epsilon" unicode="&#x395;" horiz-adv-x="605" d="M83 0 L83 700 L555 700 L555 605 L204 605 L204 409 L495 409 L495 316 L204 316 L204 95 L562 95 L562 0 L83 0 Z " />
<glyph glyph-name="Zeta" unicode="&#x396;" horiz-adv-x="626" d="M40 0 L40 95 L440 605 L50 605 L50 700 L583 700 L583 604 L184 95 L590 95 L590 0 L40 0 Z " />
<glyph glyph-name="Eta" unicode="&#x397;" horiz-adv-x="703" d="M499 0 L499 315 L204 315 L204 0 L83 0 L83 700 L204 700 L204 410 L499 410 L499 700 L619 700 L619 0 L499 0 Z " />
<glyph glyph-name="Theta" unicode="&#x398;" horiz-adv-x="765" d="M508 403 L508 315 L256 315 L256 403 L508 403 Z M383 710 Q459 710 520 682 Q581 654 623 605.5 Q665 557 687.5 491.5 Q710 426 710 350 Q710 274 687.5 208.5 Q665 143 623 94.5 Q581 46 520 18 Q459 -10 383 -10 Q306 -10 245 18 Q184 46 142 94.5 Q100 143 77.5 208.5 Q55 274 55 350 Q55 426 77.5 491.5 Q100 557 142 605.5 Q184 654 245 682 Q306 710 383 710 Z M383 604 Q332 604 295 585.5 Q258 567 233.5 533 Q209 499 197 452.5 Q185 406 185 350 Q185 294 197 247.5 Q209 201 233.5 167 Q258 133 295 114.5 Q332 96 383 96 Q433 96 470 114.5 Q507 133 531.5 167 Q556 201 568 247.5 Q580 294 580 350 Q580 406 568 452.5 Q556 499 531.5 533 Q507 567 470 585.5 Q433 604 383 604 Z " />
<glyph glyph-name="Iota" unicode="&#x399;" horiz-adv-x="286" d="M204 700 L204 0 L83 0 L83 700 L204 700 Z " />
<glyph glyph-name="Kappa" unicode="&#x39a;" horiz-adv-x="654" d="M502 0 L211 367 L485 700 L626 700 L351 375 L648 0 L502 0 Z M83 0 L83 700 L204 700 L204 0 L83 0 Z " />
<glyph glyph-name="Lambda" unicode="&#x39b;" horiz-adv-x="637" d="M402 700 L644 0 L512 0 L335 531 Q330 546 326 562.5 Q322 579 318 596 Q314 579 310 563 Q306 547 301 531 L121 0 L-6 0 L236 700 L402 700 Z " />
<glyph glyph-name="Mu" unicode="&#x39c;" horiz-adv-x="885" d="M271 700 L427 233 Q432 216 437 189 Q442 162 445 142 Q446 152 448 164.5 Q450 177 452.5 190 Q455 203 457.5 214.5 Q460 226 462 234 L615 700 L802 700 L802 0 L683 0 L683 513 Q683 533 683 560.5 Q683 588 685 607 Q681 586 675.5 562 Q670 538 665 519 L492 0 L393 0 L220 519 Q215 538 210.5 561.5 Q206 585 201 607 Q203 588 203 560 Q203 532 203 514 L203 0 L83 0 L83 700 L271 700 Z " />
<glyph glyph-name="Nu" unicode="&#x39d;" horiz-adv-x="715" d="M253 700 L490 218 Q497 204 505 181 Q513 158 518 136 Q516 153 515 181 Q514 209 514 226 L514 700 L632 700 L632 0 L476 0 L227 514 Q220 530 212.5 553.5 Q205 577 200 596 Q201 588 201.5 577 Q202 566 202.5 554 Q203 542 203.5 530.5 Q204 519 204 512 L204 0 L83 0 L83 700 L253 700 Z " />
<glyph glyph-name="Xi" unicode="&#x39e;" horiz-adv-x="613" d="M574 100 L574 0 L39 0 L39 100 L574 100 Z M507 412 L507 313 L106 313 L106 412 L507 412 Z M568 700 L568 600 L45 600 L45 700 L568 700 Z " />
<glyph glyph-name="Omicron" unicode="&#x39f;" horiz-adv-x="765" d="M383 710 Q459 710 520 682 Q581 654 623 605.5 Q665 557 687.5 491.5 Q710 426 710 350 Q710 274 687.5 208.5 Q665 143 623 94.5 Q581 46 520 18 Q459 -10 383 -10 Q306 -10 245 18 Q184 46 142 94.5 Q100 143 77.5 208.5 Q55 274 55 350 Q55 426 77.5 491.5 Q100 557 142 605.5 Q184 654 245 682 Q306 710 383 710 Z M383 604 Q332 604 295 585.5 Q258 567 233.5 533 Q209 499 197 452.5 Q185 406 185 350 Q185 294 197 247.5 Q209 201 233.5 167 Q258 133 295 114.5 Q332 96 383 96 Q433 96 470 114.5 Q507 133 531.5 167 Q556 201 568 247.5 Q580 294 580 350 Q580 406 568 452.5 Q556 499 531.5 533 Q507 567 470 585.5 Q433 604 383 604 Z " />
<glyph glyph-name="Pi" unicode="&#x3a0;" horiz-adv-x="698" d="M615 700 L615 0 L495 0 L495 605 L204 605 L204 0 L83 0 L83 700 L615 700 Z " />
<glyph glyph-name="Rho" unicode="&#x3a1;" horiz-adv-x="642" d="M204 605 L204 349 L370 349 Q432 349 459.5 386 Q487 423 487 481 Q487 535 460.5 570 Q434 605 370 605 L204 605 Z M399 700 Q452 700 491.5 683 Q531 666 557.5 636.5 Q584 607 597.5 567.5 Q611 528 611 484 Q611 438 598 397.5 Q585 357 558 327 Q531 297 490 279.5 Q449 262 392 262 L204 262 L204 0 L83 0 L83 700 L399 700 Z " />
<glyph glyph-name="Sigma" unicode="&#x3a3;" horiz-adv-x="602" d="M565 700 L565 605 L184 605 L379 367 L175 95 L572 95 L572 0 L37 0 L37 95 L241 367 L47 604 L47 700 L565 700 Z " />
<glyph glyph-name="Tau" unicode="&#x3a4;" horiz-adv-x="601" d="M241 0 L241 605 L11 605 L11 700 L591 700 L591 605 L361 605 L361 0 L241 0 Z " />
<glyph glyph-name="Upsilon" unicode="&#x3a5;" horiz-adv-x="643" d="M262 0 L262 308 L-6 700 L135 700 L326 410 L518 700 L650 700 L382 308 L382 0 L262 0 Z " />
<glyph glyph-name="Phi" unicode="&#x3a6;" horiz-adv-x="810" d="M170 353 Q170 280 213 234.5 Q256 189 344 184 L344 522 Q256 517 213 471 Q170 425 170 353 Z M639 353 Q639 425 595.5 471 Q552 517 465 522 L465 183 Q552 188 595.5 234 Q639 280 639 353 Z M465 700 L465 608 Q617 594 692 528 Q767 462 767 353 Q767 244 692 177.5 Q617 111 465 97 L465 0 L344 0 L344 97 Q192 111 117 177.5 Q42 244 42 353 Q42 462 117 528 Q192 594 344 608 L344 700 L465 700 Z " />
<glyph glyph-name="Chi" unicode="&#x3a7;" horiz-adv-x="671" d="M159 700 L306 491 Q315 477 323.5 461 Q332 445 338 428 Q346 445 354.5 461.5 Q363 478 373 492 L519 700 L659 700 L410 356 L668 0 L517 0 L364 217 Q354 232 345 248.5 Q336 265 330 282 Q317 249 295 216 L143 0 L3 0 L259 353 L8 700 L159 700 Z " />
<glyph glyph-name="Psi" unicode="&#x3a8;" horiz-adv-x="777" d="M174 700 L174 452 Q174 383 210.5 349.5 Q247 316 328 308 L328 700 L449 700 L449 308 Q530 316 566 349.5 Q602 383 602 452 L602 700 L723 700 L723 439 Q723 327 654 270 Q585 213 449 203 L449 0 L328 0 L328 203 Q192 213 123 270 Q54 327 54 439 L54 700 L174 700 Z " />
<glyph glyph-name="Alphatonos" unicode="&#x386;" horiz-adv-x="637" d="M177 712 L115 539 L54 539 L63 712 L177 712 Z M318 612 Q313 588 306.5 565 Q300 542 293 520 L211 281 L424 281 L343 521 Q336 543 329.5 566 Q323 589 318 612 Z M406 700 L648 0 L516 0 L452 189 L183 189 L120 0 L-6 0 L237 700 L406 700 Z " />
<glyph glyph-name="Epsilontonos" unicode="&#x388;" horiz-adv-x="605" d="M83 0 L83 700 L555 700 L555 605 L204 605 L204 409 L495 409 L495 316 L204 316 L204 95 L562 95 L562 0 L83 0 Z M81 712 L19 539 L-42 539 L-33 712 L81 712 Z " />
<glyph glyph-name="Etatonos" unicode="&#x389;" horiz-adv-x="703" d="M80 712 L18 539 L-43 539 L-34 712 L80 712 Z M499 0 L499 315 L204 315 L204 0 L83 0 L83 700 L204 700 L204 410 L499 410 L499 700 L619 700 L619 0 L499 0 Z " />
<glyph glyph-name="Iotatonos" unicode="&#x38a;" horiz-adv-x="286" d="M80 712 L18 539 L-43 539 L-34 712 L80 712 Z M204 700 L204 0 L83 0 L83 700 L204 700 Z " />
<glyph glyph-name="Iotadieresis" unicode="&#x3aa;" horiz-adv-x="286" d="M196 751 L196 834 L279 834 L279 751 L196 751 Z M8 751 L8 834 L90 834 L90 751 L8 751 Z M83 0 L83 700 L204 700 L204 0 L83 0 Z " />
<glyph glyph-name="Omicrontonos" unicode="&#x38c;" horiz-adv-x="765" d="M383 710 Q459 710 520 682 Q581 654 623 605.5 Q665 557 687.5 491.5 Q710 426 710 350 Q710 274 687.5 208.5 Q665 143 623 94.5 Q581 46 520 18 Q459 -10 383 -10 Q306 -10 245 18 Q184 46 142 94.5 Q100 143 77.5 208.5 Q55 274 55 350 Q55 426 77.5 491.5 Q100 557 142 605.5 Q184 654 245 682 Q306 710 383 710 Z M383 604 Q332 604 295 585.5 Q258 567 233.5 533 Q209 499 197 452.5 Q185 406 185 350 Q185 294 197 247.5 Q209 201 233.5 167 Q258 133 295 114.5 Q332 96 383 96 Q433 96 470 114.5 Q507 133 531.5 167 Q556 201 568 247.5 Q580 294 580 350 Q580 406 568 452.5 Q556 499 531.5 533 Q507 567 470 585.5 Q433 604 383 604 Z M119 712 L57 539 L-4 539 L5 712 L119 712 Z " />
<glyph glyph-name="Upsilontonos" unicode="&#x38e;" horiz-adv-x="643" d="M262 0 L262 308 L12 673 L-36 539 L-97 539 L-88 712 L26 712 L21 700 L135 700 L326 410 L518 700 L650 700 L382 308 L382 0 L262 0 Z " />
<glyph glyph-name="Upsilondieresis" unicode="&#x3ab;" horiz-adv-x="643" d="M374 751 L374 834 L457 834 L457 751 L374 751 Z M186 751 L186 834 L268 834 L268 751 L186 751 Z M262 0 L262 308 L-6 700 L135 700 L326 410 L518 700 L650 700 L382 308 L382 0 L262 0 Z " />
<glyph glyph-name="Omegatonos" unicode="&#x38f;" horiz-adv-x="766" d="M110 712 L48 539 L-13 539 L-4 712 L110 712 Z M383 710 Q459 710 519.5 685 Q580 660 622 614.5 Q664 569 686.5 506 Q709 443 709 367 Q709 324 700 282 Q691 240 674 203.5 Q657 167 632 138.5 Q607 110 576 95 L751 95 L751 0 L436 0 L436 103 Q511 123 545 186.5 Q579 250 579 358 Q579 413 567 458.5 Q555 504 530.5 536.5 Q506 569 469 586.5 Q432 604 383 604 Q333 604 296.5 586.5 Q260 569 235 536.5 Q210 504 198 458.5 Q186 413 186 358 Q186 250 220 186.5 Q254 123 330 103 L330 0 L16 0 L16 95 L189 95 Q157 110 132.5 138.5 Q108 167 91 203.5 Q74 240 65 282 Q56 324 56 367 Q56 443 78.5 506 Q101 569 143 614.5 Q185 660 245.5 685 Q306 710 383 710 Z " />
<glyph glyph-name="alpha" unicode="&#x3b1;" horiz-adv-x="591" d="M262 417 Q206 417 180.5 372.5 Q155 328 155 250 Q155 172 180.5 127.5 Q206 83 262 83 Q290 83 310.5 96.5 Q331 110 345.5 132.5 Q360 155 370.5 185 Q381 215 389 248 Q359 417 262 417 Z M238 510 Q281 510 310.5 498 Q340 486 360.5 466 Q381 446 394.5 420 Q408 394 419 365 L446 500 L556 500 L494 230 Q501 161 513 125.5 Q525 90 551 90 Q555 90 561.5 90.5 Q568 91 574 92 L574 1 Q559 -2 544 -3.5 Q529 -5 517 -5 Q464 -5 441 28 Q418 61 407 117 Q383 53 343 22 Q303 -9 237 -9 Q187 -9 149.5 9.5 Q112 28 87 62 Q62 96 49.5 144 Q37 192 37 250 Q37 308 51 356 Q65 404 91 438 Q117 472 154 491 Q191 510 238 510 Z " />
<glyph glyph-name="beta" unicode="&#x3b2;" horiz-adv-x="567" d="M183 95 Q226 87 279 87 Q315 87 340 96.5 Q365 106 380 122 Q395 138 401.5 159 Q408 180 408 204 Q408 267 369 294 Q330 321 242 321 L242 410 Q286 410 314.5 417 Q343 424 359.5 437.5 Q376 451 382 471 Q388 491 388 518 Q388 560 365.5 587 Q343 614 286 614 Q231 614 207 588.5 Q183 563 183 516 L183 95 Z M290 710 Q336 710 375.5 698.5 Q415 687 443.5 664.5 Q472 642 488 610 Q504 578 504 537 Q504 464 463.5 424.5 Q423 385 348 374 Q434 363 482 320 Q530 277 530 196 Q530 156 514 119.5 Q498 83 467 55.5 Q436 28 390 11.5 Q344 -5 285 -5 Q258 -5 231.5 -2.5 Q205 0 183 4 L183 -200 L72 -200 L72 522 Q72 566 88.5 601 Q105 636 134.5 660 Q164 684 203.5 697 Q243 710 290 710 Z " />
<glyph glyph-name="gamma" unicode="&#x3b3;" horiz-adv-x="483" d="M115 512 Q126 486 138.5 451 Q151 416 163.5 377.5 Q176 339 188.5 299 Q201 259 212 222 Q223 185 231 154 Q239 123 244 103 Q258 140 276 190.5 Q294 241 312.5 296 Q331 351 347 404.5 Q363 458 374 500 L484 500 Q466 437 443.5 369.5 Q421 302 396.5 234.5 Q372 167 346.5 102.5 Q321 38 297 -17 L304 -200 L171 -200 L181 -11 Q165 42 142.5 109.5 Q120 177 95.5 246 Q71 315 45.5 379 Q20 443 -1 488 L115 512 Z " />
<glyph glyph-name="delta" unicode="&#x3b4;" horiz-adv-x="532" d="M274 707 Q316 707 364 703.5 Q412 700 455 692 L455 597 Q412 605 363.5 610.5 Q315 616 277 616 Q234 616 209 605.5 Q184 595 184 564 Q184 549 194.5 538 Q205 527 223 519.5 Q241 512 263.5 506.5 Q286 501 310 496 Q348 488 381.5 469.5 Q415 451 440.5 420.5 Q466 390 480.5 345.5 Q495 301 495 242 Q495 184 479 137.5 Q463 91 433.5 58 Q404 25 362 7.5 Q320 -10 268 -10 Q215 -10 172.5 6 Q130 22 100 53.5 Q70 85 53.5 130 Q37 175 37 234 Q37 280 50.5 319 Q64 358 87.5 386.5 Q111 415 143 431.5 Q175 448 212 451 Q148 461 109 490 Q70 519 70 571 Q70 637 122.5 672 Q175 707 274 707 Z M266 398 Q212 398 180.5 357.5 Q149 317 149 238 Q149 162 178.5 121.5 Q208 81 265 81 Q322 81 352.5 121.5 Q383 162 383 238 Q383 313 354.5 355.5 Q326 398 266 398 Z " />
<glyph glyph-name="epsilon" unicode="&#x3b5;" horiz-adv-x="498" d="M246 510 Q337 510 392.5 469 Q448 428 455 358 L343 358 Q338 394 317 412 Q296 430 249 430 Q202 430 184 411.5 Q166 393 166 364 Q166 326 193 308.5 Q220 291 283 291 L283 218 Q215 218 186.5 198.5 Q158 179 158 139 Q158 110 177.5 90 Q197 70 248 70 Q295 70 319 89 Q343 108 349 146 L462 146 Q459 111 441.5 82 Q424 53 395.5 32.5 Q367 12 330 1 Q293 -10 250 -10 Q149 -10 94 28.5 Q39 67 39 131 Q39 185 74.5 217 Q110 249 173 256 Q116 265 81.5 294 Q47 323 47 374 Q47 433 97 471.5 Q147 510 246 510 Z " />
<glyph glyph-name="zeta" unicode="&#x3b6;" horiz-adv-x="455" d="M444 700 L444 606 L234 339 Q207 303 194 273.5 Q181 244 181 215 Q181 189 196.5 171 Q212 153 235 138 Q258 123 285.5 109 Q313 95 336 77 Q359 59 374.5 35 Q390 11 390 -24 Q390 -49 377.5 -75.5 Q365 -102 342.5 -126.5 Q320 -151 290 -173 Q260 -195 225 -211 L174 -132 Q219 -109 242 -81 Q265 -53 265 -30 Q265 -9 249.5 6 Q234 21 211 34 Q188 47 160.5 61 Q133 75 110 94 Q87 113 71.5 139.5 Q56 166 56 204 Q56 224 60 244 Q64 264 74 285.5 Q84 307 100.5 331.5 Q117 356 141 385 L304 606 L12 606 L12 700 L444 700 Z " />
<glyph glyph-name="eta" unicode="&#x3b7;" horiz-adv-x="560" d="M183 500 L183 415 Q203 457 239.5 483.5 Q276 510 336 510 Q414 510 452 463 Q490 416 490 331 L490 -200 L379 -200 L379 309 Q379 360 360.5 387 Q342 414 294 414 Q247 414 215 380 Q183 346 183 272 L183 0 L72 0 L72 500 L183 500 Z " />
<glyph glyph-name="theta" unicode="&#x3b8;" horiz-adv-x="570" d="M285 617 Q250 617 225 601 Q200 585 183.5 556 Q167 527 158.5 487 Q150 447 149 398 L421 398 Q419 447 410.5 487 Q402 527 385.5 556 Q369 585 344 601 Q319 617 285 617 Z M285 83 Q321 83 346.5 100 Q372 117 388.5 148.5 Q405 180 413 224 Q421 268 421 322 L149 322 Q149 268 157 224 Q165 180 181.5 148.5 Q198 117 223.5 100 Q249 83 285 83 Z M285 710 Q341 710 386.5 687.5 Q432 665 464.5 620 Q497 575 514.5 507.5 Q532 440 532 350 Q532 260 514.5 192.5 Q497 125 464.5 80 Q432 35 386.5 12.5 Q341 -10 285 -10 Q229 -10 183 12.5 Q137 35 105 80 Q73 125 55.5 192.5 Q38 260 38 350 Q38 440 55.5 507.5 Q73 575 105 620 Q137 665 183 687.5 Q229 710 285 710 Z " />
<glyph glyph-name="iota" unicode="&#x3b9;" horiz-adv-x="267" d="M183 500 L183 146 Q183 89 230 89 Q235 89 241 89.5 Q247 90 253 91 L253 -1 Q238 -3 223 -4.5 Q208 -6 194 -6 Q135 -6 103.5 18 Q72 42 72 100 L72 500 L183 500 Z " />
<glyph glyph-name="kappa" unicode="&#x3ba;" horiz-adv-x="525" d="M503 500 L311 276 L519 0 L390 0 L190 272 L377 500 L503 500 Z M183 500 L183 0 L72 0 L72 500 L183 500 Z " />
<glyph glyph-name="lambda" unicode="&#x3bb;" horiz-adv-x="483" d="M45 710 Q91 710 128 705 Q165 700 195.5 682 Q226 664 250 629.5 Q274 595 294 536 L483 12 L369 -12 L256 328 Q250 345 245 366 Q240 387 238 401 Q236 387 231 366 Q226 345 220 328 L110 0 L-1 0 L174 510 L155 553 Q140 587 115.5 600 Q91 613 45 613 L45 710 Z " />
<glyph glyph-name="nu" unicode="&#x3bd;" horiz-adv-x="483" d="M115 512 Q136 461 155 404 Q174 347 190.5 292 Q207 237 221 189.5 Q235 142 244 110 Q258 146 275 194 Q292 242 309 294.5 Q326 347 343 400 Q360 453 374 500 L484 500 Q442 375 394.5 247 Q347 119 301 0 L177 0 Q160 57 139.5 120.5 Q119 184 95.5 248 Q72 312 47.5 373.5 Q23 435 -1 488 L115 512 Z " />
<glyph glyph-name="xi" unicode="&#x3be;" horiz-adv-x="452" d="M440 700 L440 614 Q327 550 265 499 Q203 448 203 403 Q203 367 247 350.5 Q291 334 370 334 L370 252 Q328 252 295 243.5 Q262 235 239 220.5 Q216 206 204 188.5 Q192 171 192 153 Q192 134 206.5 120 Q221 106 243.5 93 Q266 80 291.5 67 Q317 54 339.5 38 Q362 22 376.5 1 Q391 -20 391 -49 Q391 -70 379 -93 Q367 -116 345.5 -139 Q324 -162 293 -182 Q262 -202 224 -217 L184 -142 Q226 -122 244 -100.5 Q262 -79 262 -60 Q262 -39 247.5 -24.5 Q233 -10 211 2 Q189 14 163.5 26 Q138 38 116 54 Q94 70 79.5 92 Q65 114 65 146 Q65 170 78 194 Q91 218 111.5 238 Q132 258 158 273 Q184 288 211 294 Q188 298 163 305 Q138 312 117 324 Q96 336 82 353 Q68 370 68 393 Q68 420 84.5 447.5 Q101 475 130.5 502.5 Q160 530 201 556.5 Q242 583 291 609 L11 609 L11 700 L440 700 Z " />
<glyph glyph-name="omicron" unicode="&#x3bf;" horiz-adv-x="537" d="M269 510 Q321 510 363.5 492 Q406 474 436.5 440.5 Q467 407 483.5 359 Q500 311 500 251 Q500 190 483.5 141.5 Q467 93 436.5 59.5 Q406 26 363.5 8 Q321 -10 269 -10 Q217 -10 174 8 Q131 26 100.5 59.5 Q70 93 53.5 141.5 Q37 190 37 251 Q37 311 53.5 359 Q70 407 100.5 440.5 Q131 474 174 492 Q217 510 269 510 Z M269 418 Q209 418 179 374 Q149 330 149 251 Q149 170 179 126 Q209 82 269 82 Q328 82 358 126 Q388 170 388 251 Q388 330 358 374 Q328 418 269 418 Z " />
<glyph glyph-name="rho" unicode="&#x3c1;" horiz-adv-x="566" d="M294 418 Q236 418 206.5 375 Q177 332 177 247 Q177 213 183.5 183 Q190 153 204 130.5 Q218 108 240.5 95 Q263 82 296 82 Q356 82 383.5 127 Q411 172 411 250 Q411 328 382.5 373 Q354 418 294 418 Z M296 510 Q352 510 395.5 491.5 Q439 473 468.5 439 Q498 405 513.5 357 Q529 309 529 250 Q529 192 514 144 Q499 96 472 62 Q445 28 406.5 9 Q368 -10 322 -10 Q264 -10 229 18.5 Q194 47 177 93 L177 -200 L66 -200 L66 246 Q66 371 123 440.5 Q180 510 296 510 Z " />
<glyph glyph-name="sigma" unicode="&#x3c3;" horiz-adv-x="562" d="M269 418 Q209 418 179 373.5 Q149 329 149 251 Q149 171 179 126.5 Q209 82 269 82 Q328 82 358 126.5 Q388 171 388 251 Q388 329 358 373.5 Q328 418 269 418 Z M269 510 Q303 510 333.5 508.5 Q364 507 395.5 505 Q427 503 461.5 501.5 Q496 500 539 500 L539 415 Q533 415 516 415.5 Q499 416 479 416.5 Q459 417 440.5 417.5 Q422 418 414 419 Q451 400 475.5 352.5 Q500 305 500 239 Q500 181 483.5 135 Q467 89 436.5 56.5 Q406 24 363.5 7 Q321 -10 269 -10 Q217 -10 174 7.5 Q131 25 100.5 58.5 Q70 92 53.5 140.5 Q37 189 37 251 Q37 312 53.5 360 Q70 408 100.5 441.5 Q131 475 174 492.5 Q217 510 269 510 Z " />
<glyph glyph-name="sigma1" unicode="&#x3c2;" horiz-adv-x="482" d="M255 510 Q310 510 349 495.5 Q388 481 414.5 456.5 Q441 432 454.5 399.5 Q468 367 472 331 L369 331 Q366 347 359.5 362.5 Q353 378 340 390 Q327 402 308 409 Q289 416 261 416 Q232 416 211 405 Q190 394 176.5 375.5 Q163 357 157 332.5 Q151 308 151 281 Q151 228 170.5 195 Q190 162 219 140.5 Q248 119 281.5 104 Q315 89 344 71.5 Q373 54 392.5 29.5 Q412 5 412 -37 Q412 -62 399 -87 Q386 -112 363.5 -135.5 Q341 -159 311 -180 Q281 -201 246 -217 L198 -139 Q243 -116 267.5 -90 Q292 -64 292 -39 Q292 -19 273.5 -7 Q255 5 227 17.5 Q199 30 167 46 Q135 62 107 90.5 Q79 119 60.5 162.5 Q42 206 42 273 Q42 322 55.5 365 Q69 408 96 440.5 Q123 473 163 491.5 Q203 510 255 510 Z " />
<glyph glyph-name="tau" unicode="&#x3c4;" horiz-adv-x="466" d="M454 500 L454 417 L283 417 L283 146 Q283 117 294 103 Q305 89 331 89 Q335 89 341.5 89.5 Q348 90 354 91 L354 -1 Q339 -3 322 -4.5 Q305 -6 292 -6 Q238 -6 205 18 Q172 42 172 100 L172 417 L11 417 L11 500 L454 500 Z " />
<glyph glyph-name="upsilon" unicode="&#x3c5;" horiz-adv-x="573" d="M76 510 Q130 510 163 486 Q196 462 196 404 L196 191 Q196 140 220 113 Q244 86 294 86 Q344 86 367.5 113 Q391 140 391 191 L391 500 L502 500 L502 180 Q502 96 449 43 Q396 -10 294 -10 Q191 -10 138 43 Q85 96 85 180 L85 358 Q85 415 38 415 Q33 415 26.5 414.5 Q20 414 14 413 L14 504 Q29 507 46 508.5 Q63 510 76 510 Z " />
<glyph glyph-name="phi" unicode="&#x3c6;" horiz-adv-x="757" d="M149 251 Q149 217 160 186.5 Q171 156 193 133.5 Q215 111 247.5 97.5 Q280 84 322 83 L322 417 Q280 416 247.5 402.5 Q215 389 193 366.5 Q171 344 160 314 Q149 284 149 251 Z M608 251 Q608 284 596.5 314 Q585 344 563 366.5 Q541 389 508.5 403 Q476 417 433 418 L433 82 Q476 83 508.5 96.5 Q541 110 563 133 Q585 156 596.5 186 Q608 216 608 251 Z M433 700 L433 507 Q572 497 648 430 Q724 363 724 251 Q724 137 648 70 Q572 3 433 -7 L433 -200 L322 -200 L322 -7 Q182 3 107.5 70 Q33 137 33 251 Q33 363 107.5 430 Q182 497 322 507 L322 700 L433 700 Z " />
<glyph glyph-name="chi" unicode="&#x3c7;" horiz-adv-x="517" d="M146 500 L237 307 Q242 293 248 274.5 Q254 256 258 243 Q263 256 269 275 Q275 294 280 308 L370 500 L492 500 L318 163 L510 -200 L374 -200 L278 2 Q272 15 265.5 35 Q259 55 254 70 Q249 56 243 36 Q237 16 231 1 L135 -200 L7 -200 L195 155 L18 500 L146 500 Z " />
<glyph glyph-name="psi" unicode="&#x3c8;" horiz-adv-x="770" d="M440 700 L440 84 Q512 92 550.5 125 Q589 158 589 227 L589 500 L700 500 L700 225 Q700 170 681.5 129 Q663 88 629 59.5 Q595 31 547 15 Q499 -1 440 -6 L440 -200 L330 -200 L330 -6 Q271 -1 223 15 Q175 31 141 59.5 Q107 88 88.5 129 Q70 170 70 225 L70 500 L181 500 L181 227 Q181 157 219 124.5 Q257 92 330 84 L330 700 L440 700 Z " />
<glyph glyph-name="omega" unicode="&#x3c9;" horiz-adv-x="762" d="M265 423 Q204 422 176 378.5 Q148 335 148 250 Q148 162 175 123 Q202 84 241 84 Q259 84 275 89 Q291 94 304 106.5 Q317 119 324.5 139 Q332 159 332 189 L324 363 L438 363 L430 189 Q430 159 437.5 139 Q445 119 458 106.5 Q471 94 487 89 Q503 84 521 84 Q560 84 587 123 Q614 162 614 250 Q614 335 586 378.5 Q558 422 497 423 L497 510 Q557 508 600 488 Q643 468 671 434 Q699 400 712 353 Q725 306 725 250 Q725 123 677.5 56.5 Q630 -10 532 -10 Q481 -10 439.5 16 Q398 42 381 93 Q364 42 322.5 16 Q281 -10 230 -10 Q132 -10 84.5 56.5 Q37 123 37 250 Q37 306 50 353 Q63 400 91 434 Q119 468 162 488 Q205 508 265 510 L265 423 Z " />
<glyph glyph-name="alphatonos" unicode="&#x3ac;" horiz-adv-x="591" d="M397 712 L335 539 L274 539 L283 712 L397 712 Z M262 417 Q206 417 180.5 372.5 Q155 328 155 250 Q155 172 180.5 127.5 Q206 83 262 83 Q290 83 310.5 96.5 Q331 110 345.5 132.5 Q360 155 370.5 185 Q381 215 389 248 Q359 417 262 417 Z M238 510 Q281 510 310.5 498 Q340 486 360.5 466 Q381 446 394.5 420 Q408 394 419 365 L446 500 L556 500 L494 230 Q501 161 513 125.5 Q525 90 551 90 Q555 90 561.5 90.5 Q568 91 574 92 L574 1 Q559 -2 544 -3.5 Q529 -5 517 -5 Q464 -5 441 28 Q418 61 407 117 Q383 53 343 22 Q303 -9 237 -9 Q187 -9 149.5 9.5 Q112 28 87 62 Q62 96 49.5 144 Q37 192 37 250 Q37 308 51 356 Q65 404 91 438 Q117 472 154 491 Q191 510 238 510 Z " />
<glyph glyph-name="epsilontonos" unicode="&#x3ad;" horiz-adv-x="498" d="M246 510 Q337 510 392.5 469 Q448 428 455 358 L343 358 Q338 394 317 412 Q296 430 249 430 Q202 430 184 411.5 Q166 393 166 364 Q166 326 193 308.5 Q220 291 283 291 L283 218 Q215 218 186.5 198.5 Q158 179 158 139 Q158 110 177.5 90 Q197 70 248 70 Q295 70 319 89 Q343 108 349 146 L462 146 Q459 111 441.5 82 Q424 53 395.5 32.5 Q367 12 330 1 Q293 -10 250 -10 Q149 -10 94 28.5 Q39 67 39 131 Q39 185 74.5 217 Q110 249 173 256 Q116 265 81.5 294 Q47 323 47 374 Q47 433 97 471.5 Q147 510 246 510 Z M335 712 L273 539 L212 539 L221 712 L335 712 Z " />
<glyph glyph-name="etatonos" unicode="&#x3ae;" horiz-adv-x="560" d="M366 712 L304 539 L243 539 L252 712 L366 712 Z M183 500 L183 415 Q203 457 239.5 483.5 Q276 510 336 510 Q414 510 452 463 Q490 416 490 331 L490 -200 L379 -200 L379 309 Q379 360 360.5 387 Q342 414 294 414 Q247 414 215 380 Q183 346 183 272 L183 0 L72 0 L72 500 L183 500 Z " />
<glyph glyph-name="iotatonos" unicode="&#x3af;" horiz-adv-x="267" d="M207 712 L145 539 L84 539 L93 712 L207 712 Z M183 500 L183 146 Q183 89 230 89 Q235 89 241 89.5 Q247 90 253 91 L253 -1 Q238 -3 223 -4.5 Q208 -6 194 -6 Q135 -6 103.5 18 Q72 42 72 100 L72 500 L183 500 Z " />
<glyph glyph-name="iotadieresis" unicode="&#x3ca;" horiz-adv-x="267" d="M175 584 L175 671 L258 671 L258 584 L175 584 Z M-2 584 L-2 671 L81 671 L81 584 L-2 584 Z M183 500 L183 146 Q183 89 230 89 Q235 89 241 89.5 Q247 90 253 91 L253 -1 Q238 -3 223 -4.5 Q208 -6 194 -6 Q135 -6 103.5 18 Q72 42 72 100 L72 500 L183 500 Z " />
<glyph glyph-name="iotadieresistonos" unicode="&#x390;" horiz-adv-x="267" d="M101 546 L83 721 L171 721 L152 546 L101 546 Z M201 582 L201 667 L276 667 L276 582 L201 582 Z M-24 582 L-24 667 L50 667 L50 582 L-24 582 Z M183 500 L183 146 Q183 89 230 89 Q235 89 241 89.5 Q247 90 253 91 L253 -1 Q238 -3 223 -4.5 Q208 -6 194 -6 Q135 -6 103.5 18 Q72 42 72 100 L72 500 L183 500 Z " />
<glyph glyph-name="omicrontonos" unicode="&#x3cc;" horiz-adv-x="537" d="M269 510 Q321 510 363.5 492 Q406 474 436.5 440.5 Q467 407 483.5 359 Q500 311 500 251 Q500 190 483.5 141.5 Q467 93 436.5 59.5 Q406 26 363.5 8 Q321 -10 269 -10 Q217 -10 174 8 Q131 26 100.5 59.5 Q70 93 53.5 141.5 Q37 190 37 251 Q37 311 53.5 359 Q70 407 100.5 440.5 Q131 474 174 492 Q217 510 269 510 Z M269 418 Q209 418 179 374 Q149 330 149 251 Q149 170 179 126 Q209 82 269 82 Q328 82 358 126 Q388 170 388 251 Q388 330 358 374 Q328 418 269 418 Z M352 712 L290 539 L229 539 L238 712 L352 712 Z " />
<glyph glyph-name="upsilontonos" unicode="&#x3cd;" horiz-adv-x="573" d="M76 510 Q130 510 163 486 Q196 462 196 404 L196 191 Q196 140 220 113 Q244 86 294 86 Q344 86 367.5 113 Q391 140 391 191 L391 500 L502 500 L502 180 Q502 96 449 43 Q396 -10 294 -10 Q191 -10 138 43 Q85 96 85 180 L85 358 Q85 415 38 415 Q33 415 26.5 414.5 Q20 414 14 413 L14 504 Q29 507 46 508.5 Q63 510 76 510 Z M371 712 L309 539 L248 539 L257 712 L371 712 Z " />
<glyph glyph-name="upsilondieresistonos" unicode="&#x3b0;" horiz-adv-x="573" d="M267 546 L249 721 L337 721 L318 546 L267 546 Z M367 582 L367 667 L442 667 L442 582 L367 582 Z M142 582 L142 667 L216 667 L216 582 L142 582 Z M76 510 Q130 510 163 486 Q196 462 196 404 L196 191 Q196 140 220 113 Q244 86 294 86 Q344 86 367.5 113 Q391 140 391 191 L391 500 L502 500 L502 180 Q502 96 449 43 Q396 -10 294 -10 Q191 -10 138 43 Q85 96 85 180 L85 358 Q85 415 38 415 Q33 415 26.5 414.5 Q20 414 14 413 L14 504 Q29 507 46 508.5 Q63 510 76 510 Z " />
<glyph glyph-name="upsilondieresis" unicode="&#x3cb;" horiz-adv-x="573" d="M335 584 L335 671 L418 671 L418 584 L335 584 Z M158 584 L158 671 L241 671 L241 584 L158 584 Z M76 510 Q130 510 163 486 Q196 462 196 404 L196 191 Q196 140 220 113 Q244 86 294 86 Q344 86 367.5 113 Q391 140 391 191 L391 500 L502 500 L502 180 Q502 96 449 43 Q396 -10 294 -10 Q191 -10 138 43 Q85 96 85 180 L85 358 Q85 415 38 415 Q33 415 26.5 414.5 Q20 414 14 413 L14 504 Q29 507 46 508.5 Q63 510 76 510 Z " />
<glyph glyph-name="omegatonos" unicode="&#x3ce;" horiz-adv-x="762" d="M465 712 L403 539 L342 539 L351 712 L465 712 Z M265 423 Q204 422 176 378.5 Q148 335 148 250 Q148 162 175 123 Q202 84 241 84 Q259 84 275 89 Q291 94 304 106.5 Q317 119 324.5 139 Q332 159 332 189 L324 363 L438 363 L430 189 Q430 159 437.5 139 Q445 119 458 106.5 Q471 94 487 89 Q503 84 521 84 Q560 84 587 123 Q614 162 614 250 Q614 335 586 378.5 Q558 422 497 423 L497 510 Q557 508 600 488 Q643 468 671 434 Q699 400 712 353 Q725 306 725 250 Q725 123 677.5 56.5 Q630 -10 532 -10 Q481 -10 439.5 16 Q398 42 381 93 Q364 42 322.5 16 Q281 -10 230 -10 Q132 -10 84.5 56.5 Q37 123 37 250 Q37 306 50 353 Q63 400 91 434 Q119 468 162 488 Q205 508 265 510 L265 423 Z " />
<glyph glyph-name="tonos" unicode="&#x384;" horiz-adv-x="231" d="M200 712 L138 539 L77 539 L86 712 L200 712 Z " />
<glyph glyph-name="dieresistonos" unicode="&#x385;" horiz-adv-x="391" d="M171 546 L153 721 L241 721 L222 546 L171 546 Z M271 582 L271 667 L346 667 L346 582 L271 582 Z M46 582 L46 667 L120 667 L120 582 L46 582 Z " />
<glyph glyph-name="anoteleia" unicode="&#x387;" horiz-adv-x="587" d="M350 368 L350 255 L237 255 L237 368 L350 368 Z " />
<glyph glyph-name="Abreve" unicode="&#x102;" horiz-adv-x="647" d="M252 851 Q252 822 270.5 805.5 Q289 789 322 789 Q359 789 376 807 Q393 825 393 851 L452 845 Q451 790 415 759 Q379 728 322 728 Q266 728 230 759 Q194 790 193 845 L252 851 Z M321 623 Q316 600 308 571 Q300 542 293 520 L211 281 L430 281 L349 521 Q341 543 333.5 571.5 Q326 600 321 623 Z M412 700 L654 0 L521 0 L458 189 L183 189 L120 0 L-6 0 L237 700 L412 700 Z " />
<glyph glyph-name="Amacron" unicode="&#x100;" horiz-adv-x="647" d="M194 744 L194 810 L452 810 L452 744 L194 744 Z M321 623 Q316 600 308 571 Q300 542 293 520 L211 281 L430 281 L349 521 Q341 543 333.5 571.5 Q326 600 321 623 Z M412 700 L654 0 L521 0 L458 189 L183 189 L120 0 L-6 0 L237 700 L412 700 Z " />
<glyph glyph-name="Aogonek" unicode="&#x104;" horiz-adv-x="647" d="M321 623 Q316 600 308 571 Q300 542 293 520 L211 281 L430 281 L349 521 Q341 543 333.5 571.5 Q326 600 321 623 Z M521 0 L458 189 L183 189 L120 0 L-6 0 L237 700 L412 700 L654 0 L619 0 Q594 -19 579.5 -45.5 Q565 -72 565 -98 Q565 -121 578.5 -133.5 Q592 -146 617 -146 Q628 -146 640 -143 L640 -213 Q623 -217 598 -217 Q544 -217 512 -191 Q480 -165 480 -123 Q480 -88 501 -56 Q522 -24 560 0 L521 0 Z " />
<glyph glyph-name="Cacute" unicode="&#x106;" horiz-adv-x="705" d="M525 865 L375 724 L304 724 L421 877 L525 865 Z M675 217 Q669 167 645.5 125 Q622 83 584.5 53 Q547 23 496 6.5 Q445 -10 384 -10 Q307 -10 246 18 Q185 46 142.5 94.5 Q100 143 77.5 208.5 Q55 274 55 350 Q55 426 77.5 491.5 Q100 557 142.5 605.5 Q185 654 246 682 Q307 710 384 710 Q445 710 496 693.5 Q547 677 584.5 647 Q622 617 645.5 575 Q669 533 675 483 L552 483 Q541 539 498 571.5 Q455 604 384 604 Q333 604 296 585.5 Q259 567 234 533 Q209 499 197 452.5 Q185 406 185 350 Q185 294 197 247.5 Q209 201 234 167 Q259 133 296 114.5 Q333 96 384 96 Q455 96 498 128.5 Q541 161 552 217 L675 217 Z " />
<glyph glyph-name="Ccaron" unicode="&#x10c;" horiz-adv-x="705" d="M292 877 L389 791 L486 877 L557 865 L434 724 L344 724 L221 865 L292 877 Z M675 217 Q669 167 645.5 125 Q622 83 584.5 53 Q547 23 496 6.5 Q445 -10 384 -10 Q307 -10 246 18 Q185 46 142.5 94.5 Q100 143 77.5 208.5 Q55 274 55 350 Q55 426 77.5 491.5 Q100 557 142.5 605.5 Q185 654 246 682 Q307 710 384 710 Q445 710 496 693.5 Q547 677 584.5 647 Q622 617 645.5 575 Q669 533 675 483 L552 483 Q541 539 498 571.5 Q455 604 384 604 Q333 604 296 585.5 Q259 567 234 533 Q209 499 197 452.5 Q185 406 185 350 Q185 294 197 247.5 Q209 201 234 167 Q259 133 296 114.5 Q333 96 384 96 Q455 96 498 128.5 Q541 161 552 217 L675 217 Z " />
<glyph glyph-name="Ccircumflex" unicode="&#x108;" horiz-adv-x="705" d="M483 724 L387 811 L289 724 L218 737 L341 877 L431 877 L554 737 L483 724 Z M675 217 Q669 167 645.5 125 Q622 83 584.5 53 Q547 23 496 6.5 Q445 -10 384 -10 Q307 -10 246 18 Q185 46 142.5 94.5 Q100 143 77.5 208.5 Q55 274 55 350 Q55 426 77.5 491.5 Q100 557 142.5 605.5 Q185 654 246 682 Q307 710 384 710 Q445 710 496 693.5 Q547 677 584.5 647 Q622 617 645.5 575 Q669 533 675 483 L552 483 Q541 539 498 571.5 Q455 604 384 604 Q333 604 296 585.5 Q259 567 234 533 Q209 499 197 452.5 Q185 406 185 350 Q185 294 197 247.5 Q209 201 234 167 Q259 133 296 114.5 Q333 96 384 96 Q455 96 498 128.5 Q541 161 552 217 L675 217 Z " />
<glyph glyph-name="Cdotaccent" unicode="&#x10a;" horiz-adv-x="705" d="M336 751 L336 839 L441 839 L441 751 L336 751 Z M675 217 Q669 167 645.5 125 Q622 83 584.5 53 Q547 23 496 6.5 Q445 -10 384 -10 Q307 -10 246 18 Q185 46 142.5 94.5 Q100 143 77.5 208.5 Q55 274 55 350 Q55 426 77.5 491.5 Q100 557 142.5 605.5 Q185 654 246 682 Q307 710 384 710 Q445 710 496 693.5 Q547 677 584.5 647 Q622 617 645.5 575 Q669 533 675 483 L552 483 Q541 539 498 571.5 Q455 604 384 604 Q333 604 296 585.5 Q259 567 234 533 Q209 499 197 452.5 Q185 406 185 350 Q185 294 197 247.5 Q209 201 234 167 Q259 133 296 114.5 Q333 96 384 96 Q455 96 498 128.5 Q541 161 552 217 L675 217 Z " />
<glyph glyph-name="Dcroat" unicode="&#x110;" horiz-adv-x="731" d="M356 95 Q551 95 551 351 Q551 480 501 542.5 Q451 605 353 605 L204 605 L204 404 L288 404 L288 332 L204 332 L204 95 L356 95 Z M83 0 L83 332 L30 332 L30 404 L83 404 L83 700 L377 700 Q446 700 501.5 676 Q557 652 596 607 Q635 562 656 498 Q677 434 677 353 Q677 273 657 207.5 Q637 142 599 96 Q561 50 506 25 Q451 0 382 0 L83 0 Z " />
<glyph glyph-name="Dcaron" unicode="&#x10e;" horiz-adv-x="731" d="M236 877 L333 791 L430 877 L501 865 L378 724 L288 724 L165 865 L236 877 Z M356 95 Q551 95 551 351 Q551 480 501 542.5 Q451 605 353 605 L204 605 L204 95 L356 95 Z M83 0 L83 700 L377 700 Q446 700 501.5 676 Q557 652 596 607 Q635 562 656 498 Q677 434 677 353 Q677 273 657 207.5 Q637 142 599 96 Q561 50 506 25 Q451 0 382 0 L83 0 Z " />
<glyph glyph-name="Ebreve" unicode="&#x114;" horiz-adv-x="605" d="M260 851 Q260 822 278.5 805.5 Q297 789 330 789 Q367 789 384 807 Q401 825 401 851 L460 845 Q459 790 423 759 Q387 728 330 728 Q274 728 238 759 Q202 790 201 845 L260 851 Z M83 0 L83 700 L555 700 L555 605 L204 605 L204 409 L495 409 L495 316 L204 316 L204 95 L562 95 L562 0 L83 0 Z " />
<glyph glyph-name="Ecaron" unicode="&#x11a;" horiz-adv-x="605" d="M238 877 L335 791 L432 877 L503 865 L380 724 L290 724 L167 865 L238 877 Z M83 0 L83 700 L555 700 L555 605 L204 605 L204 409 L495 409 L495 316 L204 316 L204 95 L562 95 L562 0 L83 0 Z " />
<glyph glyph-name="Edotaccent" unicode="&#x116;" horiz-adv-x="605" d="M275 751 L275 839 L380 839 L380 751 L275 751 Z M83 0 L83 700 L555 700 L555 605 L204 605 L204 409 L495 409 L495 316 L204 316 L204 95 L562 95 L562 0 L83 0 Z " />
<glyph glyph-name="Emacron" unicode="&#x112;" horiz-adv-x="605" d="M197 744 L197 810 L455 810 L455 744 L197 744 Z M83 0 L83 700 L555 700 L555 605 L204 605 L204 409 L495 409 L495 316 L204 316 L204 95 L562 95 L562 0 L83 0 Z " />
<glyph glyph-name="Eogonek" unicode="&#x118;" horiz-adv-x="605" d="M83 0 L83 700 L555 700 L555 605 L204 605 L204 409 L495 409 L495 316 L204 316 L204 95 L562 95 L562 0 L526 0 Q501 -19 486.5 -45.5 Q472 -72 472 -98 Q472 -121 485.5 -133.5 Q499 -146 524 -146 Q535 -146 547 -143 L547 -213 Q530 -217 505 -217 Q451 -217 419 -191 Q387 -165 387 -123 Q387 -88 408 -56 Q429 -24 467 0 L83 0 Z " />
<glyph glyph-name="Gbreve" unicode="&#x11e;" horiz-adv-x="762" d="M315 851 Q315 822 333.5 805.5 Q352 789 385 789 Q422 789 439 807 Q456 825 456 851 L515 845 Q514 790 478 759 Q442 728 385 728 Q329 728 293 759 Q257 790 256 845 L315 851 Z M386 710 Q447 710 497 693.5 Q547 677 584.5 647 Q622 617 645.5 575.5 Q669 534 675 484 L552 484 Q541 540 498.5 572 Q456 604 384 604 Q334 604 296.5 585.5 Q259 567 234 533 Q209 499 197 452.5 Q185 406 185 350 Q185 291 197 243.5 Q209 196 233 163 Q257 130 294 112 Q331 94 381 94 Q459 94 509 143 Q559 192 560 288 L373 288 L373 377 L680 377 L680 0 L566 0 L566 140 Q556 110 540 83 Q524 56 499 35.5 Q474 15 439 2.5 Q404 -10 356 -10 Q297 -10 242.5 14 Q188 38 146.5 83.5 Q105 129 80 196 Q55 263 55 350 Q55 426 78 491.5 Q101 557 143.5 605.5 Q186 654 247.5 682 Q309 710 386 710 Z " />
<glyph glyph-name="Gcircumflex" unicode="&#x11c;" horiz-adv-x="762" d="M480 724 L384 811 L286 724 L215 737 L338 877 L428 877 L551 737 L480 724 Z M386 710 Q447 710 497 693.5 Q547 677 584.5 647 Q622 617 645.5 575.5 Q669 534 675 484 L552 484 Q541 540 498.5 572 Q456 604 384 604 Q334 604 296.5 585.5 Q259 567 234 533 Q209 499 197 452.5 Q185 406 185 350 Q185 291 197 243.5 Q209 196 233 163 Q257 130 294 112 Q331 94 381 94 Q459 94 509 143 Q559 192 560 288 L373 288 L373 377 L680 377 L680 0 L566 0 L566 140 Q556 110 540 83 Q524 56 499 35.5 Q474 15 439 2.5 Q404 -10 356 -10 Q297 -10 242.5 14 Q188 38 146.5 83.5 Q105 129 80 196 Q55 263 55 350 Q55 426 78 491.5 Q101 557 143.5 605.5 Q186 654 247.5 682 Q309 710 386 710 Z " />
<glyph glyph-name="Gcommaaccent" unicode="&#x122;" horiz-adv-x="762" d="M431 -44 L431 -102 Q431 -151 404 -182.5 Q377 -214 336 -235 L320 -198 Q349 -185 362 -166 Q375 -147 375 -119 L333 -119 L333 -44 L431 -44 Z M386 710 Q447 710 497 693.5 Q547 677 584.5 647 Q622 617 645.5 575.5 Q669 534 675 484 L552 484 Q541 540 498.5 572 Q456 604 384 604 Q334 604 296.5 585.5 Q259 567 234 533 Q209 499 197 452.5 Q185 406 185 350 Q185 291 197 243.5 Q209 196 233 163 Q257 130 294 112 Q331 94 381 94 Q459 94 509 143 Q559 192 560 288 L373 288 L373 377 L680 377 L680 0 L566 0 L566 140 Q556 110 540 83 Q524 56 499 35.5 Q474 15 439 2.5 Q404 -10 356 -10 Q297 -10 242.5 14 Q188 38 146.5 83.5 Q105 129 80 196 Q55 263 55 350 Q55 426 78 491.5 Q101 557 143.5 605.5 Q186 654 247.5 682 Q309 710 386 710 Z " />
<glyph glyph-name="Gdotaccent" unicode="&#x120;" horiz-adv-x="762" d="M324 751 L324 839 L429 839 L429 751 L324 751 Z M386 710 Q447 710 497 693.5 Q547 677 584.5 647 Q622 617 645.5 575.5 Q669 534 675 484 L552 484 Q541 540 498.5 572 Q456 604 384 604 Q334 604 296.5 585.5 Q259 567 234 533 Q209 499 197 452.5 Q185 406 185 350 Q185 291 197 243.5 Q209 196 233 163 Q257 130 294 112 Q331 94 381 94 Q459 94 509 143 Q559 192 560 288 L373 288 L373 377 L680 377 L680 0 L566 0 L566 140 Q556 110 540 83 Q524 56 499 35.5 Q474 15 439 2.5 Q404 -10 356 -10 Q297 -10 242.5 14 Q188 38 146.5 83.5 Q105 129 80 196 Q55 263 55 350 Q55 426 78 491.5 Q101 557 143.5 605.5 Q186 654 247.5 682 Q309 710 386 710 Z " />
<glyph glyph-name="Hcircumflex" unicode="&#x124;" horiz-adv-x="703" d="M448 724 L352 811 L254 724 L183 737 L306 877 L396 877 L519 737 L448 724 Z M499 0 L499 315 L204 315 L204 0 L83 0 L83 700 L204 700 L204 410 L499 410 L499 700 L619 700 L619 0 L499 0 Z " />
<glyph glyph-name="Hbar" unicode="&#x126;" horiz-adv-x="703" d="M499 410 L499 528 L204 528 L204 410 L499 410 Z M499 0 L499 315 L204 315 L204 0 L83 0 L83 528 L30 528 L30 598 L83 598 L83 700 L204 700 L204 598 L499 598 L499 700 L619 700 L619 598 L672 598 L672 528 L619 528 L619 0 L499 0 Z " />
<glyph glyph-name="Ibreve" unicode="&#x12c;" horiz-adv-x="286" d="M73 851 Q73 822 91.5 805.5 Q110 789 143 789 Q180 789 197 807 Q214 825 214 851 L273 845 Q272 790 236 759 Q200 728 143 728 Q87 728 51 759 Q15 790 14 845 L73 851 Z M83 0 L83 700 L204 700 L204 0 L83 0 Z " />
<glyph glyph-name="Idotaccent" unicode="&#x130;" horiz-adv-x="286" d="M90 751 L90 839 L195 839 L195 751 L90 751 Z M83 0 L83 700 L204 700 L204 0 L83 0 Z " />
<glyph glyph-name="Imacron" unicode="&#x12a;" horiz-adv-x="286" d="M14 744 L14 810 L272 810 L272 744 L14 744 Z M83 0 L83 700 L204 700 L204 0 L83 0 Z " />
<glyph glyph-name="Iogonek" unicode="&#x12e;" horiz-adv-x="286" d="M83 0 L83 700 L204 700 L204 0 L194 0 Q169 -19 154.5 -45.5 Q140 -72 140 -98 Q140 -121 153.5 -133.5 Q167 -146 192 -146 Q203 -146 215 -143 L215 -213 Q198 -217 173 -217 Q119 -217 87 -191 Q55 -165 55 -123 Q55 -88 76 -56 Q97 -24 135 0 L83 0 Z " />
<glyph glyph-name="Itilde" unicode="&#x128;" horiz-adv-x="286" d="M76 850 Q100 850 119.5 841.5 Q139 833 154.5 823 Q170 813 183.5 804.5 Q197 796 211 796 Q227 796 237.5 804 Q248 812 252 836 L300 828 Q295 783 273 757.5 Q251 732 213 732 Q190 732 172 741 Q154 750 138 760.5 Q122 771 106.5 780 Q91 789 73 789 Q36 789 32 745 L-15 755 Q-11 800 11.5 825 Q34 850 76 850 Z M83 0 L83 700 L204 700 L204 0 L83 0 Z " />
<glyph glyph-name="Jcircumflex" unicode="&#x134;" horiz-adv-x="555" d="M508 724 L412 811 L314 724 L243 737 L366 877 L456 877 L579 737 L508 724 Z M475 700 L475 205 Q475 155 458 115 Q441 75 409.5 47.5 Q378 20 332.5 5 Q287 -10 231 -10 Q132 -10 72.5 44 Q13 98 1 186 L126 186 Q129 149 154.5 121 Q180 93 235 93 Q299 93 326.5 121.5 Q354 150 354 204 L354 700 L475 700 Z " />
<glyph glyph-name="Kcommaaccent" unicode="&#x136;" horiz-adv-x="654" d="M384 -44 L384 -102 Q384 -151 357 -182.5 Q330 -214 289 -235 L273 -198 Q302 -185 315 -166 Q328 -147 328 -119 L286 -119 L286 -44 L384 -44 Z M502 0 L211 367 L485 700 L626 700 L351 375 L648 0 L502 0 Z M83 0 L83 700 L204 700 L204 0 L83 0 Z " />
<glyph glyph-name="Lacute" unicode="&#x139;" horiz-adv-x="544" d="M323 865 L173 724 L102 724 L219 877 L323 865 Z M83 0 L83 700 L204 700 L204 95 L534 95 L534 0 L83 0 Z " />
<glyph glyph-name="Lcaron" unicode="&#x13d;" horiz-adv-x="544" d="M368 710 L323 555 L269 555 L271 710 L368 710 Z M83 0 L83 700 L204 700 L204 95 L534 95 L534 0 L83 0 Z " />
<glyph glyph-name="Lcommaaccent" unicode="&#x13b;" horiz-adv-x="544" d="M358 -44 L358 -102 Q358 -151 331 -182.5 Q304 -214 263 -235 L247 -198 Q276 -185 289 -166 Q302 -147 302 -119 L260 -119 L260 -44 L358 -44 Z M83 0 L83 700 L204 700 L204 95 L534 95 L534 0 L83 0 Z " />
<glyph glyph-name="Lslash" unicode="&#x141;" horiz-adv-x="544" d="M83 0 L83 203 L46 166 L-8 221 L83 312 L83 700 L204 700 L204 434 L293 523 L348 469 L204 324 L204 95 L534 95 L534 0 L83 0 Z " />
<glyph glyph-name="Nacute" unicode="&#x143;" horiz-adv-x="715" d="M506 865 L356 724 L285 724 L402 877 L506 865 Z M253 700 L490 218 Q497 204 505 181 Q513 158 518 136 Q516 153 515 181 Q514 209 514 226 L514 700 L632 700 L632 0 L476 0 L227 514 Q220 530 212.5 553.5 Q205 577 200 596 Q201 588 201.5 577 Q202 566 202.5 554 Q203 542 203.5 530.5 Q204 519 204 512 L204 0 L83 0 L83 700 L253 700 Z " />
<glyph glyph-name="Ncaron" unicode="&#x147;" horiz-adv-x="715" d="M257 877 L354 791 L451 877 L522 865 L399 724 L309 724 L186 865 L257 877 Z M253 700 L490 218 Q497 204 505 181 Q513 158 518 136 Q516 153 515 181 Q514 209 514 226 L514 700 L632 700 L632 0 L476 0 L227 514 Q220 530 212.5 553.5 Q205 577 200 596 Q201 588 201.5 577 Q202 566 202.5 554 Q203 542 203.5 530.5 Q204 519 204 512 L204 0 L83 0 L83 700 L253 700 Z " />
<glyph glyph-name="Ncommaaccent" unicode="&#x145;" horiz-adv-x="715" d="M421 -44 L421 -102 Q421 -151 394 -182.5 Q367 -214 326 -235 L310 -198 Q339 -185 352 -166 Q365 -147 365 -119 L323 -119 L323 -44 L421 -44 Z M253 700 L490 218 Q497 204 505 181 Q513 158 518 136 Q516 153 515 181 Q514 209 514 226 L514 700 L632 700 L632 0 L476 0 L227 514 Q220 530 212.5 553.5 Q205 577 200 596 Q201 588 201.5 577 Q202 566 202.5 554 Q203 542 203.5 530.5 Q204 519 204 512 L204 0 L83 0 L83 700 L253 700 Z " />
<glyph glyph-name="Obreve" unicode="&#x14e;" horiz-adv-x="765" d="M311 851 Q311 822 329.5 805.5 Q348 789 381 789 Q418 789 435 807 Q452 825 452 851 L511 845 Q510 790 474 759 Q438 728 381 728 Q325 728 289 759 Q253 790 252 845 L311 851 Z M383 710 Q459 710 520 682 Q581 654 623 605.5 Q665 557 687.5 491.5 Q710 426 710 350 Q710 274 687.5 208.5 Q665 143 623 94.5 Q581 46 520 18 Q459 -10 383 -10 Q306 -10 245 18 Q184 46 142 94.5 Q100 143 77.5 208.5 Q55 274 55 350 Q55 426 77.5 491.5 Q100 557 142 605.5 Q184 654 245 682 Q306 710 383 710 Z M383 604 Q332 604 295 585.5 Q258 567 233.5 533 Q209 499 197 452.5 Q185 406 185 350 Q185 294 197 247.5 Q209 201 233.5 167 Q258 133 295 114.5 Q332 96 383 96 Q433 96 470 114.5 Q507 133 531.5 167 Q556 201 568 247.5 Q580 294 580 350 Q580 406 568 452.5 Q556 499 531.5 533 Q507 567 470 585.5 Q433 604 383 604 Z " />
<glyph glyph-name="Ohungarumlaut" unicode="&#x150;" horiz-adv-x="765" d="M592 865 L472 730 L412 730 L504 877 L592 865 Z M422 865 L303 730 L242 730 L334 877 L422 865 Z M383 710 Q459 710 520 682 Q581 654 623 605.5 Q665 557 687.5 491.5 Q710 426 710 350 Q710 274 687.5 208.5 Q665 143 623 94.5 Q581 46 520 18 Q459 -10 383 -10 Q306 -10 245 18 Q184 46 142 94.5 Q100 143 77.5 208.5 Q55 274 55 350 Q55 426 77.5 491.5 Q100 557 142 605.5 Q184 654 245 682 Q306 710 383 710 Z M383 604 Q332 604 295 585.5 Q258 567 233.5 533 Q209 499 197 452.5 Q185 406 185 350 Q185 294 197 247.5 Q209 201 233.5 167 Q258 133 295 114.5 Q332 96 383 96 Q433 96 470 114.5 Q507 133 531.5 167 Q556 201 568 247.5 Q580 294 580 350 Q580 406 568 452.5 Q556 499 531.5 533 Q507 567 470 585.5 Q433 604 383 604 Z " />
<glyph glyph-name="Omacron" unicode="&#x14c;" horiz-adv-x="765" d="M253 744 L253 810 L511 810 L511 744 L253 744 Z M383 710 Q459 710 520 682 Q581 654 623 605.5 Q665 557 687.5 491.5 Q710 426 710 350 Q710 274 687.5 208.5 Q665 143 623 94.5 Q581 46 520 18 Q459 -10 383 -10 Q306 -10 245 18 Q184 46 142 94.5 Q100 143 77.5 208.5 Q55 274 55 350 Q55 426 77.5 491.5 Q100 557 142 605.5 Q184 654 245 682 Q306 710 383 710 Z M383 604 Q332 604 295 585.5 Q258 567 233.5 533 Q209 499 197 452.5 Q185 406 185 350 Q185 294 197 247.5 Q209 201 233.5 167 Q258 133 295 114.5 Q332 96 383 96 Q433 96 470 114.5 Q507 133 531.5 167 Q556 201 568 247.5 Q580 294 580 350 Q580 406 568 452.5 Q556 499 531.5 533 Q507 567 470 585.5 Q433 604 383 604 Z " />
<glyph glyph-name="Racute" unicode="&#x154;" horiz-adv-x="675" d="M479 865 L329 724 L258 724 L375 877 L479 865 Z M373 381 Q437 381 462.5 412.5 Q488 444 488 496 Q488 545 462.5 575 Q437 605 373 605 L204 605 L204 381 L373 381 Z M496 0 Q496 91 486 147.5 Q476 204 458 235 Q440 266 414 277 Q388 288 357 288 L204 288 L204 0 L83 0 L83 700 L405 700 Q460 700 499.5 685 Q539 670 564.5 644.5 Q590 619 602 585 Q614 551 614 512 Q614 437 574 389.5 Q534 342 454 334 Q487 329 516.5 313 Q546 297 568.5 260 Q591 223 604 160 Q617 97 617 0 L496 0 Z " />
<glyph glyph-name="Rcaron" unicode="&#x158;" horiz-adv-x="675" d="M240 877 L337 791 L434 877 L505 865 L382 724 L292 724 L169 865 L240 877 Z M373 381 Q437 381 462.5 412.5 Q488 444 488 496 Q488 545 462.5 575 Q437 605 373 605 L204 605 L204 381 L373 381 Z M496 0 Q496 91 486 147.5 Q476 204 458 235 Q440 266 414 277 Q388 288 357 288 L204 288 L204 0 L83 0 L83 700 L405 700 Q460 700 499.5 685 Q539 670 564.5 644.5 Q590 619 602 585 Q614 551 614 512 Q614 437 574 389.5 Q534 342 454 334 Q487 329 516.5 313 Q546 297 568.5 260 Q591 223 604 160 Q617 97 617 0 L496 0 Z " />
<glyph glyph-name="Rcommaaccent" unicode="&#x156;" horiz-adv-x="675" d="M395 -44 L395 -102 Q395 -151 368 -182.5 Q341 -214 300 -235 L284 -198 Q313 -185 326 -166 Q339 -147 339 -119 L297 -119 L297 -44 L395 -44 Z M373 381 Q437 381 462.5 412.5 Q488 444 488 496 Q488 545 462.5 575 Q437 605 373 605 L204 605 L204 381 L373 381 Z M496 0 Q496 91 486 147.5 Q476 204 458 235 Q440 266 414 277 Q388 288 357 288 L204 288 L204 0 L83 0 L83 700 L405 700 Q460 700 499.5 685 Q539 670 564.5 644.5 Q590 619 602 585 Q614 551 614 512 Q614 437 574 389.5 Q534 342 454 334 Q487 329 516.5 313 Q546 297 568.5 260 Q591 223 604 160 Q617 97 617 0 L496 0 Z " />
<glyph glyph-name="Sacute" unicode="&#x15a;" horiz-adv-x="659" d="M472 865 L322 724 L251 724 L368 877 L472 865 Z M332 710 Q394 710 443 694.5 Q492 679 526.5 652 Q561 625 581 587.5 Q601 550 605 506 L480 506 Q477 530 468 549.5 Q459 569 441.5 583.5 Q424 598 396.5 606 Q369 614 329 614 Q290 614 263.5 605.5 Q237 597 220.5 583 Q204 569 197 551 Q190 533 190 513 Q190 486 200 469 Q210 452 229.5 440.5 Q249 429 277 422.5 Q305 416 340 412 Q399 406 448.5 393 Q498 380 533.5 356.5 Q569 333 589 298 Q609 263 609 213 Q609 165 590.5 124.5 Q572 84 536 54 Q500 24 447.5 7 Q395 -10 327 -10 Q265 -10 215 5.5 Q165 21 130 48.5 Q95 76 74.5 113.5 Q54 151 50 195 L175 195 Q180 148 216 116.5 Q252 85 331 85 Q370 85 397.5 94 Q425 103 443 118 Q461 133 469 153 Q477 173 477 195 Q477 224 466 243 Q455 262 434 274 Q413 286 382.5 293 Q352 300 313 305 Q253 312 206 325.5 Q159 339 126.5 361.5 Q94 384 77 418.5 Q60 453 60 503 Q60 545 77 582.5 Q94 620 128.5 648.5 Q163 677 213.5 693.5 Q264 710 332 710 Z " />
<glyph glyph-name="Scaron" unicode="&#x160;" horiz-adv-x="659" d="M233 877 L330 791 L427 877 L498 865 L375 724 L285 724 L162 865 L233 877 Z M332 710 Q394 710 443 694.5 Q492 679 526.5 652 Q561 625 581 587.5 Q601 550 605 506 L480 506 Q477 530 468 549.5 Q459 569 441.5 583.5 Q424 598 396.5 606 Q369 614 329 614 Q290 614 263.5 605.5 Q237 597 220.5 583 Q204 569 197 551 Q190 533 190 513 Q190 486 200 469 Q210 452 229.5 440.5 Q249 429 277 422.5 Q305 416 340 412 Q399 406 448.5 393 Q498 380 533.5 356.5 Q569 333 589 298 Q609 263 609 213 Q609 165 590.5 124.5 Q572 84 536 54 Q500 24 447.5 7 Q395 -10 327 -10 Q265 -10 215 5.5 Q165 21 130 48.5 Q95 76 74.5 113.5 Q54 151 50 195 L175 195 Q180 148 216 116.5 Q252 85 331 85 Q370 85 397.5 94 Q425 103 443 118 Q461 133 469 153 Q477 173 477 195 Q477 224 466 243 Q455 262 434 274 Q413 286 382.5 293 Q352 300 313 305 Q253 312 206 325.5 Q159 339 126.5 361.5 Q94 384 77 418.5 Q60 453 60 503 Q60 545 77 582.5 Q94 620 128.5 648.5 Q163 677 213.5 693.5 Q264 710 332 710 Z " />
<glyph glyph-name="Scedilla" unicode="&#x15e;" horiz-adv-x="659" d="M332 710 Q394 710 443 694.5 Q492 679 526.5 652 Q561 625 581 587.5 Q601 550 605 506 L480 506 Q477 530 468 549.5 Q459 569 441.5 583.5 Q424 598 396.5 606 Q369 614 329 614 Q290 614 263.5 605.5 Q237 597 220.5 583 Q204 569 197 551 Q190 533 190 513 Q190 486 200 469 Q210 452 229.5 440.5 Q249 429 277 422.5 Q305 416 340 412 Q399 406 448.5 393 Q498 380 533.5 356.5 Q569 333 589 298 Q609 263 609 213 Q609 167 592 128 Q575 89 542 59.5 Q509 30 460.5 12 Q412 -6 350 -9 L320 -55 Q335 -52 350 -52 Q369 -52 387 -56.5 Q405 -61 419 -71 Q433 -81 442 -96 Q451 -111 451 -133 Q451 -178 412.5 -203.5 Q374 -229 316 -229 Q284 -229 254 -220 Q224 -211 205 -193 L237 -155 Q246 -166 266.5 -173 Q287 -180 309 -180 Q339 -180 353.5 -169 Q368 -158 368 -140 Q368 -112 345 -101.5 Q322 -91 287 -91 Q275 -91 262 -92 Q249 -93 236 -95 L283 -8 Q177 3 117 58.5 Q57 114 50 195 L175 195 Q180 148 216 116.5 Q252 85 331 85 Q370 85 397.5 94 Q425 103 443 118 Q461 133 469 153 Q477 173 477 195 Q477 224 466 243 Q455 262 434 274 Q413 286 382.5 293 Q352 300 313 305 Q253 312 206 325.5 Q159 339 126.5 361.5 Q94 384 77 418.5 Q60 453 60 503 Q60 545 77 582.5 Q94 620 128.5 648.5 Q163 677 213.5 693.5 Q264 710 332 710 Z " />
<glyph glyph-name="Scircumflex" unicode="&#x15c;" horiz-adv-x="659" d="M430 724 L334 811 L236 724 L165 737 L288 877 L378 877 L501 737 L430 724 Z M332 710 Q394 710 443 694.5 Q492 679 526.5 652 Q561 625 581 587.5 Q601 550 605 506 L480 506 Q477 530 468 549.5 Q459 569 441.5 583.5 Q424 598 396.5 606 Q369 614 329 614 Q290 614 263.5 605.5 Q237 597 220.5 583 Q204 569 197 551 Q190 533 190 513 Q190 486 200 469 Q210 452 229.5 440.5 Q249 429 277 422.5 Q305 416 340 412 Q399 406 448.5 393 Q498 380 533.5 356.5 Q569 333 589 298 Q609 263 609 213 Q609 165 590.5 124.5 Q572 84 536 54 Q500 24 447.5 7 Q395 -10 327 -10 Q265 -10 215 5.5 Q165 21 130 48.5 Q95 76 74.5 113.5 Q54 151 50 195 L175 195 Q180 148 216 116.5 Q252 85 331 85 Q370 85 397.5 94 Q425 103 443 118 Q461 133 469 153 Q477 173 477 195 Q477 224 466 243 Q455 262 434 274 Q413 286 382.5 293 Q352 300 313 305 Q253 312 206 325.5 Q159 339 126.5 361.5 Q94 384 77 418.5 Q60 453 60 503 Q60 545 77 582.5 Q94 620 128.5 648.5 Q163 677 213.5 693.5 Q264 710 332 710 Z " />
<glyph glyph-name="Scommaaccent" unicode="&#x218;" horiz-adv-x="659" d="M382 -44 L382 -102 Q382 -151 355 -182.5 Q328 -214 287 -235 L271 -198 Q300 -185 313 -166 Q326 -147 326 -119 L284 -119 L284 -44 L382 -44 Z M332 710 Q394 710 443 694.5 Q492 679 526.5 652 Q561 625 581 587.5 Q601 550 605 506 L480 506 Q477 530 468 549.5 Q459 569 441.5 583.5 Q424 598 396.5 606 Q369 614 329 614 Q290 614 263.5 605.5 Q237 597 220.5 583 Q204 569 197 551 Q190 533 190 513 Q190 486 200 469 Q210 452 229.5 440.5 Q249 429 277 422.5 Q305 416 340 412 Q399 406 448.5 393 Q498 380 533.5 356.5 Q569 333 589 298 Q609 263 609 213 Q609 165 590.5 124.5 Q572 84 536 54 Q500 24 447.5 7 Q395 -10 327 -10 Q265 -10 215 5.5 Q165 21 130 48.5 Q95 76 74.5 113.5 Q54 151 50 195 L175 195 Q180 148 216 116.5 Q252 85 331 85 Q370 85 397.5 94 Q425 103 443 118 Q461 133 469 153 Q477 173 477 195 Q477 224 466 243 Q455 262 434 274 Q413 286 382.5 293 Q352 300 313 305 Q253 312 206 325.5 Q159 339 126.5 361.5 Q94 384 77 418.5 Q60 453 60 503 Q60 545 77 582.5 Q94 620 128.5 648.5 Q163 677 213.5 693.5 Q264 710 332 710 Z " />
<glyph glyph-name="Tbar" unicode="&#x166;" horiz-adv-x="601" d="M241 0 L241 298 L148 298 L148 370 L241 370 L241 605 L11 605 L11 700 L591 700 L591 605 L361 605 L361 370 L454 370 L454 298 L361 298 L361 0 L241 0 Z " />
<glyph glyph-name="Tcaron" unicode="&#x164;" horiz-adv-x="601" d="M204 877 L301 791 L398 877 L469 865 L346 724 L256 724 L133 865 L204 877 Z M241 0 L241 605 L11 605 L11 700 L591 700 L591 605 L361 605 L361 0 L241 0 Z " />
<glyph glyph-name="Tcommaaccent" unicode="&#x162;" horiz-adv-x="601" d="M353 -44 L353 -102 Q353 -151 326 -182.5 Q299 -214 258 -235 L242 -198 Q271 -185 284 -166 Q297 -147 297 -119 L255 -119 L255 -44 L353 -44 Z M241 0 L241 605 L11 605 L11 700 L591 700 L591 605 L361 605 L361 0 L241 0 Z " />
<glyph glyph-name="Ubreve" unicode="&#x16c;" horiz-adv-x="711" d="M285 851 Q285 822 303.5 805.5 Q322 789 355 789 Q392 789 409 807 Q426 825 426 851 L485 845 Q484 790 448 759 Q412 728 355 728 Q299 728 263 759 Q227 790 226 845 L285 851 Z M513 700 L635 700 L635 206 Q635 152 611.5 111.5 Q588 71 549 44 Q510 17 459 3.5 Q408 -10 353 -10 Q298 -10 248 3.5 Q198 17 160 44 Q122 71 99.5 111.5 Q77 152 77 206 L77 700 L198 700 L198 229 Q198 157 238 124 Q278 91 356 91 Q434 91 473.5 124.5 Q513 158 513 229 L513 700 Z " />
<glyph glyph-name="Uhungarumlaut" unicode="&#x170;" horiz-adv-x="711" d="M573 865 L453 730 L393 730 L485 877 L573 865 Z M403 865 L284 730 L223 730 L315 877 L403 865 Z M513 700 L635 700 L635 206 Q635 152 611.5 111.5 Q588 71 549 44 Q510 17 459 3.5 Q408 -10 353 -10 Q298 -10 248 3.5 Q198 17 160 44 Q122 71 99.5 111.5 Q77 152 77 206 L77 700 L198 700 L198 229 Q198 157 238 124 Q278 91 356 91 Q434 91 473.5 124.5 Q513 158 513 229 L513 700 Z " />
<glyph glyph-name="Umacron" unicode="&#x16a;" horiz-adv-x="711" d="M226 744 L226 810 L484 810 L484 744 L226 744 Z M513 700 L635 700 L635 206 Q635 152 611.5 111.5 Q588 71 549 44 Q510 17 459 3.5 Q408 -10 353 -10 Q298 -10 248 3.5 Q198 17 160 44 Q122 71 99.5 111.5 Q77 152 77 206 L77 700 L198 700 L198 229 Q198 157 238 124 Q278 91 356 91 Q434 91 473.5 124.5 Q513 158 513 229 L513 700 Z " />
<glyph glyph-name="Uogonek" unicode="&#x172;" horiz-adv-x="711" d="M513 700 L635 700 L635 206 Q635 158 616.5 120.5 Q598 83 566 56.5 Q534 30 491.5 14 Q449 -2 402 -7 Q381 -26 369 -50.5 Q357 -75 357 -98 Q357 -121 370.5 -133.5 Q384 -146 409 -146 Q420 -146 432 -143 L432 -213 Q415 -217 390 -217 Q336 -217 304 -191 Q272 -165 272 -123 Q272 -91 289 -62 Q306 -33 338 -10 Q285 -8 237.5 6 Q190 20 154.5 47 Q119 74 98 113.5 Q77 153 77 206 L77 700 L198 700 L198 229 Q198 157 238 124 Q278 91 356 91 Q434 91 473.5 124.5 Q513 158 513 229 L513 700 Z " />
<glyph glyph-name="Uring" unicode="&#x16e;" horiz-adv-x="711" d="M354 834 Q327 834 312.5 823 Q298 812 298 794 Q298 772 314.5 763 Q331 754 354 754 Q381 754 396 764 Q411 774 411 794 Q411 815 394 824.5 Q377 834 354 834 Z M355 879 Q405 879 439 857.5 Q473 836 473 794 Q473 752 439 731.5 Q405 711 355 711 Q306 711 271.5 731.5 Q237 752 237 794 Q237 836 271.5 857.5 Q306 879 355 879 Z M513 700 L635 700 L635 206 Q635 152 611.5 111.5 Q588 71 549 44 Q510 17 459 3.5 Q408 -10 353 -10 Q298 -10 248 3.5 Q198 17 160 44 Q122 71 99.5 111.5 Q77 152 77 206 L77 700 L198 700 L198 229 Q198 157 238 124 Q278 91 356 91 Q434 91 473.5 124.5 Q513 158 513 229 L513 700 Z " />
<glyph glyph-name="Utilde" unicode="&#x168;" horiz-adv-x="711" d="M288 850 Q312 850 331.5 841.5 Q351 833 366.5 823 Q382 813 395.5 804.5 Q409 796 423 796 Q439 796 449.5 804 Q460 812 464 836 L512 828 Q507 783 485 757.5 Q463 732 425 732 Q402 732 384 741 Q366 750 350 760.5 Q334 771 318.5 780 Q303 789 285 789 Q248 789 244 745 L197 755 Q201 800 223.5 825 Q246 850 288 850 Z M513 700 L635 700 L635 206 Q635 152 611.5 111.5 Q588 71 549 44 Q510 17 459 3.5 Q408 -10 353 -10 Q298 -10 248 3.5 Q198 17 160 44 Q122 71 99.5 111.5 Q77 152 77 206 L77 700 L198 700 L198 229 Q198 157 238 124 Q278 91 356 91 Q434 91 473.5 124.5 Q513 158 513 229 L513 700 Z " />
<glyph glyph-name="Wcircumflex" unicode="&#x174;" horiz-adv-x="964" d="M579 724 L483 811 L385 724 L314 737 L437 877 L527 877 L650 737 L579 724 Z M143 700 L270 202 Q275 187 279.5 164 Q284 141 286 120 Q289 141 293.5 163.5 Q298 186 302 202 L428 700 L539 700 L667 203 Q671 187 675.5 164 Q680 141 683 120 Q685 141 689.5 164 Q694 187 698 203 L828 700 L948 700 L758 0 L610 0 L497 436 Q492 454 488.5 476.5 Q485 499 483 519 Q481 499 477.5 476.5 Q474 454 469 436 L356 0 L208 0 L17 700 L143 700 Z " />
</font>
</svg>
