<?xml version="1.0" encoding="UTF-8"?>
<svg xmlns="http://www.w3.org/2000/svg" xmlns:xlink="http://www.w3.org/1999/xlink" version="1.2" >
<font id="Trivia Sans Book Italic">
<font-face  font-family="Trivia Sans Book" units-per-em="1000" ascent="868" descent="-200" font-style="italic" font-weight="400" font-stretch="normal" slope="-12" cap-height="700" x-height="500" underline-position="-125" underline-thickness="50" />
<missing-glyph  horiz-adv-x="231" d="" />
<glyph glyph-name="space" unicode="&#x20;" horiz-adv-x="231" d="" />
<glyph glyph-name="D" unicode="D" horiz-adv-x="716" d="M321 53 Q379 53 427.5 74.5 Q476 96 512.5 135.5 Q549 175 573.5 230.5 Q598 286 610 354 Q635 492 587 569.5 Q539 647 424 647 L232 647 L127 53 L321 53 Z M51 0 L174 700 L444 700 Q513 700 564 675.5 Q615 651 646 606 Q677 561 686.5 497 Q696 433 682 354 Q668 276 637 211 Q606 146 560 99 Q514 52 454 26 Q394 0 324 0 L51 0 Z " />
<glyph glyph-name="E" unicode="E" horiz-adv-x="602" d="M51 0 L174 700 L630 700 L621 647 L232 647 L187 390 L517 390 L508 337 L177 337 L127 53 L520 53 L511 0 L51 0 Z " />
<glyph glyph-name="F" unicode="F" horiz-adv-x="569" d="M633 700 L624 647 L232 647 L185 375 L518 375 L509 323 L175 323 L118 0 L51 0 L174 700 L633 700 Z " />
<glyph glyph-name="G" unicode="G" horiz-adv-x="749" d="M462 710 Q517 710 560.5 695 Q604 680 635 653 Q666 626 683.5 588.5 Q701 551 703 506 L634 506 Q629 572 581.5 611.5 Q534 651 451 651 Q390 651 340 628.5 Q290 606 252 566 Q214 526 188.5 470.5 Q163 415 151 350 Q139 284 145 228.5 Q151 173 175 133 Q199 93 241 70.5 Q283 48 343 48 Q387 48 429 63.5 Q471 79 506 111.5 Q541 144 567 193 Q593 242 605 309 L382 309 L391 360 L681 360 L618 0 L554 0 L584 175 Q569 141 546 108 Q523 75 491 48.5 Q459 22 416.5 6 Q374 -10 321 -10 Q253 -10 201.5 16.5 Q150 43 117.5 91 Q85 139 74.5 205 Q64 271 78 350 Q91 424 124 489.5 Q157 555 206.5 604 Q256 653 321 681.5 Q386 710 462 710 Z " />
<glyph glyph-name="H" unicode="H" horiz-adv-x="685" d="M486 0 L545 337 L177 337 L118 0 L51 0 L174 700 L241 700 L187 390 L555 390 L609 700 L677 700 L554 0 L486 0 Z " />
<glyph glyph-name="I" unicode="I" horiz-adv-x="249" d="M51 0 L174 700 L241 700 L118 0 L51 0 Z " />
<glyph glyph-name="J" unicode="J" horiz-adv-x="517" d="M510 700 L418 178 Q403 92 339.5 41 Q276 -10 176 -10 Q90 -10 45 35.5 Q0 81 3 153 L73 153 Q71 109 99.5 78 Q128 47 188 47 Q262 47 301 84 Q340 121 350 177 L442 700 L510 700 Z " />
<glyph glyph-name="K" unicode="K" horiz-adv-x="599" d="M466 0 L194 366 L567 700 L649 700 L274 370 L550 0 L466 0 Z M51 0 L174 700 L241 700 L118 0 L51 0 Z " />
<glyph glyph-name="L" unicode="L" horiz-adv-x="536" d="M51 0 L174 700 L241 700 L127 53 L495 53 L486 0 L51 0 Z " />
<glyph glyph-name="M" unicode="M" horiz-adv-x="838" d="M280 700 L388 146 Q390 131 391.5 112 Q393 93 394 77 Q400 93 408 113 Q416 133 424 147 L725 700 L830 700 L707 0 L640 0 L742 582 L756 651 Q749 634 741 617 Q733 600 725 584 L408 0 L350 0 L237 585 Q235 599 233.5 616.5 Q232 634 230 651 Q229 636 226 616.5 Q223 597 220 583 L118 0 L51 0 L174 700 L280 700 Z " />
<glyph glyph-name="N" unicode="N" horiz-adv-x="686" d="M270 700 L487 144 Q492 130 496.5 112 Q501 94 505 76 Q506 93 509 115 Q512 137 515 154 L612 700 L678 700 L555 0 L470 0 L247 576 Q242 590 237 608 Q232 626 230 642 L219 572 L118 0 L51 0 L174 700 L270 700 Z " />
<glyph glyph-name="O" unicode="O" horiz-adv-x="748" d="M459 710 Q535 710 589 681.5 Q643 653 674.5 604 Q706 555 715.5 489.5 Q725 424 712 350 Q699 276 666.5 210.5 Q634 145 585 96 Q536 47 472 18.5 Q408 -10 332 -10 Q256 -10 202 18.5 Q148 47 116 96 Q84 145 74 210.5 Q64 276 77 350 Q90 424 123 489.5 Q156 555 205 604 Q254 653 318.5 681.5 Q383 710 459 710 Z M448 651 Q388 651 338 628.5 Q288 606 250.5 566 Q213 526 188 470.5 Q163 415 151 350 Q139 285 145 229.5 Q151 174 174.5 134 Q198 94 240 71.5 Q282 49 342 49 Q402 49 452 71.5 Q502 94 539.5 134 Q577 174 602.5 229.5 Q628 285 639 350 Q651 415 645 470.5 Q639 526 615.5 566 Q592 606 550 628.5 Q508 651 448 651 Z " />
<glyph glyph-name="P" unicode="P" horiz-adv-x="626" d="M232 647 L178 340 L393 340 Q431 340 460.5 352 Q490 364 511 385 Q532 406 545 435 Q558 464 564 498 Q570 529 567 556 Q564 583 550.5 603.5 Q537 624 512 635.5 Q487 647 447 647 L232 647 Z M470 700 Q522 700 557 684 Q592 668 611.5 641 Q631 614 636 577.5 Q641 541 634 499 Q626 456 608 418 Q590 380 561 351.5 Q532 323 490.5 306.5 Q449 290 395 290 L169 290 L118 0 L51 0 L174 700 L470 700 Z " />
<glyph glyph-name="Q" unicode="Q" horiz-adv-x="748" d="M406 204 L482 87 Q544 125 584 193.5 Q624 262 639 350 Q651 415 645 470.5 Q639 526 615.5 566 Q592 606 550 628.5 Q508 651 448 651 Q388 651 338 628.5 Q288 606 250.5 566 Q213 526 188 470.5 Q163 415 151 350 Q139 285 145 229.5 Q151 174 174.5 134 Q198 94 240 71.5 Q282 49 342 49 Q386 49 425 61 L335 204 L406 204 Z M459 710 Q535 710 589 681.5 Q643 653 674.5 604 Q706 555 715.5 489.5 Q725 424 712 350 Q694 250 642.5 168.5 Q591 87 512 39 L620 -126 L545 -126 L456 12 Q427 1 396 -4.5 Q365 -10 332 -10 Q256 -10 202 18.5 Q148 47 116 96 Q84 145 74 210.5 Q64 276 77 350 Q90 424 123 489.5 Q156 555 205 604 Q254 653 318.5 681.5 Q383 710 459 710 Z " />
<glyph glyph-name="R" unicode="R" horiz-adv-x="658" d="M400 365 Q440 365 469 376.5 Q498 388 518 407.5 Q538 427 550 453.5 Q562 480 567 510 Q572 539 569 564 Q566 589 552.5 607.5 Q539 626 514 636.5 Q489 647 449 647 L232 647 L183 365 L400 365 Z M480 0 Q498 101 496.5 162.5 Q495 224 479.5 257.5 Q464 291 437.5 302 Q411 313 378 313 L173 313 L118 0 L51 0 L174 700 L474 700 Q526 700 561 685.5 Q596 671 615.5 646 Q635 621 640.5 588 Q646 555 640 518 Q626 444 581 396.5 Q536 349 457 339 Q484 333 508.5 317 Q533 301 547.5 263.5 Q562 226 563.5 163 Q565 100 548 0 L480 0 Z " />
<glyph glyph-name="S" unicode="S" horiz-adv-x="632" d="M401 710 Q458 710 500.5 696.5 Q543 683 571 659.5 Q599 636 613 604.5 Q627 573 626 537 L555 537 Q555 561 546 583 Q537 605 517.5 621 Q498 637 466.5 646.5 Q435 656 390 656 Q342 656 306 645 Q270 634 245.5 615.5 Q221 597 207 573.5 Q193 550 189 525 Q183 489 193 466 Q203 443 225 428.5 Q247 414 278.5 406.5 Q310 399 346 394 Q397 387 442 375 Q487 363 519 341 Q551 319 566 284.5 Q581 250 572 198 Q564 156 541 118 Q518 80 479.5 51.5 Q441 23 389 6.5 Q337 -10 273 -10 Q217 -10 173.5 3.5 Q130 17 100.5 40.5 Q71 64 56 95.5 Q41 127 42 164 L113 164 Q113 139 123 117 Q133 95 154 78.5 Q175 62 207.5 52.5 Q240 43 285 43 Q333 43 370 55 Q407 67 433.5 87.5 Q460 108 476 134 Q492 160 497 189 Q504 228 492 253 Q480 278 455.5 294 Q431 310 395.5 318.5 Q360 327 320 333 Q270 340 229 351 Q188 362 160 383 Q132 404 119.5 436.5 Q107 469 116 520 Q122 557 143.5 591 Q165 625 201 651.5 Q237 678 287.5 694 Q338 710 401 710 Z " />
<glyph glyph-name="T" unicode="T" horiz-adv-x="570" d="M212 0 L326 647 L85 647 L94 700 L643 700 L633 647 L393 647 L280 0 L212 0 Z " />
<glyph glyph-name="U" unicode="U" horiz-adv-x="684" d="M612 700 L680 700 L589 182 Q581 135 554.5 99 Q528 63 489 39 Q450 15 401.5 2.5 Q353 -10 300 -10 Q247 -10 203 2.5 Q159 15 129 39 Q99 63 85.5 99 Q72 135 81 182 L172 700 L240 700 L151 196 Q138 121 181 84 Q224 47 311 47 Q398 47 454 84.5 Q510 122 523 196 L612 700 Z " />
<glyph glyph-name="V" unicode="V" horiz-adv-x="608" d="M161 700 L266 121 Q268 106 270 89.5 Q272 73 273 56 Q279 73 287 89 Q295 105 303 121 L615 700 L687 700 L309 0 L217 0 L87 700 L161 700 Z " />
<glyph glyph-name="W" unicode="W" horiz-adv-x="937" d="M176 700 L231 141 Q233 124 234.5 103 Q236 82 236 63 Q243 82 251 103 Q259 124 267 141 L521 700 L585 700 L640 141 Q642 124 643.5 103.5 Q645 83 645 63 Q651 83 659.5 103.5 Q668 124 676 141 L932 700 L998 700 L676 0 L593 0 L539 527 Q537 544 536 567 Q535 590 536 608 Q529 590 520.5 567.5 Q512 545 504 527 L264 0 L181 0 L106 700 L176 700 Z " />
<glyph glyph-name="X" unicode="X" horiz-adv-x="628" d="M187 700 L325 448 Q330 436 335 423 Q340 410 344 396 Q353 410 364 423.5 Q375 437 384 448 L610 700 L688 700 L377 357 L576 0 L491 0 L347 263 Q341 275 335.5 288.5 Q330 302 327 316 Q317 301 306.5 288 Q296 275 285 262 L51 0 L-28 0 L293 355 L103 700 L187 700 Z " />
<glyph glyph-name="Y" unicode="Y" horiz-adv-x="604" d="M228 0 L284 324 L84 700 L165 700 L330 381 L611 700 L686 700 L352 324 L295 0 L228 0 Z " />
<glyph glyph-name="Z" unicode="Z" horiz-adv-x="618" d="M1 0 L10 54 L565 647 L125 647 L135 700 L653 700 L643 645 L90 53 L550 53 L542 0 L1 0 Z " />
<glyph glyph-name="AE" unicode="&#xc6;" horiz-adv-x="958" d="M453 265 L518 636 L189 265 L453 265 Z M406 0 L443 213 L147 213 L-40 0 L-118 0 L502 700 L986 700 L976 647 L588 647 L542 390 L873 390 L863 337 L533 337 L483 53 L876 53 L867 0 L406 0 Z " />
<glyph glyph-name="OE" unicode="&#x152;" horiz-adv-x="1061" d="M448 651 Q388 651 338 628.5 Q288 606 250.5 566 Q213 526 188 470.5 Q163 415 151 350 Q139 285 145 229.5 Q151 174 174.5 134 Q198 94 240 71.5 Q282 49 342 49 Q402 49 452 71.5 Q502 94 539.5 134 Q577 174 602.5 229.5 Q628 285 639 350 Q651 415 645 470.5 Q639 526 615.5 566 Q592 606 550 628.5 Q508 651 448 651 Z M459 710 Q481 710 500.5 707.5 Q520 705 539 700 L1088 700 L1079 647 L619 647 Q678 612 702 542.5 Q726 473 716 390 L976 390 L966 337 L708 337 Q690 242 640.5 166.5 Q591 91 514 53 L978 53 L970 0 L416 0 Q395 -5 374.5 -7.5 Q354 -10 332 -10 Q256 -10 202 18.5 Q148 47 116 96 Q84 145 74 210.5 Q64 276 77 350 Q90 424 123 489.5 Q156 555 205 604 Q254 653 318.5 681.5 Q383 710 459 710 Z " />
<glyph glyph-name="Oslash" unicode="&#xd8;" horiz-adv-x="748" d="M639 350 Q650 416 644.5 471 Q639 526 615 567 L206 95 Q230 73 263.5 61 Q297 49 342 49 Q402 49 452 71.5 Q502 94 539.5 134 Q577 174 602.5 229.5 Q628 285 639 350 Z M448 651 Q388 651 338 628.5 Q288 606 250.5 566 Q213 526 188 470.5 Q163 415 151 350 Q139 284 145 229 Q151 174 175 133 L584 604 Q534 651 448 651 Z M730 700 L662 621 Q701 571 713.5 501 Q726 431 712 350 Q699 276 666.5 210.5 Q634 145 585 96 Q536 47 472 18.5 Q408 -10 332 -10 Q278 -10 236 4 Q194 18 162 44 L123 0 L59 0 L128 79 Q89 130 76 199.5 Q63 269 77 350 Q90 424 123 489.5 Q156 555 205 604 Q254 653 318.5 681.5 Q383 710 459 710 Q513 710 555 695.5 Q597 681 629 655 L668 700 L730 700 Z " />
<glyph glyph-name="a" unicode="a" horiz-adv-x="575" d="M311 459 Q233 459 183 401.5 Q133 344 117 250 Q108 203 111.5 164.5 Q115 126 130 98.5 Q145 71 172 56 Q199 41 237 41 Q278 41 311 57.5 Q344 74 368.5 102 Q393 130 409 167 Q425 204 432 244 Q442 299 437.5 339.5 Q433 380 416.5 406.5 Q400 433 372.5 446 Q345 459 311 459 Z M307 510 Q343 510 369.5 499 Q396 488 414 469 Q432 450 442 425 Q452 400 455 373 L477 500 L539 500 L452 0 L390 0 L411 124 Q399 98 379.5 74 Q360 50 334.5 31 Q309 12 279 1 Q249 -10 216 -10 Q167 -10 131 9 Q95 28 74 62.5 Q53 97 47 145 Q41 193 52 250 Q62 308 84.5 355.5 Q107 403 140 437.5 Q173 472 215.5 491 Q258 510 307 510 Z " />
<glyph glyph-name="b" unicode="b" horiz-adv-x="575" d="M345 459 Q275 459 221 406.5 Q167 354 147 244 Q140 204 143 167 Q146 130 161 102 Q176 74 203 57.5 Q230 41 271 41 Q310 41 342 56 Q374 71 398.5 98.5 Q423 126 440 164.5 Q457 203 466 250 Q474 297 470.5 335.5 Q467 374 452 401.5 Q437 429 410 444 Q383 459 345 459 Z M228 700 L170 373 Q182 400 201 425 Q220 450 245 469 Q270 488 300.5 499 Q331 510 367 510 Q416 510 451.5 491 Q487 472 508 437.5 Q529 403 535 355.5 Q541 308 531 250 Q521 193 498 145 Q475 97 442 62.5 Q409 28 367 9 Q325 -10 276 -10 Q243 -10 216 1 Q189 12 170 31 Q151 50 140 74 Q129 98 126 124 L105 0 L43 0 L166 700 L228 700 Z " />
<glyph glyph-name="c" unicode="c" horiz-adv-x="509" d="M326 510 Q365 510 398 499 Q431 488 455 466.5 Q479 445 491.5 414 Q504 383 502 344 L438 344 Q440 398 407 428.5 Q374 459 315 459 Q276 459 243 444 Q210 429 184 401 Q158 373 140 334.5 Q122 296 114 250 Q106 203 110.5 165 Q115 127 131 99 Q147 71 175 56 Q203 41 241 41 Q300 41 344.5 71.5 Q389 102 405 156 L468 156 Q457 117 433.5 86 Q410 55 379 33.5 Q348 12 311 1 Q274 -10 235 -10 Q182 -10 142.5 9 Q103 28 79.5 62.5 Q56 97 48.5 144.5 Q41 192 52 250 Q62 308 86 355.5 Q110 403 145.5 437.5 Q181 472 227 491 Q273 510 326 510 Z " />
<glyph glyph-name="d" unicode="d" horiz-adv-x="575" d="M311 459 Q233 459 183 401.5 Q133 344 117 250 Q108 203 111.5 164.5 Q115 126 130 98.5 Q145 71 172 56 Q199 41 237 41 Q278 41 311 57.5 Q344 74 368.5 102 Q393 130 409 167 Q425 204 432 244 Q442 299 437.5 339.5 Q433 380 416.5 406.5 Q400 433 372.5 446 Q345 459 311 459 Z M307 510 Q343 510 369.5 499 Q396 488 414 469 Q432 450 442 425 Q452 400 455 373 L513 700 L575 700 L452 0 L390 0 L411 124 Q399 98 379.5 74 Q360 50 334.5 31 Q309 12 279 1 Q249 -10 216 -10 Q167 -10 131 9 Q95 28 74 62.5 Q53 97 47 145 Q41 193 52 250 Q62 308 84.5 355.5 Q107 403 140 437.5 Q173 472 215.5 491 Q258 510 307 510 Z " />
<glyph glyph-name="e" unicode="e" horiz-adv-x="536" d="M328 464 Q256 464 202.5 418.5 Q149 373 124 294 L284 294 Q365 294 403 318.5 Q441 343 441 382 Q441 397 434.5 412 Q428 427 414.5 438.5 Q401 450 379.5 457 Q358 464 328 464 Z M338 510 Q382 510 414 499.5 Q446 489 466.5 472 Q487 455 496.5 433 Q506 411 506 388 Q506 359 493 333.5 Q480 308 452.5 289.5 Q425 271 382.5 260.5 Q340 250 282 250 L114 250 Q96 153 129 96 Q162 39 241 39 Q268 39 293.5 46 Q319 53 340.5 67 Q362 81 378 101 Q394 121 403 148 L466 148 Q454 110 430 80.5 Q406 51 375 31 Q344 11 307.5 0.5 Q271 -10 233 -10 Q180 -10 141.5 9 Q103 28 79 62.5 Q55 97 47.5 144.5 Q40 192 51 250 Q61 308 87.5 355.5 Q114 403 152 437.5 Q190 472 237.5 491 Q285 510 338 510 Z " />
<glyph glyph-name="f" unicode="f" horiz-adv-x="318" d="M332 710 Q366 710 400 703 L391 652 Q374 657 359 658.5 Q344 660 330 660 Q238 660 220 557 L210 500 L364 500 L355 452 L201 452 L87 -200 L25 -200 L139 452 L59 452 L68 500 L148 500 L158 557 Q172 634 217 672 Q262 710 332 710 Z " />
<glyph glyph-name="g" unicode="g" horiz-adv-x="575" d="M310 459 Q232 459 182.5 401.5 Q133 344 116 250 Q99 156 130 99 Q161 42 238 42 Q279 42 311.5 58.5 Q344 75 368.5 103 Q393 131 409 167.5 Q425 204 432 244 Q442 299 437.5 339.5 Q433 380 416.5 406.5 Q400 433 373 446 Q346 459 310 459 Z M308 510 Q344 510 371 498.5 Q398 487 416 468.5 Q434 450 443.5 425.5 Q453 401 455 374 L478 500 L540 500 L451 -3 Q431 -115 360 -163 Q289 -211 183 -211 Q142 -211 107.5 -201 Q73 -191 49 -171 Q25 -151 13 -121 Q1 -91 5 -51 L72 -51 Q69 -77 78 -98 Q87 -119 103.5 -133 Q120 -147 144 -154.5 Q168 -162 195 -162 Q231 -162 263 -154 Q295 -146 320.5 -127 Q346 -108 363.5 -77.5 Q381 -47 389 -3 L411 125 Q399 97 379.5 73 Q360 49 334.5 31 Q309 13 278.5 3 Q248 -7 214 -7 Q165 -7 129.5 11.5 Q94 30 73.5 64 Q53 98 47 145.5 Q41 193 52 250 Q62 306 83.5 354 Q105 402 137.5 436.5 Q170 471 213 490.5 Q256 510 308 510 Z " />
<glyph glyph-name="h" unicode="h" horiz-adv-x="569" d="M231 700 L176 389 Q203 441 253 475.5 Q303 510 372 510 Q454 510 485 459.5 Q516 409 500 320 L444 0 L382 0 L436 309 Q448 378 428.5 417.5 Q409 457 345 457 Q316 457 286 446.5 Q256 436 229.5 413.5 Q203 391 183.5 356 Q164 321 155 271 L108 0 L46 0 L169 700 L231 700 Z " />
<glyph glyph-name="i" unicode="i" horiz-adv-x="233" d="M196 500 L108 0 L46 0 L134 500 L196 500 Z M224 655 L213 594 L148 594 L159 655 L224 655 Z " />
<glyph glyph-name="j" unicode="j" horiz-adv-x="233" d="M224 655 L213 594 L148 594 L159 655 L224 655 Z M196 500 L95 -67 Q88 -105 71.5 -132 Q55 -159 32.5 -176.5 Q10 -194 -17 -202.5 Q-44 -211 -71 -211 L-62 -158 Q-25 -158 -0.5 -139 Q24 -120 34 -64 L134 500 L196 500 Z " />
<glyph glyph-name="k" unicode="k" horiz-adv-x="470" d="M348 0 L164 270 L419 500 L495 500 L236 272 L424 0 L348 0 Z M46 0 L169 700 L231 700 L108 0 L46 0 Z " />
<glyph glyph-name="l" unicode="l" horiz-adv-x="233" d="M46 0 L169 700 L231 700 L108 0 L46 0 Z " />
<glyph glyph-name="m" unicode="m" horiz-adv-x="872" d="M196 500 L175 388 Q204 442 251.5 476 Q299 510 362 510 Q425 510 455 473 Q485 436 484 374 Q517 440 568.5 475 Q620 510 680 510 Q757 510 788 459.5 Q819 409 803 320 L747 0 L685 0 L739 308 Q751 377 731 417 Q711 457 653 457 Q628 457 601 447 Q574 437 549 415.5 Q524 394 504.5 360 Q485 326 475 278 L427 0 L365 0 L419 308 Q431 377 411 417 Q391 457 333 457 Q307 457 279 446.5 Q251 436 226.5 413.5 Q202 391 183 355.5 Q164 320 155 269 L108 0 L46 0 L134 500 L196 500 Z " />
<glyph glyph-name="n" unicode="n" horiz-adv-x="568" d="M196 500 L176 389 Q203 441 251.5 475.5 Q300 510 369 510 Q452 510 483.5 459.5 Q515 409 499 320 L443 0 L381 0 L435 309 Q447 378 427 417.5 Q407 457 343 457 Q314 457 284.5 446.5 Q255 436 229 413.5 Q203 391 183.5 356 Q164 321 155 271 L108 0 L46 0 L134 500 L196 500 Z " />
<glyph glyph-name="o" unicode="o" horiz-adv-x="547" d="M323 510 Q374 510 412.5 491.5 Q451 473 474.5 439 Q498 405 506 357 Q514 309 504 250 Q493 191 468.5 143 Q444 95 408.5 61 Q373 27 328 8.5 Q283 -10 232 -10 Q181 -10 142 8.5 Q103 27 79.5 61 Q56 95 48.5 143 Q41 191 52 250 Q62 309 86 357 Q110 405 145.5 439 Q181 473 226.5 491.5 Q272 510 323 510 Z M314 459 Q276 459 243.5 444 Q211 429 185 402 Q159 375 141 336.5 Q123 298 115 250 Q98 153 131 97 Q164 41 240 41 Q317 41 370 97 Q423 153 440 250 Q457 346 423.5 402.5 Q390 459 314 459 Z " />
<glyph glyph-name="p" unicode="p" horiz-adv-x="575" d="M345 459 Q275 459 221 406.5 Q167 354 147 244 Q140 204 143 167 Q146 130 161 102 Q176 74 203 57.5 Q230 41 271 41 Q310 41 342 56 Q374 71 398.5 98.5 Q423 126 440 164.5 Q457 203 466 250 Q474 297 470.5 335.5 Q467 374 452 401.5 Q437 429 410 444 Q383 459 345 459 Z M367 510 Q416 510 451.5 491 Q487 472 508 437.5 Q529 403 535 355.5 Q541 308 531 250 Q521 193 498 145 Q475 97 442 62.5 Q409 28 367 9 Q325 -10 276 -10 Q243 -10 216.5 0.5 Q190 11 170.5 29.5 Q151 48 139.5 72.5 Q128 97 126 125 L69 -200 L7 -200 L131 500 L193 500 L170 373 Q182 400 201 425 Q220 450 245 469 Q270 488 300.5 499 Q331 510 367 510 Z " />
<glyph glyph-name="q" unicode="q" horiz-adv-x="575" d="M309 459 Q271 459 239 444 Q207 429 182.5 401.5 Q158 374 141.5 335.5 Q125 297 117 250 Q108 203 111 164.5 Q114 126 129 98.5 Q144 71 170.5 56 Q197 41 236 41 Q277 41 310 57.5 Q343 74 367.5 102 Q392 130 408.5 167 Q425 204 432 244 Q442 299 437 339.5 Q432 380 415.5 406.5 Q399 433 371.5 446 Q344 459 309 459 Z M305 510 Q341 510 368 499 Q395 488 413.5 469 Q432 450 442 425 Q452 400 455 373 L478 500 L540 500 L416 -200 L354 -200 L411 125 Q399 97 379 72.5 Q359 48 333.5 29.5 Q308 11 277.5 0.5 Q247 -10 214 -10 Q165 -10 130 9 Q95 28 74 62.5 Q53 97 47 145 Q41 193 52 250 Q62 308 84.5 355.5 Q107 403 140 437.5 Q173 472 214.5 491 Q256 510 305 510 Z " />
<glyph glyph-name="r" unicode="r" horiz-adv-x="336" d="M196 500 L174 375 Q186 403 205.5 428 Q225 453 250 471 Q275 489 305 499.5 Q335 510 368 510 L358 451 Q356 452 352 452 Q348 452 343 452 Q316 452 286.5 440.5 Q257 429 230 405 Q203 381 182 344 Q161 307 152 256 L108 0 L46 0 L134 500 L196 500 Z " />
<glyph glyph-name="s" unicode="s" horiz-adv-x="488" d="M297 510 Q382 510 427.5 472 Q473 434 464 370 L405 370 Q411 415 378.5 440 Q346 465 291 465 Q257 465 231.5 457.5 Q206 450 188 437.5 Q170 425 160 409 Q150 393 147 377 Q143 353 150.5 337.5 Q158 322 174 311.5 Q190 301 212 294.5 Q234 288 259 284 Q292 279 325.5 271 Q359 263 384 246.5 Q409 230 422 203.5 Q435 177 428 135 Q423 106 406.5 80 Q390 54 362 34 Q334 14 294.5 2 Q255 -10 203 -10 Q160 -10 126 0 Q92 10 69 28.5 Q46 47 35 73.5 Q24 100 29 132 L88 132 Q83 88 119 62 Q155 36 212 36 Q249 36 277 44 Q305 52 323.5 65.5 Q342 79 352.5 95.5 Q363 112 366 129 Q371 156 362.5 173.5 Q354 191 337 202.5 Q320 214 296.5 220 Q273 226 247 231 Q214 236 181.5 244 Q149 252 125.5 267 Q102 282 90 307 Q78 332 86 372 Q90 399 107 424 Q124 449 151 468 Q178 487 215 498.5 Q252 510 297 510 Z " />
<glyph glyph-name="germandbls" unicode="&#xdf;" horiz-adv-x="553" d="M370 710 Q418 710 453 697 Q488 684 509 661.5 Q530 639 537.5 608.5 Q545 578 539 542 Q525 467 474 424 Q423 381 336 375 Q427 366 470 321.5 Q513 277 499 192 Q492 154 471.5 118.5 Q451 83 417 55.5 Q383 28 336.5 11 Q290 -6 232 -6 Q215 -6 201 -4.5 Q187 -3 173 0 L181 52 Q209 46 238 46 Q284 46 318.5 59 Q353 72 376 93.5 Q399 115 412.5 142 Q426 169 431 197 Q444 269 403.5 306.5 Q363 344 260 344 L268 396 Q368 396 414 431.5 Q460 467 471 532 Q475 556 472.5 579 Q470 602 457.5 620 Q445 638 421 648.5 Q397 659 358 659 Q287 659 249.5 625.5 Q212 592 201 533 L108 0 L46 0 L139 534 Q154 618 215 664 Q276 710 370 710 Z " />
<glyph glyph-name="t" unicode="t" horiz-adv-x="319" d="M226 612 L206 500 L361 500 L352 452 L197 452 L144 147 Q125 41 219 41 Q245 41 280 50 L272 -2 Q252 -7 234.5 -8.5 Q217 -10 201 -10 Q131 -10 99 26.5 Q67 63 81 141 L135 452 L55 452 L64 500 L144 500 L164 612 L226 612 Z " />
<glyph glyph-name="u" unicode="u" horiz-adv-x="568" d="M195 500 L140 191 Q128 122 148 82.5 Q168 43 232 43 Q261 43 291 53.5 Q321 64 346.5 86.5 Q372 109 391.5 144 Q411 179 420 229 L469 500 L531 500 L443 0 L381 0 L399 111 Q372 59 323.5 24.5 Q275 -10 206 -10 Q124 -10 92 40.5 Q60 91 76 180 L133 500 L195 500 Z " />
<glyph glyph-name="v" unicode="v" horiz-adv-x="462" d="M119 500 L192 117 Q195 100 196.5 82.5 Q198 65 199 48 Q205 65 213 82.5 Q221 100 230 117 L443 500 L505 500 L228 0 L150 0 L53 500 L119 500 Z " />
<glyph glyph-name="w" unicode="w" horiz-adv-x="746" d="M126 500 L174 116 Q176 99 176.5 83.5 Q177 68 177 50 Q184 67 190.5 83 Q197 99 205 116 L391 500 L453 500 L502 116 Q504 99 505 83 Q506 67 506 50 Q513 67 519 83 Q525 99 533 116 L718 500 L778 500 L535 0 L459 0 L413 357 Q411 374 409.5 395 Q408 416 408 434 Q403 416 394 395 Q385 374 377 357 L203 0 L129 0 L64 500 L126 500 Z " />
<glyph glyph-name="x" unicode="x" horiz-adv-x="487" d="M144 500 L241 331 Q245 324 248.5 315 Q252 306 255 298 Q261 306 268 315 Q275 324 282 332 L438 500 L505 500 L282 260 L433 0 L357 0 L254 179 Q245 195 238 216 Q232 207 224 197 Q216 187 208 179 L44 0 L-26 0 L211 256 L73 500 L144 500 Z " />
<glyph glyph-name="y" unicode="y" horiz-adv-x="462" d="M119 500 L192 116 Q195 99 196 81.5 Q197 64 198 48 Q204 63 212 81 Q220 99 230 116 L443 500 L505 500 L189 -66 Q165 -110 141 -137.5 Q117 -165 90.5 -181 Q64 -197 34.5 -203.5 Q5 -210 -28 -210 L-18 -154 Q25 -153 57 -136.5 Q89 -120 115 -76 L153 -12 L53 500 L119 500 Z " />
<glyph glyph-name="z" unicode="z" horiz-adv-x="463" d="M-8 0 L0 49 L387 452 L85 452 L94 500 L469 500 L460 452 L74 49 L401 49 L394 0 L-8 0 Z " />
<glyph glyph-name="ae" unicode="&#xe6;" horiz-adv-x="918" d="M710 464 Q638 464 584.5 418.5 Q531 373 506 294 L666 294 Q747 294 785 318.5 Q823 343 823 382 Q823 397 816.5 412 Q810 427 796.5 438.5 Q783 450 761.5 457 Q740 464 710 464 Z M311 459 Q233 459 183 401.5 Q133 344 117 250 Q108 203 111.5 164.5 Q115 126 130 98.5 Q145 71 172 56 Q199 41 237 41 Q278 41 311 57.5 Q344 74 368.5 102 Q393 130 409 167 Q425 204 432 244 Q442 299 437.5 339.5 Q433 380 416.5 406.5 Q400 433 372.5 446 Q345 459 311 459 Z M307 510 Q343 510 369.5 499 Q396 488 414 469 Q432 450 442 425 Q452 400 455 373 L477 500 L525 500 L505 384 Q543 443 599.5 476.5 Q656 510 722 510 Q767 510 798.5 499.5 Q830 489 850 472 Q870 455 879 433 Q888 411 888 388 Q888 359 875 333.5 Q862 308 834.5 289.5 Q807 271 764.5 260.5 Q722 250 664 250 L496 250 Q478 153 511 96 Q544 39 622 39 Q677 39 722.5 67 Q768 95 785 148 L847 148 Q835 110 811.5 80.5 Q788 51 757 31 Q726 11 689.5 0.5 Q653 -10 615 -10 Q552 -10 512 20 Q472 50 456 103 L438 0 L390 0 L411 124 Q399 98 379.5 74 Q360 50 334.5 31 Q309 12 279 1 Q249 -10 216 -10 Q167 -10 131 9 Q95 28 74 62.5 Q53 97 47 145 Q41 193 52 250 Q62 308 84.5 355.5 Q107 403 140 437.5 Q173 472 215.5 491 Q258 510 307 510 Z " />
<glyph glyph-name="oe" unicode="&#x153;" horiz-adv-x="925" d="M717 464 Q645 464 591.5 418.5 Q538 373 513 294 L673 294 Q754 294 792 318.5 Q830 343 830 382 Q830 397 823.5 412 Q817 427 803.5 438.5 Q790 450 768.5 457 Q747 464 717 464 Z M314 459 Q276 459 243.5 444 Q211 429 185 402 Q159 375 141 336.5 Q123 298 115 250 Q98 153 131 97 Q164 41 240 41 Q317 41 370 97 Q423 153 440 250 Q457 346 423.5 402.5 Q390 459 314 459 Z M323 510 Q392 510 436.5 476 Q481 442 496 382 Q535 442 595 476 Q655 510 727 510 Q771 510 803 499.5 Q835 489 855.5 472 Q876 455 885.5 433 Q895 411 895 388 Q895 359 882 333.5 Q869 308 841.5 289.5 Q814 271 771.5 260.5 Q729 250 671 250 L503 250 Q486 153 518.5 96 Q551 39 630 39 Q657 39 682.5 46 Q708 53 729.5 67 Q751 81 767 101 Q783 121 792 148 L855 148 Q843 110 819.5 80.5 Q796 51 765 31 Q734 11 697.5 0.5 Q661 -10 622 -10 Q552 -10 508 22.5 Q464 55 447 113 Q410 54 355.5 22 Q301 -10 232 -10 Q181 -10 142 8.5 Q103 27 79.5 61 Q56 95 48.5 143 Q41 191 52 250 Q62 309 86 357 Q110 405 145.5 439 Q181 473 226.5 491.5 Q272 510 323 510 Z " />
<glyph glyph-name="oslash" unicode="&#xf8;" horiz-adv-x="544" d="M314 458 Q276 458 243 443 Q210 428 183.5 401 Q157 374 139 335.5 Q121 297 113 250 Q98 162 125 109 L406 423 Q389 440 366 449 Q343 458 314 458 Z M442 250 Q449 293 446 329 Q443 365 429 391 L148 76 Q182 42 241 42 Q279 42 312 57 Q345 72 371 99 Q397 126 415 164.5 Q433 203 442 250 Z M323 510 Q362 510 393.5 499.5 Q425 489 448 469 L476 500 L526 500 L474 441 Q498 407 506.5 358.5 Q515 310 504 250 Q493 190 468.5 142 Q444 94 409 60.5 Q374 27 329 8.5 Q284 -10 232 -10 Q154 -10 106 30 L80 0 L28 0 L80 58 Q29 127 52 250 Q62 309 86 357 Q110 405 145 439 Q180 473 225 491.5 Q270 510 323 510 Z " />
<glyph glyph-name="zero" unicode="0" horiz-adv-x="583" d="M377 710 Q434 710 475 685.5 Q516 661 539.5 614.5 Q563 568 568.5 501.5 Q574 435 559 350 Q544 265 515 198.5 Q486 132 446 85.5 Q406 39 356.5 14.5 Q307 -10 250 -10 Q193 -10 152 14.5 Q111 39 87 85.5 Q63 132 57.5 198.5 Q52 265 67 350 Q82 435 111 501.5 Q140 568 180.5 614.5 Q221 661 270.5 685.5 Q320 710 377 710 Z M366 652 Q320 652 282.5 629.5 Q245 607 216 566.5 Q187 526 167 470.5 Q147 415 135 350 Q124 285 125 229.5 Q126 174 140.5 133.5 Q155 93 184.5 70.5 Q214 48 260 48 Q305 48 342.5 70.5 Q380 93 409 133.5 Q438 174 458 229.5 Q478 285 490 350 Q502 415 501 470.5 Q500 526 485.5 566.5 Q471 607 441.5 629.5 Q412 652 366 652 Z " />
<glyph glyph-name="one" unicode="1" horiz-adv-x="583" d="M151 0 L160 53 L300 53 L404 639 L204 515 L185 562 L414 700 L480 700 L365 53 L486 53 L477 0 L151 0 Z " />
<glyph glyph-name="two" unicode="2" horiz-adv-x="583" d="M17 0 L26 53 Q120 112 190.5 160.5 Q261 209 312 249 Q363 289 397 322.5 Q431 356 452 386 Q473 416 484 444 Q495 472 500 501 Q505 531 501 559 Q497 587 482 608 Q467 629 440 642 Q413 655 372 655 Q290 655 243 617 Q196 579 176 513 L115 513 Q126 558 150.5 594.5 Q175 631 210.5 656.5 Q246 682 290.5 696 Q335 710 386 710 Q442 710 480.5 693.5 Q519 677 541 649 Q563 621 569.5 583.5 Q576 546 569 505 Q560 454 535 407 Q510 360 458 308 Q406 256 321 194.5 Q236 133 107 53 L496 53 L487 0 L17 0 Z " />
<glyph glyph-name="three" unicode="3" horiz-adv-x="583" d="M287 386 Q388 386 438.5 422 Q489 458 501 528 Q506 556 502 580 Q498 604 482.5 621.5 Q467 639 438.5 649 Q410 659 367 659 Q288 659 243 625.5 Q198 592 181 533 L119 533 Q131 573 154 606 Q177 639 210.5 662 Q244 685 286.5 697.5 Q329 710 379 710 Q434 710 473.5 696.5 Q513 683 537 660 Q561 637 569.5 604.5 Q578 572 571 535 Q556 453 499.5 410 Q443 367 356 360 Q445 355 488 311 Q531 267 517 184 Q510 144 487.5 109 Q465 74 430.5 47.5 Q396 21 349.5 5.5 Q303 -10 248 -10 Q198 -10 159.5 3 Q121 16 95 40 Q69 64 57 97 Q45 130 48 171 L111 171 Q107 111 143 76 Q179 41 258 41 Q301 41 334.5 53 Q368 65 392 85.5 Q416 106 430.5 132 Q445 158 450 187 Q463 258 422 295.5 Q381 333 277 333 L287 386 Z " />
<glyph glyph-name="four" unicode="4" horiz-adv-x="583" d="M437 634 L117 263 L372 263 L437 634 Z M326 0 L362 210 L49 210 L59 264 L434 700 L514 700 L437 263 L539 263 L529 210 L427 210 L391 0 L326 0 Z " />
<glyph glyph-name="five" unicode="5" horiz-adv-x="583" d="M570 700 L560 647 L232 647 L183 435 Q212 440 248.5 444.5 Q285 449 330 449 Q388 449 429.5 432.5 Q471 416 496 387 Q521 358 529.5 318 Q538 278 530 231 Q521 179 495.5 135 Q470 91 432 58.5 Q394 26 345 8 Q296 -10 240 -10 Q139 -10 89.5 40 Q40 90 47 173 L108 173 Q103 114 137 77.5 Q171 41 250 41 Q293 41 328.5 55 Q364 69 391.5 94 Q419 119 437 153 Q455 187 462 227 Q468 263 463.5 294.5 Q459 326 440.5 349.5 Q422 373 388.5 386 Q355 399 305 399 Q257 399 208 394.5 Q159 390 111 381 L186 700 L570 700 Z " />
<glyph glyph-name="six" unicode="6" horiz-adv-x="583" d="M130 310 Q121 251 125 202 Q129 153 146 118 Q163 83 193 63.5 Q223 44 268 44 Q311 44 345.5 58 Q380 72 405 96.5 Q430 121 446 154.5 Q462 188 469 227 Q475 261 472.5 293.5 Q470 326 454.5 351 Q439 376 409.5 391 Q380 406 332 406 Q273 406 220 378 Q167 350 130 310 Z M401 710 Q443 710 477.5 698.5 Q512 687 536 665 Q560 643 572.5 612 Q585 581 582 541 L521 541 Q523 601 486 631 Q449 661 392 661 Q343 661 302 638.5 Q261 616 228.5 576 Q196 536 173 480.5 Q150 425 137 358 Q177 398 231.5 426 Q286 454 353 454 Q413 454 451.5 435 Q490 416 511 385 Q532 354 537 314 Q542 274 535 231 Q526 182 503.5 138.5 Q481 95 445.5 62 Q410 29 362 9.5 Q314 -10 256 -10 Q196 -10 153.5 14 Q111 38 87 83 Q63 128 58 193 Q53 258 68 339 Q83 422 112.5 490.5 Q142 559 185 607.5 Q228 656 282.5 683 Q337 710 401 710 Z " />
<glyph glyph-name="seven" unicode="7" horiz-adv-x="583" d="M141 0 L539 647 L128 647 L138 700 L612 700 L603 647 L211 0 L141 0 Z " />
<glyph glyph-name="eight" unicode="8" horiz-adv-x="583" d="M377 710 Q431 710 470 696.5 Q509 683 532.5 659 Q556 635 564.5 602.5 Q573 570 566 532 Q555 469 508 423.5 Q461 378 380 366 Q458 360 498 311.5 Q538 263 524 183 Q508 95 437 42.5 Q366 -10 250 -10 Q133 -10 80 42.5 Q27 95 43 183 Q50 223 68.5 255 Q87 287 114 310.5 Q141 334 176 348 Q211 362 250 365 Q175 378 143.5 423.5 Q112 469 123 532 Q130 570 150 602.5 Q170 635 202.5 659 Q235 683 279 696.5 Q323 710 377 710 Z M311 340 Q277 340 244 332 Q211 324 183 306.5 Q155 289 135.5 260.5 Q116 232 109 191 Q97 126 134.5 85 Q172 44 259 44 Q346 44 398.5 85 Q451 126 462 191 Q469 232 459 260.5 Q449 289 427.5 306.5 Q406 324 375.5 332 Q345 340 311 340 Z M367 659 Q289 659 243 621 Q197 583 186 526 Q175 457 213.5 423.5 Q252 390 320 390 Q354 390 384.5 398.5 Q415 407 439 424 Q463 441 479 466.5 Q495 492 501 526 Q511 583 478 621 Q445 659 367 659 Z " />
<glyph glyph-name="nine" unicode="9" horiz-adv-x="583" d="M358 656 Q315 656 281 642 Q247 628 221.5 603.5 Q196 579 179.5 545.5 Q163 512 156 473 Q150 438 153 406 Q156 374 171 349 Q186 324 215.5 309 Q245 294 293 294 Q352 294 405.5 322 Q459 350 496 390 Q505 449 501 498 Q497 547 480 582 Q463 617 433 636.5 Q403 656 358 656 Z M370 710 Q430 710 472.5 686 Q515 662 538.5 617 Q562 572 567 507 Q572 442 558 361 Q543 278 513.5 209.5 Q484 141 441 92 Q398 43 343.5 16.5 Q289 -10 225 -10 Q184 -10 149.5 1 Q115 12 90.5 33.5 Q66 55 53 86.5 Q40 118 43 159 L103 159 Q101 99 138.5 69 Q176 39 234 39 Q282 39 323 61.5 Q364 84 396.5 124 Q429 164 452.5 219.5 Q476 275 489 342 Q449 302 394.5 274 Q340 246 273 246 Q213 246 174 265 Q135 284 114 315 Q93 346 88 386 Q83 426 90 469 Q99 518 122 561.5 Q145 605 181 638 Q217 671 264.5 690.5 Q312 710 370 710 Z " />
<glyph glyph-name="dollar" unicode="&#x24;" horiz-adv-x="599" d="M167 520 Q161 488 170.5 467.5 Q180 447 199.5 433 Q219 419 246.5 410.5 Q274 402 306 396 L352 655 Q307 652 274 639.5 Q241 627 218.5 608 Q196 589 183.5 566 Q171 543 167 520 Z M484 185 Q490 222 480.5 246 Q471 270 450 286 Q429 302 399.5 311 Q370 320 337 327 L287 44 Q332 47 366.5 60 Q401 73 425.5 92.5 Q450 112 464.5 136.5 Q479 161 484 185 Z M219 -102 L235 -9 Q185 -6 146.5 8 Q108 22 81.5 45.5 Q55 69 42 99 Q29 129 30 164 L96 164 Q96 117 132 83.5 Q168 50 245 45 L296 335 Q255 343 216.5 353 Q178 363 149.5 382 Q121 401 107 432.5 Q93 464 102 515 Q108 550 128 583.5 Q148 617 180.5 644 Q213 671 258.5 688.5 Q304 706 362 709 L377 794 L419 794 L404 709 Q454 707 492 692.5 Q530 678 555 655 Q580 632 592.5 601.5 Q605 571 605 537 L540 537 Q538 583 505 616.5 Q472 650 394 655 L347 388 Q389 380 429.5 369.5 Q470 359 500 338 Q530 317 545 283 Q560 249 551 194 Q544 156 522.5 120.5 Q501 85 466 57 Q431 29 383.5 11.5 Q336 -6 277 -9 L261 -102 L219 -102 Z " />
<glyph glyph-name="cent" unicode="&#xa2;" horiz-adv-x="536" d="M142 359 Q127 272 155.5 214.5 Q184 157 252 149 L326 569 Q290 565 259.5 548 Q229 531 205.5 503 Q182 475 165.5 438.5 Q149 402 142 359 Z M227 3 L244 100 Q197 104 162 124 Q127 144 106.5 178 Q86 212 80 257.5 Q74 303 84 359 Q94 414 116.5 460 Q139 506 171.5 540 Q204 574 245.5 594 Q287 614 335 618 L349 698 L385 698 L371 618 Q443 615 487.5 573 Q532 531 534 454 L474 454 Q472 502 443 534 Q414 566 362 570 L287 149 Q341 154 381 185.5 Q421 217 441 265 L501 265 Q471 187 412.5 145 Q354 103 279 99 L262 3 L227 3 Z " />
<glyph glyph-name="sterling" unicode="&#xa3;" horiz-adv-x="599" d="M186 317 Q187 283 184.5 249 Q182 215 173 181.5 Q164 148 145 115 Q126 82 94 49 L485 49 L477 0 L22 0 L30 49 Q63 83 81.5 116.5 Q100 150 108.5 183.5 Q117 217 118 250 Q119 283 118 317 L48 317 L54 354 L115 354 Q113 389 113 425.5 Q113 462 120 500 Q126 537 145.5 574.5 Q165 612 198.5 642 Q232 672 279.5 691 Q327 710 389 710 Q443 710 482 697 Q521 684 546.5 661.5 Q572 639 584.5 608.5 Q597 578 597 543 L532 543 Q531 566 523 586.5 Q515 607 497 622.5 Q479 638 449.5 647 Q420 656 378 656 Q330 656 296.5 641.5 Q263 627 240.5 604.5 Q218 582 206 555 Q194 528 190 503 Q183 465 183 428 Q183 391 185 354 L415 354 L409 317 L186 317 Z " />
<glyph glyph-name="yen" unicode="&#xa5;" horiz-adv-x="570" d="M331 305 L313 203 L436 203 L428 163 L306 163 L278 0 L211 0 L239 163 L121 163 L128 203 L246 203 L264 305 L90 305 L97 344 L259 344 L97 700 L176 700 L314 383 L567 700 L640 700 L351 344 L517 344 L510 305 L331 305 Z " />
<glyph glyph-name="florin" unicode="&#x192;" horiz-adv-x="355" d="M366 709 Q382 709 398.5 707 Q415 705 434 701 L424 649 Q391 658 364 658 Q269 658 251 556 L242 500 L399 500 L390 452 L233 452 L143 -56 Q129 -134 82.5 -172 Q36 -210 -33 -210 Q-49 -210 -65.5 -208 Q-82 -206 -101 -202 L-92 -150 Q-58 -159 -31 -159 Q63 -159 81 -56 L171 452 L90 452 L99 500 L180 500 L189 555 Q203 633 249.5 671 Q296 709 366 709 Z " />
<glyph glyph-name="numbersign" unicode="&#x23;" horiz-adv-x="656" d="M232 246 L430 246 L466 453 L268 453 L232 246 Z M130 0 L165 198 L51 198 L59 246 L173 246 L209 453 L96 453 L104 501 L218 501 L253 700 L312 700 L277 501 L475 501 L510 700 L570 700 L535 501 L648 501 L640 453 L526 453 L490 246 L603 246 L594 198 L482 198 L447 0 L387 0 L422 198 L224 198 L189 0 L130 0 Z " />
<glyph glyph-name="currency" unicode="&#xa4;" horiz-adv-x="688" d="M403 559 Q365 559 334 543.5 Q303 528 280 501.5 Q257 475 241.5 440 Q226 405 219 366 Q212 326 215 290.5 Q218 255 232 229 Q246 203 271.5 187.5 Q297 172 335 172 Q373 172 403.5 187.5 Q434 203 457 229 Q480 255 495.5 290.5 Q511 326 518 366 Q525 405 522 440 Q519 475 505.5 501.5 Q492 528 466.5 543.5 Q441 559 403 559 Z M412 611 Q459 611 492 594 Q525 577 545 548 L700 680 L731 643 L571 507 Q583 477 585 440.5 Q587 404 580 366 Q566 284 522 223 L633 88 L590 51 L482 182 Q451 153 412.5 136.5 Q374 120 326 120 Q277 120 243.5 137 Q210 154 190 183 L36 52 L5 88 L164 224 Q143 284 157 366 Q164 405 178 441 Q192 477 214 506 L103 642 L146 679 L254 547 Q285 576 324.5 593.5 Q364 611 412 611 Z " />
<glyph glyph-name="percent" unicode="&#x25;" horiz-adv-x="797" d="M610 369 Q649 369 677 355 Q705 341 722 316 Q739 291 743.5 256 Q748 221 741 180 Q734 139 716.5 104.5 Q699 70 673.5 44.5 Q648 19 615.5 4.5 Q583 -10 544 -10 Q505 -10 477 4 Q449 18 432 43 Q415 68 410 103 Q405 138 412 179 Q419 220 436.5 254.5 Q454 289 479.5 314.5 Q505 340 538 354.5 Q571 369 610 369 Z M601 324 Q545 324 509.5 284 Q474 244 463 180 Q452 115 475.5 75.5 Q499 36 551 36 Q608 36 643.5 76 Q679 116 690 180 Q701 245 677.5 284.5 Q654 324 601 324 Z M780 700 L131 0 L61 0 L709 700 L780 700 Z M297 710 Q336 710 364 696 Q392 682 408.5 657 Q425 632 429.5 597 Q434 562 427 521 Q420 480 403 445.5 Q386 411 360.5 385.5 Q335 360 302 345.5 Q269 331 230 331 Q191 331 163 345 Q135 359 118 384 Q101 409 96 444 Q91 479 98 520 Q105 560 122.5 595 Q140 630 165.5 655.5 Q191 681 224.5 695.5 Q258 710 297 710 Z M288 665 Q231 665 196 625 Q161 585 149 521 Q138 456 161.5 416.5 Q185 377 238 377 Q295 377 330 417 Q365 457 376 521 Q388 586 364.5 625.5 Q341 665 288 665 Z " />
<glyph glyph-name="perthousand" unicode="&#x2030;" horiz-adv-x="1172" d="M985 369 Q1024 369 1052 355 Q1080 341 1096.5 316 Q1113 291 1118 256 Q1123 221 1116 180 Q1108 139 1091 104.5 Q1074 70 1048.5 44.5 Q1023 19 990 4.5 Q957 -10 918 -10 Q879 -10 851 4 Q823 18 806.5 43 Q790 68 785 103 Q780 138 787 179 Q794 220 811 254.5 Q828 289 853.5 314.5 Q879 340 912.5 354.5 Q946 369 985 369 Z M976 324 Q920 324 884.5 284 Q849 244 838 180 Q827 115 850 75.5 Q873 36 926 36 Q983 36 1018 76 Q1053 116 1064 180 Q1075 245 1052 284.5 Q1029 324 976 324 Z M610 369 Q649 369 677 355 Q705 341 722 316 Q739 291 743.5 256 Q748 221 741 180 Q734 139 716.5 104.5 Q699 70 673.5 44.5 Q648 19 615.5 4.5 Q583 -10 544 -10 Q505 -10 477 4 Q449 18 432 43 Q415 68 410 103 Q405 138 412 179 Q419 220 436.5 254.5 Q454 289 479.5 314.5 Q505 340 538 354.5 Q571 369 610 369 Z M601 324 Q545 324 509.5 284 Q474 244 463 180 Q452 115 475.5 75.5 Q499 36 551 36 Q608 36 643.5 76 Q679 116 690 180 Q701 245 677.5 284.5 Q654 324 601 324 Z M780 700 L131 0 L61 0 L709 700 L780 700 Z M297 710 Q336 710 364 696 Q392 682 408.5 657 Q425 632 429.5 597 Q434 562 427 521 Q420 480 403 445.5 Q386 411 360.5 385.5 Q335 360 302 345.5 Q269 331 230 331 Q191 331 163 345 Q135 359 118 384 Q101 409 96 444 Q91 479 98 520 Q105 560 122.5 595 Q140 630 165.5 655.5 Q191 681 224.5 695.5 Q258 710 297 710 Z M288 665 Q231 665 196 625 Q161 585 149 521 Q138 456 161.5 416.5 Q185 377 238 377 Q295 377 330 417 Q365 457 376 521 Q388 586 364.5 625.5 Q341 665 288 665 Z " />
<glyph glyph-name="&amp;#x2044;" unicode="&#x2044;" horiz-adv-x="591" d="M-40 0 L611 700 L674 700 L23 0 L-40 0 Z " />
<glyph glyph-name="&amp;#x2215;" unicode="&#x2215;" horiz-adv-x="591" d="M-40 0 L611 700 L674 700 L23 0 L-40 0 Z " />
<glyph glyph-name="asciicircum" unicode="&#x5e;" horiz-adv-x="583" d="M563 483 L520 446 L363 636 L140 446 L109 483 L376 710 L563 483 Z " />
<glyph glyph-name="asciitilde" unicode="&#x7e;" horiz-adv-x="583" d="M249 630 Q287 630 315 615 Q343 600 366 582 Q389 564 411 549 Q433 534 459 534 Q491 534 512 550.5 Q533 567 548 610 L584 590 Q563 526 526.5 502.5 Q490 479 449 479 Q413 479 387.5 494 Q362 509 339 526.5 Q316 544 292.5 559 Q269 574 238 574 Q206 574 185 557 Q164 540 150 498 L113 518 Q135 582 171 606 Q207 630 249 630 Z " />
<glyph glyph-name="&amp;#xb7;" unicode="&#xb7;" horiz-adv-x="578" d="M340 318 L327 247 L257 247 L269 318 L340 318 Z " />
<glyph glyph-name="&amp;#x2219;" unicode="&#x2219;" horiz-adv-x="578" d="M340 318 L327 247 L257 247 L269 318 L340 318 Z " />
<glyph glyph-name="plus" unicode="&#x2b;" horiz-adv-x="583" d="M333 319 L559 319 L550 266 L324 266 L284 41 L232 41 L272 266 L47 266 L56 319 L281 319 L321 544 L373 544 L333 319 Z " />
<glyph glyph-name="plusminus" unicode="&#xb1;" horiz-adv-x="583" d="M-30 51 L-21 104 L482 104 L473 51 L-30 51 Z M316 450 L542 450 L533 397 L307 397 L267 172 L215 172 L255 397 L30 397 L39 450 L264 450 L304 675 L356 675 L316 450 Z " />
<glyph glyph-name="less" unicode="&#x3c;" horiz-adv-x="583" d="M137 293 L495 75 L462 30 L68 272 L76 315 L555 557 L572 512 L137 293 Z " />
<glyph glyph-name="equal" unicode="&#x3d;" horiz-adv-x="583" d="M66 374 L75 427 L578 427 L569 374 L66 374 Z M27 158 L37 211 L540 211 L530 158 L27 158 Z " />
<glyph glyph-name="greater" unicode="&#x3e;" horiz-adv-x="578" d="M468 294 L110 512 L144 557 L537 315 L530 272 L51 30 L34 75 L468 294 Z " />
<glyph glyph-name="approxequal" unicode="&#x2248;" horiz-adv-x="578" d="M182 249 Q220 249 247.5 234 Q275 219 298.5 201 Q322 183 344 168 Q366 153 392 153 Q424 153 445 169.5 Q466 186 481 229 L517 209 Q495 145 459.5 121.5 Q424 98 382 98 Q346 98 320 113 Q294 128 271.5 145.5 Q249 163 225.5 178 Q202 193 171 193 Q139 193 118 176 Q97 159 82 117 L45 137 Q68 201 104 225 Q140 249 182 249 Z M221 471 Q259 471 287 456 Q315 441 338 423 Q361 405 383 390 Q405 375 431 375 Q463 375 484 391.5 Q505 408 520 451 L557 431 Q535 367 499 343.5 Q463 320 421 320 Q385 320 359 335 Q333 350 310.5 368 Q288 386 264.5 401 Q241 416 210 416 Q178 416 157 399 Q136 382 121 339 L85 359 Q107 423 143 447 Q179 471 221 471 Z " />
<glyph glyph-name="notequal" unicode="&#x2260;" horiz-adv-x="583" d="M237 158 L140 30 L82 30 L179 158 L-13 158 L-3 211 L219 211 L343 374 L26 374 L35 427 L383 427 L470 541 L527 541 L440 427 L538 427 L529 374 L400 374 L277 211 L500 211 L490 158 L237 158 Z " />
<glyph glyph-name="lessequal" unicode="&#x2264;" horiz-adv-x="583" d="M5 28 L14 81 L517 81 L508 28 L5 28 Z M159 401 L510 189 L476 143 L90 381 L97 423 L567 660 L585 615 L159 401 Z " />
<glyph glyph-name="greaterequal" unicode="&#x2265;" horiz-adv-x="578" d="M5 28 L14 81 L517 81 L508 28 L5 28 Z M481 402 L132 615 L164 660 L550 423 L543 381 L73 143 L56 189 L481 402 Z " />
<glyph glyph-name="divide" unicode="&#xf7;" horiz-adv-x="583" d="M272 145 L259 70 L187 70 L200 145 L272 145 Z M339 523 L326 448 L254 448 L267 523 L339 523 Z M7 266 L16 319 L519 319 L510 266 L7 266 Z " />
<glyph glyph-name="partialdiff" unicode="&#x2202;" horiz-adv-x="583" d="M316 429 Q268 429 233 412.5 Q198 396 173 368.5 Q148 341 133.5 305.5 Q119 270 113 233 Q107 194 110.5 159.5 Q114 125 130 99.5 Q146 74 175.5 59 Q205 44 250 44 Q295 44 332 64 Q369 84 398 121 Q427 158 448 209 Q469 260 482 322 Q471 342 454.5 361 Q438 380 417 395 Q396 410 371 419.5 Q346 429 316 429 Z M312 710 Q382 710 434 685 Q486 660 517.5 613.5 Q549 567 559 500.5 Q569 434 554 351 Q539 266 511.5 199 Q484 132 444.5 85.5 Q405 39 354 14.5 Q303 -10 243 -10 Q182 -10 141 10 Q100 30 76.5 63.5 Q53 97 46.5 141.5 Q40 186 48 235 Q55 280 75 323.5 Q95 367 128 401 Q161 435 207 456 Q253 477 313 477 Q346 477 374 468 Q402 459 424 444 Q446 429 462.5 409.5 Q479 390 491 370 Q501 436 493 490 Q485 544 459.5 582.5 Q434 621 391.5 641.5 Q349 662 291 662 L312 710 Z " />
<glyph glyph-name="product" unicode="&#x220f;" horiz-adv-x="656" d="M468 0 L582 647 L223 647 L109 0 L44 0 L167 700 L655 700 L532 0 L468 0 Z " />
<glyph glyph-name="summation" unicode="&#x2211;" horiz-adv-x="599" d="M640 700 L631 647 L195 647 L367 369 L81 53 L537 53 L529 0 L-4 0 L4 54 L290 369 L120 645 L129 700 L640 700 Z " />
<glyph glyph-name="radical" unicode="&#x221a;" horiz-adv-x="630" d="M253 0 L164 446 L43 446 L53 500 L220 500 L304 64 L654 700 L713 700 L331 0 L253 0 Z " />
<glyph glyph-name="infinity" unicode="&#x221e;" horiz-adv-x="788" d="M265 506 Q208 506 170.5 465 Q133 424 121 355 Q108 286 132.5 245.5 Q157 205 214 205 Q246 205 271 217 Q296 229 316.5 248.5 Q337 268 354 293.5 Q371 319 386 346 Q381 377 374 406 Q367 435 354 457.5 Q341 480 319.5 493 Q298 506 265 506 Z M280 569 Q319 569 346 556.5 Q373 544 390 523 Q407 502 417.5 474 Q428 446 434 415 Q452 446 472 474 Q492 502 516.5 523 Q541 544 570.5 556.5 Q600 569 636 569 Q713 569 745 513 Q777 457 760 356 Q751 306 732 266.5 Q713 227 685.5 199.5 Q658 172 624 157.5 Q590 143 552 143 Q513 143 486 155 Q459 167 442 188 Q425 209 414.5 237 Q404 265 398 297 Q381 266 361 238 Q341 210 316.5 189 Q292 168 262.5 155.5 Q233 143 196 143 Q120 143 87.5 199 Q55 255 72 355 Q90 456 146.5 512.5 Q203 569 280 569 Z M618 506 Q586 506 561 494 Q536 482 515 462.5 Q494 443 477 417.5 Q460 392 445 365 Q450 333 457 304.5 Q464 276 477.5 254 Q491 232 513 219 Q535 206 568 206 Q624 206 661.5 246.5 Q699 287 711 356 Q723 425 699 465.5 Q675 506 618 506 Z " />
<glyph glyph-name="integral" unicode="&#x222b;" horiz-adv-x="582" d="M315 537 Q331 625 384.5 668.5 Q438 712 530 701 L520 647 Q396 662 374 535 L273 -44 Q257 -132 203.5 -175.5 Q150 -219 58 -208 L67 -153 Q129 -161 165.5 -134.5 Q202 -108 213 -44 L315 537 Z " />
<glyph glyph-name="lozenge" unicode="&#x25ca;" horiz-adv-x="462" d="M164 -147 L381 239 L303 636 L87 249 L164 -147 Z M190 -211 L112 -211 L25 244 L277 700 L355 700 L443 245 L190 -211 Z " />
<glyph glyph-name="logicalnot" unicode="&#xac;" horiz-adv-x="583" d="M438 0 L485 266 L47 266 L56 319 L559 319 L503 0 L438 0 Z " />
<glyph glyph-name="bar" unicode="&#x7c;" horiz-adv-x="294" d="M37 -211 L198 700 L263 700 L102 -211 L37 -211 Z " />
<glyph glyph-name="degree" unicode="&#xb0;" horiz-adv-x="424" d="M297 710 Q336 710 364 696 Q392 682 408.5 657 Q425 632 429.5 597 Q434 562 427 521 Q420 480 403 445.5 Q386 411 360.5 385.5 Q335 360 302 345.5 Q269 331 230 331 Q191 331 163 345 Q135 359 118 384 Q101 409 96 444 Q91 479 98 520 Q105 560 122.5 595 Q140 630 165.5 655.5 Q191 681 224.5 695.5 Q258 710 297 710 Z M288 665 Q231 665 196 625 Q161 585 149 521 Q138 456 161.5 416.5 Q185 377 238 377 Q295 377 330 417 Q365 457 376 521 Q388 586 364.5 625.5 Q341 665 288 665 Z " />
<glyph glyph-name="ordfeminine" unicode="&#xaa;" horiz-adv-x="575" d="M311 685 Q233 685 183 627.5 Q133 570 117 476 Q108 429 111.5 390.5 Q115 352 130 324.5 Q145 297 172 282 Q199 267 237 267 Q278 267 311 283.5 Q344 300 368.5 328 Q393 356 409 393 Q425 430 432 470 Q442 525 437.5 565.5 Q433 606 416.5 632.5 Q400 659 372.5 672 Q345 685 311 685 Z M307 736 Q343 736 369.5 725 Q396 714 414 695 Q432 676 442 651 Q452 626 455 599 L477 726 L539 726 L452 226 L390 226 L411 350 Q399 324 379.5 300 Q360 276 334.5 257 Q309 238 279 227 Q249 216 216 216 Q167 216 131 235 Q95 254 74 288.5 Q53 323 47 371 Q41 419 52 476 Q62 534 84.5 581.5 Q107 629 140 663.5 Q173 698 215.5 717 Q258 736 307 736 Z " />
<glyph glyph-name="ordmasculine" unicode="&#xba;" horiz-adv-x="547" d="M323 736 Q374 736 412.5 717.5 Q451 699 474.5 665 Q498 631 506 583 Q514 535 504 476 Q493 417 468.5 369 Q444 321 408.5 287 Q373 253 328 234.5 Q283 216 232 216 Q181 216 142 234.5 Q103 253 79.5 287 Q56 321 48.5 369 Q41 417 52 476 Q62 535 86 583 Q110 631 145.5 665 Q181 699 226.5 717.5 Q272 736 323 736 Z M314 685 Q276 685 243.5 670 Q211 655 185 628 Q159 601 141 562.5 Q123 524 115 476 Q98 379 131 323 Q164 267 240 267 Q317 267 370 323 Q423 379 440 476 Q457 572 423.5 628.5 Q390 685 314 685 Z " />
<glyph glyph-name="underscore" unicode="&#x5f;" horiz-adv-x="583" d="M-45 -134 L-35 -80 L511 -80 L501 -134 L-45 -134 Z " />
<glyph glyph-name="emdash" unicode="&#x2014;" horiz-adv-x="1013" d="M57 265 L66 319 L978 319 L969 265 L57 265 Z " />
<glyph glyph-name="endash" unicode="&#x2013;" horiz-adv-x="648" d="M57 265 L66 319 L613 319 L604 265 L57 265 Z " />
<glyph glyph-name="&amp;#x2d;" unicode="&#x2d;" horiz-adv-x="328" d="M56 265 L66 319 L294 319 L284 265 L56 265 Z " />
<glyph glyph-name="&amp;#xad;" unicode="&#xad;" horiz-adv-x="328" d="M56 265 L66 319 L294 319 L284 265 L56 265 Z " />
<glyph glyph-name="guillemotleft" unicode="&#xab;" horiz-adv-x="525" d="M517 464 L303 276 L451 89 L419 60 L245 254 L253 299 L495 493 L517 464 Z M326 464 L113 276 L260 89 L228 60 L54 254 L62 299 L305 493 L326 464 Z " />
<glyph glyph-name="guilsinglleft" unicode="&#x2039;" horiz-adv-x="335" d="M326 464 L113 276 L260 89 L228 60 L54 254 L62 299 L305 493 L326 464 Z " />
<glyph glyph-name="guilsinglright" unicode="&#x203a;" horiz-adv-x="335" d="M297 299 L289 254 L47 60 L25 89 L239 277 L91 464 L123 493 L297 299 Z " />
<glyph glyph-name="guillemotright" unicode="&#xbb;" horiz-adv-x="525" d="M297 299 L289 254 L47 60 L25 89 L239 277 L91 464 L123 493 L297 299 Z M488 299 L480 254 L237 60 L216 89 L429 277 L282 464 L313 493 L488 299 Z " />
<glyph glyph-name="quotesingle" unicode="&#x27;" horiz-adv-x="172" d="M119 513 L135 709 L206 709 L155 513 L119 513 Z " />
<glyph glyph-name="quotedbl" unicode="&#x22;" horiz-adv-x="300" d="M247 513 L263 709 L334 709 L282 513 L247 513 Z M119 513 L135 709 L206 709 L155 513 L119 513 Z " />
<glyph glyph-name="quotedblleft" unicode="&#x201c;" horiz-adv-x="330" d="M287 521 L221 521 L327 717 L365 717 L287 521 Z M166 521 L100 521 L206 717 L243 717 L166 521 Z " />
<glyph glyph-name="quotesinglbase" unicode="&#x201a;" horiz-adv-x="208" d="M64 76 L130 76 L24 -120 L-13 -120 L64 76 Z " />
<glyph glyph-name="quotedblbase" unicode="&#x201e;" horiz-adv-x="330" d="M186 76 L251 76 L146 -120 L108 -120 L186 76 Z M64 76 L130 76 L24 -120 L-13 -120 L64 76 Z " />
<glyph glyph-name="quotedblright" unicode="&#x201d;" horiz-adv-x="330" d="M298 709 L363 709 L258 513 L220 513 L298 709 Z M176 709 L242 709 L136 513 L98 513 L176 709 Z " />
<glyph glyph-name="quoteright" unicode="&#x2019;" horiz-adv-x="201" d="M176 709 L242 709 L136 513 L98 513 L176 709 Z " />
<glyph glyph-name="quoteleft" unicode="&#x2018;" horiz-adv-x="208" d="M168 521 L103 521 L209 717 L246 717 L168 521 Z " />
<glyph glyph-name="comma" unicode="&#x2c;" horiz-adv-x="214" d="M67 83 L137 83 L25 -134 L-15 -134 L67 83 Z " />
<glyph glyph-name="period" unicode="&#x2e;" horiz-adv-x="215" d="M116 75 L103 0 L31 0 L44 75 L116 75 Z " />
<glyph glyph-name="colon" unicode="&#x3a;" horiz-adv-x="215" d="M191 500 L178 425 L105 425 L119 500 L191 500 Z M116 75 L103 0 L31 0 L44 75 L116 75 Z " />
<glyph glyph-name="semicolon" unicode="&#x3b;" horiz-adv-x="217" d="M27 83 L97 83 L-15 -134 L-55 -134 L27 83 Z M191 500 L178 425 L105 425 L119 500 L191 500 Z " />
<glyph glyph-name="ellipsis" unicode="&#x2026;" horiz-adv-x="885" d="M133 75 L120 0 L48 0 L61 75 L133 75 Z M689 75 L676 0 L604 0 L617 75 L689 75 Z M411 75 L398 0 L326 0 L339 75 L411 75 Z " />
<glyph glyph-name="question" unicode="&#x3f;" horiz-adv-x="531" d="M237 70 L225 0 L156 0 L167 70 L237 70 Z M357 710 Q410 710 447 695.5 Q484 681 505.5 656.5 Q527 632 534 600 Q541 568 535 534 Q526 486 503.5 451 Q481 416 451.5 388 Q422 360 389 335.5 Q356 311 326.5 284.5 Q297 258 275.5 226 Q254 194 246 150 L187 150 Q196 201 218.5 238 Q241 275 270.5 304.5 Q300 334 332 358.5 Q364 383 392.5 408.5 Q421 434 442.5 464 Q464 494 471 534 Q475 555 471 576.5 Q467 598 453 615.5 Q439 633 412.5 644.5 Q386 656 346 656 Q307 656 278 647 Q249 638 228 622.5 Q207 607 192.5 585.5 Q178 564 169 540 L105 540 Q118 576 140 607 Q162 638 193.5 661 Q225 684 265.5 697 Q306 710 357 710 Z " />
<glyph glyph-name="questiondown" unicode="&#xbf;" horiz-adv-x="531" d="M384 500 L371 430 L301 430 L314 500 L384 500 Z M351 350 Q342 299 319.5 262 Q297 225 268 195.5 Q239 166 206.5 141.5 Q174 117 145.5 91.5 Q117 66 95.5 36 Q74 6 67 -34 Q63 -55 67 -76.5 Q71 -98 85 -115.5 Q99 -133 125 -144.5 Q151 -156 192 -156 Q231 -156 260 -147 Q289 -138 310 -122.5 Q331 -107 345.5 -85.5 Q360 -64 369 -40 L434 -40 Q421 -76 399 -107 Q377 -138 345.5 -161 Q314 -184 273 -197 Q232 -210 181 -210 Q128 -210 91 -195.5 Q54 -181 32.5 -156.5 Q11 -132 4.5 -100.5 Q-2 -69 4 -34 Q12 14 34.5 49 Q57 84 86.5 112 Q116 140 149 164.5 Q182 189 211.5 215.5 Q241 242 263 274 Q285 306 293 350 L351 350 Z " />
<glyph glyph-name="exclam" unicode="&#x21;" horiz-adv-x="262" d="M137 70 L126 0 L56 0 L68 70 L137 70 Z M255 700 L149 167 L91 167 L173 700 L255 700 Z " />
<glyph glyph-name="exclamdown" unicode="&#xa1;" horiz-adv-x="262" d="M214 500 L201 430 L132 430 L144 500 L214 500 Z M178 333 L96 -200 L14 -200 L120 333 L178 333 Z " />
<glyph glyph-name="parenleft" unicode="&#x28;" horiz-adv-x="333" d="M405 668 Q359 662 319 629 Q279 596 246 541 Q213 486 188 412 Q163 338 147 249 Q131 160 130 86 Q129 12 143 -42.5 Q157 -97 185.5 -130 Q214 -163 257 -170 L250 -211 Q196 -204 155.5 -169.5 Q115 -135 92.5 -75.5 Q70 -16 65.5 66 Q61 148 79 249 Q97 351 130 433 Q163 515 207 574.5 Q251 634 303.5 668.5 Q356 703 413 710 L405 668 Z " />
<glyph glyph-name="parenright" unicode="&#x29;" horiz-adv-x="333" d="M90 710 Q144 703 184.5 668.5 Q225 634 247.5 574.5 Q270 515 274 433 Q278 351 260 250 Q242 148 209.5 66 Q177 -16 133 -75.5 Q89 -135 37 -169.5 Q-15 -204 -72 -211 L-64 -170 Q-18 -163 22 -130 Q62 -97 94.5 -42.5 Q127 12 152 86.5 Q177 161 193 250 Q209 339 210 413 Q211 487 197.5 541.5 Q184 596 155 629 Q126 662 83 668 L90 710 Z " />
<glyph glyph-name="bracketleft" unicode="&#x5b;" horiz-adv-x="327" d="M17 -211 L178 700 L371 700 L364 662 L230 662 L83 -173 L217 -173 L210 -211 L17 -211 Z " />
<glyph glyph-name="bracketright" unicode="&#x5d;" horiz-adv-x="327" d="M315 700 L154 -211 L-39 -211 L-31 -173 L102 -173 L249 662 L116 662 L122 700 L315 700 Z " />
<glyph glyph-name="braceleft" unicode="&#x7b;" horiz-adv-x="352" d="M399 667 Q361 667 336 657.5 Q311 648 294.5 630.5 Q278 613 269 589 Q260 565 255 536 Q248 498 248.5 460 Q249 422 241 382 Q230 322 202.5 290 Q175 258 130 250 Q172 242 189 209 Q206 176 195 116 Q187 76 174.5 38.5 Q162 1 155 -37 Q150 -66 150.5 -90.5 Q151 -115 161.5 -132.5 Q172 -150 193.5 -159.5 Q215 -169 252 -169 L241 -211 Q189 -211 157 -197.5 Q125 -184 109 -161.5 Q93 -139 90 -109 Q87 -79 93 -45 Q100 -9 111.5 30 Q123 69 129 105 Q150 224 69 224 L52 224 L61 275 L78 275 Q159 275 180 394 Q186 430 188.5 468.5 Q191 507 197 544 Q203 577 216.5 607 Q230 637 254.5 659.5 Q279 682 315.5 695.5 Q352 709 404 709 L399 667 Z " />
<glyph glyph-name="braceright" unicode="&#x7d;" horiz-adv-x="352" d="M118 709 Q170 709 202 695.5 Q234 682 250 659.5 Q266 637 268.5 607 Q271 577 265 543 Q259 507 247.5 468 Q236 429 230 394 Q207 274 290 274 L307 274 L298 223 L281 223 Q200 223 179 104 Q172 69 170.5 30 Q169 -9 162 -45 Q156 -79 142.5 -109 Q129 -139 104.5 -161.5 Q80 -184 43.5 -197.5 Q7 -211 -45 -211 L-39 -169 Q-2 -169 23 -159.5 Q48 -150 64.5 -132.5 Q81 -115 89.5 -91 Q98 -67 103 -38 Q111 0 110.5 38 Q110 76 118 117 Q129 177 156.5 208.5 Q184 240 229 248 Q187 256 170 289 Q153 322 164 382 Q172 422 184.5 460 Q197 498 203 535 Q208 564 207.5 588.5 Q207 613 197 630.5 Q187 648 165.5 658 Q144 668 107 668 L118 709 Z " />
<glyph glyph-name="slash" unicode="&#x2f;" horiz-adv-x="452" d="M517 700 L43 0 L-23 0 L453 700 L517 700 Z " />
<glyph glyph-name="backslash" unicode="&#x5c;" horiz-adv-x="383" d="M165 700 L394 0 L328 0 L100 700 L165 700 Z " />
<glyph glyph-name="asterisk" unicode="&#x2a;" horiz-adv-x="428" d="M324 700 L293 568 L430 614 L437 561 L299 530 L366 419 L316 388 L263 505 L168 388 L130 419 L236 530 L109 561 L135 614 L254 568 L269 700 L324 700 Z " />
<glyph glyph-name="bullet" unicode="&#x2022;" horiz-adv-x="391" d="M177 127 Q147 127 122.5 138 Q98 149 82 168.5 Q66 188 59.5 214.5 Q53 241 58 271 Q64 301 80 327.5 Q96 354 119 373.5 Q142 393 170 404.5 Q198 416 228 416 Q258 416 282.5 404.5 Q307 393 323 373.5 Q339 354 345.5 327.5 Q352 301 346 271 Q341 241 325 214.5 Q309 188 286 168.5 Q263 149 235 138 Q207 127 177 127 Z " />
<glyph glyph-name="section" unicode="&#xa7;" horiz-adv-x="597" d="M502 222 Q508 260 495 284.5 Q482 309 455.5 325 Q429 341 394 351.5 Q359 362 322 372 Q285 382 249.5 393.5 Q214 405 188 423 Q165 405 147.5 377.5 Q130 350 124 318 Q117 280 130.5 255.5 Q144 231 170 214.5 Q196 198 231 187.5 Q266 177 303.5 167.5 Q341 158 376 146.5 Q411 135 438 117 Q461 136 478.5 163 Q496 190 502 222 Z M383 710 Q438 710 479.5 696.5 Q521 683 549 659.5 Q577 636 590.5 604.5 Q604 573 604 537 L537 537 Q536 561 526.5 583 Q517 605 497.5 621 Q478 637 447 646.5 Q416 656 373 656 Q331 656 301 646 Q271 636 250.5 620 Q230 604 219 584 Q208 564 204 543 Q199 511 213 491 Q227 471 253.5 457.5 Q280 444 315.5 434.5 Q351 425 388 415.5 Q425 406 459.5 393 Q494 380 519.5 359 Q545 338 557 307 Q569 276 561 230 Q552 182 526.5 147 Q501 112 469 89 Q482 72 487 49.5 Q492 27 487 -3 Q481 -38 462.5 -68 Q444 -98 413.5 -121 Q383 -144 341 -157 Q299 -170 245 -170 Q189 -170 148 -156.5 Q107 -143 79.5 -119.5 Q52 -96 38 -64.5 Q24 -33 24 3 L91 3 Q92 -21 101.5 -43 Q111 -65 130.5 -81.5 Q150 -98 181 -107.5 Q212 -117 255 -117 Q297 -117 327 -107 Q357 -97 377.5 -80.5 Q398 -64 409 -44 Q420 -24 424 -3 Q430 29 415.5 49 Q401 69 374.5 82.5 Q348 96 312 105 Q276 114 239 124 Q202 134 167 147 Q132 160 106.5 180.5 Q81 201 68.5 232 Q56 263 64 310 Q72 358 98.5 393 Q125 428 158 451 Q145 468 140.5 490.5 Q136 513 141 543 Q147 577 165.5 607.5 Q184 638 214.5 661 Q245 684 287.5 697 Q330 710 383 710 Z " />
<glyph glyph-name="dagger" unicode="&#x2020;" horiz-adv-x="475" d="M359 700 L317 529 L490 540 L478 474 L309 486 L291 314 L225 314 L267 486 L93 474 L105 540 L274 529 L293 700 L359 700 Z " />
<glyph glyph-name="daggerdbl" unicode="&#x2021;" horiz-adv-x="487" d="M359 700 L317 529 L490 540 L478 474 L309 486 L261 214 L435 226 L423 160 L254 172 L236 0 L170 0 L212 172 L38 160 L49 226 L219 214 L267 486 L93 474 L105 540 L274 529 L293 700 L359 700 Z " />
<glyph glyph-name="paragraph" unicode="&#xb6;" horiz-adv-x="573" d="M538 500 L437 -70 Q430 -108 412.5 -135 Q395 -162 371 -179.5 Q347 -197 319 -205.5 Q291 -214 263 -214 L273 -161 Q289 -161 305.5 -157.5 Q322 -154 336 -144 Q350 -134 360.5 -117 Q371 -100 376 -73 L389 0 L223 0 Q173 0 136.5 19.5 Q100 39 78 73.5 Q56 108 49.5 153.5 Q43 199 52 252 Q61 304 83.5 349.5 Q106 395 140 428.5 Q174 462 216.5 481 Q259 500 309 500 L538 500 Z " />
<glyph glyph-name="copyright" unicode="&#xa9;" horiz-adv-x="826" d="M470 593 Q541 593 586 554 Q631 515 633 441 L576 441 Q574 489 543 519.5 Q512 550 460 550 Q424 550 392.5 535.5 Q361 521 336 494.5 Q311 468 294 431.5 Q277 395 270 351 Q262 307 266 270.5 Q270 234 285.5 208 Q301 182 327.5 167.5 Q354 153 391 153 Q442 153 483.5 183 Q525 213 544 261 L602 261 Q573 187 514.5 148 Q456 109 385 109 Q335 109 299 126.5 Q263 144 241 175.5 Q219 207 212 251.5 Q205 296 215 351 Q224 406 246.5 450.5 Q269 495 302 526.5 Q335 558 377.5 575.5 Q420 593 470 593 Z M491 710 Q566 710 627 683 Q688 656 728.5 608 Q769 560 785 494 Q801 428 788 350 Q774 272 734.5 206 Q695 140 637.5 92 Q580 44 509.5 17 Q439 -10 364 -10 Q290 -10 229 17 Q168 44 127.5 92 Q87 140 70.5 206 Q54 272 68 350 Q81 428 121 494 Q161 560 218.5 608 Q276 656 346.5 683 Q417 710 491 710 Z M483 669 Q415 669 354.5 644.5 Q294 620 246 577.5 Q198 535 165.5 476.5 Q133 418 121 350 Q109 282 121 223.5 Q133 165 166 122.5 Q199 80 251 55.5 Q303 31 371 31 Q440 31 500.5 55.5 Q561 80 608.5 122.5 Q656 165 688.5 223.5 Q721 282 733 350 Q745 418 733 476.5 Q721 535 688.5 577.5 Q656 620 604 644.5 Q552 669 483 669 Z " />
<glyph glyph-name="registered" unicode="&#xae;" horiz-adv-x="506" d="M246 519 L321 519 Q350 519 364 533.5 Q378 548 382 569 Q385 589 377 601 Q369 613 338 613 L263 613 L246 519 Z M348 639 Q390 639 406.5 619.5 Q423 600 418 573 Q413 547 396.5 529 Q380 511 351 505 Q362 503 370.5 497.5 Q379 492 383 478.5 Q387 465 386.5 441 Q386 417 379 379 L347 379 Q353 417 353.5 440 Q354 463 349.5 475 Q345 487 336 490.5 Q327 494 315 494 L242 494 L222 379 L189 379 L235 639 L348 639 Z M336 710 Q380 710 415 695 Q450 680 472.5 653.5 Q495 627 503.5 589.5 Q512 552 504 507 Q496 462 474 425 Q452 388 420.5 361.5 Q389 335 349 320.5 Q309 306 265 306 Q221 306 186 320.5 Q151 335 128.5 361.5 Q106 388 97 425 Q88 462 96 507 Q104 551 126 588.5 Q148 626 180.5 653 Q213 680 253 695 Q293 710 336 710 Z M331 684 Q298 684 265.5 673 Q233 662 205.5 639.5 Q178 617 158 584 Q138 551 131 508 Q124 469 131 437 Q138 405 156 381.5 Q174 358 202.5 345 Q231 332 269 332 Q307 332 341 345 Q375 358 401 381.5 Q427 405 445 437 Q463 469 470 508 Q477 547 470.5 579 Q464 611 445.5 634.5 Q427 658 398 671 Q369 684 331 684 Z " />
<glyph glyph-name="trademark" unicode="&#x2122;" horiz-adv-x="752" d="M479 700 L539 428 L694 700 L756 700 L698 369 L657 369 L706 652 L546 369 L512 369 L448 652 L399 369 L359 369 L410 666 L282 666 L231 369 L189 369 L240 666 L121 666 L128 700 L479 700 Z " />
<glyph glyph-name="at" unicode="&#x40;" horiz-adv-x="834" d="M474 608 Q549 608 606 587 Q663 566 701 527.5 Q739 489 758 436 Q777 383 777 320 Q777 261 762.5 209 Q748 157 721.5 118 Q695 79 659 56.5 Q623 34 581 34 Q553 34 534.5 47.5 Q516 61 516 101 Q516 112 516.5 123 Q517 134 521 151 Q498 100 453 68 Q408 36 345 36 Q279 36 241.5 76 Q204 116 204 184 Q204 233 218 284 Q232 335 260.5 377 Q289 419 331 445.5 Q373 472 429 472 Q463 472 487 462 Q511 452 526.5 435.5 Q542 419 549.5 397.5 Q557 376 559 352 L583 459 L629 459 L570 177 Q565 159 564 145.5 Q563 132 563 121 Q563 98 571 88 Q579 78 595 78 Q622 78 646 97.5 Q670 117 688.5 150 Q707 183 718 226 Q729 269 729 317 Q729 374 713 420.5 Q697 467 665 499.5 Q633 532 584.5 550 Q536 568 472 568 Q390 568 323 537.5 Q256 507 208 455.5 Q160 404 133.5 334.5 Q107 265 107 187 Q107 125 125 77.5 Q143 30 177 -2.5 Q211 -35 258 -52 Q305 -69 364 -69 Q383 -69 404.5 -66 Q426 -63 445.5 -58 Q465 -53 482.5 -47 Q500 -41 512 -35 L517 -76 Q487 -92 447 -102 Q407 -112 356 -112 Q290 -112 235 -91.5 Q180 -71 140.5 -32.5 Q101 6 79 61.5 Q57 117 57 188 Q57 275 88 351.5 Q119 428 174.5 485 Q230 542 306.5 575 Q383 608 474 608 Z M434 429 Q391 429 358 407.5 Q325 386 302.5 351.5 Q280 317 268.5 275 Q257 233 257 191 Q257 138 283.5 107.5 Q310 77 361 77 Q407 77 441 99 Q475 121 497.5 155 Q520 189 531 231 Q542 273 542 313 Q542 376 513 402.5 Q484 429 434 429 Z " />
<glyph glyph-name="acute" unicode="&#xb4;" horiz-adv-x="266" d="M305 706 L147 552 L103 552 L241 715 L305 706 Z " />
<glyph glyph-name="grave" unicode="&#x60;" horiz-adv-x="266" d="M197 715 L278 552 L234 552 L131 706 L197 715 Z " />
<glyph glyph-name="caron" unicode="&#x2c7;" horiz-adv-x="376" d="M174 712 L252 594 L372 712 L413 703 L274 552 L217 552 L131 703 L174 712 Z " />
<glyph glyph-name="circumflex" unicode="&#x2c6;" horiz-adv-x="376" d="M301 710 L387 560 L344 551 L266 668 L146 551 L106 560 L244 710 L301 710 Z " />
<glyph glyph-name="breve" unicode="&#x2d8;" horiz-adv-x="313" d="M162 686 Q157 651 171.5 629.5 Q186 608 223 608 Q264 608 285.5 632 Q307 656 312 686 L350 682 Q340 631 304 599.5 Q268 568 216 568 Q165 568 140 599.5 Q115 631 124 682 L162 686 Z " />
<glyph glyph-name="dieresis" unicode="&#xa8;" horiz-adv-x="306" d="M268 604 L278 658 L327 658 L317 604 L268 604 Z M121 604 L131 658 L180 658 L170 604 L121 604 Z " />
<glyph glyph-name="dotaccent" unicode="&#x2d9;" horiz-adv-x="159" d="M115 604 L126 665 L188 665 L177 604 L115 604 Z " />
<glyph glyph-name="hungarumlaut" unicode="&#x2dd;" horiz-adv-x="386" d="M421 706 L281 555 L245 555 L371 715 L421 706 Z M283 706 L144 555 L108 555 L233 715 L283 706 Z " />
<glyph glyph-name="&amp;#xaf;" unicode="&#xaf;" horiz-adv-x="339" d="M115 593 L122 636 L361 636 L353 593 L115 593 Z " />
<glyph glyph-name="&amp;#x2c9;" unicode="&#x2c9;" horiz-adv-x="339" d="M115 593 L122 636 L361 636 L353 593 L115 593 Z " />
<glyph glyph-name="ring" unicode="&#x2da;" horiz-adv-x="311" d="M234 684 Q202 684 182 666.5 Q162 649 158 627 Q153 599 170 584 Q187 569 214 569 Q245 569 264.5 584 Q284 599 289 626 Q294 653 277.5 668.5 Q261 684 234 684 Z M240 715 Q285 715 311 691 Q337 667 330 626 Q322 584 287.5 561 Q253 538 208 538 Q164 538 137.5 561.5 Q111 585 119 626 Q126 667 160.5 691 Q195 715 240 715 Z " />
<glyph glyph-name="tilde" unicode="&#x2dc;" horiz-adv-x="402" d="M217 681 Q239 681 255 671.5 Q271 662 283.5 650.5 Q296 639 308 629.5 Q320 620 334 620 Q354 620 368 630 Q382 640 391 665 L419 660 Q406 621 382 600.5 Q358 580 328 580 Q307 580 292.5 590 Q278 600 265.5 611.5 Q253 623 240 633 Q227 643 209 643 Q165 643 151 594 L125 601 Q136 640 160.5 660.5 Q185 681 217 681 Z " />
<glyph glyph-name="ogonek" unicode="&#x2db;" horiz-adv-x="239" d="M122 0 Q90 -22 67 -52.5 Q44 -83 39 -114 Q34 -143 49 -158 Q64 -173 92 -173 Q104 -173 118 -170 L111 -210 Q95 -214 75 -214 Q30 -214 5 -191.5 Q-20 -169 -12 -126 Q-6 -90 20.5 -57.5 Q47 -25 87 0 L122 0 Z " />
<glyph glyph-name="cedilla" unicode="&#xb8;" horiz-adv-x="328" d="M133 0 L85 -63 Q95 -61 105.5 -60 Q116 -59 125 -59 Q173 -59 196 -80.5 Q219 -102 213 -136 Q206 -174 169 -199 Q132 -224 75 -224 Q44 -224 16.5 -215.5 Q-11 -207 -25 -190 L-1 -166 Q7 -180 30 -186.5 Q53 -193 79 -193 Q119 -193 139 -177.5 Q159 -162 163 -141 Q167 -118 151 -101 Q135 -84 88 -84 Q75 -84 60 -86 Q45 -88 28 -91 L88 0 L133 0 Z " />
<glyph glyph-name="&amp;#x394;" unicode="&#x394;" horiz-adv-x="608" d="M434 700 L564 0 L-36 0 L341 700 L434 700 Z M378 651 Q371 633 363 614.5 Q355 596 345 579 L60 53 L481 53 L385 579 Q383 596 381.5 614 Q380 632 378 651 Z " />
<glyph glyph-name="&amp;#x2206;" unicode="&#x2206;" horiz-adv-x="608" d="M434 700 L564 0 L-36 0 L341 700 L434 700 Z M378 651 Q371 633 363 614.5 Q355 596 345 579 L60 53 L481 53 L385 579 Q383 596 381.5 614 Q380 632 378 651 Z " />
<glyph glyph-name="&amp;#x3a9;" unicode="&#x3a9;" horiz-adv-x="748" d="M459 710 Q535 710 589 682.5 Q643 655 675 607.5 Q707 560 716.5 496 Q726 432 713 358 Q704 308 685.5 261 Q667 214 640 174 Q613 134 577.5 102.5 Q542 71 500 53 L704 53 L695 0 L401 0 L410 57 Q503 80 561 159 Q619 238 639 354 Q651 419 645 473.5 Q639 528 615.5 567.5 Q592 607 550.5 629 Q509 651 449 651 Q389 651 339.5 629 Q290 607 252 567.5 Q214 528 189 473.5 Q164 419 152 354 Q132 237 162 159 Q192 81 277 57 L267 0 L-27 0 L-19 53 L184 53 Q149 71 125 102.5 Q101 134 88 174 Q75 214 72.5 261 Q70 308 79 358 Q92 432 124.5 496 Q157 560 206 607.5 Q255 655 319 682.5 Q383 710 459 710 Z " />
<glyph glyph-name="&amp;#x2126;" unicode="&#x2126;" horiz-adv-x="748" d="M459 710 Q535 710 589 682.5 Q643 655 675 607.5 Q707 560 716.5 496 Q726 432 713 358 Q704 308 685.5 261 Q667 214 640 174 Q613 134 577.5 102.5 Q542 71 500 53 L704 53 L695 0 L401 0 L410 57 Q503 80 561 159 Q619 238 639 354 Q651 419 645 473.5 Q639 528 615.5 567.5 Q592 607 550.5 629 Q509 651 449 651 Q389 651 339.5 629 Q290 607 252 567.5 Q214 528 189 473.5 Q164 419 152 354 Q132 237 162 159 Q192 81 277 57 L267 0 L-27 0 L-19 53 L184 53 Q149 71 125 102.5 Q101 134 88 174 Q75 214 72.5 261 Q70 308 79 358 Q92 432 124.5 496 Q157 560 206 607.5 Q255 655 319 682.5 Q383 710 459 710 Z " />
<glyph glyph-name="&amp;#xb5;" unicode="&#xb5;" horiz-adv-x="578" d="M195 500 L140 191 Q128 122 148 82.5 Q168 43 232 43 Q261 43 290 53.5 Q319 64 344.5 86.5 Q370 109 389.5 144 Q409 179 418 229 L466 500 L528 500 L463 130 Q455 90 465 70.5 Q475 51 507 51 Q511 51 518 51 Q525 51 530 52 L521 0 Q511 -2 500 -2.5 Q489 -3 482 -3 Q431 -3 409 23.5 Q387 50 398 115 Q385 89 366.5 66.5 Q348 44 324 27 Q300 10 270.5 0 Q241 -10 207 -10 Q162 -10 136.5 9 Q111 28 103 63 L72 -200 L9 -200 L133 500 L195 500 Z " />
<glyph glyph-name="&amp;#x3bc;" unicode="&#x3bc;" horiz-adv-x="578" d="M195 500 L140 191 Q128 122 148 82.5 Q168 43 232 43 Q261 43 290 53.5 Q319 64 344.5 86.5 Q370 109 389.5 144 Q409 179 418 229 L466 500 L528 500 L463 130 Q455 90 465 70.5 Q475 51 507 51 Q511 51 518 51 Q525 51 530 52 L521 0 Q511 -2 500 -2.5 Q489 -3 482 -3 Q431 -3 409 23.5 Q387 50 398 115 Q385 89 366.5 66.5 Q348 44 324 27 Q300 10 270.5 0 Q241 -10 207 -10 Q162 -10 136.5 9 Q111 28 103 63 L72 -200 L9 -200 L133 500 L195 500 Z " />
<glyph glyph-name="pi" unicode="&#x3c0;" horiz-adv-x="557" d="M589 500 L580 453 L469 453 L412 129 Q404 89 414.5 69.5 Q425 50 457 50 Q461 50 467.5 50 Q474 50 479 52 L471 0 Q460 -2 448.5 -2.5 Q437 -3 429 -3 Q378 -3 356.5 22.5 Q335 48 346 108 L407 453 L228 453 L149 0 L87 0 L166 453 L55 453 L64 500 L589 500 Z " />
<glyph glyph-name="Aacute" unicode="&#xc1;" horiz-adv-x="618" d="M529 864 L371 726 L330 726 L470 872 L529 864 Z M383 661 Q372 635 359 609 Q346 583 335 562 L173 265 L454 265 L396 562 Q392 584 389 610 Q386 636 383 661 Z M441 700 L574 0 L500 0 L462 213 L148 213 L35 0 L-36 0 L344 700 L441 700 Z " />
<glyph glyph-name="Acircumflex" unicode="&#xc2;" horiz-adv-x="618" d="M493 726 L410 832 L289 726 L252 734 L391 872 L442 872 L533 734 L493 726 Z M383 661 Q372 635 359 609 Q346 583 335 562 L173 265 L454 265 L396 562 Q392 584 389 610 Q386 636 383 661 Z M441 700 L574 0 L500 0 L462 213 L148 213 L35 0 L-36 0 L344 700 L441 700 Z " />
<glyph glyph-name="Adieresis" unicode="&#xc4;" horiz-adv-x="618" d="M448 762 L458 812 L506 812 L497 762 L448 762 Z M296 762 L305 812 L354 812 L345 762 L296 762 Z M383 661 Q372 635 359 609 Q346 583 335 562 L173 265 L454 265 L396 562 Q392 584 389 610 Q386 636 383 661 Z M441 700 L574 0 L500 0 L462 213 L148 213 L35 0 L-36 0 L344 700 L441 700 Z " />
<glyph glyph-name="Agrave" unicode="&#xc0;" horiz-adv-x="618" d="M365 872 L454 726 L413 726 L304 864 L365 872 Z M383 661 Q372 635 359 609 Q346 583 335 562 L173 265 L454 265 L396 562 Q392 584 389 610 Q386 636 383 661 Z M441 700 L574 0 L500 0 L462 213 L148 213 L35 0 L-36 0 L344 700 L441 700 Z " />
<glyph glyph-name="Aring" unicode="&#xc5;" horiz-adv-x="618" d="M410 834 Q377 834 356.5 820.5 Q336 807 333 786 Q328 761 346 750 Q364 739 392 739 Q424 739 444.5 750 Q465 761 470 786 Q474 811 455.5 822.5 Q437 834 410 834 Z M414 861 Q459 861 486 841.5 Q513 822 507 786 Q500 750 467 731.5 Q434 713 389 713 Q344 713 316.5 731.5 Q289 750 296 786 Q302 822 335.5 841.5 Q369 861 414 861 Z M383 661 Q372 635 359 609 Q346 583 335 562 L173 265 L454 265 L396 562 Q392 584 389 610 Q386 636 383 661 Z M441 700 L574 0 L500 0 L462 213 L148 213 L35 0 L-36 0 L344 700 L441 700 Z " />
<glyph glyph-name="Atilde" unicode="&#xc3;" horiz-adv-x="618" d="M348 835 Q370 835 386 825.5 Q402 816 414.5 805 Q427 794 439 784.5 Q451 775 465 775 Q485 775 499.5 785 Q514 795 522 820 L550 815 Q538 777 514 757.5 Q490 738 460 738 Q439 738 424 747.5 Q409 757 396.5 769 Q384 781 371 790.5 Q358 800 340 800 Q299 800 283 753 L256 759 Q267 797 291.5 816 Q316 835 348 835 Z M383 661 Q372 635 359 609 Q346 583 335 562 L173 265 L454 265 L396 562 Q392 584 389 610 Q386 636 383 661 Z M441 700 L574 0 L500 0 L462 213 L148 213 L35 0 L-36 0 L344 700 L441 700 Z " />
<glyph glyph-name="Ccedilla" unicode="&#xc7;" horiz-adv-x="684" d="M648 195 Q630 149 599.5 111.5 Q569 74 528.5 47 Q488 20 439 5 Q390 -10 335 -10 L295 -63 Q305 -61 315.5 -60 Q326 -59 335 -59 Q383 -59 406 -80.5 Q429 -102 423 -136 Q416 -174 379 -199 Q342 -224 285 -224 Q254 -224 226.5 -215.5 Q199 -207 185 -190 L209 -166 Q217 -180 240 -186.5 Q263 -193 289 -193 Q329 -193 349 -177.5 Q369 -162 373 -141 Q377 -118 361 -101 Q345 -84 298 -84 Q285 -84 270 -86 Q255 -88 238 -91 L293 -8 Q228 0 181.5 31 Q135 62 108 110 Q81 158 73 219.5 Q65 281 77 350 Q90 424 123 489.5 Q156 555 206 604 Q256 653 320.5 681.5 Q385 710 461 710 Q516 710 560 695 Q604 680 635 653 Q666 626 683.5 588.5 Q701 551 703 505 L634 505 Q629 571 581 611 Q533 651 450 651 Q390 651 340 628.5 Q290 606 252 566 Q214 526 188.5 470.5 Q163 415 151 350 Q139 285 145 229.5 Q151 174 175 134 Q199 94 241.5 71.5 Q284 49 344 49 Q427 49 488.5 89 Q550 129 579 195 L648 195 Z " />
<glyph glyph-name="Eacute" unicode="&#xc9;" horiz-adv-x="602" d="M568 864 L410 726 L369 726 L509 872 L568 864 Z M51 0 L174 700 L630 700 L621 647 L232 647 L187 390 L517 390 L508 337 L177 337 L127 53 L520 53 L511 0 L51 0 Z " />
<glyph glyph-name="Ecircumflex" unicode="&#xca;" horiz-adv-x="602" d="M514 726 L431 832 L310 726 L273 734 L412 872 L463 872 L554 734 L514 726 Z M51 0 L174 700 L630 700 L621 647 L232 647 L187 390 L517 390 L508 337 L177 337 L127 53 L520 53 L511 0 L51 0 Z " />
<glyph glyph-name="Edieresis" unicode="&#xcb;" horiz-adv-x="602" d="M471 762 L481 812 L529 812 L520 762 L471 762 Z M319 762 L328 812 L377 812 L368 762 L319 762 Z M51 0 L174 700 L630 700 L621 647 L232 647 L187 390 L517 390 L508 337 L177 337 L127 53 L520 53 L511 0 L51 0 Z " />
<glyph glyph-name="Egrave" unicode="&#xc8;" horiz-adv-x="602" d="M376 872 L465 726 L424 726 L315 864 L376 872 Z M51 0 L174 700 L630 700 L621 647 L232 647 L187 390 L517 390 L508 337 L177 337 L127 53 L520 53 L511 0 L51 0 Z " />
<glyph glyph-name="Iacute" unicode="&#xcd;" horiz-adv-x="249" d="M358 864 L200 726 L159 726 L299 872 L358 864 Z M51 0 L174 700 L241 700 L118 0 L51 0 Z " />
<glyph glyph-name="Icircumflex" unicode="&#xce;" horiz-adv-x="249" d="M315 726 L232 832 L111 726 L74 734 L213 872 L264 872 L355 734 L315 726 Z M51 0 L174 700 L241 700 L118 0 L51 0 Z " />
<glyph glyph-name="Idieresis" unicode="&#xcf;" horiz-adv-x="249" d="M270 762 L280 812 L328 812 L319 762 L270 762 Z M118 762 L127 812 L176 812 L167 762 L118 762 Z M51 0 L174 700 L241 700 L118 0 L51 0 Z " />
<glyph glyph-name="Igrave" unicode="&#xcc;" horiz-adv-x="249" d="M164 872 L253 726 L212 726 L103 864 L164 872 Z M51 0 L174 700 L241 700 L118 0 L51 0 Z " />
<glyph glyph-name="Ntilde" unicode="&#xd1;" horiz-adv-x="686" d="M384 835 Q406 835 422 825.5 Q438 816 450.5 805 Q463 794 475 784.5 Q487 775 501 775 Q521 775 535.5 785 Q550 795 558 820 L586 815 Q574 777 550 757.5 Q526 738 496 738 Q475 738 460 747.5 Q445 757 432.5 769 Q420 781 407 790.5 Q394 800 376 800 Q335 800 319 753 L292 759 Q303 797 327.5 816 Q352 835 384 835 Z M270 700 L487 144 Q492 130 496.5 112 Q501 94 505 76 Q506 93 509 115 Q512 137 515 154 L612 700 L678 700 L555 0 L470 0 L247 576 Q242 590 237 608 Q232 626 230 642 L219 572 L118 0 L51 0 L174 700 L270 700 Z " />
<glyph glyph-name="Oacute" unicode="&#xd3;" horiz-adv-x="748" d="M588 864 L430 726 L389 726 L529 872 L588 864 Z M459 710 Q535 710 589 681.5 Q643 653 674.5 604 Q706 555 715.5 489.5 Q725 424 712 350 Q699 276 666.5 210.5 Q634 145 585 96 Q536 47 472 18.5 Q408 -10 332 -10 Q256 -10 202 18.5 Q148 47 116 96 Q84 145 74 210.5 Q64 276 77 350 Q90 424 123 489.5 Q156 555 205 604 Q254 653 318.5 681.5 Q383 710 459 710 Z M448 651 Q388 651 338 628.5 Q288 606 250.5 566 Q213 526 188 470.5 Q163 415 151 350 Q139 285 145 229.5 Q151 174 174.5 134 Q198 94 240 71.5 Q282 49 342 49 Q402 49 452 71.5 Q502 94 539.5 134 Q577 174 602.5 229.5 Q628 285 639 350 Q651 415 645 470.5 Q639 526 615.5 566 Q592 606 550 628.5 Q508 651 448 651 Z " />
<glyph glyph-name="Ocircumflex" unicode="&#xd4;" horiz-adv-x="748" d="M563 726 L480 832 L359 726 L322 734 L461 872 L512 872 L603 734 L563 726 Z M459 710 Q535 710 589 681.5 Q643 653 674.5 604 Q706 555 715.5 489.5 Q725 424 712 350 Q699 276 666.5 210.5 Q634 145 585 96 Q536 47 472 18.5 Q408 -10 332 -10 Q256 -10 202 18.5 Q148 47 116 96 Q84 145 74 210.5 Q64 276 77 350 Q90 424 123 489.5 Q156 555 205 604 Q254 653 318.5 681.5 Q383 710 459 710 Z M448 651 Q388 651 338 628.5 Q288 606 250.5 566 Q213 526 188 470.5 Q163 415 151 350 Q139 285 145 229.5 Q151 174 174.5 134 Q198 94 240 71.5 Q282 49 342 49 Q402 49 452 71.5 Q502 94 539.5 134 Q577 174 602.5 229.5 Q628 285 639 350 Q651 415 645 470.5 Q639 526 615.5 566 Q592 606 550 628.5 Q508 651 448 651 Z " />
<glyph glyph-name="Odieresis" unicode="&#xd6;" horiz-adv-x="748" d="M518 762 L528 812 L576 812 L567 762 L518 762 Z M366 762 L375 812 L424 812 L415 762 L366 762 Z M459 710 Q535 710 589 681.5 Q643 653 674.5 604 Q706 555 715.5 489.5 Q725 424 712 350 Q699 276 666.5 210.5 Q634 145 585 96 Q536 47 472 18.5 Q408 -10 332 -10 Q256 -10 202 18.5 Q148 47 116 96 Q84 145 74 210.5 Q64 276 77 350 Q90 424 123 489.5 Q156 555 205 604 Q254 653 318.5 681.5 Q383 710 459 710 Z M448 651 Q388 651 338 628.5 Q288 606 250.5 566 Q213 526 188 470.5 Q163 415 151 350 Q139 285 145 229.5 Q151 174 174.5 134 Q198 94 240 71.5 Q282 49 342 49 Q402 49 452 71.5 Q502 94 539.5 134 Q577 174 602.5 229.5 Q628 285 639 350 Q651 415 645 470.5 Q639 526 615.5 566 Q592 606 550 628.5 Q508 651 448 651 Z " />
<glyph glyph-name="Ograve" unicode="&#xd2;" horiz-adv-x="748" d="M438 872 L527 726 L486 726 L377 864 L438 872 Z M459 710 Q535 710 589 681.5 Q643 653 674.5 604 Q706 555 715.5 489.5 Q725 424 712 350 Q699 276 666.5 210.5 Q634 145 585 96 Q536 47 472 18.5 Q408 -10 332 -10 Q256 -10 202 18.5 Q148 47 116 96 Q84 145 74 210.5 Q64 276 77 350 Q90 424 123 489.5 Q156 555 205 604 Q254 653 318.5 681.5 Q383 710 459 710 Z M448 651 Q388 651 338 628.5 Q288 606 250.5 566 Q213 526 188 470.5 Q163 415 151 350 Q139 285 145 229.5 Q151 174 174.5 134 Q198 94 240 71.5 Q282 49 342 49 Q402 49 452 71.5 Q502 94 539.5 134 Q577 174 602.5 229.5 Q628 285 639 350 Q651 415 645 470.5 Q639 526 615.5 566 Q592 606 550 628.5 Q508 651 448 651 Z " />
<glyph glyph-name="Otilde" unicode="&#xd5;" horiz-adv-x="748" d="M417 835 Q439 835 455 825.5 Q471 816 483.5 805 Q496 794 508 784.5 Q520 775 534 775 Q554 775 568.5 785 Q583 795 591 820 L619 815 Q607 777 583 757.5 Q559 738 529 738 Q508 738 493 747.5 Q478 757 465.5 769 Q453 781 440 790.5 Q427 800 409 800 Q368 800 352 753 L325 759 Q336 797 360.5 816 Q385 835 417 835 Z M459 710 Q535 710 589 681.5 Q643 653 674.5 604 Q706 555 715.5 489.5 Q725 424 712 350 Q699 276 666.5 210.5 Q634 145 585 96 Q536 47 472 18.5 Q408 -10 332 -10 Q256 -10 202 18.5 Q148 47 116 96 Q84 145 74 210.5 Q64 276 77 350 Q90 424 123 489.5 Q156 555 205 604 Q254 653 318.5 681.5 Q383 710 459 710 Z M448 651 Q388 651 338 628.5 Q288 606 250.5 566 Q213 526 188 470.5 Q163 415 151 350 Q139 285 145 229.5 Q151 174 174.5 134 Q198 94 240 71.5 Q282 49 342 49 Q402 49 452 71.5 Q502 94 539.5 134 Q577 174 602.5 229.5 Q628 285 639 350 Q651 415 645 470.5 Q639 526 615.5 566 Q592 606 550 628.5 Q508 651 448 651 Z " />
<glyph glyph-name="Uacute" unicode="&#xda;" horiz-adv-x="684" d="M563 864 L405 726 L364 726 L504 872 L563 864 Z M612 700 L680 700 L589 182 Q581 135 554.5 99 Q528 63 489 39 Q450 15 401.5 2.5 Q353 -10 300 -10 Q247 -10 203 2.5 Q159 15 129 39 Q99 63 85.5 99 Q72 135 81 182 L172 700 L240 700 L151 196 Q138 121 181 84 Q224 47 311 47 Q398 47 454 84.5 Q510 122 523 196 L612 700 Z " />
<glyph glyph-name="Ucircumflex" unicode="&#xdb;" horiz-adv-x="684" d="M532 726 L449 832 L328 726 L291 734 L430 872 L481 872 L572 734 L532 726 Z M612 700 L680 700 L589 182 Q581 135 554.5 99 Q528 63 489 39 Q450 15 401.5 2.5 Q353 -10 300 -10 Q247 -10 203 2.5 Q159 15 129 39 Q99 63 85.5 99 Q72 135 81 182 L172 700 L240 700 L151 196 Q138 121 181 84 Q224 47 311 47 Q398 47 454 84.5 Q510 122 523 196 L612 700 Z " />
<glyph glyph-name="Udieresis" unicode="&#xdc;" horiz-adv-x="684" d="M487 762 L497 812 L545 812 L536 762 L487 762 Z M335 762 L344 812 L393 812 L384 762 L335 762 Z M612 700 L680 700 L589 182 Q581 135 554.5 99 Q528 63 489 39 Q450 15 401.5 2.5 Q353 -10 300 -10 Q247 -10 203 2.5 Q159 15 129 39 Q99 63 85.5 99 Q72 135 81 182 L172 700 L240 700 L151 196 Q138 121 181 84 Q224 47 311 47 Q398 47 454 84.5 Q510 122 523 196 L612 700 Z " />
<glyph glyph-name="Ugrave" unicode="&#xd9;" horiz-adv-x="684" d="M417 872 L506 726 L465 726 L356 864 L417 872 Z M612 700 L680 700 L589 182 Q581 135 554.5 99 Q528 63 489 39 Q450 15 401.5 2.5 Q353 -10 300 -10 Q247 -10 203 2.5 Q159 15 129 39 Q99 63 85.5 99 Q72 135 81 182 L172 700 L240 700 L151 196 Q138 121 181 84 Q224 47 311 47 Q398 47 454 84.5 Q510 122 523 196 L612 700 Z " />
<glyph glyph-name="Ydieresis" unicode="&#x178;" horiz-adv-x="604" d="M447 762 L457 812 L505 812 L496 762 L447 762 Z M295 762 L304 812 L353 812 L344 762 L295 762 Z M228 0 L284 324 L84 700 L165 700 L330 381 L611 700 L686 700 L352 324 L295 0 L228 0 Z " />
<glyph glyph-name="aacute" unicode="&#xe1;" horiz-adv-x="575" d="M495 706 L337 552 L293 552 L431 715 L495 706 Z M311 459 Q233 459 183 401.5 Q133 344 117 250 Q108 203 111.5 164.5 Q115 126 130 98.5 Q145 71 172 56 Q199 41 237 41 Q278 41 311 57.5 Q344 74 368.5 102 Q393 130 409 167 Q425 204 432 244 Q442 299 437.5 339.5 Q433 380 416.5 406.5 Q400 433 372.5 446 Q345 459 311 459 Z M307 510 Q343 510 369.5 499 Q396 488 414 469 Q432 450 442 425 Q452 400 455 373 L477 500 L539 500 L452 0 L390 0 L411 124 Q399 98 379.5 74 Q360 50 334.5 31 Q309 12 279 1 Q249 -10 216 -10 Q167 -10 131 9 Q95 28 74 62.5 Q53 97 47 145 Q41 193 52 250 Q62 308 84.5 355.5 Q107 403 140 437.5 Q173 472 215.5 491 Q258 510 307 510 Z " />
<glyph glyph-name="acircumflex" unicode="&#xe2;" horiz-adv-x="575" d="M398 710 L484 560 L441 551 L363 668 L243 551 L203 560 L341 710 L398 710 Z M311 459 Q233 459 183 401.5 Q133 344 117 250 Q108 203 111.5 164.5 Q115 126 130 98.5 Q145 71 172 56 Q199 41 237 41 Q278 41 311 57.5 Q344 74 368.5 102 Q393 130 409 167 Q425 204 432 244 Q442 299 437.5 339.5 Q433 380 416.5 406.5 Q400 433 372.5 446 Q345 459 311 459 Z M307 510 Q343 510 369.5 499 Q396 488 414 469 Q432 450 442 425 Q452 400 455 373 L477 500 L539 500 L452 0 L390 0 L411 124 Q399 98 379.5 74 Q360 50 334.5 31 Q309 12 279 1 Q249 -10 216 -10 Q167 -10 131 9 Q95 28 74 62.5 Q53 97 47 145 Q41 193 52 250 Q62 308 84.5 355.5 Q107 403 140 437.5 Q173 472 215.5 491 Q258 510 307 510 Z " />
<glyph glyph-name="adieresis" unicode="&#xe4;" horiz-adv-x="575" d="M401 604 L411 658 L460 658 L450 604 L401 604 Z M254 604 L264 658 L313 658 L303 604 L254 604 Z M311 459 Q233 459 183 401.5 Q133 344 117 250 Q108 203 111.5 164.5 Q115 126 130 98.5 Q145 71 172 56 Q199 41 237 41 Q278 41 311 57.5 Q344 74 368.5 102 Q393 130 409 167 Q425 204 432 244 Q442 299 437.5 339.5 Q433 380 416.5 406.5 Q400 433 372.5 446 Q345 459 311 459 Z M307 510 Q343 510 369.5 499 Q396 488 414 469 Q432 450 442 425 Q452 400 455 373 L477 500 L539 500 L452 0 L390 0 L411 124 Q399 98 379.5 74 Q360 50 334.5 31 Q309 12 279 1 Q249 -10 216 -10 Q167 -10 131 9 Q95 28 74 62.5 Q53 97 47 145 Q41 193 52 250 Q62 308 84.5 355.5 Q107 403 140 437.5 Q173 472 215.5 491 Q258 510 307 510 Z " />
<glyph glyph-name="agrave" unicode="&#xe0;" horiz-adv-x="575" d="M329 715 L410 552 L366 552 L263 706 L329 715 Z M311 459 Q233 459 183 401.5 Q133 344 117 250 Q108 203 111.5 164.5 Q115 126 130 98.5 Q145 71 172 56 Q199 41 237 41 Q278 41 311 57.5 Q344 74 368.5 102 Q393 130 409 167 Q425 204 432 244 Q442 299 437.5 339.5 Q433 380 416.5 406.5 Q400 433 372.5 446 Q345 459 311 459 Z M307 510 Q343 510 369.5 499 Q396 488 414 469 Q432 450 442 425 Q452 400 455 373 L477 500 L539 500 L452 0 L390 0 L411 124 Q399 98 379.5 74 Q360 50 334.5 31 Q309 12 279 1 Q249 -10 216 -10 Q167 -10 131 9 Q95 28 74 62.5 Q53 97 47 145 Q41 193 52 250 Q62 308 84.5 355.5 Q107 403 140 437.5 Q173 472 215.5 491 Q258 510 307 510 Z " />
<glyph glyph-name="aring" unicode="&#xe5;" horiz-adv-x="575" d="M374 684 Q342 684 322 666.5 Q302 649 298 627 Q293 599 310 584 Q327 569 354 569 Q385 569 404.5 584 Q424 599 429 626 Q434 653 417.5 668.5 Q401 684 374 684 Z M380 715 Q425 715 451 691 Q477 667 470 626 Q462 584 427.5 561 Q393 538 348 538 Q304 538 277.5 561.5 Q251 585 259 626 Q266 667 300.5 691 Q335 715 380 715 Z M311 459 Q233 459 183 401.5 Q133 344 117 250 Q108 203 111.5 164.5 Q115 126 130 98.5 Q145 71 172 56 Q199 41 237 41 Q278 41 311 57.5 Q344 74 368.5 102 Q393 130 409 167 Q425 204 432 244 Q442 299 437.5 339.5 Q433 380 416.5 406.5 Q400 433 372.5 446 Q345 459 311 459 Z M307 510 Q343 510 369.5 499 Q396 488 414 469 Q432 450 442 425 Q452 400 455 373 L477 500 L539 500 L452 0 L390 0 L411 124 Q399 98 379.5 74 Q360 50 334.5 31 Q309 12 279 1 Q249 -10 216 -10 Q167 -10 131 9 Q95 28 74 62.5 Q53 97 47 145 Q41 193 52 250 Q62 308 84.5 355.5 Q107 403 140 437.5 Q173 472 215.5 491 Q258 510 307 510 Z " />
<glyph glyph-name="atilde" unicode="&#xe3;" horiz-adv-x="575" d="M306 681 Q328 681 344 671.5 Q360 662 372.5 650.5 Q385 639 397 629.5 Q409 620 423 620 Q443 620 457 630 Q471 640 480 665 L508 660 Q495 621 471 600.5 Q447 580 417 580 Q396 580 381.5 590 Q367 600 354.5 611.5 Q342 623 329 633 Q316 643 298 643 Q254 643 240 594 L214 601 Q225 640 249.5 660.5 Q274 681 306 681 Z M311 459 Q233 459 183 401.5 Q133 344 117 250 Q108 203 111.5 164.5 Q115 126 130 98.5 Q145 71 172 56 Q199 41 237 41 Q278 41 311 57.5 Q344 74 368.5 102 Q393 130 409 167 Q425 204 432 244 Q442 299 437.5 339.5 Q433 380 416.5 406.5 Q400 433 372.5 446 Q345 459 311 459 Z M307 510 Q343 510 369.5 499 Q396 488 414 469 Q432 450 442 425 Q452 400 455 373 L477 500 L539 500 L452 0 L390 0 L411 124 Q399 98 379.5 74 Q360 50 334.5 31 Q309 12 279 1 Q249 -10 216 -10 Q167 -10 131 9 Q95 28 74 62.5 Q53 97 47 145 Q41 193 52 250 Q62 308 84.5 355.5 Q107 403 140 437.5 Q173 472 215.5 491 Q258 510 307 510 Z " />
<glyph glyph-name="ccedilla" unicode="&#xe7;" horiz-adv-x="509" d="M326 510 Q365 510 398 499 Q431 488 455 466.5 Q479 445 491.5 414 Q504 383 502 344 L438 344 Q440 398 407 428.5 Q374 459 315 459 Q276 459 243 444 Q210 429 184 401 Q158 373 140 334.5 Q122 296 114 250 Q106 203 110.5 165 Q115 127 131 99 Q147 71 175 56 Q203 41 241 41 Q300 41 344.5 71.5 Q389 102 405 156 L468 156 Q457 118 434.5 87.5 Q412 57 382 36 Q352 15 316 3 Q280 -9 243 -10 L203 -63 Q213 -61 223.5 -60 Q234 -59 243 -59 Q291 -59 314 -80.5 Q337 -102 331 -136 Q324 -174 287 -199 Q250 -224 193 -224 Q162 -224 134.5 -215.5 Q107 -207 93 -190 L117 -166 Q125 -180 148 -186.5 Q171 -193 197 -193 Q237 -193 257 -177.5 Q277 -162 281 -141 Q285 -118 269 -101 Q253 -84 206 -84 Q193 -84 178 -86 Q163 -88 146 -91 L201 -7 Q156 -1 123.5 20 Q91 41 72 74.5 Q53 108 47.5 152.5 Q42 197 52 250 Q62 308 86 355.5 Q110 403 145.5 437.5 Q181 472 227 491 Q273 510 326 510 Z " />
<glyph glyph-name="eacute" unicode="&#xe9;" horiz-adv-x="536" d="M480 706 L322 552 L278 552 L416 715 L480 706 Z M328 464 Q256 464 202.5 418.5 Q149 373 124 294 L284 294 Q365 294 403 318.5 Q441 343 441 382 Q441 397 434.5 412 Q428 427 414.5 438.5 Q401 450 379.5 457 Q358 464 328 464 Z M338 510 Q382 510 414 499.5 Q446 489 466.5 472 Q487 455 496.5 433 Q506 411 506 388 Q506 359 493 333.5 Q480 308 452.5 289.5 Q425 271 382.5 260.5 Q340 250 282 250 L114 250 Q96 153 129 96 Q162 39 241 39 Q268 39 293.5 46 Q319 53 340.5 67 Q362 81 378 101 Q394 121 403 148 L466 148 Q454 110 430 80.5 Q406 51 375 31 Q344 11 307.5 0.5 Q271 -10 233 -10 Q180 -10 141.5 9 Q103 28 79 62.5 Q55 97 47.5 144.5 Q40 192 51 250 Q61 308 87.5 355.5 Q114 403 152 437.5 Q190 472 237.5 491 Q285 510 338 510 Z " />
<glyph glyph-name="ecircumflex" unicode="&#xea;" horiz-adv-x="536" d="M392 710 L478 560 L435 551 L357 668 L237 551 L197 560 L335 710 L392 710 Z M328 464 Q256 464 202.5 418.5 Q149 373 124 294 L284 294 Q365 294 403 318.5 Q441 343 441 382 Q441 397 434.5 412 Q428 427 414.5 438.5 Q401 450 379.5 457 Q358 464 328 464 Z M338 510 Q382 510 414 499.5 Q446 489 466.5 472 Q487 455 496.5 433 Q506 411 506 388 Q506 359 493 333.5 Q480 308 452.5 289.5 Q425 271 382.5 260.5 Q340 250 282 250 L114 250 Q96 153 129 96 Q162 39 241 39 Q268 39 293.5 46 Q319 53 340.5 67 Q362 81 378 101 Q394 121 403 148 L466 148 Q454 110 430 80.5 Q406 51 375 31 Q344 11 307.5 0.5 Q271 -10 233 -10 Q180 -10 141.5 9 Q103 28 79 62.5 Q55 97 47.5 144.5 Q40 192 51 250 Q61 308 87.5 355.5 Q114 403 152 437.5 Q190 472 237.5 491 Q285 510 338 510 Z " />
<glyph glyph-name="edieresis" unicode="&#xeb;" horiz-adv-x="536" d="M392 604 L402 658 L451 658 L441 604 L392 604 Z M245 604 L255 658 L304 658 L294 604 L245 604 Z M328 464 Q256 464 202.5 418.5 Q149 373 124 294 L284 294 Q365 294 403 318.5 Q441 343 441 382 Q441 397 434.5 412 Q428 427 414.5 438.5 Q401 450 379.5 457 Q358 464 328 464 Z M338 510 Q382 510 414 499.5 Q446 489 466.5 472 Q487 455 496.5 433 Q506 411 506 388 Q506 359 493 333.5 Q480 308 452.5 289.5 Q425 271 382.5 260.5 Q340 250 282 250 L114 250 Q96 153 129 96 Q162 39 241 39 Q268 39 293.5 46 Q319 53 340.5 67 Q362 81 378 101 Q394 121 403 148 L466 148 Q454 110 430 80.5 Q406 51 375 31 Q344 11 307.5 0.5 Q271 -10 233 -10 Q180 -10 141.5 9 Q103 28 79 62.5 Q55 97 47.5 144.5 Q40 192 51 250 Q61 308 87.5 355.5 Q114 403 152 437.5 Q190 472 237.5 491 Q285 510 338 510 Z " />
<glyph glyph-name="egrave" unicode="&#xe8;" horiz-adv-x="536" d="M319 715 L400 552 L356 552 L253 706 L319 715 Z M328 464 Q256 464 202.5 418.5 Q149 373 124 294 L284 294 Q365 294 403 318.5 Q441 343 441 382 Q441 397 434.5 412 Q428 427 414.5 438.5 Q401 450 379.5 457 Q358 464 328 464 Z M338 510 Q382 510 414 499.5 Q446 489 466.5 472 Q487 455 496.5 433 Q506 411 506 388 Q506 359 493 333.5 Q480 308 452.5 289.5 Q425 271 382.5 260.5 Q340 250 282 250 L114 250 Q96 153 129 96 Q162 39 241 39 Q268 39 293.5 46 Q319 53 340.5 67 Q362 81 378 101 Q394 121 403 148 L466 148 Q454 110 430 80.5 Q406 51 375 31 Q344 11 307.5 0.5 Q271 -10 233 -10 Q180 -10 141.5 9 Q103 28 79 62.5 Q55 97 47.5 144.5 Q40 192 51 250 Q61 308 87.5 355.5 Q114 403 152 437.5 Q190 472 237.5 491 Q285 510 338 510 Z " />
<glyph glyph-name="iacute" unicode="&#xed;" horiz-adv-x="235" d="M46 0 L134 500 L196 500 L108 0 L46 0 Z M324 706 L166 552 L122 552 L260 715 L324 706 Z " />
<glyph glyph-name="icircumflex" unicode="&#xee;" horiz-adv-x="235" d="M230 710 L316 560 L273 551 L195 668 L75 551 L35 560 L173 710 L230 710 Z M46 0 L134 500 L196 500 L108 0 L46 0 Z " />
<glyph glyph-name="idieresis" unicode="&#xef;" horiz-adv-x="235" d="M46 0 L134 500 L196 500 L108 0 L46 0 Z M232 604 L242 658 L291 658 L281 604 L232 604 Z M85 604 L95 658 L144 658 L134 604 L85 604 Z " />
<glyph glyph-name="igrave" unicode="&#xec;" horiz-adv-x="235" d="M46 0 L134 500 L196 500 L108 0 L46 0 Z M144 715 L225 552 L181 552 L78 706 L144 715 Z " />
<glyph glyph-name="dotlessi" unicode="&#x131;" horiz-adv-x="235" d="M46 0 L134 500 L196 500 L108 0 L46 0 Z " />
<glyph glyph-name="ntilde" unicode="&#xf1;" horiz-adv-x="568" d="M300 681 Q322 681 338 671.5 Q354 662 366.5 650.5 Q379 639 391 629.5 Q403 620 417 620 Q437 620 451 630 Q465 640 474 665 L502 660 Q489 621 465 600.5 Q441 580 411 580 Q390 580 375.5 590 Q361 600 348.5 611.5 Q336 623 323 633 Q310 643 292 643 Q248 643 234 594 L208 601 Q219 640 243.5 660.5 Q268 681 300 681 Z M196 500 L176 389 Q203 441 251.5 475.5 Q300 510 369 510 Q452 510 483.5 459.5 Q515 409 499 320 L443 0 L381 0 L435 309 Q447 378 427 417.5 Q407 457 343 457 Q314 457 284.5 446.5 Q255 436 229 413.5 Q203 391 183.5 356 Q164 321 155 271 L108 0 L46 0 L134 500 L196 500 Z " />
<glyph glyph-name="oacute" unicode="&#xf3;" horiz-adv-x="547" d="M455 706 L297 552 L253 552 L391 715 L455 706 Z M323 510 Q374 510 412.5 491.5 Q451 473 474.5 439 Q498 405 506 357 Q514 309 504 250 Q493 191 468.5 143 Q444 95 408.5 61 Q373 27 328 8.5 Q283 -10 232 -10 Q181 -10 142 8.5 Q103 27 79.5 61 Q56 95 48.5 143 Q41 191 52 250 Q62 309 86 357 Q110 405 145.5 439 Q181 473 226.5 491.5 Q272 510 323 510 Z M314 459 Q276 459 243.5 444 Q211 429 185 402 Q159 375 141 336.5 Q123 298 115 250 Q98 153 131 97 Q164 41 240 41 Q317 41 370 97 Q423 153 440 250 Q457 346 423.5 402.5 Q390 459 314 459 Z " />
<glyph glyph-name="ocircumflex" unicode="&#xf4;" horiz-adv-x="547" d="M386 710 L472 560 L429 551 L351 668 L231 551 L191 560 L329 710 L386 710 Z M323 510 Q374 510 412.5 491.5 Q451 473 474.5 439 Q498 405 506 357 Q514 309 504 250 Q493 191 468.5 143 Q444 95 408.5 61 Q373 27 328 8.5 Q283 -10 232 -10 Q181 -10 142 8.5 Q103 27 79.5 61 Q56 95 48.5 143 Q41 191 52 250 Q62 309 86 357 Q110 405 145.5 439 Q181 473 226.5 491.5 Q272 510 323 510 Z M314 459 Q276 459 243.5 444 Q211 429 185 402 Q159 375 141 336.5 Q123 298 115 250 Q98 153 131 97 Q164 41 240 41 Q317 41 370 97 Q423 153 440 250 Q457 346 423.5 402.5 Q390 459 314 459 Z " />
<glyph glyph-name="odieresis" unicode="&#xf6;" horiz-adv-x="547" d="M388 604 L398 658 L447 658 L437 604 L388 604 Z M241 604 L251 658 L300 658 L290 604 L241 604 Z M323 510 Q374 510 412.5 491.5 Q451 473 474.5 439 Q498 405 506 357 Q514 309 504 250 Q493 191 468.5 143 Q444 95 408.5 61 Q373 27 328 8.5 Q283 -10 232 -10 Q181 -10 142 8.5 Q103 27 79.5 61 Q56 95 48.5 143 Q41 191 52 250 Q62 309 86 357 Q110 405 145.5 439 Q181 473 226.5 491.5 Q272 510 323 510 Z M314 459 Q276 459 243.5 444 Q211 429 185 402 Q159 375 141 336.5 Q123 298 115 250 Q98 153 131 97 Q164 41 240 41 Q317 41 370 97 Q423 153 440 250 Q457 346 423.5 402.5 Q390 459 314 459 Z " />
<glyph glyph-name="ograve" unicode="&#xf2;" horiz-adv-x="547" d="M330 715 L411 552 L367 552 L264 706 L330 715 Z M323 510 Q374 510 412.5 491.5 Q451 473 474.5 439 Q498 405 506 357 Q514 309 504 250 Q493 191 468.5 143 Q444 95 408.5 61 Q373 27 328 8.5 Q283 -10 232 -10 Q181 -10 142 8.5 Q103 27 79.5 61 Q56 95 48.5 143 Q41 191 52 250 Q62 309 86 357 Q110 405 145.5 439 Q181 473 226.5 491.5 Q272 510 323 510 Z M314 459 Q276 459 243.5 444 Q211 429 185 402 Q159 375 141 336.5 Q123 298 115 250 Q98 153 131 97 Q164 41 240 41 Q317 41 370 97 Q423 153 440 250 Q457 346 423.5 402.5 Q390 459 314 459 Z " />
<glyph glyph-name="otilde" unicode="&#xf5;" horiz-adv-x="547" d="M289 681 Q311 681 327 671.5 Q343 662 355.5 650.5 Q368 639 380 629.5 Q392 620 406 620 Q426 620 440 630 Q454 640 463 665 L491 660 Q478 621 454 600.5 Q430 580 400 580 Q379 580 364.5 590 Q350 600 337.5 611.5 Q325 623 312 633 Q299 643 281 643 Q237 643 223 594 L197 601 Q208 640 232.5 660.5 Q257 681 289 681 Z M323 510 Q374 510 412.5 491.5 Q451 473 474.5 439 Q498 405 506 357 Q514 309 504 250 Q493 191 468.5 143 Q444 95 408.5 61 Q373 27 328 8.5 Q283 -10 232 -10 Q181 -10 142 8.5 Q103 27 79.5 61 Q56 95 48.5 143 Q41 191 52 250 Q62 309 86 357 Q110 405 145.5 439 Q181 473 226.5 491.5 Q272 510 323 510 Z M314 459 Q276 459 243.5 444 Q211 429 185 402 Q159 375 141 336.5 Q123 298 115 250 Q98 153 131 97 Q164 41 240 41 Q317 41 370 97 Q423 153 440 250 Q457 346 423.5 402.5 Q390 459 314 459 Z " />
<glyph glyph-name="uacute" unicode="&#xfa;" horiz-adv-x="568" d="M487 706 L329 552 L285 552 L423 715 L487 706 Z M195 500 L140 191 Q128 122 148 82.5 Q168 43 232 43 Q261 43 291 53.5 Q321 64 346.5 86.5 Q372 109 391.5 144 Q411 179 420 229 L469 500 L531 500 L443 0 L381 0 L399 111 Q372 59 323.5 24.5 Q275 -10 206 -10 Q124 -10 92 40.5 Q60 91 76 180 L133 500 L195 500 Z " />
<glyph glyph-name="ucircumflex" unicode="&#xfb;" horiz-adv-x="568" d="M397 710 L483 560 L440 551 L362 668 L242 551 L202 560 L340 710 L397 710 Z M195 500 L140 191 Q128 122 148 82.5 Q168 43 232 43 Q261 43 291 53.5 Q321 64 346.5 86.5 Q372 109 391.5 144 Q411 179 420 229 L469 500 L531 500 L443 0 L381 0 L399 111 Q372 59 323.5 24.5 Q275 -10 206 -10 Q124 -10 92 40.5 Q60 91 76 180 L133 500 L195 500 Z " />
<glyph glyph-name="udieresis" unicode="&#xfc;" horiz-adv-x="568" d="M396 604 L406 658 L455 658 L445 604 L396 604 Z M249 604 L259 658 L308 658 L298 604 L249 604 Z M195 500 L140 191 Q128 122 148 82.5 Q168 43 232 43 Q261 43 291 53.5 Q321 64 346.5 86.5 Q372 109 391.5 144 Q411 179 420 229 L469 500 L531 500 L443 0 L381 0 L399 111 Q372 59 323.5 24.5 Q275 -10 206 -10 Q124 -10 92 40.5 Q60 91 76 180 L133 500 L195 500 Z " />
<glyph glyph-name="ugrave" unicode="&#xf9;" horiz-adv-x="568" d="M331 715 L412 552 L368 552 L265 706 L331 715 Z M195 500 L140 191 Q128 122 148 82.5 Q168 43 232 43 Q261 43 291 53.5 Q321 64 346.5 86.5 Q372 109 391.5 144 Q411 179 420 229 L469 500 L531 500 L443 0 L381 0 L399 111 Q372 59 323.5 24.5 Q275 -10 206 -10 Q124 -10 92 40.5 Q60 91 76 180 L133 500 L195 500 Z " />
<glyph glyph-name="ydieresis" unicode="&#xff;" horiz-adv-x="462" d="M347 604 L357 658 L406 658 L396 604 L347 604 Z M200 604 L210 658 L259 658 L249 604 L200 604 Z M119 500 L192 116 Q195 99 196 81.5 Q197 64 198 48 Q204 63 212 81 Q220 99 230 116 L443 500 L505 500 L189 -66 Q165 -110 141 -137.5 Q117 -165 90.5 -181 Q64 -197 34.5 -203.5 Q5 -210 -28 -210 L-18 -154 Q25 -153 57 -136.5 Q89 -120 115 -76 L153 -12 L53 500 L119 500 Z " />
<glyph glyph-name="C" unicode="C" horiz-adv-x="684" d="M648 195 Q630 149 599.5 111.5 Q569 74 528 47 Q487 20 438 5 Q389 -10 334 -10 Q258 -10 203.5 18.5 Q149 47 116.5 96 Q84 145 74 210.5 Q64 276 77 350 Q90 424 123 489.5 Q156 555 206 604 Q256 653 320.5 681.5 Q385 710 461 710 Q516 710 560 695 Q604 680 635 653 Q666 626 683.5 588.5 Q701 551 703 505 L634 505 Q629 571 581 611 Q533 651 450 651 Q390 651 340 628.5 Q290 606 252 566 Q214 526 188.5 470.5 Q163 415 151 350 Q139 285 145 229.5 Q151 174 175 134 Q199 94 241.5 71.5 Q284 49 344 49 Q427 49 488.5 89 Q550 129 579 195 L648 195 Z " />
<glyph glyph-name="ampersand" unicode="&#x26;" horiz-adv-x="774" d="M447 656 Q402 656 360.5 640.5 Q319 625 283.5 596 Q248 567 220 526 Q192 485 173 434 L402 434 Q434 434 460.5 443.5 Q487 453 506.5 469 Q526 485 538.5 505.5 Q551 526 555 548 Q558 570 554 589.5 Q550 609 537.5 624 Q525 639 502.5 647.5 Q480 656 447 656 Z M334 49 Q394 49 452 73 Q510 97 559 141.5 Q608 186 643.5 248 Q679 310 693 386 L157 386 Q147 356 142 324 Q131 261 139 210.5 Q147 160 172 124 Q197 88 238 68.5 Q279 49 334 49 Z M460 710 Q509 710 543.5 698.5 Q578 687 598.5 667 Q619 647 626.5 620 Q634 593 628 562 Q621 521 590 486 Q559 451 508 434 L775 434 Q755 329 709 246.5 Q663 164 602 107 Q541 50 469 20 Q397 -10 325 -10 Q253 -10 199.5 15.5 Q146 41 113.5 86.5 Q81 132 70.5 194.5 Q60 257 73 331 Q87 412 122.5 481.5 Q158 551 209.5 601.5 Q261 652 325 681 Q389 710 460 710 Z " />
<glyph glyph-name="nbspace" unicode="&#xa0;" horiz-adv-x="231" d="" />
<glyph glyph-name="A" unicode="A" horiz-adv-x="618" d="M383 661 Q372 635 359 609 Q346 583 335 562 L173 265 L454 265 L396 562 Q392 584 389 610 Q386 636 383 661 Z M441 700 L574 0 L500 0 L462 213 L148 213 L35 0 L-36 0 L344 700 L441 700 Z " />
<glyph glyph-name="B" unicode="B" horiz-adv-x="665" d="M347 53 Q389 53 420.5 64.5 Q452 76 474.5 95.5 Q497 115 510.5 141 Q524 167 529 195 Q534 223 529 249 Q524 275 508 295 Q492 315 464 327 Q436 339 395 339 L178 339 L127 53 L347 53 Z M51 0 L174 700 L463 700 Q515 700 549.5 686 Q584 672 604 649 Q624 626 630 596 Q636 566 630 534 Q625 504 612.5 476.5 Q600 449 579 427 Q558 405 529 389.5 Q500 374 461 368 Q501 363 529 347 Q557 331 574 307 Q591 283 596.5 253 Q602 223 596 189 Q590 151 571 117 Q552 83 521 57 Q490 31 448.5 15.5 Q407 0 355 0 L51 0 Z M393 387 Q433 387 462 399 Q491 411 510.5 430 Q530 449 541.5 473 Q553 497 557 521 Q561 545 558 568 Q555 591 541.5 608.5 Q528 626 503 636.5 Q478 647 438 647 L232 647 L186 387 L393 387 Z " />
<glyph glyph-name="Eng" unicode="&#x14a;" horiz-adv-x="686" d="M270 700 L487 144 Q492 130 496.5 112 Q501 94 505 76 Q506 93 509 115 Q512 137 515 154 L612 700 L678 700 L555 0 L542 -70 Q536 -108 519.5 -135 Q503 -162 480 -179.5 Q457 -197 430 -205.5 Q403 -214 375 -214 L384 -162 Q421 -162 446 -142.5 Q471 -123 481 -67 L493 0 L470 0 L247 576 Q242 590 237 608 Q232 626 230 642 L219 572 L118 0 L51 0 L174 700 L270 700 Z " />
<glyph glyph-name="Eth" unicode="&#xd0;" horiz-adv-x="716" d="M321 53 Q379 53 427.5 74.5 Q476 96 512.5 135.5 Q549 175 573.5 230.5 Q598 286 610 354 Q635 492 587 569.5 Q539 647 424 647 L232 647 L186 387 L298 387 L289 336 L177 336 L127 53 L321 53 Z M51 0 L110 336 L45 336 L54 387 L119 387 L174 700 L444 700 Q513 700 564 675.5 Q615 651 646 606 Q677 561 686.5 497 Q696 433 682 354 Q668 276 637 211 Q606 146 560 99 Q514 52 454 26 Q394 0 324 0 L51 0 Z " />
<glyph glyph-name="IJ" unicode="&#x132;" horiz-adv-x="748" d="M673 700 L741 700 L649 178 Q634 92 570.5 41 Q507 -10 407 -10 Q321 -10 276 35.5 Q231 81 234 153 L304 153 Q302 109 330.5 78 Q359 47 419 47 Q493 47 532 84 Q571 121 581 177 L673 700 Z M51 0 L174 700 L241 700 L118 0 L51 0 Z " />
<glyph glyph-name="Thorn" unicode="&#xde;" horiz-adv-x="626" d="M156 214 L371 214 Q409 214 438.5 226 Q468 238 489 259 Q510 280 522.5 308.5 Q535 337 541 371 Q547 402 544.5 429.5 Q542 457 528.5 477 Q515 497 490 508.5 Q465 520 425 520 L210 520 L156 214 Z M51 0 L174 700 L241 700 L219 574 L448 574 Q499 574 534 558 Q569 542 588.5 514.5 Q608 487 613.5 450.5 Q619 414 612 373 Q604 330 586 292 Q568 254 539 225.5 Q510 197 468.5 180.5 Q427 164 373 164 L147 164 L118 0 L51 0 Z " />
<glyph glyph-name="longs" unicode="&#x17f;" horiz-adv-x="256" d="M317 710 Q350 710 385 703 L376 652 Q359 657 344 658.5 Q329 660 315 660 Q224 660 204 557 L72 -200 L10 -200 L142 557 Q156 634 201.5 672 Q247 710 317 710 Z " />
<glyph glyph-name="eng" unicode="&#x14b;" horiz-adv-x="571" d="M199 500 L179 389 Q206 441 255 475.5 Q304 510 373 510 Q456 510 487 459.5 Q518 409 502 320 L437 -48 Q431 -86 414.5 -112.5 Q398 -139 375.5 -156 Q353 -173 326 -181 Q299 -189 271 -189 L280 -135 Q314 -135 340.5 -116.5 Q367 -98 375 -48 L438 309 Q450 378 430 417.5 Q410 457 346 457 Q317 457 287.5 446.5 Q258 436 232 413.5 Q206 391 186.5 356 Q167 321 158 271 L111 0 L48 0 L136 500 L199 500 Z " />
<glyph glyph-name="eth" unicode="&#xf0;" horiz-adv-x="583" d="M316 429 Q268 429 233 412.5 Q198 396 173 368.5 Q148 341 133.5 305.5 Q119 270 113 233 Q107 194 110.5 159.5 Q114 125 130 99.5 Q146 74 175.5 59 Q205 44 250 44 Q295 44 332 64 Q369 84 398 121 Q427 158 448 209 Q469 260 482 322 Q471 342 454.5 361 Q438 380 417 395 Q396 410 371 419.5 Q346 429 316 429 Z M312 710 Q366 710 409.5 695 Q453 680 485 651 L556 709 L577 683 L508 626 Q545 579 557.5 510 Q570 441 554 351 Q539 266 511.5 199 Q484 132 444.5 85.5 Q405 39 354 14.5 Q303 -10 243 -10 Q182 -10 141 10 Q100 30 76.5 63.5 Q53 97 46.5 141.5 Q40 186 48 235 Q55 280 75 323.5 Q95 367 128 401 Q161 435 207 456 Q253 477 313 477 Q346 477 374 468 Q402 459 424 444 Q446 429 462.5 409.5 Q479 390 491 370 Q502 438 493 492.5 Q484 547 458 585 L373 515 L352 542 L436 611 Q382 662 291 662 L312 710 Z " />
<glyph glyph-name="ij" unicode="&#x133;" horiz-adv-x="466" d="M457 655 L446 594 L381 594 L392 655 L457 655 Z M429 500 L328 -70 Q322 -107 305.5 -133.5 Q289 -160 266.5 -177 Q244 -194 217 -202.5 Q190 -211 162 -211 L171 -158 Q209 -158 233 -139.5 Q257 -121 267 -67 L367 500 L429 500 Z M224 655 L213 594 L148 594 L159 655 L224 655 Z M196 500 L108 0 L46 0 L134 500 L196 500 Z " />
<glyph glyph-name="thorn" unicode="&#xfe;" horiz-adv-x="577" d="M346 459 Q276 459 222.5 407 Q169 355 149 244 Q142 204 145 167 Q148 130 162.5 102 Q177 74 204.5 57.5 Q232 41 273 41 Q311 41 343 56 Q375 71 400 98.5 Q425 126 442 164.5 Q459 203 467 250 Q475 297 471.5 335.5 Q468 374 453 401.5 Q438 429 411 444 Q384 459 346 459 Z M369 510 Q418 510 453 491 Q488 472 509 437.5 Q530 403 536 355.5 Q542 308 532 250 Q522 193 499.5 145 Q477 97 444 62.5 Q411 28 369 9 Q327 -10 278 -10 Q245 -10 218 0.5 Q191 11 172 29.5 Q153 48 141.5 72.5 Q130 97 128 125 L70 -201 L8 -201 L167 700 L229 700 L171 373 Q183 400 202 425 Q221 450 246 469 Q271 488 302 499 Q333 510 369 510 Z " />
<glyph glyph-name="onequarter" unicode="&#xbc;" horiz-adv-x="738" d="M399 137 L525 137 L555 309 L399 137 Z M611 356 L573 137 L629 137 L621 98 L566 98 L549 0 L501 0 L518 98 L346 98 L353 136 L555 356 L611 356 Z M61 345 L68 385 L157 385 L205 659 L87 589 L73 623 L215 706 L265 706 L208 385 L283 385 L276 345 L61 345 Z M14 0 L665 700 L728 700 L77 0 L14 0 Z " />
<glyph glyph-name="onehalf" unicode="&#xbd;" horiz-adv-x="738" d="M551 363 Q584 363 606 354.5 Q628 346 640.5 331 Q653 316 657 296.5 Q661 277 657 256 Q653 231 641 208.5 Q629 186 603.5 161 Q578 136 535.5 106.5 Q493 77 427 40 L623 40 L617 0 L345 0 L351 37 Q426 79 473 110 Q520 141 547 165.5 Q574 190 585.5 209.5 Q597 229 601 249 Q603 263 601 276.5 Q599 290 592 300 Q585 310 571.5 316 Q558 322 538 322 Q498 322 474.5 302 Q451 282 440 250 L393 250 Q406 299 447.5 331 Q489 363 551 363 Z M56 345 L63 385 L152 385 L200 659 L82 589 L68 623 L210 706 L260 706 L203 385 L278 385 L271 345 L56 345 Z M9 0 L660 700 L723 700 L72 0 L9 0 Z " />
<glyph glyph-name="threequarters" unicode="&#xbe;" horiz-adv-x="738" d="M238 708 Q302 708 329 682.5 Q356 657 349 616 Q341 578 314 556.5 Q287 535 248 527 Q288 521 308.5 498 Q329 475 322 437 Q314 395 274.5 366.5 Q235 338 170 338 Q110 338 80.5 365.5 Q51 393 54 438 L104 438 Q102 409 120.5 392 Q139 375 178 375 Q221 375 243.5 394.5 Q266 414 270 441 Q277 473 256.5 491.5 Q236 510 184 510 L190 544 Q240 544 265.5 561 Q291 578 297 610 Q301 636 286.5 653.5 Q272 671 230 671 Q156 671 139 611 L90 611 Q102 655 141 681.5 Q180 708 238 708 Z M363 137 L489 137 L519 309 L363 137 Z M575 356 L537 137 L593 137 L585 98 L530 98 L513 0 L465 0 L482 98 L310 98 L317 136 L519 356 L575 356 Z M8 0 L659 700 L722 700 L71 0 L8 0 Z " />
<glyph glyph-name="onethird" unicode="&#x2153;" horiz-adv-x="738" d="M545 363 Q609 363 636 337.5 Q663 312 656 271 Q648 233 621 211.5 Q594 190 555 182 Q595 176 615.5 153 Q636 130 629 92 Q621 50 581.5 21.5 Q542 -7 477 -7 Q417 -7 387.5 20.5 Q358 48 361 93 L411 93 Q409 64 427.5 47 Q446 30 485 30 Q528 30 550.5 49.5 Q573 69 577 96 Q584 128 563.5 146.5 Q543 165 491 165 L497 199 Q547 199 572.5 216 Q598 233 604 265 Q608 291 593.5 308.5 Q579 326 537 326 Q463 326 446 266 L397 266 Q409 310 448 336.5 Q487 363 545 363 Z M56 345 L63 385 L152 385 L200 659 L82 589 L68 623 L210 706 L260 706 L203 385 L278 385 L271 345 L56 345 Z M4 0 L655 700 L718 700 L67 0 L4 0 Z " />
<glyph glyph-name="Euro" unicode="&#x20ac;" horiz-adv-x="642" d="M175 409 Q170 394 166.5 379 Q163 364 161 348 Q153 310 152 276 L377 276 L354 240 L152 240 Q155 151 199 97.5 Q243 44 337 44 Q420 44 475 84 Q530 124 561 190 L625 190 Q587 98 511.5 43 Q436 -12 328 -12 Q267 -12 222.5 7 Q178 26 148 59.5 Q118 93 102.5 139 Q87 185 85 240 L7 240 L29 276 L85 276 Q86 293 88 311 Q90 329 93 348 Q95 364 98.5 379 Q102 394 107 409 L37 409 L59 446 L119 446 Q139 502 171 550 Q203 598 245 633 Q287 668 340 688 Q393 708 455 708 Q563 708 619 652.5 Q675 597 681 506 L616 506 Q609 572 568 612 Q527 652 444 652 Q396 652 356 637 Q316 622 284 595 Q252 568 227.5 530 Q203 492 186 446 L493 446 L471 409 L175 409 Z " />
<glyph glyph-name="multiply" unicode="&#xd7;" horiz-adv-x="583" d="M309 330 L532 519 L562 482 L339 293 L496 103 L452 66 L295 255 L73 66 L42 103 L265 292 L109 482 L153 519 L309 330 Z " />
<glyph glyph-name="minus" unicode="&#x2212;" horiz-adv-x="583" d="M47 266 L56 319 L559 319 L550 266 L47 266 Z " />
<glyph glyph-name="estimated" unicode="&#x212e;" horiz-adv-x="702" d="M443 654 Q393 654 350.5 638 Q308 622 273.5 593.5 Q239 565 212.5 525.5 Q186 486 168 438 L627 438 Q630 484 621 523.5 Q612 563 589.5 592 Q567 621 530.5 637.5 Q494 654 443 654 Z M456 710 Q524 710 573 687.5 Q622 665 652.5 622.5 Q683 580 694 520 Q705 460 697 385 L152 385 Q150 376 148.5 367.5 Q147 359 145 350 Q134 285 140 229.5 Q146 174 170 134 Q194 94 236 71.5 Q278 49 338 49 Q421 49 482 89 Q543 129 573 195 L643 195 Q624 149 593 111.5 Q562 74 521.5 47 Q481 20 432.5 5 Q384 -10 329 -10 Q253 -10 198.5 18.5 Q144 47 111.5 96 Q79 145 69 210.5 Q59 276 72 350 Q85 424 118 489.5 Q151 555 200.5 604 Q250 653 315 681.5 Q380 710 456 710 Z " />
<glyph glyph-name="brokenbar" unicode="&#xa6;" horiz-adv-x="294" d="M37 -211 L94 112 L159 112 L102 -211 L37 -211 Z M141 377 L198 700 L263 700 L206 377 L141 377 Z " />
<glyph glyph-name="minute" unicode="&#x2032;" horiz-adv-x="172" d="M119 513 L135 709 L206 709 L155 513 L119 513 Z " />
<glyph glyph-name="second" unicode="&#x2033;" horiz-adv-x="300" d="M247 513 L263 709 L334 709 L282 513 L247 513 Z M119 513 L135 709 L206 709 L155 513 L119 513 Z " />
<glyph glyph-name="commaaccent" unicode="&#xf6c3;" horiz-adv-x="178" d="M79 -52 L71 -96 Q64 -134 41.5 -161.5 Q19 -189 -12 -209 L-20 -187 Q28 -155 37 -104 L8 -104 L17 -52 L79 -52 Z " />
<glyph glyph-name="arrowleft" unicode="&#x2190;" horiz-adv-x="647" d="M337 527 L367 490 L166 319 L613 319 L604 266 L156 266 L298 94 L254 58 L61 292 L337 527 Z " />
<glyph glyph-name="arrowright" unicode="&#x2192;" horiz-adv-x="647" d="M608 292 L332 58 L302 94 L504 266 L56 266 L66 318 L513 318 L371 490 L415 527 L608 292 Z " />
<glyph glyph-name="arrowup" unicode="&#x2191;" horiz-adv-x="570" d="M535 313 L491 276 L349 447 L271 0 L219 0 L297 448 L95 276 L65 313 L341 547 L535 313 Z " />
<glyph glyph-name="arrowdown" unicode="&#x2193;" horiz-adv-x="570" d="M363 524 L284 77 L487 249 L517 212 L241 -23 L47 212 L91 249 L232 77 L311 524 L363 524 Z " />
<glyph glyph-name="afii00208" unicode="&#x2015;" horiz-adv-x="1013" d="M57 265 L66 319 L978 319 L969 265 L57 265 Z " />
<glyph glyph-name="afii10017" unicode="&#x410;" horiz-adv-x="618" d="M383 661 Q372 635 359 609 Q346 583 335 562 L173 265 L454 265 L396 562 Q392 584 389 610 Q386 636 383 661 Z M441 700 L574 0 L500 0 L462 213 L148 213 L35 0 L-36 0 L344 700 L441 700 Z " />
<glyph glyph-name="afii10018" unicode="&#x411;" horiz-adv-x="663" d="M126 49 L347 49 Q388 49 419 61 Q450 73 472 94 Q494 115 507 142.5 Q520 170 526 201 Q532 232 527.5 260 Q523 288 507.5 309.5 Q492 331 465 343.5 Q438 356 398 356 L181 356 L126 49 Z M614 700 L605 647 L232 647 L189 402 L420 402 Q474 402 510.5 385 Q547 368 568.5 340.5 Q590 313 596.5 277 Q603 241 596 202 Q589 161 569.5 124.5 Q550 88 519 60 Q488 32 446 16 Q404 0 352 0 L51 0 L174 700 L614 700 Z " />
<glyph glyph-name="afii10019" unicode="&#x412;" horiz-adv-x="665" d="M347 53 Q389 53 420.5 64.5 Q452 76 474.5 95.5 Q497 115 510.5 141 Q524 167 529 195 Q534 223 529 249 Q524 275 508 295 Q492 315 464 327 Q436 339 395 339 L178 339 L127 53 L347 53 Z M51 0 L174 700 L463 700 Q515 700 549.5 686 Q584 672 604 649 Q624 626 630 596 Q636 566 630 534 Q625 504 612.5 476.5 Q600 449 579 427 Q558 405 529 389.5 Q500 374 461 368 Q501 363 529 347 Q557 331 574 307 Q591 283 596.5 253 Q602 223 596 189 Q590 151 571 117 Q552 83 521 57 Q490 31 448.5 15.5 Q407 0 355 0 L51 0 Z M393 387 Q433 387 462 399 Q491 411 510.5 430 Q530 449 541.5 473 Q553 497 557 521 Q561 545 558 568 Q555 591 541.5 608.5 Q528 626 503 636.5 Q478 647 438 647 L232 647 L186 387 L393 387 Z " />
<glyph glyph-name="afii10020" unicode="&#x413;" horiz-adv-x="536" d="M609 700 L600 647 L232 647 L118 0 L51 0 L174 700 L609 700 Z " />
<glyph glyph-name="afii10021" unicode="&#x414;" horiz-adv-x="765" d="M381 647 Q366 567 345.5 487.5 Q325 408 296.5 332 Q268 256 231 185 Q194 114 147 53 L514 53 L619 647 L381 647 Z M696 700 L582 53 L704 53 L654 -168 L592 -168 L622 0 L55 0 L24 -168 L-37 -168 L-9 53 L83 53 Q137 124 176 204.5 Q215 285 243.5 368.5 Q272 452 292.5 536.5 Q313 621 328 700 L696 700 Z " />
<glyph glyph-name="afii10022" unicode="&#x415;" horiz-adv-x="602" d="M51 0 L174 700 L630 700 L621 647 L232 647 L187 390 L517 390 L508 337 L177 337 L127 53 L520 53 L511 0 L51 0 Z " />
<glyph glyph-name="afii10023" unicode="&#x401;" horiz-adv-x="602" d="M471 762 L481 812 L529 812 L520 762 L471 762 Z M319 762 L328 812 L377 812 L368 762 L319 762 Z M51 0 L174 700 L630 700 L621 647 L232 647 L187 390 L517 390 L508 337 L177 337 L127 53 L520 53 L511 0 L51 0 Z " />
<glyph glyph-name="afii10024" unicode="&#x416;" horiz-adv-x="933" d="M800 0 L528 366 L901 700 L983 700 L608 370 L884 0 L800 0 Z M393 0 L516 700 L584 700 L461 0 L393 0 Z M-31 0 L375 370 L117 700 L198 700 L454 366 L53 0 L-31 0 Z " />
<glyph glyph-name="afii10025" unicode="&#x417;" horiz-adv-x="616" d="M301 386 Q500 386 524 528 Q529 556 524 579.5 Q519 603 502 620 Q485 637 455.5 647 Q426 657 384 657 Q306 657 257.5 624.5 Q209 592 192 533 L120 533 Q132 573 157 606 Q182 639 218 662 Q254 685 298.5 697.5 Q343 710 393 710 Q450 710 492 696.5 Q534 683 560 660 Q586 637 596.5 604.5 Q607 572 600 535 Q593 494 573 463 Q553 432 523.5 410 Q494 388 456.5 375.5 Q419 363 376 360 Q464 355 512 311 Q560 267 546 184 Q539 144 515.5 109 Q492 74 454.5 47.5 Q417 21 368 5.5 Q319 -10 262 -10 Q212 -10 171.5 3 Q131 16 102.5 40 Q74 64 60 97 Q46 130 49 171 L121 171 Q117 111 157 77 Q197 43 275 43 Q318 43 352.5 55 Q387 67 412 86.5 Q437 106 452.5 132 Q468 158 473 187 Q486 258 440 295.5 Q394 333 291 333 L301 386 Z " />
<glyph glyph-name="afii10026" unicode="&#x418;" horiz-adv-x="683" d="M240 700 L144 157 Q141 140 137 120 Q133 100 129 83 Q138 98 148.5 116 Q159 134 169 148 L584 700 L676 700 L553 0 L485 0 L585 575 Q588 590 591.5 609 Q595 628 599 643 Q591 629 580.5 612 Q570 595 559 581 L130 0 L51 0 L174 700 L240 700 Z " />
<glyph glyph-name="afii10027" unicode="&#x419;" horiz-adv-x="683" d="M240 700 L144 157 Q141 140 137 120 Q133 100 129 83 Q138 98 148.5 116 Q159 134 169 148 L584 700 L676 700 L553 0 L485 0 L585 575 Q588 590 591.5 609 Q595 628 599 643 Q591 629 580.5 612 Q570 595 559 581 L130 0 L51 0 L174 700 L240 700 Z M374 837 Q369 805 384 785 Q399 765 436 765 Q476 765 497 786 Q518 807 523 837 L565 837 Q557 791 519.5 762 Q482 733 430 733 Q379 733 351.5 762 Q324 791 332 837 L374 837 Z " />
<glyph glyph-name="afii10028" unicode="&#x41a;" horiz-adv-x="599" d="M466 0 L194 366 L567 700 L649 700 L274 370 L550 0 L466 0 Z M51 0 L174 700 L241 700 L118 0 L51 0 Z " />
<glyph glyph-name="afii10029" unicode="&#x41b;" horiz-adv-x="663" d="M655 700 L532 0 L464 0 L578 647 L335 647 Q322 587 304 516 Q286 445 263.5 373.5 Q241 302 214 235.5 Q187 169 155 117 Q73 -10 -35 -10 L-24 53 Q13 53 44.5 78 Q76 103 104 149 Q133 197 158 262 Q183 327 204.5 400.5 Q226 474 244.5 551 Q263 628 278 700 L655 700 Z " />
<glyph glyph-name="afii10030" unicode="&#x41c;" horiz-adv-x="838" d="M280 700 L388 146 Q390 131 391.5 112 Q393 93 394 77 Q400 93 408 113 Q416 133 424 147 L725 700 L830 700 L707 0 L640 0 L742 582 L756 651 Q749 634 741 617 Q733 600 725 584 L408 0 L350 0 L237 585 Q235 599 233.5 616.5 Q232 634 230 651 Q229 636 226 616.5 Q223 597 220 583 L118 0 L51 0 L174 700 L280 700 Z " />
<glyph glyph-name="afii10031" unicode="&#x41d;" horiz-adv-x="685" d="M486 0 L545 337 L177 337 L118 0 L51 0 L174 700 L241 700 L187 390 L555 390 L609 700 L677 700 L554 0 L486 0 Z " />
<glyph glyph-name="afii10032" unicode="&#x41e;" horiz-adv-x="748" d="M459 710 Q535 710 589 681.5 Q643 653 674.5 604 Q706 555 715.5 489.5 Q725 424 712 350 Q699 276 666.5 210.5 Q634 145 585 96 Q536 47 472 18.5 Q408 -10 332 -10 Q256 -10 202 18.5 Q148 47 116 96 Q84 145 74 210.5 Q64 276 77 350 Q90 424 123 489.5 Q156 555 205 604 Q254 653 318.5 681.5 Q383 710 459 710 Z M448 651 Q388 651 338 628.5 Q288 606 250.5 566 Q213 526 188 470.5 Q163 415 151 350 Q139 285 145 229.5 Q151 174 174.5 134 Q198 94 240 71.5 Q282 49 342 49 Q402 49 452 71.5 Q502 94 539.5 134 Q577 174 602.5 229.5 Q628 285 639 350 Q651 415 645 470.5 Q639 526 615.5 566 Q592 606 550 628.5 Q508 651 448 651 Z " />
<glyph glyph-name="afii10033" unicode="&#x41f;" horiz-adv-x="656" d="M468 0 L582 647 L223 647 L109 0 L44 0 L167 700 L655 700 L532 0 L468 0 Z " />
<glyph glyph-name="afii10034" unicode="&#x420;" horiz-adv-x="626" d="M232 647 L178 340 L393 340 Q431 340 460.5 352 Q490 364 511 385 Q532 406 545 435 Q558 464 564 498 Q570 529 567 556 Q564 583 550.5 603.5 Q537 624 512 635.5 Q487 647 447 647 L232 647 Z M470 700 Q522 700 557 684 Q592 668 611.5 641 Q631 614 636 577.5 Q641 541 634 499 Q626 456 608 418 Q590 380 561 351.5 Q532 323 490.5 306.5 Q449 290 395 290 L169 290 L118 0 L51 0 L174 700 L470 700 Z " />
<glyph glyph-name="afii10035" unicode="&#x421;" horiz-adv-x="684" d="M648 195 Q630 149 599.5 111.5 Q569 74 528 47 Q487 20 438 5 Q389 -10 334 -10 Q258 -10 203.5 18.5 Q149 47 116.5 96 Q84 145 74 210.5 Q64 276 77 350 Q90 424 123 489.5 Q156 555 206 604 Q256 653 320.5 681.5 Q385 710 461 710 Q516 710 560 695 Q604 680 635 653 Q666 626 683.5 588.5 Q701 551 703 505 L634 505 Q629 571 581 611 Q533 651 450 651 Q390 651 340 628.5 Q290 606 252 566 Q214 526 188.5 470.5 Q163 415 151 350 Q139 285 145 229.5 Q151 174 175 134 Q199 94 241.5 71.5 Q284 49 344 49 Q427 49 488.5 89 Q550 129 579 195 L648 195 Z " />
<glyph glyph-name="afii10036" unicode="&#x422;" horiz-adv-x="570" d="M212 0 L326 647 L85 647 L94 700 L643 700 L633 647 L393 647 L280 0 L212 0 Z " />
<glyph glyph-name="afii10037" unicode="&#x423;" horiz-adv-x="606" d="M174 700 L302 332 Q312 305 316 274 Q325 290 334 304.5 Q343 319 352 332 L609 700 L682 700 L267 111 Q224 48 172.5 19.5 Q121 -9 62 -9 Q52 -9 41.5 -8.5 Q31 -8 21 -7 L32 53 Q47 50 65 50 Q100 50 133 64.5 Q166 79 192 114 L268 220 L98 700 L174 700 Z " />
<glyph glyph-name="afii10038" unicode="&#x424;" horiz-adv-x="769" d="M144 355 Q129 266 177 210 Q225 154 336 152 L408 558 Q295 555 228 500 Q161 445 144 355 Z M668 355 Q684 445 635.5 500 Q587 555 476 558 L404 152 Q460 153 505 168 Q550 183 584 210 Q618 237 639 273.5 Q660 310 668 355 Z M501 700 L484 607 Q631 599 695 531.5 Q759 464 740 355 Q721 245 633.5 178 Q546 111 396 103 L378 0 L310 0 L328 103 Q181 111 117 178 Q53 245 72 355 Q92 464 179 531.5 Q266 599 417 607 L433 700 L501 700 Z " />
<glyph glyph-name="afii10039" unicode="&#x425;" horiz-adv-x="628" d="M187 700 L325 448 Q330 436 335 423 Q340 410 344 396 Q353 410 364 423.5 Q375 437 384 448 L610 700 L688 700 L377 357 L576 0 L491 0 L347 263 Q341 275 335.5 288.5 Q330 302 327 316 Q317 301 306.5 288 Q296 275 285 262 L51 0 L-28 0 L293 355 L103 700 L187 700 Z " />
<glyph glyph-name="afii10040" unicode="&#x426;" horiz-adv-x="739" d="M241 700 L127 53 L489 53 L603 700 L670 700 L555 53 L677 53 L627 -168 L566 -168 L596 0 L51 0 L174 700 L241 700 Z " />
<glyph glyph-name="afii10041" unicode="&#x427;" horiz-adv-x="657" d="M460 0 L520 344 Q502 308 473.5 280.5 Q445 253 411 235 Q377 217 339.5 207.5 Q302 198 265 198 Q228 198 196.5 208 Q165 218 143 237.5 Q121 257 111 287 Q101 317 108 358 L168 700 L236 700 L179 376 Q174 346 181.5 324 Q189 302 205.5 288 Q222 274 246 267 Q270 260 298 260 Q334 260 373.5 272 Q413 284 447 308 Q481 332 506 367.5 Q531 403 539 451 L583 700 L650 700 L527 0 L460 0 Z " />
<glyph glyph-name="afii10042" unicode="&#x428;" horiz-adv-x="936" d="M241 700 L127 53 L403 53 L517 700 L584 700 L470 53 L746 53 L860 700 L928 700 L805 0 L51 0 L174 700 L241 700 Z " />
<glyph glyph-name="afii10043" unicode="&#x429;" horiz-adv-x="997" d="M241 700 L127 53 L403 53 L517 700 L584 700 L470 53 L746 53 L860 700 L928 700 L814 53 L936 53 L886 -168 L824 -168 L854 0 L51 0 L174 700 L241 700 Z " />
<glyph glyph-name="afii10044" unicode="&#x42a;" horiz-adv-x="711" d="M290 700 L239 410 L470 410 Q524 410 560.5 393 Q597 376 618 347.5 Q639 319 645.5 282.5 Q652 246 645 207 Q638 166 618.5 128.5 Q599 91 568 62.5 Q537 34 495 17 Q453 0 401 0 L99 0 L213 647 L84 647 L93 700 L290 700 Z M176 52 L396 52 Q437 52 468 64.5 Q499 77 521 98 Q543 119 556.5 147 Q570 175 576 206 Q581 237 576.5 265.5 Q572 294 557 315.5 Q542 337 515 349.5 Q488 362 448 362 L230 362 L176 52 Z " />
<glyph glyph-name="afii10045" unicode="&#x42b;" horiz-adv-x="829" d="M631 0 L754 700 L822 700 L699 0 L631 0 Z M127 52 L344 52 Q385 52 416 64.5 Q447 77 469.5 98 Q492 119 505.5 147 Q519 175 525 206 Q530 237 525.5 265.5 Q521 294 505.5 315.5 Q490 337 463 349.5 Q436 362 396 362 L182 362 L127 52 Z M241 700 L191 410 L419 410 Q473 410 509.5 393 Q546 376 567 347.5 Q588 319 594.5 282.5 Q601 246 594 207 Q587 166 567.5 128.5 Q548 91 517 62.5 Q486 34 444 17 Q402 0 350 0 L51 0 L174 700 L241 700 Z " />
<glyph glyph-name="afii10046" unicode="&#x42c;" horiz-adv-x="663" d="M127 52 L347 52 Q388 52 419 64.5 Q450 77 472 98 Q494 119 507.5 147 Q521 175 527 206 Q533 237 528.5 265.5 Q524 294 508.5 315.5 Q493 337 466 349.5 Q439 362 399 362 L182 362 L127 52 Z M241 700 L191 410 L422 410 Q476 410 512.5 393 Q549 376 570 347.5 Q591 319 597.5 282.5 Q604 246 597 207 Q590 166 570.5 128.5 Q551 91 519.5 62.5 Q488 34 446 17 Q404 0 352 0 L51 0 L174 700 L241 700 Z " />
<glyph glyph-name="afii10047" unicode="&#x42d;" horiz-adv-x="684" d="M393 710 Q469 710 523.5 681.5 Q578 653 610 604 Q642 555 652 489.5 Q662 424 649 350 Q636 276 603 210.5 Q570 145 520.5 96 Q471 47 406.5 18.5 Q342 -10 266 -10 Q211 -10 167 4.5 Q123 19 91.5 45.5 Q60 72 42.5 109.5 Q25 147 23 192 L92 192 Q98 126 145.5 86 Q193 46 276 46 Q335 46 384.5 68 Q434 90 472 129 Q510 168 535.5 221.5 Q561 275 572 337 L258 337 L267 390 L579 390 Q586 447 577 495 Q568 543 543.5 578.5 Q519 614 479 633.5 Q439 653 383 653 Q300 653 238.5 613.5 Q177 574 148 508 L78 508 Q96 553 127 590.5 Q158 628 199 654.5 Q240 681 289 695.5 Q338 710 393 710 Z " />
<glyph glyph-name="afii10048" unicode="&#x42e;" horiz-adv-x="988" d="M691 651 Q631 651 581.5 628.5 Q532 606 495 566 Q458 526 433 470.5 Q408 415 397 350 Q385 285 390.5 229.5 Q396 174 419 134 Q442 94 483.5 71.5 Q525 49 585 49 Q645 49 694.5 71.5 Q744 94 781 134 Q818 174 843 229.5 Q868 285 879 350 Q891 415 885.5 470.5 Q880 526 857 566 Q834 606 792.5 628.5 Q751 651 691 651 Z M241 700 L187 390 L333 390 Q349 456 382.5 514.5 Q416 573 463 616.5 Q510 660 570.5 685 Q631 710 702 710 Q778 710 831.5 681.5 Q885 653 916 604 Q947 555 956 489.5 Q965 424 952 350 Q939 276 907 210.5 Q875 145 826.5 96 Q778 47 714.5 18.5 Q651 -10 575 -10 Q501 -10 448 16 Q395 42 363.5 88.5 Q332 135 321.5 198.5 Q311 262 322 337 L177 337 L118 0 L51 0 L174 700 L241 700 Z " />
<glyph glyph-name="afii10049" unicode="&#x42f;" horiz-adv-x="658" d="M356 647 Q316 647 287 636.5 Q258 626 238.5 607.5 Q219 589 207 564 Q195 539 190 510 Q185 480 187.5 453.5 Q190 427 203.5 407.5 Q217 388 242 376.5 Q267 365 307 365 L524 365 L573 647 L356 647 Z M651 700 L528 0 L460 0 L515 313 L310 313 Q277 313 246.5 302 Q216 291 189 257.5 Q162 224 139 162.5 Q116 101 98 0 L30 0 Q48 100 71.5 163 Q95 226 123 263.5 Q151 301 180.5 317 Q210 333 240 339 Q165 349 136 396.5 Q107 444 121 518 Q127 555 144 588 Q161 621 189.5 646 Q218 671 258 685.5 Q298 700 350 700 L651 700 Z " />
<glyph glyph-name="afii10050" unicode="&#x490;" horiz-adv-x="561" d="M544 700 L571 795 L626 795 L600 647 L232 647 L118 0 L51 0 L174 700 L544 700 Z " />
<glyph glyph-name="afii10051" unicode="&#x402;" horiz-adv-x="726" d="M643 700 L633 647 L393 647 L341 349 Q369 401 419.5 435.5 Q470 470 540 470 Q625 470 658.5 419.5 Q692 369 676 280 L649 129 Q642 89 622.5 57.5 Q603 26 574 4.5 Q545 -17 508 -28.5 Q471 -40 430 -40 L439 11 Q493 11 532 39.5 Q571 68 582 128 L607 269 Q619 338 598 377.5 Q577 417 512 417 Q483 417 452.5 406.5 Q422 396 395.5 373.5 Q369 351 349 317 Q329 283 321 235 L280 0 L212 0 L326 647 L85 647 L94 700 L643 700 Z " />
<glyph glyph-name="afii10052" unicode="&#x403;" horiz-adv-x="536" d="M551 864 L393 726 L352 726 L492 872 L551 864 Z M609 700 L600 647 L232 647 L118 0 L51 0 L174 700 L609 700 Z " />
<glyph glyph-name="afii10053" unicode="&#x404;" horiz-adv-x="684" d="M461 710 Q516 710 560 695.5 Q604 681 635 654.5 Q666 628 683.5 590.5 Q701 553 703 508 L634 508 Q629 574 581.5 613.5 Q534 653 451 653 Q395 653 348 633.5 Q301 614 264 579 Q227 544 200.5 495.5 Q174 447 159 390 L473 390 L464 337 L149 337 Q139 274 146.5 220.5 Q154 167 178 128.5 Q202 90 243.5 68 Q285 46 344 46 Q427 46 488.5 86 Q550 126 578 192 L648 192 Q630 147 599.5 109.5 Q569 72 528 45.5 Q487 19 438 4.5 Q389 -10 334 -10 Q258 -10 203.5 18.5 Q149 47 116.5 96 Q84 145 74 210.5 Q64 276 77 350 Q90 424 123 489.5 Q156 555 206 604 Q256 653 320.5 681.5 Q385 710 461 710 Z " />
<glyph glyph-name="afii10054" unicode="&#x405;" horiz-adv-x="632" d="M401 710 Q458 710 500.5 696.5 Q543 683 571 659.5 Q599 636 613 604.5 Q627 573 626 537 L555 537 Q555 561 546 583 Q537 605 517.5 621 Q498 637 466.5 646.5 Q435 656 390 656 Q342 656 306 645 Q270 634 245.5 615.5 Q221 597 207 573.5 Q193 550 189 525 Q183 489 193 466 Q203 443 225 428.5 Q247 414 278.5 406.5 Q310 399 346 394 Q397 387 442 375 Q487 363 519 341 Q551 319 566 284.5 Q581 250 572 198 Q564 156 541 118 Q518 80 479.5 51.5 Q441 23 389 6.5 Q337 -10 273 -10 Q217 -10 173.5 3.5 Q130 17 100.5 40.5 Q71 64 56 95.5 Q41 127 42 164 L113 164 Q113 139 123 117 Q133 95 154 78.5 Q175 62 207.5 52.5 Q240 43 285 43 Q333 43 370 55 Q407 67 433.5 87.5 Q460 108 476 134 Q492 160 497 189 Q504 228 492 253 Q480 278 455.5 294 Q431 310 395.5 318.5 Q360 327 320 333 Q270 340 229 351 Q188 362 160 383 Q132 404 119.5 436.5 Q107 469 116 520 Q122 557 143.5 591 Q165 625 201 651.5 Q237 678 287.5 694 Q338 710 401 710 Z " />
<glyph glyph-name="afii10055" unicode="&#x406;" horiz-adv-x="249" d="M51 0 L174 700 L241 700 L118 0 L51 0 Z " />
<glyph glyph-name="afii10056" unicode="&#x407;" horiz-adv-x="249" d="M270 762 L280 812 L328 812 L319 762 L270 762 Z M118 762 L127 812 L176 812 L167 762 L118 762 Z M51 0 L174 700 L241 700 L118 0 L51 0 Z " />
<glyph glyph-name="afii10057" unicode="&#x408;" horiz-adv-x="517" d="M510 700 L418 178 Q403 92 339.5 41 Q276 -10 176 -10 Q90 -10 45 35.5 Q0 81 3 153 L73 153 Q71 109 99.5 78 Q128 47 188 47 Q262 47 301 84 Q340 121 350 177 L442 700 L510 700 Z " />
<glyph glyph-name="afii10058" unicode="&#x409;" horiz-adv-x="1076" d="M655 700 L604 410 L835 410 Q889 410 925.5 393 Q962 376 983 347.5 Q1004 319 1010.5 282.5 Q1017 246 1010 207 Q1003 166 983.5 128.5 Q964 91 933 62.5 Q902 34 860 17 Q818 0 766 0 L464 0 L578 647 L335 647 Q322 587 304 516 Q286 445 263.5 373.5 Q241 302 214 235.5 Q187 169 155 117 Q73 -10 -35 -10 L-24 53 Q13 53 44.5 78 Q76 103 104 149 Q133 197 158 262 Q183 327 204.5 400.5 Q226 474 244.5 551 Q263 628 278 700 L655 700 Z M541 52 L761 52 Q802 52 833 64.5 Q864 77 886 98 Q908 119 921.5 147 Q935 175 941 206 Q947 237 942.5 265.5 Q938 294 922.5 315.5 Q907 337 880 349.5 Q853 362 813 362 L595 362 L541 52 Z " />
<glyph glyph-name="afii10059" unicode="&#x40a;" horiz-adv-x="1033" d="M526 52 L717 52 Q758 52 789 64.5 Q820 77 842 98 Q864 119 877.5 147 Q891 175 897 206 Q903 237 898.5 265 Q894 293 878.5 314.5 Q863 336 836 348.5 Q809 361 769 361 L581 361 L526 52 Z M241 700 L191 410 L522 410 L573 700 L641 700 L590 410 L792 410 Q846 410 882.5 393 Q919 376 940 347.5 Q961 319 967.5 282.5 Q974 246 967 207 Q960 166 940.5 128.5 Q921 91 889.5 62.5 Q858 34 816 17 Q774 0 722 0 L450 0 L513 361 L182 361 L118 0 L51 0 L174 700 L241 700 Z " />
<glyph glyph-name="afii10060" unicode="&#x40b;" horiz-adv-x="752" d="M643 700 L633 647 L393 647 L339 342 Q368 394 418.5 428.5 Q469 463 539 463 Q624 463 657 412.5 Q690 362 674 273 L627 0 L560 0 L605 262 Q618 330 597 370 Q576 410 511 410 Q482 410 451.5 399.5 Q421 389 394.5 366.5 Q368 344 348 310 Q328 276 319 228 L280 0 L212 0 L326 647 L85 647 L94 700 L643 700 Z " />
<glyph glyph-name="afii10061" unicode="&#x40c;" horiz-adv-x="599" d="M516 864 L358 726 L317 726 L457 872 L516 864 Z M437 0 L165 366 L538 700 L620 700 L245 370 L521 0 L437 0 Z M22 0 L145 700 L212 700 L89 0 L22 0 Z " />
<glyph glyph-name="afii10062" unicode="&#x40e;" horiz-adv-x="606" d="M174 700 L302 332 Q312 305 316 274 Q325 290 334 304.5 Q343 319 352 332 L609 700 L682 700 L267 111 Q224 48 172.5 19.5 Q121 -9 62 -9 Q52 -9 41.5 -8.5 Q31 -8 21 -7 L32 53 Q47 50 65 50 Q100 50 133 64.5 Q166 79 192 114 L268 220 L98 700 L174 700 Z M345 837 Q340 805 354.5 785 Q369 765 406 765 Q447 765 467.5 786 Q488 807 493 837 L536 837 Q527 791 489.5 762 Q452 733 400 733 Q349 733 321.5 762 Q294 791 302 837 L345 837 Z " />
<glyph glyph-name="afii10065" unicode="&#x430;" horiz-adv-x="575" d="M311 459 Q233 459 183 401.5 Q133 344 117 250 Q108 203 111.5 164.5 Q115 126 130 98.5 Q145 71 172 56 Q199 41 237 41 Q278 41 311 57.5 Q344 74 368.5 102 Q393 130 409 167 Q425 204 432 244 Q442 299 437.5 339.5 Q433 380 416.5 406.5 Q400 433 372.5 446 Q345 459 311 459 Z M307 510 Q343 510 369.5 499 Q396 488 414 469 Q432 450 442 425 Q452 400 455 373 L477 500 L539 500 L452 0 L390 0 L411 124 Q399 98 379.5 74 Q360 50 334.5 31 Q309 12 279 1 Q249 -10 216 -10 Q167 -10 131 9 Q95 28 74 62.5 Q53 97 47 145 Q41 193 52 250 Q62 308 84.5 355.5 Q107 403 140 437.5 Q173 472 215.5 491 Q258 510 307 510 Z " />
<glyph glyph-name="afii10066" unicode="&#x431;" horiz-adv-x="555" d="M327 456 Q280 456 232 435.5 Q184 415 146 386 Q142 371 139.5 355.5 Q137 340 134 324 Q109 184 137.5 112.5 Q166 41 251 41 Q293 41 326 58 Q359 75 383.5 104 Q408 133 423.5 171.5 Q439 210 447 254 Q454 293 453.5 329.5 Q453 366 440.5 394 Q428 422 400.5 439 Q373 456 327 456 Z M405 707 Q434 707 471 710.5 Q508 714 535 722 L526 669 Q498 661 461 658.5 Q424 656 395 656 Q313 656 253.5 597.5 Q194 539 159 429 Q201 463 250 483.5 Q299 504 353 504 Q408 504 443.5 484 Q479 464 497.5 430 Q516 396 519 351 Q522 306 513 257 Q503 201 481 152.5 Q459 104 424.5 68 Q390 32 344.5 11 Q299 -10 243 -10 Q128 -10 85.5 76 Q43 162 72 329 Q87 414 117 484 Q147 554 190 603.5 Q233 653 287.5 680 Q342 707 405 707 Z " />
<glyph glyph-name="afii10067" unicode="&#x432;" horiz-adv-x="520" d="M115 45 L267 45 Q328 45 359 73 Q390 101 397 139 Q404 179 382 208.5 Q360 238 302 238 L149 238 L115 45 Z M355 500 Q395 500 421.5 489.5 Q448 479 463 461.5 Q478 444 483 422 Q488 400 484 378 Q476 337 447 304.5 Q418 272 364 261 Q422 253 446 217 Q470 181 462 133 Q457 106 442.5 82 Q428 58 404 40 Q380 22 348 11 Q316 0 276 0 L46 0 L134 500 L355 500 Z M156 279 L301 279 Q329 279 350 287 Q371 295 384.5 308 Q398 321 406 337 Q414 353 417 369 Q420 385 417.5 400.5 Q415 416 405.5 428 Q396 440 378 447.5 Q360 455 332 455 L187 455 L156 279 Z " />
<glyph glyph-name="afii10068" unicode="&#x433;" horiz-adv-x="440" d="M473 500 L464 450 L186 450 L108 0 L46 0 L134 500 L473 500 Z " />
<glyph glyph-name="afii10069" unicode="&#x434;" horiz-adv-x="582" d="M266 451 Q258 409 240 353.5 Q222 298 199.5 241 Q177 184 152 132 Q127 80 105 46 L370 46 L442 451 L266 451 Z M513 500 L432 46 L532 46 L486 -135 L435 -135 L459 0 L32 0 L7 -135 L-42 -135 L-25 46 L48 46 Q72 84 98 140 Q124 196 147.5 258 Q171 320 189.5 383.5 Q208 447 217 500 L513 500 Z " />
<glyph glyph-name="afii10070" unicode="&#x435;" horiz-adv-x="536" d="M328 464 Q256 464 202.5 418.5 Q149 373 124 294 L284 294 Q365 294 403 318.5 Q441 343 441 382 Q441 397 434.5 412 Q428 427 414.5 438.5 Q401 450 379.5 457 Q358 464 328 464 Z M338 510 Q382 510 414 499.5 Q446 489 466.5 472 Q487 455 496.5 433 Q506 411 506 388 Q506 359 493 333.5 Q480 308 452.5 289.5 Q425 271 382.5 260.5 Q340 250 282 250 L114 250 Q96 153 129 96 Q162 39 241 39 Q268 39 293.5 46 Q319 53 340.5 67 Q362 81 378 101 Q394 121 403 148 L466 148 Q454 110 430 80.5 Q406 51 375 31 Q344 11 307.5 0.5 Q271 -10 233 -10 Q180 -10 141.5 9 Q103 28 79 62.5 Q55 97 47.5 144.5 Q40 192 51 250 Q61 308 87.5 355.5 Q114 403 152 437.5 Q190 472 237.5 491 Q285 510 338 510 Z " />
<glyph glyph-name="afii10071" unicode="&#x451;" horiz-adv-x="536" d="M392 604 L402 658 L451 658 L441 604 L392 604 Z M245 604 L255 658 L304 658 L294 604 L245 604 Z M328 464 Q256 464 202.5 418.5 Q149 373 124 294 L284 294 Q365 294 403 318.5 Q441 343 441 382 Q441 397 434.5 412 Q428 427 414.5 438.5 Q401 450 379.5 457 Q358 464 328 464 Z M338 510 Q382 510 414 499.5 Q446 489 466.5 472 Q487 455 496.5 433 Q506 411 506 388 Q506 359 493 333.5 Q480 308 452.5 289.5 Q425 271 382.5 260.5 Q340 250 282 250 L114 250 Q96 153 129 96 Q162 39 241 39 Q268 39 293.5 46 Q319 53 340.5 67 Q362 81 378 101 Q394 121 403 148 L466 148 Q454 110 430 80.5 Q406 51 375 31 Q344 11 307.5 0.5 Q271 -10 233 -10 Q180 -10 141.5 9 Q103 28 79 62.5 Q55 97 47.5 144.5 Q40 192 51 250 Q61 308 87.5 355.5 Q114 403 152 437.5 Q190 472 237.5 491 Q285 510 338 510 Z " />
<glyph glyph-name="afii10072" unicode="&#x436;" horiz-adv-x="702" d="M721 500 L463 263 L651 0 L577 0 L392 261 L648 500 L721 500 Z M431 500 L343 0 L278 0 L366 500 L431 500 Z M151 500 L321 261 L45 0 L-29 0 L251 263 L77 500 L151 500 Z " />
<glyph glyph-name="afii10073" unicode="&#x437;" horiz-adv-x="484" d="M291 510 Q384 510 425.5 473.5 Q467 437 457 381 Q446 324 401.5 293 Q357 262 295 257 Q361 254 395.5 221.5 Q430 189 420 130 Q414 101 396 75.5 Q378 50 349.5 31 Q321 12 282 1 Q243 -10 197 -10 Q110 -10 66 28 Q22 66 25 127 L88 127 Q86 85 116.5 60 Q147 35 208 35 Q240 35 265.5 43 Q291 51 309.5 64.5 Q328 78 339.5 95.5 Q351 113 354 132 Q372 234 214 234 L222 278 Q373 278 389 375 Q397 413 372.5 439 Q348 465 283 465 Q223 465 187.5 442 Q152 419 139 377 L76 377 Q95 437 150.5 473.5 Q206 510 291 510 Z " />
<glyph glyph-name="afii10074" unicode="&#x438;" horiz-adv-x="557" d="M191 500 L127 144 Q125 127 121 109.5 Q117 92 113 75 Q122 89 131.5 104 Q141 119 152 134 L446 500 L519 500 L431 0 L373 0 L439 379 Q442 396 445.5 412.5 Q449 429 454 446 Q445 431 435 415.5 Q425 400 414 385 L109 0 L46 0 L134 500 L191 500 Z " />
<glyph glyph-name="afii10075" unicode="&#x439;" horiz-adv-x="557" d="M191 500 L127 144 Q125 127 121 109.5 Q117 92 113 75 Q122 89 131.5 104 Q141 119 152 134 L446 500 L519 500 L431 0 L373 0 L439 379 Q442 396 445.5 412.5 Q449 429 454 446 Q445 431 435 415.5 Q425 400 414 385 L109 0 L46 0 L134 500 L191 500 Z M294 673 Q289 638 300 615.5 Q311 593 348 593 Q368 593 382.5 600 Q397 607 407 618 Q417 629 423 643.5 Q429 658 432 673 L475 672 Q465 623 430 592.5 Q395 562 343 562 Q292 562 267.5 592.5 Q243 623 251 672 L294 673 Z " />
<glyph glyph-name="afii10076" unicode="&#x43a;" horiz-adv-x="500" d="M508 500 L231 272 L438 0 L365 0 L161 270 L436 500 L508 500 Z M196 500 L108 0 L46 0 L134 500 L196 500 Z " />
<glyph glyph-name="afii10077" unicode="&#x43b;" horiz-adv-x="545" d="M508 500 L420 0 L357 0 L437 453 L262 453 Q254 414 240.5 364.5 Q227 315 208.5 264 Q190 213 167 164.5 Q144 116 117 79 Q87 39 51 18 Q15 -3 -25 -3 L-17 45 Q8 45 31 63.5 Q54 82 77 117 Q100 154 121 203 Q142 252 159.5 304 Q177 356 190.5 407.5 Q204 459 212 500 L508 500 Z " />
<glyph glyph-name="afii10078" unicode="&#x43c;" horiz-adv-x="680" d="M223 500 L304 126 Q307 114 309 97 Q311 80 312 65 Q318 80 326 97 Q334 114 341 126 L556 500 L642 500 L554 0 L498 0 L565 388 Q567 402 570 416.5 Q573 431 577 445 L548 388 L328 0 L273 0 L188 385 Q185 399 182.5 416 Q180 433 178 447 Q177 433 174.5 416 Q172 399 170 385 L102 0 L46 0 L134 500 L223 500 Z " />
<glyph glyph-name="afii10079" unicode="&#x43d;" horiz-adv-x="558" d="M196 500 L157 284 L420 284 L459 500 L521 500 L433 0 L371 0 L412 233 L148 233 L108 0 L46 0 L134 500 L196 500 Z " />
<glyph glyph-name="afii10080" unicode="&#x43e;" horiz-adv-x="547" d="M323 510 Q374 510 412.5 491.5 Q451 473 474.5 439 Q498 405 506 357 Q514 309 504 250 Q493 191 468.5 143 Q444 95 408.5 61 Q373 27 328 8.5 Q283 -10 232 -10 Q181 -10 142 8.5 Q103 27 79.5 61 Q56 95 48.5 143 Q41 191 52 250 Q62 309 86 357 Q110 405 145.5 439 Q181 473 226.5 491.5 Q272 510 323 510 Z M314 459 Q276 459 243.5 444 Q211 429 185 402 Q159 375 141 336.5 Q123 298 115 250 Q98 153 131 97 Q164 41 240 41 Q317 41 370 97 Q423 153 440 250 Q457 346 423.5 402.5 Q390 459 314 459 Z " />
<glyph glyph-name="afii10081" unicode="&#x43f;" horiz-adv-x="550" d="M512 500 L424 0 L362 0 L442 452 L187 452 L108 0 L46 0 L134 500 L512 500 Z " />
<glyph glyph-name="afii10082" unicode="&#x440;" horiz-adv-x="575" d="M345 459 Q275 459 221 406.5 Q167 354 147 244 Q140 204 143 167 Q146 130 161 102 Q176 74 203 57.5 Q230 41 271 41 Q310 41 342 56 Q374 71 398.5 98.5 Q423 126 440 164.5 Q457 203 466 250 Q474 297 470.5 335.5 Q467 374 452 401.5 Q437 429 410 444 Q383 459 345 459 Z M367 510 Q416 510 451.5 491 Q487 472 508 437.5 Q529 403 535 355.5 Q541 308 531 250 Q521 193 498 145 Q475 97 442 62.5 Q409 28 367 9 Q325 -10 276 -10 Q243 -10 216.5 0.5 Q190 11 170.5 29.5 Q151 48 139.5 72.5 Q128 97 126 125 L69 -200 L7 -200 L131 500 L193 500 L170 373 Q182 400 201 425 Q220 450 245 469 Q270 488 300.5 499 Q331 510 367 510 Z " />
<glyph glyph-name="afii10083" unicode="&#x441;" horiz-adv-x="509" d="M326 510 Q365 510 398 499 Q431 488 455 466.5 Q479 445 491.5 414 Q504 383 502 344 L438 344 Q440 398 407 428.5 Q374 459 315 459 Q276 459 243 444 Q210 429 184 401 Q158 373 140 334.5 Q122 296 114 250 Q106 203 110.5 165 Q115 127 131 99 Q147 71 175 56 Q203 41 241 41 Q300 41 344.5 71.5 Q389 102 405 156 L468 156 Q457 117 433.5 86 Q410 55 379 33.5 Q348 12 311 1 Q274 -10 235 -10 Q182 -10 142.5 9 Q103 28 79.5 62.5 Q56 97 48.5 144.5 Q41 192 52 250 Q62 308 86 355.5 Q110 403 145.5 437.5 Q181 472 227 491 Q273 510 326 510 Z " />
<glyph glyph-name="afii10084" unicode="&#x442;" horiz-adv-x="424" d="M469 500 L460 453 L282 453 L203 0 L141 0 L220 453 L42 453 L51 500 L469 500 Z " />
<glyph glyph-name="afii10085" unicode="&#x443;" horiz-adv-x="462" d="M119 500 L192 116 Q195 99 196 81.5 Q197 64 198 48 Q204 63 212 81 Q220 99 230 116 L443 500 L505 500 L189 -66 Q165 -110 141 -137.5 Q117 -165 90.5 -181 Q64 -197 34.5 -203.5 Q5 -210 -28 -210 L-18 -154 Q25 -153 57 -136.5 Q89 -120 115 -76 L153 -12 L53 500 L119 500 Z " />
<glyph glyph-name="afii10086" unicode="&#x444;" horiz-adv-x="866" d="M296 459 Q263 459 234 444 Q205 429 181.5 401.5 Q158 374 141.5 335.5 Q125 297 117 250 Q100 156 128 98.5 Q156 41 222 41 Q258 41 288 57.5 Q318 74 341.5 102 Q365 130 381 167 Q397 204 404 244 Q414 299 409.5 339.5 Q405 380 389.5 406.5 Q374 433 349.5 446 Q325 459 296 459 Z M650 459 Q621 459 592.5 446 Q564 433 539 406.5 Q514 380 495 339.5 Q476 299 466 244 Q459 204 462 167 Q465 130 478.5 102 Q492 74 516.5 57.5 Q541 41 577 41 Q610 41 639 56 Q668 71 691.5 98.5 Q715 126 732 164.5 Q749 203 757 250 Q765 297 762 335.5 Q759 374 745 401.5 Q731 429 707 444 Q683 459 650 459 Z M292 510 Q324 510 348 499 Q372 488 389 469 Q406 450 415.5 425 Q425 400 427 373 L485 700 L547 700 L489 373 Q501 400 519 425 Q537 450 560.5 469 Q584 488 611.5 499 Q639 510 671 510 Q714 510 747 491 Q780 472 800 437.5 Q820 403 826 355.5 Q832 308 822 250 Q812 193 789 145 Q766 97 734 62.5 Q702 28 662.5 9 Q623 -10 580 -10 Q551 -10 527 0.5 Q503 11 485.5 29.5 Q468 48 457.5 72.5 Q447 97 445 125 L388 -200 L326 -200 L383 125 Q371 97 352 72.5 Q333 48 309 29.5 Q285 11 257.5 0.5 Q230 -10 201 -10 Q157 -10 124.5 9 Q92 28 72.5 62.5 Q53 97 47 145 Q41 193 52 250 Q62 308 84.5 355.5 Q107 403 138.5 437.5 Q170 472 209 491 Q248 510 292 510 Z " />
<glyph glyph-name="afii10087" unicode="&#x445;" horiz-adv-x="487" d="M144 500 L241 331 Q245 324 248.5 315 Q252 306 255 298 Q261 306 268 315 Q275 324 282 332 L438 500 L505 500 L282 260 L433 0 L357 0 L254 179 Q245 195 238 216 Q232 207 224 197 Q216 187 208 179 L44 0 L-26 0 L211 256 L73 500 L144 500 Z " />
<glyph glyph-name="afii10088" unicode="&#x446;" horiz-adv-x="570" d="M196 500 L115 46 L370 46 L450 500 L512 500 L432 46 L532 46 L485 -135 L434 -135 L459 0 L46 0 L134 500 L196 500 Z " />
<glyph glyph-name="afii10089" unicode="&#x447;" horiz-adv-x="552" d="M182 500 L150 319 Q138 251 157.5 211 Q177 171 240 171 Q269 171 299 181.5 Q329 192 354.5 214.5 Q380 237 399 272.5 Q418 308 427 358 L453 500 L515 500 L427 0 L365 0 L406 239 Q379 187 331 152.5 Q283 118 214 118 Q132 118 100.5 168.5 Q69 219 85 308 L120 500 L182 500 Z " />
<glyph glyph-name="afii10090" unicode="&#x448;" horiz-adv-x="865" d="M196 500 L115 46 L369 46 L449 500 L511 500 L431 46 L685 46 L766 500 L828 500 L740 0 L46 0 L134 500 L196 500 Z " />
<glyph glyph-name="afii10091" unicode="&#x449;" horiz-adv-x="897" d="M196 500 L115 46 L369 46 L449 500 L511 500 L431 46 L685 46 L766 500 L828 500 L747 46 L847 46 L801 -135 L750 -135 L774 0 L46 0 L134 500 L196 500 Z " />
<glyph glyph-name="afii10092" unicode="&#x44a;" horiz-adv-x="506" d="M209 500 L172 296 L336 296 Q376 296 403.5 284.5 Q431 273 446 252.5 Q461 232 465 205 Q469 178 463 147 Q452 82 407.5 41 Q363 0 284 0 L59 0 L137 450 L49 450 L58 500 L209 500 Z M128 45 L277 45 Q307 45 328.5 53 Q350 61 365 74.5 Q380 88 388.5 106.5 Q397 125 401 146 Q405 168 402.5 187 Q400 206 389.5 220.5 Q379 235 360.5 243 Q342 251 314 251 L165 251 L128 45 Z " />
<glyph glyph-name="afii10093" unicode="&#x44b;" horiz-adv-x="672" d="M196 500 L159 296 L323 296 Q363 296 390.5 284.5 Q418 273 433 252.5 Q448 232 452 205 Q456 178 450 147 Q439 82 394.5 41 Q350 0 271 0 L46 0 L134 500 L196 500 Z M115 45 L264 45 Q294 45 315.5 53 Q337 61 352 74.5 Q367 88 375.5 106.5 Q384 125 388 146 Q392 168 389.5 187 Q387 206 376.5 220.5 Q366 235 347.5 243 Q329 251 301 251 L152 251 L115 45 Z M634 500 L546 0 L484 0 L572 500 L634 500 Z " />
<glyph glyph-name="afii10094" unicode="&#x44c;" horiz-adv-x="495" d="M196 500 L159 296 L323 296 Q363 296 390.5 284.5 Q418 273 433 252.5 Q448 232 452 205 Q456 178 450 147 Q439 82 394.5 41 Q350 0 271 0 L46 0 L134 500 L196 500 Z M115 45 L264 45 Q294 45 315.5 53 Q337 61 352 74.5 Q367 88 375.5 106.5 Q384 125 388 146 Q392 168 389.5 187 Q387 206 376.5 220.5 Q366 235 347.5 243 Q329 251 301 251 L152 251 L115 45 Z " />
<glyph glyph-name="afii10095" unicode="&#x44d;" horiz-adv-x="509" d="M282 510 Q335 510 374 491 Q413 472 436.5 437.5 Q460 403 467.5 355.5 Q475 308 465 250 Q455 192 430.5 144.5 Q406 97 370.5 62.5 Q335 28 289 9 Q243 -10 190 -10 Q151 -10 118 0 Q85 10 61 29.5 Q37 49 24 78.5 Q11 108 13 146 L78 146 Q75 92 108 63.5 Q141 35 200 35 Q275 35 328 90 Q381 145 398 236 L172 236 L179 278 L405 278 Q411 320 404.5 354.5 Q398 389 381.5 413.5 Q365 438 338.5 451.5 Q312 465 276 465 Q217 465 173.5 436.5 Q130 408 115 354 L50 354 Q61 392 84.5 421.5 Q108 451 139 470.5 Q170 490 206.5 500 Q243 510 282 510 Z " />
<glyph glyph-name="afii10096" unicode="&#x44e;" horiz-adv-x="765" d="M535 460 Q497 460 465 445 Q433 430 408.5 402.5 Q384 375 366.5 336 Q349 297 341 250 Q333 202 336.5 163.5 Q340 125 355 97.5 Q370 70 396.5 55 Q423 40 461 40 Q538 40 589 97 Q640 154 657 250 Q665 297 661 336 Q657 375 642 402.5 Q627 430 600 445 Q573 460 535 460 Z M196 500 L157 283 L283 283 Q296 334 321 376 Q346 418 379.5 448 Q413 478 454.5 494 Q496 510 544 510 Q595 510 633 491.5 Q671 473 694 439 Q717 405 724 357 Q731 309 721 250 Q710 190 686 142 Q662 94 627.5 60.5 Q593 27 548.5 8.5 Q504 -10 453 -10 Q403 -10 366 7 Q329 24 306 56 Q283 88 275 133 Q267 178 275 235 L149 235 L108 0 L46 0 L134 500 L196 500 Z " />
<glyph glyph-name="afii10097" unicode="&#x44f;" horiz-adv-x="530" d="M267 452 Q210 452 183 424.5 Q156 397 149 360 Q146 340 148 322 Q150 304 159.5 290.5 Q169 277 186.5 269 Q204 261 233 261 L387 261 L421 452 L267 452 Z M492 500 L404 0 L342 0 L380 216 L230 216 Q207 216 186.5 209 Q166 202 147.5 179.5 Q129 157 113 114 Q97 71 85 0 L22 0 Q34 73 51 117.5 Q68 162 87 187.5 Q106 213 127.5 223.5 Q149 234 170 239 Q119 250 98.5 284 Q78 318 86 368 Q91 394 104 418 Q117 442 139 460 Q161 478 192 489 Q223 500 263 500 L492 500 Z " />
<glyph glyph-name="afii10098" unicode="&#x491;" horiz-adv-x="440" d="M411 500 L438 596 L489 596 L464 450 L186 450 L108 0 L46 0 L134 500 L411 500 Z " />
<glyph glyph-name="afii10099" unicode="&#x452;" horiz-adv-x="569" d="M215 593 L179 389 Q206 441 254.5 475.5 Q303 510 372 510 Q454 510 484.5 459.5 Q515 409 499 320 L435 -48 Q428 -86 412 -112.5 Q396 -139 374 -156 Q352 -173 325.5 -181 Q299 -189 271 -189 L280 -138 Q297 -138 312 -133.5 Q327 -129 339 -119 Q351 -109 359.5 -92 Q368 -75 373 -48 L435 309 Q447 378 427.5 417.5 Q408 457 344 457 Q315 457 285.5 446.5 Q256 436 230.5 413.5 Q205 391 186 356 Q167 321 158 271 L111 0 L48 0 L152 593 L66 593 L73 636 L159 636 L171 700 L234 700 L222 636 L312 636 L304 593 L215 593 Z " />
<glyph glyph-name="afii10100" unicode="&#x453;" horiz-adv-x="440" d="M473 500 L464 450 L186 450 L108 0 L46 0 L134 500 L473 500 Z M449 706 L291 552 L247 552 L385 715 L449 706 Z " />
<glyph glyph-name="afii10101" unicode="&#x454;" horiz-adv-x="509" d="M326 510 Q365 510 398.5 500 Q432 490 456 470.5 Q480 451 493 421.5 Q506 392 504 354 L439 354 Q441 408 408 436.5 Q375 465 316 465 Q280 465 248.5 451.5 Q217 438 192 413.5 Q167 389 148.5 354.5 Q130 320 121 278 L346 278 L339 236 L113 236 Q98 145 132 90 Q166 35 240 35 Q299 35 342.5 63.5 Q386 92 402 146 L467 146 Q456 108 432.5 78.5 Q409 49 378 29.5 Q347 10 310.5 0 Q274 -10 235 -10 Q182 -10 142.5 9 Q103 28 79.5 62.5 Q56 97 48.5 144.5 Q41 192 52 250 Q62 308 86 355.5 Q110 403 145.5 437.5 Q181 472 227 491 Q273 510 326 510 Z " />
<glyph glyph-name="afii10102" unicode="&#x455;" horiz-adv-x="488" d="M297 510 Q382 510 427.5 472 Q473 434 464 370 L405 370 Q411 415 378.5 440 Q346 465 291 465 Q257 465 231.5 457.5 Q206 450 188 437.5 Q170 425 160 409 Q150 393 147 377 Q143 353 150.5 337.5 Q158 322 174 311.5 Q190 301 212 294.5 Q234 288 259 284 Q292 279 325.5 271 Q359 263 384 246.5 Q409 230 422 203.5 Q435 177 428 135 Q423 106 406.5 80 Q390 54 362 34 Q334 14 294.5 2 Q255 -10 203 -10 Q160 -10 126 0 Q92 10 69 28.5 Q46 47 35 73.5 Q24 100 29 132 L88 132 Q83 88 119 62 Q155 36 212 36 Q249 36 277 44 Q305 52 323.5 65.5 Q342 79 352.5 95.5 Q363 112 366 129 Q371 156 362.5 173.5 Q354 191 337 202.5 Q320 214 296.5 220 Q273 226 247 231 Q214 236 181.5 244 Q149 252 125.5 267 Q102 282 90 307 Q78 332 86 372 Q90 399 107 424 Q124 449 151 468 Q178 487 215 498.5 Q252 510 297 510 Z " />
<glyph glyph-name="afii10103" unicode="&#x456;" horiz-adv-x="233" d="M196 500 L108 0 L46 0 L134 500 L196 500 Z M224 655 L213 594 L148 594 L159 655 L224 655 Z " />
<glyph glyph-name="afii10104" unicode="&#x457;" horiz-adv-x="235" d="M46 0 L134 500 L196 500 L108 0 L46 0 Z M232 604 L242 658 L291 658 L281 604 L232 604 Z M85 604 L95 658 L144 658 L134 604 L85 604 Z " />
<glyph glyph-name="afii10105" unicode="&#x458;" horiz-adv-x="233" d="M224 655 L213 594 L148 594 L159 655 L224 655 Z M196 500 L95 -67 Q88 -105 71.5 -132 Q55 -159 32.5 -176.5 Q10 -194 -17 -202.5 Q-44 -211 -71 -211 L-62 -158 Q-25 -158 -0.5 -139 Q24 -120 34 -64 L134 500 L196 500 Z " />
<glyph glyph-name="afii10106" unicode="&#x459;" horiz-adv-x="807" d="M508 500 L471 296 L635 296 Q675 296 702.5 284.5 Q730 273 745 252.5 Q760 232 764 205 Q768 178 762 147 Q751 82 706.5 41 Q662 0 583 0 L357 0 L437 453 L262 453 Q253 409 238.5 358.5 Q224 308 204 257.5 Q184 207 159.5 160 Q135 113 106 76.5 Q77 40 44 18.5 Q11 -3 -25 -3 L-17 45 Q8 45 33 66.5 Q58 88 80.5 124.5 Q103 161 123 208 Q143 255 160 305.5 Q177 356 190.5 406.5 Q204 457 212 500 L508 500 Z M427 45 L576 45 Q606 45 627.5 53 Q649 61 664 74.5 Q679 88 687.5 106.5 Q696 125 700 146 Q704 168 701.5 187 Q699 206 688.5 220.5 Q678 235 659.5 243 Q641 251 613 251 L464 251 L427 45 Z " />
<glyph glyph-name="afii10107" unicode="&#x45a;" horiz-adv-x="783" d="M196 500 L159 294 L399 294 L436 500 L498 500 L461 296 L610 296 Q651 296 678 284.5 Q705 273 720.5 252.5 Q736 232 740 205 Q744 178 738 147 Q727 82 682.5 41 Q638 0 559 0 L348 0 L391 246 L151 246 L108 0 L46 0 L134 500 L196 500 Z M417 45 L551 45 Q581 45 603 53 Q625 61 640 74.5 Q655 88 663.5 106.5 Q672 125 676 146 Q680 168 677.5 187 Q675 206 664.5 220.5 Q654 235 635.5 243 Q617 251 589 251 L454 251 L417 45 Z " />
<glyph glyph-name="afii10108" unicode="&#x45b;" horiz-adv-x="569" d="M212 593 L176 389 Q203 441 253 475.5 Q303 510 372 510 Q454 510 485 459.5 Q516 409 500 320 L444 0 L382 0 L436 309 Q448 378 428.5 417.5 Q409 457 345 457 Q316 457 286 446.5 Q256 436 229.5 413.5 Q203 391 183.5 356 Q164 321 155 271 L108 0 L46 0 L150 593 L96 593 L103 636 L157 636 L169 700 L231 700 L219 636 L342 636 L334 593 L212 593 Z " />
<glyph glyph-name="afii10109" unicode="&#x45c;" horiz-adv-x="500" d="M508 500 L231 272 L438 0 L365 0 L161 270 L436 500 L508 500 Z M196 500 L108 0 L46 0 L134 500 L196 500 Z M451 706 L293 552 L249 552 L387 715 L451 706 Z " />
<glyph glyph-name="afii10110" unicode="&#x45e;" horiz-adv-x="462" d="M119 500 L192 116 Q195 99 196 81.5 Q197 64 198 48 Q204 63 212 81 Q220 99 230 116 L443 500 L505 500 L189 -66 Q165 -110 141 -137.5 Q117 -165 90.5 -181 Q64 -197 34.5 -203.5 Q5 -210 -28 -210 L-18 -154 Q25 -153 57 -136.5 Q89 -120 115 -76 L153 -12 L53 500 L119 500 Z M245 673 Q240 638 251.5 615.5 Q263 593 300 593 Q320 593 334.5 600 Q349 607 359 618 Q369 629 375 643.5 Q381 658 384 673 L427 672 Q417 623 381.5 592.5 Q346 562 295 562 Q244 562 219.5 592.5 Q195 623 203 672 L245 673 Z " />
<glyph glyph-name="afii10145" unicode="&#x40f;" horiz-adv-x="678" d="M241 700 L127 53 L489 53 L603 700 L670 700 L547 0 L331 0 L294 -148 L251 -148 L265 0 L51 0 L174 700 L241 700 Z " />
<glyph glyph-name="afii10193" unicode="&#x45f;" horiz-adv-x="550" d="M196 500 L115 48 L370 48 L450 500 L512 500 L424 0 L264 0 L231 -138 L190 -138 L205 0 L46 0 L134 500 L196 500 Z " />
<glyph glyph-name="afii61352" unicode="&#x2116;" horiz-adv-x="1242" d="M700 0 L708 50 L1110 50 L1102 0 L700 0 Z M1010 659 Q972 659 939 644 Q906 629 880 602 Q854 575 836 536.5 Q818 498 810 450 Q793 353 826 297 Q859 241 936 241 Q974 241 1006.5 255.5 Q1039 270 1065 297.5 Q1091 325 1109 363.5 Q1127 402 1136 450 Q1152 546 1119 602.5 Q1086 659 1010 659 Z M270 700 L487 144 Q492 130 496.5 112 Q501 94 505 76 Q506 93 509 115 Q512 137 515 154 L612 700 L678 700 L555 0 L470 0 L247 576 Q242 590 237 608 Q232 626 230 642 L219 572 L118 0 L51 0 L174 700 L270 700 Z M1018 710 Q1069 710 1107.5 691.5 Q1146 673 1169.5 639 Q1193 605 1201 557 Q1209 509 1199 450 Q1188 391 1163.5 343 Q1139 295 1103.5 261 Q1068 227 1023 208.5 Q978 190 927 190 Q876 190 837.5 208.5 Q799 227 775 261 Q751 295 743.5 343 Q736 391 747 450 Q757 509 781.5 557 Q806 605 841.5 639 Q877 673 922 691.5 Q967 710 1018 710 Z " />
<glyph glyph-name="Alpha" unicode="&#x391;" horiz-adv-x="608" d="M377 653 Q366 627 354 603.5 Q342 580 331 560 L173 265 L444 265 L390 560 Q386 581 382.5 605 Q379 629 377 653 Z M435 700 L564 0 L490 0 L452 213 L148 213 L35 0 L-36 0 L340 700 L435 700 Z " />
<glyph glyph-name="Beta" unicode="&#x392;" horiz-adv-x="665" d="M347 53 Q389 53 420.5 64.5 Q452 76 474.5 95.5 Q497 115 510.5 141 Q524 167 529 195 Q534 223 529 249 Q524 275 508 295 Q492 315 464 327 Q436 339 395 339 L178 339 L127 53 L347 53 Z M51 0 L174 700 L463 700 Q515 700 549.5 686 Q584 672 604 649 Q624 626 630 596 Q636 566 630 534 Q625 504 612.5 476.5 Q600 449 579 427 Q558 405 529 389.5 Q500 374 461 368 Q501 363 529 347 Q557 331 574 307 Q591 283 596.5 253 Q602 223 596 189 Q590 151 571 117 Q552 83 521 57 Q490 31 448.5 15.5 Q407 0 355 0 L51 0 Z M393 387 Q433 387 462 399 Q491 411 510.5 430 Q530 449 541.5 473 Q553 497 557 521 Q561 545 558 568 Q555 591 541.5 608.5 Q528 626 503 636.5 Q478 647 438 647 L232 647 L186 387 L393 387 Z " />
<glyph glyph-name="Gamma" unicode="&#x393;" horiz-adv-x="536" d="M609 700 L600 647 L232 647 L118 0 L51 0 L174 700 L609 700 Z " />
<glyph glyph-name="Epsilon" unicode="&#x395;" horiz-adv-x="602" d="M51 0 L174 700 L630 700 L621 647 L232 647 L187 390 L517 390 L508 337 L177 337 L127 53 L520 53 L511 0 L51 0 Z " />
<glyph glyph-name="Zeta" unicode="&#x396;" horiz-adv-x="618" d="M1 0 L10 54 L565 647 L125 647 L135 700 L653 700 L643 645 L90 53 L550 53 L542 0 L1 0 Z " />
<glyph glyph-name="Eta" unicode="&#x397;" horiz-adv-x="685" d="M486 0 L545 337 L177 337 L118 0 L51 0 L174 700 L241 700 L187 390 L555 390 L609 700 L677 700 L554 0 L486 0 Z " />
<glyph glyph-name="Theta" unicode="&#x398;" horiz-adv-x="748" d="M539 387 L530 337 L254 337 L263 387 L539 387 Z M459 710 Q535 710 589 681.5 Q643 653 674.5 604 Q706 555 715.5 489.5 Q725 424 712 350 Q699 276 666.5 210.5 Q634 145 585 96 Q536 47 472 18.5 Q408 -10 332 -10 Q256 -10 202 18.5 Q148 47 116 96 Q84 145 74 210.5 Q64 276 77 350 Q90 424 123 489.5 Q156 555 205 604 Q254 653 318.5 681.5 Q383 710 459 710 Z M448 651 Q388 651 338 628.5 Q288 606 250.5 566 Q213 526 188 470.5 Q163 415 151 350 Q139 285 145 229.5 Q151 174 174.5 134 Q198 94 240 71.5 Q282 49 342 49 Q402 49 452 71.5 Q502 94 539.5 134 Q577 174 602.5 229.5 Q628 285 639 350 Q651 415 645 470.5 Q639 526 615.5 566 Q592 606 550 628.5 Q508 651 448 651 Z " />
<glyph glyph-name="Iota" unicode="&#x399;" horiz-adv-x="249" d="M241 700 L118 0 L51 0 L174 700 L241 700 Z " />
<glyph glyph-name="Kappa" unicode="&#x39a;" horiz-adv-x="599" d="M466 0 L194 366 L567 700 L649 700 L274 370 L550 0 L466 0 Z M51 0 L174 700 L241 700 L118 0 L51 0 Z " />
<glyph glyph-name="Lambda" unicode="&#x39b;" horiz-adv-x="608" d="M433 700 L564 0 L490 0 L384 579 Q382 594 380.5 610.5 Q379 627 377 644 Q371 627 363 611 Q355 595 347 579 L35 0 L-36 0 L342 700 L433 700 Z " />
<glyph glyph-name="Mu" unicode="&#x39c;" horiz-adv-x="838" d="M280 700 L388 146 Q390 131 391.5 112 Q393 93 394 77 Q400 93 408 113 Q416 133 424 147 L725 700 L830 700 L707 0 L640 0 L742 582 L756 651 Q749 634 741 617 Q733 600 725 584 L408 0 L350 0 L237 585 Q235 599 233.5 616.5 Q232 634 230 651 Q229 636 226 616.5 Q223 597 220 583 L118 0 L51 0 L174 700 L280 700 Z " />
<glyph glyph-name="Nu" unicode="&#x39d;" horiz-adv-x="686" d="M270 700 L487 144 Q492 130 496.5 112 Q501 94 505 76 Q506 93 509 115 Q512 137 515 154 L612 700 L678 700 L555 0 L470 0 L247 576 Q242 590 237 608 Q232 626 230 642 L219 572 L118 0 L51 0 L174 700 L270 700 Z " />
<glyph glyph-name="Xi" unicode="&#x39e;" horiz-adv-x="622" d="M547 56 L538 0 L5 0 L14 56 L547 56 Z M544 391 L534 336 L125 336 L135 391 L544 391 Z M657 700 L647 644 L122 644 L132 700 L657 700 Z " />
<glyph glyph-name="Omicron" unicode="&#x39f;" horiz-adv-x="748" d="M459 710 Q535 710 589 681.5 Q643 653 674.5 604 Q706 555 715.5 489.5 Q725 424 712 350 Q699 276 666.5 210.5 Q634 145 585 96 Q536 47 472 18.5 Q408 -10 332 -10 Q256 -10 202 18.5 Q148 47 116 96 Q84 145 74 210.5 Q64 276 77 350 Q90 424 123 489.5 Q156 555 205 604 Q254 653 318.5 681.5 Q383 710 459 710 Z M448 651 Q388 651 338 628.5 Q288 606 250.5 566 Q213 526 188 470.5 Q163 415 151 350 Q139 285 145 229.5 Q151 174 174.5 134 Q198 94 240 71.5 Q282 49 342 49 Q402 49 452 71.5 Q502 94 539.5 134 Q577 174 602.5 229.5 Q628 285 639 350 Q651 415 645 470.5 Q639 526 615.5 566 Q592 606 550 628.5 Q508 651 448 651 Z " />
<glyph glyph-name="Pi" unicode="&#x3a0;" horiz-adv-x="678" d="M670 700 L547 0 L480 0 L593 647 L232 647 L118 0 L51 0 L174 700 L670 700 Z " />
<glyph glyph-name="Rho" unicode="&#x3a1;" horiz-adv-x="626" d="M232 647 L178 340 L393 340 Q431 340 460.5 352 Q490 364 511 385 Q532 406 545 435 Q558 464 564 498 Q570 529 567 556 Q564 583 550.5 603.5 Q537 624 512 635.5 Q487 647 447 647 L232 647 Z M470 700 Q522 700 557 684 Q592 668 611.5 641 Q631 614 636 577.5 Q641 541 634 499 Q626 456 608 418 Q590 380 561 351.5 Q532 323 490.5 306.5 Q449 290 395 290 L169 290 L118 0 L51 0 L174 700 L470 700 Z " />
<glyph glyph-name="Sigma" unicode="&#x3a3;" horiz-adv-x="599" d="M640 700 L631 647 L195 647 L367 369 L81 53 L537 53 L529 0 L-4 0 L4 54 L290 369 L120 645 L129 700 L640 700 Z " />
<glyph glyph-name="Tau" unicode="&#x3a4;" horiz-adv-x="570" d="M212 0 L326 647 L85 647 L94 700 L643 700 L633 647 L393 647 L280 0 L212 0 Z " />
<glyph glyph-name="Upsilon" unicode="&#x3a5;" horiz-adv-x="604" d="M228 0 L284 324 L84 700 L165 700 L330 381 L611 700 L686 700 L352 324 L295 0 L228 0 Z " />
<glyph glyph-name="Phi" unicode="&#x3a6;" horiz-adv-x="769" d="M144 355 Q129 266 177 210 Q225 154 336 152 L408 558 Q295 555 228 500 Q161 445 144 355 Z M668 355 Q684 445 635.5 500 Q587 555 476 558 L404 152 Q460 153 505 168 Q550 183 584 210 Q618 237 639 273.5 Q660 310 668 355 Z M501 700 L484 607 Q631 599 695 531.5 Q759 464 740 355 Q721 245 633.5 178 Q546 111 396 103 L378 0 L310 0 L328 103 Q181 111 117 178 Q53 245 72 355 Q92 464 179 531.5 Q266 599 417 607 L433 700 L501 700 Z " />
<glyph glyph-name="Chi" unicode="&#x3a7;" horiz-adv-x="628" d="M187 700 L325 448 Q330 436 335 423 Q340 410 344 396 Q353 410 364 423.5 Q375 437 384 448 L610 700 L688 700 L377 357 L576 0 L491 0 L347 263 Q341 275 335.5 288.5 Q330 302 327 316 Q317 301 306.5 288 Q296 275 285 262 L51 0 L-28 0 L293 355 L103 700 L187 700 Z " />
<glyph glyph-name="Psi" unicode="&#x3a8;" horiz-adv-x="716" d="M207 700 L160 433 Q153 393 162.5 365 Q172 337 195 319 Q218 301 253.5 291.5 Q289 282 333 280 L407 700 L475 700 L401 280 Q446 283 484.5 292.5 Q523 302 552.5 320 Q582 338 601.5 366 Q621 394 628 433 L675 700 L743 700 L694 424 Q685 373 658.5 336 Q632 299 592.5 274.5 Q553 250 502 237.5 Q451 225 391 222 L352 0 L284 0 L323 222 Q264 225 217 237.5 Q170 250 139 274.5 Q108 299 95 336 Q82 373 91 424 L140 700 L207 700 Z " />
<glyph glyph-name="Alphatonos" unicode="&#x386;" horiz-adv-x="608" d="M263 706 L187 542 L151 542 L195 706 L263 706 Z M377 653 Q366 627 354 603.5 Q342 580 331 560 L173 265 L444 265 L390 560 Q386 581 382.5 605 Q379 629 377 653 Z M435 700 L564 0 L490 0 L452 213 L148 213 L35 0 L-36 0 L340 700 L435 700 Z " />
<glyph glyph-name="Epsilontonos" unicode="&#x388;" horiz-adv-x="602" d="M51 0 L174 700 L630 700 L621 647 L232 647 L187 390 L517 390 L508 337 L177 337 L127 53 L520 53 L511 0 L51 0 Z M152 706 L76 542 L40 542 L84 706 L152 706 Z " />
<glyph glyph-name="Etatonos" unicode="&#x389;" horiz-adv-x="685" d="M152 706 L76 542 L40 542 L84 706 L152 706 Z M486 0 L545 337 L177 337 L118 0 L51 0 L174 700 L241 700 L187 390 L555 390 L609 700 L677 700 L554 0 L486 0 Z " />
<glyph glyph-name="Iotatonos" unicode="&#x38a;" horiz-adv-x="249" d="M152 706 L76 542 L40 542 L84 706 L152 706 Z M241 700 L118 0 L51 0 L174 700 L241 700 Z " />
<glyph glyph-name="Iotadieresis" unicode="&#x3aa;" horiz-adv-x="249" d="M270 762 L280 812 L328 812 L319 762 L270 762 Z M118 762 L127 812 L176 812 L167 762 L118 762 Z M51 0 L174 700 L241 700 L118 0 L51 0 Z " />
<glyph glyph-name="Omicrontonos" unicode="&#x38c;" horiz-adv-x="748" d="M459 710 Q535 710 589 681.5 Q643 653 674.5 604 Q706 555 715.5 489.5 Q725 424 712 350 Q699 276 666.5 210.5 Q634 145 585 96 Q536 47 472 18.5 Q408 -10 332 -10 Q256 -10 202 18.5 Q148 47 116 96 Q84 145 74 210.5 Q64 276 77 350 Q90 424 123 489.5 Q156 555 205 604 Q254 653 318.5 681.5 Q383 710 459 710 Z M448 651 Q388 651 338 628.5 Q288 606 250.5 566 Q213 526 188 470.5 Q163 415 151 350 Q139 285 145 229.5 Q151 174 174.5 134 Q198 94 240 71.5 Q282 49 342 49 Q402 49 452 71.5 Q502 94 539.5 134 Q577 174 602.5 229.5 Q628 285 639 350 Q651 415 645 470.5 Q639 526 615.5 566 Q592 606 550 628.5 Q508 651 448 651 Z M186 706 L110 542 L74 542 L118 706 L186 706 Z " />
<glyph glyph-name="Upsilontonos" unicode="&#x38e;" horiz-adv-x="604" d="M228 0 L284 324 L93 682 L29 542 L-7 542 L37 706 L105 706 L102 700 L165 700 L330 381 L611 700 L686 700 L352 324 L295 0 L228 0 Z " />
<glyph glyph-name="Upsilondieresis" unicode="&#x3ab;" horiz-adv-x="604" d="M446 762 L456 812 L504 812 L495 762 L446 762 Z M294 762 L303 812 L352 812 L343 762 L294 762 Z M228 0 L284 324 L84 700 L165 700 L330 381 L611 700 L686 700 L352 324 L295 0 L228 0 Z " />
<glyph glyph-name="Omegatonos" unicode="&#x38f;" horiz-adv-x="748" d="M183 706 L107 542 L71 542 L115 706 L183 706 Z M459 710 Q535 710 589 682.5 Q643 655 675 607.5 Q707 560 716.5 496 Q726 432 713 358 Q704 308 685.5 261 Q667 214 640 174 Q613 134 577.5 102.5 Q542 71 500 53 L704 53 L695 0 L401 0 L410 57 Q503 80 561 159 Q619 238 639 354 Q651 419 645 473.5 Q639 528 615.5 567.5 Q592 607 550.5 629 Q509 651 449 651 Q389 651 339.5 629 Q290 607 252 567.5 Q214 528 189 473.5 Q164 419 152 354 Q132 237 162 159 Q192 81 277 57 L267 0 L-27 0 L-19 53 L184 53 Q149 71 125 102.5 Q101 134 88 174 Q75 214 72.5 261 Q70 308 79 358 Q92 432 124.5 496 Q157 560 206 607.5 Q255 655 319 682.5 Q383 710 459 710 Z " />
<glyph glyph-name="alpha" unicode="&#x3b1;" horiz-adv-x="590" d="M301 459 Q226 459 180.5 401.5 Q135 344 118 250 Q109 203 111 164.5 Q113 126 126.5 98.5 Q140 71 165 56 Q190 41 228 41 Q267 41 296.5 58 Q326 75 349.5 103.5 Q373 132 391 169 Q409 206 425 246 Q430 357 398.5 408 Q367 459 301 459 Z M298 510 Q346 510 376 494 Q406 478 423.5 451.5 Q441 425 448 390.5 Q455 356 457 320 L524 500 L586 500 L481 230 Q477 189 476 156 Q475 123 478.5 99.5 Q482 76 491.5 63.5 Q501 51 518 51 Q522 51 528.5 51 Q535 51 540 52 L532 0 Q521 -2 510.5 -2.5 Q500 -3 492 -3 Q467 -3 452 9 Q437 21 429 42 Q421 63 419 92 Q417 121 419 154 Q378 69 328 30 Q278 -9 207 -9 Q157 -9 122.5 10 Q88 29 69 63 Q50 97 45.5 145 Q41 193 52 250 Q62 308 83.5 355.5 Q105 403 136.5 437.5 Q168 472 208.5 491 Q249 510 298 510 Z " />
<glyph glyph-name="beta" unicode="&#x3b2;" horiz-adv-x="541" d="M369 710 Q417 710 450 697 Q483 684 502.5 661.5 Q522 639 528 608.5 Q534 578 528 542 Q515 467 465.5 424.5 Q416 382 329 375 Q420 366 460.5 321.5 Q501 277 487 192 Q480 154 463 118 Q446 82 416.5 53.5 Q387 25 344.5 7.5 Q302 -10 244 -10 Q129 -10 84.5 82 Q40 174 70 350 Q102 526 178.5 618 Q255 710 369 710 Z M359 659 Q315 659 279.5 638 Q244 617 216 577.5 Q188 538 168.5 481 Q149 424 136 352 Q123 280 122.5 222.5 Q122 165 135.5 124.5 Q149 84 178 62.5 Q207 41 252 41 Q297 41 328 55.5 Q359 70 379.5 92.5 Q400 115 410.5 143.5 Q421 172 426 200 Q438 273 398 310.5 Q358 348 255 348 L263 397 Q363 397 408.5 432 Q454 467 465 531 Q469 556 467.5 579 Q466 602 454.5 619.5 Q443 637 420 648 Q397 659 359 659 Z " />
<glyph glyph-name="gamma" unicode="&#x3b3;" horiz-adv-x="462" d="M120 507 Q126 481 134 443 Q142 405 150 361 Q158 317 166 271 Q174 225 180.5 183.5 Q187 142 192 108 Q197 74 199 55 Q224 94 256.5 150.5 Q289 207 323 269 Q357 331 388.5 391.5 Q420 452 443 500 L505 500 Q476 442 439.5 374 Q403 306 364 236.5 Q325 167 286.5 101.5 Q248 36 216 -16 L189 -200 L114 -200 L154 -13 Q149 21 141.5 64 Q134 107 125.5 154 Q117 201 107 249 Q97 297 87.5 342 Q78 387 69 426 Q60 465 52 493 L120 507 Z " />
<glyph glyph-name="delta" unicode="&#x3b4;" horiz-adv-x="545" d="M357 706 Q402 706 449.5 701 Q497 696 539 688 L530 635 Q488 643 439.5 649 Q391 655 349 655 Q293 655 254 639.5 Q215 624 207 579 Q204 558 215 543.5 Q226 529 246.5 519.5 Q267 510 294 504 Q321 498 349 494 Q437 482 478 417 Q519 352 499 240 Q489 183 465 137 Q441 91 406 58 Q371 25 326.5 7.5 Q282 -10 231 -10 Q180 -10 141 7 Q102 24 78.5 56.5 Q55 89 47 134.5 Q39 180 49 237 Q58 287 79.5 328.5 Q101 370 131 400.5 Q161 431 197.5 449 Q234 467 273 470 Q243 474 217 482.5 Q191 491 173.5 504.5 Q156 518 147.5 537.5 Q139 557 144 583 Q150 615 168 638.5 Q186 662 214 677 Q242 692 278.5 699 Q315 706 357 706 Z M311 440 Q274 440 241.5 426 Q209 412 183 385.5 Q157 359 139 322 Q121 285 113 239 Q96 147 130 93.5 Q164 40 239 40 Q276 40 308.5 54 Q341 68 366.5 94 Q392 120 410 156.5 Q428 193 436 239 Q451 329 419.5 384.5 Q388 440 311 440 Z " />
<glyph glyph-name="epsilon" unicode="&#x3b5;" horiz-adv-x="476" d="M287 510 Q369 510 413.5 473.5 Q458 437 455 377 L392 377 Q394 419 366.5 442 Q339 465 281 465 Q215 465 183 439 Q151 413 144 375 Q126 278 274 278 L266 234 Q189 234 146 207.5 Q103 181 94 131 Q91 112 95 94.5 Q99 77 111.5 64 Q124 51 147 43 Q170 35 204 35 Q264 35 302.5 60 Q341 85 355 127 L418 127 Q409 97 388.5 71.5 Q368 46 339 28 Q310 10 274 0 Q238 -10 198 -10 Q103 -10 60 29.5 Q17 69 27 127 Q37 184 83.5 217 Q130 250 195 256 Q166 260 142.5 269 Q119 278 103 293.5 Q87 309 80 330 Q73 351 78 379 Q89 436 141.5 473 Q194 510 287 510 Z " />
<glyph glyph-name="zeta" unicode="&#x3b6;" horiz-adv-x="426" d="M498 700 L489 647 L211 334 Q169 287 147.5 251.5 Q126 216 120 184 Q115 155 128 135.5 Q141 116 163 101 Q185 86 212 72.5 Q239 59 260.5 42.5 Q282 26 294.5 4 Q307 -18 301 -51 Q298 -71 284.5 -93 Q271 -115 251 -136 Q231 -157 205.5 -176.5 Q180 -196 152 -211 L129 -168 Q171 -144 198.5 -112 Q226 -80 231 -55 Q235 -30 221.5 -13.5 Q208 3 185.5 16.5 Q163 30 136.5 43 Q110 56 88.5 73.5 Q67 91 55 115.5 Q43 140 50 177 Q57 217 82 258.5 Q107 300 160 358 L411 647 L84 647 L94 700 L498 700 Z " />
<glyph glyph-name="eta" unicode="&#x3b7;" horiz-adv-x="565" d="M196 500 L176 389 Q203 441 251.5 475.5 Q300 510 369 510 Q452 510 482 459.5 Q512 409 497 320 L405 -200 L342 -200 L432 309 Q445 378 425 417.5 Q405 457 341 457 Q312 457 282.5 446.5 Q253 436 227.5 413.5 Q202 391 183 356 Q164 321 155 271 L108 0 L46 0 L134 500 L196 500 Z " />
<glyph glyph-name="theta" unicode="&#x3b8;" horiz-adv-x="557" d="M290 383 Q339 383 385.5 399 Q432 415 470 440 Q477 543 444.5 601 Q412 659 338 659 Q300 659 271.5 647.5 Q243 636 223 616 Q203 596 191 570 Q179 544 174 516 Q169 489 173 465 Q177 441 190.5 422.5 Q204 404 228.5 393.5 Q253 383 290 383 Z M347 710 Q407 710 448 686.5 Q489 663 510.5 618 Q532 573 535.5 508 Q539 443 524 361 Q509 275 482.5 206.5 Q456 138 418 90 Q380 42 330.5 16 Q281 -10 220 -10 Q142 -10 110.5 31 Q79 72 92 147 Q101 195 91.5 221 Q82 247 47 247 Q37 247 24 244 L32 293 Q57 298 75 298 Q127 298 147 265 Q167 232 156 169 Q146 110 164 76 Q182 42 233 42 Q280 42 317 64 Q354 86 381.5 127.5 Q409 169 428.5 227.5 Q448 286 460 358 Q462 367 463 375.5 Q464 384 465 392 Q426 366 379 351 Q332 336 272 336 Q222 336 188 350 Q154 364 134.5 388.5 Q115 413 109 446 Q103 479 110 518 Q116 554 134 588.5 Q152 623 181.5 650 Q211 677 252.5 693.5 Q294 710 347 710 Z " />
<glyph glyph-name="iota" unicode="&#x3b9;" horiz-adv-x="246" d="M196 500 L130 129 Q122 89 132.5 69.5 Q143 50 175 50 Q179 50 185.5 50 Q192 50 197 52 L189 0 Q178 -2 167.5 -2.5 Q157 -3 149 -3 Q95 -3 74 22.5 Q53 48 64 108 L134 500 L196 500 Z " />
<glyph glyph-name="kappa" unicode="&#x3ba;" horiz-adv-x="475" d="M494 500 L235 272 L424 0 L348 0 L164 270 L420 500 L494 500 Z M196 500 L108 0 L46 0 L134 500 L196 500 Z " />
<glyph glyph-name="lambda" unicode="&#x3bb;" horiz-adv-x="462" d="M134 711 Q167 711 194.5 704.5 Q222 698 243 681.5 Q264 665 278.5 637 Q293 609 302 564 L418 7 L351 -7 L275 384 Q272 401 270 417.5 Q268 434 267 449 Q254 416 237 384 L29 0 L-35 0 L242 509 L227 573 Q216 619 191.5 636.5 Q167 654 124 655 L134 711 Z " />
<glyph glyph-name="nu" unicode="&#x3bd;" horiz-adv-x="462" d="M120 507 Q133 453 144.5 393 Q156 333 166 274.5 Q176 216 185 160.5 Q194 105 201 60 Q228 105 258.5 159.5 Q289 214 321 272 Q353 330 384.5 388.5 Q416 447 443 500 L505 500 Q472 438 436.5 374 Q401 310 364.5 245.5 Q328 181 292.5 119 Q257 57 224 0 L152 0 Q143 57 132 120.5 Q121 184 108.5 248.5 Q96 313 81.5 375 Q67 437 52 493 L120 507 Z " />
<glyph glyph-name="xi" unicode="&#x3be;" horiz-adv-x="440" d="M507 700 L498 652 Q440 623 385.5 593.5 Q331 564 288 534 Q245 504 217.5 474.5 Q190 445 185 416 Q181 395 194.5 379.5 Q208 364 234 354 Q260 344 296 339 Q332 334 374 334 L365 286 Q322 286 281 274 Q240 262 207 242.5 Q174 223 152.5 199 Q131 175 127 151 Q122 126 136.5 109 Q151 92 174 78 Q197 64 224.5 51.5 Q252 39 275 23.5 Q298 8 311.5 -12.5 Q325 -33 320 -63 Q317 -81 304.5 -101.5 Q292 -122 272 -142.5 Q252 -163 226 -181.5 Q200 -200 170 -214 L151 -173 Q192 -150 217 -121 Q242 -92 246 -70 Q250 -45 236.5 -28.5 Q223 -12 199.5 1 Q176 14 148.5 25.5 Q121 37 98.5 52.5 Q76 68 63 90.5 Q50 113 56 147 Q61 174 82.5 201 Q104 228 134 250 Q164 272 198.5 288 Q233 304 265 309 Q241 311 212 317 Q183 323 158.5 335 Q134 347 119 365 Q104 383 109 409 Q115 443 144 475.5 Q173 508 215.5 538.5 Q258 569 309.5 597 Q361 625 412 649 L90 649 L99 700 L507 700 Z " />
<glyph glyph-name="omicron" unicode="&#x3bf;" horiz-adv-x="547" d="M323 510 Q374 510 412.5 491.5 Q451 473 474.5 439 Q498 405 506 357 Q514 309 504 250 Q493 191 468.5 143 Q444 95 408.5 61 Q373 27 328 8.5 Q283 -10 232 -10 Q181 -10 142 8.5 Q103 27 79.5 61 Q56 95 48.5 143 Q41 191 52 250 Q62 309 86 357 Q110 405 145.5 439 Q181 473 226.5 491.5 Q272 510 323 510 Z M314 459 Q276 459 243.5 444 Q211 429 185 402 Q159 375 141 336.5 Q123 298 115 250 Q98 153 131 97 Q164 41 240 41 Q317 41 370 97 Q423 153 440 250 Q457 346 423.5 402.5 Q390 459 314 459 Z " />
<glyph glyph-name="rho" unicode="&#x3c1;" horiz-adv-x="572" d="M341 460 Q271 460 219 407.5 Q167 355 147 244 Q140 204 142.5 167 Q145 130 159.5 102 Q174 74 200.5 57 Q227 40 268 40 Q307 40 338.5 55 Q370 70 395 98 Q420 126 436.5 164.5 Q453 203 462 250 Q470 297 466.5 335.5 Q463 374 448 402 Q433 430 406.5 445 Q380 460 341 460 Z M351 510 Q404 510 442.5 491 Q481 472 503.5 438 Q526 404 532 356 Q538 308 528 250 Q518 193 495 145 Q472 97 439 62.5 Q406 28 363.5 9 Q321 -10 272 -10 Q239 -10 213 0 Q187 10 168 28 Q149 46 138.5 70 Q128 94 126 121 L69 -200 L7 -200 L85 245 Q109 380 180 445 Q251 510 351 510 Z " />
<glyph glyph-name="sigma" unicode="&#x3c3;" horiz-adv-x="565" d="M314 459 Q276 459 243.5 444 Q211 429 185 401.5 Q159 374 141 335.5 Q123 297 115 250 Q98 154 131 97.5 Q164 41 240 41 Q278 41 311 56 Q344 71 370 98 Q396 125 414 163.5 Q432 202 440 250 Q457 345 423.5 402 Q390 459 314 459 Z M323 510 Q389 510 449 505 Q509 500 581 500 L572 452 Q561 452 542 452.5 Q523 453 501.5 454 Q480 455 459 456 Q438 457 425 459 Q473 437 494.5 380 Q516 323 502 245 Q492 187 467.5 140 Q443 93 408 59.5 Q373 26 328 8 Q283 -10 232 -10 Q181 -10 142 8.5 Q103 27 79.5 60.5 Q56 94 48.5 142 Q41 190 52 250 Q62 309 86.5 357 Q111 405 146.5 439 Q182 473 227 491.5 Q272 510 323 510 Z " />
<glyph glyph-name="sigma1" unicode="&#x3c2;" horiz-adv-x="476" d="M306 510 Q357 510 392 497 Q427 484 448 462 Q469 440 478 410.5 Q487 381 487 349 L427 349 Q426 370 420 389.5 Q414 409 400 424 Q386 439 361.5 448 Q337 457 300 457 Q261 457 230.5 441.5 Q200 426 177.5 401 Q155 376 140.5 343 Q126 310 120 276 Q109 214 123 177 Q137 140 164 116.5 Q191 93 224 78 Q257 63 285 47 Q313 31 330 8.5 Q347 -14 340 -53 Q337 -73 323 -94.5 Q309 -116 288.5 -138 Q268 -160 242 -179.5 Q216 -199 188 -214 L167 -172 Q209 -148 237.5 -114.5 Q266 -81 271 -55 Q275 -35 265.5 -22 Q256 -9 238.5 1.5 Q221 12 198.5 21.5 Q176 31 152.5 44 Q129 57 108 74.5 Q87 92 72.5 118.5 Q58 145 53 182.5 Q48 220 57 272 Q65 318 85.5 361 Q106 404 138 437 Q170 470 212 490 Q254 510 306 510 Z " />
<glyph glyph-name="tau" unicode="&#x3c4;" horiz-adv-x="469" d="M501 500 L492 453 L298 453 L241 129 Q233 89 243.5 69.5 Q254 50 286 50 Q290 50 296.5 50 Q303 50 308 52 L299 0 Q289 -2 277.5 -2.5 Q266 -3 258 -3 Q207 -3 185.5 22.5 Q164 48 175 108 L236 453 L55 453 L64 500 L501 500 Z " />
<glyph glyph-name="upsilon" unicode="&#x3c5;" horiz-adv-x="577" d="M107 510 Q158 510 179.5 484.5 Q201 459 191 399 L154 191 Q142 122 169.5 82.5 Q197 43 262 43 Q328 43 369.5 82.5 Q411 122 423 191 L478 500 L540 500 L484 185 Q468 97 408 43.5 Q348 -10 253 -10 Q159 -10 117 43.5 Q75 97 91 185 L125 377 Q132 417 122 436.5 Q112 456 80 456 Q76 456 69 456 Q62 456 57 455 L66 507 Q76 509 87.5 509.5 Q99 510 107 510 Z " />
<glyph glyph-name="phi" unicode="&#x3c6;" horiz-adv-x="725" d="M355 41 Q410 45 455.5 64.5 Q501 84 534.5 114.5 Q568 145 590 186 Q612 227 621 274 Q630 323 626.5 357.5 Q623 392 611 414.5 Q599 437 579.5 447.5 Q560 458 536 458 Q485 458 450.5 420 Q416 382 399 290 L355 41 Z M323 459 Q279 454 243.5 436.5 Q208 419 181 391.5 Q154 364 136 328 Q118 292 111 251 Q94 157 140.5 103 Q187 49 293 41 L338 298 Q357 404 408 457 Q459 510 540 510 Q581 510 613 496 Q645 482 664.5 452.5 Q684 423 690 378.5 Q696 334 685 274 Q674 215 646.5 165.5 Q619 116 575.5 79 Q532 42 474.5 19.5 Q417 -3 347 -7 L313 -200 L251 -200 L284 -7 Q149 1 87 68 Q25 135 46 251 Q55 303 80.5 348 Q106 393 144 427.5 Q182 462 230 483.5 Q278 505 332 510 L323 459 Z " />
<glyph glyph-name="chi" unicode="&#x3c7;" horiz-adv-x="487" d="M146 500 L227 258 Q230 247 233 232.5 Q236 218 238 206 L268 258 L436 500 L505 500 L264 163 L397 -200 L320 -200 L232 56 Q228 67 224.5 83 Q221 99 219 113 Q212 100 203.5 84.5 Q195 69 186 56 L10 -200 L-61 -200 L193 157 L73 500 L146 500 Z " />
<glyph glyph-name="psi" unicode="&#x3c8;" horiz-adv-x="752" d="M490 700 L374 42 Q417 44 454.5 53.5 Q492 63 521.5 81 Q551 99 571 127 Q591 155 599 194 L653 500 L715 500 L661 191 Q652 140 625 103.5 Q598 67 558.5 43 Q519 19 469.5 7 Q420 -5 365 -8 L331 -200 L269 -200 L303 -8 Q249 -5 203.5 7 Q158 19 127 43 Q96 67 82.5 103.5 Q69 140 78 191 L133 500 L195 500 L141 194 Q133 154 143 126 Q153 98 176.5 80 Q200 62 235 53 Q270 44 312 42 L428 700 L490 700 Z " />
<glyph glyph-name="omega" unicode="&#x3c9;" horiz-adv-x="775" d="M314 461 Q273 460 239.5 444 Q206 428 181 400.5 Q156 373 139 334 Q122 295 114 249 Q105 196 108 157 Q111 118 124 92.5 Q137 67 157.5 54.5 Q178 42 204 42 Q225 42 248 48.5 Q271 55 291.5 71.5 Q312 88 328.5 116 Q345 144 353 187 L377 365 L446 365 L407 187 Q399 144 405.5 116 Q412 88 427 71.5 Q442 55 462.5 48.5 Q483 42 504 42 Q530 42 555 54.5 Q580 67 602 92.5 Q624 118 641 157 Q658 196 667 249 Q675 295 672 334 Q669 373 653.5 400.5 Q638 428 610.5 444 Q583 460 542 461 L550 510 Q612 507 651 484.5 Q690 462 710.5 426.5 Q731 391 735 345 Q739 299 730 249 Q708 120 647.5 55 Q587 -10 501 -10 Q474 -10 449.5 -2.5 Q425 5 407 20 Q389 35 378 56.5 Q367 78 366 107 Q343 50 294 20 Q245 -10 189 -10 Q103 -10 65.5 55 Q28 120 51 249 Q60 299 79.5 345 Q99 391 132 426.5 Q165 462 212 484.5 Q259 507 322 510 L314 461 Z " />
<glyph glyph-name="alphatonos" unicode="&#x3ac;" horiz-adv-x="590" d="M442 706 L366 542 L330 542 L374 706 L442 706 Z M301 459 Q226 459 180.5 401.5 Q135 344 118 250 Q109 203 111 164.5 Q113 126 126.5 98.5 Q140 71 165 56 Q190 41 228 41 Q267 41 296.5 58 Q326 75 349.5 103.5 Q373 132 391 169 Q409 206 425 246 Q430 357 398.5 408 Q367 459 301 459 Z M298 510 Q346 510 376 494 Q406 478 423.5 451.5 Q441 425 448 390.5 Q455 356 457 320 L524 500 L586 500 L481 230 Q477 189 476 156 Q475 123 478.5 99.5 Q482 76 491.5 63.5 Q501 51 518 51 Q522 51 528.5 51 Q535 51 540 52 L532 0 Q521 -2 510.5 -2.5 Q500 -3 492 -3 Q467 -3 452 9 Q437 21 429 42 Q421 63 419 92 Q417 121 419 154 Q378 69 328 30 Q278 -9 207 -9 Q157 -9 122.5 10 Q88 29 69 63 Q50 97 45.5 145 Q41 193 52 250 Q62 308 83.5 355.5 Q105 403 136.5 437.5 Q168 472 208.5 491 Q249 510 298 510 Z " />
<glyph glyph-name="epsilontonos" unicode="&#x3ad;" horiz-adv-x="476" d="M287 510 Q369 510 413.5 473.5 Q458 437 455 377 L392 377 Q394 419 366.5 442 Q339 465 281 465 Q215 465 183 439 Q151 413 144 375 Q126 278 274 278 L266 234 Q189 234 146 207.5 Q103 181 94 131 Q91 112 95 94.5 Q99 77 111.5 64 Q124 51 147 43 Q170 35 204 35 Q264 35 302.5 60 Q341 85 355 127 L418 127 Q409 97 388.5 71.5 Q368 46 339 28 Q310 10 274 0 Q238 -10 198 -10 Q103 -10 60 29.5 Q17 69 27 127 Q37 184 83.5 217 Q130 250 195 256 Q166 260 142.5 269 Q119 278 103 293.5 Q87 309 80 330 Q73 351 78 379 Q89 436 141.5 473 Q194 510 287 510 Z M380 706 L304 542 L268 542 L312 706 L380 706 Z " />
<glyph glyph-name="etatonos" unicode="&#x3ae;" horiz-adv-x="565" d="M422 706 L346 542 L310 542 L354 706 L422 706 Z M196 500 L176 389 Q203 441 251.5 475.5 Q300 510 369 510 Q452 510 482 459.5 Q512 409 497 320 L405 -200 L342 -200 L432 309 Q445 378 425 417.5 Q405 457 341 457 Q312 457 282.5 446.5 Q253 436 227.5 413.5 Q202 391 183 356 Q164 321 155 271 L108 0 L46 0 L134 500 L196 500 Z " />
<glyph glyph-name="iotatonos" unicode="&#x3af;" horiz-adv-x="246" d="M252 706 L176 542 L140 542 L184 706 L252 706 Z M196 500 L130 129 Q122 89 132.5 69.5 Q143 50 175 50 Q179 50 185.5 50 Q192 50 197 52 L189 0 Q178 -2 167.5 -2.5 Q157 -3 149 -3 Q95 -3 74 22.5 Q53 48 64 108 L134 500 L196 500 Z " />
<glyph glyph-name="iotadieresis" unicode="&#x3ca;" horiz-adv-x="246" d="M236 604 L246 658 L295 658 L285 604 L236 604 Z M89 604 L99 658 L148 658 L138 604 L89 604 Z M196 500 L130 129 Q122 89 132.5 69.5 Q143 50 175 50 Q179 50 185.5 50 Q192 50 197 52 L189 0 Q178 -2 167.5 -2.5 Q157 -3 149 -3 Q95 -3 74 22.5 Q53 48 64 108 L134 500 L196 500 Z " />
<glyph glyph-name="iotadieresistonos" unicode="&#x390;" horiz-adv-x="246" d="M248 598 L258 651 L302 651 L292 598 L248 598 Z M156 546 L173 710 L228 710 L187 546 L156 546 Z M67 598 L77 651 L122 651 L112 598 L67 598 Z M196 500 L130 129 Q122 89 132.5 69.5 Q143 50 175 50 Q179 50 185.5 50 Q192 50 197 52 L189 0 Q178 -2 167.5 -2.5 Q157 -3 149 -3 Q95 -3 74 22.5 Q53 48 64 108 L134 500 L196 500 Z " />
<glyph glyph-name="omicrontonos" unicode="&#x3cc;" horiz-adv-x="547" d="M323 510 Q374 510 412.5 491.5 Q451 473 474.5 439 Q498 405 506 357 Q514 309 504 250 Q493 191 468.5 143 Q444 95 408.5 61 Q373 27 328 8.5 Q283 -10 232 -10 Q181 -10 142 8.5 Q103 27 79.5 61 Q56 95 48.5 143 Q41 191 52 250 Q62 309 86 357 Q110 405 145.5 439 Q181 473 226.5 491.5 Q272 510 323 510 Z M314 459 Q276 459 243.5 444 Q211 429 185 402 Q159 375 141 336.5 Q123 298 115 250 Q98 153 131 97 Q164 41 240 41 Q317 41 370 97 Q423 153 440 250 Q457 346 423.5 402.5 Q390 459 314 459 Z M412 706 L336 542 L300 542 L344 706 L412 706 Z " />
<glyph glyph-name="upsilontonos" unicode="&#x3cd;" horiz-adv-x="577" d="M107 510 Q158 510 179.5 484.5 Q201 459 191 399 L154 191 Q142 122 169.5 82.5 Q197 43 262 43 Q328 43 369.5 82.5 Q411 122 423 191 L478 500 L540 500 L484 185 Q468 97 408 43.5 Q348 -10 253 -10 Q159 -10 117 43.5 Q75 97 91 185 L125 377 Q132 417 122 436.5 Q112 456 80 456 Q76 456 69 456 Q62 456 57 455 L66 507 Q76 509 87.5 509.5 Q99 510 107 510 Z M430 706 L354 542 L318 542 L362 706 L430 706 Z " />
<glyph glyph-name="upsilondieresistonos" unicode="&#x3b0;" horiz-adv-x="577" d="M424 598 L434 651 L478 651 L468 598 L424 598 Z M332 546 L349 710 L404 710 L363 546 L332 546 Z M243 598 L253 651 L298 651 L288 598 L243 598 Z M107 510 Q158 510 179.5 484.5 Q201 459 191 399 L154 191 Q142 122 169.5 82.5 Q197 43 262 43 Q328 43 369.5 82.5 Q411 122 423 191 L478 500 L540 500 L484 185 Q468 97 408 43.5 Q348 -10 253 -10 Q159 -10 117 43.5 Q75 97 91 185 L125 377 Q132 417 122 436.5 Q112 456 80 456 Q76 456 69 456 Q62 456 57 455 L66 507 Q76 509 87.5 509.5 Q99 510 107 510 Z " />
<glyph glyph-name="upsilondieresis" unicode="&#x3cb;" horiz-adv-x="577" d="M404 604 L414 658 L463 658 L453 604 L404 604 Z M257 604 L267 658 L316 658 L306 604 L257 604 Z M107 510 Q158 510 179.5 484.5 Q201 459 191 399 L154 191 Q142 122 169.5 82.5 Q197 43 262 43 Q328 43 369.5 82.5 Q411 122 423 191 L478 500 L540 500 L484 185 Q468 97 408 43.5 Q348 -10 253 -10 Q159 -10 117 43.5 Q75 97 91 185 L125 377 Q132 417 122 436.5 Q112 456 80 456 Q76 456 69 456 Q62 456 57 455 L66 507 Q76 509 87.5 509.5 Q99 510 107 510 Z " />
<glyph glyph-name="omegatonos" unicode="&#x3ce;" horiz-adv-x="775" d="M526 706 L450 542 L414 542 L458 706 L526 706 Z M314 461 Q273 460 239.5 444 Q206 428 181 400.5 Q156 373 139 334 Q122 295 114 249 Q105 196 108 157 Q111 118 124 92.5 Q137 67 157.5 54.5 Q178 42 204 42 Q225 42 248 48.5 Q271 55 291.5 71.5 Q312 88 328.5 116 Q345 144 353 187 L377 365 L446 365 L407 187 Q399 144 405.5 116 Q412 88 427 71.5 Q442 55 462.5 48.5 Q483 42 504 42 Q530 42 555 54.5 Q580 67 602 92.5 Q624 118 641 157 Q658 196 667 249 Q675 295 672 334 Q669 373 653.5 400.5 Q638 428 610.5 444 Q583 460 542 461 L550 510 Q612 507 651 484.5 Q690 462 710.5 426.5 Q731 391 735 345 Q739 299 730 249 Q708 120 647.5 55 Q587 -10 501 -10 Q474 -10 449.5 -2.5 Q425 5 407 20 Q389 35 378 56.5 Q367 78 366 107 Q343 50 294 20 Q245 -10 189 -10 Q103 -10 65.5 55 Q28 120 51 249 Q60 299 79.5 345 Q99 391 132 426.5 Q165 462 212 484.5 Q259 507 322 510 L314 461 Z " />
<glyph glyph-name="tonos" unicode="&#x384;" horiz-adv-x="188" d="M233 706 L157 542 L121 542 L165 706 L233 706 Z " />
<glyph glyph-name="dieresistonos" unicode="&#x385;" horiz-adv-x="311" d="M288 598 L298 651 L342 651 L332 598 L288 598 Z M196 546 L213 710 L268 710 L227 546 L196 546 Z M107 598 L117 651 L162 651 L152 598 L107 598 Z " />
<glyph glyph-name="anoteleia" unicode="&#x387;" horiz-adv-x="578" d="M300 318 L287 247 L217 247 L229 318 L300 318 Z " />
<glyph glyph-name="Abreve" unicode="&#x102;" horiz-adv-x="618" d="M334 835 Q329 804 345 785 Q361 766 398 766 Q439 766 460.5 786 Q482 806 487 835 L521 831 Q513 785 478 757 Q443 729 391 729 Q340 729 315.5 757 Q291 785 299 831 L334 835 Z M383 661 Q372 635 359 609 Q346 583 335 562 L173 265 L454 265 L396 562 Q392 584 389 610 Q386 636 383 661 Z M441 700 L574 0 L500 0 L462 213 L148 213 L35 0 L-36 0 L344 700 L441 700 Z " />
<glyph glyph-name="Amacron" unicode="&#x100;" horiz-adv-x="618" d="M276 751 L283 790 L522 790 L514 751 L276 751 Z M383 661 Q372 635 359 609 Q346 583 335 562 L173 265 L454 265 L396 562 Q392 584 389 610 Q386 636 383 661 Z M441 700 L574 0 L500 0 L462 213 L148 213 L35 0 L-36 0 L344 700 L441 700 Z " />
<glyph glyph-name="Aogonek" unicode="&#x104;" horiz-adv-x="618" d="M383 661 Q372 635 359 609 Q346 583 335 562 L173 265 L454 265 L396 562 Q392 584 389 610 Q386 636 383 661 Z M500 0 L462 213 L148 213 L35 0 L-36 0 L344 700 L441 700 L574 0 L546 0 Q514 -22 491 -52.5 Q468 -83 463 -114 Q458 -143 473 -158 Q488 -173 516 -173 Q528 -173 542 -170 L535 -210 Q519 -214 499 -214 Q454 -214 429 -191.5 Q404 -169 412 -126 Q418 -90 444.5 -57.5 Q471 -25 511 0 L500 0 Z " />
<glyph glyph-name="Cacute" unicode="&#x106;" horiz-adv-x="684" d="M589 864 L431 726 L390 726 L530 872 L589 864 Z M648 195 Q630 149 599.5 111.5 Q569 74 528 47 Q487 20 438 5 Q389 -10 334 -10 Q258 -10 203.5 18.5 Q149 47 116.5 96 Q84 145 74 210.5 Q64 276 77 350 Q90 424 123 489.5 Q156 555 206 604 Q256 653 320.5 681.5 Q385 710 461 710 Q516 710 560 695 Q604 680 635 653 Q666 626 683.5 588.5 Q701 551 703 505 L634 505 Q629 571 581 611 Q533 651 450 651 Q390 651 340 628.5 Q290 606 252 566 Q214 526 188.5 470.5 Q163 415 151 350 Q139 285 145 229.5 Q151 174 175 134 Q199 94 241.5 71.5 Q284 49 344 49 Q427 49 488.5 89 Q550 129 579 195 L648 195 Z " />
<glyph glyph-name="Ccaron" unicode="&#x10c;" horiz-adv-x="684" d="M389 872 L471 766 L593 872 L630 864 L491 726 L439 726 L348 864 L389 872 Z M648 195 Q630 149 599.5 111.5 Q569 74 528 47 Q487 20 438 5 Q389 -10 334 -10 Q258 -10 203.5 18.5 Q149 47 116.5 96 Q84 145 74 210.5 Q64 276 77 350 Q90 424 123 489.5 Q156 555 206 604 Q256 653 320.5 681.5 Q385 710 461 710 Q516 710 560 695 Q604 680 635 653 Q666 626 683.5 588.5 Q701 551 703 505 L634 505 Q629 571 581 611 Q533 651 450 651 Q390 651 340 628.5 Q290 606 252 566 Q214 526 188.5 470.5 Q163 415 151 350 Q139 285 145 229.5 Q151 174 175 134 Q199 94 241.5 71.5 Q284 49 344 49 Q427 49 488.5 89 Q550 129 579 195 L648 195 Z " />
<glyph glyph-name="Ccircumflex" unicode="&#x108;" horiz-adv-x="684" d="M567 726 L484 832 L363 726 L326 734 L465 872 L516 872 L607 734 L567 726 Z M648 195 Q630 149 599.5 111.5 Q569 74 528 47 Q487 20 438 5 Q389 -10 334 -10 Q258 -10 203.5 18.5 Q149 47 116.5 96 Q84 145 74 210.5 Q64 276 77 350 Q90 424 123 489.5 Q156 555 206 604 Q256 653 320.5 681.5 Q385 710 461 710 Q516 710 560 695 Q604 680 635 653 Q666 626 683.5 588.5 Q701 551 703 505 L634 505 Q629 571 581 611 Q533 651 450 651 Q390 651 340 628.5 Q290 606 252 566 Q214 526 188.5 470.5 Q163 415 151 350 Q139 285 145 229.5 Q151 174 175 134 Q199 94 241.5 71.5 Q284 49 344 49 Q427 49 488.5 89 Q550 129 579 195 L648 195 Z " />
<glyph glyph-name="Cdotaccent" unicode="&#x10a;" horiz-adv-x="684" d="M441 762 L451 814 L510 814 L501 762 L441 762 Z M648 195 Q630 149 599.5 111.5 Q569 74 528 47 Q487 20 438 5 Q389 -10 334 -10 Q258 -10 203.5 18.5 Q149 47 116.5 96 Q84 145 74 210.5 Q64 276 77 350 Q90 424 123 489.5 Q156 555 206 604 Q256 653 320.5 681.5 Q385 710 461 710 Q516 710 560 695 Q604 680 635 653 Q666 626 683.5 588.5 Q701 551 703 505 L634 505 Q629 571 581 611 Q533 651 450 651 Q390 651 340 628.5 Q290 606 252 566 Q214 526 188.5 470.5 Q163 415 151 350 Q139 285 145 229.5 Q151 174 175 134 Q199 94 241.5 71.5 Q284 49 344 49 Q427 49 488.5 89 Q550 129 579 195 L648 195 Z " />
<glyph glyph-name="Dcroat" unicode="&#x110;" horiz-adv-x="716" d="M321 53 Q379 53 427.5 74.5 Q476 96 512.5 135.5 Q549 175 573.5 230.5 Q598 286 610 354 Q635 492 587 569.5 Q539 647 424 647 L232 647 L186 390 L295 390 L287 347 L179 347 L127 53 L321 53 Z M51 0 L112 347 L49 347 L56 390 L119 390 L174 700 L444 700 Q513 700 564 675.5 Q615 651 646 606 Q677 561 686.5 497 Q696 433 682 354 Q668 276 637 211 Q606 146 560 99 Q514 52 454 26 Q394 0 324 0 L51 0 Z " />
<glyph glyph-name="Dcaron" unicode="&#x10e;" horiz-adv-x="716" d="M343 872 L425 766 L547 872 L584 864 L445 726 L393 726 L302 864 L343 872 Z M321 53 Q379 53 427.5 74.5 Q476 96 512.5 135.5 Q549 175 573.5 230.5 Q598 286 610 354 Q635 492 587 569.5 Q539 647 424 647 L232 647 L127 53 L321 53 Z M51 0 L174 700 L444 700 Q513 700 564 675.5 Q615 651 646 606 Q677 561 686.5 497 Q696 433 682 354 Q668 276 637 211 Q606 146 560 99 Q514 52 454 26 Q394 0 324 0 L51 0 Z " />
<glyph glyph-name="Ebreve" unicode="&#x114;" horiz-adv-x="602" d="M359 835 Q354 804 370 785 Q386 766 423 766 Q464 766 485.5 786 Q507 806 512 835 L546 831 Q538 785 503 757 Q468 729 416 729 Q365 729 340.5 757 Q316 785 324 831 L359 835 Z M51 0 L174 700 L630 700 L621 647 L232 647 L187 390 L517 390 L508 337 L177 337 L127 53 L520 53 L511 0 L51 0 Z " />
<glyph glyph-name="Ecaron" unicode="&#x11a;" horiz-adv-x="602" d="M341 872 L423 766 L545 872 L582 864 L443 726 L391 726 L300 864 L341 872 Z M51 0 L174 700 L630 700 L621 647 L232 647 L187 390 L517 390 L508 337 L177 337 L127 53 L520 53 L511 0 L51 0 Z " />
<glyph glyph-name="Edotaccent" unicode="&#x116;" horiz-adv-x="602" d="M386 762 L396 814 L455 814 L446 762 L386 762 Z M51 0 L174 700 L630 700 L621 647 L232 647 L187 390 L517 390 L508 337 L177 337 L127 53 L520 53 L511 0 L51 0 Z " />
<glyph glyph-name="Emacron" unicode="&#x112;" horiz-adv-x="602" d="M299 751 L306 790 L545 790 L537 751 L299 751 Z M51 0 L174 700 L630 700 L621 647 L232 647 L187 390 L517 390 L508 337 L177 337 L127 53 L520 53 L511 0 L51 0 Z " />
<glyph glyph-name="Eogonek" unicode="&#x118;" horiz-adv-x="602" d="M51 0 L174 700 L630 700 L621 647 L232 647 L187 390 L517 390 L508 337 L177 337 L127 53 L520 53 L511 0 L465 0 Q433 -22 410 -52.5 Q387 -83 382 -114 Q377 -143 392 -158 Q407 -173 435 -173 Q447 -173 461 -170 L454 -210 Q438 -214 418 -214 Q373 -214 348 -191.5 Q323 -169 331 -126 Q337 -90 363.5 -57.5 Q390 -25 430 0 L51 0 Z " />
<glyph glyph-name="Gbreve" unicode="&#x11e;" horiz-adv-x="749" d="M403 835 Q398 804 414 785 Q430 766 467 766 Q508 766 529.5 786 Q551 806 556 835 L590 831 Q582 785 547 757 Q512 729 460 729 Q409 729 384.5 757 Q360 785 368 831 L403 835 Z M462 710 Q517 710 560.5 695 Q604 680 635 653 Q666 626 683.5 588.5 Q701 551 703 506 L634 506 Q629 572 581.5 611.5 Q534 651 451 651 Q390 651 340 628.5 Q290 606 252 566 Q214 526 188.5 470.5 Q163 415 151 350 Q139 284 145 228.5 Q151 173 175 133 Q199 93 241 70.5 Q283 48 343 48 Q387 48 429 63.5 Q471 79 506 111.5 Q541 144 567 193 Q593 242 605 309 L382 309 L391 360 L681 360 L618 0 L554 0 L584 175 Q569 141 546 108 Q523 75 491 48.5 Q459 22 416.5 6 Q374 -10 321 -10 Q253 -10 201.5 16.5 Q150 43 117.5 91 Q85 139 74.5 205 Q64 271 78 350 Q91 424 124 489.5 Q157 555 206.5 604 Q256 653 321 681.5 Q386 710 462 710 Z " />
<glyph glyph-name="Gcircumflex" unicode="&#x11c;" horiz-adv-x="749" d="M565 726 L482 832 L361 726 L324 734 L463 872 L514 872 L605 734 L565 726 Z M462 710 Q517 710 560.5 695 Q604 680 635 653 Q666 626 683.5 588.5 Q701 551 703 506 L634 506 Q629 572 581.5 611.5 Q534 651 451 651 Q390 651 340 628.5 Q290 606 252 566 Q214 526 188.5 470.5 Q163 415 151 350 Q139 284 145 228.5 Q151 173 175 133 Q199 93 241 70.5 Q283 48 343 48 Q387 48 429 63.5 Q471 79 506 111.5 Q541 144 567 193 Q593 242 605 309 L382 309 L391 360 L681 360 L618 0 L554 0 L584 175 Q569 141 546 108 Q523 75 491 48.5 Q459 22 416.5 6 Q374 -10 321 -10 Q253 -10 201.5 16.5 Q150 43 117.5 91 Q85 139 74.5 205 Q64 271 78 350 Q91 424 124 489.5 Q157 555 206.5 604 Q256 653 321 681.5 Q386 710 462 710 Z " />
<glyph glyph-name="Gcommaaccent" unicode="&#x122;" horiz-adv-x="749" d="M346 -52 L338 -96 Q331 -134 308.5 -161.5 Q286 -189 255 -209 L247 -187 Q295 -155 304 -104 L275 -104 L284 -52 L346 -52 Z M462 710 Q517 710 560.5 695 Q604 680 635 653 Q666 626 683.5 588.5 Q701 551 703 506 L634 506 Q629 572 581.5 611.5 Q534 651 451 651 Q390 651 340 628.5 Q290 606 252 566 Q214 526 188.5 470.5 Q163 415 151 350 Q139 284 145 228.5 Q151 173 175 133 Q199 93 241 70.5 Q283 48 343 48 Q387 48 429 63.5 Q471 79 506 111.5 Q541 144 567 193 Q593 242 605 309 L382 309 L391 360 L681 360 L618 0 L554 0 L584 175 Q569 141 546 108 Q523 75 491 48.5 Q459 22 416.5 6 Q374 -10 321 -10 Q253 -10 201.5 16.5 Q150 43 117.5 91 Q85 139 74.5 205 Q64 271 78 350 Q91 424 124 489.5 Q157 555 206.5 604 Q256 653 321 681.5 Q386 710 462 710 Z " />
<glyph glyph-name="Gdotaccent" unicode="&#x120;" horiz-adv-x="749" d="M433 762 L443 814 L502 814 L493 762 L433 762 Z M462 710 Q517 710 560.5 695 Q604 680 635 653 Q666 626 683.5 588.5 Q701 551 703 506 L634 506 Q629 572 581.5 611.5 Q534 651 451 651 Q390 651 340 628.5 Q290 606 252 566 Q214 526 188.5 470.5 Q163 415 151 350 Q139 284 145 228.5 Q151 173 175 133 Q199 93 241 70.5 Q283 48 343 48 Q387 48 429 63.5 Q471 79 506 111.5 Q541 144 567 193 Q593 242 605 309 L382 309 L391 360 L681 360 L618 0 L554 0 L584 175 Q569 141 546 108 Q523 75 491 48.5 Q459 22 416.5 6 Q374 -10 321 -10 Q253 -10 201.5 16.5 Q150 43 117.5 91 Q85 139 74.5 205 Q64 271 78 350 Q91 424 124 489.5 Q157 555 206.5 604 Q256 653 321 681.5 Q386 710 462 710 Z " />
<glyph glyph-name="Hcircumflex" unicode="&#x124;" horiz-adv-x="685" d="M528 726 L445 832 L324 726 L287 734 L426 872 L477 872 L568 734 L528 726 Z M486 0 L545 337 L177 337 L118 0 L51 0 L174 700 L241 700 L187 390 L555 390 L609 700 L677 700 L554 0 L486 0 Z " />
<glyph glyph-name="Hbar" unicode="&#x126;" horiz-adv-x="685" d="M555 390 L581 540 L213 540 L187 390 L555 390 Z M486 0 L545 337 L177 337 L118 0 L51 0 L146 540 L82 540 L89 581 L153 581 L174 700 L241 700 L220 581 L588 581 L609 700 L677 700 L656 581 L702 581 L695 540 L649 540 L554 0 L486 0 Z " />
<glyph glyph-name="Ibreve" unicode="&#x12c;" horiz-adv-x="249" d="M156 835 Q151 804 167 785 Q183 766 220 766 Q261 766 282.5 786 Q304 806 309 835 L343 831 Q335 785 300 757 Q265 729 213 729 Q162 729 137.5 757 Q113 785 121 831 L156 835 Z M51 0 L174 700 L241 700 L118 0 L51 0 Z " />
<glyph glyph-name="Idotaccent" unicode="&#x130;" horiz-adv-x="249" d="M187 762 L197 814 L256 814 L247 762 L187 762 Z M51 0 L174 700 L241 700 L118 0 L51 0 Z " />
<glyph glyph-name="Imacron" unicode="&#x12a;" horiz-adv-x="249" d="M98 751 L105 790 L344 790 L336 751 L98 751 Z M51 0 L174 700 L241 700 L118 0 L51 0 Z " />
<glyph glyph-name="Iogonek" unicode="&#x12e;" horiz-adv-x="249" d="M51 0 L174 700 L241 700 L118 0 L115 0 Q83 -22 60 -52.5 Q37 -83 32 -114 Q27 -143 42 -158 Q57 -173 85 -173 Q97 -173 111 -170 L104 -210 Q88 -214 68 -214 Q23 -214 -2 -191.5 Q-27 -169 -19 -126 Q-13 -90 13.5 -57.5 Q40 -25 80 0 L51 0 Z " />
<glyph glyph-name="Itilde" unicode="&#x128;" horiz-adv-x="249" d="M168 835 Q190 835 206 825.5 Q222 816 234.5 805 Q247 794 259 784.5 Q271 775 285 775 Q305 775 319.5 785 Q334 795 342 820 L370 815 Q358 777 334 757.5 Q310 738 280 738 Q259 738 244 747.5 Q229 757 216.5 769 Q204 781 191 790.5 Q178 800 160 800 Q119 800 103 753 L76 759 Q87 797 111.5 816 Q136 835 168 835 Z M51 0 L174 700 L241 700 L118 0 L51 0 Z " />
<glyph glyph-name="Jcircumflex" unicode="&#x134;" horiz-adv-x="517" d="M577 726 L494 832 L373 726 L336 734 L475 872 L526 872 L617 734 L577 726 Z M510 700 L418 178 Q403 92 339.5 41 Q276 -10 176 -10 Q90 -10 45 35.5 Q0 81 3 153 L73 153 Q71 109 99.5 78 Q128 47 188 47 Q262 47 301 84 Q340 121 350 177 L442 700 L510 700 Z " />
<glyph glyph-name="Kcommaaccent" unicode="&#x136;" horiz-adv-x="599" d="M286 -52 L278 -96 Q271 -134 248.5 -161.5 Q226 -189 195 -209 L187 -187 Q235 -155 244 -104 L215 -104 L224 -52 L286 -52 Z M466 0 L194 366 L567 700 L649 700 L274 370 L550 0 L466 0 Z M51 0 L174 700 L241 700 L118 0 L51 0 Z " />
<glyph glyph-name="Lacute" unicode="&#x139;" horiz-adv-x="536" d="M393 864 L235 726 L194 726 L334 872 L393 864 Z M51 0 L174 700 L241 700 L127 53 L495 53 L486 0 L51 0 Z " />
<glyph glyph-name="Lcaron" unicode="&#x13d;" horiz-adv-x="536" d="M381 710 L325 562 L294 562 L320 710 L381 710 Z M51 0 L174 700 L241 700 L127 53 L495 53 L486 0 L51 0 Z " />
<glyph glyph-name="Lcommaaccent" unicode="&#x13b;" horiz-adv-x="536" d="M292 -52 L284 -96 Q277 -134 254.5 -161.5 Q232 -189 201 -209 L193 -187 Q241 -155 250 -104 L221 -104 L230 -52 L292 -52 Z M51 0 L174 700 L241 700 L127 53 L495 53 L486 0 L51 0 Z " />
<glyph glyph-name="Lslash" unicode="&#x141;" horiz-adv-x="536" d="M51 0 L92 235 L29 181 L3 213 L103 298 L174 700 L241 700 L182 365 L326 488 L352 457 L171 302 L127 53 L495 53 L486 0 L51 0 Z " />
<glyph glyph-name="Nacute" unicode="&#x143;" horiz-adv-x="686" d="M569 864 L411 726 L370 726 L510 872 L569 864 Z M270 700 L487 144 Q492 130 496.5 112 Q501 94 505 76 Q506 93 509 115 Q512 137 515 154 L612 700 L678 700 L555 0 L470 0 L247 576 Q242 590 237 608 Q232 626 230 642 L219 572 L118 0 L51 0 L174 700 L270 700 Z " />
<glyph glyph-name="Ncaron" unicode="&#x147;" horiz-adv-x="686" d="M354 872 L436 766 L558 872 L595 864 L456 726 L404 726 L313 864 L354 872 Z M270 700 L487 144 Q492 130 496.5 112 Q501 94 505 76 Q506 93 509 115 Q512 137 515 154 L612 700 L678 700 L555 0 L470 0 L247 576 Q242 590 237 608 Q232 626 230 642 L219 572 L118 0 L51 0 L174 700 L270 700 Z " />
<glyph glyph-name="Ncommaaccent" unicode="&#x145;" horiz-adv-x="686" d="M335 -52 L327 -96 Q320 -134 297.5 -161.5 Q275 -189 244 -209 L236 -187 Q284 -155 293 -104 L264 -104 L273 -52 L335 -52 Z M270 700 L487 144 Q492 130 496.5 112 Q501 94 505 76 Q506 93 509 115 Q512 137 515 154 L612 700 L678 700 L555 0 L470 0 L247 576 Q242 590 237 608 Q232 626 230 642 L219 572 L118 0 L51 0 L174 700 L270 700 Z " />
<glyph glyph-name="Obreve" unicode="&#x14e;" horiz-adv-x="748" d="M403 835 Q398 804 414 785 Q430 766 467 766 Q508 766 529.5 786 Q551 806 556 835 L590 831 Q582 785 547 757 Q512 729 460 729 Q409 729 384.5 757 Q360 785 368 831 L403 835 Z M459 710 Q535 710 589 681.5 Q643 653 674.5 604 Q706 555 715.5 489.5 Q725 424 712 350 Q699 276 666.5 210.5 Q634 145 585 96 Q536 47 472 18.5 Q408 -10 332 -10 Q256 -10 202 18.5 Q148 47 116 96 Q84 145 74 210.5 Q64 276 77 350 Q90 424 123 489.5 Q156 555 205 604 Q254 653 318.5 681.5 Q383 710 459 710 Z M448 651 Q388 651 338 628.5 Q288 606 250.5 566 Q213 526 188 470.5 Q163 415 151 350 Q139 285 145 229.5 Q151 174 174.5 134 Q198 94 240 71.5 Q282 49 342 49 Q402 49 452 71.5 Q502 94 539.5 134 Q577 174 602.5 229.5 Q628 285 639 350 Q651 415 645 470.5 Q639 526 615.5 566 Q592 606 550 628.5 Q508 651 448 651 Z " />
<glyph glyph-name="Ohungarumlaut" unicode="&#x150;" horiz-adv-x="748" d="M647 864 L510 728 L475 728 L597 872 L647 864 Z M504 864 L368 728 L332 728 L454 872 L504 864 Z M459 710 Q535 710 589 681.5 Q643 653 674.5 604 Q706 555 715.5 489.5 Q725 424 712 350 Q699 276 666.5 210.5 Q634 145 585 96 Q536 47 472 18.5 Q408 -10 332 -10 Q256 -10 202 18.5 Q148 47 116 96 Q84 145 74 210.5 Q64 276 77 350 Q90 424 123 489.5 Q156 555 205 604 Q254 653 318.5 681.5 Q383 710 459 710 Z M448 651 Q388 651 338 628.5 Q288 606 250.5 566 Q213 526 188 470.5 Q163 415 151 350 Q139 285 145 229.5 Q151 174 174.5 134 Q198 94 240 71.5 Q282 49 342 49 Q402 49 452 71.5 Q502 94 539.5 134 Q577 174 602.5 229.5 Q628 285 639 350 Q651 415 645 470.5 Q639 526 615.5 566 Q592 606 550 628.5 Q508 651 448 651 Z " />
<glyph glyph-name="Omacron" unicode="&#x14c;" horiz-adv-x="748" d="M346 751 L353 790 L592 790 L584 751 L346 751 Z M459 710 Q535 710 589 681.5 Q643 653 674.5 604 Q706 555 715.5 489.5 Q725 424 712 350 Q699 276 666.5 210.5 Q634 145 585 96 Q536 47 472 18.5 Q408 -10 332 -10 Q256 -10 202 18.5 Q148 47 116 96 Q84 145 74 210.5 Q64 276 77 350 Q90 424 123 489.5 Q156 555 205 604 Q254 653 318.5 681.5 Q383 710 459 710 Z M448 651 Q388 651 338 628.5 Q288 606 250.5 566 Q213 526 188 470.5 Q163 415 151 350 Q139 285 145 229.5 Q151 174 174.5 134 Q198 94 240 71.5 Q282 49 342 49 Q402 49 452 71.5 Q502 94 539.5 134 Q577 174 602.5 229.5 Q628 285 639 350 Q651 415 645 470.5 Q639 526 615.5 566 Q592 606 550 628.5 Q508 651 448 651 Z " />
<glyph glyph-name="Racute" unicode="&#x154;" horiz-adv-x="658" d="M545 864 L387 726 L346 726 L486 872 L545 864 Z M400 365 Q440 365 469 376.5 Q498 388 518 407.5 Q538 427 550 453.5 Q562 480 567 510 Q572 539 569 564 Q566 589 552.5 607.5 Q539 626 514 636.5 Q489 647 449 647 L232 647 L183 365 L400 365 Z M480 0 Q498 101 496.5 162.5 Q495 224 479.5 257.5 Q464 291 437.5 302 Q411 313 378 313 L173 313 L118 0 L51 0 L174 700 L474 700 Q526 700 561 685.5 Q596 671 615.5 646 Q635 621 640.5 588 Q646 555 640 518 Q626 444 581 396.5 Q536 349 457 339 Q484 333 508.5 317 Q533 301 547.5 263.5 Q562 226 563.5 163 Q565 100 548 0 L480 0 Z " />
<glyph glyph-name="Rcaron" unicode="&#x158;" horiz-adv-x="658" d="M335 872 L417 766 L539 872 L576 864 L437 726 L385 726 L294 864 L335 872 Z M400 365 Q440 365 469 376.5 Q498 388 518 407.5 Q538 427 550 453.5 Q562 480 567 510 Q572 539 569 564 Q566 589 552.5 607.5 Q539 626 514 636.5 Q489 647 449 647 L232 647 L183 365 L400 365 Z M480 0 Q498 101 496.5 162.5 Q495 224 479.5 257.5 Q464 291 437.5 302 Q411 313 378 313 L173 313 L118 0 L51 0 L174 700 L474 700 Q526 700 561 685.5 Q596 671 615.5 646 Q635 621 640.5 588 Q646 555 640 518 Q626 444 581 396.5 Q536 349 457 339 Q484 333 508.5 317 Q533 301 547.5 263.5 Q562 226 563.5 163 Q565 100 548 0 L480 0 Z " />
<glyph glyph-name="Rcommaaccent" unicode="&#x156;" horiz-adv-x="658" d="M315 -52 L307 -96 Q300 -134 277.5 -161.5 Q255 -189 224 -209 L216 -187 Q264 -155 273 -104 L244 -104 L253 -52 L315 -52 Z M400 365 Q440 365 469 376.5 Q498 388 518 407.5 Q538 427 550 453.5 Q562 480 567 510 Q572 539 569 564 Q566 589 552.5 607.5 Q539 626 514 636.5 Q489 647 449 647 L232 647 L183 365 L400 365 Z M480 0 Q498 101 496.5 162.5 Q495 224 479.5 257.5 Q464 291 437.5 302 Q411 313 378 313 L173 313 L118 0 L51 0 L174 700 L474 700 Q526 700 561 685.5 Q596 671 615.5 646 Q635 621 640.5 588 Q646 555 640 518 Q626 444 581 396.5 Q536 349 457 339 Q484 333 508.5 317 Q533 301 547.5 263.5 Q562 226 563.5 163 Q565 100 548 0 L480 0 Z " />
<glyph glyph-name="Sacute" unicode="&#x15a;" horiz-adv-x="632" d="M533 864 L375 726 L334 726 L474 872 L533 864 Z M401 710 Q458 710 500.5 696.5 Q543 683 571 659.5 Q599 636 613 604.5 Q627 573 626 537 L555 537 Q555 561 546 583 Q537 605 517.5 621 Q498 637 466.5 646.5 Q435 656 390 656 Q342 656 306 645 Q270 634 245.5 615.5 Q221 597 207 573.5 Q193 550 189 525 Q183 489 193 466 Q203 443 225 428.5 Q247 414 278.5 406.5 Q310 399 346 394 Q397 387 442 375 Q487 363 519 341 Q551 319 566 284.5 Q581 250 572 198 Q564 156 541 118 Q518 80 479.5 51.5 Q441 23 389 6.5 Q337 -10 273 -10 Q217 -10 173.5 3.5 Q130 17 100.5 40.5 Q71 64 56 95.5 Q41 127 42 164 L113 164 Q113 139 123 117 Q133 95 154 78.5 Q175 62 207.5 52.5 Q240 43 285 43 Q333 43 370 55 Q407 67 433.5 87.5 Q460 108 476 134 Q492 160 497 189 Q504 228 492 253 Q480 278 455.5 294 Q431 310 395.5 318.5 Q360 327 320 333 Q270 340 229 351 Q188 362 160 383 Q132 404 119.5 436.5 Q107 469 116 520 Q122 557 143.5 591 Q165 625 201 651.5 Q237 678 287.5 694 Q338 710 401 710 Z " />
<glyph glyph-name="Scaron" unicode="&#x160;" horiz-adv-x="632" d="M327 872 L409 766 L531 872 L568 864 L429 726 L377 726 L286 864 L327 872 Z M401 710 Q458 710 500.5 696.5 Q543 683 571 659.5 Q599 636 613 604.5 Q627 573 626 537 L555 537 Q555 561 546 583 Q537 605 517.5 621 Q498 637 466.5 646.5 Q435 656 390 656 Q342 656 306 645 Q270 634 245.5 615.5 Q221 597 207 573.5 Q193 550 189 525 Q183 489 193 466 Q203 443 225 428.5 Q247 414 278.5 406.5 Q310 399 346 394 Q397 387 442 375 Q487 363 519 341 Q551 319 566 284.5 Q581 250 572 198 Q564 156 541 118 Q518 80 479.5 51.5 Q441 23 389 6.5 Q337 -10 273 -10 Q217 -10 173.5 3.5 Q130 17 100.5 40.5 Q71 64 56 95.5 Q41 127 42 164 L113 164 Q113 139 123 117 Q133 95 154 78.5 Q175 62 207.5 52.5 Q240 43 285 43 Q333 43 370 55 Q407 67 433.5 87.5 Q460 108 476 134 Q492 160 497 189 Q504 228 492 253 Q480 278 455.5 294 Q431 310 395.5 318.5 Q360 327 320 333 Q270 340 229 351 Q188 362 160 383 Q132 404 119.5 436.5 Q107 469 116 520 Q122 557 143.5 591 Q165 625 201 651.5 Q237 678 287.5 694 Q338 710 401 710 Z " />
<glyph glyph-name="&amp;#x15e;" unicode="&#x15e;" horiz-adv-x="632" d="M401 710 Q458 710 500.5 696.5 Q543 683 571 659.5 Q599 636 613 604.5 Q627 573 626 537 L555 537 Q555 561 546 583 Q537 605 517.5 621 Q498 637 466.5 646.5 Q435 656 390 656 Q342 656 306 645 Q270 634 245.5 615.5 Q221 597 207 573.5 Q193 550 189 525 Q183 489 193 466 Q203 443 225 428.5 Q247 414 278.5 406.5 Q310 399 346 394 Q397 387 442 375 Q487 363 519 341 Q551 319 566 284.5 Q581 250 572 198 Q564 156 541 119 Q518 82 480.5 53.5 Q443 25 392 8 Q341 -9 277 -10 L237 -63 Q247 -61 257.5 -60 Q268 -59 277 -59 Q325 -59 348 -80.5 Q371 -102 365 -136 Q358 -174 321 -199 Q284 -224 227 -224 Q196 -224 168.5 -215.5 Q141 -207 127 -190 L151 -166 Q159 -180 182 -186.5 Q205 -193 231 -193 Q271 -193 291 -177.5 Q311 -162 315 -141 Q319 -118 303 -101 Q287 -84 240 -84 Q227 -84 212 -86 Q197 -88 180 -91 L234 -8 Q187 -4 151 11 Q115 26 90 48.5 Q65 71 53 100.5 Q41 130 42 164 L113 164 Q113 139 123 117 Q133 95 154 78.5 Q175 62 207.5 52.5 Q240 43 285 43 Q333 43 370 55 Q407 67 433.5 87.5 Q460 108 476 134 Q492 160 497 189 Q504 228 492 253 Q480 278 455.5 294 Q431 310 395.5 318.5 Q360 327 320 333 Q270 340 229 351 Q188 362 160 383 Q132 404 119.5 436.5 Q107 469 116 520 Q122 557 143.5 591 Q165 625 201 651.5 Q237 678 287.5 694 Q338 710 401 710 Z " />
<glyph glyph-name="&amp;#xf6c1;" unicode="&#xf6c1;" horiz-adv-x="632" d="M401 710 Q458 710 500.5 696.5 Q543 683 571 659.5 Q599 636 613 604.5 Q627 573 626 537 L555 537 Q555 561 546 583 Q537 605 517.5 621 Q498 637 466.5 646.5 Q435 656 390 656 Q342 656 306 645 Q270 634 245.5 615.5 Q221 597 207 573.5 Q193 550 189 525 Q183 489 193 466 Q203 443 225 428.5 Q247 414 278.5 406.5 Q310 399 346 394 Q397 387 442 375 Q487 363 519 341 Q551 319 566 284.5 Q581 250 572 198 Q564 156 541 119 Q518 82 480.5 53.5 Q443 25 392 8 Q341 -9 277 -10 L237 -63 Q247 -61 257.5 -60 Q268 -59 277 -59 Q325 -59 348 -80.5 Q371 -102 365 -136 Q358 -174 321 -199 Q284 -224 227 -224 Q196 -224 168.5 -215.5 Q141 -207 127 -190 L151 -166 Q159 -180 182 -186.5 Q205 -193 231 -193 Q271 -193 291 -177.5 Q311 -162 315 -141 Q319 -118 303 -101 Q287 -84 240 -84 Q227 -84 212 -86 Q197 -88 180 -91 L234 -8 Q187 -4 151 11 Q115 26 90 48.5 Q65 71 53 100.5 Q41 130 42 164 L113 164 Q113 139 123 117 Q133 95 154 78.5 Q175 62 207.5 52.5 Q240 43 285 43 Q333 43 370 55 Q407 67 433.5 87.5 Q460 108 476 134 Q492 160 497 189 Q504 228 492 253 Q480 278 455.5 294 Q431 310 395.5 318.5 Q360 327 320 333 Q270 340 229 351 Q188 362 160 383 Q132 404 119.5 436.5 Q107 469 116 520 Q122 557 143.5 591 Q165 625 201 651.5 Q237 678 287.5 694 Q338 710 401 710 Z " />
<glyph glyph-name="Scircumflex" unicode="&#x15c;" horiz-adv-x="632" d="M509 726 L426 832 L305 726 L268 734 L407 872 L458 872 L549 734 L509 726 Z M401 710 Q458 710 500.5 696.5 Q543 683 571 659.5 Q599 636 613 604.5 Q627 573 626 537 L555 537 Q555 561 546 583 Q537 605 517.5 621 Q498 637 466.5 646.5 Q435 656 390 656 Q342 656 306 645 Q270 634 245.5 615.5 Q221 597 207 573.5 Q193 550 189 525 Q183 489 193 466 Q203 443 225 428.5 Q247 414 278.5 406.5 Q310 399 346 394 Q397 387 442 375 Q487 363 519 341 Q551 319 566 284.5 Q581 250 572 198 Q564 156 541 118 Q518 80 479.5 51.5 Q441 23 389 6.5 Q337 -10 273 -10 Q217 -10 173.5 3.5 Q130 17 100.5 40.5 Q71 64 56 95.5 Q41 127 42 164 L113 164 Q113 139 123 117 Q133 95 154 78.5 Q175 62 207.5 52.5 Q240 43 285 43 Q333 43 370 55 Q407 67 433.5 87.5 Q460 108 476 134 Q492 160 497 189 Q504 228 492 253 Q480 278 455.5 294 Q431 310 395.5 318.5 Q360 327 320 333 Q270 340 229 351 Q188 362 160 383 Q132 404 119.5 436.5 Q107 469 116 520 Q122 557 143.5 591 Q165 625 201 651.5 Q237 678 287.5 694 Q338 710 401 710 Z " />
<glyph glyph-name="Scommaaccent" unicode="&#x218;" horiz-adv-x="632" d="M302 -52 L294 -96 Q287 -134 264.5 -161.5 Q242 -189 211 -209 L203 -187 Q251 -155 260 -104 L231 -104 L240 -52 L302 -52 Z M401 710 Q458 710 500.5 696.5 Q543 683 571 659.5 Q599 636 613 604.5 Q627 573 626 537 L555 537 Q555 561 546 583 Q537 605 517.5 621 Q498 637 466.5 646.5 Q435 656 390 656 Q342 656 306 645 Q270 634 245.5 615.5 Q221 597 207 573.5 Q193 550 189 525 Q183 489 193 466 Q203 443 225 428.5 Q247 414 278.5 406.5 Q310 399 346 394 Q397 387 442 375 Q487 363 519 341 Q551 319 566 284.5 Q581 250 572 198 Q564 156 541 118 Q518 80 479.5 51.5 Q441 23 389 6.5 Q337 -10 273 -10 Q217 -10 173.5 3.5 Q130 17 100.5 40.5 Q71 64 56 95.5 Q41 127 42 164 L113 164 Q113 139 123 117 Q133 95 154 78.5 Q175 62 207.5 52.5 Q240 43 285 43 Q333 43 370 55 Q407 67 433.5 87.5 Q460 108 476 134 Q492 160 497 189 Q504 228 492 253 Q480 278 455.5 294 Q431 310 395.5 318.5 Q360 327 320 333 Q270 340 229 351 Q188 362 160 383 Q132 404 119.5 436.5 Q107 469 116 520 Q122 557 143.5 591 Q165 625 201 651.5 Q237 678 287.5 694 Q338 710 401 710 Z " />
<glyph glyph-name="Tbar" unicode="&#x166;" horiz-adv-x="570" d="M212 0 L271 339 L163 339 L170 381 L279 381 L326 647 L85 647 L94 700 L643 700 L633 647 L393 647 L346 381 L442 381 L435 339 L339 339 L280 0 L212 0 Z " />
<glyph glyph-name="Tcaron" unicode="&#x164;" horiz-adv-x="570" d="M297 872 L379 766 L501 872 L538 864 L399 726 L347 726 L256 864 L297 872 Z M212 0 L326 647 L85 647 L94 700 L643 700 L633 647 L393 647 L280 0 L212 0 Z " />
<glyph glyph-name="&amp;#x162;" unicode="&#x162;" horiz-adv-x="570" d="M271 -52 L263 -96 Q256 -134 233.5 -161.5 Q211 -189 180 -209 L172 -187 Q220 -155 229 -104 L200 -104 L209 -52 L271 -52 Z M212 0 L326 647 L85 647 L94 700 L643 700 L633 647 L393 647 L280 0 L212 0 Z " />
<glyph glyph-name="&amp;#x21a;" unicode="&#x21a;" horiz-adv-x="570" d="M271 -52 L263 -96 Q256 -134 233.5 -161.5 Q211 -189 180 -209 L172 -187 Q220 -155 229 -104 L200 -104 L209 -52 L271 -52 Z M212 0 L326 647 L85 647 L94 700 L643 700 L633 647 L393 647 L280 0 L212 0 Z " />
<glyph glyph-name="Ubreve" unicode="&#x16c;" horiz-adv-x="684" d="M372 835 Q367 804 383 785 Q399 766 436 766 Q477 766 498.5 786 Q520 806 525 835 L559 831 Q551 785 516 757 Q481 729 429 729 Q378 729 353.5 757 Q329 785 337 831 L372 835 Z M612 700 L680 700 L589 182 Q581 135 554.5 99 Q528 63 489 39 Q450 15 401.5 2.5 Q353 -10 300 -10 Q247 -10 203 2.5 Q159 15 129 39 Q99 63 85.5 99 Q72 135 81 182 L172 700 L240 700 L151 196 Q138 121 181 84 Q224 47 311 47 Q398 47 454 84.5 Q510 122 523 196 L612 700 Z " />
<glyph glyph-name="Uhungarumlaut" unicode="&#x170;" horiz-adv-x="684" d="M623 864 L486 728 L451 728 L573 872 L623 864 Z M480 864 L344 728 L308 728 L430 872 L480 864 Z M612 700 L680 700 L589 182 Q581 135 554.5 99 Q528 63 489 39 Q450 15 401.5 2.5 Q353 -10 300 -10 Q247 -10 203 2.5 Q159 15 129 39 Q99 63 85.5 99 Q72 135 81 182 L172 700 L240 700 L151 196 Q138 121 181 84 Q224 47 311 47 Q398 47 454 84.5 Q510 122 523 196 L612 700 Z " />
<glyph glyph-name="Umacron" unicode="&#x16a;" horiz-adv-x="684" d="M315 751 L322 790 L561 790 L553 751 L315 751 Z M612 700 L680 700 L589 182 Q581 135 554.5 99 Q528 63 489 39 Q450 15 401.5 2.5 Q353 -10 300 -10 Q247 -10 203 2.5 Q159 15 129 39 Q99 63 85.5 99 Q72 135 81 182 L172 700 L240 700 L151 196 Q138 121 181 84 Q224 47 311 47 Q398 47 454 84.5 Q510 122 523 196 L612 700 Z " />
</font>
</svg>
