<?xml version="1.0" standalone="no"?>
<!DOCTYPE svg PUBLIC "-//W3C//DTD SVG 1.1//EN" "http://www.w3.org/Graphics/SVG/1.1/DTD/svg11.dtd" >
<svg>
<metadata>
Created by FontForge 20110222 at Sat Nov  1 08:32:52 2014
 By deploy user
Copyright (c) 2011 by Frantisek Storm. www.stormtype.com. All rights reserved.
</metadata>
<defs>
<font id="TriviaSansRegular-BoldItalic" horiz-adv-x="609" >
  <font-face 
    font-family="Trivia Sans Regular"
    font-weight="700"
    font-style="italic"
    font-stretch="normal"
    units-per-em="1000"
    panose-1="2 0 5 6 9 0 0 2 0 3"
    ascent="800"
    descent="-200"
    x-height="500"
    cap-height="700"
    bbox="-142 -254 1397 892"
    underline-thickness="50"
    underline-position="-100"
    slope="-12"
    unicode-range="U+0020-F6C3"
  />
<missing-glyph horiz-adv-x="213" 
 />
    <glyph glyph-name="f_f" unicode="ff" horiz-adv-x="646" 
d="M357 710q34 0 77 -8l-21 -119q-31 8 -59 8q-56 0 -67 -59l-5 -32h146l5 30q15 89 73 134.5t142 45.5q34 0 77 -8l-21 -119q-31 8 -59 8q-56 0 -67 -59l-5 -32h117l-20 -111h-117l-102 -589h-146l102 589h-145l-102 -589h-145l102 589h-70l20 111h70l5 30q15 89 73 134.5
t142 45.5z" />
    <glyph glyph-name="f_i" unicode="fi" horiz-adv-x="580" 
d="M357 710q21 0 49 -4l-21 -119q-18 4 -34 4q-30 0 -44.5 -14t-19.5 -45l-5 -32h283l-88 -500h-145l68 389h-138l-102 -589h-145l102 589h-70l20 111h70l5 30q15 89 73 134.5t142 45.5zM452 686h146l-22 -125h-146z" />
    <glyph glyph-name="f_j" unicode="fj" horiz-adv-x="580" 
d="M357 710q21 0 49 -4l-21 -119q-18 4 -34 4q-30 0 -44.5 -14t-19.5 -45l-5 -32h283l-92 -520q-17 -94 -92.5 -142t-163.5 -48l20 114q41 0 62.5 16.5t30.5 68.5l70 400h-138l-68 -389h-145l68 389h-70l20 111h70l5 30q15 89 73 134.5t142 45.5zM452 686h146l-22 -125h-146
z" />
    <glyph glyph-name="f_l" unicode="fl" horiz-adv-x="580" 
d="M393 710q98 0 205 -21l-121 -689h-145l102 583q-35 8 -68 8q-68 0 -79 -59l-5 -32h98l-21 -111h-97l-103 -589h-145l103 589h-70l20 111h70l5 30q15 88 84.5 134t166.5 46z" />
    <glyph glyph-name="f_f_i" unicode="ffi" horiz-adv-x="871" 
d="M357 710q34 0 77 -8l-21 -119q-31 8 -59 8q-56 0 -67 -59l-5 -32h146l5 30q15 89 73 134.5t142 45.5q21 0 49 -4l-21 -119q-20 4 -35 4q-29 0 -43.5 -14.5t-19.5 -44.5l-5 -32h283l-88 -500h-145l67 389h-137l-102 -589h-146l102 589h-145l-102 -589h-145l102 589h-70
l20 111h70l5 30q15 89 73 134.5t142 45.5zM867 561h-146l22 125h146z" />
    <glyph glyph-name="f_f_j" unicode="ffj" horiz-adv-x="871" 
d="M357 710q34 0 77 -8l-21 -119q-31 8 -59 8q-56 0 -67 -59l-5 -32h146l5 30q15 89 73 134.5t142 45.5q21 0 49 -4l-21 -119q-20 4 -35 4q-29 0 -43.5 -14.5t-19.5 -44.5l-5 -32h283l-92 -520q-11 -64 -54 -108.5t-95 -63t-108 -18.5l21 114q41 0 62 16.5t30 68.5l70 400
h-137l-68 -389h-145l67 389h-145l-101 -589h-146l102 589h-70l20 111h70l5 30q15 89 73 134.5t142 45.5zM743 686h146l-22 -125h-146z" />
    <glyph glyph-name="f_f_k" unicode="ffk" horiz-adv-x="1171" 
d="M357 710q34 0 77 -8l-21 -119q-31 8 -59 8q-56 0 -67 -59l-5 -32h146l5 30q15 88 84.5 134t166.5 46q105 0 212 -21l-120 -689h-146l102 583q-34 8 -75 8q-68 0 -79 -59l-5 -32h101l-20 -111h-101l-102 -589h-145l101 589h-145l-101 -589h-146l102 589h-70l20 111h70
l5 30q15 89 73 134.5t142 45.5zM1031 500h171l-216 -222l142 -278h-171l-129 273z" />
    <glyph glyph-name="f_f_l" unicode="ffl" horiz-adv-x="871" 
d="M357 710q34 0 77 -8l-21 -119q-31 8 -59 8q-56 0 -67 -59l-5 -32h146l5 30q15 88 84.5 134t166.5 46t204 -21l-120 -689h-145l102 583q-35 8 -65 8q-71 0 -82 -59l-5 -32h97l-20 -111h-97l-102 -589h-146l102 589h-145l-102 -589h-145l102 589h-70l20 111h70l5 30
q15 89 73 134.5t142 45.5z" />
    <glyph glyph-name="T_h" unicode="Th" horiz-adv-x="1120" 
d="M93 700h760l-47 -267q57 77 153 77q72 0 103 -45t17 -126l-59 -339h-146l54 308q7 40 -3.5 58t-44.5 18q-40 0 -66.5 -28t-35.5 -82l-48 -274h-145l101 576h-234l-102 -576h-157l101 576h-222z" />
    <glyph glyph-name=".notdef" horiz-adv-x="213" 
 />
    <glyph glyph-name=".null" horiz-adv-x="0" 
 />
    <glyph glyph-name="nonmarkingreturn" horiz-adv-x="333" 
 />
    <glyph glyph-name="space" unicode=" " horiz-adv-x="213" 
 />
    <glyph glyph-name="exclam" unicode="!" horiz-adv-x="352" 
d="M173 700h172l-106 -500h-137zM90 139h140l-24 -139h-140z" />
    <glyph glyph-name="quotedbl" unicode="&#x22;" horiz-adv-x="402" 
d="M190 471h-79l9 256h149zM378 471h-79l9 256h149z" />
    <glyph glyph-name="numbersign" unicode="#" horiz-adv-x="689" 
d="M246 0h-134l30 174h-85l20 106h84l24 139h-84l18 106h85l31 175h134l-31 -175h118l31 175h135l-31 -175h84l-19 -106h-84l-24 -139h84l-20 -106h-83l-30 -174h-135l30 174h-118zM319 419l-24 -139h118l24 139h-118z" />
    <glyph glyph-name="dollar" unicode="$" horiz-adv-x="614" 
d="M292 -88h-85l14 80q-106 10 -157.5 71t-39.5 155h147q-7 -83 72 -100l31 175q-49 9 -80 19t-65 31t-46 58t-3 89q16 86 86 146t181 71l13 74h85l-13 -73q104 -9 153.5 -69t42.5 -154h-147q7 82 -72 95l-29 -165q41 -7 67 -13.5t59 -21t50.5 -33.5t27 -50.5t2.5 -72.5
q-17 -94 -91.5 -157t-188.5 -74zM432 199q6 31 -14 48.5t-62 28.5l-28 -160q91 13 104 83zM229 502q-5 -27 13 -43t56 -27l26 149q-84 -13 -95 -79z" />
    <glyph glyph-name="percent" unicode="%" horiz-adv-x="898" 
d="M284 603q-62 0 -79 -92q-16 -92 47 -92t79 91q16 93 -47 93zM303 710q81 0 120 -54.5t22 -144.5q-16 -90 -73.5 -145.5t-137.5 -55.5q-81 0 -119.5 54.5t-23.5 144.5q16 89 74 145t138 56zM730 700h159l-678 -700h-158zM687 283q-62 0 -79 -92q-15 -92 47 -92q63 0 80 91
q15 93 -48 93zM706 390q81 0 120 -54.5t23 -144.5q-17 -90 -74 -145.5t-137 -55.5q-81 0 -120 54.5t-23 144.5q15 89 73 145t138 56z" />
    <glyph glyph-name="ampersand" unicode="&#x26;" horiz-adv-x="796" 
d="M468 710q116 0 167 -39.5t39 -108.5q-5 -31 -30.5 -59.5t-62.5 -42.5h231q-17 -92 -53 -170t-83.5 -132.5t-104 -93t-114 -56.5t-114.5 -18q-154 0 -231 94t-50 248q30 165 144.5 271.5t261.5 106.5zM366 129q89 0 163.5 60.5t93.5 163.5h-394q-5 -14 -9 -40
q-16 -84 25.5 -134t120.5 -50zM437 581q-114 0 -170 -121h130q92 0 105 63q4 26 -11.5 42t-53.5 16z" />
    <glyph glyph-name="quotesingle" unicode="'" horiz-adv-x="214" 
d="M190 471h-79l9 256h149z" />
    <glyph glyph-name="parenleft" unicode="(" horiz-adv-x="377" 
d="M446 710l-17 -96q-133 -10 -196 -365t68 -363l-18 -96q-127 4 -187.5 124.5t-23.5 334.5q38 214 141.5 335t232.5 126z" />
    <glyph glyph-name="parenright" unicode=")" horiz-adv-x="377" 
d="M101 710q127 -5 187.5 -125.5t23.5 -333.5q-38 -214 -141.5 -335.5t-231.5 -125.5l16 96q133 8 196 365q62 353 -67 363z" />
    <glyph glyph-name="asterisk" unicode="*" horiz-adv-x="506" 
d="M277 700h115l-30 -124l129 45l16 -107l-130 -30l62 -106l-103 -66l-47 109l-90 -109l-79 66l103 106l-122 30l53 107l111 -45z" />
    <glyph glyph-name="plus" unicode="+" 
d="M426 577l-34 -195h196l-22 -121h-196l-34 -196h-122l35 196h-195l22 121h194l35 195h121z" />
    <glyph glyph-name="comma" unicode="," horiz-adv-x="262" 
d="M-33 -147l97 297h151l-154 -297h-94z" />
    <glyph glyph-name="hyphen" unicode="-" horiz-adv-x="355" 
d="M310 261h-255l22 121h255z" />
    <glyph glyph-name="hyphen" unicode="&#xad;" horiz-adv-x="355" 
d="M310 261h-255l22 121h255z" />
    <glyph glyph-name="period" unicode="." horiz-adv-x="258" 
d="M43 148h142l-26 -148h-141z" />
    <glyph glyph-name="slash" unicode="/" horiz-adv-x="517" 
d="M437 700h151l-465 -700h-151z" />
    <glyph glyph-name="zero" unicode="0" 
d="M364 568q-62 0 -97 -54t-55 -164q-21 -104 -4 -161t79 -57t97 54t55 164q21 104 4 161t-79 57zM389 710q120 0 181 -91t29 -269q-31 -178 -124 -269t-213 -91q-119 0 -180 91t-30 269t124.5 269t212.5 91z" />
    <glyph glyph-name="one" unicode="1" 
d="M503 0h-389l22 124h131l75 432l-161 -89l-42 109l229 124h150l-101 -576h107z" />
    <glyph glyph-name="two" unicode="2" 
d="M517 0h-502l21 119q154 91 242.5 157t123.5 112t44 95q19 99 -80 99q-57 0 -86.5 -24.5t-44.5 -81.5h-138q21 110 105 172t197 62q117 0 170 -60t37 -155q-18 -101 -103.5 -181.5t-277.5 -189.5h314z" />
    <glyph glyph-name="three" unicode="3" 
d="M266 302l20 112q84 0 118 23t43 72q7 42 -11 63t-72 21q-56 0 -85 -22t-44 -74h-140q20 99 103.5 156t194.5 57q116 0 173.5 -50.5t42.5 -133.5q-25 -142 -197 -167q175 -14 149 -164q-16 -93 -100 -149t-203 -56q-110 0 -173 58t-48 156h143q-3 -52 20.5 -74.5
t81.5 -22.5q51 0 83 25t40 68q10 53 -19 77.5t-120 24.5z" />
    <glyph glyph-name="four" unicode="4" 
d="M448 0h-151l30 174h-302l22 123l342 403h182l-71 -403h94l-22 -123h-95zM350 297l44 252l-215 -252h171z" />
    <glyph glyph-name="five" unicode="5" 
d="M176 700h427l-21 -124h-301l-29 -126q68 10 110 10q106 0 166.5 -59.5t42.5 -163.5q-19 -111 -108 -179t-209 -68q-111 0 -168 56t-42 159h135q-5 -53 18.5 -76t81.5 -23q52 0 88.5 32t46.5 87q10 59 -17.5 88.5t-101.5 29.5q-116 0 -211 -16z" />
    <glyph glyph-name="six" unicode="6" 
d="M415 710q100 0 158 -58t44 -144h-139q1 87 -85 87q-130 0 -176 -206q73 71 174 71q107 0 153.5 -63t30.5 -153q-19 -104 -100 -179t-204 -75q-133 0 -189 92t-26 259q29 167 124.5 268t234.5 101zM203 288q-19 -171 98 -171q51 0 82.5 31t40.5 85q10 52 -10 84t-76 32
q-76 0 -135 -61z" />
    <glyph glyph-name="seven" unicode="7" 
d="M273 0h-165l355 576h-346l22 124h497l-22 -124z" />
    <glyph glyph-name="eight" unicode="8" 
d="M368 588q-97 0 -111 -84q-16 -90 80 -90t112 90q6 38 -13 61t-68 23zM317 303q-112 0 -128 -94q-8 -44 15.5 -69t79.5 -25q55 0 87.5 25t40.5 69q9 50 -17.5 72t-77.5 22zM389 710q118 0 172 -53.5t39 -136.5q-10 -61 -55 -103t-116 -54q70 -7 104.5 -55.5t21.5 -121.5
q-16 -92 -91 -144t-202 -52t-184 52t-41 144q13 73 64.5 119.5t123.5 53.5q-63 14 -94.5 57.5t-20.5 104.5q14 82 87.5 135.5t191.5 53.5z" />
    <glyph glyph-name="nine" unicode="9" 
d="M381 710q132 0 187.5 -92t26.5 -259q-30 -168 -125 -268.5t-234 -100.5q-103 0 -160 54t-43 149h137q-4 -44 20 -66t68 -22q129 0 175 206q-71 -71 -174 -71q-107 0 -153 63t-30 153q19 103 100.5 178.5t204.5 75.5zM350 583q-52 0 -83.5 -31t-40.5 -85q-20 -116 87 -116
q76 0 135 61q19 171 -98 171z" />
    <glyph glyph-name="colon" unicode=":" horiz-adv-x="258" 
d="M43 148h142l-26 -148h-141zM106 500h141l-26 -148h-142z" />
    <glyph glyph-name="semicolon" unicode=";" horiz-adv-x="263" 
d="M106 500h141l-26 -148h-142zM-73 -147l97 297h151l-154 -297h-94z" />
    <glyph glyph-name="less" unicode="&#x3c;" 
d="M602 510l-373 -186l308 -186l-77 -107l-397 246l16 94l484 245z" />
    <glyph glyph-name="equal" unicode="=" 
d="M544 138h-512l22 121h512zM588 385h-512l21 121h512z" />
    <glyph glyph-name="greater" unicode="&#x3e;" horiz-adv-x="593" 
d="M39 138l373 186l-308 186l77 106l397 -245l-17 -94l-483 -246z" />
    <glyph glyph-name="question" unicode="?" horiz-adv-x="577" 
d="M379 710q112 0 162.5 -55t36.5 -140q-9 -48 -37 -89t-63.5 -68.5t-70 -52.5t-60.5 -53t-31 -57h-137q8 46 35.5 86t61 68t66.5 53.5t58.5 54t30.5 58.5q5 31 -13.5 51t-63.5 20q-49 0 -74.5 -22.5t-38.5 -71.5h-144q28 103 99.5 160.5t182.5 57.5zM168 139h140l-24 -139
h-140z" />
    <glyph glyph-name="at" unicode="@" horiz-adv-x="867" 
d="M440 364q-35 0 -60.5 -26t-36 -60.5t-10.5 -70.5q0 -66 60 -66q52 0 83 46t31 103q0 74 -67 74zM487 609q162 0 245 -80.5t83 -202.5q0 -118 -68 -204.5t-177 -86.5q-83 0 -83 67q0 15 2 26q-42 -81 -142 -81q-60 0 -99 38t-39 103q0 64 24 125t74.5 104.5t116.5 43.5
q43 0 70.5 -21t36.5 -55l13 57h103l-51 -251q-4 -16 -4 -29q0 -23 21 -23q35 0 63 55.5t28 127.5q0 87 -53 141.5t-167 54.5q-78 0 -140 -28.5t-100 -75t-57.5 -103t-19.5 -117.5q0 -94 53 -150t155 -56q37 0 85 14l2 -98q-53 -15 -104 -15q-145 0 -225.5 87t-80.5 222
q0 62 18 121.5t55 112t88 92t121.5 62.5t152.5 23z" />
    <glyph glyph-name="A" unicode="A" horiz-adv-x="668" 
d="M303 700h230l109 -700h-174l-24 172h-248l-84 -172h-166zM396 597q-30 -75 -46 -107l-97 -198h176l-27 200q-6 58 -6 105z" />
    <glyph glyph-name="B" unicode="B" horiz-adv-x="686" 
d="M268 416h124q96 0 111 83q7 39 -12 58t-71 19h-124zM375 0h-338l123 700h327q104 0 151 -47.5t34 -121.5q-25 -134 -173 -162q80 -12 113 -58.5t21 -118.5q-15 -84 -84.5 -138t-173.5 -54zM216 124h132q115 0 131 90q7 44 -16 69t-81 25h-134z" />
    <glyph glyph-name="C" unicode="C" horiz-adv-x="720" 
d="M529 233h162q-29 -109 -121.5 -176t-222.5 -67q-151 0 -225.5 102t-47.5 258q28 157 138.5 258.5t261.5 101.5q130 0 199.5 -67t58.5 -176h-162q2 50 -28.5 77t-92.5 27q-84 0 -135 -59t-69 -162q-19 -103 11.5 -162t114.5 -59q125 0 158 104z" />
    <glyph glyph-name="D" unicode="D" horiz-adv-x="741" 
d="M355 0h-318l123 700h310q141 0 205 -92.5t35 -256.5t-123.5 -257.5t-231.5 -93.5zM216 124h124q86 0 135 53t70 173q21 119 -11 172.5t-118 53.5h-120z" />
    <glyph glyph-name="E" unicode="E" horiz-adv-x="607" 
d="M529 0h-492l123 700h484l-22 -124h-326l-27 -153h264l-22 -122h-263l-32 -177h335z" />
    <glyph glyph-name="F" unicode="F" horiz-adv-x="568" 
d="M160 700h485l-22 -124h-327l-31 -177h265l-22 -121h-264l-49 -278h-158z" />
    <glyph glyph-name="G" unicode="G" horiz-adv-x="771" 
d="M477 710q129 0 197.5 -66.5t57.5 -175.5h-161q2 50 -28.5 76.5t-92.5 26.5q-84 0 -135.5 -59t-69.5 -162q-39 -223 122 -223q72 0 119 38t60 108h-161l20 116h318l-68 -389h-149l20 116q-34 -61 -84 -93.5t-132 -32.5q-55 0 -102.5 22t-84 66.5t-49.5 112t1 159.5
q27 156 138.5 258t263.5 102z" />
    <glyph glyph-name="H" unicode="H" horiz-adv-x="715" 
d="M597 0h-157l53 300h-245l-53 -300h-158l123 700h158l-49 -277h245l49 277h157z" />
    <glyph glyph-name="I" unicode="I" horiz-adv-x="312" 
d="M195 0h-158l123 700h158z" />
    <glyph glyph-name="J" unicode="J" horiz-adv-x="582" 
d="M434 700h158l-84 -475q-19 -109 -103 -172t-207 -63q-106 0 -160.5 59t-49.5 160h163q-5 -37 12.5 -60.5t64.5 -23.5q56 0 84 22.5t37 74.5z" />
    <glyph glyph-name="K" unicode="K" horiz-adv-x="692" 
d="M195 0h-158l123 700h158zM649 0h-189l-196 369l305 331h183l-304 -322z" />
    <glyph glyph-name="L" unicode="L" horiz-adv-x="549" 
d="M499 0h-462l123 700h158l-102 -576h305z" />
    <glyph glyph-name="M" unicode="M" horiz-adv-x="918" 
d="M160 700h246l49 -406q3 -41 -1 -107q14 54 36 107l190 406h244l-123 -700h-157l82 465q13 73 22 112q-25 -73 -39 -104l-226 -473h-128l-60 473q-3 40 -1 104q-2 -17 -9 -60.5t-8 -50.5l-82 -466h-158z" />
    <glyph glyph-name="N" unicode="N" horiz-adv-x="735" 
d="M160 700h223l106 -430q10 -50 10 -92q5 53 13 99l75 423h154l-123 -700h-205l-115 471q-7 27 -9 88q-4 -46 -11 -89l-83 -470h-158z" />
    <glyph glyph-name="O" unicode="O" horiz-adv-x="777" 
d="M449 571q-85 0 -135.5 -58.5t-68.5 -162.5q-19 -104 11 -162.5t115 -58.5q83 0 134.5 59t69.5 162t-12.5 162t-113.5 59zM474 710q151 0 224.5 -101.5t45.5 -258.5t-137 -258.5t-260 -101.5q-152 0 -226 101.5t-47 258.5q28 157 138 258.5t262 101.5z" />
    <glyph glyph-name="P" unicode="P" horiz-adv-x="653" 
d="M490 700q104 0 151 -65t30 -162q-17 -101 -88.5 -166t-182.5 -65h-163l-42 -242h-158l123 700h330zM428 576h-132l-39 -221h132q100 0 120 114q18 107 -81 107z" />
    <glyph glyph-name="Q" unicode="Q" horiz-adv-x="777" 
d="M474 710q151 0 224.5 -101.5t45.5 -258.5q-16 -89 -60.5 -163.5t-110.5 -123.5l95 -167h-167l-57 106q-46 -12 -97 -12q-152 0 -226 101.5t-47 258.5q28 157 138 258.5t262 101.5zM324 228h156l24 -42q52 57 71 164q18 103 -12.5 162t-113.5 59q-85 0 -135.5 -58.5
t-68.5 -162.5q-19 -104 11 -162.5t115 -58.5h6z" />
    <glyph glyph-name="R" unicode="R" horiz-adv-x="687" 
d="M597 0h-157q14 83 15.5 137t-10.5 82.5t-32 39.5t-53 11h-118l-47 -270h-158l123 700h338q108 0 153 -53.5t29 -138.5q-13 -77 -63.5 -123.5t-133.5 -53.5q38 -5 63.5 -21t45.5 -53t19.5 -99t-14.5 -158zM263 391h136q97 0 114 95q8 45 -10.5 67.5t-70.5 22.5h-136z" />
    <glyph glyph-name="S" unicode="S" horiz-adv-x="679" 
d="M428 710q129 0 193.5 -62t51.5 -163h-163q5 50 -18 75t-90 25q-112 0 -127 -80q-6 -39 20 -55.5t95 -24.5q132 -13 195 -60.5t46 -140.5q-19 -105 -109.5 -169.5t-228.5 -64.5q-129 0 -195 63t-53 165h164q-6 -50 19 -77t93 -27q117 0 132 86q7 42 -20 58.5t-102 26.5
q-135 16 -190 62.5t-38 143.5q17 95 103.5 157t221.5 62z" />
    <glyph glyph-name="T" unicode="T" horiz-adv-x="623" 
d="M350 0h-157l101 576h-222l21 124h602l-21 -124h-222z" />
    <glyph glyph-name="U" unicode="U" horiz-adv-x="730" 
d="M507 253l78 447h159l-84 -477q-20 -112 -119 -172.5t-222 -60.5q-122 0 -196.5 60t-54.5 173l84 477h158l-79 -447q-13 -69 15.5 -100t100.5 -31t109.5 31t50.5 100z" />
    <glyph glyph-name="V" unicode="V" horiz-adv-x="658" 
d="M69 700h172l70 -497q4 -40 4 -65q14 38 28 65l245 497h167l-357 -700h-218z" />
    <glyph glyph-name="W" unicode="W" horiz-adv-x="983" 
d="M95 700h167l28 -454q0 -67 -2 -86q19 62 30 86l187 454h143l29 -454q2 -41 -1 -86q16 54 29 86l192 454h157l-306 -700h-194l-23 373q-2 24 3 86q-14 -49 -27 -86l-154 -373h-194z" />
    <glyph glyph-name="X" unicode="X" horiz-adv-x="701" 
d="M83 700h198l90 -179q15 -33 23 -71q20 35 49 72l153 178h184l-309 -345l194 -355h-198l-95 185q-18 40 -23 73q-20 -37 -52 -74l-157 -184h-183l314 352z" />
    <glyph glyph-name="Y" unicode="Y" horiz-adv-x="671" 
d="M375 0h-158l52 297l-198 403h185l121 -269l217 269h172l-339 -403z" />
    <glyph glyph-name="Z" unicode="Z" horiz-adv-x="631" 
d="M556 0h-556l21 124l444 452h-355l22 124h543l-21 -124l-444 -452h367z" />
    <glyph glyph-name="bracketleft" unicode="[" horiz-adv-x="366" 
d="M269 -211h-263l161 911h263l-15 -86h-126l-130 -739h126z" />
    <glyph glyph-name="backslash" unicode="\" horiz-adv-x="496" 
d="M95 700h151l219 -700h-152z" />
    <glyph glyph-name="bracketright" unicode="]" horiz-adv-x="366" 
d="M102 700h263l-161 -911h-262l15 86h125l130 739h-125z" />
    <glyph glyph-name="asciicircum" unicode="^" 
d="M389 711l212 -259l-101 -86l-142 173l-202 -172l-71 86z" />
    <glyph glyph-name="underscore" unicode="_" 
d="M496 -174h-525l21 122h525z" />
    <glyph glyph-name="grave" unicode="`" horiz-adv-x="330" 
d="M123 702l152 16l72 -174h-98z" />
    <glyph glyph-name="a" unicode="a" horiz-adv-x="572" 
d="M284 510q91 0 119 -93l15 83h145l-87 -500h-145l14 82q-63 -92 -152 -92q-91 0 -135.5 72t-23.5 188q20 117 89.5 188.5t160.5 71.5zM298 387q-89 0 -114 -137t66 -137q51 0 82 37t42 98q25 139 -76 139z" />
    <glyph glyph-name="b" unicode="b" horiz-adv-x="572" 
d="M137 700h145l-50 -283q61 93 154 93q91 0 134.5 -71.5t23.5 -188.5q-21 -117 -89.5 -188.5t-159.5 -71.5q-92 0 -121 92l-15 -82h-145zM327 387q-99 0 -124 -139q-11 -61 7 -98t69 -37q90 0 115 137t-67 137z" />
    <glyph glyph-name="c" unicode="c" horiz-adv-x="517" 
d="M321 510q92 0 145.5 -56.5t40.5 -144.5h-146q4 35 -12 57.5t-54 22.5q-93 0 -117 -139q-26 -139 68 -139q38 0 62 22.5t33 57.5h145q-18 -88 -91 -144.5t-165 -56.5q-115 0 -166 70.5t-30 189.5t96.5 189.5t190.5 70.5z" />
    <glyph glyph-name="d" unicode="d" horiz-adv-x="572" 
d="M284 510q91 0 119 -93l51 283h145l-123 -700h-145l14 82q-63 -92 -152 -92q-91 0 -135.5 72t-23.5 188q20 117 89.5 188.5t160.5 71.5zM298 387q-89 0 -114 -137t66 -137q51 0 82 37t42 98q25 139 -76 139z" />
    <glyph glyph-name="e" unicode="e" horiz-adv-x="526" 
d="M335 510q89 0 136 -38.5t47 -93.5q0 -73 -61 -118t-196 -45h-89q-6 -56 11.5 -81.5t63.5 -25.5q33 0 57 16t31 44h145q-19 -76 -90.5 -127t-161.5 -51q-111 0 -163.5 70.5t-31.5 190.5q20 116 104 187.5t198 71.5zM310 401q-81 0 -116 -88h74q100 0 100 49q0 16 -14 27.5
t-44 11.5z" />
    <glyph glyph-name="f" unicode="f" horiz-adv-x="355" 
d="M357 710q34 0 77 -8l-21 -119q-31 8 -59 8q-56 0 -67 -59l-5 -32h117l-20 -111h-117l-103 -589h-145l103 589h-70l20 111h70l5 30q15 89 73 134.5t142 45.5z" />
    <glyph glyph-name="g" unicode="g" horiz-adv-x="572" 
d="M288 510q52 0 79.5 -26t35.5 -67l16 83h145l-90 -509q-19 -105 -89 -153t-200 -48q-104 0 -155.5 47.5t-38.5 133.5h156q-8 -68 68 -68q51 0 78 19t36 69l16 97q-54 -89 -158 -89q-91 0 -132.5 67.5t-20.5 184.5q20 114 85.5 186.5t168.5 72.5zM297 387q-91 0 -114 -136
q-24 -134 69 -134q98 0 122 132q25 138 -77 138z" />
    <glyph glyph-name="h" unicode="h" horiz-adv-x="565" 
d="M145 700h145l-47 -267q57 77 157 77q73 0 105.5 -45t18.5 -126l-59 -339h-146l54 308q7 40 -3 58t-45 18q-40 0 -70.5 -28.5t-39.5 -81.5l-48 -274h-145z" />
    <glyph glyph-name="i" unicode="i" horiz-adv-x="269" 
d="M142 686h146l-22 -125h-146zM110 500h145l-88 -500h-145z" />
    <glyph glyph-name="j" unicode="j" horiz-adv-x="269" 
d="M110 500h145l-90 -512q-17 -94 -94.5 -146.5t-163.5 -52.5l21 122q41 0 62.5 17t30.5 69zM142 686h146l-22 -125h-146z" />
    <glyph glyph-name="k" unicode="k" horiz-adv-x="548" 
d="M167 0h-145l123 700h145zM520 0h-171l-129 273l205 227h169l-211 -222z" />
    <glyph glyph-name="l" unicode="l" horiz-adv-x="269" 
d="M167 0h-145l123 700h145z" />
    <glyph glyph-name="m" unicode="m" horiz-adv-x="851" 
d="M110 500h145l-13 -72q60 82 160 82q48 0 76.5 -27.5t33.5 -72.5q68 100 178 100q71 0 103 -45t18 -126l-60 -339h-145l53 305q7 41 -2.5 60t-42.5 19q-38 0 -67.5 -28t-39.5 -84l-48 -272h-145l53 305q7 41 -2.5 60t-41.5 19q-39 0 -69 -29t-40 -86l-47 -269h-145z" />
    <glyph glyph-name="n" unicode="n" horiz-adv-x="565" 
d="M110 500h145l-12 -67q57 77 153 77q73 0 107.5 -45.5t20.5 -125.5l-59 -339h-146l54 308q7 40 -3.5 58t-44.5 18q-40 0 -70.5 -28.5t-39.5 -81.5l-48 -274h-145z" />
    <glyph glyph-name="o" unicode="o" horiz-adv-x="530" 
d="M294 389q-91 0 -115 -138q-24 -140 66 -140q88 0 114 140q24 138 -65 138zM315 510q105 0 158 -69t32 -190q-22 -122 -99 -191.5t-182 -69.5q-107 0 -159.5 69.5t-30.5 191.5q21 121 97.5 190t183.5 69z" />
    <glyph glyph-name="p" unicode="p" horiz-adv-x="572" 
d="M388 510q90 0 133 -71.5t23 -188.5q-21 -117 -89 -188.5t-158 -71.5q-96 0 -123 92l-51 -282h-145l124 700h145l-15 -83q61 93 156 93zM327 387q-99 0 -124 -139q-11 -61 7 -98t69 -37q90 0 115 137t-67 137z" />
    <glyph glyph-name="q" unicode="q" horiz-adv-x="572" 
d="M280 510q95 0 123 -93l16 83h145l-124 -700h-145l50 282q-62 -92 -156 -92q-90 0 -133 71.5t-22 188.5q20 117 88 188.5t158 71.5zM294 387q-46 0 -72 -34t-38 -103t2 -103t60 -34q52 0 84.5 37t43.5 98q12 67 -9 103t-71 36z" />
    <glyph glyph-name="r" unicode="r" horiz-adv-x="365" 
d="M110 500h145l-18 -101q47 111 172 111l-24 -140q-10 4 -32 4q-51 0 -92 -36.5t-53 -105.5l-41 -232h-145z" />
    <glyph glyph-name="s" unicode="s" horiz-adv-x="503" 
d="M300 510q105 0 152.5 -44.5t38.5 -119.5h-136q5 26 -13.5 42.5t-54.5 16.5q-75 0 -82 -46q-4 -21 13.5 -31t55.5 -15q35 -3 59 -7t54 -14.5t47 -26t26 -43t3 -63.5q-14 -78 -76 -123.5t-178 -45.5q-105 0 -152.5 45.5t-37.5 120.5h136q-4 -27 15.5 -43t60.5 -16
q81 0 87 44q5 24 -12.5 34.5t-54.5 14.5q-40 5 -63.5 9t-54.5 14.5t-46 26t-23.5 43t-1.5 64.5q12 70 77 116.5t161 46.5z" />
    <glyph glyph-name="t" unicode="t" horiz-adv-x="359" 
d="M156 618h145l-20 -118h117l-20 -111h-117l-37 -207q-7 -39 5 -54.5t45 -15.5q25 0 56 8l-20 -121q-44 -9 -81 -9q-85 0 -126.5 42t-26.5 131l40 226h-70l20 111h70z" />
    <glyph glyph-name="u" unicode="u" horiz-adv-x="565" 
d="M108 500h146l-55 -308q-7 -40 3.5 -58t44.5 -18q41 0 70.5 28.5t38.5 81.5l49 274h145l-88 -500h-145l12 67q-59 -77 -153 -77q-73 0 -108 45.5t-21 125.5z" />
    <glyph glyph-name="v" unicode="v" horiz-adv-x="497" 
d="M43 500h152l35 -287q3 -18 3.5 -47t-1.5 -44q14 52 33 91l142 287h143l-256 -500h-173z" />
    <glyph glyph-name="w" unicode="w" horiz-adv-x="773" 
d="M46 500h146l22 -289q2 -20 0 -83q22 69 28 83l126 289h137l24 -289q2 -21 0 -83q22 69 28 83l125 289h141l-233 -500h-171l-17 237q-3 40 1 98q-14 -56 -34 -98l-102 -237h-165z" />
    <glyph glyph-name="x" unicode="x" horiz-adv-x="539" 
d="M61 500h161l54 -105q5 -11 15 -43q19 32 30 43l90 105h153l-212 -239l144 -261h-172l-57 111q-11 23 -16 46q-20 -33 -32 -47l-95 -110h-162l229 254z" />
    <glyph glyph-name="y" unicode="y" horiz-adv-x="497" 
d="M43 500h152l35 -289q5 -29 1 -90q26 75 34 90l142 289h143l-267 -520q-33 -65 -65.5 -104t-73.5 -57.5t-78 -23.5t-100 -5l22 126q93 0 119 37l18 28z" />
    <glyph glyph-name="z" unicode="z" horiz-adv-x="461" 
d="M395 0h-408l19 112l284 277h-221l20 111h390l-20 -111l-283 -277h238z" />
    <glyph glyph-name="braceleft" unicode="{" horiz-adv-x="413" 
d="M460 710l-9 -97q-61 0 -86 -28.5t-35 -84.5q-4 -23 -6 -69t-6 -69q-17 -95 -104 -109q83 -17 65 -118q-4 -23 -17 -67.5t-17 -66.5q-10 -58 4 -87t73 -29l-25 -96q-120 0 -165 54t-31 135q3 19 13.5 63t13.5 61q15 91 -43 91h-34l20 114h34q58 0 74 90q3 18 8.5 63
t8.5 62q15 80 79 134t185 54z" />
    <glyph glyph-name="bar" unicode="|" horiz-adv-x="359" 
d="M177 -211h-151l161 911h151z" />
    <glyph glyph-name="braceright" unicode="}" horiz-adv-x="413" 
d="M98 614l25 96q120 0 165 -54.5t31 -134.5q-3 -19 -13.5 -63t-13.5 -61q-16 -91 43 -91h34l-21 -114h-34q-58 0 -74 -91q-3 -16 -8 -60t-9 -64q-14 -80 -78 -134t-185 -54l9 96q61 0 85.5 28.5t34.5 84.5q4 23 6 69t7 69q8 47 35 75t68 35q-82 16 -65 118q4 22 17 66.5
t17 67.5q5 34 4.5 59.5t-20 41t-60.5 15.5z" />
    <glyph glyph-name="asciitilde" unicode="~" 
d="M279 637q42 0 77 -17.5t60.5 -34.5t45.5 -17q45 0 68 54l80 -50q-25 -66 -71 -100t-101 -34q-48 0 -100.5 34.5t-83.5 34.5q-24 0 -39 -12t-28 -42l-80 50q25 66 71 100t101 34z" />
    <glyph glyph-name="nbspace" unicode="&#xa0;" horiz-adv-x="213" 
 />
    <glyph glyph-name="exclamdown" unicode="&#xa1;" horiz-adv-x="352" 
d="M120 300h137l-71 -500h-172zM154 500h140l-24 -139h-141z" />
    <glyph glyph-name="cent" unicode="&#xa2;" horiz-adv-x="595" 
d="M299 9h-71l16 92q-93 12 -132.5 78.5t-19.5 178.5q18 109 83.5 176.5t160.5 80.5l14 79h71l-14 -78q78 -8 120.5 -60t37.5 -138h-134q2 63 -45 79l-50 -279q49 16 74 80h134q-25 -87 -86 -139t-143 -60zM225 358q-21 -115 40 -139l50 277q-72 -22 -90 -138z" />
    <glyph glyph-name="sterling" unicode="&#xa3;" horiz-adv-x="614" 
d="M433 282h-180q-10 -92 -71 -170h341l-19 -112h-487l19 112q65 81 67 170h-71l13 78h52q-6 70 3 118q17 98 99 165t210 67q112 0 167.5 -57t47.5 -153h-147q2 43 -18.5 63.5t-75.5 20.5q-102 0 -120 -96q-7 -40 -7 -128h190z" />
    <glyph glyph-name="currency" unicode="&#xa4;" horiz-adv-x="733" 
d="M431 599q78 0 125 -39l141 121l71 -86l-151 -129q12 -50 1 -122q-14 -71 -44 -124l105 -128l-101 -86l-99 119q-60 -37 -137 -37q-80 0 -126 38l-140 -119l-70 86l149 127q-12 55 1 124q11 72 43 123l-104 127l100 86l97 -119q63 38 139 38zM409 473q-89 0 -112 -129
q-24 -129 67 -129q89 0 113 129q23 129 -68 129z" />
    <glyph glyph-name="yen" unicode="&#xa5;" horiz-adv-x="605" 
d="M555 292h-162l-15 -83h97l-14 -78h-96l-23 -131h-158l23 131h-97l15 78h95l15 83h-162l14 79h117l-143 329h184l100 -261l194 261h171l-258 -329h117z" />
    <glyph glyph-name="brokenbar" unicode="&#xa6;" horiz-adv-x="359" 
d="M281 378h-151l57 322h151zM177 -211h-151l57 322h151z" />
    <glyph glyph-name="section" unicode="&#xa7;" horiz-adv-x="617" 
d="M391 710q123 0 182.5 -61t51.5 -164h-152q3 48 -21.5 74.5t-84.5 26.5q-51 0 -74 -16t-30 -47q-3 -20 15.5 -34t50 -23t70.5 -18.5t76.5 -25t67.5 -37t44 -60t5 -89.5q-15 -83 -91 -139q32 -43 21 -108q-15 -84 -87.5 -136t-186.5 -52q-123 0 -183 61.5t-51 164.5h152
q-3 -49 21 -75t84 -26q52 0 75 16t29 47q3 20 -16 34t-51.5 23t-72 18.5t-78 24.5t-68.5 37t-44.5 60.5t-5.5 89.5q15 86 95 142q-28 41 -17 105q14 83 87 135t187 52zM453 213q6 34 -17.5 57t-56.5 33.5t-86.5 26.5t-83.5 30q-25 -29 -31 -62t17.5 -56.5t56 -34t87 -26
t84.5 -28.5q24 28 30 60z" />
    <glyph glyph-name="dieresis" unicode="&#xa8;" horiz-adv-x="435" 
d="M232 571h-106l19 109h106zM430 571h-106l19 109h106z" />
    <glyph glyph-name="copyright" unicode="&#xa9;" horiz-adv-x="831" 
d="M480 618q-117 0 -196 -73.5t-100 -194.5t32 -194.5t169 -73.5q120 0 197.5 73.5t99.5 194.5t-30 194.5t-172 73.5zM496 710q159 0 249.5 -99.5t61.5 -260.5q-28 -163 -154 -261.5t-284 -98.5q-154 0 -245 98t-62 262q19 110 86 193.5t158 125t190 41.5zM476 573
q78 0 121 -45.5t39 -126.5h-126q2 31 -12.5 50t-43.5 19q-43 0 -67 -30.5t-34 -90.5q-22 -121 58 -121q58 0 81 68h126q-24 -81 -83 -126t-138 -45q-100 0 -143.5 58.5t-24.5 165.5t83 165.5t164 58.5z" />
    <glyph glyph-name="ordfeminine" unicode="&#xaa;" horiz-adv-x="572" 
d="M284 717q91 0 119 -93l15 83h145l-87 -500h-145l14 82q-63 -92 -152 -92q-91 0 -135.5 72t-23.5 188q20 117 89.5 188.5t160.5 71.5zM298 594q-89 0 -114 -137t66 -137q51 0 82 37t42 98q25 139 -76 139z" />
    <glyph glyph-name="guillemotleft" unicode="&#xab;" horiz-adv-x="645" 
d="M315 509l52 -63l-179 -171l118 -172l-73 -62l-184 184l18 100zM582 509l52 -63l-179 -171l118 -172l-73 -62l-184 184l18 100z" />
    <glyph glyph-name="logicalnot" unicode="&#xac;" 
d="M521 0h-151l46 261h-362l22 121h512z" />
    <glyph glyph-name="registered" unicode="&#xae;" horiz-adv-x="517" 
d="M326 657q-64 0 -108.5 -40t-57.5 -111q-12 -69 18 -109.5t95 -40.5q68 0 112 40.5t56 109.5t-17.5 110t-97.5 41zM336 710q91 0 142 -56t35 -148q-17 -93 -87.5 -148t-161.5 -55q-89 0 -140 55t-34 148q16 93 87 148.5t159 55.5zM232 621h113q38 0 54 -17t11 -44
q-8 -47 -59 -58q23 -5 29 -25t-4 -82h-64q7 37 7 55.5t-4.5 24t-16.5 5.5h-27l-16 -85h-64zM287 570l-8 -45h31q28 0 32 24q2 21 -24 21h-31z" />
    <glyph glyph-name="macron" unicode="&#xaf;" horiz-adv-x="372" 
d="M382 567h-272l16 93h272z" />
    <glyph glyph-name="macron" unicode="&#x2c9;" horiz-adv-x="372" 
d="M382 567h-272l16 93h272z" />
    <glyph glyph-name="degree" unicode="&#xb0;" horiz-adv-x="438" 
d="M284 603q-62 0 -79 -92q-16 -92 47 -92t79 91q16 93 -47 93zM303 710q81 0 120 -54.5t22 -144.5q-16 -90 -73.5 -145.5t-137.5 -55.5q-81 0 -119.5 54.5t-23.5 144.5q16 89 74 145t138 56z" />
    <glyph glyph-name="plusminus" unicode="&#xb1;" 
d="M407 693l-34 -195h196l-22 -121h-196l-34 -196h-122l35 196h-195l22 121h194l35 195h121zM484 15h-512l22 121h512z" />
    <glyph glyph-name="acute" unicode="&#xb4;" horiz-adv-x="330" 
d="M228 718l147 -16l-182 -158h-99z" />
    <glyph glyph-name="mu" unicode="&#xb5;" horiz-adv-x="570" 
d="M108 500h146l-55 -308q-7 -40 3 -58t45 -18q82 0 102 110l48 274h146l-61 -341q-7 -41 31 -41q13 0 25 3l-20 -120q-36 -7 -73 -7q-59 0 -92.5 21.5t-29.5 64.5q-54 -90 -143 -90q-34 0 -49 23l-3 -213h-144z" />
    <glyph glyph-name="mu" unicode="&#x3bc;" horiz-adv-x="570" 
d="M108 500h146l-55 -308q-7 -40 3 -58t45 -18q82 0 102 110l48 274h146l-61 -341q-7 -41 31 -41q13 0 25 3l-20 -120q-36 -7 -73 -7q-59 0 -92.5 21.5t-29.5 64.5q-54 -90 -143 -90q-34 0 -49 23l-3 -213h-144z" />
    <glyph glyph-name="paragraph" unicode="&#xb6;" horiz-adv-x="551" 
d="M295 500h249l-92 -520q-18 -95 -93 -147t-161 -52l21 115q40 0 62.5 15.5t30.5 61.5l6 27h-103q-105 0 -152 74.5t-29 178.5q17 103 88 175t173 72z" />
    <glyph glyph-name="periodcentered" unicode="&#xb7;" horiz-adv-x="593" 
d="M255 403h144l-26 -143h-143z" />
    <glyph glyph-name="periodcentered" unicode="&#x2219;" horiz-adv-x="593" 
d="M255 403h144l-26 -143h-143z" />
    <glyph glyph-name="cedilla" unicode="&#xb8;" horiz-adv-x="362" 
d="M93 0h88l-50 -53q17 3 32 3q44 0 68.5 -21.5t17.5 -59.5q-9 -50 -57 -78.5t-109 -28.5q-74 0 -109 38l49 48q15 -23 62 -23q48 0 56 35q3 20 -14.5 31t-56.5 11q-14 0 -54 -4z" />
    <glyph glyph-name="ordmasculine" unicode="&#xba;" horiz-adv-x="530" 
d="M294 596q-91 0 -115 -138q-24 -140 66 -140q88 0 114 140q24 138 -65 138zM315 717q105 0 158 -69t32 -190q-22 -122 -99 -191.5t-182 -69.5q-107 0 -159.5 69.5t-30.5 191.5q21 121 97.5 190t183.5 69z" />
    <glyph glyph-name="guillemotright" unicode="&#xbb;" horiz-adv-x="645" 
d="M428 509l184 -184l-18 -100l-249 -184l-50 62l179 172l-119 171zM161 509l184 -184l-18 -100l-249 -184l-50 62l179 172l-119 171z" />
    <glyph glyph-name="onequarter" unicode="&#xbc;" horiz-adv-x="851" 
d="M164 0h-143l678 700h143zM320 345h-254l15 88h77l29 166l-96 -53l-28 75l146 81h113l-48 -269h61zM595 355h128l-35 -195h53l-16 -87h-52l-12 -73h-109l12 73h-171l15 82zM597 259l-92 -99h74z" />
    <glyph glyph-name="onehalf" unicode="&#xbd;" horiz-adv-x="851" 
d="M163 0h-143l678 700h143zM319 345h-254l15 88h77l29 166l-96 -53l-28 75l146 81h113l-48 -269h61zM649 362q72 0 105.5 -31t24.5 -80q-9 -47 -47 -84t-125 -79h143l-15 -88h-317l13 75q119 57 166 92t52 64q6 40 -31 40q-41 0 -57 -50h-107q16 64 67.5 102.5t127.5 38.5z
" />
    <glyph glyph-name="threequarters" unicode="&#xbe;" horiz-adv-x="851" 
d="M153 0h-143l678 700h143zM576 355h128l-35 -195h53l-16 -87h-52l-12 -73h-109l12 73h-171l15 82zM578 259l-92 -99h74zM265 707q72 0 105 -25.5t25 -70.5q-12 -67 -94 -84q84 -14 70 -85q-8 -49 -55 -76.5t-122 -27.5q-69 0 -105 34t-27 90h110q-2 -25 7.5 -34.5
t32.5 -9.5q39 0 44 34q4 20 -8 28.5t-49 8.5l13 71q33 0 47.5 8t16.5 27q6 33 -29 33q-21 0 -32 -9t-18 -32h-109q12 55 60 87.5t117 32.5z" />
    <glyph glyph-name="questiondown" unicode="&#xbf;" horiz-adv-x="577" 
d="M268 305h137q-8 -46 -35.5 -86t-61 -68t-66.5 -53.5t-58 -54t-30 -58.5q-6 -31 12.5 -51t63.5 -20q50 0 75 22.5t38 71.5h145q-29 -103 -101 -160.5t-182 -57.5q-112 0 -162.5 55t-35.5 140q9 48 37 89t63 68.5t69.5 52.5t60.5 53t31 57zM301 500h140l-25 -139h-140z" />
    <glyph glyph-name="Agrave" unicode="&#xc0;" horiz-adv-x="668" 
d="M303 700h230l109 -700h-174l-24 172h-248l-84 -172h-166zM396 597q-30 -75 -46 -107l-97 -198h176l-27 200q-6 58 -6 105zM282 865l138 15l91 -157h-92z" />
    <glyph glyph-name="Aacute" unicode="&#xc1;" horiz-adv-x="668" 
d="M303 700h230l109 -700h-174l-24 172h-248l-84 -172h-166zM396 597q-30 -75 -46 -107l-97 -198h176l-27 200q-6 58 -6 105zM473 880l132 -15l-186 -142h-91z" />
    <glyph glyph-name="Acircumflex" unicode="&#xc2;" horiz-adv-x="668" 
d="M303 700h230l109 -700h-174l-24 172h-248l-84 -172h-166zM396 597q-30 -75 -46 -107l-97 -198h176l-27 200q-6 58 -6 105zM605 738l-96 -15l-80 73l-106 -73l-91 15l153 142h117z" />
    <glyph glyph-name="Atilde" unicode="&#xc3;" horiz-adv-x="668" 
d="M303 700h230l109 -700h-174l-24 172h-248l-84 -172h-166zM396 597q-30 -75 -46 -107l-97 -198h176l-27 200q-6 58 -6 105zM371 860q39 0 78.5 -25t52.5 -25q30 0 42 37l61 -10q-31 -109 -114 -109q-33 0 -74.5 27t-62.5 27q-34 0 -43 -42l-58 13q11 50 41 78.5t77 28.5z
" />
    <glyph glyph-name="Adieresis" unicode="&#xc4;" horiz-adv-x="668" 
d="M303 700h230l109 -700h-174l-24 172h-248l-84 -172h-166zM396 597q-30 -75 -46 -107l-97 -198h176l-27 200q-6 58 -6 105zM365 744h-106l19 105h106zM579 744h-106l19 105h106z" />
    <glyph glyph-name="Aring" unicode="&#xc5;" horiz-adv-x="668" 
d="M303 700h230l109 -700h-174l-24 172h-248l-84 -172h-166zM396 597q-30 -75 -46 -107l-97 -198h176l-27 200q-6 58 -6 105zM445 892q55 0 87 -24t24 -68t-47.5 -67t-95.5 -23q-55 0 -86.5 23t-23.5 67q7 44 47 68t95 24zM435 834q-49 0 -55 -34q-4 -19 8 -27t34 -8
q49 0 55 35q3 18 -9 26t-33 8z" />
    <glyph glyph-name="AE" unicode="&#xc6;" horiz-adv-x="945" 
d="M867 0h-492l30 172h-234l-138 -172h-175l572 700h552l-22 -124h-326l-27 -153h264l-22 -122h-264l-31 -177h334zM264 292h162l46 262z" />
    <glyph glyph-name="Ccedilla" unicode="&#xc7;" horiz-adv-x="720" 
d="M529 233h162q-27 -102 -110.5 -167.5t-200.5 -74.5l-41 -44q17 3 32 3q44 0 68.5 -21.5t17.5 -59.5q-9 -50 -57 -78.5t-109 -28.5q-74 0 -109 38l49 48q15 -23 62 -23q48 0 56 35q3 20 -14.5 31t-56.5 11q-14 0 -54 -4l72 96q-127 17 -187 115.5t-35 240.5
q28 157 138.5 258.5t261.5 101.5q130 0 199.5 -67t58.5 -176h-162q2 50 -28.5 77t-92.5 27q-84 0 -135 -59t-69 -162q-19 -103 11.5 -162t114.5 -59q125 0 158 104z" />
    <glyph glyph-name="Egrave" unicode="&#xc8;" horiz-adv-x="607" 
d="M529 0h-492l123 700h484l-22 -124h-326l-27 -153h264l-22 -122h-263l-32 -177h335zM273 865l138 15l91 -157h-92z" />
    <glyph glyph-name="Eacute" unicode="&#xc9;" horiz-adv-x="607" 
d="M529 0h-492l123 700h484l-22 -124h-326l-27 -153h264l-22 -122h-263l-32 -177h335zM485 880l132 -15l-186 -142h-91z" />
    <glyph glyph-name="Ecircumflex" unicode="&#xca;" horiz-adv-x="607" 
d="M529 0h-492l123 700h484l-22 -124h-326l-27 -153h264l-22 -122h-263l-32 -177h335zM610 738l-96 -15l-80 73l-106 -73l-91 15l153 142h117z" />
    <glyph glyph-name="Edieresis" unicode="&#xcb;" horiz-adv-x="607" 
d="M529 0h-492l123 700h484l-22 -124h-326l-27 -153h264l-22 -122h-263l-32 -177h335zM370 744h-106l19 105h106zM584 744h-106l19 105h106z" />
    <glyph glyph-name="Igrave" unicode="&#xcc;" horiz-adv-x="312" 
d="M195 0h-158l123 700h158zM96 865l138 15l91 -157h-92z" />
    <glyph glyph-name="Iacute" unicode="&#xcd;" horiz-adv-x="312" 
d="M195 0h-158l123 700h158zM303 880l132 -15l-186 -142h-91z" />
    <glyph glyph-name="Icircumflex" unicode="&#xce;" horiz-adv-x="312" 
d="M195 0h-158l123 700h158zM433 738l-96 -15l-80 73l-106 -73l-91 15l153 142h117z" />
    <glyph glyph-name="Idieresis" unicode="&#xcf;" horiz-adv-x="312" 
d="M195 0h-158l123 700h158zM193 744h-106l19 105h106zM407 744h-106l19 105h106z" />
    <glyph glyph-name="Eth" unicode="&#xd0;" horiz-adv-x="741" 
d="M355 0h-318l53 303h-58l21 113h57l50 284h310q141 0 205 -92.5t35 -256.5t-123.5 -257.5t-231.5 -93.5zM216 124h124q86 0 135 53t70 173q21 119 -11 172.5t-118 53.5h-120l-29 -160h87l-20 -113h-87z" />
    <glyph glyph-name="Ntilde" unicode="&#xd1;" horiz-adv-x="735" 
d="M160 700h223l106 -430q10 -50 10 -92q5 53 13 99l75 423h154l-123 -700h-205l-115 471q-7 27 -9 88q-4 -46 -11 -89l-83 -470h-158zM405 860q39 0 78.5 -25t52.5 -25q30 0 42 37l61 -10q-31 -109 -114 -109q-33 0 -74.5 27t-62.5 27q-34 0 -43 -42l-58 13q11 50 41 78.5
t77 28.5z" />
    <glyph glyph-name="Ograve" unicode="&#xd2;" horiz-adv-x="777" 
d="M449 571q-85 0 -135.5 -58.5t-68.5 -162.5q-19 -104 11 -162.5t115 -58.5q83 0 134.5 59t69.5 162t-12.5 162t-113.5 59zM474 710q151 0 224.5 -101.5t45.5 -258.5t-137 -258.5t-260 -101.5q-152 0 -226 101.5t-47 258.5q28 157 138 258.5t262 101.5zM350 865l138 15
l91 -157h-92z" />
    <glyph glyph-name="Oacute" unicode="&#xd3;" horiz-adv-x="777" 
d="M449 571q-85 0 -135.5 -58.5t-68.5 -162.5q-19 -104 11 -162.5t115 -58.5q83 0 134.5 59t69.5 162t-12.5 162t-113.5 59zM474 710q151 0 224.5 -101.5t45.5 -258.5t-137 -258.5t-260 -101.5q-152 0 -226 101.5t-47 258.5q28 157 138 258.5t262 101.5zM516 880l132 -15
l-186 -142h-91z" />
    <glyph glyph-name="Ocircumflex" unicode="&#xd4;" horiz-adv-x="777" 
d="M449 571q-85 0 -135.5 -58.5t-68.5 -162.5q-19 -104 11 -162.5t115 -58.5q83 0 134.5 59t69.5 162t-12.5 162t-113.5 59zM474 710q151 0 224.5 -101.5t45.5 -258.5t-137 -258.5t-260 -101.5q-152 0 -226 101.5t-47 258.5q28 157 138 258.5t262 101.5zM665 738l-96 -15
l-80 73l-106 -73l-91 15l153 142h117z" />
    <glyph glyph-name="Otilde" unicode="&#xd5;" horiz-adv-x="777" 
d="M449 571q-85 0 -135.5 -58.5t-68.5 -162.5q-19 -104 11 -162.5t115 -58.5q83 0 134.5 59t69.5 162t-12.5 162t-113.5 59zM474 710q151 0 224.5 -101.5t45.5 -258.5t-137 -258.5t-260 -101.5q-152 0 -226 101.5t-47 258.5q28 157 138 258.5t262 101.5zM430 860
q39 0 78.5 -25t52.5 -25q30 0 42 37l61 -10q-31 -109 -114 -109q-33 0 -74.5 27t-62.5 27q-34 0 -43 -42l-58 13q11 50 41 78.5t77 28.5z" />
    <glyph glyph-name="Odieresis" unicode="&#xd6;" horiz-adv-x="777" 
d="M449 571q-85 0 -135.5 -58.5t-68.5 -162.5q-19 -104 11 -162.5t115 -58.5q83 0 134.5 59t69.5 162t-12.5 162t-113.5 59zM474 710q151 0 224.5 -101.5t45.5 -258.5t-137 -258.5t-260 -101.5q-152 0 -226 101.5t-47 258.5q28 157 138 258.5t262 101.5zM425 744h-106
l19 105h106zM639 744h-106l19 105h106z" />
    <glyph glyph-name="multiply" unicode="&#xd7;" 
d="M193 579l142 -172l203 173l70 -86l-203 -173l143 -172l-102 -86l-142 172l-201 -171l-71 86l201 171l-141 172z" />
    <glyph glyph-name="Oslash" unicode="&#xd8;" horiz-adv-x="777" 
d="M650 700h143l-89 -100q66 -100 40 -250q-28 -157 -137 -258.5t-260 -101.5q-90 0 -153 37l-24 -27h-144l89 100q-68 99 -41 250q28 157 138 258.5t262 101.5q87 0 152 -37zM575 350q10 60 4 109l-280 -314q28 -16 72 -16q83 0 134.5 59t69.5 162zM449 571
q-85 0 -135.5 -58.5t-68.5 -162.5q-12 -65 -5 -110l280 315q-30 16 -71 16z" />
    <glyph glyph-name="Ugrave" unicode="&#xd9;" horiz-adv-x="730" 
d="M507 253l78 447h159l-84 -477q-20 -112 -119 -172.5t-222 -60.5q-122 0 -196.5 60t-54.5 173l84 477h158l-79 -447q-13 -69 15.5 -100t100.5 -31t109.5 31t50.5 100zM338 865l138 15l91 -157h-92z" />
    <glyph glyph-name="Uacute" unicode="&#xda;" horiz-adv-x="730" 
d="M507 253l78 447h159l-84 -477q-20 -112 -119 -172.5t-222 -60.5q-122 0 -196.5 60t-54.5 173l84 477h158l-79 -447q-13 -69 15.5 -100t100.5 -31t109.5 31t50.5 100zM507 880l132 -15l-186 -142h-91z" />
    <glyph glyph-name="Ucircumflex" unicode="&#xdb;" horiz-adv-x="730" 
d="M507 253l78 447h159l-84 -477q-20 -112 -119 -172.5t-222 -60.5q-122 0 -196.5 60t-54.5 173l84 477h158l-79 -447q-13 -69 15.5 -100t100.5 -31t109.5 31t50.5 100zM641 738l-96 -15l-80 73l-106 -73l-91 15l153 142h117z" />
    <glyph glyph-name="Udieresis" unicode="&#xdc;" horiz-adv-x="730" 
d="M507 253l78 447h159l-84 -477q-20 -112 -119 -172.5t-222 -60.5q-122 0 -196.5 60t-54.5 173l84 477h158l-79 -447q-13 -69 15.5 -100t100.5 -31t109.5 31t50.5 100zM401 744h-106l19 105h106zM615 744h-106l19 105h106z" />
    <glyph glyph-name="Yacute" unicode="&#xdd;" horiz-adv-x="671" 
d="M375 0h-158l52 297l-198 403h185l121 -269l217 269h172l-339 -403zM485 880l132 -15l-186 -142h-91z" />
    <glyph glyph-name="Thorn" unicode="&#xde;" horiz-adv-x="653" 
d="M195 0h-158l123 700h158l-19 -108h171q104 0 151.5 -65t30.5 -162q-17 -101 -88 -166t-183 -65h-163zM277 468l-39 -221h132q100 0 119 114q20 107 -80 107h-132z" />
    <glyph glyph-name="germandbls" unicode="&#xdf;" horiz-adv-x="577" 
d="M379 710q96 0 152.5 -46t40.5 -130q-23 -138 -173 -160q169 -27 143 -176q-16 -86 -96.5 -144.5t-196.5 -58.5q-9 0 -45 4l22 121q20 -4 36 -4q107 0 122 94q9 51 -16.5 72.5t-101.5 21.5l20 112q66 0 93.5 21.5t36.5 70.5q14 82 -64 82q-81 0 -95 -78l-90 -512h-145
l90 514q17 90 93.5 143t173.5 53z" />
    <glyph glyph-name="agrave" unicode="&#xe0;" horiz-adv-x="572" 
d="M284 510q91 0 119 -93l15 83h145l-87 -500h-145l14 82q-63 -92 -152 -92q-91 0 -135.5 72t-23.5 188q20 117 89.5 188.5t160.5 71.5zM298 387q-89 0 -114 -137t66 -137q51 0 82 37t42 98q25 139 -76 139zM230 702l152 16l72 -174h-98z" />
    <glyph glyph-name="aacute" unicode="&#xe1;" horiz-adv-x="572" 
d="M284 510q91 0 119 -93l15 83h145l-87 -500h-145l14 82q-63 -92 -152 -92q-91 0 -135.5 72t-23.5 188q20 117 89.5 188.5t160.5 71.5zM298 387q-89 0 -114 -137t66 -137q51 0 82 37t42 98q25 139 -76 139zM405 718l147 -16l-182 -158h-99z" />
    <glyph glyph-name="acircumflex" unicode="&#xe2;" horiz-adv-x="572" 
d="M284 510q91 0 119 -93l15 83h145l-87 -500h-145l14 82q-63 -92 -152 -92q-91 0 -135.5 72t-23.5 188q20 117 89.5 188.5t160.5 71.5zM298 387q-89 0 -114 -137t66 -137q51 0 82 37t42 98q25 139 -76 139zM309 705h132l94 -150l-104 -17l-71 82l-100 -82l-98 17z" />
    <glyph glyph-name="atilde" unicode="&#xe3;" horiz-adv-x="572" 
d="M284 510q91 0 119 -93l15 83h145l-87 -500h-145l14 82q-63 -92 -152 -92q-91 0 -135.5 72t-23.5 188q20 117 89.5 188.5t160.5 71.5zM298 387q-89 0 -114 -137t66 -137q51 0 82 37t42 98q25 139 -76 139zM309 699q39 0 78 -27.5t52 -27.5q30 0 43 39l60 -10
q-15 -56 -45 -88t-71 -32q-33 0 -74 29t-62 29q-34 0 -44 -45l-58 14q12 55 43 87t78 32z" />
    <glyph glyph-name="adieresis" unicode="&#xe4;" horiz-adv-x="572" 
d="M284 510q91 0 119 -93l15 83h145l-87 -500h-145l14 82q-63 -92 -152 -92q-91 0 -135.5 72t-23.5 188q20 117 89.5 188.5t160.5 71.5zM298 387q-89 0 -114 -137t66 -137q51 0 82 37t42 98q25 139 -76 139zM312 571h-106l19 109h106zM510 571h-106l19 109h106z" />
    <glyph glyph-name="aring" unicode="&#xe5;" horiz-adv-x="572" 
d="M284 510q91 0 119 -93l15 83h145l-87 -500h-145l14 82q-63 -92 -152 -92q-91 0 -135.5 72t-23.5 188q20 117 89.5 188.5t160.5 71.5zM298 387q-89 0 -114 -137t66 -137q51 0 82 37t42 98q25 139 -76 139zM389 735q55 0 88 -27.5t24 -76.5t-51 -76t-98 -27t-89 27t-24 76
t52 76.5t98 27.5zM376 666q-20 0 -34 -9.5t-16 -24.5q-3 -19 7.5 -27.5t30.5 -8.5q43 0 49 34q3 17 -8 26.5t-29 9.5z" />
    <glyph glyph-name="ae" unicode="&#xe6;" horiz-adv-x="868" 
d="M284 510q91 0 119 -93l15 83h106l-12 -69q76 79 173 79q88 0 132 -38t44 -94q0 -73 -61.5 -118t-196.5 -45h-89q-6 -57 11.5 -82t63.5 -25q33 0 57 16t31 44h145q-19 -76 -90.5 -127t-161.5 -51q-85 0 -125 59l-8 -49h-106l14 82q-63 -92 -152 -92q-91 0 -135.5 72
t-23.5 188q20 117 89.5 188.5t160.5 71.5zM298 387q-89 0 -114 -137t66 -137q51 0 82 37t42 98q25 139 -76 139zM653 401q-82 0 -117 -88h74q100 0 100 49q0 16 -14 27.5t-43 11.5z" />
    <glyph glyph-name="ccedilla" unicode="&#xe7;" horiz-adv-x="517" 
d="M321 510q92 0 145.5 -56.5t40.5 -144.5h-146q4 35 -12 57.5t-54 22.5q-93 0 -117 -139q-26 -139 68 -139q38 0 62 22.5t33 57.5h145q-15 -77 -75 -131t-139 -66l-44 -47q16 3 32 3q44 0 68.5 -21.5t17.5 -59.5q-9 -50 -57 -78.5t-109 -28.5q-74 0 -109 38l49 48
q15 -23 62 -23q48 0 56 35q3 20 -14.5 31t-56.5 11q-14 0 -54 -4l72 95q-91 13 -130.5 81.5t-20.5 175.5q21 119 96.5 189.5t190.5 70.5z" />
    <glyph glyph-name="egrave" unicode="&#xe8;" horiz-adv-x="526" 
d="M335 510q89 0 136 -38.5t47 -93.5q0 -73 -61 -118t-196 -45h-89q-6 -56 11.5 -81.5t63.5 -25.5q33 0 57 16t31 44h145q-19 -76 -90.5 -127t-161.5 -51q-111 0 -163.5 70.5t-31.5 190.5q20 116 104 187.5t198 71.5zM208 702l152 16l72 -174h-98zM310 401q-81 0 -116 -88
h74q100 0 100 49q0 16 -14 27.5t-44 11.5z" />
    <glyph glyph-name="eacute" unicode="&#xe9;" horiz-adv-x="526" 
d="M335 510q89 0 136 -38.5t47 -93.5q0 -73 -61 -118t-196 -45h-89q-6 -56 11.5 -81.5t63.5 -25.5q33 0 57 16t31 44h145q-19 -76 -90.5 -127t-161.5 -51q-111 0 -163.5 70.5t-31.5 190.5q20 116 104 187.5t198 71.5zM373 718l147 -16l-182 -158h-99zM310 401
q-81 0 -116 -88h74q100 0 100 49q0 16 -14 27.5t-44 11.5z" />
    <glyph glyph-name="ecircumflex" unicode="&#xea;" horiz-adv-x="526" 
d="M335 510q89 0 136 -38.5t47 -93.5q0 -73 -61 -118t-196 -45h-89q-6 -56 11.5 -81.5t63.5 -25.5q33 0 57 16t31 44h145q-19 -76 -90.5 -127t-161.5 -51q-111 0 -163.5 70.5t-31.5 190.5q20 116 104 187.5t198 71.5zM298 705h132l94 -150l-104 -17l-71 82l-100 -82l-98 17z
M310 401q-81 0 -116 -88h74q100 0 100 49q0 16 -14 27.5t-44 11.5z" />
    <glyph glyph-name="edieresis" unicode="&#xeb;" horiz-adv-x="526" 
d="M335 510q89 0 136 -38.5t47 -93.5q0 -73 -61 -118t-196 -45h-89q-6 -56 11.5 -81.5t63.5 -25.5q33 0 57 16t31 44h145q-19 -76 -90.5 -127t-161.5 -51q-111 0 -163.5 70.5t-31.5 190.5q20 116 104 187.5t198 71.5zM487 571h-106l19 109h106zM289 571h-106l19 109h106z
M310 401q-81 0 -116 -88h74q100 0 100 49q0 16 -14 27.5t-44 11.5z" />
    <glyph glyph-name="igrave" unicode="&#xec;" horiz-adv-x="270" 
d="M59 702l152 16l72 -174h-98zM167 0h-145l88 500h145z" />
    <glyph glyph-name="iacute" unicode="&#xed;" horiz-adv-x="270" 
d="M236 718l147 -16l-182 -158h-99zM167 0h-145l88 500h145z" />
    <glyph glyph-name="icircumflex" unicode="&#xee;" horiz-adv-x="270" 
d="M167 0h-145l88 500h145zM150 705h132l94 -150l-104 -17l-71 82l-100 -82l-98 17z" />
    <glyph glyph-name="idieresis" unicode="&#xef;" horiz-adv-x="270" 
d="M147 571h-106l19 109h106zM345 571h-106l19 109h106zM167 0h-145l88 500h145z" />
    <glyph glyph-name="eth" unicode="&#xf0;" 
d="M323 710q89 0 155 -41l56 49l46 -53l-47 -41q89 -102 59 -279q-30 -170 -118 -262.5t-220 -92.5q-85 0 -139 35.5t-71.5 90t-6.5 120.5q16 92 86 161.5t176 69.5q102 0 147 -75q11 87 -21 137l-61 -53l-46 53l54 47q-40 20 -97 20zM313 356q-56 0 -87.5 -34.5
t-41.5 -89.5q-18 -115 84 -115q62 0 100 44.5t59 129.5q-40 65 -114 65z" />
    <glyph glyph-name="ntilde" unicode="&#xf1;" horiz-adv-x="565" 
d="M110 500h145l-12 -67q57 77 153 77q73 0 107.5 -45.5t20.5 -125.5l-59 -339h-146l54 308q7 40 -3.5 58t-44.5 18q-40 0 -70.5 -28.5t-39.5 -81.5l-48 -274h-145zM295 699q39 0 78 -27.5t52 -27.5q30 0 43 39l60 -10q-15 -56 -45 -88t-71 -32q-33 0 -74 29t-62 29
q-34 0 -44 -45l-58 14q12 55 43 87t78 32z" />
    <glyph glyph-name="ograve" unicode="&#xf2;" horiz-adv-x="530" 
d="M294 389q-91 0 -115 -138q-24 -140 66 -140q88 0 114 140q24 138 -65 138zM315 510q105 0 158 -69t32 -190q-22 -122 -99 -191.5t-182 -69.5q-107 0 -159.5 69.5t-30.5 191.5q21 121 97.5 190t183.5 69zM211 702l152 16l72 -174h-98z" />
    <glyph glyph-name="oacute" unicode="&#xf3;" horiz-adv-x="530" 
d="M294 389q-91 0 -115 -138q-24 -140 66 -140q88 0 114 140q24 138 -65 138zM315 510q105 0 158 -69t32 -190q-22 -122 -99 -191.5t-182 -69.5q-107 0 -159.5 69.5t-30.5 191.5q21 121 97.5 190t183.5 69zM353 718l147 -16l-182 -158h-99z" />
    <glyph glyph-name="ocircumflex" unicode="&#xf4;" horiz-adv-x="530" 
d="M294 389q-91 0 -115 -138q-24 -140 66 -140q88 0 114 140q24 138 -65 138zM315 510q105 0 158 -69t32 -190q-22 -122 -99 -191.5t-182 -69.5q-107 0 -159.5 69.5t-30.5 191.5q21 121 97.5 190t183.5 69zM283 705h132l94 -150l-104 -17l-71 82l-100 -82l-98 17z" />
    <glyph glyph-name="otilde" unicode="&#xf5;" horiz-adv-x="530" 
d="M294 389q-91 0 -115 -138q-24 -140 66 -140q88 0 114 140q24 138 -65 138zM315 510q105 0 158 -69t32 -190q-22 -122 -99 -191.5t-182 -69.5q-107 0 -159.5 69.5t-30.5 191.5q21 121 97.5 190t183.5 69zM278 699q39 0 78 -27.5t52 -27.5q30 0 43 39l60 -10
q-15 -56 -45 -88t-71 -32q-33 0 -74 29t-62 29q-34 0 -44 -45l-58 14q12 55 43 87t78 32z" />
    <glyph glyph-name="odieresis" unicode="&#xf6;" horiz-adv-x="530" 
d="M294 389q-91 0 -115 -138q-24 -140 66 -140q88 0 114 140q24 138 -65 138zM315 510q105 0 158 -69t32 -190q-22 -122 -99 -191.5t-182 -69.5q-107 0 -159.5 69.5t-30.5 191.5q21 121 97.5 190t183.5 69zM279 571h-106l19 109h106zM477 571h-106l19 109h106z" />
    <glyph glyph-name="divide" unicode="&#xf7;" 
d="M526 261h-512l22 121h512zM263 625h142l-26 -148h-141zM184 181h142l-26 -148h-141z" />
    <glyph glyph-name="oslash" unicode="&#xf8;" horiz-adv-x="529" 
d="M315 510q64 0 111 -25l14 15h109l-64 -71q40 -65 20 -178q-22 -125 -96.5 -193t-184.5 -68q-67 0 -112 24l-12 -14h-110l63 70q-40 68 -19 181q22 124 95.5 191.5t185.5 67.5zM293 384q-47 0 -77 -34.5t-41 -98.5q-6 -30 -5 -51l159 177q-17 7 -36 7zM364 251q4 23 4 48
l-157 -176q15 -6 35 -6q93 0 118 134z" />
    <glyph glyph-name="ugrave" unicode="&#xf9;" horiz-adv-x="565" 
d="M108 500h146l-55 -308q-7 -40 3.5 -58t44.5 -18q41 0 70.5 28.5t38.5 81.5l49 274h145l-88 -500h-145l12 67q-59 -77 -153 -77q-73 0 -108 45.5t-21 125.5zM208 702l152 16l72 -174h-98z" />
    <glyph glyph-name="uacute" unicode="&#xfa;" horiz-adv-x="565" 
d="M108 500h146l-55 -308q-7 -40 3.5 -58t44.5 -18q41 0 70.5 28.5t38.5 81.5l49 274h145l-88 -500h-145l12 67q-59 -77 -153 -77q-73 0 -108 45.5t-21 125.5zM379 718l147 -16l-182 -158h-99z" />
    <glyph glyph-name="ucircumflex" unicode="&#xfb;" horiz-adv-x="565" 
d="M108 500h146l-55 -308q-7 -40 3.5 -58t44.5 -18q41 0 70.5 28.5t38.5 81.5l49 274h145l-88 -500h-145l12 67q-59 -77 -153 -77q-73 0 -108 45.5t-21 125.5zM294 705h132l94 -150l-104 -17l-71 82l-100 -82l-98 17z" />
    <glyph glyph-name="udieresis" unicode="&#xfc;" horiz-adv-x="565" 
d="M108 500h146l-55 -308q-7 -40 3.5 -58t44.5 -18q41 0 70.5 28.5t38.5 81.5l49 274h145l-88 -500h-145l12 67q-59 -77 -153 -77q-73 0 -108 45.5t-21 125.5zM289 571h-106l19 109h106zM487 571h-106l19 109h106z" />
    <glyph glyph-name="yacute" unicode="&#xfd;" horiz-adv-x="497" 
d="M43 500h152l35 -289q5 -29 1 -90q26 75 34 90l142 289h143l-267 -520q-33 -65 -65.5 -104t-73.5 -57.5t-78 -23.5t-100 -5l22 126q93 0 119 37l18 28zM359 718l147 -16l-182 -158h-99z" />
    <glyph glyph-name="thorn" unicode="&#xfe;" horiz-adv-x="572" 
d="M388 510q91 0 134 -71.5t23 -188.5q-21 -117 -89 -188.5t-159 -71.5q-95 0 -123 92l-50 -282h-145l159 900h145l-50 -283q61 93 155 93zM327 387q-99 0 -124 -139q-11 -61 7 -98t69 -37q92 0 115 137q25 137 -67 137z" />
    <glyph glyph-name="ydieresis" unicode="&#xff;" horiz-adv-x="497" 
d="M43 500h152l35 -289q5 -29 1 -90q26 75 34 90l142 289h143l-267 -520q-33 -65 -65.5 -104t-73.5 -57.5t-78 -23.5t-100 -5l22 126q93 0 119 37l18 28zM266 571h-106l19 109h106zM464 571h-106l19 109h106z" />
    <glyph glyph-name="Amacron" unicode="&#x100;" horiz-adv-x="668" 
d="M303 700h230l109 -700h-174l-24 172h-248l-84 -172h-166zM396 597q-30 -75 -46 -107l-97 -198h176l-27 200q-6 58 -6 105zM555 740h-272l15 84h271z" />
    <glyph glyph-name="amacron" unicode="&#x101;" horiz-adv-x="572" 
d="M284 510q91 0 119 -93l15 83h145l-87 -500h-145l14 82q-63 -92 -152 -92q-91 0 -135.5 72t-23.5 188q20 117 89.5 188.5t160.5 71.5zM298 387q-89 0 -114 -137t66 -137q51 0 82 37t42 98q25 139 -76 139zM497 567h-272l16 93h272z" />
    <glyph glyph-name="Abreve" unicode="&#x102;" horiz-adv-x="668" 
d="M303 700h230l109 -700h-174l-24 172h-248l-84 -172h-166zM396 597q-30 -75 -46 -107l-97 -198h176l-27 200q-6 58 -6 105zM297 854l77 9q-10 -57 56 -57q65 0 77 57l74 -9q-11 -59 -57 -93t-108 -34q-61 0 -95 34t-24 93z" />
    <glyph glyph-name="abreve" unicode="&#x103;" horiz-adv-x="572" 
d="M284 510q91 0 119 -93l15 83h145l-87 -500h-145l14 82q-63 -92 -152 -92q-91 0 -135.5 72t-23.5 188q20 117 89.5 188.5t160.5 71.5zM298 387q-89 0 -114 -137t66 -137q51 0 82 37t42 98q25 139 -76 139zM228 693l90 10q-11 -66 51 -66q63 0 75 66l87 -10
q-12 -65 -63 -103.5t-114 -38.5q-62 0 -100 38.5t-26 103.5z" />
    <glyph glyph-name="Aogonek" unicode="&#x104;" horiz-adv-x="668" 
d="M517 0h-49l-24 172h-248l-84 -172h-166l357 700h230l109 -700h-49q-54 -37 -65 -86q-3 -19 7 -30t31 -11q7 0 21 2l-16 -89q-21 -6 -47 -6q-59 0 -88.5 28.5t-21.5 71.5q12 71 103 120zM396 597q-30 -75 -46 -107l-97 -198h176l-27 200q-6 58 -6 105z" />
    <glyph glyph-name="aogonek" unicode="&#x105;" horiz-adv-x="572" 
d="M358 0h-27l14 82q-63 -92 -152 -92q-91 0 -135.5 72t-23.5 188q20 117 89.5 188.5t160.5 71.5t119 -93l15 83h145l-87 -500h-42q-54 -37 -65 -86q-3 -19 7 -30t31 -11q7 0 21 2l-16 -89q-21 -6 -47 -6q-59 0 -88.5 28.5t-21.5 71.5q12 71 103 120zM298 387
q-89 0 -114 -137t66 -137q51 0 82 37t42 98q25 139 -76 139z" />
    <glyph glyph-name="Cacute" unicode="&#x106;" horiz-adv-x="720" 
d="M529 233h162q-29 -109 -121.5 -176t-222.5 -67q-151 0 -225.5 102t-47.5 258q28 157 138.5 258.5t261.5 101.5q130 0 199.5 -67t58.5 -176h-162q2 50 -28.5 77t-92.5 27q-84 0 -135 -59t-69 -162q-19 -103 11.5 -162t114.5 -59q125 0 158 104zM518 880l132 -15l-186 -142
h-91z" />
    <glyph glyph-name="cacute" unicode="&#x107;" horiz-adv-x="517" 
d="M321 510q92 0 145.5 -56.5t40.5 -144.5h-146q4 35 -12 57.5t-54 22.5q-93 0 -117 -139q-26 -139 68 -139q38 0 62 22.5t33 57.5h145q-18 -88 -91 -144.5t-165 -56.5q-115 0 -166 70.5t-30 189.5t96.5 189.5t190.5 70.5zM361 718l147 -16l-182 -158h-99z" />
    <glyph glyph-name="Ccircumflex" unicode="&#x108;" horiz-adv-x="720" 
d="M529 233h162q-29 -109 -121.5 -176t-222.5 -67q-151 0 -225.5 102t-47.5 258q28 157 138.5 258.5t261.5 101.5q130 0 199.5 -67t58.5 -176h-162q2 50 -28.5 77t-92.5 27q-84 0 -135 -59t-69 -162q-19 -103 11.5 -162t114.5 -59q125 0 158 104zM666 738l-96 -15l-80 73
l-106 -73l-91 15l153 142h117z" />
    <glyph glyph-name="ccircumflex" unicode="&#x109;" horiz-adv-x="517" 
d="M321 510q92 0 145.5 -56.5t40.5 -144.5h-146q4 35 -12 57.5t-54 22.5q-93 0 -117 -139q-26 -139 68 -139q38 0 62 22.5t33 57.5h145q-18 -88 -91 -144.5t-165 -56.5q-115 0 -166 70.5t-30 189.5t96.5 189.5t190.5 70.5zM287 705h132l94 -150l-104 -17l-71 82l-100 -82
l-98 17z" />
    <glyph glyph-name="Cdotaccent" unicode="&#x10a;" horiz-adv-x="720" 
d="M529 233h162q-29 -109 -121.5 -176t-222.5 -67q-151 0 -225.5 102t-47.5 258q28 157 138.5 258.5t261.5 101.5q130 0 199.5 -67t58.5 -176h-162q2 50 -28.5 77t-92.5 27q-84 0 -135 -59t-69 -162q-19 -103 11.5 -162t114.5 -59q125 0 158 104zM550 744h-138l21 113h137z
" />
    <glyph glyph-name="cdotaccent" unicode="&#x10b;" horiz-adv-x="517" 
d="M321 510q92 0 145.5 -56.5t40.5 -144.5h-146q4 35 -12 57.5t-54 22.5q-93 0 -117 -139q-26 -139 68 -139q38 0 62 22.5t33 57.5h145q-18 -88 -91 -144.5t-165 -56.5q-115 0 -166 70.5t-30 189.5t96.5 189.5t190.5 70.5zM401 571h-138l22 125h138z" />
    <glyph glyph-name="Ccaron" unicode="&#x10c;" horiz-adv-x="720" 
d="M529 233h162q-29 -109 -121.5 -176t-222.5 -67q-151 0 -225.5 102t-47.5 258q28 157 138.5 258.5t261.5 101.5q130 0 199.5 -67t58.5 -176h-162q2 50 -28.5 77t-92.5 27q-84 0 -135 -59t-69 -162q-19 -103 11.5 -162t114.5 -59q125 0 158 104zM318 865l96 15l80 -72
l107 72l91 -15l-153 -142h-117z" />
    <glyph glyph-name="ccaron" unicode="&#x10d;" horiz-adv-x="517" 
d="M321 510q92 0 145.5 -56.5t40.5 -144.5h-146q4 35 -12 57.5t-54 22.5q-93 0 -117 -139q-26 -139 68 -139q38 0 62 22.5t33 57.5h145q-18 -88 -91 -144.5t-165 -56.5q-115 0 -166 70.5t-30 189.5t96.5 189.5t190.5 70.5zM168 694l104 17l71 -82l100 82l98 -17l-146 -150
h-133z" />
    <glyph glyph-name="Dcaron" unicode="&#x10e;" horiz-adv-x="741" 
d="M355 0h-318l123 700h310q141 0 205 -92.5t35 -256.5t-123.5 -257.5t-231.5 -93.5zM216 124h124q86 0 135 53t70 173q21 119 -11 172.5t-118 53.5h-120zM260 865l96 15l80 -72l107 72l91 -15l-153 -142h-117z" />
    <glyph glyph-name="dcaron" unicode="&#x10f;" horiz-adv-x="572" 
d="M284 510q91 0 119 -93l51 283h145l-123 -700h-145l14 82q-63 -92 -152 -92q-91 0 -135.5 72t-23.5 188q20 117 89.5 188.5t160.5 71.5zM298 387q-89 0 -114 -137t66 -137q51 0 82 37t42 98q25 139 -76 139zM639 710h125l-82 -159h-71z" />
    <glyph glyph-name="Dcroat" unicode="&#x110;" horiz-adv-x="741" 
d="M355 0h-318l56 321h-43l16 93h44l50 286h310q141 0 205 -92.5t35 -256.5t-123.5 -257.5t-231.5 -93.5zM216 124h124q86 0 135 53t70 173q21 119 -11 172.5t-118 53.5h-120l-29 -162h71l-16 -93h-71z" />
    <glyph glyph-name="dcroat" unicode="&#x111;" horiz-adv-x="572" 
d="M284 510q91 0 119 -93l24 135h-75l15 84h75l12 64h145l-11 -64h63l-15 -84h-63l-97 -552h-145l14 82q-63 -92 -152 -92q-91 0 -135.5 72t-23.5 188q20 117 89.5 188.5t160.5 71.5zM298 387q-89 0 -114 -137t66 -137q51 0 82 37t42 98q25 139 -76 139z" />
    <glyph glyph-name="Emacron" unicode="&#x112;" horiz-adv-x="607" 
d="M529 0h-492l123 700h484l-22 -124h-326l-27 -153h264l-22 -122h-263l-32 -177h335zM555 740h-272l15 84h271z" />
    <glyph glyph-name="emacron" unicode="&#x113;" horiz-adv-x="526" 
d="M335 510q89 0 136 -38.5t47 -93.5q0 -73 -61 -118t-196 -45h-89q-6 -56 11.5 -81.5t63.5 -25.5q33 0 57 16t31 44h145q-19 -76 -90.5 -127t-161.5 -51q-111 0 -163.5 70.5t-31.5 190.5q20 116 104 187.5t198 71.5zM470 567h-272l16 93h272zM310 401q-81 0 -116 -88h74
q100 0 100 49q0 16 -14 27.5t-44 11.5z" />
    <glyph glyph-name="Ebreve" unicode="&#x114;" horiz-adv-x="607" 
d="M529 0h-492l123 700h484l-22 -124h-326l-27 -153h264l-22 -122h-263l-32 -177h335zM300 854l77 9q-5 -28 10 -42.5t46 -14.5q65 0 77 57l74 -9q-11 -59 -57 -93t-108 -34q-61 0 -95 34t-24 93z" />
    <glyph glyph-name="ebreve" unicode="&#x115;" horiz-adv-x="526" 
d="M335 510q89 0 136 -38.5t47 -93.5q0 -73 -61 -118t-196 -45h-89q-6 -56 11.5 -81.5t63.5 -25.5q33 0 57 16t31 44h145q-19 -76 -90.5 -127t-161.5 -51q-111 0 -163.5 70.5t-31.5 190.5q20 116 104 187.5t198 71.5zM204 693l90 10q-11 -66 51 -66q63 0 75 66l87 -10
q-12 -65 -63 -103.5t-114 -38.5q-62 0 -100 38.5t-26 103.5zM310 401q-81 0 -116 -88h74q100 0 100 49q0 16 -14 27.5t-44 11.5z" />
    <glyph glyph-name="Edotaccent" unicode="&#x116;" horiz-adv-x="607" 
d="M529 0h-492l123 700h484l-22 -124h-326l-27 -153h264l-22 -122h-263l-32 -177h335zM494 744h-138l21 113h137z" />
    <glyph glyph-name="edotaccent" unicode="&#x117;" horiz-adv-x="526" 
d="M335 510q89 0 136 -38.5t47 -93.5q0 -73 -61 -118t-196 -45h-89q-6 -56 11.5 -81.5t63.5 -25.5q33 0 57 16t31 44h145q-19 -76 -90.5 -127t-161.5 -51q-111 0 -163.5 70.5t-31.5 190.5q20 116 104 187.5t198 71.5zM399 571h-138l22 125h138zM310 401q-81 0 -116 -88h74
q100 0 100 49q0 16 -14 27.5t-44 11.5z" />
    <glyph glyph-name="Eogonek" unicode="&#x118;" horiz-adv-x="607" 
d="M419 0h-382l123 700h484l-22 -124h-326l-27 -153h264l-22 -122h-263l-32 -177h335l-22 -124h-34q-54 -37 -65 -86q-3 -19 7 -30t31 -11q7 0 21 2l-16 -89q-21 -6 -47 -6q-59 0 -88.5 28.5t-21.5 71.5q12 71 103 120z" />
    <glyph glyph-name="eogonek" unicode="&#x119;" horiz-adv-x="526" 
d="M335 510q89 0 136 -38.5t47 -93.5q0 -73 -61 -118t-196 -45h-89q-6 -56 11.5 -81.5t63.5 -25.5q33 0 57 16t31 44h145q-16 -62 -67.5 -108t-121.5 -62q-50 -36 -61 -84q-3 -19 7 -30t31 -11q7 0 21 2l-16 -89q-21 -6 -47 -6q-59 0 -88.5 28.5t-21.5 71.5q10 64 87 111
q-99 8 -144.5 77.5t-25.5 182.5q20 116 104 187.5t198 71.5zM310 401q-81 0 -116 -88h74q100 0 100 49q0 16 -14 27.5t-44 11.5z" />
    <glyph glyph-name="Ecaron" unicode="&#x11a;" horiz-adv-x="607" 
d="M529 0h-492l123 700h484l-22 -124h-326l-27 -153h264l-22 -122h-263l-32 -177h335zM263 865l96 15l80 -72l107 72l91 -15l-153 -142h-117z" />
    <glyph glyph-name="ecaron" unicode="&#x11b;" horiz-adv-x="526" 
d="M335 510q89 0 136 -38.5t47 -93.5q0 -73 -61 -118t-196 -45h-89q-6 -56 11.5 -81.5t63.5 -25.5q33 0 57 16t31 44h145q-19 -76 -90.5 -127t-161.5 -51q-111 0 -163.5 70.5t-31.5 190.5q20 116 104 187.5t198 71.5zM167 694l104 17l71 -82l100 82l98 -17l-146 -150h-133z
M310 401q-81 0 -116 -88h74q100 0 100 49q0 16 -14 27.5t-44 11.5z" />
    <glyph glyph-name="Gcircumflex" unicode="&#x11c;" horiz-adv-x="771" 
d="M477 710q129 0 197.5 -66.5t57.5 -175.5h-161q2 50 -28.5 76.5t-92.5 26.5q-84 0 -135.5 -59t-69.5 -162q-39 -223 122 -223q72 0 119 38t60 108h-161l20 116h318l-68 -389h-149l20 116q-34 -61 -84 -93.5t-132 -32.5q-55 0 -102.5 22t-84 66.5t-49.5 112t1 159.5
q27 156 138.5 258t263.5 102zM664 738l-96 -15l-80 73l-106 -73l-91 15l153 142h117z" />
    <glyph glyph-name="gcircumflex" unicode="&#x11d;" horiz-adv-x="572" 
d="M288 510q52 0 79.5 -26t35.5 -67l16 83h145l-90 -509q-19 -105 -89 -153t-200 -48q-104 0 -155.5 47.5t-38.5 133.5h156q-8 -68 68 -68q51 0 78 19t36 69l16 97q-54 -89 -158 -89q-91 0 -132.5 67.5t-20.5 184.5q20 114 85.5 186.5t168.5 72.5zM297 387q-91 0 -114 -136
q-24 -134 69 -134q98 0 122 132q25 138 -77 138zM314 705h132l94 -150l-104 -17l-71 82l-100 -82l-98 17z" />
    <glyph glyph-name="Gbreve" unicode="&#x11e;" horiz-adv-x="771" 
d="M477 710q129 0 197.5 -66.5t57.5 -175.5h-161q2 50 -28.5 76.5t-92.5 26.5q-84 0 -135.5 -59t-69.5 -162q-39 -223 122 -223q72 0 119 38t60 108h-161l20 116h318l-68 -389h-149l20 116q-34 -61 -84 -93.5t-132 -32.5q-55 0 -102.5 22t-84 66.5t-49.5 112t1 159.5
q27 156 138.5 258t263.5 102zM358 854l77 9q-5 -28 10 -42.5t46 -14.5q65 0 77 57l74 -9q-11 -59 -57 -93t-108 -34q-61 0 -95 34t-24 93z" />
    <glyph glyph-name="gbreve" unicode="&#x11f;" horiz-adv-x="572" 
d="M288 510q52 0 79.5 -26t35.5 -67l16 83h145l-90 -509q-19 -105 -89 -153t-200 -48q-104 0 -155.5 47.5t-38.5 133.5h156q-8 -68 68 -68q51 0 78 19t36 69l16 97q-54 -89 -158 -89q-91 0 -132.5 67.5t-20.5 184.5q20 114 85.5 186.5t168.5 72.5zM297 387q-91 0 -114 -136
q-24 -134 69 -134q98 0 122 132q25 138 -77 138zM220 693l90 10q-11 -66 51 -66q63 0 75 66l87 -10q-12 -65 -63 -103.5t-114 -38.5q-62 0 -100 38.5t-26 103.5z" />
    <glyph glyph-name="Gdotaccent" unicode="&#x120;" horiz-adv-x="771" 
d="M477 710q129 0 197.5 -66.5t57.5 -175.5h-161q2 50 -28.5 76.5t-92.5 26.5q-84 0 -135.5 -59t-69.5 -162q-39 -223 122 -223q72 0 119 38t60 108h-161l20 116h318l-68 -389h-149l20 116q-34 -61 -84 -93.5t-132 -32.5q-55 0 -102.5 22t-84 66.5t-49.5 112t1 159.5
q27 156 138.5 258t263.5 102zM540 744h-138l21 113h137z" />
    <glyph glyph-name="gdotaccent" unicode="&#x121;" horiz-adv-x="572" 
d="M288 510q52 0 79.5 -26t35.5 -67l16 83h145l-90 -509q-19 -105 -89 -153t-200 -48q-104 0 -155.5 47.5t-38.5 133.5h156q-8 -68 68 -68q51 0 78 19t36 69l16 97q-54 -89 -158 -89q-91 0 -132.5 67.5t-20.5 184.5q20 114 85.5 186.5t168.5 72.5zM297 387q-91 0 -114 -136
q-24 -134 69 -134q98 0 122 132q25 138 -77 138zM426 571h-138l22 125h138z" />
    <glyph glyph-name="Gcommaaccent" unicode="&#x122;" horiz-adv-x="771" 
d="M477 710q129 0 197.5 -66.5t57.5 -175.5h-161q2 50 -28.5 76.5t-92.5 26.5q-84 0 -135.5 -59t-69.5 -162q-39 -223 122 -223q72 0 119 38t60 108h-161l20 116h318l-68 -389h-149l20 116q-34 -61 -84 -93.5t-132 -32.5q-55 0 -102.5 22t-84 66.5t-49.5 112t1 159.5
q27 156 138.5 258t263.5 102zM282 -38h124l-12 -68q-16 -96 -145 -148l-9 49q69 20 78 75h-52z" />
    <glyph glyph-name="gcommaaccent" unicode="&#x123;" horiz-adv-x="572" 
d="M288 510q52 0 79.5 -26t35.5 -67l16 83h145l-90 -509q-19 -105 -89 -153t-200 -48q-104 0 -155.5 47.5t-38.5 133.5h156q-8 -68 68 -68q51 0 78 19t36 69l16 97q-54 -89 -158 -89q-91 0 -132.5 67.5t-20.5 184.5q20 114 85.5 186.5t168.5 72.5zM297 387q-91 0 -114 -136
q-24 -134 69 -134q98 0 122 132q25 138 -77 138zM491 710l-81 -179h-127l129 179h79z" />
    <glyph glyph-name="Hcircumflex" unicode="&#x124;" horiz-adv-x="715" 
d="M597 0h-157l53 300h-245l-53 -300h-158l123 700h158l-49 -277h245l49 277h157zM632 738l-96 -15l-80 73l-106 -73l-91 15l153 142h117z" />
    <glyph glyph-name="hcircumflex" unicode="&#x125;" horiz-adv-x="565" 
d="M145 700h145l-47 -267q57 77 157 77q73 0 105.5 -45t18.5 -126l-59 -339h-146l54 308q7 40 -3 58t-45 18q-40 0 -70.5 -28.5t-39.5 -81.5l-48 -274h-145zM516 738l-96 -15l-80 73l-106 -73l-91 15l153 142h117z" />
    <glyph glyph-name="Hbar" unicode="&#x126;" horiz-adv-x="715" 
d="M597 0h-157l53 300h-245l-53 -300h-158l91 520h-52l15 90h53l16 90h158l-16 -90h245l16 90h157l-16 -90h50l-16 -90h-50zM269 423h245l17 97h-245z" />
    <glyph glyph-name="hbar" unicode="&#x127;" horiz-adv-x="565" 
d="M145 700h145l-11 -64h87l-14 -84h-88l-21 -119q57 77 157 77q73 0 105.5 -45t18.5 -126l-59 -339h-146l54 308q7 40 -3 58t-45 18q-40 0 -70.5 -28.5t-39.5 -81.5l-48 -274h-145l97 552h-52l15 84h52z" />
    <glyph glyph-name="Itilde" unicode="&#x128;" horiz-adv-x="312" 
d="M195 0h-158l123 700h158zM198 860q39 0 78.5 -25t52.5 -25q30 0 42 37l61 -10q-31 -109 -114 -109q-33 0 -74.5 27t-62.5 27q-34 0 -43 -42l-58 13q11 50 41 78.5t77 28.5z" />
    <glyph glyph-name="itilde" unicode="&#x129;" horiz-adv-x="270" 
d="M146 699q39 0 78 -27.5t52 -27.5q30 0 43 39l60 -10q-15 -56 -45 -88t-71 -32q-33 0 -74 29t-62 29q-34 0 -44 -45l-58 14q12 55 43 87t78 32zM167 0h-145l88 500h145z" />
    <glyph glyph-name="Imacron" unicode="&#x12a;" horiz-adv-x="312" 
d="M195 0h-158l123 700h158zM382 740h-272l15 84h271z" />
    <glyph glyph-name="imacron" unicode="&#x12b;" horiz-adv-x="270" 
d="M328 567h-272l16 93h272zM167 0h-145l88 500h145z" />
    <glyph glyph-name="Ibreve" unicode="&#x12c;" horiz-adv-x="312" 
d="M195 0h-158l123 700h158zM125 854l77 9q-10 -57 56 -57q65 0 77 57l74 -9q-11 -59 -57 -93t-108 -34q-61 0 -95 34t-24 93z" />
    <glyph glyph-name="ibreve" unicode="&#x12d;" horiz-adv-x="270" 
d="M63 693l90 10q-11 -66 51 -66q63 0 75 66l87 -10q-12 -65 -63 -103.5t-114 -38.5q-62 0 -100 38.5t-26 103.5zM167 0h-145l88 500h145z" />
    <glyph glyph-name="Iogonek" unicode="&#x12e;" horiz-adv-x="312" 
d="M106 0h-69l123 700h158l-123 -700h-13q-54 -37 -65 -86q-3 -19 7 -30t31 -11q7 0 21 2l-16 -89q-21 -6 -47 -6q-59 0 -88.5 28.5t-21.5 71.5q12 71 103 120z" />
    <glyph glyph-name="iogonek" unicode="&#x12f;" horiz-adv-x="269" 
d="M71 0h-49l88 500h145l-88 -500h-20q-54 -37 -65 -86q-3 -19 7 -30t31 -11q7 0 21 2l-16 -89q-21 -6 -47 -6q-59 0 -88.5 28.5t-21.5 71.5q12 71 103 120zM142 686h146l-22 -125h-146z" />
    <glyph glyph-name="Idotaccent" unicode="&#x130;" horiz-adv-x="312" 
d="M195 0h-158l123 700h158zM315 744h-138l21 113h137z" />
    <glyph glyph-name="dotlessi" unicode="&#x131;" horiz-adv-x="270" 
d="M167 0h-145l88 500h145z" />
    <glyph glyph-name="IJ" unicode="&#x132;" horiz-adv-x="872" 
d="M195 0h-158l123 700h158zM639 222l84 478h158l-83 -475q-19 -109 -103.5 -172t-207.5 -63q-105 0 -160 59t-50 160h163q-5 -37 12.5 -60.5t65.5 -23.5q56 0 84 22.5t37 74.5z" />
    <glyph glyph-name="ij" unicode="&#x133;" horiz-adv-x="539" 
d="M110 500h145l-88 -500h-145zM142 686h146l-22 -125h-146zM379 500h146l-92 -520q-11 -64 -54.5 -108.5t-95.5 -63t-107 -18.5l21 122q40 0 62 15.5t30 61.5zM412 686h146l-23 -125h-146z" />
    <glyph glyph-name="Jcircumflex" unicode="&#x134;" horiz-adv-x="582" 
d="M434 700h158l-84 -475q-19 -109 -103 -172t-207 -63q-106 0 -160.5 59t-49.5 160h163q-5 -37 12.5 -60.5t64.5 -23.5q56 0 84 22.5t37 74.5zM702 738l-96 -15l-80 73l-106 -73l-91 15l153 142h117z" />
    <glyph glyph-name="jcircumflex" unicode="&#x135;" horiz-adv-x="263" 
d="M70 500h137l-92 -520q-17 -95 -90.5 -147t-158.5 -52l20 114q39 0 62 20.5t32 73.5zM108 705h132l94 -150l-104 -17l-71 82l-100 -82l-98 17z" />
    <glyph glyph-name="Kcommaaccent" unicode="&#x136;" horiz-adv-x="692" 
d="M195 0h-158l123 700h158zM649 0h-189l-196 369l305 331h183l-304 -322zM244 -38h124l-12 -68q-16 -96 -145 -148l-9 49q69 20 78 75h-52z" />
    <glyph glyph-name="kcommaaccent" unicode="&#x137;" horiz-adv-x="548" 
d="M167 0h-145l123 700h145zM520 0h-171l-129 273l205 227h169l-211 -222zM184 -38h124l-12 -68q-16 -96 -145 -148l-9 49q69 20 78 75h-52z" />
    <glyph glyph-name="Lacute" unicode="&#x139;" horiz-adv-x="549" 
d="M499 0h-462l123 700h158l-102 -576h305zM332 880l132 -15l-186 -142h-91z" />
    <glyph glyph-name="lacute" unicode="&#x13a;" horiz-adv-x="269" 
d="M167 0h-145l123 700h145zM287 880l132 -15l-186 -142h-91z" />
    <glyph glyph-name="Lcommaaccent" unicode="&#x13b;" horiz-adv-x="549" 
d="M499 0h-462l123 700h158l-102 -576h305zM200 -38h124l-12 -68q-16 -96 -145 -148l-9 49q69 20 78 75h-52z" />
    <glyph glyph-name="lcommaaccent" unicode="&#x13c;" horiz-adv-x="269" 
d="M167 0h-145l123 700h145zM21 -38h124l-12 -68q-16 -96 -145 -148l-9 49q69 20 78 75h-52z" />
    <glyph glyph-name="Lcaron" unicode="&#x13d;" horiz-adv-x="549" 
d="M499 0h-462l123 700h158l-102 -576h305zM378 710h125l-82 -159h-71z" />
    <glyph glyph-name="lcaron" unicode="&#x13e;" horiz-adv-x="269" 
d="M167 0h-145l123 700h145zM330 710h125l-82 -159h-71z" />
    <glyph glyph-name="Lslash" unicode="&#x141;" horiz-adv-x="549" 
d="M499 0h-462l32 181l-30 -25l-58 71l113 96l66 377h158l-39 -219l79 67l59 -71l-163 -139l-38 -214h305z" />
    <glyph glyph-name="lslash" unicode="&#x142;" horiz-adv-x="269" 
d="M167 0h-145l57 322l-36 -30l-53 64l111 95l44 249h145l-18 -103l28 24l54 -65l-105 -89z" />
    <glyph glyph-name="Nacute" unicode="&#x143;" horiz-adv-x="735" 
d="M160 700h223l106 -430q10 -50 10 -92q5 53 13 99l75 423h154l-123 -700h-205l-115 471q-7 27 -9 88q-4 -46 -11 -89l-83 -470h-158zM513 880l132 -15l-186 -142h-91z" />
    <glyph glyph-name="nacute" unicode="&#x144;" horiz-adv-x="565" 
d="M110 500h145l-12 -67q57 77 153 77q73 0 107.5 -45.5t20.5 -125.5l-59 -339h-146l54 308q7 40 -3.5 58t-44.5 18q-40 0 -70.5 -28.5t-39.5 -81.5l-48 -274h-145zM386 718l147 -16l-182 -158h-99z" />
    <glyph glyph-name="Ncommaaccent" unicode="&#x145;" horiz-adv-x="735" 
d="M160 700h223l106 -430q10 -50 10 -92q5 53 13 99l75 423h154l-123 -700h-205l-115 471q-7 27 -9 88q-4 -46 -11 -89l-83 -470h-158zM277 -38h124l-12 -68q-16 -96 -145 -148l-9 49q69 20 78 75h-52z" />
    <glyph glyph-name="ncommaaccent" unicode="&#x146;" horiz-adv-x="565" 
d="M110 500h145l-12 -67q57 77 153 77q73 0 107.5 -45.5t20.5 -125.5l-59 -339h-146l54 308q7 40 -3.5 58t-44.5 18q-40 0 -70.5 -28.5t-39.5 -81.5l-48 -274h-145zM175 -38h124l-12 -68q-16 -96 -145 -148l-9 49q69 20 78 75h-52z" />
    <glyph glyph-name="Ncaron" unicode="&#x147;" horiz-adv-x="735" 
d="M160 700h223l106 -430q10 -50 10 -92q5 53 13 99l75 423h154l-123 -700h-205l-115 471q-7 27 -9 88q-4 -46 -11 -89l-83 -470h-158zM289 865l96 15l80 -72l107 72l91 -15l-153 -142h-117z" />
    <glyph glyph-name="ncaron" unicode="&#x148;" horiz-adv-x="565" 
d="M110 500h145l-12 -67q57 77 153 77q73 0 107.5 -45.5t20.5 -125.5l-59 -339h-146l54 308q7 40 -3.5 58t-44.5 18q-40 0 -70.5 -28.5t-39.5 -81.5l-48 -274h-145zM180 694l104 17l71 -82l100 82l98 -17l-146 -150h-133z" />
    <glyph glyph-name="napostrophe" unicode="&#x149;" horiz-adv-x="565" 
d="M110 500h145l-12 -67q57 77 153 77q73 0 107.5 -45.5t20.5 -125.5l-59 -339h-146l54 308q7 40 -3.5 58t-44.5 18q-40 0 -70.5 -28.5t-39.5 -81.5l-48 -274h-145zM156 737h124l-12 -68q-16 -96 -145 -148l-9 49q69 20 78 75h-52z" />
    <glyph glyph-name="Eng" unicode="&#x14a;" horiz-adv-x="735" 
d="M160 700h223l106 -430q10 -50 10 -92q5 53 13 99l75 423h154l-123 -700h-1l-3 -20q-17 -94 -94.5 -146.5t-164.5 -52.5l21 122q41 0 63 17t31 69l2 11h-59l-115 471q-7 27 -9 88q-4 -46 -11 -89l-83 -470h-158z" />
    <glyph glyph-name="eng" unicode="&#x14b;" horiz-adv-x="565" 
d="M111 500h145l-12 -67q57 77 156 77q73 0 105.5 -45t18.5 -126l-62 -352q-17 -94 -92.5 -142t-163.5 -49l21 123q78 0 90 66l57 323q7 40 -3.5 58t-44.5 18q-40 0 -70.5 -28.5t-39.5 -81.5l-48 -274h-145z" />
    <glyph glyph-name="Omacron" unicode="&#x14c;" horiz-adv-x="777" 
d="M449 571q-85 0 -135.5 -58.5t-68.5 -162.5q-19 -104 11 -162.5t115 -58.5q83 0 134.5 59t69.5 162t-12.5 162t-113.5 59zM474 710q151 0 224.5 -101.5t45.5 -258.5t-137 -258.5t-260 -101.5q-152 0 -226 101.5t-47 258.5q28 157 138 258.5t262 101.5zM614 740h-272l15 84
h271z" />
    <glyph glyph-name="omacron" unicode="&#x14d;" horiz-adv-x="530" 
d="M294 389q-91 0 -115 -138q-24 -140 66 -140q88 0 114 140q24 138 -65 138zM315 510q105 0 158 -69t32 -190q-22 -122 -99 -191.5t-182 -69.5q-107 0 -159.5 69.5t-30.5 191.5q21 121 97.5 190t183.5 69zM461 567h-272l16 93h272z" />
    <glyph glyph-name="Obreve" unicode="&#x14e;" horiz-adv-x="777" 
d="M449 571q-85 0 -135.5 -58.5t-68.5 -162.5q-19 -104 11 -162.5t115 -58.5q83 0 134.5 59t69.5 162t-12.5 162t-113.5 59zM474 710q151 0 224.5 -101.5t45.5 -258.5t-137 -258.5t-260 -101.5q-152 0 -226 101.5t-47 258.5q28 157 138 258.5t262 101.5zM357 854l77 9
q-10 -57 56 -57q65 0 77 57l74 -9q-11 -59 -57 -93t-108 -34q-61 0 -95 34t-24 93z" />
    <glyph glyph-name="obreve" unicode="&#x14f;" horiz-adv-x="530" 
d="M294 389q-91 0 -115 -138q-24 -140 66 -140q88 0 114 140q24 138 -65 138zM315 510q105 0 158 -69t32 -190q-22 -122 -99 -191.5t-182 -69.5q-107 0 -159.5 69.5t-30.5 191.5q21 121 97.5 190t183.5 69zM195 693l90 10q-11 -66 51 -66q63 0 75 66l87 -10
q-12 -65 -63 -103.5t-114 -38.5q-62 0 -100 38.5t-26 103.5z" />
    <glyph glyph-name="Ohungarumlaut" unicode="&#x150;" horiz-adv-x="777" 
d="M449 571q-85 0 -135.5 -58.5t-68.5 -162.5q-19 -104 11 -162.5t115 -58.5q83 0 134.5 59t69.5 162t-12.5 162t-113.5 59zM474 710q151 0 224.5 -101.5t45.5 -258.5t-137 -258.5t-260 -101.5q-152 0 -226 101.5t-47 258.5q28 157 138 258.5t262 101.5zM426 880l112 -15
l-147 -134h-78zM615 880l111 -15l-147 -134h-78z" />
    <glyph glyph-name="ohungarumlaut" unicode="&#x151;" horiz-adv-x="530" 
d="M294 389q-91 0 -115 -138q-24 -140 66 -140q88 0 114 140q24 138 -65 138zM315 510q105 0 158 -69t32 -190q-22 -122 -99 -191.5t-182 -69.5q-107 0 -159.5 69.5t-30.5 191.5q21 121 97.5 190t183.5 69zM292 718l111 -16l-150 -150h-78zM465 718l111 -16l-150 -150h-78z
" />
    <glyph glyph-name="OE" unicode="&#x152;" horiz-adv-x="1050" 
d="M474 710q41 0 84 -10h529l-21 -124h-359q48 -55 43 -153h227l-22 -122h-223q-31 -116 -105 -177h367l-21 -124h-538q-48 -10 -88 -10q-152 0 -226 101.5t-47 258.5q28 157 138 258.5t262 101.5zM449 571q-85 0 -135.5 -58.5t-68.5 -162.5q-19 -104 11 -162.5t115 -58.5
q83 0 134.5 59t69.5 162t-12.5 162t-113.5 59z" />
    <glyph glyph-name="oe" unicode="&#x153;" horiz-adv-x="853" 
d="M315 510q106 0 154 -71q80 71 193 71q89 0 136 -38.5t47 -93.5q0 -73 -61.5 -118t-195.5 -45h-89q-6 -57 11.5 -82t63.5 -25q33 0 57 16t31 44h145q-19 -76 -90.5 -127t-161.5 -51q-107 0 -157 66q-72 -66 -174 -66q-107 0 -159.5 69.5t-30.5 191.5q21 121 97.5 190
t183.5 69zM294 389q-91 0 -115 -138q-24 -140 66 -140q88 0 114 140q24 138 -65 138zM637 401q-81 0 -116 -88h74q100 0 100 49q0 16 -14 27.5t-44 11.5z" />
    <glyph glyph-name="Racute" unicode="&#x154;" horiz-adv-x="687" 
d="M597 0h-157q14 83 15.5 137t-10.5 82.5t-32 39.5t-53 11h-118l-47 -270h-158l123 700h338q108 0 153 -53.5t29 -138.5q-13 -77 -63.5 -123.5t-133.5 -53.5q38 -5 63.5 -21t45.5 -53t19.5 -99t-14.5 -158zM263 391h136q97 0 114 95q8 45 -10.5 67.5t-70.5 22.5h-136z
M489 880l132 -15l-186 -142h-91z" />
    <glyph glyph-name="racute" unicode="&#x155;" horiz-adv-x="365" 
d="M110 500h145l-18 -101q47 111 172 111l-24 -140q-10 4 -32 4q-51 0 -92 -36.5t-53 -105.5l-41 -232h-145zM325 718l147 -16l-182 -158h-99z" />
    <glyph glyph-name="Rcommaaccent" unicode="&#x156;" horiz-adv-x="687" 
d="M597 0h-157q14 83 15.5 137t-10.5 82.5t-32 39.5t-53 11h-118l-47 -270h-158l123 700h338q108 0 153 -53.5t29 -138.5q-13 -77 -63.5 -123.5t-133.5 -53.5q38 -5 63.5 -21t45.5 -53t19.5 -99t-14.5 -158zM263 391h136q97 0 114 95q8 45 -10.5 67.5t-70.5 22.5h-136z
M242 -38h124l-12 -68q-16 -96 -145 -148l-9 49q69 20 78 75h-52z" />
    <glyph glyph-name="rcommaaccent" unicode="&#x157;" horiz-adv-x="365" 
d="M110 500h145l-18 -101q47 111 172 111l-24 -140q-10 4 -32 4q-51 0 -92 -36.5t-53 -105.5l-41 -232h-145zM25 -38h124l-12 -68q-16 -96 -145 -148l-9 49q69 20 78 75h-52z" />
    <glyph glyph-name="Rcaron" unicode="&#x158;" horiz-adv-x="687" 
d="M597 0h-157q14 83 15.5 137t-10.5 82.5t-32 39.5t-53 11h-118l-47 -270h-158l123 700h338q108 0 153 -53.5t29 -138.5q-13 -77 -63.5 -123.5t-133.5 -53.5q38 -5 63.5 -21t45.5 -53t19.5 -99t-14.5 -158zM263 391h136q97 0 114 95q8 45 -10.5 67.5t-70.5 22.5h-136z
M272 865l96 15l80 -72l107 72l91 -15l-153 -142h-117z" />
    <glyph glyph-name="rcaron" unicode="&#x159;" horiz-adv-x="365" 
d="M110 500h145l-18 -101q47 111 172 111l-24 -140q-10 4 -32 4q-51 0 -92 -36.5t-53 -105.5l-41 -232h-145zM115 694l104 17l71 -82l100 82l98 -17l-146 -150h-133z" />
    <glyph glyph-name="Sacute" unicode="&#x15a;" horiz-adv-x="679" 
d="M428 710q129 0 193.5 -62t51.5 -163h-163q5 50 -18 75t-90 25q-112 0 -127 -80q-6 -39 20 -55.5t95 -24.5q132 -13 195 -60.5t46 -140.5q-19 -105 -109.5 -169.5t-228.5 -64.5q-129 0 -195 63t-53 165h164q-6 -50 19 -77t93 -27q117 0 132 86q7 42 -20 58.5t-102 26.5
q-135 16 -190 62.5t-38 143.5q17 95 103.5 157t221.5 62zM477 880l132 -15l-186 -142h-91z" />
    <glyph glyph-name="sacute" unicode="&#x15b;" horiz-adv-x="503" 
d="M300 510q105 0 152.5 -44.5t38.5 -119.5h-136q5 26 -13.5 42.5t-54.5 16.5q-75 0 -82 -46q-4 -21 13.5 -31t55.5 -15q35 -3 59 -7t54 -14.5t47 -26t26 -43t3 -63.5q-14 -78 -76 -123.5t-178 -45.5q-105 0 -152.5 45.5t-37.5 120.5h136q-4 -27 15.5 -43t60.5 -16
q81 0 87 44q5 24 -12.5 34.5t-54.5 14.5q-40 5 -63.5 9t-54.5 14.5t-46 26t-23.5 43t-1.5 64.5q12 70 77 116.5t161 46.5zM341 718l147 -16l-182 -158h-99z" />
    <glyph glyph-name="Scircumflex" unicode="&#x15c;" horiz-adv-x="679" 
d="M428 710q129 0 193.5 -62t51.5 -163h-163q5 50 -18 75t-90 25q-112 0 -127 -80q-6 -39 20 -55.5t95 -24.5q132 -13 195 -60.5t46 -140.5q-19 -105 -109.5 -169.5t-228.5 -64.5q-129 0 -195 63t-53 165h164q-6 -50 19 -77t93 -27q117 0 132 86q7 42 -20 58.5t-102 26.5
q-135 16 -190 62.5t-38 143.5q17 95 103.5 157t221.5 62zM619 738l-96 -15l-80 73l-106 -73l-91 15l153 142h117z" />
    <glyph glyph-name="scircumflex" unicode="&#x15d;" horiz-adv-x="503" 
d="M300 510q105 0 152.5 -44.5t38.5 -119.5h-136q5 26 -13.5 42.5t-54.5 16.5q-75 0 -82 -46q-4 -21 13.5 -31t55.5 -15q35 -3 59 -7t54 -14.5t47 -26t26 -43t3 -63.5q-14 -78 -76 -123.5t-178 -45.5q-105 0 -152.5 45.5t-37.5 120.5h136q-4 -27 15.5 -43t60.5 -16
q81 0 87 44q5 24 -12.5 34.5t-54.5 14.5q-40 5 -63.5 9t-54.5 14.5t-46 26t-23.5 43t-1.5 64.5q12 70 77 116.5t161 46.5zM278 705h132l94 -150l-104 -17l-71 82l-100 -82l-98 17z" />
    <glyph glyph-name="Scedilla" unicode="&#x15e;" horiz-adv-x="679" 
d="M428 710q129 0 193.5 -62t51.5 -163h-163q5 50 -18 75t-90 25q-112 0 -127 -80q-6 -39 20 -55.5t95 -24.5q132 -13 195 -60.5t46 -140.5q-18 -98 -98 -161t-204 -72l-41 -44q16 3 32 3q44 0 68.5 -21.5t17.5 -59.5q-9 -50 -57 -78.5t-109 -28.5q-74 0 -109 38l49 48
q15 -23 62 -23q48 0 56 35q3 20 -14.5 31t-56.5 11q-14 0 -54 -4l71 95q-106 12 -158.5 73t-40.5 152h164q-6 -50 19 -77t93 -27q117 0 132 86q7 42 -20 58.5t-102 26.5q-135 16 -190 62.5t-38 143.5q17 95 103.5 157t221.5 62z" />
    <glyph glyph-name="Scedilla" unicode="&#xf6c1;" horiz-adv-x="679" 
d="M428 710q129 0 193.5 -62t51.5 -163h-163q5 50 -18 75t-90 25q-112 0 -127 -80q-6 -39 20 -55.5t95 -24.5q132 -13 195 -60.5t46 -140.5q-18 -98 -98 -161t-204 -72l-41 -44q16 3 32 3q44 0 68.5 -21.5t17.5 -59.5q-9 -50 -57 -78.5t-109 -28.5q-74 0 -109 38l49 48
q15 -23 62 -23q48 0 56 35q3 20 -14.5 31t-56.5 11q-14 0 -54 -4l71 95q-106 12 -158.5 73t-40.5 152h164q-6 -50 19 -77t93 -27q117 0 132 86q7 42 -20 58.5t-102 26.5q-135 16 -190 62.5t-38 143.5q17 95 103.5 157t221.5 62z" />
    <glyph glyph-name="scedilla" unicode="&#x15f;" horiz-adv-x="503" 
d="M300 510q105 0 152.5 -44.5t38.5 -119.5h-136q5 26 -13.5 42.5t-54.5 16.5q-75 0 -82 -46q-4 -21 13.5 -31t55.5 -15q35 -3 59 -7t54 -14.5t47 -26t26 -43t3 -63.5q-27 -154 -219 -168l-41 -44q17 3 32 3q44 0 68.5 -21.5t17.5 -59.5q-9 -50 -57 -78.5t-109 -28.5
q-74 0 -109 38l49 48q15 -23 62 -23q48 0 56 35q3 20 -14.5 31t-56.5 11q-14 0 -54 -4l71 95q-79 10 -114 54t-26 109h136q-4 -27 15.5 -43t60.5 -16q81 0 87 44q5 24 -12.5 34.5t-54.5 14.5q-40 5 -63.5 9t-54.5 14.5t-46 26t-23.5 43t-1.5 64.5q12 70 77 116.5t161 46.5z
" />
    <glyph glyph-name="scedilla" unicode="&#xf6c2;" horiz-adv-x="503" 
d="M300 510q105 0 152.5 -44.5t38.5 -119.5h-136q5 26 -13.5 42.5t-54.5 16.5q-75 0 -82 -46q-4 -21 13.5 -31t55.5 -15q35 -3 59 -7t54 -14.5t47 -26t26 -43t3 -63.5q-27 -154 -219 -168l-41 -44q17 3 32 3q44 0 68.5 -21.5t17.5 -59.5q-9 -50 -57 -78.5t-109 -28.5
q-74 0 -109 38l49 48q15 -23 62 -23q48 0 56 35q3 20 -14.5 31t-56.5 11q-14 0 -54 -4l71 95q-79 10 -114 54t-26 109h136q-4 -27 15.5 -43t60.5 -16q81 0 87 44q5 24 -12.5 34.5t-54.5 14.5q-40 5 -63.5 9t-54.5 14.5t-46 26t-23.5 43t-1.5 64.5q12 70 77 116.5t161 46.5z
" />
    <glyph glyph-name="Scaron" unicode="&#x160;" horiz-adv-x="679" 
d="M428 710q129 0 193.5 -62t51.5 -163h-163q5 50 -18 75t-90 25q-112 0 -127 -80q-6 -39 20 -55.5t95 -24.5q132 -13 195 -60.5t46 -140.5q-19 -105 -109.5 -169.5t-228.5 -64.5q-129 0 -195 63t-53 165h164q-6 -50 19 -77t93 -27q117 0 132 86q7 42 -20 58.5t-102 26.5
q-135 16 -190 62.5t-38 143.5q17 95 103.5 157t221.5 62zM265 865l96 15l80 -72l107 72l91 -15l-153 -142h-117z" />
    <glyph glyph-name="scaron" unicode="&#x161;" horiz-adv-x="503" 
d="M300 510q105 0 152.5 -44.5t38.5 -119.5h-136q5 26 -13.5 42.5t-54.5 16.5q-75 0 -82 -46q-4 -21 13.5 -31t55.5 -15q35 -3 59 -7t54 -14.5t47 -26t26 -43t3 -63.5q-14 -78 -76 -123.5t-178 -45.5q-105 0 -152.5 45.5t-37.5 120.5h136q-4 -27 15.5 -43t60.5 -16
q81 0 87 44q5 24 -12.5 34.5t-54.5 14.5q-40 5 -63.5 9t-54.5 14.5t-46 26t-23.5 43t-1.5 64.5q12 70 77 116.5t161 46.5zM152 694l104 17l71 -82l100 82l98 -17l-146 -150h-133z" />
    <glyph glyph-name="Tcommaaccent" unicode="&#x162;" horiz-adv-x="623" 
d="M350 0h-157l101 576h-222l21 124h602l-21 -124h-222zM205 -38h124l-12 -68q-16 -96 -145 -148l-9 49q69 20 78 75h-52z" />
    <glyph glyph-name="Tcommaaccent" unicode="&#x21a;" horiz-adv-x="623" 
d="M350 0h-157l101 576h-222l21 124h602l-21 -124h-222zM205 -38h124l-12 -68q-16 -96 -145 -148l-9 49q69 20 78 75h-52z" />
    <glyph glyph-name="tcommaaccent" unicode="&#x163;" horiz-adv-x="359" 
d="M156 618h145l-20 -118h117l-20 -111h-117l-37 -207q-7 -39 5 -54.5t45 -15.5q25 0 56 8l-20 -121q-44 -9 -81 -9q-85 0 -126.5 42t-26.5 131l40 226h-70l20 111h70zM111 -38h124l-12 -68q-16 -96 -145 -148l-9 49q69 20 78 75h-52z" />
    <glyph glyph-name="tcommaaccent" unicode="&#x21b;" horiz-adv-x="359" 
d="M156 618h145l-20 -118h117l-20 -111h-117l-37 -207q-7 -39 5 -54.5t45 -15.5q25 0 56 8l-20 -121q-44 -9 -81 -9q-85 0 -126.5 42t-26.5 131l40 226h-70l20 111h70zM111 -38h124l-12 -68q-16 -96 -145 -148l-9 49q69 20 78 75h-52z" />
    <glyph glyph-name="Tcaron" unicode="&#x164;" horiz-adv-x="623" 
d="M350 0h-157l101 576h-222l21 124h602l-21 -124h-222zM237 865l96 15l80 -72l107 72l91 -15l-153 -142h-117z" />
    <glyph glyph-name="tcaron" unicode="&#x165;" horiz-adv-x="359" 
d="M156 618h145l-20 -118h117l-20 -111h-117l-37 -207q-7 -39 5 -54.5t45 -15.5q25 0 56 8l-20 -121q-44 -9 -81 -9q-85 0 -126.5 42t-26.5 131l40 226h-70l20 111h70zM359 710h125l-82 -159h-71z" />
    <glyph glyph-name="Tbar" unicode="&#x166;" horiz-adv-x="623" 
d="M350 0h-157l47 270h-87l16 93h88l37 213h-222l21 124h602l-21 -124h-222l-38 -213h85l-16 -93h-85z" />
    <glyph glyph-name="tbar" unicode="&#x167;" horiz-adv-x="359" 
d="M156 618h145l-20 -118h117l-20 -111h-117l-15 -84h87l-15 -84h-87l-7 -39q-7 -39 5 -54.5t45 -15.5q25 0 56 8l-20 -121q-44 -9 -81 -9q-85 0 -126.5 42t-26.5 131l10 58h-53l16 84h52l15 84h-70l20 111h70z" />
    <glyph glyph-name="Utilde" unicode="&#x168;" horiz-adv-x="730" 
d="M507 253l78 447h159l-84 -477q-20 -112 -119 -172.5t-222 -60.5q-122 0 -196.5 60t-54.5 173l84 477h158l-79 -447q-13 -69 15.5 -100t100.5 -31t109.5 31t50.5 100zM406 860q39 0 78.5 -25t52.5 -25q30 0 42 37l61 -10q-31 -109 -114 -109q-33 0 -74.5 27t-62.5 27
q-34 0 -43 -42l-58 13q11 50 41 78.5t77 28.5z" />
    <glyph glyph-name="utilde" unicode="&#x169;" horiz-adv-x="565" 
d="M108 500h146l-55 -308q-7 -40 3.5 -58t44.5 -18q41 0 70.5 28.5t38.5 81.5l49 274h145l-88 -500h-145l12 67q-59 -77 -153 -77q-73 0 -108 45.5t-21 125.5zM288 699q39 0 78 -27.5t52 -27.5q30 0 43 39l60 -10q-15 -56 -45 -88t-71 -32q-33 0 -74 29t-62 29
q-34 0 -44 -45l-58 14q12 55 43 87t78 32z" />
    <glyph glyph-name="Umacron" unicode="&#x16a;" horiz-adv-x="730" 
d="M507 253l78 447h159l-84 -477q-20 -112 -119 -172.5t-222 -60.5q-122 0 -196.5 60t-54.5 173l84 477h158l-79 -447q-13 -69 15.5 -100t100.5 -31t109.5 31t50.5 100zM591 740h-272l15 84h271z" />
    <glyph glyph-name="umacron" unicode="&#x16b;" horiz-adv-x="565" 
d="M108 500h146l-55 -308q-7 -40 3.5 -58t44.5 -18q41 0 70.5 28.5t38.5 81.5l49 274h145l-88 -500h-145l12 67q-59 -77 -153 -77q-73 0 -108 45.5t-21 125.5zM474 567h-272l16 93h272z" />
    <glyph glyph-name="Ubreve" unicode="&#x16c;" horiz-adv-x="730" 
d="M507 253l78 447h159l-84 -477q-20 -112 -119 -172.5t-222 -60.5q-122 0 -196.5 60t-54.5 173l84 477h158l-79 -447q-13 -69 15.5 -100t100.5 -31t109.5 31t50.5 100zM333 854l77 9q-10 -57 56 -57q65 0 77 57l74 -9q-11 -59 -57 -93t-108 -34q-61 0 -95 34t-24 93z" />
    <glyph glyph-name="ubreve" unicode="&#x16d;" horiz-adv-x="565" 
d="M108 500h146l-55 -308q-7 -40 3.5 -58t44.5 -18q41 0 70.5 28.5t38.5 81.5l49 274h145l-88 -500h-145l12 67q-59 -77 -153 -77q-73 0 -108 45.5t-21 125.5zM209 693l90 10q-11 -66 51 -66q63 0 75 66l87 -10q-12 -65 -63 -103.5t-114 -38.5q-62 0 -100 38.5t-26 103.5z
" />
    <glyph glyph-name="Uring" unicode="&#x16e;" horiz-adv-x="730" 
d="M507 253l78 447h159l-84 -477q-20 -112 -119 -172.5t-222 -60.5q-122 0 -196.5 60t-54.5 173l84 477h158l-79 -447q-13 -69 15.5 -100t100.5 -31t109.5 31t50.5 100zM481 892q55 0 87 -24t24 -68t-47.5 -67t-95.5 -23q-55 0 -86.5 23t-23.5 67q7 44 47 68t95 24zM471 834
q-49 0 -55 -34q-4 -19 8 -27t34 -8q49 0 55 35q3 18 -9 26t-33 8z" />
    <glyph glyph-name="uring" unicode="&#x16f;" horiz-adv-x="565" 
d="M108 500h146l-55 -308q-7 -40 3.5 -58t44.5 -18q41 0 70.5 28.5t38.5 81.5l49 274h145l-88 -500h-145l12 67q-59 -77 -153 -77q-73 0 -108 45.5t-21 125.5zM367 735q55 0 88 -27.5t24 -76.5t-51 -76t-98 -27t-89 27t-24 76t52 76.5t98 27.5zM354 666q-20 0 -34 -9.5
t-16 -24.5q-3 -19 7.5 -27.5t30.5 -8.5q43 0 49 34q3 17 -8 26.5t-29 9.5z" />
    <glyph glyph-name="Uhungarumlaut" unicode="&#x170;" horiz-adv-x="730" 
d="M507 253l78 447h159l-84 -477q-20 -112 -119 -172.5t-222 -60.5q-122 0 -196.5 60t-54.5 173l84 477h158l-79 -447q-13 -69 15.5 -100t100.5 -31t109.5 31t50.5 100zM417 880l112 -15l-147 -134h-78zM606 880l111 -15l-147 -134h-78z" />
    <glyph glyph-name="uhungarumlaut" unicode="&#x171;" horiz-adv-x="565" 
d="M108 500h146l-55 -308q-7 -40 3.5 -58t44.5 -18q41 0 70.5 28.5t38.5 81.5l49 274h145l-88 -500h-145l12 67q-59 -77 -153 -77q-73 0 -108 45.5t-21 125.5zM296 718l111 -16l-150 -150h-78zM469 718l111 -16l-150 -150h-78z" />
    <glyph glyph-name="Uogonek" unicode="&#x172;" horiz-adv-x="730" 
d="M507 253l78 447h159l-84 -477q-17 -96 -94.5 -154.5t-181.5 -73.5q-49 -37 -57 -81q-3 -19 7 -30t31 -11q7 0 21 2l-16 -89q-21 -6 -47 -6q-59 0 -88.5 28.5t-21.5 71.5q10 64 86 111q-115 5 -182.5 64.5t-48.5 167.5l84 477h158l-79 -447q-13 -69 15.5 -100t100.5 -31
t109.5 31t50.5 100z" />
    <glyph glyph-name="uogonek" unicode="&#x173;" horiz-adv-x="565" 
d="M357 0h-40l12 67q-59 -77 -153 -77q-73 0 -108 45.5t-21 125.5l61 339h146l-55 -308q-7 -40 3.5 -58t44.5 -18q41 0 70.5 28.5t38.5 81.5l49 274h145l-88 -500h-29q-54 -37 -65 -86q-3 -19 7 -30t31 -11q7 0 21 2l-16 -89q-21 -6 -47 -6q-59 0 -88.5 28.5t-21.5 71.5
q12 71 103 120z" />
    <glyph glyph-name="Wcircumflex" unicode="&#x174;" horiz-adv-x="983" 
d="M95 700h167l28 -454q0 -67 -2 -86q19 62 30 86l187 454h143l29 -454q2 -41 -1 -86q16 54 29 86l192 454h157l-306 -700h-194l-23 373q-2 24 3 86q-14 -49 -27 -86l-154 -373h-194zM767 738l-96 -15l-80 73l-106 -73l-91 15l153 142h117z" />
    <glyph glyph-name="wcircumflex" unicode="&#x175;" horiz-adv-x="773" 
d="M46 500h146l22 -289q2 -20 0 -83q22 69 28 83l126 289h137l24 -289q2 -21 0 -83q22 69 28 83l125 289h141l-233 -500h-171l-17 237q-3 40 1 98q-14 -56 -34 -98l-102 -237h-165zM404 705h132l94 -150l-104 -17l-71 82l-100 -82l-98 17z" />
    <glyph glyph-name="Ycircumflex" unicode="&#x176;" horiz-adv-x="671" 
d="M375 0h-158l52 297l-198 403h185l121 -269l217 269h172l-339 -403zM612 738l-96 -15l-80 73l-106 -73l-91 15l153 142h117z" />
    <glyph glyph-name="ycircumflex" unicode="&#x177;" horiz-adv-x="497" 
d="M43 500h152l35 -289q5 -29 1 -90q26 75 34 90l142 289h143l-267 -520q-33 -65 -65.5 -104t-73.5 -57.5t-78 -23.5t-100 -5l22 126q93 0 119 37l18 28zM271 705h132l94 -150l-104 -17l-71 82l-100 -82l-98 17z" />
    <glyph glyph-name="Ydieresis" unicode="&#x178;" horiz-adv-x="671" 
d="M375 0h-158l52 297l-198 403h185l121 -269l217 269h172l-339 -403zM375 744h-106l19 105h106zM589 744h-106l19 105h106z" />
    <glyph glyph-name="Zacute" unicode="&#x179;" horiz-adv-x="631" 
d="M556 0h-556l21 124l444 452h-355l22 124h543l-21 -124l-444 -452h367zM473 880l132 -15l-186 -142h-91z" />
    <glyph glyph-name="zacute" unicode="&#x17a;" horiz-adv-x="461" 
d="M395 0h-408l19 112l284 277h-221l20 111h390l-20 -111l-283 -277h238zM336 718l147 -16l-182 -158h-99z" />
    <glyph glyph-name="Zdotaccent" unicode="&#x17b;" horiz-adv-x="631" 
d="M556 0h-556l21 124l444 452h-355l22 124h543l-21 -124l-444 -452h367zM475 744h-138l21 113h137z" />
    <glyph glyph-name="zdotaccent" unicode="&#x17c;" horiz-adv-x="461" 
d="M395 0h-408l19 112l284 277h-221l20 111h390l-20 -111l-283 -277h238zM365 571h-138l22 125h138z" />
    <glyph glyph-name="Zcaron" unicode="&#x17d;" horiz-adv-x="631" 
d="M556 0h-556l21 124l444 452h-355l22 124h543l-21 -124l-444 -452h367zM246 865l96 15l80 -72l107 72l91 -15l-153 -142h-117z" />
    <glyph glyph-name="zcaron" unicode="&#x17e;" horiz-adv-x="461" 
d="M395 0h-408l19 112l284 277h-221l20 111h390l-20 -111l-283 -277h238zM127 694l104 17l71 -82l100 82l98 -17l-146 -150h-133z" />
    <glyph glyph-name="longs" unicode="&#x17f;" horiz-adv-x="287" 
d="M328 710q34 0 77 -8l-21 -119q-31 8 -59 8q-56 0 -67 -59l-128 -732h-145l128 730q15 89 73 134.5t142 45.5z" />
    <glyph glyph-name="florin" unicode="&#x192;" horiz-adv-x="540" 
d="M465 708q34 0 77 -8l-21 -120q-38 10 -60 10q-63 0 -74 -60l-5 -30h125l-20 -111h-125l-74 -419q-15 -89 -76 -135t-146 -46q-38 0 -78 9l21 119q35 -9 59 -9q64 0 75 62l74 419h-70l21 111h69l4 28q17 89 78 134.5t146 45.5z" />
    <glyph glyph-name="AEacute" unicode="&#x1fc;" horiz-adv-x="945" 
d="M867 0h-492l30 172h-234l-138 -172h-175l572 700h552l-22 -124h-326l-27 -153h264l-22 -122h-264l-31 -177h334zM264 292h162l46 262zM678 880l132 -15l-186 -142h-91z" />
    <glyph glyph-name="aeacute" unicode="&#x1fd;" horiz-adv-x="868" 
d="M284 510q91 0 119 -93l15 83h106l-12 -69q76 79 173 79q88 0 132 -38t44 -94q0 -73 -61.5 -118t-196.5 -45h-89q-6 -57 11.5 -82t63.5 -25q33 0 57 16t31 44h145q-19 -76 -90.5 -127t-161.5 -51q-85 0 -125 59l-8 -49h-106l14 82q-63 -92 -152 -92q-91 0 -135.5 72
t-23.5 188q20 117 89.5 188.5t160.5 71.5zM298 387q-89 0 -114 -137t66 -137q51 0 82 37t42 98q25 139 -76 139zM532 718l147 -16l-182 -158h-99zM653 401q-82 0 -117 -88h74q100 0 100 49q0 16 -14 27.5t-43 11.5z" />
    <glyph glyph-name="Oslashacute" unicode="&#x1fe;" horiz-adv-x="777" 
d="M650 700h143l-89 -100q66 -100 40 -250q-28 -157 -137 -258.5t-260 -101.5q-90 0 -153 37l-24 -27h-144l89 100q-68 99 -41 250q28 157 138 258.5t262 101.5q87 0 152 -37zM575 350q10 60 4 109l-280 -314q28 -16 72 -16q83 0 134.5 59t69.5 162zM449 571
q-85 0 -135.5 -58.5t-68.5 -162.5q-12 -65 -5 -110l280 315q-30 16 -71 16zM515 880l132 -15l-186 -142h-91z" />
    <glyph glyph-name="oslashacute" unicode="&#x1ff;" horiz-adv-x="529" 
d="M315 510q64 0 111 -25l14 15h109l-64 -71q40 -65 20 -178q-22 -125 -96.5 -193t-184.5 -68q-67 0 -112 24l-12 -14h-110l63 70q-40 68 -19 181q22 124 95.5 191.5t185.5 67.5zM361 718l147 -16l-182 -158h-99zM293 384q-47 0 -77 -34.5t-41 -98.5q-6 -30 -5 -51l159 177
q-17 7 -36 7zM364 251q4 23 4 48l-157 -176q15 -6 35 -6q93 0 118 134z" />
    <glyph glyph-name="Scommaaccent" unicode="&#x218;" horiz-adv-x="679" 
d="M428 710q129 0 193.5 -62t51.5 -163h-163q5 50 -18 75t-90 25q-112 0 -127 -80q-6 -39 20 -55.5t95 -24.5q132 -13 195 -60.5t46 -140.5q-19 -105 -109.5 -169.5t-228.5 -64.5q-129 0 -195 63t-53 165h164q-6 -50 19 -77t93 -27q117 0 132 86q7 42 -20 58.5t-102 26.5
q-135 16 -190 62.5t-38 143.5q17 95 103.5 157t221.5 62zM233 -38h124l-12 -68q-16 -96 -145 -148l-9 49q69 20 78 75h-52z" />
    <glyph glyph-name="scommaaccent" unicode="&#x219;" horiz-adv-x="503" 
d="M300 510q105 0 152.5 -44.5t38.5 -119.5h-136q5 26 -13.5 42.5t-54.5 16.5q-75 0 -82 -46q-4 -21 13.5 -31t55.5 -15q35 -3 59 -7t54 -14.5t47 -26t26 -43t3 -63.5q-14 -78 -76 -123.5t-178 -45.5q-105 0 -152.5 45.5t-37.5 120.5h136q-4 -27 15.5 -43t60.5 -16
q81 0 87 44q5 24 -12.5 34.5t-54.5 14.5q-40 5 -63.5 9t-54.5 14.5t-46 26t-23.5 43t-1.5 64.5q12 70 77 116.5t161 46.5zM146 -38h124l-12 -68q-16 -96 -145 -148l-9 49q69 20 78 75h-52z" />
    <glyph glyph-name="circumflex" unicode="&#x2c6;" horiz-adv-x="458" 
d="M247 705h132l94 -150l-104 -17l-71 82l-100 -82l-98 17z" />
    <glyph glyph-name="caron" unicode="&#x2c7;" horiz-adv-x="458" 
d="M124 694l104 17l71 -82l100 82l98 -17l-146 -150h-133z" />
    <glyph glyph-name="breve" unicode="&#x2d8;" horiz-adv-x="367" 
d="M114 693l90 10q-11 -66 51 -66q63 0 75 66l87 -10q-12 -65 -63 -103.5t-114 -38.5q-62 0 -100 38.5t-26 103.5z" />
    <glyph glyph-name="dotaccent" unicode="&#x2d9;" horiz-adv-x="237" 
d="M248 571h-138l22 125h138z" />
    <glyph glyph-name="ring" unicode="&#x2da;" horiz-adv-x="354" 
d="M266 735q55 0 88 -27.5t24 -76.5t-51 -76t-98 -27t-89 27t-24 76t52 76.5t98 27.5zM253 666q-20 0 -34 -9.5t-16 -24.5q-3 -19 7.5 -27.5t30.5 -8.5q43 0 49 34q3 17 -8 26.5t-29 9.5z" />
    <glyph glyph-name="ogonek" unicode="&#x2db;" horiz-adv-x="275" 
d="M92 0h76q-54 -37 -65 -86q-3 -19 7 -30t31 -11q7 0 21 2l-16 -89q-21 -6 -47 -6q-59 0 -88.5 28.5t-21.5 71.5q12 71 103 120z" />
    <glyph glyph-name="tilde" unicode="&#x2dc;" horiz-adv-x="442" 
d="M235 699q39 0 78 -27.5t52 -27.5q30 0 43 39l60 -10q-15 -56 -45 -88t-71 -32q-33 0 -74 29t-62 29q-34 0 -44 -45l-58 14q12 55 43 87t78 32z" />
    <glyph glyph-name="hungarumlaut" unicode="&#x2dd;" horiz-adv-x="474" 
d="M224 718l111 -16l-150 -150h-78zM397 718l111 -16l-150 -150h-78z" />
    <glyph glyph-name="tonos" unicode="&#x384;" horiz-adv-x="261" 
d="M162 716h147l-106 -180h-79z" />
    <glyph glyph-name="dieresistonos" unicode="&#x385;" horiz-adv-x="448" 
d="M203 571h-95l19 108h95zM313 546h-65l10 183h111zM460 571h-95l19 108h95z" />
    <glyph glyph-name="Alphatonos" unicode="&#x386;" horiz-adv-x="658" 
d="M302 700h222l108 -700h-174l-24 172h-238l-84 -172h-166zM387 581q-16 -44 -38 -92l-96 -197h166l-26 199q-4 42 -6 90zM102 716h147l-106 -180h-79z" />
    <glyph glyph-name="anoteleia" unicode="&#x387;" horiz-adv-x="593" 
d="M215 403h144l-26 -143h-143z" />
    <glyph glyph-name="Epsilontonos" unicode="&#x388;" horiz-adv-x="607" 
d="M16 716h147l-106 -180h-79zM529 0h-492l123 700h484l-22 -124h-326l-27 -153h264l-22 -122h-263l-32 -177h335z" />
    <glyph glyph-name="Etatonos" unicode="&#x389;" horiz-adv-x="715" 
d="M597 0h-157l53 300h-245l-53 -300h-158l123 700h158l-49 -277h245l49 277h157zM16 716h147l-106 -180h-79z" />
    <glyph glyph-name="Iotatonos" unicode="&#x38a;" horiz-adv-x="312" 
d="M160 700h158l-123 -700h-158zM16 716h147l-106 -180h-79z" />
    <glyph glyph-name="Omicrontonos" unicode="&#x38c;" horiz-adv-x="777" 
d="M57 716h147l-106 -180h-79zM449 571q-85 0 -135.5 -58.5t-68.5 -162.5q-19 -104 11 -162.5t115 -58.5q83 0 134.5 59t69.5 162t-12.5 162t-113.5 59zM474 710q151 0 224.5 -101.5t45.5 -258.5t-137 -258.5t-260 -101.5q-152 0 -226 101.5t-47 258.5q28 157 138 258.5
t262 101.5z" />
    <glyph glyph-name="Upsilontonos" unicode="&#x38e;" horiz-adv-x="671" 
d="M375 0h-158l52 297l-188 382l-84 -143h-79l38 180h147l-10 -16h163l121 -269l217 269h172l-339 -403z" />
    <glyph glyph-name="Omegatonos" unicode="&#x38f;" horiz-adv-x="779" 
d="M474 710q153 0 227 -91.5t46 -245.5q-13 -79 -58 -151t-101 -98h154l-21 -124h-328l23 135q67 16 104 69.5t55 156.5q18 100 -13 155t-112 55q-83 0 -133.5 -55t-68.5 -155q-18 -102 0.5 -155t80.5 -71l-24 -135h-327l21 124h152q-47 25 -66 97.5t-5 151.5
q27 154 133.5 245.5t260.5 91.5zM48 716h147l-106 -180h-79z" />
    <glyph glyph-name="iotadieresistonos" unicode="&#x390;" horiz-adv-x="282" 
d="M110 500h145l-61 -342q-7 -42 32 -42q12 0 25 3l-22 -120q-35 -7 -74 -7q-66 0 -96 24t-21 79zM112 571h-95l19 108h95zM222 546h-65l10 183h111zM369 571h-95l19 108h95z" />
    <glyph glyph-name="Alpha" unicode="&#x391;" horiz-adv-x="658" 
d="M302 700h222l108 -700h-174l-24 172h-238l-84 -172h-166zM387 581q-16 -44 -38 -92l-96 -197h166l-26 199q-4 42 -6 90z" />
    <glyph glyph-name="Beta" unicode="&#x392;" horiz-adv-x="686" 
d="M268 416h124q96 0 111 83q7 39 -12 58t-71 19h-124zM375 0h-338l123 700h327q104 0 151 -47.5t34 -121.5q-25 -134 -173 -162q80 -12 113 -58.5t21 -118.5q-15 -84 -84.5 -138t-173.5 -54zM216 124h132q115 0 131 90q7 44 -16 69t-81 25h-134z" />
    <glyph glyph-name="Gamma" unicode="&#x393;" horiz-adv-x="549" 
d="M160 700h462l-21 -124h-305l-101 -576h-158z" />
    <glyph glyph-name="Delta" unicode="&#x394;" horiz-adv-x="658" 
d="M388 580q-20 -54 -35 -85l-183 -371h273l-51 373q-4 36 -4 83zM303 700h220l109 -700h-686z" />
    <glyph glyph-name="Delta" unicode="&#x2206;" horiz-adv-x="658" 
d="M388 580q-20 -54 -35 -85l-183 -371h273l-51 373q-4 36 -4 83zM303 700h220l109 -700h-686z" />
    <glyph glyph-name="Epsilon" unicode="&#x395;" horiz-adv-x="607" 
d="M529 0h-492l123 700h484l-22 -124h-326l-27 -153h264l-22 -122h-263l-32 -177h335z" />
    <glyph glyph-name="Zeta" unicode="&#x396;" horiz-adv-x="631" 
d="M556 0h-556l21 124l444 452h-355l22 124h543l-21 -124l-444 -452h367z" />
    <glyph glyph-name="Eta" unicode="&#x397;" horiz-adv-x="715" 
d="M597 0h-157l53 300h-245l-53 -300h-158l123 700h158l-49 -277h245l49 277h157z" />
    <glyph glyph-name="Theta" unicode="&#x398;" horiz-adv-x="777" 
d="M449 571q-85 0 -135.5 -58.5t-68.5 -162.5q-19 -104 11 -162.5t115 -58.5q83 0 134.5 59t69.5 162t-12.5 162t-113.5 59zM474 710q151 0 224.5 -101.5t45.5 -258.5t-137 -258.5t-260 -101.5q-152 0 -226 101.5t-47 258.5q28 157 138 258.5t262 101.5zM303 414h236
l-20 -114h-236z" />
    <glyph glyph-name="Iota" unicode="&#x399;" horiz-adv-x="312" 
d="M160 700h158l-123 -700h-158z" />
    <glyph glyph-name="Kappa" unicode="&#x39a;" horiz-adv-x="692" 
d="M195 0h-158l123 700h158zM649 0h-189l-196 369l305 331h183l-304 -322z" />
    <glyph glyph-name="Lambda" unicode="&#x39b;" horiz-adv-x="658" 
d="M303 700h218l111 -700h-172l-70 497q-3 20 -5 65q-13 -35 -27 -65l-245 -497h-167z" />
    <glyph glyph-name="Mu" unicode="&#x39c;" horiz-adv-x="918" 
d="M160 700h246l49 -406q3 -41 -1 -107q14 54 36 107l190 406h244l-123 -700h-157l82 465q13 73 22 112q-25 -73 -39 -104l-226 -473h-128l-60 473q-3 40 -1 104q-2 -17 -9 -60.5t-8 -50.5l-82 -466h-158z" />
    <glyph glyph-name="Nu" unicode="&#x39d;" horiz-adv-x="735" 
d="M160 700h223l106 -430q10 -50 10 -92q5 53 13 99l75 423h154l-123 -700h-205l-115 471q-7 27 -9 88q-4 -46 -11 -89l-83 -470h-158z" />
    <glyph glyph-name="Xi" unicode="&#x39e;" horiz-adv-x="606" 
d="M126 700h520l-23 -131h-521zM139 427h397l-23 -130h-396zM17 131h537l-22 -131h-538z" />
    <glyph glyph-name="Omicron" unicode="&#x39f;" horiz-adv-x="777" 
d="M449 571q-85 0 -135.5 -58.5t-68.5 -162.5q-19 -104 11 -162.5t115 -58.5q83 0 134.5 59t69.5 162t-12.5 162t-113.5 59zM474 710q151 0 224.5 -101.5t45.5 -258.5t-137 -258.5t-260 -101.5q-152 0 -226 101.5t-47 258.5q28 157 138 258.5t262 101.5z" />
    <glyph glyph-name="Pi" unicode="&#x3a0;" horiz-adv-x="713" 
d="M160 700h558l-123 -700h-157l101 576h-243l-101 -576h-158z" />
    <glyph glyph-name="Rho" unicode="&#x3a1;" horiz-adv-x="653" 
d="M490 700q104 0 151 -65t30 -162q-17 -101 -88.5 -166t-182.5 -65h-163l-42 -242h-158l123 700h330zM428 576h-132l-39 -221h132q100 0 120 114q18 107 -81 107z" />
    <glyph glyph-name="Sigma" unicode="&#x3a3;" horiz-adv-x="604" 
d="M131 700h522l-21 -124h-343l140 -210l-228 -242h354l-21 -124h-535l21 124l229 242l-140 210z" />
    <glyph glyph-name="Tau" unicode="&#x3a4;" horiz-adv-x="623" 
d="M350 0h-157l101 576h-222l21 124h602l-21 -124h-222z" />
    <glyph glyph-name="Upsilon" unicode="&#x3a5;" horiz-adv-x="671" 
d="M375 0h-158l52 297l-198 403h185l121 -269l217 269h172l-339 -403z" />
    <glyph glyph-name="Phi" unicode="&#x3a6;" horiz-adv-x="838" 
d="M423 700h158l-17 -90q148 -18 213 -84t46 -174q-39 -223 -349 -259l-16 -93h-158l15 93q-148 18 -212.5 84t-45.5 175q20 108 108 174t241 84zM656 352q11 61 -17 99.5t-94 45.5l-52 -291q68 5 110 44.5t53 101.5zM224 352q-10 -63 17.5 -101.5t93.5 -44.5l51 291
q-68 -7 -109 -45.5t-53 -99.5z" />
    <glyph glyph-name="Chi" unicode="&#x3a7;" horiz-adv-x="701" 
d="M83 700h198l90 -179q15 -33 23 -71q20 35 49 72l153 178h184l-309 -345l194 -355h-198l-95 185q-18 40 -23 73q-20 -37 -52 -74l-157 -184h-183l314 352z" />
    <glyph glyph-name="Psi" unicode="&#x3a8;" horiz-adv-x="819" 
d="M135 700h157l-41 -234q-12 -65 8.5 -97t88.5 -41l65 372h158l-66 -372q70 9 102 41t44 97l42 234h157l-44 -250q-22 -121 -100 -184.5t-225 -76.5l-33 -189h-158l33 189q-142 13 -198 77t-34 184z" />
    <glyph glyph-name="Omega" unicode="&#x3a9;" horiz-adv-x="779" 
d="M474 710q153 0 227 -91.5t46 -245.5q-13 -79 -58 -151t-101 -98h154l-21 -124h-328l23 135q67 16 104 69.5t55 156.5q18 100 -13 155t-112 55q-83 0 -133.5 -55t-68.5 -155q-18 -102 0.5 -155t80.5 -71l-24 -135h-327l21 124h152q-47 25 -66 97.5t-5 151.5
q27 154 133.5 245.5t260.5 91.5z" />
    <glyph glyph-name="Omega" unicode="&#x2126;" horiz-adv-x="779" 
d="M474 710q153 0 227 -91.5t46 -245.5q-13 -79 -58 -151t-101 -98h154l-21 -124h-328l23 135q67 16 104 69.5t55 156.5q18 100 -13 155t-112 55q-83 0 -133.5 -55t-68.5 -155q-18 -102 0.5 -155t80.5 -71l-24 -135h-327l21 124h152q-47 25 -66 97.5t-5 151.5
q27 154 133.5 245.5t260.5 91.5z" />
    <glyph glyph-name="Iotadieresis" unicode="&#x3aa;" horiz-adv-x="312" 
d="M195 0h-158l123 700h158zM193 744h-106l19 105h106zM407 744h-106l19 105h106z" />
    <glyph glyph-name="Upsilondieresis" unicode="&#x3ab;" horiz-adv-x="671" 
d="M375 0h-158l52 297l-198 403h185l121 -269l217 269h172l-339 -403zM371 744h-106l19 105h106zM585 744h-106l19 105h106z" />
    <glyph glyph-name="alphatonos" unicode="&#x3ac;" horiz-adv-x="591" 
d="M279 510q72 0 103 -28t50 -85l40 103h144l-113 -270q-4 -61 2 -86.5t26 -25.5q13 0 25 3l-21 -120q-35 -7 -72 -7q-53 0 -73.5 23t-24.5 75q-65 -100 -179 -100q-96 0 -134.5 69t-17.5 189q20 117 87 188.5t158 71.5zM290 387q-79 0 -102 -137q-25 -137 54 -137
q39 0 68 35t59 101q-6 138 -79 138zM350 716h147l-106 -180h-79z" />
    <glyph glyph-name="epsilontonos" unicode="&#x3ad;" horiz-adv-x="513" 
d="M288 716h147l-106 -180h-79zM301 510q96 0 148 -44.5t44 -121.5h-146q2 34 -10.5 48t-48.5 14q-32 0 -46.5 -12.5t-19.5 -36.5q-5 -32 12.5 -44.5t72.5 -12.5l-16 -93q-60 0 -85 -14t-31 -48q-5 -24 8 -37.5t47 -13.5q38 0 58 15t31 51h149q-19 -76 -90.5 -123
t-162.5 -47q-105 0 -157 38t-40 106q9 50 47 82t101 40q-114 20 -98 114q11 63 72 101.5t161 38.5z" />
    <glyph glyph-name="etatonos" unicode="&#x3ae;" horiz-adv-x="557" 
d="M110 500h145l-12 -67q57 77 153 77q73 0 103.5 -44.5t16.5 -126.5l-95 -539h-146l90 508q7 40 -3.5 58t-44.5 18q-82 0 -102 -110l-48 -274h-145zM311 716h147l-106 -180h-79z" />
    <glyph glyph-name="iotatonos" unicode="&#x3af;" horiz-adv-x="282" 
d="M110 500h145l-61 -342q-7 -42 32 -42q12 0 25 3l-22 -120q-35 -7 -74 -7q-66 0 -96 24t-21 79zM162 716h147l-106 -180h-79z" />
    <glyph glyph-name="upsilondieresistonos" unicode="&#x3b0;" horiz-adv-x="570" 
d="M138 510q61 0 92.5 -24.5t21.5 -78.5l-38 -215q-7 -39 7 -57.5t52 -18.5t57.5 18.5t26.5 57.5l55 308h146l-58 -323q-15 -84 -80 -135.5t-170 -51.5t-152 51.5t-32 135.5l30 167q7 42 -32 42q-12 0 -25 -3l21 120q36 7 78 7zM268 571h-95l19 108h95zM378 546h-65l10 183
h111zM525 571h-95l19 108h95z" />
    <glyph glyph-name="alpha" unicode="&#x3b1;" horiz-adv-x="591" 
d="M279 510q72 0 103 -28t50 -85l40 103h144l-113 -270q-4 -61 2 -86.5t26 -25.5q13 0 25 3l-21 -120q-35 -7 -72 -7q-53 0 -73.5 23t-24.5 75q-65 -100 -179 -100q-96 0 -134.5 69t-17.5 189q20 117 87 188.5t158 71.5zM290 387q-79 0 -102 -137q-25 -137 54 -137
q39 0 68 35t59 101q-6 138 -79 138z" />
    <glyph glyph-name="beta" unicode="&#x3b2;" horiz-adv-x="547" 
d="M345 588q-53 0 -85.5 -57t-53.5 -176q-10 -60 -13 -102.5t2.5 -75.5t23 -49t47.5 -16q89 0 106 106q10 55 -14.5 77t-99.5 22l18 102q66 0 91.5 20t34.5 68q7 39 -5 60t-52 21zM369 710q94 0 143 -45t34 -131q-13 -71 -52 -109.5t-110 -50.5q80 -13 110.5 -55t16.5 -121
q-16 -89 -84 -148.5t-178 -59.5q-121 0 -173 89t-21 271q33 182 115 271t199 89z" />
    <glyph glyph-name="gamma" unicode="&#x3b3;" horiz-adv-x="497" 
d="M197 516q17 -75 27.5 -195.5t11.5 -183.5q75 133 171 363h143q-138 -299 -271 -519l-24 -181h-173l45 190q-32 308 -88 494z" />
    <glyph glyph-name="delta" unicode="&#x3b4;" horiz-adv-x="523" 
d="M287 369q-87 0 -111 -132q-21 -126 64 -126q86 0 108 126q11 66 -2.5 99t-58.5 33zM360 709q93 0 174 -15l-22 -124q-92 19 -171 19q-35 0 -52 -7.5t-21 -28.5q-4 -23 38 -39q6 -2 55 -17q171 -50 135 -254q-21 -118 -94.5 -185.5t-179.5 -67.5q-108 0 -160.5 62.5
t-31.5 179.5q16 87 74 144t131 62q-63 11 -93.5 42.5t-21.5 82.5q12 68 73 107t167 39z" />
    <glyph glyph-name="epsilon" unicode="&#x3b5;" horiz-adv-x="513" 
d="M301 510q96 0 148 -44.5t44 -121.5h-146q2 34 -10.5 48t-48.5 14q-32 0 -46.5 -12.5t-19.5 -36.5q-5 -32 12.5 -44.5t72.5 -12.5l-16 -93q-60 0 -85 -14t-31 -48q-5 -24 8 -37.5t47 -13.5q38 0 58 15t31 51h149q-19 -76 -90.5 -123t-162.5 -47q-105 0 -157 38t-40 106
q9 50 47 82t101 40q-114 20 -98 114q11 63 72 101.5t161 38.5z" />
    <glyph glyph-name="zeta" unicode="&#x3b6;" horiz-adv-x="475" 
d="M95 700h451l-21 -123l-241 -235q-56 -55 -65 -104q-4 -23 7.5 -42t31 -32.5t43 -30t42.5 -33t29 -44t4 -60.5q-10 -57 -75.5 -114.5t-156.5 -91.5l-47 103q51 20 80 45.5t34 49.5q3 17 -9.5 31.5t-32.5 26t-43 28t-42 34t-28.5 47.5t-2.5 67q7 44 33 85t87 98l169 172
h-268z" />
    <glyph glyph-name="eta" unicode="&#x3b7;" horiz-adv-x="557" 
d="M110 500h145l-12 -67q57 77 153 77q73 0 103.5 -44.5t16.5 -126.5l-95 -539h-146l90 508q7 40 -3.5 58t-44.5 18q-82 0 -102 -110l-48 -274h-145z" />
    <glyph glyph-name="theta" unicode="&#x3b8;" horiz-adv-x="560" 
d="M355 710q255 0 193 -350q-31 -177 -115.5 -273.5t-206.5 -96.5q-86 0 -125 33.5t-28 95.5q10 56 -33 56q-12 0 -30 -5l19 111q41 12 81 12q63 0 92 -28t19 -83q-11 -67 41 -67t81 47.5t51 159.5q-51 -13 -128 -13q-102 0 -147.5 49.5t-29.5 141.5q15 85 87.5 147.5
t178.5 62.5zM312 416q46 0 98 13q8 84 -9.5 122.5t-66.5 38.5q-81 0 -100 -96q-15 -78 78 -78z" />
    <glyph glyph-name="iota" unicode="&#x3b9;" horiz-adv-x="282" 
d="M110 500h145l-61 -342q-7 -42 32 -42q12 0 25 3l-22 -120q-35 -7 -74 -7q-66 0 -96 24t-21 79z" />
    <glyph glyph-name="kappa" unicode="&#x3ba;" horiz-adv-x="561" 
d="M110 500h145l-88 -500h-145zM428 500h164l-214 -222l140 -278h-167l-131 273z" />
    <glyph glyph-name="lambda" unicode="&#x3bb;" horiz-adv-x="497" 
d="M127 710q43 0 68.5 -1.5t55.5 -7.5t48 -18.5t35.5 -34t28.5 -54t18 -78.5l83 -500l-156 -32l-36 305q-3 26 -3 82q-11 -41 -31 -82l-139 -289h-144l256 510l-8 29q-8 25 -29.5 35t-68.5 10z" />
    <glyph glyph-name="nu" unicode="&#x3bd;" horiz-adv-x="497" 
d="M197 516q8 -36 14.5 -80t11.5 -92t7 -77.5t5 -74.5t3 -46q45 82 169 354h143q-98 -196 -264 -500h-159q-31 290 -88 484z" />
    <glyph glyph-name="xi" unicode="&#x3be;" horiz-adv-x="460" 
d="M91 700h443l-20 -112q-126 -67 -183 -113t-63 -81q-5 -31 25.5 -45t104.5 -14l-19 -106q-75 0 -117 -22t-48 -53q-3 -16 12.5 -31t39 -29.5t46.5 -31.5t37 -43t8 -58q-8 -47 -71.5 -99.5t-157.5 -80.5l-33 99q85 30 92 66q4 20 -11.5 36.5t-38.5 30t-46 29t-36.5 42
t-7.5 60.5q7 44 50.5 84t94.5 56q-115 27 -103 98q16 92 231 199h-250z" />
    <glyph glyph-name="omicron" unicode="&#x3bf;" horiz-adv-x="530" 
d="M294 389q-91 0 -115 -138q-24 -140 66 -140q88 0 114 140q24 138 -65 138zM315 510q105 0 158 -69t32 -190q-22 -122 -99 -191.5t-182 -69.5q-107 0 -159.5 69.5t-30.5 191.5q21 121 97.5 190t183.5 69z" />
    <glyph glyph-name="pi" unicode="&#x3c0;" horiz-adv-x="602" 
d="M56 500h585l-19 -109h-91l-41 -233q-7 -42 31 -42q11 0 25 3l-21 -120q-36 -7 -78 -7q-61 0 -92 24t-22 79l53 296h-113l-69 -391h-145l69 391h-91z" />
    <glyph glyph-name="rho" unicode="&#x3c1;" horiz-adv-x="562" 
d="M341 510q115 0 165.5 -69.5t29.5 -190.5q-20 -116 -90 -188t-161 -72t-113 83l-49 -273h-145l79 448q22 122 92 192t192 70zM317 389q-48 0 -74.5 -35.5t-39.5 -105.5q-25 -137 67 -137q46 0 73 35t39 104q25 139 -65 139z" />
    <glyph glyph-name="sigma1" unicode="&#x3c2;" horiz-adv-x="486" 
d="M303 510q107 0 152.5 -54t35.5 -138h-133q3 30 -12.5 50t-54.5 20q-83 0 -104 -103q-7 -39 2 -68t28 -47t43 -32.5t48 -28.5t43.5 -30.5t28.5 -43t3 -61.5q-10 -55 -73.5 -106t-156.5 -86l-45 102q110 43 117 87q2 14 -13 25.5t-39 22t-51.5 28.5t-48.5 45t-30.5 72
t1.5 109q19 106 88 171.5t171 65.5z" />
    <glyph glyph-name="sigma" unicode="&#x3c3;" horiz-adv-x="560" 
d="M315 510q42 0 125 -5t151 -5l-20 -111q-86 0 -108 2q25 -17 36.5 -59t1.5 -97q-20 -113 -96 -179t-181 -66q-107 0 -159.5 68.5t-30.5 192.5q21 123 97.5 191t183.5 68zM294 389q-90 0 -115 -138q-25 -140 66 -140q89 0 114 140q25 138 -65 138z" />
    <glyph glyph-name="tau" unicode="&#x3c4;" horiz-adv-x="463" 
d="M56 500h447l-19 -109h-155l-41 -233q-7 -42 31 -42q11 0 25 3l-21 -120q-36 -7 -78 -7q-61 0 -92 24t-21 79l52 296h-147z" />
    <glyph glyph-name="upsilon" unicode="&#x3c5;" horiz-adv-x="570" 
d="M138 510q61 0 92.5 -24.5t21.5 -78.5l-38 -215q-7 -39 7 -57.5t52 -18.5t57.5 18.5t26.5 57.5l55 308h146l-58 -323q-15 -84 -80 -135.5t-170 -51.5t-152 51.5t-32 135.5l30 167q7 42 -32 42q-12 0 -25 -3l21 120q36 7 78 7z" />
    <glyph glyph-name="phi" unicode="&#x3c6;" horiz-adv-x="744" 
d="M323 507l-22 -121q-101 -5 -124 -133q-12 -67 11 -99.5t89 -40.5l32 182q38 215 230 215q225 0 181 -248q-43 -239 -319 -265l-34 -197h-145l34 196q-266 25 -224 257q20 109 105.5 180t185.5 74zM450 271l-28 -157q69 10 104.5 45t47.5 103q11 70 0.5 96.5t-42.5 26.5
q-34 0 -52 -23.5t-30 -90.5z" />
    <glyph glyph-name="chi" unicode="&#x3c7;" horiz-adv-x="539" 
d="M61 500h167l37 -158q3 -13 10 -72q4 8 16.5 35t19.5 38l95 157h158l-230 -336l126 -364h-177l-42 165q-1 5 -12 75q-14 -34 -37 -77l-98 -163h-167l246 354z" />
    <glyph glyph-name="psi" unicode="&#x3c8;" horiz-adv-x="782" 
d="M402 700h145l-104 -586q62 10 94.5 42t43.5 94l44 250h145l-44 -251q-41 -225 -304 -253l-34 -196h-145l34 196q-123 13 -178.5 76t-35.5 177l45 251h145l-44 -250q-11 -63 9.5 -94.5t79.5 -41.5z" />
    <glyph glyph-name="omega" unicode="&#x3c9;" horiz-adv-x="753" 
d="M308 510l-19 -113q-46 0 -71.5 -33.5t-39.5 -111.5q-24 -139 46 -139q67 0 81 77l22 172h146l-39 -172q-14 -77 55 -77t94 139q14 77 0.5 111t-59.5 34l19 113q114 -1 159.5 -68.5t24.5 -189.5q-45 -262 -244 -262q-49 0 -84.5 24t-47.5 69q-59 -93 -165 -93
q-198 0 -153 262q21 122 90.5 189.5t184.5 68.5z" />
    <glyph glyph-name="iotadieresis" unicode="&#x3ca;" horiz-adv-x="282" 
d="M110 500h145l-61 -342q-7 -42 32 -42q12 0 25 3l-22 -120q-35 -7 -74 -7q-66 0 -96 24t-21 79zM148 571h-106l19 109h106zM346 571h-106l19 109h106z" />
    <glyph glyph-name="upsilondieresis" unicode="&#x3cb;" horiz-adv-x="570" 
d="M138 510q61 0 92.5 -24.5t21.5 -78.5l-38 -215q-7 -39 7 -57.5t52 -18.5t57.5 18.5t26.5 57.5l55 308h146l-58 -323q-15 -84 -80 -135.5t-170 -51.5t-152 51.5t-32 135.5l30 167q7 42 -32 42q-12 0 -25 -3l21 120q36 7 78 7zM302 571h-106l19 109h106zM500 571h-106
l19 109h106z" />
    <glyph glyph-name="omicrontonos" unicode="&#x3cc;" horiz-adv-x="530" 
d="M296 716h147l-106 -180h-79zM294 389q-91 0 -115 -138q-24 -140 66 -140q88 0 114 140q24 138 -65 138zM315 510q105 0 158 -69t32 -190q-22 -122 -99 -191.5t-182 -69.5q-107 0 -159.5 69.5t-30.5 191.5q21 121 97.5 190t183.5 69z" />
    <glyph glyph-name="upsilontonos" unicode="&#x3cd;" horiz-adv-x="570" 
d="M315 716h147l-106 -180h-79zM138 510q61 0 92.5 -24.5t21.5 -78.5l-38 -215q-7 -39 7 -57.5t52 -18.5t57.5 18.5t26.5 57.5l55 308h146l-58 -323q-15 -84 -80 -135.5t-170 -51.5t-152 51.5t-32 135.5l30 167q7 42 -32 42q-12 0 -25 -3l21 120q36 7 78 7z" />
    <glyph glyph-name="omegatonos" unicode="&#x3ce;" horiz-adv-x="753" 
d="M308 510l-19 -113q-46 0 -71.5 -33.5t-39.5 -111.5q-24 -139 46 -139q67 0 81 77l22 172h146l-39 -172q-14 -77 55 -77t94 139q14 77 0.5 111t-59.5 34l19 113q114 -1 159.5 -68.5t24.5 -189.5q-45 -262 -244 -262q-49 0 -84.5 24t-47.5 69q-59 -93 -165 -93
q-198 0 -153 262q21 122 90.5 189.5t184.5 68.5zM408 716h147l-106 -180h-79z" />
    <glyph glyph-name="afii10023" unicode="&#x401;" horiz-adv-x="607" 
d="M529 0h-492l123 700h484l-22 -124h-326l-27 -153h264l-22 -122h-263l-32 -177h335zM370 744h-106l19 105h106zM584 744h-106l19 105h106z" />
    <glyph glyph-name="afii10051" unicode="&#x402;" horiz-adv-x="758" 
d="M93 700h602l-21 -124h-222l-33 -183q64 77 171 77q80 0 118 -45t24 -126l-24 -132q-18 -101 -92 -154t-187 -53l21 114q45 1 68 21t32 70l18 103q15 76 -56 76q-43 0 -77.5 -29t-43.5 -80l-41 -235h-157l101 576h-222z" />
    <glyph glyph-name="afii10052" unicode="&#x403;" horiz-adv-x="549" 
d="M160 700h462l-21 -124h-305l-101 -576h-158zM457 880l132 -15l-186 -142h-91z" />
    <glyph glyph-name="afii10053" unicode="&#x404;" horiz-adv-x="720" 
d="M474 710q130 0 199.5 -64t58.5 -173h-161q2 50 -28.5 77t-92.5 27q-132 0 -187 -154h233l-22 -122h-236q-5 -83 27 -130.5t106 -47.5q124 0 157 104h161q-27 -108 -119 -172.5t-223 -64.5q-151 0 -225.5 102t-47.5 258q28 157 138.5 258.5t261.5 101.5z" />
    <glyph glyph-name="afii10054" unicode="&#x405;" horiz-adv-x="679" 
d="M428 710q129 0 193.5 -62t51.5 -163h-163q5 50 -18 75t-90 25q-112 0 -127 -80q-6 -39 20 -55.5t95 -24.5q132 -13 195 -60.5t46 -140.5q-19 -105 -109.5 -169.5t-228.5 -64.5q-129 0 -195 63t-53 165h164q-6 -50 19 -77t93 -27q117 0 132 86q7 42 -20 58.5t-102 26.5
q-135 16 -190 62.5t-38 143.5q17 95 103.5 157t221.5 62z" />
    <glyph glyph-name="afii10055" unicode="&#x406;" horiz-adv-x="312" 
d="M195 0h-158l123 700h158z" />
    <glyph glyph-name="afii10056" unicode="&#x407;" horiz-adv-x="312" 
d="M195 0h-158l123 700h158zM193 744h-106l19 105h106zM407 744h-106l19 105h106z" />
    <glyph glyph-name="afii10057" unicode="&#x408;" horiz-adv-x="582" 
d="M434 700h158l-84 -475q-19 -109 -103 -172t-207 -63q-106 0 -160.5 59t-49.5 160h163q-5 -37 12.5 -60.5t64.5 -23.5q56 0 84 22.5t37 74.5z" />
    <glyph glyph-name="afii10058" unicode="&#x409;" horiz-adv-x="1090" 
d="M664 335l-37 -216h133q52 0 83 30.5t39 79.5q8 48 -12.5 77t-72.5 29h-133zM250 700h479l-45 -255h165q111 0 160.5 -63.5t33.5 -155.5t-88 -159t-176 -67h-331l101 576h-166q-64 -314 -167 -460q-94 -126 -252 -126l26 150q70 0 112 57q39 54 72 170.5t76 332.5z" />
    <glyph glyph-name="afii10059" unicode="&#x40a;" horiz-adv-x="1062" 
d="M160 700h158l-45 -255h234l45 255h158l-45 -255h156q111 0 160.5 -63.5t33.5 -155.5t-88 -159t-176 -67h-322l58 332h-234l-58 -332h-158zM645 332l-37 -213h124q52 0 82.5 30t39.5 79q8 48 -12.5 76t-72.5 28h-124z" />
    <glyph glyph-name="afii10060" unicode="&#x40b;" horiz-adv-x="779" 
d="M93 700h602l-21 -124h-222l-33 -185q62 77 170 77q81 0 118.5 -45t23.5 -126l-52 -297h-158l47 266q7 39 -6 57t-50 18q-44 0 -78 -28.5t-43 -79.5l-41 -233h-157l101 576h-222z" />
    <glyph glyph-name="afii10061" unicode="&#x40c;" horiz-adv-x="692" 
d="M187 0h-158l123 700h158zM641 0h-189l-196 369l305 331h183l-304 -322zM503 880l132 -15l-186 -142h-91z" />
    <glyph glyph-name="afii10062" unicode="&#x40e;" horiz-adv-x="658" 
d="M292 870h91q-5 -31 9.5 -47.5t45.5 -16.5q65 0 77 64h91q-9 -59 -63.5 -97t-117.5 -38q-62 0 -102.5 38t-30.5 97zM88 700h174l84 -291q8 -26 8 -60q22 49 29 60l187 291h170l-345 -521q-62 -95 -133.5 -142t-164.5 -47q-36 0 -65 4l25 143q28 -4 43 -4q72 0 111 48
l28 40z" />
    <glyph glyph-name="afii10145" unicode="&#x40f;" horiz-adv-x="713" 
d="M160 700h158l-102 -576h244l101 576h157l-123 -700h-207l-53 -173h-99l8 173h-207z" />
    <glyph glyph-name="afii10017" unicode="&#x410;" horiz-adv-x="668" 
d="M303 700h230l109 -700h-174l-24 172h-248l-84 -172h-166zM396 597q-30 -75 -46 -107l-97 -198h176l-27 200q-6 58 -6 105z" />
    <glyph glyph-name="afii10018" unicode="&#x411;" horiz-adv-x="679" 
d="M160 700h464l-22 -124h-306l-27 -154h164q111 0 161.5 -60.5t34.5 -151.5q-16 -90 -86 -150t-175 -60h-331zM251 319l-37 -208h134q101 0 120 102q9 48 -12 77t-73 29h-132z" />
    <glyph glyph-name="afii10019" unicode="&#x412;" horiz-adv-x="686" 
d="M268 416h124q96 0 111 83q7 39 -12 58t-71 19h-124zM375 0h-338l123 700h327q104 0 151 -47.5t34 -121.5q-25 -134 -173 -162q80 -12 113 -58.5t21 -118.5q-15 -84 -84.5 -138t-173.5 -54zM216 124h132q115 0 131 90q7 44 -16 69t-81 25h-134z" />
    <glyph glyph-name="afii10020" unicode="&#x413;" horiz-adv-x="549" 
d="M160 700h462l-21 -124h-305l-101 -576h-158z" />
    <glyph glyph-name="afii10021" unicode="&#x414;" horiz-adv-x="813" 
d="M293 700h447l-101 -576h140l-71 -302h-142l32 178h-473l-32 -178h-140l35 302h113q128 232 192 576zM415 576q-43 -238 -167 -452h233l80 452h-146z" />
    <glyph glyph-name="afii10022" unicode="&#x415;" horiz-adv-x="607" 
d="M529 0h-492l123 700h484l-22 -124h-326l-27 -153h264l-22 -122h-263l-32 -177h335z" />
    <glyph glyph-name="afii10024" unicode="&#x416;" horiz-adv-x="1064" 
d="M152 0h-189l334 378l-191 322h183l188 -331zM571 0h-158l123 700h158zM1022 0h-190l-195 369l305 331h182l-304 -322z" />
    <glyph glyph-name="afii10025" unicode="&#x417;" horiz-adv-x="643" 
d="M276 302l20 112q85 0 122.5 23t46.5 72q7 38 -13.5 57.5t-70.5 19.5q-56 0 -84 -19.5t-43 -69.5h-167q20 98 111.5 155.5t204.5 57.5q127 0 191.5 -50.5t50.5 -133.5q-26 -141 -208 -167q88 -7 130 -49t29 -115q-16 -93 -106.5 -149t-221.5 -56q-112 0 -183 59t-56 155
h170q-2 -51 21.5 -70.5t80.5 -19.5q51 0 82.5 22.5t39.5 63.5q9 52 -23.5 77t-123.5 25z" />
    <glyph glyph-name="afii10026" unicode="&#x418;" horiz-adv-x="728" 
d="M160 700h154l-73 -414q-8 -44 -20 -88q3 6 18.5 38t22.5 44l264 420h207l-123 -700h-158l83 474q13 63 18 81l-15 -32q-15 -32 -22 -43l-290 -480h-189z" />
    <glyph glyph-name="afii10027" unicode="&#x419;" horiz-adv-x="728" 
d="M319 870h91q-5 -31 9.5 -47.5t45.5 -16.5q65 0 77 64h92q-10 -59 -64.5 -97t-117.5 -38q-62 0 -102.5 38t-30.5 97zM160 700h154l-73 -414q-8 -44 -20 -88q3 6 18.5 38t22.5 44l264 420h207l-123 -700h-158l83 474q13 63 18 81l-15 -32q-15 -32 -22 -43l-290 -480h-189z
" />
    <glyph glyph-name="afii10028" unicode="&#x41a;" horiz-adv-x="692" 
d="M195 0h-158l123 700h158zM649 0h-189l-196 369l305 331h183l-304 -322z" />
    <glyph glyph-name="afii10029" unicode="&#x41b;" horiz-adv-x="723" 
d="M250 700h478l-123 -700h-157l101 576h-166q-64 -314 -167 -460q-94 -126 -252 -126l26 150q70 0 112 57q39 54 72 170.5t76 332.5z" />
    <glyph glyph-name="afii10030" unicode="&#x41c;" horiz-adv-x="918" 
d="M160 700h246l49 -406q3 -41 -1 -107q14 54 36 107l190 406h244l-123 -700h-157l82 465q13 73 22 112q-25 -73 -39 -104l-226 -473h-128l-60 473q-3 40 -1 104q-2 -17 -9 -60.5t-8 -50.5l-82 -466h-158z" />
    <glyph glyph-name="afii10031" unicode="&#x41d;" horiz-adv-x="715" 
d="M597 0h-157l53 300h-245l-53 -300h-158l123 700h158l-49 -277h245l49 277h157z" />
    <glyph glyph-name="afii10032" unicode="&#x41e;" horiz-adv-x="777" 
d="M449 571q-85 0 -135.5 -58.5t-68.5 -162.5q-19 -104 11 -162.5t115 -58.5q83 0 134.5 59t69.5 162t-12.5 162t-113.5 59zM474 710q151 0 224.5 -101.5t45.5 -258.5t-137 -258.5t-260 -101.5q-152 0 -226 101.5t-47 258.5q28 157 138 258.5t262 101.5z" />
    <glyph glyph-name="afii10033" unicode="&#x41f;" horiz-adv-x="682" 
d="M569 0h-150l101 576h-236l-101 -576h-150l123 700h536z" />
    <glyph glyph-name="afii10034" unicode="&#x420;" horiz-adv-x="653" 
d="M490 700q104 0 151 -65t30 -162q-17 -101 -88.5 -166t-182.5 -65h-163l-42 -242h-158l123 700h330zM428 576h-132l-39 -221h132q100 0 120 114q18 107 -81 107z" />
    <glyph glyph-name="afii10035" unicode="&#x421;" horiz-adv-x="720" 
d="M529 233h162q-29 -109 -121.5 -176t-222.5 -67q-151 0 -225.5 102t-47.5 258q28 157 138.5 258.5t261.5 101.5q130 0 199.5 -67t58.5 -176h-162q2 50 -28.5 77t-92.5 27q-84 0 -135 -59t-69 -162q-19 -103 11.5 -162t114.5 -59q125 0 158 104z" />
    <glyph glyph-name="afii10036" unicode="&#x422;" horiz-adv-x="623" 
d="M350 0h-157l101 576h-222l21 124h602l-21 -124h-222z" />
    <glyph glyph-name="afii10037" unicode="&#x423;" horiz-adv-x="658" 
d="M88 700h174l84 -291q8 -26 8 -60q22 49 29 60l187 291h170l-345 -521q-62 -95 -133.5 -142t-164.5 -47q-36 0 -65 4l25 143q28 -4 43 -4q72 0 111 48l28 40z" />
    <glyph glyph-name="afii10038" unicode="&#x424;" horiz-adv-x="838" 
d="M423 700h158l-17 -90q148 -18 213 -84t46 -174q-39 -223 -349 -259l-16 -93h-158l15 93q-148 18 -212.5 84t-45.5 175q20 108 108 174t241 84zM656 352q11 61 -17 99.5t-94 45.5l-52 -291q68 5 110 44.5t53 101.5zM224 352q-10 -63 17.5 -101.5t93.5 -44.5l51 291
q-68 -7 -109 -45.5t-53 -99.5z" />
    <glyph glyph-name="afii10039" unicode="&#x425;" horiz-adv-x="701" 
d="M83 700h198l90 -179q15 -33 23 -71q20 35 49 72l153 178h184l-309 -345l194 -355h-198l-95 185q-18 40 -23 73q-20 -37 -52 -74l-157 -184h-183l314 352z" />
    <glyph glyph-name="afii10040" unicode="&#x426;" horiz-adv-x="791" 
d="M160 700h158l-102 -576h244l101 576h157l-101 -576h140l-71 -302h-142l32 178h-539z" />
    <glyph glyph-name="afii10041" unicode="&#x427;" horiz-adv-x="692" 
d="M575 0h-157l53 305q-35 -60 -96.5 -91.5t-134.5 -31.5q-83 0 -127.5 44.5t-28.5 130.5l60 343h158l-51 -293q-15 -77 75 -77q58 0 110 36t63 97l42 237h157z" />
    <glyph glyph-name="afii10042" unicode="&#x428;" horiz-adv-x="1044" 
d="M160 700h158l-102 -576h209l101 576h157l-101 -576h208l102 576h158l-123 -700h-890z" />
    <glyph glyph-name="afii10043" unicode="&#x429;" horiz-adv-x="1123" 
d="M160 700h158l-102 -576h209l101 576h157l-101 -576h208l102 576h158l-102 -576h140l-71 -302h-141l32 178h-871z" />
    <glyph glyph-name="afii10044" unicode="&#x42a;" horiz-adv-x="712" 
d="M286 335l-37 -216h133q52 0 82.5 30.5t39.5 79.5q8 48 -12.5 77t-72.5 29h-133zM93 700h258l-45 -255h165q111 0 160.5 -63.5t33.5 -155.5q-17 -92 -89 -159t-175 -67h-331l101 576h-100z" />
    <glyph glyph-name="afii10045" unicode="&#x42b;" horiz-adv-x="913" 
d="M160 700h158l-45 -255h157q111 0 160.5 -63.5t33.5 -155.5t-88 -159t-176 -67h-323zM253 335l-37 -216h125q53 0 83.5 30.5t38.5 79.5q8 48 -12.5 77t-72.5 29h-125zM796 0h-158l123 700h158z" />
    <glyph glyph-name="afii10046" unicode="&#x42c;" horiz-adv-x="679" 
d="M160 700h158l-45 -255h165q111 0 160.5 -63.5t33.5 -155.5q-17 -92 -89 -159t-175 -67h-331zM253 335l-37 -216h133q52 0 82.5 30.5t39.5 79.5q8 48 -12.5 77t-72.5 29h-133z" />
    <glyph glyph-name="afii10047" unicode="&#x42d;" horiz-adv-x="720" 
d="M416 710q152 0 226 -101.5t46 -258.5t-137.5 -258.5t-261.5 -101.5q-131 0 -200.5 64t-58.5 173h161q-2 -50 29 -77t92 -27q74 0 123.5 48t70.5 130h-235l22 122h230q2 71 -30.5 112.5t-100.5 41.5q-124 0 -157 -104h-162q28 109 120 173t223 64z" />
    <glyph glyph-name="afii10048" unicode="&#x42e;" horiz-adv-x="1036" 
d="M160 700h158l-49 -277h99q42 129 141 208t231 79q150 0 220 -101t42 -259t-133.5 -259t-255.5 -101q-139 0 -210 85t-60 225h-95l-53 -300h-158zM715 571q-157 0 -197 -221q-39 -221 119 -221q157 0 196 221t-118 221z" />
    <glyph glyph-name="afii10049" unicode="&#x42f;" horiz-adv-x="687" 
d="M355 700h339l-123 -700h-159l48 270h-118q-44 0 -73.5 -20t-55.5 -80.5t-45 -169.5h-157q31 178 88 249.5t141 81.5q-79 7 -114 53.5t-21 123.5q15 85 79 138.5t171 53.5zM378 576q-52 0 -78.5 -22.5t-34.5 -67.5q-9 -47 9.5 -71t70.5 -24h136l33 185h-136z" />
    <glyph glyph-name="afii10065" unicode="&#x430;" horiz-adv-x="572" 
d="M284 510q91 0 119 -93l15 83h145l-87 -500h-145l14 82q-63 -92 -152 -92q-91 0 -135.5 72t-23.5 188q20 117 89.5 188.5t160.5 71.5zM298 387q-89 0 -114 -137t66 -137q51 0 82 37t42 98q25 139 -76 139z" />
    <glyph glyph-name="afii10066" unicode="&#x431;" horiz-adv-x="535" 
d="M391 702q89 0 143 15l-22 -121q-54 -15 -146 -15q-55 0 -88.5 -29.5t-56.5 -103.5q67 43 135 43q90 0 133 -62.5t24 -168.5q-22 -126 -94 -198t-187 -72q-243 0 -182 347q33 179 118.5 272t222.5 93zM284 378q-36 0 -86 -20l-6 -35q-20 -116 -6 -164t65 -48q46 0 71 36
t38 105q11 64 -6.5 95t-69.5 31z" />
    <glyph glyph-name="afii10067" unicode="&#x432;" horiz-adv-x="528" 
d="M237 399l-17 -95h63q59 0 67 48q4 24 -7 35.5t-42 11.5h-64zM110 500h251q83 0 118.5 -34.5t26.5 -88.5q-16 -88 -118 -115q55 -10 78 -43t15 -82q-11 -59 -65.5 -98t-134.5 -39h-259zM204 211l-19 -109h68q69 0 78 53q6 27 -7.5 41.5t-49.5 14.5h-70z" />
    <glyph glyph-name="afii10068" unicode="&#x433;" horiz-adv-x="441" 
d="M110 500h374l-21 -116h-229l-67 -384h-145z" />
    <glyph glyph-name="afii10069" unicode="&#x434;" horiz-adv-x="653" 
d="M192 500h384l-70 -397h112l-71 -244h-126l25 141h-334l-25 -141h-123l16 244h83q35 58 70.5 164t58.5 233zM310 386q-12 -65 -44 -145.5t-65 -137.5h159l50 283h-100z" />
    <glyph glyph-name="afii10070" unicode="&#x435;" horiz-adv-x="526" 
d="M335 510q89 0 136 -38.5t47 -93.5q0 -73 -61 -118t-196 -45h-89q-6 -56 11.5 -81.5t63.5 -25.5q33 0 57 16t31 44h145q-19 -76 -90.5 -127t-161.5 -51q-111 0 -163.5 70.5t-31.5 190.5q20 116 104 187.5t198 71.5zM310 401q-81 0 -116 -88h74q100 0 100 49q0 16 -14 27.5
t-44 11.5z" />
    <glyph glyph-name="afii10072" unicode="&#x436;" horiz-adv-x="842" 
d="M65 500h164l121 -229l-223 -271h-164l231 276zM393 500h152l-88 -500h-152zM709 500h164l-208 -224l134 -276h-163l-129 271z" />
    <glyph glyph-name="afii10073" unicode="&#x437;" horiz-adv-x="517" 
d="M310 510q105 0 154.5 -37t38.5 -100q-9 -50 -46.5 -81t-99.5 -36q65 -1 93.5 -33t19.5 -85q-13 -69 -82 -108.5t-177 -39.5q-100 0 -149.5 46t-41.5 124h148q0 -36 16 -51t55 -15q67 0 76 51q6 35 -14.5 48.5t-87.5 13.5l17 93q60 0 83.5 12.5t29.5 44.5q5 24 -7.5 36.5
t-44.5 12.5q-37 0 -55.5 -14t-29.5 -48h-146q20 78 85 122t165 44z" />
    <glyph glyph-name="afii10074" unicode="&#x438;" horiz-adv-x="570" 
d="M110 500h133l-43 -242q-7 -36 -20 -88q22 50 42 82l167 248h167l-88 -500h-135l48 276q6 40 21 90q-21 -46 -43 -85l-184 -281h-153z" />
    <glyph glyph-name="afii10075" unicode="&#x439;" horiz-adv-x="570" 
d="M222 685h91q-11 -67 46 -67t69 67h92q-11 -61 -61.5 -99t-112.5 -38q-61 0 -98 38t-26 99zM110 500h133l-43 -242q-7 -36 -20 -88q22 50 42 82l167 248h167l-88 -500h-135l48 276q6 40 21 90q-21 -46 -43 -85l-184 -281h-153z" />
    <glyph glyph-name="afii10076" unicode="&#x43a;" horiz-adv-x="569" 
d="M110 500h145l-88 -500h-145zM433 500h163l-219 -222l145 -278h-166l-137 273z" />
    <glyph glyph-name="afii10077" unicode="&#x43b;" horiz-adv-x="577" 
d="M182 500h380l-88 -500h-146l68 391h-97q-48 -234 -134 -330q-66 -69 -198 -69l19 110q54 0 87 52q55 84 109 346z" />
    <glyph glyph-name="afii10078" unicode="&#x43c;" horiz-adv-x="720" 
d="M110 500h207l30 -264q3 -27 1 -80q12 43 28 80l131 264h199l-88 -500h-133l52 298q4 28 13 64q-7 -22 -25 -64l-143 -298h-124l-39 291q-1 10 -4 76q-2 -24 -10 -76l-51 -291h-132z" />
    <glyph glyph-name="afii10079" unicode="&#x43d;" horiz-adv-x="557" 
d="M110 500h145l-32 -183h143l32 183h145l-88 -500h-145l35 200h-143l-35 -200h-145z" />
    <glyph glyph-name="afii10080" unicode="&#x43e;" horiz-adv-x="530" 
d="M294 389q-91 0 -115 -138q-24 -140 66 -140q88 0 114 140q24 138 -65 138zM315 510q105 0 158 -69t32 -190q-22 -122 -99 -191.5t-182 -69.5q-107 0 -159.5 69.5t-30.5 191.5q21 121 97.5 190t183.5 69z" />
    <glyph glyph-name="afii10081" unicode="&#x43f;" horiz-adv-x="552" 
d="M110 500h428l-88 -500h-145l68 391h-137l-69 -391h-145z" />
    <glyph glyph-name="afii10082" unicode="&#x440;" horiz-adv-x="572" 
d="M388 510q90 0 133 -71.5t23 -188.5q-21 -117 -89 -188.5t-158 -71.5q-96 0 -123 92l-51 -282h-145l124 700h145l-15 -83q61 93 156 93zM327 387q-99 0 -124 -139q-11 -61 7 -98t69 -37q90 0 115 137t-67 137z" />
    <glyph glyph-name="afii10083" unicode="&#x441;" horiz-adv-x="517" 
d="M321 510q92 0 145.5 -56.5t40.5 -144.5h-146q4 35 -12 57.5t-54 22.5q-93 0 -117 -139q-26 -139 68 -139q38 0 62 22.5t33 57.5h145q-18 -88 -91 -144.5t-165 -56.5q-115 0 -166 70.5t-30 189.5t96.5 189.5t190.5 70.5z" />
    <glyph glyph-name="afii10084" unicode="&#x442;" horiz-adv-x="474" 
d="M56 500h458l-19 -109h-157l-69 -391h-145l69 391h-157z" />
    <glyph glyph-name="afii10085" unicode="&#x443;" horiz-adv-x="497" 
d="M43 500h152l35 -289q5 -29 1 -90q26 75 34 90l142 289h143l-267 -520q-33 -65 -65.5 -104t-73.5 -57.5t-78 -23.5t-100 -5l22 126q93 0 119 37l18 28z" />
    <glyph glyph-name="afii10086" unicode="&#x444;" horiz-adv-x="876" 
d="M279 510q91 0 119 -93l51 283h145l-51 -283q61 93 152 93q88 0 132 -72t24 -188q-21 -116 -90 -188t-157 -72q-47 0 -77 25.5t-42 66.5l-49 -282h-146l50 282q-62 -92 -152 -92q-88 0 -131.5 72t-22.5 188q20 116 88.5 188t156.5 72zM637 387q-47 0 -79 -36t-44 -103
q-11 -59 8 -97t67 -38q88 0 111 137q25 137 -63 137zM294 387q-85 0 -110 -137t62 -137q48 0 80 37.5t43 97.5q12 66 -8 102.5t-67 36.5z" />
    <glyph glyph-name="afii10087" unicode="&#x445;" horiz-adv-x="539" 
d="M61 500h161l54 -105q5 -11 15 -43q19 32 30 43l90 105h153l-212 -239l144 -261h-172l-57 111q-11 23 -16 46q-20 -33 -32 -47l-95 -110h-162l229 254z" />
    <glyph glyph-name="afii10088" unicode="&#x446;" horiz-adv-x="611" 
d="M110 500h145l-70 -397h137l71 397h145l-70 -397h112l-71 -244h-127l26 141h-386z" />
    <glyph glyph-name="afii10089" unicode="&#x447;" horiz-adv-x="553" 
d="M104 500h146l-33 -185q-7 -40 2 -57.5t42 -17.5q40 0 68.5 28t37.5 82l27 150h145l-88 -500h-145l32 190q-56 -77 -148 -77q-74 0 -106.5 45t-17.5 126z" />
    <glyph glyph-name="afii10090" unicode="&#x448;" horiz-adv-x="832" 
d="M110 500h145l-70 -397h136l70 397h145l-70 -397h136l70 397h145l-88 -500h-707z" />
    <glyph glyph-name="afii10091" unicode="&#x449;" horiz-adv-x="894" 
d="M110 500h145l-70 -397h136l70 397h145l-70 -397h136l70 397h145l-70 -397h112l-71 -244h-126l25 141h-665z" />
    <glyph glyph-name="afii10092" unicode="&#x44a;" horiz-adv-x="528" 
d="M223 231l-23 -129h67q69 0 81 65q10 64 -56 64h-69zM58 500h212l-29 -166h110q81 0 119 -45t25 -118q-15 -82 -67.5 -126.5t-135.5 -44.5h-255l67 384h-67z" />
    <glyph glyph-name="afii10093" unicode="&#x44b;" horiz-adv-x="744" 
d="M585 500h145l-88 -500h-145zM208 231l-23 -129h67q69 0 81 65q10 64 -56 64h-69zM110 500h145l-30 -166h110q82 0 120 -45t24 -118q-14 -82 -66.5 -126.5t-135.5 -44.5h-255z" />
    <glyph glyph-name="afii10094" unicode="&#x44c;" horiz-adv-x="520" 
d="M208 231l-23 -129h67q69 0 81 65q10 64 -56 64h-69zM110 500h145l-30 -166h110q82 0 120 -45t24 -118q-14 -82 -66.5 -126.5t-135.5 -44.5h-255z" />
    <glyph glyph-name="afii10095" unicode="&#x44d;" horiz-adv-x="517" 
d="M295 510q115 0 166 -70t30 -190t-97 -190t-191 -70q-95 0 -149 46t-42 128h149q-8 -69 66 -69q82 0 106 110h-178l18 97h176q10 103 -68 103q-75 0 -89 -69h-149q17 81 87.5 127.5t164.5 46.5z" />
    <glyph glyph-name="afii10096" unicode="&#x44e;" horiz-adv-x="789" 
d="M110 500h145l-33 -186h88q33 94 102.5 145t161.5 51q106 0 158 -68t31 -191q-22 -124 -98 -192.5t-182 -68.5q-96 0 -148.5 55.5t-45.5 156.5h-86l-36 -202h-145zM553 389q-45 0 -71.5 -34.5t-38.5 -103.5q-12 -70 1.5 -105t59.5 -35q45 0 71.5 35t38.5 105
q25 138 -61 138z" />
    <glyph glyph-name="afii10097" unicode="&#x44f;" horiz-adv-x="535" 
d="M260 500h261l-88 -500h-145l29 172h-67q-39 0 -61 -31.5t-41 -140.5h-150q11 65 27 109t37.5 67t41 33.5t47.5 16.5q-51 11 -74 45t-14 84q11 64 62 104.5t135 40.5zM277 391q-58 0 -69 -56q-10 -59 48 -59h79l21 115h-79z" />
    <glyph glyph-name="afii10071" unicode="&#x451;" horiz-adv-x="526" 
d="M335 510q89 0 136 -38.5t47 -93.5q0 -73 -61 -118t-196 -45h-89q-6 -56 11.5 -81.5t63.5 -25.5q33 0 57 16t31 44h145q-19 -76 -90.5 -127t-161.5 -51q-111 0 -163.5 70.5t-31.5 190.5q20 116 104 187.5t198 71.5zM487 571h-106l19 109h106zM289 571h-106l19 109h106z
M310 401q-81 0 -116 -88h74q100 0 100 49q0 16 -14 27.5t-44 11.5z" />
    <glyph glyph-name="afii10099" unicode="&#x452;" horiz-adv-x="558" 
d="M337 567h-70l-23 -134q57 77 152 77q72 0 103.5 -44.5t17.5 -126.5l-63 -352q-17 -95 -89 -142.5t-159 -48.5l20 115q37 0 56.5 15t26.5 59l57 323q7 40 -2.5 58t-43.5 18q-40 0 -67 -28t-37 -82l-48 -274h-145l99 567h-57l16 93h58l7 40h145l-7 -40h69z" />
    <glyph glyph-name="afii10100" unicode="&#x453;" horiz-adv-x="441" 
d="M356 718l147 -16l-182 -158h-99zM110 500h374l-21 -116h-229l-67 -384h-145z" />
    <glyph glyph-name="afii10101" unicode="&#x454;" horiz-adv-x="517" 
d="M323 510q94 0 147.5 -46t41.5 -128h-148q6 69 -67 69q-80 0 -105 -103h178l-18 -97h-177q-13 -110 68 -110q73 0 90 69h149q-17 -82 -87.5 -128t-164.5 -46q-115 0 -166 70.5t-30 189.5t97.5 189.5t191.5 70.5z" />
    <glyph glyph-name="afii10102" unicode="&#x455;" horiz-adv-x="503" 
d="M300 510q105 0 152.5 -44.5t38.5 -119.5h-136q5 26 -13.5 42.5t-54.5 16.5q-75 0 -82 -46q-4 -21 13.5 -31t55.5 -15q35 -3 59 -7t54 -14.5t47 -26t26 -43t3 -63.5q-14 -78 -76 -123.5t-178 -45.5q-105 0 -152.5 45.5t-37.5 120.5h136q-4 -27 15.5 -43t60.5 -16
q81 0 87 44q5 24 -12.5 34.5t-54.5 14.5q-40 5 -63.5 9t-54.5 14.5t-46 26t-23.5 43t-1.5 64.5q12 70 77 116.5t161 46.5z" />
    <glyph glyph-name="afii10103" unicode="&#x456;" horiz-adv-x="269" 
d="M142 686h146l-22 -125h-146zM110 500h145l-88 -500h-145z" />
    <glyph glyph-name="afii10104" unicode="&#x457;" horiz-adv-x="270" 
d="M147 571h-106l19 109h106zM345 571h-106l19 109h106zM167 0h-145l88 500h145z" />
    <glyph glyph-name="afii10105" unicode="&#x458;" horiz-adv-x="269" 
d="M110 500h145l-90 -512q-17 -94 -94.5 -146.5t-163.5 -52.5l21 122q41 0 62.5 17t30.5 69zM142 686h146l-22 -125h-146z" />
    <glyph glyph-name="afii10106" unicode="&#x459;" horiz-adv-x="827" 
d="M514 231l-23 -129h67q69 0 81 65q10 64 -56 64h-69zM182 500h380l-30 -166h110q81 0 119 -45t25 -118q-14 -82 -67 -126.5t-136 -44.5h-255l68 391h-97q-43 -209 -122.5 -304t-209.5 -95l19 110q64 0 107.5 91t88.5 307z" />
    <glyph glyph-name="afii10107" unicode="&#x45a;" horiz-adv-x="794" 
d="M486 231l-23 -129h63q69 0 81 65q10 64 -57 64h-64zM110 500h145l-30 -173h133l30 173h146l-30 -166h105q82 0 120 -45t24 -118q-14 -82 -66.5 -126.5t-135.5 -44.5h-251l39 217h-134l-38 -217h-145z" />
    <glyph glyph-name="afii10108" unicode="&#x45b;" horiz-adv-x="565" 
d="M344 567h-78l-23 -134q57 77 157 77q73 0 105.5 -45t18.5 -126l-59 -339h-146l54 308q7 40 -3 58t-45 18q-40 0 -70.5 -28.5t-39.5 -81.5l-48 -274h-145l99 567h-49l16 93h50l7 40h145l-7 -40h77z" />
    <glyph glyph-name="afii10109" unicode="&#x45c;" horiz-adv-x="569" 
d="M391 718l147 -16l-182 -158h-99zM110 500h145l-88 -500h-145zM433 500h163l-219 -222l145 -278h-166l-137 273z" />
    <glyph glyph-name="afii10110" unicode="&#x45e;" horiz-adv-x="497" 
d="M185 685h92q-11 -67 45 -67q57 0 69 67h92q-11 -61 -61.5 -99t-111.5 -38q-62 0 -99 38t-26 99zM43 500h152l35 -289q5 -29 1 -90q26 75 34 90l142 289h143l-267 -520q-33 -65 -65.5 -104t-73.5 -57.5t-78 -23.5t-100 -5l22 126q93 0 119 37l18 28z" />
    <glyph glyph-name="afii10193" unicode="&#x45f;" horiz-adv-x="552" 
d="M110 500h145l-69 -391h137l70 391h145l-88 -500h-150l-42 -156h-99l13 156h-150z" />
    <glyph glyph-name="afii10050" unicode="&#x490;" horiz-adv-x="562" 
d="M160 700h311l41 106h129l-40 -230h-305l-101 -576h-158z" />
    <glyph glyph-name="afii10098" unicode="&#x491;" horiz-adv-x="441" 
d="M110 500h237l33 89h120l-37 -205h-229l-67 -384h-145z" />
    <glyph glyph-name="Wgrave" unicode="&#x1e80;" horiz-adv-x="983" 
d="M95 700h167l28 -454q0 -67 -2 -86q19 62 30 86l187 454h143l29 -454q2 -41 -1 -86q16 54 29 86l192 454h157l-306 -700h-194l-23 373q-2 24 3 86q-14 -49 -27 -86l-154 -373h-194zM445 865l138 15l91 -157h-92z" />
    <glyph glyph-name="wgrave" unicode="&#x1e81;" horiz-adv-x="773" 
d="M46 500h146l22 -289q2 -20 0 -83q22 69 28 83l126 289h137l24 -289q2 -21 0 -83q22 69 28 83l125 289h141l-233 -500h-171l-17 237q-3 40 1 98q-14 -56 -34 -98l-102 -237h-165zM321 702l152 16l72 -174h-98z" />
    <glyph glyph-name="Wacute" unicode="&#x1e82;" horiz-adv-x="983" 
d="M95 700h167l28 -454q0 -67 -2 -86q19 62 30 86l187 454h143l29 -454q2 -41 -1 -86q16 54 29 86l192 454h157l-306 -700h-194l-23 373q-2 24 3 86q-14 -49 -27 -86l-154 -373h-194zM633 880l132 -15l-186 -142h-91z" />
    <glyph glyph-name="wacute" unicode="&#x1e83;" horiz-adv-x="773" 
d="M46 500h146l22 -289q2 -20 0 -83q22 69 28 83l126 289h137l24 -289q2 -21 0 -83q22 69 28 83l125 289h141l-233 -500h-171l-17 237q-3 40 1 98q-14 -56 -34 -98l-102 -237h-165zM480 718l147 -16l-182 -158h-99z" />
    <glyph glyph-name="Wdieresis" unicode="&#x1e84;" horiz-adv-x="983" 
d="M95 700h167l28 -454q0 -67 -2 -86q19 62 30 86l187 454h143l29 -454q2 -41 -1 -86q16 54 29 86l192 454h157l-306 -700h-194l-23 373q-2 24 3 86q-14 -49 -27 -86l-154 -373h-194zM527 744h-106l19 105h106zM741 744h-106l19 105h106z" />
    <glyph glyph-name="wdieresis" unicode="&#x1e85;" horiz-adv-x="773" 
d="M46 500h146l22 -289q2 -20 0 -83q22 69 28 83l126 289h137l24 -289q2 -21 0 -83q22 69 28 83l125 289h141l-233 -500h-171l-17 237q-3 40 1 98q-14 -56 -34 -98l-102 -237h-165zM401 571h-106l19 109h106zM599 571h-106l19 109h106z" />
    <glyph glyph-name="Germandbls" unicode="&#x1e9e;" horiz-adv-x="734" 
d="M459 710q89 0 162.5 -34t109.5 -97l-166 -167q139 -56 115 -187q-16 -95 -101.5 -165t-214.5 -70q-59 0 -89 6l22 125q27 -6 66 -6q58 0 97 28t48 83q11 62 -32 93.5t-124 39.5l181 184q-31 40 -115 40q-49 0 -88.5 -20t-46.5 -59l-88 -504h-158l89 507q17 97 108 150
t225 53z" />
    <glyph glyph-name="Ygrave" unicode="&#x1ef2;" horiz-adv-x="671" 
d="M375 0h-158l52 297l-198 403h185l121 -269l217 269h172l-339 -403zM294 865l138 15l91 -157h-92z" />
    <glyph glyph-name="ygrave" unicode="&#x1ef3;" horiz-adv-x="497" 
d="M43 500h152l35 -289q5 -29 1 -90q26 75 34 90l142 289h143l-267 -520q-33 -65 -65.5 -104t-73.5 -57.5t-78 -23.5t-100 -5l22 126q93 0 119 37l18 28zM189 702l152 16l72 -174h-98z" />
    <glyph glyph-name="endash" unicode="&#x2013;" horiz-adv-x="628" 
d="M582 261h-525l22 121h525z" />
    <glyph glyph-name="emdash" unicode="&#x2014;" horiz-adv-x="983" 
d="M937 261h-880l22 121h880z" />
    <glyph glyph-name="afii00208" unicode="&#x2015;" horiz-adv-x="983" 
d="M937 261h-880l22 121h880z" />
    <glyph glyph-name="quoteleft" unicode="&#x2018;" horiz-adv-x="244" 
d="M300 729l-87 -256h-137l139 256h85z" />
    <glyph glyph-name="quoteright" unicode="&#x2019;" horiz-adv-x="242" 
d="M74 471l89 256h136l-139 -256h-86z" />
    <glyph glyph-name="quotesinglbase" unicode="&#x201a;" horiz-adv-x="244" 
d="M-31 -126l88 255h136l-137 -255h-87z" />
    <glyph glyph-name="quotedblleft" unicode="&#x201c;" horiz-adv-x="426" 
d="M300 729l-88 -256h-137l139 256h86zM481 729l-88 -256h-137l140 256h85z" />
    <glyph glyph-name="quotedblright" unicode="&#x201d;" horiz-adv-x="426" 
d="M74 471l89 256h136l-139 -256h-86zM256 471l88 256h136l-138 -256h-86z" />
    <glyph glyph-name="quotedblbase" unicode="&#x201e;" horiz-adv-x="426" 
d="M-31 -126l88 255h136l-137 -255h-87zM151 -126l87 255h137l-138 -255h-86z" />
    <glyph glyph-name="dagger" unicode="&#x2020;" horiz-adv-x="469" 
d="M264 700h141l-47 -152l156 21l-25 -141l-148 20l-7 -152h-141l47 152l-155 -20l25 141l148 -21z" />
    <glyph glyph-name="daggerdbl" unicode="&#x2021;" horiz-adv-x="505" 
d="M264 700h141l-47 -152l156 21l-25 -141l-148 20l-35 -196l156 21l-25 -141l-149 20l-6 -152h-141l47 152l-155 -20l24 141l149 -21l34 196l-155 -20l25 141l148 -21z" />
    <glyph glyph-name="bullet" unicode="&#x2022;" horiz-adv-x="396" 
d="M180 127q-60 0 -94.5 42t-24.5 102q11 61 60.5 103t109.5 42t94.5 -42t23.5 -103q-11 -60 -60 -102t-109 -42z" />
    <glyph glyph-name="ellipsis" unicode="&#x2026;" horiz-adv-x="948" 
d="M348 148h142l-26 -148h-141zM642 148h142l-26 -148h-141zM55 148h142l-26 -148h-141z" />
    <glyph glyph-name="perthousand" unicode="&#x2030;" horiz-adv-x="1281" 
d="M284 603q-62 0 -79 -92q-16 -92 47 -92t79 91q16 93 -47 93zM303 710q81 0 120 -54.5t22 -144.5q-16 -90 -73.5 -145.5t-137.5 -55.5q-81 0 -119.5 54.5t-23.5 144.5q16 89 74 145t138 56zM730 700h159l-678 -700h-158zM687 283q-62 0 -79 -92q-15 -92 47 -92q63 0 80 91
q15 93 -48 93zM706 390q81 0 120 -54.5t23 -144.5q-17 -90 -74 -145.5t-137 -55.5q-81 0 -120 54.5t-23 144.5q15 89 73 145t138 56zM1070 283q-63 0 -78 -92q-16 -92 46 -92q63 0 80 91q16 93 -48 93zM1090 390q81 0 119.5 -54.5t22.5 -144.5t-73.5 -145.5t-137.5 -55.5
q-81 0 -120 54.5t-23 144.5q16 89 74 145t138 56z" />
    <glyph glyph-name="minute" unicode="&#x2032;" horiz-adv-x="214" 
d="M190 471h-79l9 256h149z" />
    <glyph glyph-name="second" unicode="&#x2033;" horiz-adv-x="402" 
d="M190 471h-79l9 256h149zM378 471h-79l9 256h149z" />
    <glyph glyph-name="guilsinglleft" unicode="&#x2039;" horiz-adv-x="378" 
d="M315 509l52 -63l-179 -171l118 -172l-73 -62l-184 184l18 100z" />
    <glyph glyph-name="guilsinglright" unicode="&#x203a;" horiz-adv-x="378" 
d="M161 509l184 -184l-18 -100l-249 -184l-50 62l179 172l-119 171z" />
    <glyph glyph-name="fraction" unicode="&#x2044;" horiz-adv-x="698" 
d="M103 0h-143l678 700h143z" />
    <glyph glyph-name="fraction" unicode="&#x2215;" horiz-adv-x="698" 
d="M103 0h-143l678 700h143z" />
    <glyph glyph-name="Euro" unicode="&#x20ac;" horiz-adv-x="627" 
d="M437 390h-209q-6 -24 -8 -41q-6 -37 -7 -50h172l-39 -77h-131q17 -101 121 -101q114 0 158 104h146q-34 -110 -118 -173t-207 -63q-113 0 -179 63t-76 170h-77l40 77h36q4 35 7 50q3 19 9 41h-62l40 78h48q47 110 136 175.5t205 65.5q123 0 185 -62.5t57 -172.5h-146
q-6 104 -121 104q-109 0 -162 -110h221z" />
    <glyph glyph-name="afii61352" unicode="&#x2116;" horiz-adv-x="1257" 
d="M160 700h223l106 -430q10 -50 10 -92q5 53 13 99l75 423h154l-123 -700h-205l-115 471q-7 27 -9 88q-4 -46 -11 -89l-83 -470h-158zM1041 710q106 0 158.5 -69t31.5 -190q-21 -122 -98 -191.5t-183 -69.5q-107 0 -159 69.5t-31 191.5q21 121 97.5 190t183.5 69zM1135 0
h-432l19 119h432zM1020 589q-91 0 -114 -138q-26 -140 66 -140q88 0 114 140q23 138 -66 138z" />
    <glyph glyph-name="trademark" unicode="&#x2122;" horiz-adv-x="793" 
d="M117 700h448l24 -203l95 203h133l-58 -330h-89l39 220l-104 -220h-77l-28 220l-39 -220h-87l44 257h-116l-45 -257h-92l45 257h-106z" />
    <glyph glyph-name="estimated" unicode="&#x212e;" horiz-adv-x="743" 
d="M474 710q150 0 214.5 -94t37.5 -266h-483q-18 -104 12 -162.5t115 -58.5q114 0 158 104h161q-35 -111 -124.5 -177t-217.5 -66q-152 0 -227 102t-47 258q27 156 138 258t263 102zM444 579q-109 0 -163 -108h279q3 49 -26.5 78.5t-89.5 29.5z" />
    <glyph glyph-name="onethird" unicode="&#x2153;" horiz-adv-x="851" 
d="M158 0h-143l678 700h143zM307 345h-254l15 88h77l29 166l-96 -53l-28 75l146 81h113l-48 -269h61zM644 362q72 0 105 -25.5t25 -70.5q-12 -67 -94 -84q84 -14 70 -85q-8 -49 -55 -76.5t-122 -27.5q-69 0 -105 34t-27 90h110q-2 -25 7.5 -34.5t32.5 -9.5q39 0 44 34
q4 20 -8 28.5t-49 8.5l13 71q33 0 47.5 8t16.5 27q6 33 -29 33q-21 0 -32 -9t-18 -32h-109q12 55 60 87.5t117 32.5z" />
    <glyph glyph-name="arrowleft" unicode="&#x2190;" horiz-adv-x="716" 
d="M66 321l332 282l70 -86l-158 -135h383l-21 -121h-385l112 -135l-101 -86z" />
    <glyph glyph-name="arrowup" unicode="&#x2191;" horiz-adv-x="664" 
d="M400 616l232 -281l-101 -86l-111 134l-67 -383h-122l67 384l-159 -135l-71 86z" />
    <glyph glyph-name="arrowright" unicode="&#x2192;" horiz-adv-x="716" 
d="M451 603l231 -282l-331 -281l-71 86l159 134h-384l22 122h384l-112 135z" />
    <glyph glyph-name="arrowdown" unicode="&#x2193;" horiz-adv-x="664" 
d="M331 570h121l-67 -384l159 136l71 -86l-331 -282l-233 282l101 86l111 -135z" />
    <glyph glyph-name="partialdiff" unicode="&#x2202;" 
d="M323 710q146 0 221.5 -101t47.5 -264q-30 -170 -118 -262.5t-220 -92.5q-85 0 -139 35.5t-71.5 90t-6.5 120.5q16 92 86 161.5t176 69.5q102 0 147 -75q13 99 -31.5 151.5t-139.5 52.5zM313 356q-56 0 -87.5 -34.5t-41.5 -89.5q-18 -115 84 -115q62 0 100 44.5t59 129.5
q-40 65 -114 65z" />
    <glyph glyph-name="product" unicode="&#x220f;" horiz-adv-x="682" 
d="M569 0h-150l101 576h-236l-101 -576h-150l123 700h536z" />
    <glyph glyph-name="summation" unicode="&#x2211;" horiz-adv-x="604" 
d="M131 700h522l-21 -124h-343l140 -210l-228 -242h354l-21 -124h-535l21 124l229 242l-140 210z" />
    <glyph glyph-name="minus" unicode="&#x2212;" 
d="M566 261h-512l22 121h512z" />
    <glyph glyph-name="radical" unicode="&#x221a;" horiz-adv-x="673" 
d="M397 0h-173l-62 379h-120l22 121h226l50 -345l280 545h136z" />
    <glyph glyph-name="infinity" unicode="&#x221e;" horiz-adv-x="796" 
d="M594 445q-50 0 -106 -74q12 -56 28.5 -85t52.5 -29q69 0 85 94t-60 94zM308 593q62 0 97 -31.5t55 -89.5q84 121 179 121q80 0 115 -62.5t14 -179.5q-20 -115 -87.5 -180t-150.5 -65q-61 0 -96 32.5t-55 91.5q-86 -124 -180 -124q-80 0 -114.5 62.5t-13.5 179.5
q20 115 87 180t150 65zM270 442q-69 0 -86 -94q-16 -93 60 -93q51 0 106 73q-8 37 -15 58.5t-23.5 38.5t-41.5 17z" />
    <glyph glyph-name="integral" unicode="&#x222b;" horiz-adv-x="606" 
d="M186 -31l99 559q17 96 87 143t182 33l-22 -126q-96 19 -110 -56l-97 -553q-18 -96 -87.5 -143.5t-182.5 -32.5l23 125q96 -19 108 51z" />
    <glyph glyph-name="approxequal" unicode="&#x2248;" horiz-adv-x="593" 
d="M264 549q42 0 76.5 -17.5t60.5 -34.5t46 -17q24 0 39 12t28 42l81 -50q-24 -67 -70.5 -100.5t-102.5 -33.5q-48 0 -100 34.5t-83 34.5q-45 0 -68 -55l-80 50q25 67 71 101t102 34zM217 285q42 0 77 -17.5t60.5 -34.5t45.5 -17q44 0 68 54l80 -50q-24 -67 -70.5 -100.5
t-101.5 -33.5q-48 0 -100.5 34.5t-83.5 34.5q-44 0 -67 -55l-81 50q25 67 71 101t102 34z" />
    <glyph glyph-name="notequal" unicode="&#x2260;" 
d="M504 138h-242l-70 -102h-128l70 102h-142l22 121h204l88 126h-270l21 121h333l65 94h127l-65 -94h52l-21 -121h-115l-87 -126h180z" />
    <glyph glyph-name="lessequal" unicode="&#x2264;" 
d="M613 618l-348 -171l288 -170l-77 -107l-376 230l16 94l457 230zM522 9h-512l21 121h512z" />
    <glyph glyph-name="greaterequal" unicode="&#x2265;" horiz-adv-x="593" 
d="M78 277l347 170l-287 171l76 106l377 -230l-16 -94l-458 -230zM522 9h-512l21 121h512z" />
    <glyph glyph-name="lozenge" unicode="&#x25ca;" horiz-adv-x="497" 
d="M491 245l-235 -456h-173l-71 455l234 456h173zM155 257l45 -313l148 287l-46 314z" />
    <glyph glyph-name="dotlessj" unicode="&#xf6be;" horiz-adv-x="263" 
d="M110 500h137l-92 -520q-17 -95 -90.5 -147t-158.5 -52l20 114q39 0 62 20.5t32 73.5z" />
    <glyph glyph-name="commaaccent" unicode="&#xf6c3;" horiz-adv-x="247" 
d="M25 -38h124l-12 -68q-16 -96 -145 -148l-9 49q69 20 78 75h-52z" />
    <glyph glyph-name="g.ss01" horiz-adv-x="555" 
d="M321 510q47 0 139 -5t139 -5l-20 -111q-43 0 -64 1l-11 -64q-14 -80 -79.5 -129t-172.5 -49q-37 0 -66 7q-18 -11 -23 -30q-3 -16 6.5 -22.5t31.5 -6.5h138q86 0 120.5 -37t22.5 -104q-15 -84 -84.5 -124.5t-201.5 -40.5q-122 0 -170.5 31t-38.5 91q7 35 31 60t60 37
q-30 11 -42.5 29.5t-6.5 50.5q6 30 29.5 59t54.5 42q-58 48 -44 135q15 84 81 134.5t171 50.5zM274 247q77 0 91 79l12 71q-52 2 -78 2q-70 0 -83 -77q-14 -75 58 -75zM284 -4h-93q-5 0 -13 0.5t-11 0.5q-29 -20 -33 -47q-5 -30 13.5 -44.5t69.5 -14.5q105 0 115 63
q4 21 -7 31.5t-41 10.5z" />
    <glyph glyph-name="g.ss02" horiz-adv-x="572" 
d="M319 510q52 0 151.5 -5t131.5 -5l-21 -111q-23 0 -104 9q17 -10 23.5 -33.5t1.5 -50.5q-13 -75 -78.5 -122t-171.5 -47q-38 0 -69 9q-18 -12 -21 -29q-3 -16 7 -22.5t32 -6.5h142q86 0 120 -35.5t22 -102.5q-13 -78 -87.5 -123t-203.5 -45q-122 0 -170 29.5t-38 89.5
q11 67 92 100q-30 11 -42.5 29.5t-6.5 52.5q5 31 28.5 58t55.5 40q-58 49 -44 135q15 84 80 135t170 51zM362 324q14 83 -59 83q-72 0 -87 -83q-6 -33 8 -55.5t50 -22.5q74 0 88 78zM285 -4h-94q-5 0 -13 0.5t-11 0.5q-27 -18 -33 -47q-5 -30 14 -44.5t70 -14.5
q108 0 118 62q3 21 -9 32t-42 11z" />
    <glyph glyph-name="g.ss03" horiz-adv-x="568" 
d="M307 508q137 0 253 -7l-91 -513q-19 -106 -86.5 -152.5t-197.5 -46.5q-108 0 -158.5 47t-36.5 133h155q-5 -32 12 -51t55 -19q52 0 77.5 19t34.5 70l18 100q-29 -45 -65 -67.5t-91 -22.5q-90 0 -131.5 69.5t-20.5 186.5q19 111 93 182.5t180 71.5zM308 394
q-97 0 -122 -140q-23 -136 67 -136q94 0 118 134l24 137q-48 5 -87 5z" />
    <glyph glyph-name="zero.fitted" horiz-adv-x="637" 
d="M377 568q-62 0 -97 -54t-55 -164q-21 -104 -4 -161t79 -57t97 54t55 164q21 104 4 161t-79 57zM402 710q120 0 181 -91t29 -269q-31 -178 -124 -269t-213 -91q-119 0 -180 91t-30 269t124.5 269t212.5 91z" />
    <glyph glyph-name="one.fitted" horiz-adv-x="475" 
d="M336 0h-150l97 556l-151 -82l-42 109l219 117h150z" />
    <glyph glyph-name="two.fitted" horiz-adv-x="582" 
d="M504 0h-502l21 119q154 91 242.5 157t123.5 112t44 95q19 99 -80 99q-57 0 -86.5 -24.5t-44.5 -81.5h-138q21 110 105 172t197 62q117 0 170 -60t37 -155q-18 -101 -103.5 -181.5t-277.5 -189.5h314z" />
    <glyph glyph-name="three.fitted" horiz-adv-x="603" 
d="M259 302l20 112q84 0 118 23t43 72q7 42 -11 63t-72 21q-56 0 -85 -22t-44 -74h-140q20 99 103.5 156t194.5 57q116 0 173.5 -50.5t42.5 -133.5q-25 -142 -197 -167q175 -14 149 -164q-16 -93 -100 -149t-203 -56q-110 0 -173 58t-48 156h143q-3 -52 20.5 -74.5
t81.5 -22.5q51 0 83 25t40 68q10 53 -19 77.5t-120 24.5z" />
    <glyph glyph-name="four.fitted" horiz-adv-x="601" 
d="M444 0h-151l30 174h-302l22 123l342 403h182l-71 -403h94l-22 -123h-95zM346 297l44 252l-215 -252h171z" />
    <glyph glyph-name="five.fitted" horiz-adv-x="595" 
d="M166 700h427l-21 -124h-301l-29 -126q68 10 110 10q106 0 166.5 -59.5t42.5 -163.5q-19 -111 -108 -179t-209 -68q-111 0 -168 56t-42 159h135q-5 -53 18.5 -76t81.5 -23q52 0 88.5 32t46.5 87q10 59 -17.5 88.5t-101.5 29.5q-116 0 -211 -16z" />
    <glyph glyph-name="six.fitted" horiz-adv-x="627" 
d="M424 710q100 0 158 -58t44 -144h-139q1 87 -85 87q-130 0 -176 -206q73 71 174 71q107 0 153.5 -63t30.5 -153q-19 -104 -100 -179t-204 -75q-133 0 -189 92t-26 259q29 167 124.5 268t234.5 101zM212 288q-19 -171 98 -171q52 0 83 31t40 85q10 52 -10 84t-76 32
q-76 0 -135 -61z" />
    <glyph glyph-name="seven.fitted" horiz-adv-x="529" 
d="M234 0h-165l355 576h-346l22 124h497l-22 -124z" />
    <glyph glyph-name="eight.fitted" horiz-adv-x="606" 
d="M367 588q-97 0 -111 -84q-16 -90 80 -90t112 90q6 38 -13 61t-68 23zM316 303q-112 0 -128 -94q-8 -44 15.5 -69t79.5 -25q55 0 87.5 25t40.5 69q9 50 -17.5 72t-77.5 22zM388 710q118 0 172 -53.5t39 -136.5q-10 -61 -55 -103t-116 -54q70 -7 104.5 -55.5t21.5 -121.5
q-16 -92 -91 -144t-202 -52t-184 52t-41 144q13 73 64.5 119.5t123.5 53.5q-63 14 -94.5 57.5t-20.5 104.5q14 82 87.5 135.5t191.5 53.5z" />
    <glyph glyph-name="nine.fitted" horiz-adv-x="627" 
d="M390 710q132 0 187.5 -92t26.5 -259q-30 -168 -125 -268.5t-234 -100.5q-103 0 -160 54t-43 149h137q-4 -44 20 -66t68 -22q129 0 175 206q-71 -71 -174 -71q-107 0 -153 63t-30 153q19 103 100.5 178.5t204.5 75.5zM359 583q-52 0 -83.5 -31t-40.5 -85q-20 -116 87 -116
q76 0 135 61q19 171 -98 171z" />
    <glyph glyph-name="zero.slash" 
d="M389 710q120 0 181 -91t29 -269q-31 -178 -124 -269t-213 -91q-119 0 -180 91t-30 269t124.5 269t212.5 91zM287 132q28 0 48 10l-97 312q-14 -38 -26 -104q-21 -104 -4 -161t79 -57zM364 568q-25 0 -48 -10l98 -310q14 40 25 102q21 104 4 161t-79 57z" />
    <glyph glyph-name="zero.tab" 
d="M364 568q-62 0 -97 -54t-55 -164q-21 -104 -4 -161t79 -57t97 54t55 164q21 104 4 161t-79 57zM389 710q120 0 181 -91t29 -269q-31 -178 -124 -269t-213 -91q-119 0 -180 91t-30 269t124.5 269t212.5 91z" />
    <glyph glyph-name="one.tab" 
d="M503 0h-389l22 124h131l75 432l-161 -89l-42 109l229 124h150l-101 -576h107z" />
    <glyph glyph-name="two.tab" 
d="M516 0h-502l21 119q154 91 242.5 157t123.5 112t44 95q19 99 -80 99q-57 0 -86.5 -24.5t-44.5 -81.5h-138q21 110 105 172t197 62q117 0 170 -60t37 -155q-18 -101 -103.5 -181.5t-277.5 -189.5h314z" />
    <glyph glyph-name="three.tab" 
d="M266 302l20 112q84 0 118 23t43 72q7 42 -11 63t-72 21q-56 0 -85 -22t-44 -74h-140q20 99 103.5 156t194.5 57q116 0 173.5 -50.5t42.5 -133.5q-25 -142 -197 -167q175 -14 149 -164q-16 -93 -100 -149t-203 -56q-110 0 -173 58t-48 156h143q-3 -52 20.5 -74.5
t81.5 -22.5q51 0 83 25t40 68q10 53 -19 77.5t-120 24.5z" />
    <glyph glyph-name="four.tab" 
d="M445 0h-151l30 174h-302l22 123l342 403h182l-71 -403h94l-22 -123h-95zM347 297l44 252l-215 -252h171z" />
    <glyph glyph-name="five.tab" 
d="M173 700h427l-21 -124h-301l-29 -126q68 10 110 10q106 0 166.5 -59.5t42.5 -163.5q-19 -111 -108 -179t-209 -68q-111 0 -168 56t-42 159h135q-5 -53 18.5 -76t81.5 -23q52 0 88.5 32t46.5 87q10 59 -17.5 88.5t-101.5 29.5q-116 0 -211 -16z" />
    <glyph glyph-name="six.tab" 
d="M415 710q100 0 158 -58t44 -144h-139q1 87 -85 87q-130 0 -176 -206q73 71 174 71q107 0 153.5 -63t30.5 -153q-19 -104 -100 -179t-204 -75q-133 0 -189 92t-26 259q29 167 124.5 268t234.5 101zM203 288q-19 -171 98 -171q51 0 82.5 31t40.5 85q10 52 -10 84t-76 32
q-76 0 -135 -61z" />
    <glyph glyph-name="seven.tab" 
d="M273 0h-165l355 576h-346l22 124h497l-22 -124z" />
    <glyph glyph-name="eight.tab" 
d="M368 588q-97 0 -111 -84q-16 -90 80 -90t112 90q6 38 -13 61t-68 23zM317 303q-112 0 -128 -94q-8 -44 15.5 -69t79.5 -25q55 0 87.5 25t40.5 69q9 50 -17.5 72t-77.5 22zM389 710q118 0 172 -53.5t39 -136.5q-10 -61 -55 -103t-116 -54q70 -7 104.5 -55.5t21.5 -121.5
q-16 -92 -91 -144t-202 -52t-184 52t-41 144q13 73 64.5 119.5t123.5 53.5q-63 14 -94.5 57.5t-20.5 104.5q14 82 87.5 135.5t191.5 53.5z" />
    <glyph glyph-name="nine.tab" 
d="M381 710q132 0 187.5 -92t26.5 -259q-30 -168 -125 -268.5t-234 -100.5q-103 0 -160 54t-43 149h137q-4 -44 20 -66t68 -22q129 0 175 206q-71 -71 -174 -71q-107 0 -153 63t-30 153q19 103 100.5 178.5t204.5 75.5zM350 583q-52 0 -83.5 -31t-40.5 -85q-20 -116 87 -116
q76 0 135 61q19 171 -98 171z" />
    <glyph glyph-name="dollar.tab" 
d="M329 -88h-84l14 80q-106 10 -157.5 71t-40.5 155h148q-7 -85 72 -101l31 176q-49 9 -80 19t-65 31t-46 58t-3 89q15 86 85.5 146t181.5 71l13 74h85l-13 -73q103 -9 153 -69t43 -154h-147q5 82 -72 95l-29 -165q40 -7 66 -13.5t59 -21t50.5 -33.5t27 -50.5t2.5 -72.5
q-16 -94 -91 -157t-189 -74zM470 199q6 31 -14.5 48.5t-62.5 28.5l-28 -160q92 13 105 83zM266 502q-9 -48 70 -70l26 149q-85 -13 -96 -79z" />
    <glyph glyph-name="cent.tab" 
d="M394 694h71l-14 -79q78 -8 120.5 -59.5t37.5 -137.5h-134q0 65 -46 75l-48 -271q47 10 73 76h134q-25 -87 -86 -139t-142 -60l-17 -90h-70l16 91q-94 12 -133.5 78.5t-19.5 179.5q19 109 84.5 176.5t159.5 79.5zM269 358q-10 -52 0.5 -89t40.5 -46l48 270
q-70 -17 -89 -135z" />
    <glyph glyph-name="sterling.tab" 
d="M474 282h-180q-10 -92 -71 -170h341l-20 -112h-486l19 112q65 81 67 170h-71l13 78h53q-6 70 3 118q17 97 100 164.5t211 67.5q113 0 169 -57t50 -153h-147q0 43 -21.5 63.5t-75.5 20.5q-105 0 -123 -96q-7 -40 -7 -128h189z" />
    <glyph glyph-name="yen.tab" 
d="M597 292h-162l-15 -83h97l-14 -78h-96l-23 -131h-158l23 131h-97l15 78h95l15 83h-162l14 79h117l-143 329h184l100 -261l194 261h171l-258 -329h117z" />
    <glyph glyph-name="florin.tab" 
d="M543 708q35 0 78 -8l-21 -120q-40 10 -61 10q-62 0 -73 -60l-5 -30h125l-21 -111h-124l-74 -419q-16 -90 -73.5 -135.5t-141.5 -45.5q-38 0 -77 9l21 119q33 -9 58 -9q64 0 75 62l74 419h-69l20 111h69l5 28q16 90 73.5 135t141.5 45z" />
    <glyph glyph-name="Euro.tab" 
d="M469 390h-209q-6 -24 -8 -41q-6 -37 -7 -50h172l-39 -77h-131q17 -101 121 -101q114 0 158 104h145q-33 -110 -117 -173t-207 -63q-113 0 -179 63t-77 170h-76l40 77h36q4 35 7 50q3 19 9 41h-62l40 78h48q47 110 136 175.5t205 65.5q123 0 185 -62.5t57 -172.5h-146
q-6 104 -121 104q-109 0 -162 -110h221z" />
    <glyph glyph-name="numbersign.tab" 
d="M238 0h-134l30 174h-93l20 106h92l24 139h-92l19 106h92l31 175h134l-31 -175h133l31 175h135l-31 -175h92l-19 -106h-92l-24 -139h92l-19 -106h-92l-30 -174h-135l30 174h-133zM311 419l-24 -139h133l24 139h-133z" />
    <glyph glyph-name="zero.oldstyle" horiz-adv-x="535" 
d="M297 391q-93 0 -116 -141q-24 -141 66 -141q92 0 116 141q25 141 -66 141zM318 510q99 0 153 -66t31 -196t-99 -194t-176 -64q-101 0 -155.5 64t-31.5 194q23 131 100.5 196.5t177.5 65.5z" />
    <glyph glyph-name="one.oldstyle" horiz-adv-x="425" 
d="M255 500h140l-88 -500h-146l65 370l-138 -77l-37 95z" />
    <glyph glyph-name="two.oldstyle" horiz-adv-x="571" 
d="M366 510q108 0 157 -50t36 -122q-12 -69 -81 -121.5t-196 -104.5h242l-19 -112h-457l18 109q177 73 250.5 121t83.5 98q11 69 -57 69q-40 0 -62 -17t-32 -57h-144q22 85 90.5 136t170.5 51z" />
    <glyph glyph-name="three.oldstyle" horiz-adv-x="572" 
d="M111 500h440l-21 -123l-198 -156q99 -7 141 -59t29 -130q-17 -97 -97 -160t-199 -63q-105 0 -160 58t-50 161h143q-3 -53 16.5 -76.5t71.5 -23.5q49 0 79 26.5t38 71.5q10 59 -25.5 82t-145.5 23l18 104l174 141h-275z" />
    <glyph glyph-name="four.oldstyle" horiz-adv-x="567" 
d="M379 -183h-138l32 183h-279l22 124l306 376h177l-66 -377h86l-21 -123h-87zM295 123l44 254l-202 -254h158z" />
    <glyph glyph-name="five.oldstyle" horiz-adv-x="551" 
d="M129 500h393l-22 -124h-262l-31 -120q61 9 102 9q102 0 148.5 -54t28.5 -160q-19 -110 -101.5 -176.5t-194.5 -66.5q-99 0 -148 55t-44 157h137q-5 -53 12.5 -75.5t67.5 -22.5q44 0 72.5 31t38.5 86q10 60 -9.5 87t-81.5 27q-101 0 -196 -16z" />
    <glyph glyph-name="six.oldstyle" horiz-adv-x="581" 
d="M397 710q98 0 146 -52.5t46 -149.5h-137q1 88 -77 88q-63 0 -103 -51.5t-63 -154.5q72 70 164 70q105 0 147.5 -62t26.5 -153q-19 -105 -96 -180t-198 -75q-125 0 -176 92t-21 259q29 168 118.5 268.5t222.5 100.5zM321 349q-67 0 -126 -60q-23 -173 88 -173
q93 0 114 117q9 55 -6.5 85.5t-69.5 30.5z" />
    <glyph glyph-name="seven.oldstyle" horiz-adv-x="493" 
d="M184 -183h-163l338 560h-317l22 123h462l-22 -123z" />
    <glyph glyph-name="eight.oldstyle" horiz-adv-x="571" 
d="M370 710q111 0 164 -50t38 -131q-9 -50 -49 -89.5t-96 -63.5q125 -50 103 -176q-16 -93 -92 -151.5t-193 -58.5q-122 0 -177.5 46.5t-40.5 137.5q11 57 59.5 103t112.5 71q-118 53 -99 164q15 83 88 140.5t182 57.5zM274 301q-88 -44 -100 -108q-7 -42 16.5 -67.5
t77.5 -25.5q103 0 118 87q13 71 -112 114zM352 602q-46 0 -74.5 -23.5t-34.5 -58.5q-5 -36 21.5 -57.5t79.5 -40.5q77 40 87 96q7 37 -12.5 60.5t-66.5 23.5z" />
    <glyph glyph-name="nine.oldstyle" horiz-adv-x="581" 
d="M330 510q126 0 179.5 -88t23.5 -253q-29 -167 -119 -263t-224 -96q-93 0 -141.5 53.5t-46.5 149.5h137q-3 -46 14.5 -67.5t58.5 -21.5q65 0 100.5 45t58.5 148q-68 -66 -155 -66q-72 0 -115.5 31t-56 77.5t-2.5 104.5q19 103 94 174.5t194 71.5zM307 384q-92 0 -112 -109
q-9 -54 5.5 -83.5t66.5 -29.5q69 0 122 56q12 84 -5.5 125t-76.5 41z" />
    <glyph glyph-name="zero.taboldstyle" horiz-adv-x="575" 
d="M316 391q-93 0 -116 -141q-24 -141 66 -141q92 0 116 141q25 141 -66 141zM337 510q99 0 153 -66t31 -196t-99 -194t-176 -64q-101 0 -155.5 64t-31.5 194q23 131 100.5 196.5t177.5 65.5z" />
    <glyph glyph-name="one.taboldstyle" horiz-adv-x="575" 
d="M305 500h140l-66 -377h101l-22 -123h-370l21 123h124l43 248l-137 -77l-37 94z" />
    <glyph glyph-name="two.taboldstyle" horiz-adv-x="575" 
d="M337 510q108 0 157 -50t36 -122q-12 -69 -81 -121.5t-196 -104.5h242l-19 -112h-457l18 109q177 73 250.5 121t83.5 98q11 69 -57 69q-40 0 -62 -17t-32 -57h-144q22 85 90.5 136t170.5 51z" />
    <glyph glyph-name="three.taboldstyle" horiz-adv-x="575" 
d="M103 500h440l-21 -123l-198 -156q99 -7 141 -59t29 -130q-17 -97 -97 -160t-199 -63q-105 0 -160 58t-50 161h143q-3 -53 16.5 -76.5t71.5 -23.5q49 0 79 26.5t38 71.5q10 59 -25.5 82t-145.5 23l18 104l174 141h-275z" />
    <glyph glyph-name="four.taboldstyle" horiz-adv-x="575" 
d="M380 -183h-138l32 183h-279l22 124l306 376h177l-66 -377h86l-21 -123h-87zM296 123l44 254l-202 -254h158z" />
    <glyph glyph-name="five.taboldstyle" horiz-adv-x="575" 
d="M140 500h393l-22 -124h-262l-31 -120q61 9 102 9q102 0 148.5 -54t28.5 -160q-19 -110 -101.5 -176.5t-194.5 -66.5q-99 0 -148 55t-44 157h137q-5 -53 12.5 -75.5t67.5 -22.5q44 0 72.5 31t38.5 86q10 60 -9.5 87t-81.5 27q-101 0 -196 -16z" />
    <glyph glyph-name="six.taboldstyle" horiz-adv-x="575" 
d="M395 710q98 0 146 -52.5t46 -149.5h-137q1 88 -77 88q-63 0 -103 -51.5t-63 -154.5q72 70 164 70q105 0 147.5 -62t26.5 -153q-19 -105 -96 -180t-198 -75q-125 0 -176 92t-21 259q29 168 118.5 268.5t222.5 100.5zM319 349q-67 0 -126 -60q-23 -173 88 -173
q93 0 114 117q9 55 -6.5 85.5t-69.5 30.5z" />
    <glyph glyph-name="seven.taboldstyle" horiz-adv-x="575" 
d="M226 -183h-163l338 560h-317l22 123h462l-22 -123z" />
    <glyph glyph-name="eight.taboldstyle" horiz-adv-x="575" 
d="M371 710q111 0 164 -50t38 -131q-9 -50 -49 -89.5t-96 -63.5q125 -50 103 -176q-16 -93 -92 -151.5t-193 -58.5q-122 0 -177.5 46.5t-40.5 137.5q11 57 59.5 103t112.5 71q-118 53 -99 164q15 83 88 140.5t182 57.5zM275 301q-88 -44 -100 -108q-7 -42 16.5 -67.5
t77.5 -25.5q103 0 118 87q13 71 -112 114zM353 602q-46 0 -74.5 -23.5t-34.5 -58.5q-5 -36 21.5 -57.5t79.5 -40.5q77 40 87 96q7 37 -12.5 60.5t-66.5 23.5z" />
    <glyph glyph-name="nine.taboldstyle" horiz-adv-x="575" 
d="M327 510q126 0 179.5 -88t23.5 -253q-29 -167 -119 -263t-224 -96q-93 0 -141.5 53.5t-46.5 149.5h137q-3 -46 14.5 -67.5t58.5 -21.5q65 0 100.5 45t58.5 148q-68 -66 -155 -66q-72 0 -115.5 31t-56 77.5t-2.5 104.5q19 103 94 174.5t194 71.5zM304 384q-92 0 -112 -109
q-9 -54 5.5 -83.5t66.5 -29.5q69 0 122 56q12 84 -5.5 125t-76.5 41z" />
    <glyph glyph-name="zero.small" horiz-adv-x="505" 
d="M282 393q-41 0 -64.5 -35t-35.5 -108q-14 -72 -3 -107.5t52 -35.5q40 0 63.5 34.5t36.5 108.5q13 71 2 107t-51 36zM302 510q95 0 145 -65.5t27 -196.5q-12 -67 -38 -117.5t-62 -80.5t-76.5 -45t-86.5 -15q-96 0 -146.5 64t-27.5 194q23 131 96 196.5t169 65.5z" />
    <glyph glyph-name="one.small" horiz-adv-x="382" 
d="M37 393l199 109h139l-88 -502h-145l65 370l-134 -75z" />
    <glyph glyph-name="two.small" horiz-adv-x="477" 
d="M184 323h-131q22 85 83.5 136t154.5 51q101 0 144 -42.5t30 -113.5q-12 -72 -69.5 -126.5t-184.5 -115.5h210l-19 -112h-402l18 104q113 55 177.5 97t89 71t30.5 63q11 62 -51 62q-32 0 -50.5 -17t-29.5 -57z" />
    <glyph glyph-name="three.small" horiz-adv-x="509" 
d="M309 510q96 0 145.5 -36t38.5 -99q-18 -96 -136 -119q119 -16 102 -120q-12 -69 -80.5 -107.5t-167.5 -38.5q-90 0 -143.5 47t-45.5 123h148q-1 -35 14 -50.5t48 -15.5q63 0 74 54q5 32 -14 45.5t-79 13.5l16 93q55 0 76.5 12.5t26.5 42.5q8 51 -47 51q-31 0 -48.5 -14.5
t-28.5 -47.5h-146q18 76 87.5 121t159.5 45z" />
    <glyph glyph-name="four.small" horiz-adv-x="498" 
d="M285 500h165l-51 -284h75l-18 -102h-75l-19 -114h-145l19 114h-232l18 106zM280 359l-131 -143h105z" />
    <glyph glyph-name="five.small" horiz-adv-x="512" 
d="M133 500h352l-20 -111h-223l-15 -65q35 5 68 5q93 0 139.5 -39t31.5 -122q-13 -79 -85 -128.5t-171 -49.5q-92 0 -136 42.5t-40 123.5h145q-3 -36 9.5 -52.5t44.5 -16.5q61 0 75 72q6 39 -9 57t-55 18q-99 0 -179 -12z" />
    <glyph glyph-name="six.small" horiz-adv-x="530" 
d="M332 510q83 0 133.5 -40.5t51.5 -111.5h-150q1 28 -13 40.5t-43 12.5q-40 0 -65 -25.5t-37 -81.5q56 29 120 29q89 0 129 -41.5t27 -116.5q-14 -76 -81.5 -130.5t-174.5 -54.5q-109 0 -161 67t-31 187t101 193t194 73zM273 240q-42 0 -83 -33q-7 -55 6 -83t52 -28
q69 0 83 74q11 70 -58 70z" />
    <glyph glyph-name="seven.small" horiz-adv-x="431" 
d="M64 500h399l-20 -108l-250 -392h-160l257 389h-246z" />
    <glyph glyph-name="eight.small" horiz-adv-x="512" 
d="M290 417q-64 0 -73 -57q-12 -58 53 -58q60 0 72 58q11 57 -52 57zM254 212q-76 0 -86 -63q-6 -30 8.5 -46.5t55.5 -16.5q74 0 84 63q11 63 -62 63zM306 510q101 0 148.5 -37.5t37.5 -99.5q-8 -42 -39.5 -73t-86.5 -42q55 -8 79 -41t16 -84q-12 -68 -75.5 -105.5
t-170.5 -37.5q-109 0 -159.5 37.5t-38.5 105.5q9 49 47 82.5t94 42.5q-51 12 -73.5 42.5t-14.5 72.5q11 62 72 99.5t164 37.5z" />
    <glyph glyph-name="nine.small" horiz-adv-x="530" 
d="M308 510q109 0 160.5 -67t30.5 -187q-20 -120 -100 -193t-195 -73q-83 0 -133 40.5t-51 111.5h148q2 -29 15 -41.5t42 -12.5q83 0 105 105q-52 -27 -123 -27q-88 0 -128 42t-27 117q13 76 81 130.5t175 54.5zM291 404q-64 0 -78 -73q-12 -69 52 -69q46 0 84 30
q9 50 -5 81t-53 31z" />
    <glyph glyph-name="zerosmall.tab" horiz-adv-x="528" 
d="M293 393q-41 0 -64.5 -35t-35.5 -108q-14 -72 -3 -107.5t52 -35.5q40 0 63.5 34.5t36.5 108.5q13 71 2 107t-51 36zM313 510q95 0 145 -65.5t27 -196.5q-12 -67 -38 -117.5t-62 -80.5t-76.5 -45t-86.5 -15q-96 0 -146.5 64t-27.5 194q23 131 96 196.5t169 65.5z" />
    <glyph glyph-name="onesmall.tab" horiz-adv-x="528" 
d="M431 0h-354l21 123h112l43 250l-135 -75l-36 94l200 110h140l-67 -379h98z" />
    <glyph glyph-name="twosmall.tab" horiz-adv-x="528" 
d="M210 323h-131q22 85 83.5 136t154.5 51q101 0 144 -42.5t30 -113.5q-12 -72 -69.5 -126.5t-184.5 -115.5h210l-19 -112h-402l18 104q113 55 177.5 97t89 71t30.5 63q11 62 -51 62q-32 0 -50.5 -17t-29.5 -57z" />
    <glyph glyph-name="threesmall.tab" horiz-adv-x="528" 
d="M317 510q96 0 145.5 -36t38.5 -99q-18 -96 -136 -119q119 -16 102 -120q-12 -69 -80.5 -107.5t-167.5 -38.5q-90 0 -143.5 47t-45.5 123h148q-1 -35 14 -50.5t48 -15.5q63 0 74 54q5 32 -14 45.5t-79 13.5l16 93q55 0 76.5 12.5t26.5 42.5q8 51 -47 51q-31 0 -48.5 -14.5
t-28.5 -47.5h-146q18 76 87.5 121t159.5 45z" />
    <glyph glyph-name="foursmall.tab" horiz-adv-x="528" 
d="M298 500h165l-51 -284h75l-18 -102h-75l-19 -114h-145l19 114h-232l18 106zM293 359l-131 -143h105z" />
    <glyph glyph-name="fivesmall.tab" horiz-adv-x="528" 
d="M134 500h352l-20 -111h-223l-15 -65q35 5 68 5q93 0 139.5 -39t31.5 -122q-13 -79 -85 -128.5t-171 -49.5q-92 0 -136 42.5t-40 123.5h145q-3 -36 9.5 -52.5t44.5 -16.5q62 0 75 72q6 39 -9 57t-55 18q-99 0 -179 -12z" />
    <glyph glyph-name="sixsmall.tab" horiz-adv-x="528" 
d="M332 510q83 0 133.5 -40.5t51.5 -111.5h-150q1 28 -13 40.5t-43 12.5q-40 0 -65 -25.5t-37 -81.5q56 29 120 29q89 0 129 -41.5t27 -116.5q-14 -76 -81.5 -130.5t-174.5 -54.5q-109 0 -161 67t-31 187t101 193t194 73zM273 240q-42 0 -83 -33q-7 -55 6 -83t52 -28
q69 0 83 74q11 70 -58 70z" />
    <glyph glyph-name="sevensmall.tab" horiz-adv-x="528" 
d="M112 500h399l-20 -108l-250 -392h-160l257 389h-246z" />
    <glyph glyph-name="eightsmall.tab" horiz-adv-x="528" 
d="M297 417q-64 0 -73 -57q-12 -58 53 -58q60 0 72 58q11 57 -52 57zM261 212q-76 0 -86 -63q-6 -30 8.5 -46.5t55.5 -16.5q74 0 84 63q11 63 -62 63zM313 510q101 0 148.5 -37.5t37.5 -99.5q-8 -42 -39.5 -73t-86.5 -42q55 -8 79 -41t16 -84q-12 -68 -75.5 -105.5
t-170.5 -37.5q-109 0 -159.5 37.5t-38.5 105.5q9 49 47 82.5t94 42.5q-51 12 -73.5 42.5t-14.5 72.5q11 62 72 99.5t164 37.5z" />
    <glyph glyph-name="ninesmall.tab" horiz-adv-x="528" 
d="M308 510q109 0 160.5 -67t30.5 -187q-20 -120 -100 -193t-195 -73q-83 0 -133 40.5t-51 111.5h148q2 -29 15 -41.5t42 -12.5q83 0 105 105q-52 -27 -123 -27q-88 0 -128 42t-27 117q13 76 81 130.5t175 54.5zM291 404q-64 0 -78 -73q-12 -69 52 -69q46 0 84 30
q9 50 -5 81t-53 31z" />
    <glyph glyph-name="zero.superior" horiz-adv-x="387" 
d="M271 670q-29 0 -45 -22t-24 -70q-10 -48 -1.5 -70.5t37.5 -22.5t45 22t24 71q9 47 0.5 69.5t-36.5 22.5zM287 762q74 0 111.5 -46.5t21.5 -139.5q-17 -93 -70.5 -138t-127.5 -45q-75 0 -112.5 45t-20.5 138q16 94 70 140t128 46z" />
    <glyph glyph-name="one.superior" horiz-adv-x="387" 
d="M368 400h-254l15 88h77l29 166l-96 -53l-28 75l146 81h113l-48 -269h61z" />
    <glyph glyph-name="two.superior" horiz-adv-x="387" 
d="M297 762q72 0 105.5 -31t24.5 -80q-9 -47 -47 -84t-125 -79h143l-15 -88h-317l13 75q119 57 166 92t52 64q6 40 -31 40q-41 0 -57 -50h-107q16 64 67.5 102.5t127.5 38.5z" />
    <glyph glyph-name="three.superior" horiz-adv-x="387" 
d="M290 762q72 0 105 -25.5t25 -70.5q-12 -67 -94 -84q84 -14 70 -85q-8 -49 -55 -76.5t-122 -27.5q-69 0 -105 34t-27 90h110q-2 -25 7.5 -34.5t32.5 -9.5q39 0 44 34q4 20 -8 28.5t-49 8.5l13 71q33 0 47.5 8t16.5 27q6 33 -29 33q-21 0 -32 -9t-18 -32h-109
q12 55 60 87.5t117 32.5z" />
    <glyph glyph-name="four.superior" horiz-adv-x="387" 
d="M268 755h128l-35 -195h53l-16 -87h-52l-12 -73h-109l12 73h-171l15 82zM270 659l-92 -99h74z" />
    <glyph glyph-name="five.superior" horiz-adv-x="387" 
d="M160 755h250l-14 -83h-164l-10 -39q21 4 49 4q69 0 102.5 -28.5t23.5 -88.5q-10 -57 -61.5 -92t-121.5 -35q-69 0 -99.5 33.5t-23.5 88.5h103q-4 -40 38 -40q45 0 53 44q4 22 -7 33t-40 11q-54 0 -128 -8z" />
    <glyph glyph-name="six.superior" horiz-adv-x="387" 
d="M429 649h-103q-1 34 -43 34q-63 0 -80 -75q50 26 104 26q56 0 83.5 -28.5t17.5 -80.5q-10 -59 -57 -95.5t-125 -36.5q-79 0 -115.5 45.5t-20.5 134.5q16 90 71 139.5t139 49.5q70 0 102 -28t27 -85zM256 560q-33 0 -58 -21q-6 -60 44 -60q45 0 53 40q6 41 -39 41z" />
    <glyph glyph-name="seven.superior" horiz-adv-x="387" 
d="M137 755h299l-13 -77l-177 -278h-130l181 265h-175z" />
    <glyph glyph-name="eight.superior" horiz-adv-x="387" 
d="M274 689q-43 0 -48 -34q-8 -39 36 -39q40 0 48 39q5 34 -36 34zM249 546q-50 0 -56 -40q-4 -19 5.5 -28.5t36.5 -9.5q48 0 56 38q4 22 -7 31t-35 9zM287 762q70 0 105 -27.5t28 -70.5q-14 -66 -90 -80q81 -11 68 -89q-8 -48 -54 -75t-122 -27q-78 0 -113.5 26.5
t-27.5 75.5q6 35 31.5 58t67.5 29q-74 18 -62 82q8 44 52 71t117 27z" />
    <glyph glyph-name="nine.superior" horiz-adv-x="387" 
d="M283 762q80 0 116 -45t20 -135q-16 -89 -72 -139t-138 -50q-65 0 -100 28.5t-30 79.5h104q0 -35 42 -35q58 0 77 78q-46 -26 -90 -26q-63 0 -91.5 29.5t-18.5 82.5q9 55 56 93.5t125 38.5zM269 677q-45 0 -53 -44t37 -44q29 0 58 24q2 33 -7.5 48.5t-34.5 15.5z" />
    <glyph glyph-name="zero.inferior" horiz-adv-x="387" 
d="M180 150q-29 0 -45 -22t-24 -70q-10 -48 -1.5 -70.5t37.5 -22.5t45 22t24 71q9 47 0.5 69.5t-36.5 22.5zM196 242q74 0 111.5 -46.5t21.5 -139.5q-17 -93 -70.5 -138t-127.5 -45q-75 0 -112.5 45t-20.5 138q16 94 70 140t128 46z" />
    <glyph glyph-name="one.inferior" horiz-adv-x="387" 
d="M277 -120h-254l15 88h77l29 166l-96 -53l-28 75l146 81h113l-48 -269h61z" />
    <glyph glyph-name="two.inferior" horiz-adv-x="387" 
d="M206 242q72 0 105.5 -31t24.5 -80q-9 -47 -47 -84t-125 -79h143l-15 -88h-317l13 75q119 57 166 92t52 64q6 40 -31 40q-41 0 -57 -50h-107q16 64 67.5 102.5t127.5 38.5z" />
    <glyph glyph-name="three.inferior" horiz-adv-x="387" 
d="M199 242q72 0 105 -25.5t25 -70.5q-12 -67 -94 -84q84 -14 70 -85q-8 -49 -55 -76.5t-122 -27.5q-69 0 -105 34t-27 90h110q-2 -25 7.5 -34.5t32.5 -9.5q39 0 44 34q4 20 -8 28.5t-49 8.5l13 71q33 0 47.5 8t16.5 27q6 33 -29 33q-21 0 -32 -9t-18 -32h-109
q12 55 60 87.5t117 32.5z" />
    <glyph glyph-name="four.inferior" horiz-adv-x="387" 
d="M177 235h128l-35 -195h53l-16 -87h-52l-12 -73h-109l12 73h-171l15 82zM179 139l-92 -99h74z" />
    <glyph glyph-name="five.inferior" horiz-adv-x="387" 
d="M69 235h250l-14 -83h-164l-10 -39q21 4 49 4q69 0 102.5 -28.5t23.5 -88.5q-10 -57 -61.5 -92t-121.5 -35q-69 0 -99.5 33.5t-23.5 88.5h103q-4 -40 38 -40q45 0 53 44q4 22 -7 33t-40 11q-54 0 -128 -8z" />
    <glyph glyph-name="six.inferior" horiz-adv-x="387" 
d="M338 129h-103q-1 34 -43 34q-63 0 -80 -75q50 26 104 26q56 0 83.5 -28.5t17.5 -80.5q-10 -59 -57 -95.5t-125 -36.5q-79 0 -115.5 45.5t-20.5 134.5q16 90 71 139.5t139 49.5q70 0 102 -28t27 -85zM165 40q-33 0 -58 -21q-6 -60 44 -60q45 0 53 40q6 41 -39 41z" />
    <glyph glyph-name="seven.inferior" horiz-adv-x="387" 
d="M46 235h299l-13 -77l-177 -278h-130l181 265h-175z" />
    <glyph glyph-name="eight.inferior" horiz-adv-x="387" 
d="M183 169q-43 0 -48 -34q-8 -39 36 -39q40 0 48 39q5 34 -36 34zM158 26q-50 0 -56 -40q-4 -19 5.5 -28.5t36.5 -9.5q48 0 56 38q4 22 -7 31t-35 9zM196 242q70 0 105 -27.5t28 -70.5q-14 -66 -90 -80q81 -11 68 -89q-8 -48 -54 -75t-122 -27q-78 0 -113.5 26.5
t-27.5 75.5q6 35 31.5 58t67.5 29q-74 18 -62 82q8 44 52 71t117 27z" />
    <glyph glyph-name="nine.inferior" horiz-adv-x="387" 
d="M192 242q80 0 116 -45t20 -135q-16 -89 -72 -139t-138 -50q-65 0 -100 28.5t-30 79.5h104q0 -35 42 -35q58 0 77 78q-45 -26 -90 -26q-63 0 -91.5 29.5t-18.5 82.5q9 55 56 93.5t125 38.5zM178 157q-45 0 -53 -44t37 -44q29 0 58 24q2 33 -7.5 48.5t-34.5 15.5z" />
    <glyph glyph-name="zero.numr" horiz-adv-x="387" 
d="M261 614q-29 0 -45 -22t-24 -70q-10 -48 -1.5 -70.5t37.5 -22.5t45 22t24 71q9 47 0.5 69.5t-36.5 22.5zM277 706q74 0 111.5 -46.5t21.5 -139.5q-17 -93 -70.5 -138t-127.5 -45q-75 0 -112.5 45t-20.5 138q16 94 70 140t128 46z" />
    <glyph glyph-name="one.numr" horiz-adv-x="387" 
d="M358 344h-254l15 88h77l29 166l-96 -53l-28 75l146 81h113l-48 -269h61z" />
    <glyph glyph-name="two.numr" horiz-adv-x="387" 
d="M287 706q72 0 105.5 -31t24.5 -80q-9 -47 -47 -84t-125 -79h143l-15 -88h-317l13 75q119 57 166 92t52 64q6 40 -31 40q-41 0 -57 -50h-107q16 64 67.5 102.5t127.5 38.5z" />
    <glyph glyph-name="three.numr" horiz-adv-x="387" 
d="M280 706q72 0 105 -25.5t25 -70.5q-12 -67 -94 -84q84 -14 70 -85q-8 -49 -55 -76.5t-122 -27.5q-69 0 -105 34t-27 90h110q-2 -25 7.5 -34.5t32.5 -9.5q39 0 44 34q4 20 -8 28.5t-49 8.5l13 71q33 0 47.5 8t16.5 27q6 33 -29 33q-21 0 -32 -9t-18 -32h-109
q12 55 60 87.5t117 32.5z" />
    <glyph glyph-name="four.numr" horiz-adv-x="387" 
d="M258 699h128l-35 -195h53l-16 -87h-52l-12 -73h-109l12 73h-171l15 82zM260 603l-92 -99h74z" />
    <glyph glyph-name="five.numr" horiz-adv-x="387" 
d="M150 699h250l-14 -83h-164l-10 -39q21 4 49 4q69 0 102.5 -28.5t23.5 -88.5q-10 -57 -61.5 -92t-121.5 -35q-69 0 -99.5 33.5t-23.5 88.5h103q-4 -40 38 -40q45 0 53 44q4 22 -7 33t-40 11q-54 0 -128 -8z" />
    <glyph glyph-name="six.numr" horiz-adv-x="387" 
d="M419 593h-103q-1 34 -43 34q-63 0 -80 -75q50 26 104 26q56 0 83.5 -28.5t17.5 -80.5q-10 -59 -57 -95.5t-125 -36.5q-79 0 -115.5 45.5t-20.5 134.5q16 90 71 139.5t139 49.5q70 0 102 -28t27 -85zM246 504q-33 0 -58 -21q-6 -60 44 -60q45 0 53 40q6 41 -39 41z" />
    <glyph glyph-name="seven.numr" horiz-adv-x="387" 
d="M127 699h299l-13 -77l-177 -278h-130l181 265h-175z" />
    <glyph glyph-name="eight.numr" horiz-adv-x="387" 
d="M264 633q-43 0 -48 -34q-8 -39 36 -39q40 0 48 39q5 34 -36 34zM239 490q-50 0 -56 -40q-4 -19 5.5 -28.5t36.5 -9.5q48 0 56 38q4 22 -7 31t-35 9zM277 706q70 0 105 -27.5t28 -70.5q-14 -66 -90 -80q81 -11 68 -89q-8 -48 -54 -75t-122 -27q-78 0 -113.5 26.5
t-27.5 75.5q6 35 31.5 58t67.5 29q-74 18 -62 82q8 44 52 71t117 27z" />
    <glyph glyph-name="nine.numr" horiz-adv-x="387" 
d="M273 706q80 0 116 -45t20 -135q-16 -89 -72 -139t-138 -50q-65 0 -100 28.5t-30 79.5h104q0 -35 42 -35q58 0 77 78q-46 -26 -90 -26q-63 0 -91.5 29.5t-18.5 82.5q9 55 56 93.5t125 38.5zM259 621q-45 0 -53 -44t37 -44q29 0 58 24q2 33 -7.5 48.5t-34.5 15.5z" />
    <glyph glyph-name="zero.dnom" horiz-adv-x="387" 
d="M201 270q-29 0 -45 -22t-24 -70q-10 -48 -1.5 -70.5t37.5 -22.5t45 22t24 71q9 47 0.5 69.5t-36.5 22.5zM217 362q74 0 111.5 -46.5t21.5 -139.5q-17 -93 -70.5 -138t-127.5 -45q-75 0 -112.5 45t-20.5 138q16 94 70 140t128 46z" />
    <glyph glyph-name="one.dnom" horiz-adv-x="387" 
d="M298 0h-254l15 88h77l29 166l-96 -53l-28 75l146 81h113l-48 -269h61z" />
    <glyph glyph-name="two.dnom" horiz-adv-x="387" 
d="M227 362q72 0 105.5 -31t24.5 -80q-9 -47 -47 -84t-125 -79h143l-15 -88h-317l13 75q119 57 166 92t52 64q6 40 -31 40q-41 0 -57 -50h-107q16 64 67.5 102.5t127.5 38.5z" />
    <glyph glyph-name="three.dnom" horiz-adv-x="387" 
d="M220 362q72 0 105 -25.5t25 -70.5q-12 -67 -94 -84q84 -14 70 -85q-8 -49 -55 -76.5t-122 -27.5q-69 0 -105 34t-27 90h110q-2 -25 7.5 -34.5t32.5 -9.5q39 0 44 34q4 20 -8 28.5t-49 8.5l13 71q33 0 47.5 8t16.5 27q6 33 -29 33q-21 0 -32 -9t-18 -32h-109
q12 55 60 87.5t117 32.5z" />
    <glyph glyph-name="four.dnom" horiz-adv-x="387" 
d="M198 355h128l-35 -195h53l-16 -87h-52l-12 -73h-109l12 73h-171l15 82zM200 259l-92 -99h74z" />
    <glyph glyph-name="five.dnom" horiz-adv-x="387" 
d="M90 355h250l-14 -83h-164l-10 -39q21 4 49 4q69 0 102.5 -28.5t23.5 -88.5q-10 -57 -61.5 -92t-121.5 -35q-69 0 -99.5 33.5t-23.5 88.5h103q-4 -40 38 -40q45 0 53 44q4 22 -7 33t-40 11q-54 0 -128 -8z" />
    <glyph glyph-name="six.dnom" horiz-adv-x="387" 
d="M359 249h-103q-1 34 -43 34q-63 0 -80 -75q50 26 104 26q56 0 83.5 -28.5t17.5 -80.5q-10 -59 -57 -95.5t-125 -36.5q-79 0 -115.5 45.5t-20.5 134.5q16 90 71 139.5t139 49.5q70 0 102 -28t27 -85zM186 160q-33 0 -58 -21q-6 -60 44 -60q45 0 53 40q6 41 -39 41z" />
    <glyph glyph-name="seven.dnom" horiz-adv-x="387" 
d="M67 355h299l-13 -77l-177 -278h-130l181 265h-175z" />
    <glyph glyph-name="eight.dnom" horiz-adv-x="387" 
d="M204 289q-43 0 -48 -34q-8 -39 36 -39q40 0 48 39q5 34 -36 34zM179 146q-50 0 -56 -40q-4 -19 5.5 -28.5t36.5 -9.5q48 0 56 38q4 22 -7 31t-35 9zM217 362q70 0 105 -27.5t28 -70.5q-14 -66 -90 -80q81 -11 68 -89q-8 -48 -54 -75t-122 -27q-78 0 -113.5 26.5
t-27.5 75.5q6 35 31.5 58t67.5 29q-74 18 -62 82q8 44 52 71t117 27z" />
    <glyph glyph-name="nine.dnom" horiz-adv-x="387" 
d="M213 362q80 0 116 -45t20 -135q-16 -89 -72 -139t-138 -50q-65 0 -100 28.5t-30 79.5h104q0 -35 42 -35q58 0 77 78q-46 -26 -90 -26q-63 0 -91.5 29.5t-18.5 82.5q9 55 56 93.5t125 38.5zM199 277q-45 0 -53 -44t37 -44q29 0 58 24q2 33 -7.5 48.5t-34.5 15.5z" />
    <glyph glyph-name="A.small" horiz-adv-x="531" 
d="M214 500h199l75 -500h-150l-17 119h-156l-57 -119h-146zM297 419q-9 -32 -22 -59l-67 -141h105l-16 141q-2 28 0 59z" />
    <glyph glyph-name="B.small" horiz-adv-x="528" 
d="M237 399l-17 -95h63q59 0 67 48q4 24 -7 35.5t-42 11.5h-64zM110 500h251q83 0 118.5 -34.5t26.5 -88.5q-16 -88 -118 -115q55 -10 78 -43t15 -82q-11 -59 -65.5 -98t-134.5 -39h-259zM204 211l-19 -109h68q69 0 78 53q6 27 -7.5 41.5t-49.5 14.5h-70z" />
    <glyph glyph-name="C.small" horiz-adv-x="529" 
d="M327 510q92 0 142 -53t44 -148h-150q2 35 -14 56.5t-49 21.5q-48 0 -74 -34.5t-38 -102.5t2 -102.5t62 -34.5q64 0 91 78h150q-28 -95 -96.5 -148t-160.5 -53q-116 0 -167 67.5t-29 192.5t96.5 192.5t190.5 67.5z" />
    <glyph glyph-name="D.small" horiz-adv-x="565" 
d="M110 500h237q108 0 157 -65.5t29 -183.5q-21 -118 -92 -184.5t-176 -66.5h-243zM236 391l-50 -282h63q57 0 87.5 31.5t44.5 109.5q14 77 -6.5 109t-78.5 32h-60z" />
    <glyph glyph-name="E.small" horiz-adv-x="464" 
d="M110 500h372l-19 -109h-227l-16 -86h182l-17 -101h-182l-17 -95h232l-18 -109h-378z" />
    <glyph glyph-name="F.small" horiz-adv-x="438" 
d="M110 500h372l-19 -109h-227l-20 -111h182l-17 -101h-182l-32 -179h-145z" />
    <glyph glyph-name="G.small" horiz-adv-x="561" 
d="M331 510q97 0 145.5 -46t45.5 -126h-145q-4 29 -19 43t-48 14q-52 0 -80.5 -36t-40.5 -108q-15 -71 -1.5 -109t63.5 -38q40 0 67.5 24t35.5 69h-90l17 94h235l-51 -291h-137l10 63q-43 -73 -131 -73q-97 0 -143.5 66t-23.5 195q19 112 98.5 185.5t192.5 73.5z" />
    <glyph glyph-name="H.small" horiz-adv-x="557" 
d="M110 500h145l-32 -183h143l32 183h145l-88 -500h-145l35 200h-143l-35 -200h-145z" />
    <glyph glyph-name="I.small" horiz-adv-x="269" 
d="M110 500h145l-88 -500h-145z" />
    <glyph glyph-name="J.small" horiz-adv-x="461" 
d="M308 500h145l-61 -340q-13 -79 -77.5 -124.5t-158.5 -45.5q-83 0 -126 44.5t-39 124.5h146q-4 -59 44 -59q31 0 46 15t22 51z" />
    <glyph glyph-name="K.small" horiz-adv-x="569" 
d="M110 500h145l-88 -500h-145zM433 500h163l-219 -224l145 -276h-166l-138 271z" />
    <glyph glyph-name="L.small" horiz-adv-x="441" 
d="M110 500h145l-68 -384h229l-20 -116h-374z" />
    <glyph glyph-name="M.small" horiz-adv-x="720" 
d="M110 500h207l30 -264q3 -27 1 -80q12 43 28 80l131 264h199l-88 -500h-133l52 298q4 28 13 64q-7 -22 -25 -64l-143 -298h-124l-39 291q-1 10 -4 76q-2 -24 -10 -76l-51 -291h-132z" />
    <glyph glyph-name="N.small" horiz-adv-x="570" 
d="M110 500h171l80 -242q10 -36 13 -80q5 46 12 88l42 234h128l-88 -500h-158l-85 275q-9 33 -14 81q-3 -49 -11 -88l-47 -268h-131z" />
    <glyph glyph-name="O.small" horiz-adv-x="543" 
d="M299 386q-46 0 -73.5 -33t-39.5 -102q-12 -70 3.5 -103.5t61.5 -33.5t73.5 33.5t39.5 103.5q24 135 -65 135zM321 510q106 0 158.5 -69t31.5 -190q-22 -122 -98.5 -191.5t-182.5 -69.5q-107 0 -159.5 69.5t-30.5 191.5q21 121 97.5 190t183.5 69z" />
    <glyph glyph-name="P.small" horiz-adv-x="514" 
d="M110 500h257q82 0 119 -48t24 -123q-14 -78 -68.5 -126t-141.5 -48h-106l-27 -155h-145zM236 391l-24 -137h76q63 0 75 70q11 67 -51 67h-76z" />
    <glyph glyph-name="Q.small" horiz-adv-x="543" 
d="M321 510q106 0 158.5 -69t31.5 -190q-24 -132 -110 -201l72 -123h-148l-38 69q-38 -6 -57 -6q-107 0 -159.5 69.5t-30.5 191.5q21 121 97.5 190t183.5 69zM191 171h140l4 -8q18 31 29 88q24 135 -65 135q-46 0 -73.5 -33t-39.5 -102q-19 -112 33 -132z" />
    <glyph glyph-name="R.small" horiz-adv-x="535" 
d="M110 500h264q83 0 118.5 -39.5t23.5 -102.5q-8 -50 -44 -85.5t-90 -46.5q21 -5 34.5 -11.5t26.5 -22t18.5 -39t5 -62.5t-9.5 -91h-150q10 57 11.5 92.5t-6.5 52.5t-18.5 22t-29.5 5h-67l-30 -172h-145zM236 391l-21 -115h79q60 0 70 59q9 56 -49 56h-79z" />
    <glyph glyph-name="S.small" horiz-adv-x="514" 
d="M20 156h140q-2 -28 16 -43.5t59 -15.5q78 0 87 50q3 21 -13.5 30.5t-52.5 13.5q-104 14 -143 39q-60 37 -46 116q12 70 78 117t161 47q104 0 151.5 -44.5t41.5 -119.5h-139q2 27 -15 43t-52 16q-76 0 -82 -46q-4 -21 14.5 -31t56.5 -15q102 -14 140 -38q59 -36 45 -115
q-13 -78 -76 -124t-179 -46q-104 0 -151 45t-41 121z" />
    <glyph glyph-name="T.small" horiz-adv-x="474" 
d="M56 500h458l-19 -109h-157l-69 -391h-145l69 391h-157z" />
    <glyph glyph-name="U.small" horiz-adv-x="564" 
d="M102 500h146l-57 -320q-8 -39 8 -56.5t60 -17.5q45 0 66 17.5t29 56.5l57 320h146l-61 -343q-10 -54 -50.5 -93t-94.5 -56.5t-114 -17.5q-94 0 -152 43t-44 124z" />
    <glyph glyph-name="V.small" horiz-adv-x="513" 
d="M50 500h153l35 -287q6 -39 2 -83q12 37 33 83l141 287h144l-256 -500h-173z" />
    <glyph glyph-name="W.small" horiz-adv-x="804" 
d="M61 500h146l24 -285q1 -14 0 -47t-1 -40q12 48 28 87l125 285h137l26 -285q1 -14 0 -47t-1 -40q12 48 28 87l124 285h141l-232 -500h-171l-18 237q0 67 2 98q-17 -58 -34 -98l-103 -237h-165z" />
    <glyph glyph-name="X.small" horiz-adv-x="541" 
d="M63 500h161l54 -104q9 -15 15 -40q17 26 30 41l90 103h153l-212 -239l145 -261h-173l-57 110q-10 17 -16 43q-15 -23 -33 -44l-94 -109h-162l229 254z" />
    <glyph glyph-name="Y.small" horiz-adv-x="496" 
d="M32 500h159l80 -174l140 174h149l-241 -287l-37 -213h-146l38 213z" />
    <glyph glyph-name="Z.small" horiz-adv-x="470" 
d="M89 500h399l-20 -111l-292 -277h247l-19 -112h-417l19 112l293 277h-230z" />
    <glyph glyph-name="AE.small" horiz-adv-x="717" 
d="M294 500h439l-19 -109h-227l-16 -86h182l-18 -101h-181l-17 -95h232l-18 -109h-378l21 120h-165l-97 -120h-149zM203 219h108l30 168z" />
    <glyph glyph-name="OE.small" horiz-adv-x="747" 
d="M315 510q38 0 76 -10h372l-19 -109h-254q25 -33 20 -86h173l-18 -101h-172q-14 -60 -53 -95h259l-18 -109h-378q-36 -10 -79 -10q-112 0 -162 68t-28 193q22 124 95.5 191.5t185.5 67.5zM294 389q-91 0 -116 -138q-24 -140 67 -140q90 0 115 140q24 138 -66 138z" />
    <glyph glyph-name="Eng.small" horiz-adv-x="570" 
d="M110 500h171l79 -239q9 -32 14 -81q5 45 12 89l42 231h128l-88 -500q-17 -96 -90 -147.5t-159 -51.5l21 114q36 0 59 18.5t34 66.5h-22l-86 272q-10 34 -13 81q-4 -40 -12 -87l-47 -266h-131z" />
    <glyph glyph-name="Eth.small" horiz-adv-x="565" 
d="M110 500h237q108 0 157 -65.5t29 -183.5q-21 -118 -92 -184.5t-176 -66.5h-243l39 222h-49l16 93h49zM236 391l-14 -76h78l-16 -93h-78l-20 -113h63q57 0 87.5 31.5t44.5 109.5q14 77 -6.5 109t-78.5 32h-60z" />
    <glyph glyph-name="IJ.small" horiz-adv-x="728" 
d="M110 500h145l-88 -500h-145zM568 500h146l-61 -340q-13 -79 -77.5 -124.5t-159.5 -45.5q-83 0 -125.5 45t-38.5 124h146q-4 -59 42 -59q34 0 48.5 15t20.5 51z" />
    <glyph glyph-name="Oslash.small" horiz-adv-x="533" 
d="M321 510q72 0 119 -32l22 22h100l-72 -75q39 -67 21 -174q-22 -122 -98.5 -191.5t-182.5 -69.5q-76 0 -125 35l-25 -25h-100l77 80q-36 68 -17 171q21 121 97.5 190t183.5 69zM364 251q5 30 5 49l-165 -172q15 -14 47 -14q46 0 73.5 33.5t39.5 103.5zM299 386
q-46 0 -73.5 -33t-39.5 -102q-5 -27 -5 -43l160 167q-17 11 -42 11z" />
    <glyph glyph-name="Thorn.small" horiz-adv-x="514" 
d="M110 500h145l-12 -69h112q82 0 118.5 -48.5t23.5 -122.5q-13 -78 -67.5 -126.5t-141.5 -48.5h-107l-14 -85h-145zM224 325l-25 -141h77q60 0 73 73q11 68 -48 68h-77z" />
    <glyph glyph-name="rupee" 
d="M136 700h503l-17 -95h-117q34 -37 24 -100h75l-16 -95h-86q-52 -111 -177 -124q35 -5 54 -10t41.5 -22.5t30.5 -46t8.5 -80.5t-12.5 -127h-157q9 55 10.5 94t-4 62.5t-19.5 37t-31.5 18t-43.5 4.5h-151l21 120h168q77 0 102 74h-257l16 95h258q1 33 -17.5 52.5
t-56.5 19.5h-171z" />
    <glyph glyph-name="litre" horiz-adv-x="450" 
d="M367 709q74 0 102 -34.5t19 -83.5q-24 -135 -231 -256l-36 -205q-5 -29 18 -29q16 0 31 15t21 43h122q-66 -169 -215 -169q-139 0 -115 140l23 131q-23 -9 -50 -19l-18 84q50 19 86 36l29 166q15 85 75 133t139 48zM293 538l-15 -81q71 60 80 110q4 31 -20 31
q-34 0 -45 -60z" />
    <glyph glyph-name="publish" horiz-adv-x="831" 
d="M480 618q-117 0 -196 -73.5t-100 -194.5t32 -194.5t169 -73.5q120 0 197.5 73.5t99.5 194.5t-30 194.5t-172 73.5zM496 710q159 0 249.5 -99.5t61.5 -260.5q-28 -163 -154 -261.5t-284 -98.5q-154 0 -245 98t-62 262q19 110 86 193.5t158 125t190 41.5zM326 554h208
q66 0 96 -39.5t19 -98.5q-11 -63 -55 -102.5t-115 -39.5h-90l-21 -128h-114zM424 468l-20 -116h66q53 0 64 60q10 56 -43 56h-67z" />
    <glyph glyph-name="ampersand.ss02" horiz-adv-x="731" 
d="M705 126l-24 -134q-102 0 -223 82q-118 -82 -234 -82q-111 0 -160.5 59t-34.5 148q12 70 59 128t119 82q-11 53 -3 96q16 92 83 148.5t185 56.5q103 0 156.5 -56t40.5 -143h-144q0 69 -81 69q-42 0 -68 -19.5t-32 -50.5q-9 -53 31.5 -128t108.5 -141q61 79 81 178h161
q-46 -128 -156 -246q75 -47 135 -47zM269 119q53 0 103 25q-89 84 -135 179q-50 -31 -60 -89q-9 -50 14 -82.5t78 -32.5z" />
    <glyph glyph-name="ampersand.ss01" horiz-adv-x="718" 
d="M28 197q12 66 60 122.5t120 80.5q-21 56 -12 105q16 91 87 148t189 57q109 0 162 -46.5t40 -115.5q-11 -66 -60 -103.5t-106 -37.5q-33 0 -55.5 16t-24.5 45q88 0 100 65q4 28 -14.5 43.5t-63.5 15.5q-47 0 -74 -19t-33 -51q-5 -24 10 -56.5t36.5 -59.5t60.5 -75.5
t63 -82.5q45 57 64 117h153q-44 -108 -158 -211q88 -163 58 -334h-138q21 120 -45 241q-117 -69 -223 -69q-112 0 -161.5 58.5t-34.5 146.5zM389 148q-18 24 -69 85t-73 94q-58 -30 -70 -95q-9 -50 14 -81.5t78 -31.5q62 0 120 29z" />
    <glyph glyph-name="ampersand.ss03" horiz-adv-x="697" 
d="M411 710q124 0 182.5 -57.5t50.5 -160.5h-147q3 50 -19.5 73t-88.5 23q-53 0 -83 -24.5t-37 -62.5q-13 -81 78 -81h373l-19 -107h-100l-54 -313h-285q-123 0 -182 50t-43 141q13 71 63 119t136 60q-69 19 -93 55.5t-15 92.5q15 81 92.5 136.5t190.5 55.5zM284 124h150
l33 189h-147q-115 0 -132 -94q-8 -46 14 -70.5t82 -24.5z" />
    <glyph glyph-name="ampersand.ss04" horiz-adv-x="747" 
d="M481 710q114 0 161.5 -39t34.5 -109q-14 -83 -113.5 -131.5t-330.5 -52.5q-6 -16 -12 -45q-36 -204 129 -204q64 0 112 34t73 97h-134l20 108h326q-27 -98 -75 -173t-106 -118.5t-119.5 -65t-122.5 -21.5q-147 0 -217.5 96t-43.5 252q29 162 147.5 267t270.5 105z
M450 602q-58 0 -106.5 -32.5t-74.5 -89.5q137 2 188.5 20.5t56.5 51.5q5 24 -11.5 37t-52.5 13z" />
    <glyph glyph-name="ampersand.ss05" horiz-adv-x="730" 
d="M445 710q103 0 153 -46.5t37 -115.5q-9 -53 -46 -90.5t-76 -54.5t-101 -35l92 -125q47 57 67 122h153q-42 -107 -154 -211l115 -154h-203l-42 57q-113 -65 -214 -65q-113 0 -163 58t-34 146q13 76 57.5 123.5t113.5 77.5q-31 63 -20 119q16 88 84.5 141t180.5 53z
M270 119q56 0 109 24l-123 171q-72 -39 -82 -100q-7 -38 17.5 -66.5t78.5 -28.5zM329 528q-7 -33 24 -80q64 19 97.5 37.5t39.5 49.5q4 27 -12 42t-56 15q-82 0 -93 -64z" />
    <glyph glyph-name="ampersand.small" horiz-adv-x="581" 
d="M534 100l-20 -108q-74 0 -169 55q-86 -55 -173 -55q-86 0 -126.5 40t-27.5 113q16 94 114 136q-11 39 -4 72q11 68 67 112.5t156 44.5q85 0 124 -42t38 -112h-133q0 48 -53 48q-29 0 -44.5 -13.5t-18.5 -32.5q-6 -35 22 -82.5t76 -91.5q39 57 52 121h145
q-35 -94 -116 -178q49 -27 91 -27zM208 88q30 0 59 13q-60 49 -96 102q-21 -24 -24 -47q-6 -30 9.5 -49t51.5 -19z" />
    <glyph glyph-name="caron.alt" horiz-adv-x="217" 
d="M135 710h125l-82 -159h-71z" />
    <glyph glyph-name="acute.case" horiz-adv-x="330" 
d="M271 880l132 -15l-186 -142h-91z" />
    <glyph glyph-name="grave.case" horiz-adv-x="330" 
d="M150 865l138 15l91 -157h-92z" />
    <glyph glyph-name="caron.case" horiz-adv-x="458" 
d="M154 865l96 15l80 -72l107 72l91 -15l-153 -142h-117z" />
    <glyph glyph-name="circumflex.case" horiz-adv-x="458" 
d="M505 738l-96 -15l-80 73l-106 -73l-91 15l153 142h117z" />
    <glyph glyph-name="breve.case" horiz-adv-x="367" 
d="M152 854l77 9q-5 -28 10 -42.5t46 -14.5q65 0 77 57l74 -9q-11 -59 -57 -93t-108 -34q-61 0 -95 34t-24 93z" />
    <glyph glyph-name="dieresis.case" horiz-adv-x="435" 
d="M254 744h-106l19 105h106zM468 744h-106l19 105h106z" />
    <glyph glyph-name="dotaccent.case" horiz-adv-x="237" 
d="M278 744h-138l21 113h137z" />
    <glyph glyph-name="hungarumlaut.case" horiz-adv-x="474" 
d="M244 880l112 -15l-147 -134h-78zM433 880l111 -15l-147 -134h-78z" />
    <glyph glyph-name="macron.case" horiz-adv-x="372" 
d="M412 740h-272l15 84h271z" />
    <glyph glyph-name="ring.case" horiz-adv-x="354" 
d="M293 892q55 0 87 -24t24 -68t-47.5 -67t-95.5 -23q-55 0 -86.5 23t-23.5 67q7 44 47 68t95 24zM283 834q-49 0 -55 -34q-4 -19 8 -27t34 -8q49 0 55 35q3 18 -9 26t-33 8z" />
    <glyph glyph-name="tilde.case" horiz-adv-x="442" 
d="M263 860q39 0 78.5 -25t52.5 -25q30 0 42 37l61 -10q-31 -109 -114 -109q-33 0 -74.5 27t-62.5 27q-34 0 -43 -42l-58 13q11 50 41 78.5t77 28.5z" />
    <glyph glyph-name="arrowupleft" horiz-adv-x="617" 
d="M66 102l71 398h398l-21 -121h-192l224 -272l-101 -86l-224 272l-34 -191h-121z" />
    <glyph glyph-name="arrowupright" horiz-adv-x="617" 
d="M576 500l-71 -398h-121l33 191l-318 -272l-70 86l319 272h-192l21 121h399z" />
    <glyph glyph-name="arrowdownleft" horiz-adv-x="617" 
d="M49 0l70 398h121l-34 -191l319 272l71 -86l-320 -272h192l-21 -121h-398z" />
    <glyph glyph-name="arrowdownright" horiz-adv-x="617" 
d="M558 398l-70 -398h-399l21 121h192l-223 272l100 86l223 -272l34 191h122z" />
    <glyph glyph-name="beta.alt" horiz-adv-x="577" 
d="M379 710q96 0 152.5 -46t40.5 -130q-23 -135 -173 -160q169 -27 143 -176q-16 -86 -96 -144.5t-196 -58.5q-37 0 -83 6l-35 -201h-145l125 714q16 90 93 143t174 53zM256 506l-68 -385q32 -6 75 -6q106 0 121 94q10 54 -18.5 75t-107.5 21l20 114q75 0 102 20t36 69
q13 76 -65 76q-81 0 -95 -78z" />
    <glyph glyph-name="theta.alt" horiz-adv-x="570" 
d="M370 710q117 0 169 -90t20 -270q-32 -181 -115.5 -270.5t-200.5 -89.5t-169 89.5t-21 270.5q32 180 116 270t201 90zM264 112q108 0 143 197h-217q-34 -197 74 -197zM348 588q-103 0 -140 -181h216q26 181 -76 181z" />
    <glyph glyph-name="sigmafinal" horiz-adv-x="486" 
d="M303 510q107 0 152.5 -54t35.5 -138h-133q3 30 -12.5 50t-54.5 20q-83 0 -104 -103q-7 -39 2 -68t28 -47t43 -32.5t48 -28.5t43.5 -30.5t28.5 -43t3 -61.5q-10 -55 -73.5 -106t-156.5 -86l-45 102q110 43 117 87q2 14 -13 25.5t-39 22t-51.5 28.5t-48.5 45t-30.5 72
t1.5 109q19 106 88 171.5t171 65.5z" />
    <glyph glyph-name="phi.alt" horiz-adv-x="775" 
d="M397 700h145l-34 -193q136 -13 199.5 -79t44.5 -177q-20 -113 -107 -179t-228 -79l-34 -193h-145l35 194q-137 13 -199.5 79t-42.5 178q19 111 105 176.5t227 78.5zM602 251q10 57 -19.5 96.5t-95.5 41.5l-49 -278q67 1 110.5 41.5t53.5 98.5zM181 251q-10 -58 18 -97.5
t94 -41.5l49 276q-67 -1 -108.5 -40.5t-52.5 -96.5z" />
    <glyph glyph-name="dieresistonoscomb" horiz-adv-x="448" 
d="M233 743h-95l19 108h96zM344 723h-65l7 167h111zM490 743h-95l19 108h96z" />
    <glyph glyph-name="gacute" horiz-adv-x="572" 
d="M288 510q52 0 79.5 -26t35.5 -67l16 83h145l-90 -509q-19 -105 -89 -153t-200 -48q-104 0 -155.5 47.5t-38.5 133.5h156q-8 -68 68 -68q51 0 78 19t36 69l16 97q-54 -89 -158 -89q-91 0 -132.5 67.5t-20.5 184.5q20 114 85.5 186.5t168.5 72.5zM297 387q-91 0 -114 -136
q-24 -134 69 -134q98 0 122 132q25 138 -77 138zM392 718l147 -16l-182 -158h-99z" />
    <glyph glyph-name="iacute_jacute" horiz-adv-x="525" 
d="M159 0h-137l88 500h137zM372 500h138l-92 -520q-17 -94 -89.5 -142t-159.5 -48l21 114q41 0 62 16.5t30 68.5zM480 718l147 -16l-182 -158h-99zM217 718l147 -16l-182 -158h-99z" />
    <glyph glyph-name="Aacute.small" horiz-adv-x="531" 
d="M368 718l147 -16l-182 -158h-99zM214 500h199l75 -500h-150l-17 119h-156l-57 -119h-146zM297 419q-9 -32 -22 -59l-67 -141h105l-16 141q-2 28 0 59z" />
    <glyph glyph-name="Abreve.small" horiz-adv-x="531" 
d="M191 693l90 10q-11 -66 51 -66q63 0 75 66l87 -10q-12 -65 -63 -103.5t-114 -38.5q-62 0 -100 38.5t-26 103.5zM214 500h199l75 -500h-150l-17 119h-156l-57 -119h-146zM297 419q-9 -32 -22 -59l-67 -141h105l-16 141q-2 28 0 59z" />
    <glyph glyph-name="Acircumflex.small" horiz-adv-x="531" 
d="M214 500h199l75 -500h-150l-17 119h-156l-57 -119h-146zM297 419q-9 -32 -22 -59l-67 -141h105l-16 141q-2 28 0 59zM279 705h132l94 -150l-104 -17l-71 82l-100 -82l-98 17z" />
    <glyph glyph-name="Adieresis.small" horiz-adv-x="531" 
d="M214 500h199l75 -500h-150l-17 119h-156l-57 -119h-146zM297 419q-9 -32 -22 -59l-67 -141h105l-16 141q-2 28 0 59zM275 571h-106l19 109h106zM473 571h-106l19 109h106z" />
    <glyph glyph-name="Agrave.small" horiz-adv-x="531" 
d="M190 702l152 16l72 -174h-98zM214 500h199l75 -500h-150l-17 119h-156l-57 -119h-146zM297 419q-9 -32 -22 -59l-67 -141h105l-16 141q-2 28 0 59z" />
    <glyph glyph-name="Amacron.small" horiz-adv-x="531" 
d="M457 567h-272l16 93h272zM214 500h199l75 -500h-150l-17 119h-156l-57 -119h-146zM297 419q-9 -32 -22 -59l-67 -141h105l-16 141q-2 28 0 59z" />
    <glyph glyph-name="Aogonek.small" horiz-adv-x="531" 
d="M214 500h199l75 -500h-34q-54 -37 -65 -86q-3 -19 7 -30t31 -11q7 0 21 2l-16 -89q-21 -6 -47 -6q-59 0 -88.5 28.5t-21.5 71.5q12 71 103 120h-40l-17 119h-156l-57 -119h-146zM297 419q-9 -32 -22 -59l-67 -141h105l-16 141q-2 28 0 59z" />
    <glyph glyph-name="Aring.small" horiz-adv-x="531" 
d="M350 735q55 0 88 -27.5t24 -76.5t-51 -76t-98 -27t-89 27t-24 76t52 76.5t98 27.5zM337 666q-20 0 -34 -9.5t-16 -24.5q-3 -19 7.5 -27.5t30.5 -8.5q43 0 49 34q3 17 -8 26.5t-29 9.5zM214 500h199l75 -500h-150l-17 119h-156l-57 -119h-146zM297 419q-9 -32 -22 -59
l-67 -141h105l-16 141q-2 28 0 59z" />
    <glyph glyph-name="Atilde.small" horiz-adv-x="531" 
d="M274 699q39 0 78 -27.5t52 -27.5q30 0 43 39l60 -10q-15 -56 -45 -88t-71 -32q-33 0 -74 29t-62 29q-34 0 -44 -45l-58 14q12 55 43 87t78 32zM214 500h199l75 -500h-150l-17 119h-156l-57 -119h-146zM297 419q-9 -32 -22 -59l-67 -141h105l-16 141q-2 28 0 59z" />
    <glyph glyph-name="Ccedilla.small" horiz-adv-x="529" 
d="M327 510q92 0 142 -53t44 -148h-150q2 35 -14 56.5t-49 21.5q-48 0 -74 -34.5t-38 -102.5t2 -102.5t62 -34.5q64 0 91 78h150q-25 -83 -81 -134.5t-133 -62.5l-43 -47q16 3 32 3q44 0 68.5 -21.5t17.5 -59.5q-9 -50 -57 -78.5t-109 -28.5q-74 0 -109 38l49 48
q15 -23 62 -23q48 0 56 35q3 20 -14.5 31t-56.5 11q-14 0 -54 -4l71 95q-93 12 -132.5 78t-19.5 179q22 125 96.5 192.5t190.5 67.5z" />
    <glyph glyph-name="Cacute.small" horiz-adv-x="529" 
d="M358 718l147 -16l-182 -158h-99zM327 510q92 0 142 -53t44 -148h-150q2 35 -14 56.5t-49 21.5q-48 0 -74 -34.5t-38 -102.5t2 -102.5t62 -34.5q64 0 91 78h150q-28 -95 -96.5 -148t-160.5 -53q-116 0 -167 67.5t-29 192.5t96.5 192.5t190.5 67.5z" />
    <glyph glyph-name="Ccircumflex.small" horiz-adv-x="529" 
d="M327 510q92 0 142 -53t44 -148h-150q2 35 -14 56.5t-49 21.5q-48 0 -74 -34.5t-38 -102.5t2 -102.5t62 -34.5q64 0 91 78h150q-28 -95 -96.5 -148t-160.5 -53q-116 0 -167 67.5t-29 192.5t96.5 192.5t190.5 67.5zM295 705h132l94 -150l-104 -17l-71 82l-100 -82l-98 17z
" />
    <glyph glyph-name="Ccaron.small" horiz-adv-x="529" 
d="M174 694l104 17l71 -82l100 82l98 -17l-146 -150h-133zM327 510q92 0 142 -53t44 -148h-150q2 35 -14 56.5t-49 21.5q-48 0 -74 -34.5t-38 -102.5t2 -102.5t62 -34.5q64 0 91 78h150q-28 -95 -96.5 -148t-160.5 -53q-116 0 -167 67.5t-29 192.5t96.5 192.5t190.5 67.5z
" />
    <glyph glyph-name="Cdotaccent.small" horiz-adv-x="529" 
d="M327 510q92 0 142 -53t44 -148h-150q2 35 -14 56.5t-49 21.5q-48 0 -74 -34.5t-38 -102.5t2 -102.5t62 -34.5q64 0 91 78h150q-28 -95 -96.5 -148t-160.5 -53q-116 0 -167 67.5t-29 192.5t96.5 192.5t190.5 67.5zM407 571h-138l22 125h138z" />
    <glyph glyph-name="Dcroat.small" horiz-adv-x="565" 
d="M110 500h237q108 0 157 -65.5t29 -183.5q-21 -118 -92 -184.5t-176 -66.5h-243l37 213h-52l15 84h52zM236 391l-17 -94h65l-15 -84h-65l-18 -104h63q57 0 87.5 31.5t44.5 109.5q14 77 -6.5 109t-78.5 32h-60z" />
    <glyph glyph-name="Dcaron.small" horiz-adv-x="565" 
d="M160 694l104 17l71 -82l100 82l98 -17l-146 -150h-133zM110 500h237q108 0 157 -65.5t29 -183.5q-21 -118 -92 -184.5t-176 -66.5h-243zM236 391l-50 -282h63q57 0 87.5 31.5t44.5 109.5q14 77 -6.5 109t-78.5 32h-60z" />
    <glyph glyph-name="Eacute.small" horiz-adv-x="464" 
d="M346 718l147 -16l-182 -158h-99zM110 500h372l-19 -109h-227l-16 -86h182l-17 -101h-182l-17 -95h232l-18 -109h-378z" />
    <glyph glyph-name="Ebreve.small" horiz-adv-x="464" 
d="M188 693l90 10q-11 -66 51 -66q63 0 75 66l87 -10q-12 -65 -63 -103.5t-114 -38.5q-62 0 -100 38.5t-26 103.5zM110 500h372l-19 -109h-227l-16 -86h182l-17 -101h-182l-17 -95h232l-18 -109h-378z" />
    <glyph glyph-name="Ecaron.small" horiz-adv-x="464" 
d="M153 694l104 17l71 -82l100 82l98 -17l-146 -150h-133zM110 500h372l-19 -109h-227l-16 -86h182l-17 -101h-182l-17 -95h232l-18 -109h-378z" />
    <glyph glyph-name="Ecircumflex.small" horiz-adv-x="464" 
d="M110 500h372l-19 -109h-227l-16 -86h182l-17 -101h-182l-17 -95h232l-18 -109h-378zM270 705h132l94 -150l-104 -17l-71 82l-100 -82l-98 17z" />
    <glyph glyph-name="Edieresis.small" horiz-adv-x="464" 
d="M110 500h372l-19 -109h-227l-16 -86h182l-17 -101h-182l-17 -95h232l-18 -109h-378zM265 571h-106l19 109h106zM463 571h-106l19 109h106z" />
    <glyph glyph-name="Edotaccent.small" horiz-adv-x="464" 
d="M110 500h372l-19 -109h-227l-16 -86h182l-17 -101h-182l-17 -95h232l-18 -109h-378zM394 571h-138l22 125h138z" />
    <glyph glyph-name="Egrave.small" horiz-adv-x="464" 
d="M186 702l152 16l72 -174h-98zM110 500h372l-19 -109h-227l-16 -86h182l-17 -101h-182l-17 -95h232l-18 -109h-378z" />
    <glyph glyph-name="Emacron.small" horiz-adv-x="464" 
d="M447 567h-272l16 93h272zM110 500h372l-19 -109h-227l-16 -86h182l-17 -101h-182l-17 -95h232l-18 -109h-378z" />
    <glyph glyph-name="Eogonek.small" horiz-adv-x="464" 
d="M110 500h372l-19 -109h-227l-16 -86h182l-17 -101h-182l-17 -95h232l-18 -109h-22q-54 -37 -65 -86q-3 -19 7 -30t31 -11q7 0 21 2l-16 -89q-21 -6 -47 -6q-59 0 -88.5 28.5t-21.5 71.5q12 71 103 120h-280z" />
    <glyph glyph-name="Gacute.small" horiz-adv-x="561" 
d="M364 718l147 -16l-182 -158h-99zM331 510q97 0 145.5 -46t45.5 -126h-145q-4 29 -19 43t-48 14q-52 0 -80.5 -36t-40.5 -108q-15 -71 -1.5 -109t63.5 -38q40 0 67.5 24t35.5 69h-90l17 94h235l-51 -291h-137l10 63q-43 -73 -131 -73q-97 0 -143.5 66t-23.5 195
q19 112 98.5 185.5t192.5 73.5z" />
    <glyph glyph-name="Gbreve.small" horiz-adv-x="561" 
d="M212 693l90 10q-11 -66 51 -66q63 0 75 66l87 -10q-12 -65 -63 -103.5t-114 -38.5q-62 0 -100 38.5t-26 103.5zM331 510q97 0 145.5 -46t45.5 -126h-145q-4 29 -19 43t-48 14q-52 0 -80.5 -36t-40.5 -108q-15 -71 -1.5 -109t63.5 -38q40 0 67.5 24t35.5 69h-90l17 94h235
l-51 -291h-137l10 63q-43 -73 -131 -73q-97 0 -143.5 66t-23.5 195q19 112 98.5 185.5t192.5 73.5z" />
    <glyph glyph-name="Gcircumflex.small" horiz-adv-x="561" 
d="M331 510q97 0 145.5 -46t45.5 -126h-145q-4 29 -19 43t-48 14q-52 0 -80.5 -36t-40.5 -108q-15 -71 -1.5 -109t63.5 -38q40 0 67.5 24t35.5 69h-90l17 94h235l-51 -291h-137l10 63q-43 -73 -131 -73q-97 0 -143.5 66t-23.5 195q19 112 98.5 185.5t192.5 73.5zM298 705
h132l94 -150l-104 -17l-71 82l-100 -82l-98 17z" />
    <glyph glyph-name="Gcommaaccent.small" horiz-adv-x="561" 
d="M331 510q97 0 145.5 -46t45.5 -126h-145q-4 29 -19 43t-48 14q-52 0 -80.5 -36t-40.5 -108q-15 -71 -1.5 -109t63.5 -38q40 0 67.5 24t35.5 69h-90l17 94h235l-51 -291h-137l10 63q-43 -73 -131 -73q-97 0 -143.5 66t-23.5 195q19 112 98.5 185.5t192.5 73.5zM181 -38
h124l-12 -68q-16 -96 -145 -148l-9 49q69 20 78 75h-52z" />
    <glyph glyph-name="Gdotaccent.small" horiz-adv-x="561" 
d="M331 510q97 0 145.5 -46t45.5 -126h-145q-4 29 -19 43t-48 14q-52 0 -80.5 -36t-40.5 -108q-15 -71 -1.5 -109t63.5 -38q40 0 67.5 24t35.5 69h-90l17 94h235l-51 -291h-137l10 63q-43 -73 -131 -73q-97 0 -143.5 66t-23.5 195q19 112 98.5 185.5t192.5 73.5zM409 571
h-138l22 125h138z" />
    <glyph glyph-name="Hcircumflex.small" horiz-adv-x="557" 
d="M110 500h145l-32 -183h143l32 183h145l-88 -500h-145l35 200h-143l-35 -200h-145zM294 705h132l94 -150l-104 -17l-71 82l-100 -82l-98 17z" />
    <glyph glyph-name="Hbar.small" horiz-adv-x="557" 
d="M110 500h145l-10 -54h143l10 54h145l-10 -54h39l-14 -81h-39l-64 -365h-145l35 200h-143l-35 -200h-145l64 365h-43l14 81h43zM223 317h143l8 48h-143z" />
    <glyph glyph-name="Iacute.small" horiz-adv-x="269" 
d="M235 718l147 -16l-182 -158h-99zM110 500h145l-88 -500h-145z" />
    <glyph glyph-name="Ibreve.small" horiz-adv-x="269" 
d="M62 693l90 10q-11 -66 51 -66q63 0 75 66l87 -10q-12 -65 -63 -103.5t-114 -38.5q-62 0 -100 38.5t-26 103.5zM110 500h145l-88 -500h-145z" />
    <glyph glyph-name="Icircumflex.small" horiz-adv-x="269" 
d="M110 500h145l-88 -500h-145zM149 705h132l94 -150l-104 -17l-71 82l-100 -82l-98 17z" />
    <glyph glyph-name="Idieresis.small" horiz-adv-x="269" 
d="M110 500h145l-88 -500h-145zM146 571h-106l19 109h106zM344 571h-106l19 109h106z" />
    <glyph glyph-name="Igrave.small" horiz-adv-x="269" 
d="M53 702l152 16l72 -174h-98zM110 500h145l-88 -500h-145z" />
    <glyph glyph-name="Imacron.small" horiz-adv-x="269" 
d="M327 567h-272l16 93h272zM110 500h145l-88 -500h-145z" />
    <glyph glyph-name="Iogonek.small" horiz-adv-x="269" 
d="M110 500h145l-88 -500h-13q-54 -37 -65 -86q-3 -19 7 -30t31 -11q7 0 21 2l-16 -89q-21 -6 -47 -6q-59 0 -88.5 28.5t-21.5 71.5q12 71 103 120h-56z" />
    <glyph glyph-name="Itilde.small" horiz-adv-x="269" 
d="M145 699q39 0 78 -27.5t52 -27.5q30 0 43 39l60 -10q-15 -56 -45 -88t-71 -32q-33 0 -74 29t-62 29q-34 0 -44 -45l-58 14q12 55 43 87t78 32zM110 500h145l-88 -500h-145z" />
    <glyph glyph-name="Dotlessi.small" horiz-adv-x="269" 
d="M110 500h145l-88 -500h-145z" />
    <glyph glyph-name="Jcircumflex.small" horiz-adv-x="461" 
d="M308 500h145l-61 -340q-13 -79 -77.5 -124.5t-158.5 -45.5q-83 0 -126 44.5t-39 124.5h146q-4 -59 44 -59q31 0 46 15t22 51zM347 705h132l94 -150l-104 -17l-71 82l-100 -82l-98 17z" />
    <glyph glyph-name="Kcommaaccent.small" horiz-adv-x="569" 
d="M110 500h145l-88 -500h-145zM433 500h163l-219 -224l145 -276h-166l-138 271zM187 -38h124l-12 -68q-16 -96 -145 -148l-9 49q69 20 78 75h-52z" />
    <glyph glyph-name="Lacute.small" horiz-adv-x="441" 
d="M272 718l147 -16l-182 -158h-99zM110 500h145l-68 -384h229l-20 -116h-374z" />
    <glyph glyph-name="Lcaron.small" horiz-adv-x="441" 
d="M110 500h145l-68 -384h229l-20 -116h-374zM315 510h125l-82 -159h-71z" />
    <glyph glyph-name="Lcommaaccent.small" horiz-adv-x="441" 
d="M110 500h145l-68 -384h229l-20 -116h-374zM147 -38h124l-12 -68q-16 -96 -145 -148l-9 49q69 20 78 75h-52z" />
    <glyph glyph-name="Lslash.small" horiz-adv-x="441" 
d="M110 500h145l-25 -139l71 45l40 -76l-131 -83l-23 -131h229l-20 -116h-374l25 145l-34 -22l-38 76l92 58z" />
    <glyph glyph-name="Nacute.small" horiz-adv-x="570" 
d="M110 500h171l80 -242q10 -36 13 -80q5 46 12 88l42 234h128l-88 -500h-158l-85 275q-9 33 -14 81q-3 -49 -11 -88l-47 -268h-131zM386 718l147 -16l-182 -158h-99z" />
    <glyph glyph-name="Napostrophe.small" horiz-adv-x="570" 
d="M110 500h171l80 -242q10 -36 13 -80q5 46 12 88l42 234h128l-88 -500h-158l-85 275q-9 33 -14 81q-3 -49 -11 -88l-47 -268h-131zM166 732h124l-12 -68q-16 -96 -145 -148l-9 49q69 20 78 75h-52z" />
    <glyph glyph-name="Ncaron.small" horiz-adv-x="570" 
d="M110 500h171l80 -242q10 -36 13 -80q5 46 12 88l42 234h128l-88 -500h-158l-85 275q-9 33 -14 81q-3 -49 -11 -88l-47 -268h-131zM180 694l104 17l71 -82l100 82l98 -17l-146 -150h-133z" />
    <glyph glyph-name="Ncommaaccent.small" horiz-adv-x="570" 
d="M110 500h171l80 -242q10 -36 13 -80q5 46 12 88l42 234h128l-88 -500h-158l-85 275q-9 33 -14 81q-3 -49 -11 -88l-47 -268h-131zM182 -38h124l-12 -68q-16 -96 -145 -148l-9 49q69 20 78 75h-52z" />
    <glyph glyph-name="Ntilde.small" horiz-adv-x="570" 
d="M110 500h171l80 -242q10 -36 13 -78q5 43 12 86l42 234h128l-88 -500h-158l-85 275q-9 33 -14 81q-3 -49 -11 -88l-47 -268h-131zM298 699q39 0 78 -27.5t52 -27.5q30 0 43 39l60 -10q-15 -56 -45 -88t-71 -32q-33 0 -74 29t-62 29q-34 0 -44 -45l-58 14q12 55 43 87
t78 32z" />
    <glyph glyph-name="Oacute.small" horiz-adv-x="543" 
d="M361 718l147 -16l-182 -158h-99zM299 386q-46 0 -73.5 -33t-39.5 -102q-12 -70 3.5 -103.5t61.5 -33.5t73.5 33.5t39.5 103.5q24 135 -65 135zM321 510q106 0 158.5 -69t31.5 -190q-22 -122 -98.5 -191.5t-182.5 -69.5q-107 0 -159.5 69.5t-30.5 191.5q21 121 97.5 190
t183.5 69z" />
    <glyph glyph-name="Obreve.small" horiz-adv-x="543" 
d="M201 693l90 10q-11 -66 51 -66q63 0 75 66l87 -10q-12 -65 -63 -103.5t-114 -38.5q-62 0 -100 38.5t-26 103.5zM299 386q-46 0 -73.5 -33t-39.5 -102q-12 -70 3.5 -103.5t61.5 -33.5t73.5 33.5t39.5 103.5q24 135 -65 135zM321 510q106 0 158.5 -69t31.5 -190
q-22 -122 -98.5 -191.5t-182.5 -69.5q-107 0 -159.5 69.5t-30.5 191.5q21 121 97.5 190t183.5 69z" />
    <glyph glyph-name="Ocircumflex.small" horiz-adv-x="543" 
d="M299 386q-46 0 -73.5 -33t-39.5 -102q-12 -70 3.5 -103.5t61.5 -33.5t73.5 33.5t39.5 103.5q24 135 -65 135zM321 510q106 0 158.5 -69t31.5 -190q-22 -122 -98.5 -191.5t-182.5 -69.5q-107 0 -159.5 69.5t-30.5 191.5q21 121 97.5 190t183.5 69zM289 705h132l94 -150
l-104 -17l-71 82l-100 -82l-98 17z" />
    </font>
</defs>
</svg>
