<svg id="Vrstva_1" data-name="Vrstva 1" xmlns="http://www.w3.org/2000/svg" viewBox="0 0 595.28 841.89">
  <g>
    <path d="M291.69,985.15V961.76q2.35-2.32,4.69-4.67c4.7,0,9.39,0,14.3-.25-.1.06-.4.37-.71.67l3.27,3.82,1.48-1.47a25.61,25.61,0,0,0-4-3c-5.44-6-5.4-13.43-4.57-22.83l9-6.83c-1.79-6.89-4.16-12.42-4.41-18-.24-5.38,1.74-10.85,2.48-14.86l-16.83-13.6V863.55L311,859.64l16,4.92,2-2.66-10.23-11.84L333,833.32,351.8,851l-16,8.07,17.14,10.11,25-17.57,11.76,13.12-9.91,14.71c2.59,1.43,3.83,2.66,5.14,2.74,4.51.25,9,.09,12.39.09l7.8-25.77,11.92,7c12.29-7.57,26.35-3.6,41.85-5l29.78,24.51v10.83l-20.52,10.53-13.65-17.27h-22.3c-13.26,4.66-6.85,15.47-10.06,22.31l-7.72,2v16.61l7.77,4.09c.73,6.72,1.13,10.4,1.5,13.88,11.75,8.37,23.45,8.52,33.68,1.49l12-16.22,25.84,13-24.39,29.52c-18,5.19-34.27,11.87-51.47,2.38l-19.14,5.46c-.35-7.44-.6-12.68-.88-18.6-2-.43-4.1-1.41-6.16-1.25-7.41.56-13.9-.3-17.56-9.91l11.19-13.52c-7-10.9-6.34-22.08-.45-32.39-10.4-11.86-10.4-11.86-21.45-14.87-6,6.25-13.13,12.46-21.7,23.21l20.71-4.72,7.37,7.62v13.93L361,936.61l-14.63-2.42c2,4.59,2.42,7.9,3.78,8.34,10.38,3.35,17.28,9.07,16.81,21.39L348,973.43c1.25,1.24,3.12,2.22,3.33,3.47.86,5.14,1.22,10.37,1.71,15l-8.33,8.3-14.15-4.62c-1-7.44-1.83-13.71-3.05-22.88L307,989.89Z"/>
    <path d="M268.23,844.84,248.81,856.6l-14-17.16c-2.52-8.42,7.82-11.59,11.78-17.64,11.62-3.23,15.32,6.43,21.67,11.09Z"/>
    <path d="M218.17,859.82,204,852.7c-1.21-2.37-3.13-6.16-5.22-10.27,5.58-5.46,4.14-20.09,21.77-14.95l8.33,12.65C233.46,849,224,852.72,218.17,859.82Z"/>
    <path d="M272.92,863.55c-.51-2.84-.86-5.73-1.57-8.53-.88-3.43-2.07-6.78-3.12-10.17l13-9.49c9.91-2.6,13.7,6.64,19.84,11.77l-4.65,16.42Z"/>
    <path d="M264.31,799.94l14.26-7.28,14.89,14.06L279,822.81l-14.64-5.65Z"/>
    <path d="M254,799.84c.53,12.5-3.72,17.32-16.1,16.87l-9.86-17.48,10.89-12.16Z"/>
    <path d="M177.37,817.61c9.81,8.16,7.9,15.06-.31,22.15H162.28c-8.22-7.09-10.11-14-.31-22.15Z"/>
    <path d="M298.19,812.59H313c6.34,4.51,9.16,10.12,6.11,16.35-4.26,8.7-12.91,6.6-20.52,6.43C289.85,824.09,289.85,824.09,298.19,812.59Z"/>
    <path d="M140.7,869.77l-8.37-8.36V847.6c10.62-9,10.62-9,22.64-1.25v15.82a73.39,73.39,0,0,0-7.76,2.83C145.29,865.93,143.7,867.52,140.7,869.77Z"/>
    <path d="M189.25,809.74c1.49-2.84,3.18-6,5.6-10.63h15c8.3,9.75,8.3,9.75.55,21.74H195.05Z"/>
    <path d="M210.15,788.73a11.67,11.67,0,0,1-12.32-10.52c-.73-7.49,4.74-13.2,12.32-12.86a11.7,11.7,0,0,1,0,23.38Z"/>
    <path d="M254.15,772.36A11.49,11.49,0,0,1,243,784.05c-7.59.34-13.05-5.36-12.32-12.85A11.67,11.67,0,0,1,243,760.67,11.5,11.5,0,0,1,254.15,772.36Z"/>
    <path d="M116.48,826.14a11.55,11.55,0,0,1,11,11.89A11.77,11.77,0,1,1,104,836.47,11.7,11.7,0,0,1,116.48,826.14Z"/>
    <path d="M169.67,793.41c.28,8.5-2.69,14.16-12.32,14-3.72,0-7.43,0-11.14,0V795.53c3.44-6.2,5.31-9.58,7.31-13.17Z"/>
    <path d="M287,792.54c.22-9.63-2-18.79,11-23.36l12.32,15.71a22.7,22.7,0,0,1-2.58,4.22C301.47,796.4,294.16,793.2,287,792.54Z"/>
    <path d="M282.22,777v4.89l-11.61,5.9-11-5.32c-4.59-10.43,4.53-14.61,8.69-19.36Z"/>
    <path d="M169.67,792.42V775.61l17-1.06L184.08,778l12.61,5.34L179,796Z"/>
    <path d="M146.14,808.39c-.92,13.16-3.27,17.5-10.76,17.61-2.72,0-6.62-.76-7.95-2.61-2.77-3.88-4.2-8.72-6.13-13.08l12.89-6.53Z"/>
    <path d="M331.19,816.32l17.37-13.41c1.77,1.36,6.73,3.34,8.25,6.81,2.07,4.75,1.11,10.22-4.05,14.17C343.71,830.82,339.05,824.24,331.19,816.32Z"/>
    <path d="M326,783.15l7.51,7.49V806.7H315.94c-.27-4.84-.6-10.52-.94-16.5Z"/>
    <path d="M355.06,840.26l13.45-13.73c5.75,2.3,9.69,7.05,6.32,17.92L361,851.82C358.19,846.39,356.33,842.73,355.06,840.26Z"/>
    <path d="M188.45,765.39c-8.18-2.32-10.07-8.31-9.41-15.6l8.06-9.95,10.65,8.86C198.51,757.07,196.62,763.06,188.45,765.39Z"/>
    <path d="M289.34,765.33l-6.45-12.63,10.81-8.25,12.24,10.45C304,763.63,298.13,766.59,289.34,765.33Z"/>
    <path d="M84,852.65l-9.29-15.53c-.68-2.82,3.13-7.77,9.43-11.51C97.86,836.89,97.86,836.89,84,852.65Z"/>
    <path d="M146.31,772.73c-1.09-8.4,1.16-14.19,9.15-16.79,8.31,2.09,10.11,8.13,9.43,16.72l-8,8.61Z"/>
    <path d="M91.6,807.19l9.72-9c8.62-.68,14.69,1.12,16.78,9.4-2.61,8-8.42,10.2-14.29,9.44Z"/>
    <path d="M300.69,726l-6.46,6.44c-7.75,1.47-13.58-.75-16.66-8.49,1.32-8.79,7.4-10.61,16.13-9.95C295.83,717.63,298.25,721.78,300.69,726Z"/>
    <path d="M335.88,774c-5.64.41-7.83.65-10,.71-3,.08-6,0-9.83,0V754.6c5.67,2,11.08,2.55,14.37,5.47C333.21,762.57,333.61,767.77,335.88,774Z"/>
    <path d="M134.75,775l6.72,13-14.78,7.09-8.64-8C118.05,778.44,121.23,776.44,134.75,775Z"/>
    <path d="M230.29,735.29v19.87H210.41c2.09-5.75,2.69-11.13,5.65-14.4C218.58,738,223.82,737.6,230.29,735.29Z"/>
    <path d="M62.84,816c-2.89-9.1-.26-14.94,8.2-18.23,8.7,3.12,11.08,9.1,8.43,18.23Z"/>
    <path d="M248.69,726.83c-9.14,2.88-15,.26-18.3-8.18,3.13-8.67,9.13-11,18.3-8.4Z"/>
    <path d="M203.54,712.58l7.66,7.63-5.79,12H194.94c-2.05-4.26-3.89-8.06-6.48-13.41Z"/>
    <path d="M136.52,760.31H119.73c-4.53-8.7-1-14.22,6.75-18.49C135.36,743.82,138,749.83,136.52,760.31Z"/>
    <path d="M254.92,738.39c9.13-2.88,15-.26,18.29,8.18-3.13,8.67-9.12,11-18.29,8.4Z"/>
    <path d="M50.43,858.34C49,851.78,47.94,847,46.88,842.2c-1.73-4.82,3.6-8.5,13-6.14C66.19,845.09,59.34,849.66,50.43,858.34Z"/>
    <path d="M353,775.8l9.59,6.29c-2.57,9.89-8.36,12.83-17,10.93C343.72,780.7,343.72,780.7,353,775.8Z"/>
    <path d="M361.35,759.69c-9.19,2.53-15.16.14-19.43-11.35l9.55-6.68C360.38,744.11,363.78,749.61,361.35,759.69Z"/>
    <path d="M320.09,744.54l-9.77-9.74,12.81-11.29,6.93,11.13Z"/>
    <path d="M98.5,783.3,88,775.61l9.83-11.1c10,3.86,12.52,9.72,9.72,18.79Z"/>
    <path d="M174.55,734.44c-8.71,10.39-15.66,9.68-22.86,1.23l7.05-14.32Z"/>
    <path d="M386.33,831.22h17.22v12.94l-17.22.82Z"/>
    <path d="M367.56,803.16h17.22V816.1l-17.22.82Z"/>
    <path d="M378.38,770.11C387,768.7,392.8,771.7,396,781l-13.2,7.27C377.44,783.53,371.89,778.31,378.38,770.11Z"/>
    <path d="M409.65,822.56c-2.32-6.26-4.43-11.94-7.1-19.12h14.2C422,810.93,417.5,816.37,409.65,822.56Z"/>
    <path d="M95.76,735.1l13.84,8.79-13.84,9.87Z"/>
    <path d="M228.15,691.47c-3.39,5.48-5.59,9-9.26,14.93l-6.84-12.8C213.09,685.42,220.4,691.82,228.15,691.47Z"/>
    <path d="M142.23,730.46l-16-9.16,13.41-10.24C140.58,718.11,141.17,722.54,142.23,730.46Z"/>
    <path d="M423.9,851.18v-17l15.45,8.21Z"/>
    <path d="M264.33,706.21V689.15l15.45,8.22Z"/>
    <path d="M168.51,704.92l8.2-10.29,10,12.58-16,2.27Q169.64,707.2,168.51,704.92Z"/>
    <path d="M31.41,820.51l9.26-14.93c2.27,4.25,3.92,7.34,6.85,12.8C46.47,826.56,39.17,820.16,31.41,820.51Z"/>
    <path d="M318.63,713.9h-7.26c-.35-4-.71-8.13-1.12-12.91l8.38-1.69Z"/>
    <path d="M357,719.39v7.73H343.74v-7.73Z"/>
    <path d="M61,770.41h13.8c.46,2.37.86,4.47,1.57,8.08l-13.59,1.08C62.25,776.62,61.84,774.52,61,770.41Z"/>
    <path d="M340.49,702.11l-2.35-10.76H355Z"/>
    <path d="M298.73,685.84l-6.9-6.87,7.48-7.94,6,8.25Z"/>
    <path d="M70.71,736.61v9.07l-7.62,1.45-1.65-8.75Z"/>
    <path d="M99.28,717.35v-6.78l8.23-1.71c.62,3,1,5.12,1.73,8.49Z"/>
    <path d="M5.47,821.87h8.37c.45,2.37.86,4.46,1.32,6.88C8.94,832.38,5.06,832.3,5.47,821.87Z"/>
    <path d="M438.41,812.11h6.8c.5,2.37,1,5,1.72,8.21L438.41,822Z"/>
    <path d="M38.27,780.6v6.78L30,789.09c-.62-3-1-5.12-1.73-8.49Z"/>
    <path d="M179.5,679.94,191.69,670c.91,4.48,1.34,6.56,2,9.93Z"/>
    <path d="M158.85,684.93l-10.44,10.4-6.9-7.92Z"/>
    <path d="M389,751.32h-6.81c-.49-2.37-1-5-1.72-8.21l8.53-1.72Z"/>
    <path d="M243.53,676.49h-6.81c-.49-2.37-1-5-1.71-8.21l8.52-1.72Z"/>
    <path d="M414.09,780.57v-5.06h8.08l1.47,2Z"/>
    <path d="M422.3,742.82v7.76l-2.31.31-1.71-7.81Z"/>
    <path d="M381.66,717.84v-7.76l2.23-.36,1.83,7.65Z"/>
    <path d="M420.75,777l-4.69,4.67" style="fill: none;stroke: #000;stroke-linecap: round;stroke-linejoin: round;stroke-width: 2px"/>
  </g>
</svg>
